<?xml version="1.0" encoding="utf-8"?>
<!-- Generator: Adobe Illustrator 19.0.0, SVG Export Plug-In . SVG Version: 6.00 Build 0)  -->
<svg version="1.1" id="Layer_1" xmlns="http://www.w3.org/2000/svg" xmlns:xlink="http://www.w3.org/1999/xlink" x="0px" y="0px"
	 viewBox="0 0 250 250" style="enable-background:new 0 0 250 250;" xml:space="preserve">
<style type="text/css">
	.st0{fill-rule:evenodd;clip-rule:evenodd;fill:none;stroke:#000000;stroke-width:9.4807;stroke-miterlimit:10;}
</style>
<path id="XMLID_1_" class="st0" d="M219.5,231.5H29.2c-6.6,0-12-5.4-12-12V30.1c0-6.6,5.4-12,12-12h190.3c6.6,0,12,5.4,12,12v189.4
	C231.5,226.1,226.1,231.5,219.5,231.5z"/>
<g id="XMLID_7_">
	<path id="XMLID_15_" d="M90.7,133l7.4,4.5c1.2,0,1.9-0.5,1.9-1.5c0-0.7-0.3-1.6-0.9-2.8l-16.3-30.6l-36.2,0.9
		c-1.6,0.1-2.4,0.9-2.4,2.5c0,0.4,0.5,0.9,1.5,1.5l7.5,4.5l-7.9,12.3c-2.2,3.5-3.3,6.4-3.3,8.7c0,2.1,0.7,4.4,2.2,6.9l24.6,42.9
		c-0.6-2.7-0.9-5.3-0.9-7.7c0-4.3,1.4-8.6,4.1-12.8L90.7,133z"/>
	<path id="XMLID_14_" d="M100.2,108l20.3-31.4c-7.6-17.3-15.6-25.9-24.1-25.9c-5.1,0-8.6,1.4-10.4,4.3L66.8,85.6L100.2,108z"/>
	<path id="XMLID_13_" d="M83.7,193.1h39.1v-40.7H85.1c-4.6,6.6-7.5,11.1-8.7,13.4c-1.9,3.7-2.9,7.6-2.9,11.5
		C73.5,187.8,76.9,193.1,83.7,193.1z"/>
	<path id="XMLID_12_" d="M164.2,100.5l17.4-29.3c0.6-1,0.9-2.1,0.9-3.2c0-1.3-0.4-2-1.3-2c0.1,0-0.4,0.2-1.8,0.7l-7.9,3.6l-7.3-14.4
		c-3.2-6.5-9.7-9.7-19.4-9.7H99.5c5.5,1.7,9.3,3.3,11.2,5c4.6,3.7,9.4,10.6,14.2,20.7l9,19l-6.7,3.2c-0.7,0.3-1,0.9-1,1.8
		c0,1.1,0.7,1.7,2.1,1.9L164.2,100.5z"/>
	<path id="XMLID_11_" d="M181.6,187l25.4-46.1c-3.7,4.3-7.8,7.1-12.2,8.6c-3.5,1.2-8.6,1.8-15.1,1.8h-28.2v-5.8
		c0-2.3-0.6-3.4-1.7-3.4c-0.8,0-1.4,0.3-1.8,0.9l-17.9,31l18.5,28.4c1.4,2.1,2.6,3,3.6,2.5c1-0.3,1.5-0.8,1.5-1.7v-9.7h15.7
		C175.3,193.5,179.3,191.3,181.6,187z"/>
	<path id="XMLID_10_" d="M170.6,145.4h16.9c4,0,8.2-1.8,12.6-5.3c4.6-3.7,6.9-7.6,6.9-11.7c0-1.9-0.6-3.8-1.9-5.6l-20.1-30.6
		l-34.5,20.1L170.6,145.4z"/>
</g>
</svg>
