<?xml version="1.0" encoding="utf-8"?>
<!-- Generator: Adobe Illustrator 19.0.0, SVG Export Plug-In . SVG Version: 6.00 Build 0)  -->
<svg version="1.1" id="Layer_1" xmlns="http://www.w3.org/2000/svg" xmlns:xlink="http://www.w3.org/1999/xlink" x="0px" y="0px"
	 viewBox="0 0 250 250" style="enable-background:new 0 0 250 250;" xml:space="preserve">
<g id="XMLID_15_">
	<path d="M164.3,42.7H82.9l-57,48.6v67.9L84.2,209h85.4l55.1-46.9V93.8L164.3,42.7z M77.3,131.1v0.2v0.2v0.2v0.2v0.1v0.2v0.2v0.3
		v0.2v0.2v0.2v0.3v0.2v0.2l-0.1,0.2v0.2l-0.1,0.2l-0.1,0.2v0.3v0.2l-0.1,0.2l-0.1,0.2l-0.1,0.2v0.2l-0.1,0.2l-0.1,0.2v0.2l-0.1,0.2
		l-0.2,0.2v0.3l-0.2,0.2l-0.1,0.1l-0.1,0.2l-0.1,0.2l-0.1,0.2l-0.2,0.2l-0.1,0.3l-0.2,0.1l-0.1,0.2l-0.1,0.2l-0.2,0.2l-0.2,0.1
		l-0.1,0.2l-0.2,0.2l-0.1,0.2l-0.2,0.2l-0.2,0.1l-0.1,0.2l-0.3,0.1l-0.1,0.2l-0.2,0.2l-0.2,0.1l-0.2,0.2l-0.2,0.2l-0.2,0.1l-0.2,0.1
		l-0.2,0.1l-0.2,0.2l-0.3,0.2l-0.2,0.1l-0.2,0.1l-0.2,0.1l-0.3,0.2l-0.2,0.1l-0.2,0.1l-0.3,0.1l-0.2,0.1l-0.2,0.1l-0.3,0.2h-0.3
		l-0.3,0.1l-0.2,0.1l-0.3,0.1l-0.3,0.1l-0.2,0.1l-0.3,0.1l-0.3,0.1l-0.3,0.1h-0.3l-0.3,0.1l-0.3,0.1h-0.3l-0.3,0.1l-0.3,0.1h-0.3
		l-0.4,0.1h-0.3l-0.4,0.1H63l-0.3,0.1h-0.4H62h-0.4l-0.4,0.1h-0.3h-0.4l-0.4,0.1h-0.3h-0.4H59h-0.4h-0.4h-0.4h-0.6h-0.8h-0.7h-0.6
		l-0.6-0.1h-0.7l-0.6-0.1h-0.6L52,145h-0.6l-0.5-0.1l-0.6-0.1l-0.5-0.1l-0.5-0.1l-0.5-0.1l-0.5-0.1l-0.5-0.1l-0.4-0.2l-0.5-0.1
		l-0.4-0.1l-0.5-0.2l-0.4-0.1l-0.4-0.2l-0.4-0.2l-0.3-0.1l-0.4-0.2l-0.4-0.2l-0.3-0.2l-0.3-0.2l-0.3-0.3l-0.3-0.1l-0.3-0.3l-0.2-0.2
		l-0.3-0.2l-0.3-0.3l-0.2-0.3l-0.2-0.2l-0.2-0.3l-0.3-0.2l-0.2-0.3l-0.2-0.2l-0.2-0.3l-0.2-0.3l-0.2-0.2l-0.1-0.3l-0.3-0.3l-0.1-0.3
		l-0.2-0.3l-0.1-0.3l-0.2-0.2l-0.1-0.4l-0.1-0.3l-0.1-0.3l-0.2-0.3l-0.1-0.3V135l-0.2-0.4v-0.3l-0.1-0.4l-0.1-0.3v-0.4l-0.1-0.3
		v-0.3v-0.4l12.9-0.7v0.2v0.2l0.1,0.1v0.2l0.1,0.2v0.1l0.1,0.1v0.2v0.1v0.2l0.1,0.1v0.2l0.1,0.1l0.1,0.1v0.2v0.1L51,134l0.1,0.1v0.2
		l0.1,0.1v0.1l0.1,0.1l0.1,0.2v0.2l0.1,0.1h0.1l0.1,0.2l0.1,0.2h0.1l0.1,0.2l0.1,0.1l0.2,0.1l0.1,0.1l0.2,0.2l0.1,0.1l0.2,0.1
		l0.1,0.1l0.2,0.1l0.1,0.1l0.2,0.2h0.2l0.1,0.1l0.2,0.1l0.2,0.1l0.2,0.1l0.2,0.1h0.2l0.1,0.1l0.3,0.1h0.2l0.1,0.1h0.2H56l0.2,0.1
		h0.2l0.2,0.1h0.3h0.2h0.2h0.2h0.3h0.3h0.1h0.2h0.2h0.1h0.2h0.2h0.1h0.2l0.1-0.1h0.3h0.1l0.2-0.1h0.1h0.2h0.1l0.1-0.1h0.1h0.2
		l0.1-0.1h0.2l0.1-0.1h0.1l0.1-0.1h0.2l0.1-0.1h0.1l0.1-0.1l0.1-0.1h0.1l0.2-0.1l0.1-0.1l0.2-0.1v-0.1l0.1-0.1h0.1l0.1-0.1l0.1-0.1
		l0.1-0.1l0.1-0.1l0.1-0.1l0.1-0.1v-0.1v-0.1h0.1l0.1-0.1v-0.1l0.1-0.1v-0.1v-0.1l0.1-0.1L64,135v-0.1v-0.1l0.1-0.1v-0.1v-0.1v-0.1
		v-0.1v-0.1v-0.1V134v-0.1v-0.1v-0.1v-0.1v-0.1v-0.1l-0.1-0.1v-0.1l-0.1-0.1V133l-0.1-0.1v-0.1v-0.1h-0.1v-0.1l-0.1-0.1l-0.1-0.1
		v-0.2h-0.1l-0.1-0.1l-0.1-0.1l-0.1-0.1l-0.1-0.1l-0.1-0.1l-0.1-0.1l-0.1-0.1l-0.1-0.1h-0.1l-0.1-0.1l-0.1-0.1h-0.2v-0.1l-0.2-0.1
		l-0.1-0.1l-0.2-0.1h-0.1l-0.3-0.1h-0.1l-0.2-0.1l-0.2-0.1h-0.2l-0.1-0.1l-0.3-0.1l-0.2-0.1l-0.2-0.1h-0.3l-0.2-0.1h-0.3l-0.3-0.1
		l-0.2-0.1h-0.3l-0.3-0.1l-0.3-0.1h-0.3l-0.3-0.1h-0.3l-0.3-0.1l-0.3-0.1h-0.4l-0.5-0.2l-0.6-0.1l-0.5-0.1l-0.5-0.1l-0.6-0.1
		l-0.5-0.1l-0.4-0.2l-0.6-0.1l-0.4-0.1l-0.5-0.1l-0.5-0.2l-0.4-0.1l-0.5-0.1l-0.3-0.2l-0.5-0.1l-0.3-0.2l-0.5-0.1l-0.4-0.2l-0.3-0.1
		l-0.4-0.1l-0.4-0.2l-0.3-0.1l-0.3-0.2l-0.3-0.2l-0.3-0.1l-0.3-0.2l-0.3-0.2l-0.3-0.1l-0.3-0.2l-0.3-0.2l-0.2-0.2l-0.3-0.1l-0.3-0.2
		l-0.2-0.2l-0.2-0.2L42,124l-0.3-0.2l-0.2-0.2l-0.2-0.2l-0.2-0.3l-0.1-0.2l-0.2-0.2l-0.2-0.1l-0.1-0.3l-0.2-0.2l-0.1-0.2l-0.1-0.2
		l-0.2-0.3l-0.1-0.2l-0.1-0.2l-0.1-0.3l-0.1-0.2l-0.1-0.2V120l-0.1-0.2l-0.1-0.3l-0.1-0.2V119v-0.2v-0.3l-0.1-0.3v-0.3v-0.2v-0.3
		v-0.2v-0.1v-0.2v-0.2l0.1-0.2v-0.2v-0.1V116v-0.2l0.1-0.2v-0.1l0.1-0.2v-0.2l0.1-0.2v-0.1l0.1-0.2l0.1-0.2v-0.1l0.1-0.2v-0.2
		l0.1-0.1l0.1-0.2l0.1-0.2l0.1-0.1l0.1-0.2l0.1-0.2l0.1-0.1l0.1-0.2l0.1-0.2l0.1-0.2l0.1-0.1l0.1-0.2l0.2-0.2l0.1-0.1l0.2-0.2v-0.1
		l0.2-0.1l0.1-0.2l0.2-0.1l0.1-0.2l0.2-0.2l0.2-0.1l0.1-0.1l0.2-0.1l0.1-0.2l0.3-0.1l0.1-0.1l0.2-0.1l0.2-0.2l0.2-0.1l0.2-0.1
		l0.2-0.1l0.2-0.2l0.2-0.1l0.2-0.1l0.2-0.1l0.2-0.1l0.2-0.1l0.3-0.1l0.2-0.1l0.2-0.2h0.3l0.2-0.1l0.2-0.1l0.3-0.1l0.3-0.1l0.3-0.1
		l0.2-0.1l0.3-0.1h0.3l0.3-0.1h0.3l0.3-0.1l0.3-0.1H50l0.3-0.1l0.3-0.1h0.3l0.3-0.1h0.4l0.3-0.1h0.4h0.3l0.4-0.1h0.4h0.3h0.4
		l0.4-0.1h0.4h0.3l0.5-0.1H56h0.5h0.4h0.4h0.5h0.5h0.5h0.5h0.5l0.5,0.1h0.5l0.4,0.1h0.5h0.5l0.5,0.1h0.4l0.4,0.1l0.4,0.1h0.5
		l0.4,0.1l0.4,0.1l0.4,0.1l0.4,0.1l0.4,0.1h0.3l0.4,0.2l0.4,0.1l0.3,0.1l0.3,0.1l0.4,0.1l0.3,0.2l0.3,0.1l0.4,0.2l0.3,0.1l0.3,0.2
		l0.3,0.1l0.2,0.2l0.3,0.2l0.3,0.2l0.2,0.1l0.3,0.2l0.2,0.2l0.2,0.2l0.3,0.2l0.2,0.2l0.2,0.3L73,111l0.3,0.3l0.2,0.3l0.1,0.2
		l0.3,0.3l0.1,0.2l0.1,0.3l0.2,0.2l0.2,0.3l0.2,0.3v0.3l0.2,0.3l0.1,0.3l0.2,0.3l0.1,0.3v0.3l0.2,0.3l0.1,0.4v0.3l0.1,0.4l0.1,0.3
		l0.1,0.3v0.4l-12.8,0.7l-0.1-0.2v-0.2l-0.1-0.1v-0.2v-0.1l-0.1-0.1v-0.2l-0.1-0.1v-0.2v-0.1l-0.1-0.1l-0.1-0.1l-0.1-0.2v-0.1v-0.1
		l-0.1-0.2l-0.1-0.1h-0.1v-0.2l-0.1-0.1l-0.1-0.1l-0.1-0.1l-0.1-0.2h-0.2V115h-0.1l-0.1-0.1l-0.1-0.1l-0.1-0.1H61l-0.1-0.1l-0.1-0.1
		h-0.1l-0.1-0.2h-0.1l-0.1-0.1h-0.1l-0.2-0.1H60l-0.1-0.1h-0.1l-0.2-0.1h-0.1l-0.1-0.1h-0.2h-0.1l-0.2-0.1l-0.1-0.1h-0.2h-0.1h-0.2
		h-0.1l-0.1-0.1h-0.2h-0.1h-0.2h-0.2h-0.2h-0.1h-0.2l-0.2-0.1h-0.1h-0.3h-0.1H56v0.1h-0.2h-0.1h-0.2h-0.1h-0.2H55h-0.1h-0.1
		l-0.2,0.1h-0.1h-0.1h-0.1h-0.1l-0.2,0.1l-0.1,0.1h-0.2h-0.2v0.1l-0.1,0.1h-0.1h-0.1l-0.1,0.1H53h-0.1v0.1l-0.1,0.1h-0.1l-0.1,0.1
		l-0.1,0.1h-0.1v0.1l-0.1,0.1l-0.1,0.1l-0.1,0.1L52,115v0.1l-0.1,0.1l-0.1,0.1v0.1h-0.1v0.1v0.1v0.1v0.1v0.1h-0.1v0.1v0.1v0.1v0.1
		v0.1v0.1v0.1v0.1l0.1,0.1v0.1v0.1v0.1l0.1,0.1l0.1,0.1v0.1H52v0.1l0.1,0.1h0.1l0.1,0.1v0.1h0.1l0.1,0.1h0.1v0.1l0.1,0.1h0.1h0.1
		v0.1l0.1,0.1h0.2l0.1,0.1l0.2,0.1h0.2l0.1,0.1h0.1H54l0.2,0.1h0.1l0.2,0.1h0.1h0.2l0.2,0.1l0.2,0.1h0.1h0.2l0.2,0.1h0.2h0.2
		l0.2,0.1h0.2l0.2,0.1h0.2h0.3l0.5,0.2l0.6,0.1l0.5,0.1l0.5,0.1h0.5l0.6,0.2l0.5,0.1l0.4,0.1l0.5,0.1l0.5,0.1l0.4,0.1l0.5,0.1
		l0.4,0.1l0.4,0.1l0.4,0.1l0.4,0.1l0.4,0.1l0.4,0.1l0.4,0.1l0.4,0.1l0.3,0.2H67l0.4,0.1l0.3,0.2h0.4l0.3,0.2l0.3,0.1h0.2l0.3,0.2
		l0.3,0.1l0.2,0.1l0.3,0.1l0.2,0.1l0.2,0.1l0.3,0.1l0.2,0.1l0.2,0.1l0.2,0.1l0.3,0.1l0.2,0.2l0.2,0.1l0.1,0.1l0.3,0.2l0.2,0.1
		l0.1,0.1l0.3,0.1l0.1,0.2l0.2,0.1l0.2,0.1l0.1,0.1l0.3,0.2l0.1,0.1l0.1,0.1l0.2,0.2l0.1,0.1l0.2,0.2l0.1,0.1l0.2,0.2l0.1,0.1
		l0.1,0.1l0.2,0.2l0.1,0.1l0.1,0.2l0.1,0.2l0.1,0.1l0.1,0.2l0.1,0.1l0.1,0.2l0.1,0.1l0.1,0.2l0.1,0.2l0.1,0.1l0.1,0.2v0.1l0.1,0.2
		l0.1,0.2v0.2l0.1,0.1v0.2l0.1,0.2l0.1,0.1v0.2v0.2l0.1,0.2v0.2l0.1,0.2v0.1l0.1,0.2V131.1z M122.6,116.3h-14v28.3H95.1v-28.3h-14
		V107l41.5,0.1V116.3z M170.7,125.6v0.4l-0.1,0.4v0.4v0.4v0.4l-0.1,0.3v0.4l-0.1,0.4v0.4v0.4l-0.1,0.3v0.4l-0.1,0.3l-0.1,0.4v0.3
		l-0.1,0.4l-0.1,0.3l-0.1,0.3l-0.1,0.4l-0.1,0.3l-0.1,0.3l-0.1,0.3l-0.1,0.3l-0.1,0.3l-0.2,0.4v0.3l-0.2,0.2l-0.1,0.3l-0.2,0.3
		l-0.1,0.2l-0.2,0.4l-0.1,0.2l-0.2,0.3l-0.2,0.2l-0.2,0.3l-0.1,0.2l-0.2,0.3l-0.2,0.2l-0.2,0.3l-0.2,0.2l-0.2,0.2l-0.2,0.3l-0.2,0.2
		l-0.2,0.2l-0.3,0.2l-0.2,0.2l-0.2,0.3l-0.2,0.1l-0.2,0.2l-0.3,0.2l-0.3,0.3l-0.2,0.2l-0.3,0.2l-0.2,0.1l-0.3,0.2l-0.2,0.2l-0.3,0.2
		l-0.3,0.1l-0.3,0.2l-0.3,0.2l-0.3,0.1l-0.3,0.2l-0.3,0.1l-0.3,0.2l-0.3,0.1l-0.3,0.1l-0.3,0.2l-0.4,0.1l-0.3,0.1l-0.3,0.1l-0.3,0.2
		l-0.4,0.1l-0.3,0.1l-0.4,0.1l-0.3,0.1l-0.4,0.1l-0.4,0.1l-0.3,0.1h-0.4l-0.4,0.1l-0.4,0.1l-0.4,0.1l-0.4,0.1h-0.4H153l-0.4,0.1
		h-0.4h-0.4l-0.4,0.1h-0.5l-0.4,0.1H150h-0.4h-0.5h-0.4h-0.4h-0.5h-0.4h-0.5h-0.5H146h-0.4l-0.5-0.1h-0.4l-0.4-0.1h-0.4h-0.5
		l-0.3-0.1h-0.5h-0.4l-0.4-0.1l-0.4-0.1h-0.3l-0.4-0.1l-0.4-0.1l-0.4-0.1l-0.3-0.1h-0.4l-0.4-0.1l-0.3-0.1l-0.3-0.1l-0.3-0.1
		l-0.4-0.1l-0.3-0.2h-0.4l-0.3-0.1l-0.3-0.2l-0.3-0.1l-0.3-0.1l-0.2-0.1l-0.3-0.2l-0.3-0.2l-0.3-0.1l-0.3-0.2l-0.3-0.1l-0.3-0.2
		l-0.3-0.1l-0.2-0.2l-0.3-0.2l-0.3-0.2l-0.3-0.1l-0.2-0.2l-0.3-0.3l-0.2-0.2l-0.2-0.1l-0.3-0.2l-0.3-0.3l-0.2-0.2l-0.2-0.2l-0.2-0.2
		l-0.2-0.3l-0.3-0.2l-0.2-0.2l-0.2-0.3l-0.2-0.2l-0.3-0.3l-0.1-0.2l-0.2-0.3l-0.2-0.3l-0.2-0.2l-0.2-0.3l-0.2-0.3l-0.2-0.3l-0.1-0.3
		l-0.2-0.2l-0.1-0.4l-0.2-0.3l-0.1-0.3l-0.2-0.3l-0.1-0.3l-0.2-0.3v-0.4l-0.2-0.3l-0.1-0.3l-0.1-0.3l-0.1-0.4l-0.1-0.3l-0.1-0.4
		l-0.1-0.3l-0.1-0.4v-0.4v-0.3l-0.1-0.3l-0.1-0.4v-0.4l-0.1-0.4v-0.4v-0.4v-0.4v-0.4v-0.4v-0.4v-0.6v-0.6v-0.5v-0.6l0.1-0.5v-0.5
		l0.1-0.5l0.1-0.5l0.1-0.6l0.2-0.5V120l0.2-0.5l0.1-0.4l0.2-0.5l0.1-0.5l0.2-0.4l0.3-0.5l0.1-0.4l0.2-0.4l0.3-0.4l0.3-0.5l0.2-0.3
		l0.3-0.5l0.2-0.4l0.3-0.3l0.3-0.4l0.4-0.3l0.3-0.4l0.3-0.4l0.3-0.3l0.4-0.3l0.4-0.3l0.3-0.4l0.4-0.3l0.5-0.3l0.3-0.2l0.5-0.4
		l0.3-0.2l0.5-0.3l0.4-0.2l0.5-0.3l0.5-0.2l0.4-0.2l0.6-0.2l0.4-0.2l0.5-0.2l0.5-0.1l0.6-0.2l0.5-0.2l0.5-0.1l0.6-0.1l0.5-0.2
		l0.6-0.1l0.5-0.1l0.6-0.1l0.6-0.1h0.6l0.7-0.1h0.6l0.6-0.1l0.6-0.1h0.7h0.7h0.6h0.7h0.7h0.6l0.7,0.1l0.6,0.1h0.7l0.6,0.1h0.6
		l0.6,0.1l0.6,0.1l0.6,0.1l0.6,0.1l0.5,0.2l0.6,0.1l0.5,0.1l0.6,0.2l0.5,0.1l0.5,0.2l0.5,0.2l0.5,0.2l0.5,0.2l0.5,0.2l0.4,0.2
		l0.5,0.3l0.4,0.2l0.5,0.2l0.4,0.3l0.4,0.3l0.4,0.2l0.4,0.4l0.4,0.3l0.4,0.2l0.3,0.4l0.4,0.3l0.4,0.3l0.3,0.4l0.3,0.3l0.3,0.4
		l0.3,0.3l0.3,0.4l0.2,0.4l0.3,0.4l0.3,0.4l0.2,0.4l0.2,0.4l0.2,0.4l0.3,0.5l0.2,0.4l0.1,0.4l0.2,0.5l0.1,0.4l0.2,0.5l0.1,0.5
		l0.2,0.5v0.5l0.2,0.5l0.1,0.5v0.5l0.1,0.5v0.6l0.1,0.5v0.6l0.1,0.5V125.6z M215.4,118.6v0.4l-0.1,0.3v0.4v0.3l-0.1,0.3v0.4v0.3
		l-0.1,0.3l-0.1,0.3v0.3l-0.1,0.3l-0.1,0.3l-0.1,0.3l-0.1,0.3l-0.1,0.3l-0.1,0.3l-0.2,0.3l-0.1,0.2l-0.2,0.3l-0.1,0.3l-0.2,0.2
		l-0.1,0.3l-0.2,0.2l-0.2,0.2l-0.2,0.3l-0.2,0.2l-0.2,0.2l-0.2,0.3l-0.2,0.2l-0.3,0.2l-0.2,0.2l-0.2,0.2l-0.3,0.2l-0.2,0.2l-0.3,0.2
		l-0.3,0.2l-0.3,0.1l-0.3,0.2l-0.3,0.2l-0.3,0.1l-0.4,0.2l-0.3,0.1l-0.4,0.1l-0.2,0.2l-0.4,0.1l-0.4,0.1l-0.4,0.1l-0.3,0.1l-0.4,0.1
		l-0.4,0.1h-0.4l-0.5,0.2h-0.3l-0.5,0.1l-0.4,0.1h-0.5h-0.4l-0.5,0.1l-0.5,0.1h-0.4h-0.5h-0.5h-0.5h-0.5h-7.5v13.9h-13.7V107
		l22.7,0.1h0.5h0.4h0.5h0.4h0.4l0.4,0.1h0.5l0.3,0.1h0.5l0.4,0.1h0.3l0.4,0.1l0.4,0.1h0.3l0.4,0.1l0.4,0.1l0.3,0.1l0.4,0.1l0.2,0.1
		l0.4,0.1l0.3,0.1l0.3,0.2l0.3,0.1l0.3,0.2l0.3,0.1l0.3,0.1l0.2,0.2l0.3,0.1l0.2,0.2l0.3,0.2l0.3,0.1l0.2,0.2l0.2,0.2l0.2,0.2
		l0.3,0.2l0.2,0.3l0.1,0.1l0.2,0.2l0.2,0.3l0.2,0.2l0.2,0.2l0.1,0.3l0.2,0.2l0.1,0.2l0.2,0.3l0.1,0.2l0.2,0.4v0.2l0.2,0.3l0.1,0.2
		v0.3l0.2,0.3l0.1,0.3v0.3l0.1,0.3l0.1,0.3v0.3v0.3v0.3l0.1,0.3v0.4v0.3l0.1,0.4V118.6z"/>
	<polygon id="XMLID_2_" points="191.6,123.1 195,123.1 195.2,123.1 195.4,123.1 195.7,123.1 195.9,123.1 196.1,123.1 196.3,123.1 
		196.6,123.1 196.8,123 197,123 197.2,123 197.4,122.9 197.6,122.9 197.8,122.9 198,122.9 198.1,122.8 198.3,122.8 198.5,122.7 
		198.6,122.7 198.8,122.7 199,122.6 199.1,122.6 199.3,122.5 199.4,122.5 199.5,122.4 199.7,122.4 199.8,122.3 200,122.2 200,122.2 
		200.2,122.1 200.3,122.1 200.4,122 200.5,121.9 200.6,121.9 200.7,121.7 200.8,121.7 200.9,121.6 200.9,121.6 201.1,121.4 
		201.1,121.4 201.2,121.3 201.3,121.2 201.4,121.1 201.4,121 201.4,120.9 201.5,120.9 201.6,120.8 201.7,120.7 201.7,120.6 
		201.7,120.5 201.8,120.4 201.8,120.3 201.9,120.2 201.9,120.1 202,120 202,119.9 202,119.8 202,119.7 202,119.6 202,119.5 
		202,119.4 202,119.3 202.1,119.1 202.1,119 202.1,119 202.1,118.8 202.1,118.7 202,118.6 202,118.5 202,118.4 202,118.3 202,118.2 
		202,118.1 202,117.9 202,117.9 201.9,117.8 201.9,117.7 201.9,117.6 201.8,117.5 201.8,117.4 201.7,117.3 201.7,117.2 201.7,117.1 
		201.6,117 201.5,116.9 201.5,116.8 201.4,116.7 201.4,116.7 201.3,116.6 201.2,116.5 201.1,116.4 201.1,116.3 201,116.2 
		200.9,116.2 200.9,116.1 200.8,116 200.7,115.9 200.6,115.9 200.6,115.8 200.4,115.7 200.3,115.7 200.2,115.6 200.1,115.5 
		200,115.5 199.9,115.4 199.7,115.4 199.6,115.3 199.4,115.2 199.3,115.2 199.1,115.2 199,115.1 198.9,115 198.7,115 198.6,115 
		198.4,114.9 198.2,114.9 198,114.9 197.8,114.8 197.7,114.8 197.4,114.8 197.3,114.8 197.1,114.8 196.8,114.7 196.6,114.7 
		196.4,114.7 196.2,114.7 196,114.7 195.7,114.7 195.5,114.7 191.6,114.7 	"/>
	<polygon id="XMLID_1_" points="138.5,125.9 138.5,126.3 138.6,126.6 138.6,127 138.6,127.3 138.6,127.6 138.7,127.9 138.7,128.3 
		138.8,128.6 138.8,128.9 138.8,129.2 138.8,129.5 138.9,129.8 139,130 139.1,130.3 139.1,130.6 139.2,130.8 139.3,131.1 
		139.4,131.4 139.4,131.5 139.5,131.8 139.7,132 139.7,132.2 139.9,132.5 139.9,132.7 140.1,132.9 140.2,133.1 140.3,133.2 
		140.5,133.4 140.6,133.6 140.8,133.8 140.9,133.9 141.1,134.1 141.2,134.3 141.4,134.4 141.5,134.6 141.7,134.7 141.9,134.8 
		142,135 142.2,135.1 142.4,135.2 142.6,135.3 142.8,135.4 143,135.5 143.1,135.7 143.4,135.7 143.6,135.8 143.8,135.9 144,136 
		144.2,136 144.4,136.2 144.6,136.2 144.8,136.3 145.1,136.3 145.3,136.3 145.6,136.4 145.8,136.5 146,136.5 146.3,136.5 
		146.6,136.5 146.8,136.5 147,136.6 147.3,136.6 147.5,136.6 147.8,136.6 148.1,136.6 148.3,136.6 148.6,136.6 148.9,136.5 
		149.1,136.5 149.4,136.5 149.7,136.5 149.9,136.5 150.1,136.4 150.3,136.3 150.6,136.3 150.9,136.3 151.1,136.2 151.3,136.2 
		151.5,136.1 151.7,136 151.9,135.9 152.1,135.8 152.3,135.8 152.6,135.7 152.7,135.6 152.9,135.5 153.1,135.3 153.3,135.3 
		153.4,135.1 153.6,135 153.8,134.9 154,134.8 154.1,134.6 154.3,134.5 154.4,134.3 154.6,134.2 154.8,134 154.9,133.9 155,133.7 
		155.2,133.5 155.3,133.3 155.5,133.1 155.5,132.9 155.7,132.7 155.8,132.5 155.9,132.3 156,132 156.1,131.8 156.2,131.5 
		156.3,131.3 156.3,131 156.4,130.8 156.5,130.5 156.6,130.2 156.6,129.9 156.7,129.6 156.7,129.3 156.8,129 156.9,128.7 
		156.9,128.3 156.9,128 156.9,127.7 156.9,127.3 157,126.9 157,126.6 157,126.2 157,125.9 157,125.4 157,125.1 157,124.8 157,124.5 
		157,124.1 156.9,123.8 156.9,123.5 156.9,123.3 156.9,122.9 156.8,122.7 156.8,122.4 156.7,122.1 156.6,121.9 156.6,121.6 
		156.6,121.3 156.5,121 156.4,120.9 156.3,120.6 156.2,120.3 156.1,120.1 156,119.9 155.9,119.7 155.8,119.5 155.8,119.3 
		155.6,119.1 155.5,118.9 155.4,118.7 155.2,118.5 155.1,118.3 154.9,118.1 154.8,118 154.6,117.8 154.5,117.7 154.3,117.5 
		154.2,117.4 154,117.2 153.8,117.1 153.7,116.9 153.5,116.8 153.3,116.7 153.2,116.6 152.9,116.5 152.8,116.4 152.6,116.2 
		152.3,116.2 152.2,116 152,116 151.7,115.9 151.5,115.8 151.3,115.7 151.1,115.7 150.9,115.6 150.6,115.5 150.4,115.5 150.2,115.4 
		150,115.4 149.7,115.4 149.5,115.3 149.2,115.3 149,115.2 148.7,115.2 148.5,115.2 148.3,115.2 148,115.2 147.7,115.2 147.4,115.2 
		147.2,115.2 146.9,115.2 146.7,115.2 146.5,115.2 146.2,115.3 146,115.3 145.7,115.4 145.5,115.4 145.3,115.4 145.1,115.5 
		144.8,115.5 144.6,115.6 144.4,115.7 144.2,115.7 144,115.8 143.8,115.9 143.6,116 143.4,116.1 143.2,116.2 143,116.3 142.8,116.4 
		142.6,116.5 142.4,116.6 142.2,116.7 142.1,116.9 141.9,117 141.7,117.1 141.6,117.2 141.4,117.4 141.2,117.6 141.1,117.7 
		140.9,117.8 140.8,118 140.6,118.2 140.5,118.4 140.4,118.6 140.2,118.8 140.1,119 140,119.1 139.9,119.3 139.7,119.6 139.7,119.8 
		139.6,120 139.4,120.3 139.4,120.5 139.3,120.7 139.2,121 139.1,121.2 139.1,121.6 139,121.8 138.9,122.1 138.8,122.4 138.8,122.6 
		138.8,122.9 138.8,123.3 138.7,123.6 138.7,123.9 138.6,124.2 138.6,124.5 138.6,124.9 138.6,125.2 138.5,125.6 	"/>
</g>
</svg>
