<?xml version="1.0" encoding="UTF-8" standalone="no"?>
<!-- Generator: Adobe Illustrator 19.0.0, SVG Export Plug-In . SVG Version: 6.00 Build 0)  -->

<svg
   xmlns:dc="http://purl.org/dc/elements/1.1/"
   xmlns:cc="http://creativecommons.org/ns#"
   xmlns:rdf="http://www.w3.org/1999/02/22-rdf-syntax-ns#"
   xmlns:svg="http://www.w3.org/2000/svg"
   xmlns="http://www.w3.org/2000/svg"
   xmlns:sodipodi="http://sodipodi.sourceforge.net/DTD/sodipodi-0.dtd"
   xmlns:inkscape="http://www.inkscape.org/namespaces/inkscape"
   version="1.1"
   id="Layer_1"
   x="0px"
   y="0px"
   viewBox="0 0 250 200"
   xml:space="preserve"
   inkscape:version="0.91 r13725"
   sodipodi:docname="big-track.svg"
   width="250"
   height="200"><metadata
     id="metadata10"><rdf:RDF><cc:Work
         rdf:about=""><dc:format>image/svg+xml</dc:format><dc:type
           rdf:resource="http://purl.org/dc/dcmitype/StillImage" /><dc:title /></cc:Work></rdf:RDF></metadata><defs
     id="defs8" /><sodipodi:namedview
     pagecolor="#ffffff"
     bordercolor="#666666"
     borderopacity="1"
     objecttolerance="10"
     gridtolerance="10"
     guidetolerance="10"
     inkscape:pageopacity="0"
     inkscape:pageshadow="2"
     inkscape:window-width="1536"
     inkscape:window-height="801"
     id="namedview6"
     showgrid="false"
     inkscape:zoom="3.6790168"
     inkscape:cx="135.2392"
     inkscape:cy="118.5604"
     inkscape:window-x="-8"
     inkscape:window-y="-8"
     inkscape:window-maximized="1"
     inkscape:current-layer="XMLID_2_" /><style
     type="text/css"
     id="style3">
	.st0{font-family:&quot;Arial Black&quot;, &quot;Arial Bold&quot;, Gadget, sans-serif;}
	.st1{font-size:100px;}
</style><g
     transform="scale(0.77423927,1.2915904)"
     style="font-size:125.51255798px;font-family:'Arial Black', 'Arial Bold', Gadget, sans-serif"
     id="XMLID_2_"><path
       d="m 70.781757,89.803591 0,-18.692056 42.899803,0 0,38.303395 q -12.31837,8.3961 -21.817616,11.46037 -9.437956,3.00299 -22.430466,3.00299 -15.995497,0 -26.107593,-5.4544 -10.05081,-5.45441 -15.627784,-16.24064 -5.515689,-10.786238 -5.515689,-24.759316 0,-14.708503 6.067257,-25.556024 6.067258,-10.908806 17.772775,-16.547065 9.131529,-4.351266 24.575457,-4.351266 14.892359,0 22.24661,2.696559 7.415539,2.696559 12.257089,8.396104 4.90283,5.638259 7.35425,14.34079 l -26.781734,4.780263 q -1.654706,-5.08669 -5.638259,-7.783249 -3.922268,-2.696559 -10.050811,-2.696559 -9.131529,0 -14.585932,6.373685 -5.393117,6.312399 -5.393117,20.040335 0,14.585932 5.454403,20.837046 5.515688,6.251117 15.321357,6.251117 4.657693,0 8.886387,-1.34828 4.228695,-1.34828 9.683098,-4.59641 l 0,-8.457389 -18.569485,0 z"
       style="font-size:125.51255798px;font-family:'Arial Black', 'Arial Bold', Gadget, sans-serif"
       id="path4135"
       inkscape:connector-curvature="0" /><path
       d="m 125.26588,31.165095 27.62207,0 q 8.16759,0 13.17485,1.425952 5.04832,1.425953 8.33177,4.093011 3.28346,2.667059 4.76101,6.205533 1.47756,3.538475 1.47756,7.499453 0,6.205534 -2.21634,9.638382 -2.17528,3.406442 -6.07439,5.730217 -3.8991,2.297367 -8.37281,3.063157 -6.11543,1.056258 -11.08165,1.056258 l -27.62207,0 0,-38.711963 z m 18.59256,8.766965 0,21.151629 4.55579,0 q 5.82814,0 8.29073,-0.818604 2.46259,-0.845009 3.85806,-2.904719 1.39547,-2.086114 1.39547,-6.733662 0,-6.152721 -3.11929,-8.423682 -3.11928,-2.270962 -10.34287,-2.270962 l -4.63789,0 z"
       style="font-size:125.51255798px;font-family:'Arial Black', 'Arial Bold', Gadget, sans-serif"
       id="path4137"
       inkscape:connector-curvature="0" /><path
       d="m 217.76399,29.437438 46.14793,0 q 15.07622,0 22.55304,7.414952 7.53811,7.414952 7.53811,21.104095 0,14.069396 -8.21225,21.991352 -8.15096,7.921958 -24.94317,7.921958 l -15.19879,0 0,34.476355 -27.88487,0 0,-92.908712 z m 27.88487,39.609787 6.80269,0 q 8.02839,0 11.27651,-2.851905 3.24813,-2.91528 3.24813,-7.414952 0,-4.37292 -2.81913,-7.414952 -2.81913,-3.042031 -10.60238,-3.042031 l -7.90582,0 0,20.72384 z"
       style="font-size:125.51255798px;font-family:'Arial Black', 'Arial Bold', Gadget, sans-serif"
       id="path4139"
       inkscape:connector-curvature="0" /></g></svg>