<?xml version="1.0" encoding="UTF-8" standalone="no"?>
<!-- Generator: Adobe Illustrator 19.0.0, SVG Export Plug-In . SVG Version: 6.00 Build 0)  -->

<svg
   xmlns:dc="http://purl.org/dc/elements/1.1/"
   xmlns:cc="http://creativecommons.org/ns#"
   xmlns:rdf="http://www.w3.org/1999/02/22-rdf-syntax-ns#"
   xmlns:svg="http://www.w3.org/2000/svg"
   xmlns="http://www.w3.org/2000/svg"
   xmlns:sodipodi="http://sodipodi.sourceforge.net/DTD/sodipodi-0.dtd"
   xmlns:inkscape="http://www.inkscape.org/namespaces/inkscape"
   version="1.1"
   id="Layer_1"
   x="0px"
   y="0px"
   viewBox="0 0 180 200"
   xml:space="preserve"
   inkscape:version="0.91 r13725"
   sodipodi:docname="winding-track.svg"
   width="180"
   height="200"><metadata
     id="metadata13"><rdf:RDF><cc:Work
         rdf:about=""><dc:format>image/svg+xml</dc:format><dc:type
           rdf:resource="http://purl.org/dc/dcmitype/StillImage" /><dc:title /></cc:Work></rdf:RDF></metadata><defs
     id="defs11" /><sodipodi:namedview
     pagecolor="#ffffff"
     bordercolor="#666666"
     borderopacity="1"
     objecttolerance="10"
     gridtolerance="10"
     guidetolerance="10"
     inkscape:pageopacity="0"
     inkscape:pageshadow="2"
     inkscape:window-width="1536"
     inkscape:window-height="801"
     id="namedview9"
     showgrid="false"
     inkscape:zoom="2.1416247"
     inkscape:cx="150.04015"
     inkscape:cy="118.39684"
     inkscape:current-layer="Layer_1"
     inkscape:window-x="-8"
     inkscape:window-y="-8"
     inkscape:window-maximized="1" /><style
     type="text/css"
     id="style3">
	.st0{font-family:&quot;Arial Black&quot;, &quot;Arial Bold&quot;, Gadget, sans-serif;}
	.st1{font-size:100px;}
	.st2{fill:none;stroke:#000000;stroke-width:0.1222;stroke-linecap:round;stroke-linejoin:round;stroke-miterlimit:10;}
</style><text
     id="XMLID_2_"
     transform="scale(0.91496859,1.0929337)"
     class="st0 st1"
     x="9.9521589"
     y="109.79623"
     style="font-size:115.03888702px;font-family:'Arial Black', 'Arial Bold', Gadget, sans-serif" />
<g
     transform="matrix(0.88636207,0,0,1.1282071,10,0)"
     style="font-size:148.58959961px;font-family:'Arial Black', 'Arial Bold', Gadget, sans-serif"
     id="text3405"><path
       d="m 5.641036,35.454494 48.093922,0 q 15.711958,0 23.504068,8.488761 7.855979,8.488761 7.855979,24.160321 0,16.10688 -8.558547,25.17607 -8.494676,9.069184 -25.994988,9.069184 l -15.839697,0 0,39.46912 -29.060737,0 0,-106.363456 z m 29.060737,45.345947 7.089542,0 q 8.366936,0 11.752034,-3.264908 3.385096,-3.337462 3.385096,-8.488762 0,-5.006192 -2.938009,-8.488761 -2.938007,-3.482569 -11.049466,-3.482569 l -8.239197,0 0,23.725 z"
       style="font-size:148.58959961px;font-family:'Arial Black', 'Arial Bold', Gadget, sans-serif"
       id="path3453"
       inkscape:connector-curvature="0" /></g><g
     id="XMLID_1_"
     transform="matrix(1.3782213,0,0,1.9052667,-132.76849,-115.82857)"><polygon
       id="XMLID_10_"
       points="206.8,90.4 206.5,90.6 206.4,90.6 206.2,90.7 206.1,90.7 206,90.8 205.8,90.8 205.6,90.8 205.4,91 205.3,91 205.1,91.1 205,91.1 204.7,91.1 204.6,91.1 204.5,91.2 204.3,91.2 204.2,91.2 204.1,91.4 203.8,91.4 203.7,91.5 203.5,91.5 203.4,91.7 203.3,91.7 203.1,91.8 202.9,91.8 202.9,91.8 202.7,91.8 202.6,91.8 202.5,91.9 202.2,91.9 202,92.1 201.9,92.1 201.8,92.2 201.6,92.2 201.5,92.3 201.2,92.3 201.1,92.3 201,92.5 200.8,92.5 200.7,92.5 200.4,92.5 200.3,92.6 200.2,92.6 200,92.7 199.9,92.7 199.8,92.9 199.5,92.9 199.3,92.9 199.2,93 199.1,93 198.9,93.1 198.7,93.1 198.5,93.1 198.4,93.1 198.3,93.3 198.1,93.3 198,93.4 197.7,93.4 197.6,93.4 197.5,93.5 197.3,93.5 197.2,93.7 197.1,93.7 196.8,93.8 196.6,93.8 196.5,93.8 196.4,93.8 196.2,93.9 196,93.9 195.8,93.9 195.7,94.1 195.6,94.1 195.4,94.2 195.3,94.2 195,94.4 194.9,94.4 194.9,94.5 194.8,94.5 194.6,94.5 194.4,94.5 194.2,94.6 194.1,94.6 193.9,94.6 193.8,94.8 193.7,94.8 193.4,94.9 193.3,94.9 193.1,95 193,95 192.9,95.2 192.7,95.2 192.5,95.2 192.3,95.2 192.2,95.2 192.1,95.3 191.9,95.3 191.7,95.4 191.5,95.4 191.4,95.6 191.3,95.6 191.1,95.7 191,95.7 190.7,95.8 190.6,95.8 190.4,95.8 190.3,95.8 190.2,95.8 189.9,96 189.8,96 189.6,96.1 189.5,96.1 189.4,96.2 189.2,96.2 189,96.4 188.8,96.4 188.7,96.4 188.6,96.5 188.4,96.5 188.3,96.5 188,96.5 187.9,96.6 187.7,96.6 187.6,96.8 187.2,96.9 186.8,97 186.4,97.2 186,97.2 185.6,97.5 185,97.6 184.6,97.7 184.2,97.9 183.8,97.9 183.3,98.1 182.9,98.3 182.5,98.4 182.1,98.5 181.7,98.7 181.1,98.8 180.7,98.9 180.3,99.2 179.9,99.2 179.6,99.5 179.2,99.7 179,100 178.8,100.4 178.6,100.7 178.4,101.1 178.4,101.4 178.4,101.8 178.6,102 178.6,102.4 178.8,102.7 178.8,103.1 179.1,103.3 179.5,103.5 179.8,103.8 180.2,103.9 180.6,104.1 181,104.2 181.3,104.3 181.4,104.3 181.7,104.3 181.9,104.5 182.1,104.5 182.3,104.6 182.9,104.6 183.3,104.6 183.8,104.6 184.4,104.6 184.9,104.6 185.6,104.7 186.1,104.7 186.7,104.9 187.1,104.9 187.6,104.9 188.1,105 188.6,105 189.1,105 189.6,105 190.2,105.1 190.6,105.1 191.1,105.3 191.8,105.3 192.3,105.3 192.9,105.3 198.4,106.1 198.7,106.1 199.1,106.2 199.5,106.4 199.8,106.5 200.2,106.5 200.4,106.5 200.8,106.6 201.2,106.8 201.6,106.8 202,106.9 202.5,107 202.9,107.2 203.1,107.2 203.5,107.3 203.9,107.6 204.3,107.7 204.7,107.8 205,107.8 205.4,108.1 205.7,108.2 206.1,108.4 206.4,108.5 206.8,108.5 207,108.8 207.3,108.9 207.4,108.9 208,109.2 208.4,109.5 208.9,109.9 209.3,110 209.7,110.4 210.3,110.7 210.7,111.1 211,111.4 211.1,111.8 211.4,111.9 211.6,112.2 211.9,112.6 212.3,112.8 212.6,113.2 212.7,113.6 213.1,113.9 213.2,114.2 213.5,114.6 213.7,114.9 213.8,115.3 213.9,115.5 214.2,115.9 214.3,116.2 214.5,116.6 214.7,116.8 214.7,117 214.9,117.3 215,117.4 215.1,117.8 215.1,118 215.3,118.2 215.4,118.6 215.5,118.9 215.7,119.3 215.8,119.7 215.9,120.1 216.1,120.7 216.1,120.9 216.2,121.3 216.2,121.7 216.3,122.4 216.3,123 216.3,123.6 216.2,124.2 216.2,124.3 216.2,124.6 216.1,124.8 216.1,125.3 215.9,125.4 215.9,125.8 215.8,126.1 215.8,126.5 215.7,126.7 215.5,127 215.4,127.3 215.3,127.4 215.1,127.7 215.1,128.1 215,128.2 214.9,128.5 214.7,128.8 214.6,128.9 214.5,129.2 214.3,129.4 214.2,129.6 214.1,129.8 213.9,130.1 213.8,130.2 213.5,130.5 213.4,130.6 213.2,130.8 213.1,131.2 213,131.5 212.8,131.6 212.6,131.9 212.3,132.1 212,132.3 211.9,132.5 211.5,132.9 211.2,133.3 211,133.6 210.5,134 210.3,134.3 209.9,134.6 209.5,134.8 209.1,135.2 208.8,135.5 208.5,135.6 208.1,135.8 207.8,136 207.6,136.2 207.4,136.3 207.2,136.5 206.8,136.7 206.5,136.9 206.2,137 206,137.1 205.7,137.3 205.3,137.5 204.7,137.5 204.3,137.8 203.9,137.9 203.4,138.2 203,138.2 202.7,138.3 202.2,138.6 201.8,138.7 201.4,138.9 200.8,139 200.4,139.1 199.9,139.3 199.5,139.4 198.9,139.6 198.5,139.7 183.6,144.7 174,147.8 171.1,148.7 171,148.7 170.7,148.9 170.5,149 170.3,149 170.2,149 170.2,149 169.9,148.6 169.3,147.5 169.1,147.1 168.9,146.8 168.7,146.6 168.6,146.3 168.3,145.9 168.2,145.6 167.9,145.4 167.8,145 167.6,144.7 167.4,144.4 167.2,144.1 167,143.7 166.8,143.5 166.6,143.2 166.4,142.9 166.3,142.5 163.7,138.6 163.2,137.5 163,137.5 163.2,137.4 163.5,137.3 163.7,137.1 165.6,136.6 171.1,134.8 189.1,129 193.3,127.8 193.5,127.7 193.8,127.5 194.2,127.4 194.5,127.4 194.8,127.4 194.9,127.3 195.2,127.1 195.4,126.9 195.7,126.7 196,126.6 196.2,126.5 196.4,126.2 196.6,126.1 196.9,125.9 197.2,125.7 197.3,125.4 197.6,125.3 197.7,125 197.9,124.7 198.1,124.6 198.3,124.2 198.4,124 198.4,123.8 198.5,123.4 198.5,123 198.4,122.6 198.3,122 197.9,121.6 197.6,121.3 197.3,121.1 197.1,120.8 196.6,120.7 196.2,120.5 195.8,120.4 195.4,120.3 195,120.1 194.9,120.1 194.8,120.1 194.4,120 193.9,120 193.5,120 193.1,119.9 192.7,119.7 192.2,119.7 191.8,119.6 191.4,119.6 190.7,119.4 190,119.3 189.5,119.3 188.8,119.2 188.6,119.2 188.3,119.2 187.9,119 187.3,119 186.9,118.9 186.4,118.8 186.1,118.8 186,118.8 185.7,118.8 185.4,118.8 184.8,118.6 184.2,118.6 183.6,118.5 182.9,118.4 182.7,118.4 182.5,118.4 182.2,118.4 181.9,118.2 181.4,118.2 180.9,118.1 180.3,118 179.8,118 179.5,118 179.2,118 178.8,117.8 178.3,117.7 177.6,117.6 177.1,117.4 176.5,117.3 175.9,117.3 175.3,117.2 174.8,116.9 174.4,116.9 174.1,116.8 173.7,116.6 173.4,116.6 173,116.5 172.8,116.3 172.4,116.2 172.1,116.1 171.7,115.9 171.4,115.8 171.1,115.7 171,115.5 170.6,115.3 170.3,115.3 170.1,115.1 169.7,114.9 169.5,114.7 169.3,114.7 168.9,114.6 168.6,114.2 168.2,113.9 167.8,113.8 167.5,113.4 167.1,113.2 166.8,112.8 166.4,112.6 166.2,112.4 166,112.2 165.7,111.9 165.6,111.6 165.3,111.4 165.2,111.2 164.9,110.9 164.8,110.7 164.7,110.5 164.4,110.1 164.3,109.9 164.1,109.7 164,109.6 164,109.3 163.9,109.2 163.7,109.2 163.6,108.8 163.5,108.5 163.2,108.1 163,107.8 162.9,107.4 162.9,107.2 162.8,106.8 162.6,106.5 162.5,106.2 162.4,106 162.4,105.8 162.2,105.6 162.2,105.3 162.1,104.9 162.1,104.6 162,104.2 162,103.9 162,103.4 161.8,103.1 161.8,102.7 161.7,102.4 161.8,102 161.8,101.8 161.8,101.4 161.8,101.2 161.8,101 161.8,100.8 161.8,100.6 162,100.6 162,100.3 162,100 162.1,99.9 162.1,99.6 162.1,99.3 162.2,99.1 162.2,98.7 162.4,98.5 162.5,98.1 162.6,97.9 162.6,97.6 162.8,97.2 162.9,97 162.9,96.6 163.2,96.4 163.2,96.2 163.2,96.1 163.3,95.8 163.3,95.8 163.6,95.4 163.7,95 164,94.6 164.3,94.4 164.7,93.9 164.9,93.5 165.2,93.1 165.5,92.9 165.9,92.5 166.2,92.2 166.4,91.8 166.8,91.5 167.1,91.1 167.4,91 167.6,90.6 168,90.4 168.2,90.3 168.4,90 168.7,89.9 169,89.8 169.1,89.5 169.4,89.2 169.9,89.1 170.5,88.7 171,88.4 171.4,88.3 171.8,88.1 172.4,88 172.8,87.9 173.2,87.7 173.6,87.6 174,87.5 174.5,87.3 174.9,87.2 181.9,84.9 208.8,76 208.9,76.3 209.1,76.5 209.3,76.8 209.5,77.1 209.6,77.3 209.9,77.6 210,77.9 210.1,78.3 210.3,78.4 210.5,78.8 210.7,79 210.8,79.4 211,79.6 211.1,79.9 211.2,80.2 211.4,80.5 211.5,80.7 211.8,81 211.9,81.3 212,81.5 212.3,81.8 212.4,82.1 212.6,82.3 212.7,82.6 213,83 213.1,83.2 213.2,83.6 213.5,83.7 213.7,84.1 213.8,84.4 213.9,84.6 214.2,84.9 214.3,85 214.5,85.3 214.7,85.7 214.9,85.9 215,86.1 215.1,86.4 215.3,86.7 215.5,86.9 215.7,87.3 215.8,87.7 215.5,87.7 215.1,87.9 213.5,88.4 207.7,90.3 207.6,90.3 207.3,90.4 207.2,90.4 207,90.4 206.9,90.4 " /><polygon
       id="XMLID_7_"
       class="st2"
       points="206.8,90.4 206.5,90.6 206.4,90.6 206.2,90.7 206.1,90.7 206,90.8 205.8,90.8 205.6,90.8 205.4,91 205.3,91 205.1,91.1 205,91.1 204.7,91.1 204.6,91.1 204.5,91.2 204.3,91.2 204.2,91.2 204.1,91.4 203.8,91.4 203.7,91.5 203.5,91.5 203.4,91.7 203.3,91.7 203.1,91.8 202.9,91.8 202.9,91.8 202.7,91.8 202.6,91.8 202.5,91.9 202.2,91.9 202,92.1 201.9,92.1 201.8,92.2 201.6,92.2 201.5,92.3 201.2,92.3 201.1,92.3 201,92.5 200.8,92.5 200.7,92.5 200.4,92.5 200.3,92.6 200.2,92.6 200,92.7 199.9,92.7 199.8,92.9 199.5,92.9 199.3,92.9 199.2,93 199.1,93 198.9,93.1 198.7,93.1 198.5,93.1 198.4,93.1 198.3,93.3 198.1,93.3 198,93.4 197.7,93.4 197.6,93.4 197.5,93.5 197.3,93.5 197.2,93.7 197.1,93.7 196.8,93.8 196.6,93.8 196.5,93.8 196.4,93.8 196.2,93.9 196,93.9 195.8,93.9 195.7,94.1 195.6,94.1 195.4,94.2 195.3,94.2 195,94.4 194.9,94.4 194.9,94.5 194.8,94.5 194.6,94.5 194.4,94.5 194.2,94.6 194.1,94.6 193.9,94.6 193.8,94.8 193.7,94.8 193.4,94.9 193.3,94.9 193.1,95 193,95 192.9,95.2 192.7,95.2 192.5,95.2 192.3,95.2 192.2,95.2 192.1,95.3 191.9,95.3 191.7,95.4 191.5,95.4 191.4,95.6 191.3,95.6 191.1,95.7 191,95.7 190.7,95.8 190.6,95.8 190.4,95.8 190.3,95.8 190.2,95.8 189.9,96 189.8,96 189.6,96.1 189.5,96.1 189.4,96.2 189.2,96.2 189,96.4 188.8,96.4 188.7,96.4 188.6,96.5 188.4,96.5 188.3,96.5 188,96.5 187.9,96.6 187.7,96.6 187.6,96.8 187.2,96.9 186.8,97 186.4,97.2 186,97.2 185.6,97.5 185,97.6 184.6,97.7 184.2,97.9 183.8,97.9 183.3,98.1 182.9,98.3 182.5,98.4 182.1,98.5 181.7,98.7 181.1,98.8 180.7,98.9 180.3,99.2 179.9,99.2 179.6,99.5 179.2,99.7 179,100 178.8,100.4 178.6,100.7 178.4,101.1 178.4,101.4 178.4,101.8 178.6,102 178.6,102.4 178.8,102.7 179,103.1 179.1,103.3 179.5,103.5 179.8,103.8 180.2,103.9 180.6,104.1 181,104.2 181.3,104.3 181.4,104.3 181.7,104.3 181.9,104.5 182.1,104.5 182.3,104.6 182.9,104.6 183.3,104.6 183.8,104.6 184.4,104.6 184.9,104.6 185.6,104.7 186.1,104.7 186.7,104.9 187.1,104.9 187.6,104.9 188.1,105 188.6,105 189.1,105 189.6,105 190.2,105.1 190.6,105.1 191.1,105.3 191.8,105.3 192.3,105.3 192.9,105.3 198.4,106.1 198.7,106.1 199.1,106.2 199.5,106.4 199.8,106.5 200.2,106.6 200.4,106.6 200.8,106.6 201.2,106.8 201.6,106.8 202,106.9 202.5,107 202.9,107.2 203.1,107.2 203.5,107.3 203.9,107.6 204.3,107.7 204.7,107.8 205,107.8 205.4,108.1 205.7,108.2 206.1,108.4 206.4,108.5 206.8,108.7 207,108.8 207.3,108.9 207.4,108.9 208,109.2 208.4,109.5 208.9,109.9 209.3,110 209.7,110.4 210.3,110.7 210.7,111.1 211,111.4 211.1,111.8 211.4,111.9 211.6,112.2 211.9,112.6 212.3,112.8 212.6,113.2 212.7,113.6 213.1,113.9 213.2,114.2 213.5,114.6 213.7,114.9 213.8,115.3 213.9,115.5 214.2,115.9 214.3,116.2 214.5,116.6 214.7,116.8 214.7,117 214.9,117.3 215,117.4 215.1,117.8 215.1,118 215.3,118.2 215.4,118.6 215.5,118.9 215.7,119.3 215.8,119.7 215.9,120.1 216.1,120.7 216.1,120.9 216.2,121.3 216.2,121.7 216.3,122.4 216.3,123 216.3,123.6 216.2,124.2 216.2,124.3 216.2,124.6 216.1,124.8 216.1,125.3 215.9,125.4 215.9,125.8 215.8,126.1 215.8,126.5 215.7,126.7 215.5,127 215.4,127.3 215.3,127.4 215.1,127.7 215.1,128.1 215,128.2 214.9,128.5 214.7,128.8 214.6,128.9 214.5,129.2 214.3,129.4 214.2,129.6 214.1,129.8 213.9,130.1 213.8,130.2 213.5,130.5 213.4,130.6 213.2,130.8 213.1,131.2 213,131.5 212.8,131.6 212.6,131.9 212.3,132.1 212,132.3 211.9,132.5 211.5,132.9 211.2,133.3 211,133.6 210.5,134 210.3,134.3 209.9,134.6 209.5,134.8 209.1,135.2 208.8,135.5 208.5,135.6 208.1,135.8 207.8,136 207.6,136.2 207.4,136.3 207.2,136.5 206.8,136.7 206.5,136.9 206.2,137 206,137.1 205.7,137.3 205.3,137.5 204.7,137.5 204.3,137.8 203.9,137.9 203.4,138.2 203,138.2 202.7,138.3 202.2,138.6 201.8,138.7 201.4,138.9 200.8,139 200.4,139.1 199.9,139.3 199.5,139.4 198.9,139.6 198.5,139.7 183.6,144.7 174,147.8 171.1,148.7 171,148.7 170.7,148.9 170.5,149 170.3,149 170.2,149 170.2,149 169.9,148.6 169.3,147.5 169.1,147.1 168.9,146.8 168.7,146.6 168.6,146.3 168.3,145.9 168.2,145.6 167.9,145.4 167.8,145 167.6,144.7 167.4,144.4 167.2,144.1 167,143.7 166.8,143.5 166.6,143.2 166.4,142.9 166.3,142.5 163.7,138.6 163.2,137.5 163,137.5 163.2,137.4 163.5,137.3 163.7,137.1 165.6,136.6 171.1,134.8 189.1,129 193.3,127.8 193.5,127.7 193.8,127.5 194.2,127.4 194.5,127.4 194.8,127.4 194.9,127.3 195.2,127.1 195.4,126.9 195.7,126.7 196,126.6 196.2,126.5 196.4,126.2 196.6,126.1 196.9,125.9 197.2,125.7 197.3,125.4 197.6,125.3 197.7,125 197.9,124.7 198.1,124.6 198.3,124.2 198.4,124 198.4,123.8 198.5,123.4 198.5,123 198.4,122.6 198.3,122 197.9,121.6 197.6,121.3 197.3,121.1 197.1,120.8 196.6,120.7 196.2,120.5 195.8,120.4 195.4,120.3 195,120.1 194.9,120.1 194.8,120.1 194.4,120 193.9,120 193.5,120 193.1,119.9 192.7,119.7 192.2,119.7 191.8,119.6 191.4,119.6 190.7,119.4 190,119.3 189.5,119.3 188.8,119.2 188.6,119.2 188.3,119.2 187.9,119 187.3,119 186.9,118.9 186.4,118.8 186.1,118.8 186,118.8 185.7,118.8 185.4,118.8 184.8,118.6 184.2,118.6 183.6,118.5 182.9,118.4 182.7,118.4 182.5,118.4 182.2,118.4 181.9,118.2 181.4,118.2 180.9,118.1 180.3,118 179.8,118 179.5,118 179.2,118 178.8,117.8 178.3,117.7 177.6,117.6 177.1,117.4 176.5,117.3 175.9,117.3 175.3,117.2 174.8,116.9 174.4,116.9 174.1,116.8 173.7,116.6 173.4,116.6 173,116.5 172.8,116.3 172.4,116.2 172.1,116.1 171.7,115.9 171.4,115.8 171.1,115.7 171,115.5 170.6,115.3 170.3,115.3 170.1,115.1 169.7,114.9 169.5,114.7 169.3,114.7 168.9,114.6 168.6,114.2 168.2,113.9 167.8,113.8 167.5,113.4 167.1,113.2 166.8,112.8 166.4,112.6 166.2,112.4 166,112.2 165.7,111.9 165.6,111.6 165.3,111.4 165.2,111.2 164.9,110.9 164.8,110.7 164.7,110.5 164.4,110.1 164.3,109.9 164.1,109.7 164,109.6 164,109.3 163.9,109.2 163.7,109.2 163.6,108.8 163.5,108.5 163.2,108.1 163,107.8 162.9,107.4 162.9,107.2 162.8,106.8 162.6,106.5 162.5,106.2 162.4,106 162.4,105.8 162.2,105.6 162.2,105.3 162.1,104.9 162.1,104.6 162,104.2 162,103.9 162,103.4 161.8,103.1 161.8,102.7 161.7,102.4 161.8,102 161.8,101.8 161.8,101.4 161.8,101.2 161.8,101 161.8,100.8 161.8,100.6 162,100.6 162,100.3 162,100 162.1,99.9 162.1,99.6 162.1,99.3 162.2,99.1 162.2,98.7 162.4,98.5 162.5,98.1 162.6,97.9 162.6,97.6 162.8,97.2 162.9,97 162.9,96.6 163.2,96.4 163.2,96.2 163.2,96.1 163.3,95.8 163.3,95.8 163.6,95.4 163.7,95 164,94.6 164.3,94.4 164.7,93.9 164.9,93.5 165.2,93.1 165.5,92.9 165.9,92.5 166.2,92.2 166.4,91.8 166.8,91.5 167.1,91.1 167.4,91 167.6,90.6 168,90.4 168.2,90.3 168.4,90 168.7,89.9 169,89.8 169.1,89.5 169.4,89.2 169.9,89.1 170.5,88.7 171,88.4 171.4,88.3 171.8,88.1 172.4,88 172.8,87.9 173.2,87.7 173.6,87.6 174,87.5 174.5,87.3 174.9,87.2 181.9,84.9 208.8,76 208.9,76.3 209.1,76.5 209.3,76.8 209.5,77.1 209.6,77.3 209.9,77.6 210,77.9 210.1,78.3 210.3,78.4 210.5,78.8 210.7,79 210.8,79.4 211,79.6 211.1,79.9 211.2,80.2 211.4,80.5 211.5,80.7 211.8,81 211.9,81.3 212,81.5 212.3,81.8 212.4,82.1 212.6,82.3 212.7,82.6 213,83 213.1,83.2 213.2,83.6 213.5,83.7 213.7,84.1 213.8,84.4 213.9,84.6 214.2,84.9 214.3,85 214.5,85.3 214.7,85.7 214.9,85.9 215,86.1 215.1,86.4 215.3,86.7 215.5,86.9 215.7,87.3 215.8,87.7 215.5,87.7 215.1,87.9 213.5,88.4 207.7,90.3 207.6,90.3 207.3,90.4 207.2,90.4 207,90.4 206.9,90.4 "
       style="fill:none;stroke:#000000;stroke-width:0.1222;stroke-linecap:round;stroke-linejoin:round;stroke-miterlimit:10" /></g><text
     xml:space="preserve"
     style="font-style:normal;font-weight:normal;font-size:40px;line-height:125%;font-family:sans-serif;letter-spacing:0px;word-spacing:0px;fill:#000000;fill-opacity:1;stroke:none;stroke-width:1px;stroke-linecap:butt;stroke-linejoin:miter;stroke-opacity:1"
     x="182.77679"
     y="76.098419"
     id="text3465"
     sodipodi:linespacing="125%"><tspan
       sodipodi:role="line"
       id="tspan3467"
       x="182.77679"
       y="76.098419" /></text>
</svg>