<?xml version="1.0" encoding="UTF-8" standalone="no"?>
<!-- Generator: Adobe Illustrator 19.0.0, SVG Export Plug-In . SVG Version: 6.00 Build 0)  -->

<svg
   xmlns:dc="http://purl.org/dc/elements/1.1/"
   xmlns:cc="http://creativecommons.org/ns#"
   xmlns:rdf="http://www.w3.org/1999/02/22-rdf-syntax-ns#"
   xmlns:svg="http://www.w3.org/2000/svg"
   xmlns="http://www.w3.org/2000/svg"
   xmlns:sodipodi="http://sodipodi.sourceforge.net/DTD/sodipodi-0.dtd"
   xmlns:inkscape="http://www.inkscape.org/namespaces/inkscape"
   version="1.1"
   id="Layer_1"
   x="0px"
   y="0px"
   viewBox="0 0 250 200"
   xml:space="preserve"
   inkscape:version="0.91 r13725"
   sodipodi:docname="always.svg"
   width="250"
   height="200"><metadata
     id="metadata11"><rdf:RDF><cc:Work
         rdf:about=""><dc:format>image/svg+xml</dc:format><dc:type
           rdf:resource="http://purl.org/dc/dcmitype/StillImage" /><dc:title></dc:title></cc:Work></rdf:RDF></metadata><defs
     id="defs9" /><sodipodi:namedview
     pagecolor="#ffffff"
     bordercolor="#666666"
     borderopacity="1"
     objecttolerance="10"
     gridtolerance="10"
     guidetolerance="10"
     inkscape:pageopacity="0"
     inkscape:pageshadow="2"
     inkscape:window-width="1920"
     inkscape:window-height="1017"
     id="namedview7"
     showgrid="false"
     inkscape:zoom="3.392"
     inkscape:cx="79.067503"
     inkscape:cy="103.05472"
     inkscape:window-x="-8"
     inkscape:window-y="-8"
     inkscape:window-maximized="1"
     inkscape:current-layer="Layer_1" /><style
     type="text/css"
     id="style3">
	.st0{font-family:&quot;Arial Black&quot;, &quot;Arial Bold&quot;, Gadget, sans-serif;}
	.st1{font-size:75px;}
</style><g
     transform="scale(0.84972767,1.1768476)"
     style="font-size:137.65924072px;font-family:'Arial Black', 'Arial Bold', Gadget, sans-serif"
     id="text5"><path
       d="m 5.8842382,35.669521 92.5570188,0 0,24.332346 -31.053989,0 0,74.206933 -30.449041,0 0,-74.206933 -31.0539888,0 0,-24.332346 z"
       style="font-size:137.65924072px;font-family:'Arial Black', 'Arial Bold', Gadget, sans-serif"
       id="path3352" /><path
       d="m 153.28986,35.669521 30.51626,0 0,53.571491 q 0,16.871328 -3.02474,25.676678 -2.95753,8.80535 -12.03174,14.92204 -9.007,6.1167 -23.12245,6.1167 -14.92205,0 -23.12245,-4.03299 -8.20041,-4.03298 -12.70391,-11.76287 -4.43628,-7.79711 -5.24288,-19.2239 l 29.10471,-3.965769 q 0.0672,6.519989 1.14268,9.679169 1.07546,3.15917 3.62969,5.10844 1.74763,1.27712 4.97401,1.27712 5.10845,0 7.46103,-3.76412 2.41979,-3.83134 2.41979,-12.83834 l 0,-60.763649 z"
       style="font-size:137.65924072px;font-family:'Arial Black', 'Arial Bold', Gadget, sans-serif"
       id="path3354" /><path
       d="m 198.92981,101.60883 28.97028,-1.814839 q 0.94103,7.057729 3.83133,10.754629 4.70515,5.98226 13.44329,5.98226 6.51999,0 10.01524,-3.02474 3.56247,-3.09195 3.56247,-7.12494 0,-3.83134 -3.36082,-6.856075 -3.36082,-3.024739 -15.59421,-5.713396 -20.03049,-4.5035 -28.56698,-11.964524 -8.6037,-7.461023 -8.6037,-19.022248 0,-7.595456 4.36907,-14.317099 4.43628,-6.788859 13.24163,-10.620195 8.87257,-3.898553 24.26513,-3.898553 18.88782,0 28.76863,7.057725 9.94803,6.990508 11.83009,22.315853 l -28.70141,1.680411 q -1.14268,-6.654426 -4.83958,-9.679166 -3.62969,-3.024739 -10.08247,-3.024739 -5.31009,0 -7.99875,2.285359 -2.68866,2.218142 -2.68866,5.44453 0,2.352575 2.21814,4.234635 2.15093,1.949276 10.2169,3.629687 19.96328,4.301851 28.56698,8.738135 8.67092,4.369068 12.56947,10.889062 3.96577,6.519993 3.96577,14.585968 0,9.47751 -5.24288,17.47627 -5.24288,7.99875 -14.65318,12.16617 -9.4103,4.1002 -23.7274,4.1002 -25.13894,0 -34.81811,-9.67916 -9.67916,-9.67917 -10.95627,-24.60122 z"
       style="font-size:137.65924072px;font-family:'Arial Black', 'Arial Bold', Gadget, sans-serif"
       id="path3356" /></g><text
     transform="scale(0.79983082,1.2502644)"
     class="st0 st1"
     x="5.0010576"
     y="96.020195"
     style="font-size:97.24591827px;font-family:'Arial Black', 'Arial Bold', Gadget, sans-serif"
     id="text3386" />
<text
     xml:space="preserve"
     style="font-style:normal;font-weight:normal;font-size:40px;line-height:125%;font-family:sans-serif;letter-spacing:0px;word-spacing:0px;fill:#000000;fill-opacity:1;stroke:none;stroke-width:1px;stroke-linecap:butt;stroke-linejoin:miter;stroke-opacity:1"
     x="83.726418"
     y="71.75708"
     id="text3370"
     sodipodi:linespacing="125%"><tspan
       sodipodi:role="line"
       id="tspan3372"
       x="83.726418"
       y="71.75708" /></text>
<text
     xml:space="preserve"
     style="font-style:normal;font-weight:normal;font-size:40px;line-height:125%;font-family:sans-serif;letter-spacing:0px;word-spacing:0px;fill:#000000;fill-opacity:1;stroke:none;stroke-width:1px;stroke-linecap:butt;stroke-linejoin:miter;stroke-opacity:1"
     x="30.365566"
     y="93.86792"
     id="text3374"
     sodipodi:linespacing="125%"><tspan
       sodipodi:role="line"
       id="tspan3376"
       x="30.365566"
       y="93.86792" /></text>
<flowRoot
     xml:space="preserve"
     id="flowRoot3378"
     style="font-style:normal;font-weight:normal;font-size:40px;line-height:125%;font-family:sans-serif;letter-spacing:0px;word-spacing:0px;fill:#000000;fill-opacity:1;stroke:none;stroke-width:1px;stroke-linecap:butt;stroke-linejoin:miter;stroke-opacity:1"
     transform="translate(0,-50)"><flowRegion
       id="flowRegion3380"><rect
         id="rect3382"
         width="115.27122"
         height="155.66037"
         x="53.066036"
         y="38.915092" /></flowRegion><flowPara
       id="flowPara3384" /></flowRoot></svg>