<?xml version="1.0" encoding="UTF-8" standalone="no"?>
<!-- Generator: Adobe Illustrator 19.0.0, SVG Export Plug-In . SVG Version: 6.00 Build 0)  -->

<svg
   xmlns:dc="http://purl.org/dc/elements/1.1/"
   xmlns:cc="http://creativecommons.org/ns#"
   xmlns:rdf="http://www.w3.org/1999/02/22-rdf-syntax-ns#"
   xmlns:svg="http://www.w3.org/2000/svg"
   xmlns="http://www.w3.org/2000/svg"
   xmlns:sodipodi="http://sodipodi.sourceforge.net/DTD/sodipodi-0.dtd"
   xmlns:inkscape="http://www.inkscape.org/namespaces/inkscape"
   version="1.1"
   id="Layer_1"
   x="0px"
   y="0px"
   viewBox="0 0 250 200"
   xml:space="preserve"
   inkscape:version="0.91 r13725"
   sodipodi:docname="average-bearing.svg"
   width="250"
   height="200"><metadata
     id="metadata11"><rdf:RDF><cc:Work
         rdf:about=""><dc:format>image/svg+xml</dc:format><dc:type
           rdf:resource="http://purl.org/dc/dcmitype/StillImage" /><dc:title></dc:title></cc:Work></rdf:RDF></metadata><defs
     id="defs9" /><sodipodi:namedview
     pagecolor="#ffffff"
     bordercolor="#666666"
     borderopacity="1"
     objecttolerance="10"
     gridtolerance="10"
     guidetolerance="10"
     inkscape:pageopacity="0"
     inkscape:pageshadow="2"
     inkscape:window-width="1920"
     inkscape:window-height="1017"
     id="namedview7"
     showgrid="false"
     inkscape:zoom="5.8916668"
     inkscape:cx="125"
     inkscape:cy="99.999995"
     inkscape:window-x="-8"
     inkscape:window-y="-8"
     inkscape:window-maximized="1"
     inkscape:current-layer="text5" /><style
     type="text/css"
     id="style3">
	.st0{font-family:&quot;Arial Black&quot;, &quot;Arial Bold&quot;, Gadget, sans-serif;}
	.st1{font-size:100px;}
</style><g
     transform="scale(1.0940579,0.9140284)"
     style="font-size:177.24171448px;font-family:'Arial Black', 'Arial Bold', Gadget, sans-serif"
     id="text5"><path
       d="m 87.578512,120.95939 32.025578,10.38526 q -3.22675,14.45282 -10.16429,24.14572 -6.93753,9.69291 -17.263157,14.62591 -10.244959,4.93299 -26.136746,4.93299 -19.279883,0 -31.541567,-5.97152 -12.181015,-6.05807 -21.054601,-21.20323 -8.873587,-15.14517 -8.873587,-38.77163 0,-31.501943 15.569112,-48.377985 15.649779,-16.962586 44.206595,-16.962586 22.345304,0 35.091004,9.692906 12.826357,9.692906 19.037877,29.771069 l -32.26759,7.702399 q -1.694048,-5.798435 -3.549435,-8.481293 -3.06542,-4.500278 -7.502214,-6.923505 -4.436794,-2.423226 -9.922284,-2.423226 -12.423021,0 -19.037876,10.731432 -5.001477,7.96203 -5.001477,25.011159 0,21.11669 5.969505,28.99218 5.969503,7.78894 16.779145,7.78894 10.486966,0 15.811118,-6.3177 5.404821,-6.3177 7.82489,-18.34729 z"
       style="font-size:177.24171448px;font-family:'Arial Black', 'Arial Bold', Gadget, sans-serif"
       id="path4136"
       inkscape:connector-curvature="0" /><path
       d="m 126.42895,133.03782 11.73562,0 4.52885,24.0515 4.50915,-24.0515 11.69624,0 0,39.52858 -7.28553,0 0,-30.14525 -5.65122,30.14525 -6.59636,0 -5.63152,-30.14525 0,30.14525 -7.30523,0 0,-39.52858 z"
       style="font-size:36.15594864px"
       id="path4138"
       inkscape:connector-curvature="0" /><path
       d="m 163.44734,152.82908 q 0,-9.67993 3.93812,-15.07263 3.93813,-5.39272 10.96768,-5.39272 7.20678,0 11.10552,5.31183 3.89875,5.28485 3.89875,14.82996 0,6.92962 -1.71309,11.37862 -1.69339,4.42202 -4.92266,6.90266 -3.20957,2.45369 -8.01409,2.45369 -4.88327,0 -8.09285,-2.13013 -3.18988,-2.1301 -5.17863,-6.74089 -1.98875,-4.61077 -1.98875,-11.54039 z m 8.91985,0.0539 q 0,5.98591 1.61463,8.60138 1.63433,2.61546 4.43039,2.61546 2.87484,0 4.45009,-2.56153 1.57524,-2.56154 1.57524,-9.19458 0,-5.58145 -1.65401,-8.14299 -1.63432,-2.5885 -4.45008,-2.5885 -2.69762,0 -4.33193,2.61545 -1.63433,2.61548 -1.63433,8.65531 z"
       style="font-size:36.15594864px"
       id="path4140"
       inkscape:connector-curvature="0" /><path
       d="m 192.5304,133.03782 9.90439,0 5.82842,13.34697 5.82843,-13.34697 9.84531,0 -11.22365,22.97295 0,16.55563 -8.93955,0 0,-16.55563 -11.24335,-22.97295 z"
       style="font-size:36.15594864px"
       id="path4142"
       inkscape:connector-curvature="0" /></g></svg>