<?xml version="1.0" encoding="UTF-8" standalone="no"?>
<!-- Generator: Adobe Illustrator 19.0.0, SVG Export Plug-In . SVG Version: 6.00 Build 0)  -->

<svg
   xmlns:dc="http://purl.org/dc/elements/1.1/"
   xmlns:cc="http://creativecommons.org/ns#"
   xmlns:rdf="http://www.w3.org/1999/02/22-rdf-syntax-ns#"
   xmlns:svg="http://www.w3.org/2000/svg"
   xmlns="http://www.w3.org/2000/svg"
   xmlns:sodipodi="http://sodipodi.sourceforge.net/DTD/sodipodi-0.dtd"
   xmlns:inkscape="http://www.inkscape.org/namespaces/inkscape"
   version="1.1"
   id="Layer_1"
   x="0px"
   y="0px"
   viewBox="0 0 250 200"
   xml:space="preserve"
   inkscape:version="0.91 r13725"
   sodipodi:docname="bad.svg"
   width="250"
   height="200"><metadata
     id="metadata11"><rdf:RDF><cc:Work
         rdf:about=""><dc:format>image/svg+xml</dc:format><dc:type
           rdf:resource="http://purl.org/dc/dcmitype/StillImage" /><dc:title /></cc:Work></rdf:RDF></metadata><defs
     id="defs9" /><sodipodi:namedview
     pagecolor="#ffffff"
     bordercolor="#666666"
     borderopacity="1"
     objecttolerance="10"
     gridtolerance="10"
     guidetolerance="10"
     inkscape:pageopacity="0"
     inkscape:pageshadow="2"
     inkscape:window-width="1536"
     inkscape:window-height="801"
     id="namedview7"
     showgrid="false"
     inkscape:zoom="2.9458331"
     inkscape:cx="118.41338"
     inkscape:cy="102.70459"
     inkscape:window-x="-8"
     inkscape:window-y="-8"
     inkscape:window-maximized="1"
     inkscape:current-layer="text5" /><style
     type="text/css"
     id="style3">
	.st0{font-family:&quot;Arial Black&quot;, &quot;Arial Bold&quot;, Gadget, sans-serif;}
	.st1{font-size:125px;}
</style><g
     transform="scale(0.79643559,1.2555943)"
     style="font-size:129.11082458px;font-family:'Arial Black', 'Arial Bold', Gadget, sans-serif"
     id="text5"><path
       d="m 16.322726,33.433479 36.340852,0 14.024155,56.233816 13.96318,-56.233816 36.218907,0 0,92.420151 -22.5606,0 0,-70.481397 -17.499706,70.481397 -20.426486,0 -17.438731,-70.481397 0,70.481397 -22.621571,0 0,-92.420151 z"
       style="font-size:129.11082458px;font-family:'Arial Black', 'Arial Bold', Gadget, sans-serif"
       id="path3361"
       inkscape:connector-curvature="0" /><path
       d="m 121.8073,33.433479 29.11924,0 20.27288,66.509727 19.96572,-66.509727 28.25917,0 -33.41955,92.420151 -30.16358,0 -34.03388,-92.420151 z"
       style="font-size:129.11082458px;font-family:'Arial Black', 'Arial Bold', Gadget, sans-serif"
       id="path3363"
       inkscape:connector-curvature="0" /><path
       d="m 218.75186,95.278069 26.06628,-1.702145 q 0.84671,6.619456 3.44729,10.086786 4.2335,5.61077 12.09572,5.61077 5.86643,0 9.01132,-2.83691 3.20536,-2.89995 3.20536,-6.682491 0,-3.593417 -3.02393,-6.430325 -3.02393,-2.836907 -14.03103,-5.358603 -18.02264,-4.223841 -25.70342,-11.221546 -7.74127,-6.997706 -7.74127,-17.840998 0,-7.123791 3.93112,-13.42803 3.99159,-6.367282 11.91428,-9.960699 7.98319,-3.656459 21.83279,-3.656459 16.99449,0 25.88485,6.619452 8.95083,6.556409 10.64423,20.930075 l -25.82437,1.57606 q -1.02813,-6.241197 -4.35445,-9.078105 -3.26585,-2.836908 -9.0718,-2.836908 -4.77781,0 -7.19696,2.143442 -2.41914,2.080399 -2.41914,5.106434 0,2.206483 1.9958,3.97167 1.93531,1.82823 9.19274,3.40429 17.96215,4.034713 25.70342,8.195511 7.80174,4.097756 11.3095,10.212868 3.56824,6.115112 3.56824,13.6802 0,8.888982 -4.71733,16.391022 -4.71734,7.50205 -13.18434,11.41067 -8.46701,3.84559 -21.34896,3.84559 -22.619,0 -31.32792,-9.0781 -8.70892,-9.07811 -9.85802,-23.073521 z"
       style="font-size:129.11082458px;font-family:'Arial Black', 'Arial Bold', Gadget, sans-serif"
       id="path3365"
       inkscape:connector-curvature="0" /></g></svg>