<?xml version="1.0" encoding="UTF-8" standalone="no"?>
<!-- Generator: Adobe Illustrator 19.0.0, SVG Export Plug-In . SVG Version: 6.00 Build 0)  -->

<svg
   xmlns:dc="http://purl.org/dc/elements/1.1/"
   xmlns:cc="http://creativecommons.org/ns#"
   xmlns:rdf="http://www.w3.org/1999/02/22-rdf-syntax-ns#"
   xmlns:svg="http://www.w3.org/2000/svg"
   xmlns="http://www.w3.org/2000/svg"
   xmlns:sodipodi="http://sodipodi.sourceforge.net/DTD/sodipodi-0.dtd"
   xmlns:inkscape="http://www.inkscape.org/namespaces/inkscape"
   version="1.1"
   id="Layer_1"
   x="0px"
   y="0px"
   viewBox="0 0 250 250"
   style="enable-background:new 0 0 250 250;"
   xml:space="preserve"
   inkscape:version="0.91 r13725"
   sodipodi:docname="barrel.svg"><metadata
     id="metadata3523"><rdf:RDF><cc:Work
         rdf:about=""><dc:format>image/svg+xml</dc:format><dc:type
           rdf:resource="http://purl.org/dc/dcmitype/StillImage" /></cc:Work></rdf:RDF></metadata><defs
     id="defs3521" /><sodipodi:namedview
     pagecolor="#ffffff"
     bordercolor="#666666"
     borderopacity="1"
     objecttolerance="10"
     gridtolerance="10"
     guidetolerance="10"
     inkscape:pageopacity="0"
     inkscape:pageshadow="2"
     inkscape:window-width="1346"
     inkscape:window-height="845"
     id="namedview3519"
     showgrid="false"
     inkscape:zoom="2.74"
     inkscape:cx="168.79562"
     inkscape:cy="125"
     inkscape:window-x="0"
     inkscape:window-y="0"
     inkscape:window-maximized="0"
     inkscape:current-layer="Layer_1" /><style
     type="text/css"
     id="style3505">
	.st0{fill:#7F7F7F;stroke:#000000;stroke-width:7.5558;stroke-miterlimit:10;}
	.st1{fill:none;stroke:#000000;stroke-width:7.5558;stroke-miterlimit:10;}
</style><path
     class="st0"
     d="M56,50.8v147.4c0,7.4,30.9,13.4,69.1,13.4s69.1-6,69.1-13.4V50.8H56z"
     id="path3507" /><g
     id="g3509"><path
       class="st1"
       d="M56,106.7c0,7.4,30.9,13.4,69.1,13.4s69.1-6,69.1-13.4"
       id="path3511" /></g><g
     id="g3513"><path
       class="st1"
       d="M56,154.4c0,7.4,30.9,13.4,69.1,13.4s69.1-6,69.1-13.4"
       id="path3515" /></g><ellipse
     class="st0"
     cx="125.1"
     cy="50.8"
     rx="69.1"
     ry="13.4"
     id="ellipse3517" /><path
     style="fill:none;stroke:none;stroke-width:1px;stroke-linecap:butt;stroke-linejoin:miter;stroke-opacity:1"
     d="m 111.82482,115.94877 c -17.635885,-0.89768 -29.324313,-2.29562 -39.510563,-4.72548 -5.358865,-1.27832 -9.94848,-2.95794 -11.571752,-4.2348 l -0.924987,-0.7276 0,-23.296111 0,-23.296112 1.865308,0.708761 c 9.565783,3.634712 25.419742,6.168472 45.541414,7.278373 8.9014,0.490997 35.4697,0.263558 42.73926,-0.365871 16.68053,-1.444269 29.53096,-3.662992 37.16536,-6.416875 1.38683,-0.500253 2.6248,-0.909551 2.75106,-0.909551 0.12626,0 0.22957,10.504026 0.22957,23.342279 l 0,23.342277 -1.62358,0.95148 c -5.8124,3.4063 -20.82979,6.2992 -40.71219,7.84268 -4.92817,0.38258 -31.13081,0.75179 -35.9489,0.50655 z"
     id="path3525"
     inkscape:connector-curvature="0" /><path
     style="fill:#ffffff"
     d="m 111.82482,115.94877 c -17.635885,-0.89768 -29.324313,-2.29562 -39.510563,-4.72548 -5.358865,-1.27832 -9.94848,-2.95794 -11.571752,-4.2348 l -0.924987,-0.7276 0,-23.296111 0,-23.296112 1.865308,0.708761 c 9.565783,3.634712 25.419742,6.168472 45.541414,7.278373 8.9014,0.490997 35.4697,0.263558 42.73926,-0.365871 16.68053,-1.444269 29.53096,-3.662992 37.16536,-6.416875 1.38683,-0.500253 2.6248,-0.909551 2.75106,-0.909551 0.12626,0 0.22957,10.504026 0.22957,23.342279 l 0,23.342277 -1.62358,0.95148 c -5.8124,3.4063 -20.82979,6.2992 -40.71219,7.84268 -4.92817,0.38258 -31.13081,0.75179 -35.9489,0.50655 z"
     id="path3527"
     inkscape:connector-curvature="0" /><path
     style="fill:#ffffff"
     d="M 111.09489,163.60604 C 87.279088,162.51697 67.364627,159.0894 61.186131,155.01603 l -1.368613,-0.9023 0,-19.29884 0,-19.29885 2.725962,1.05849 c 8.214488,3.1897 24.27983,5.76498 43.07696,6.90525 8.13979,0.49377 30.73735,0.49061 39.05109,-0.005 19.53142,-1.16544 35.65692,-3.86353 44.79927,-7.49573 0.60344,-0.23974 0.63869,0.81536 0.63869,19.11794 l 0,19.37168 -3.01095,1.44863 c -6.86538,3.30309 -20.84964,5.8555 -39.15365,7.14634 -9.72869,0.68609 -27.873,0.95339 -36.85,0.54288 z"
     id="path3529"
     inkscape:connector-curvature="0" /><path
     style="fill:#ffffff"
     d="m 111.09489,207.40176 c -23.817719,-1.0895 -43.730328,-4.51678 -49.908759,-8.59011 l -1.368613,-0.9023 0,-17.30509 0,-17.3051 3.010949,1.09976 c 7.574301,2.76652 20.363658,5.02046 36.040146,6.35157 9.379617,0.79643 32.796387,1.09852 43.249187,0.55794 19.5044,-1.00871 37.7079,-3.83044 45.7241,-7.08772 l 2.26759,-0.9214 0,17.51636 0,17.51635 -3.09024,1.44814 c -7.14289,3.34726 -22.49483,6.04761 -41.23164,7.25247 -8.43815,0.54261 -26.66142,0.73651 -34.69272,0.36913 z"
     id="path3531"
     inkscape:connector-curvature="0" /><path
     style="fill:#ffffff"
     d="M 110,59.965622 C 88.08425,58.878328 70.881077,56.063747 62.828467,52.247969 c -1.254562,-0.594481 -2.281022,-1.234355 -2.281022,-1.421942 0,-0.547332 3.945094,-2.385371 7.347067,-3.423037 28.676824,-8.746968 98.616108,-7.710758 119.125008,1.764938 1.49875,0.692466 2.72501,1.42556 2.72501,1.629098 0,0.569177 -4.19185,2.439887 -7.84704,3.501921 -7.95155,2.310367 -19.33207,4.065872 -33.21136,5.123028 C 139.89278,60.091746 118.57926,60.39126 110,59.965622 Z"
     id="path3533"
     inkscape:connector-curvature="0" /></svg>