<?xml version="1.0" encoding="UTF-8" standalone="no"?>
<!-- Generator: Adobe Illustrator 19.0.0, SVG Export Plug-In . SVG Version: 6.00 Build 0)  -->

<svg
   xmlns:dc="http://purl.org/dc/elements/1.1/"
   xmlns:cc="http://creativecommons.org/ns#"
   xmlns:rdf="http://www.w3.org/1999/02/22-rdf-syntax-ns#"
   xmlns:svg="http://www.w3.org/2000/svg"
   xmlns="http://www.w3.org/2000/svg"
   xmlns:sodipodi="http://sodipodi.sourceforge.net/DTD/sodipodi-0.dtd"
   xmlns:inkscape="http://www.inkscape.org/namespaces/inkscape"
   version="1.1"
   id="Layer_1"
   x="0px"
   y="0px"
   viewBox="0 0 110 200"
   xml:space="preserve"
   inkscape:version="0.91 r13725"
   sodipodi:docname="bearing.svg"
   width="110"
   height="200"><metadata
     id="metadata11"><rdf:RDF><cc:Work
         rdf:about=""><dc:format>image/svg+xml</dc:format><dc:type
           rdf:resource="http://purl.org/dc/dcmitype/StillImage" /><dc:title /></cc:Work></rdf:RDF></metadata><defs
     id="defs9" /><sodipodi:namedview
     pagecolor="#ffffff"
     bordercolor="#666666"
     borderopacity="1"
     objecttolerance="10"
     gridtolerance="10"
     guidetolerance="10"
     inkscape:pageopacity="0"
     inkscape:pageshadow="2"
     inkscape:window-width="1410"
     inkscape:window-height="811"
     id="namedview7"
     showgrid="false"
     inkscape:zoom="5.35"
     inkscape:cx="55.000002"
     inkscape:cy="100.00001"
     inkscape:window-x="0"
     inkscape:window-y="23"
     inkscape:window-maximized="0"
     inkscape:current-layer="text5" /><style
     type="text/css"
     id="style3">
	.st0{font-family:&quot;Arial Black&quot;, &quot;Arial Bold&quot;, Gadget, sans-serif;}
	.st1{font-size:100px;}
</style><g
     transform="scale(0.94154786,1.0620809)"
     style="font-size:152.53448486px;font-family:'Arial Black', 'Arial Bold', Gadget, sans-serif"
     id="text5"><path
       d="m 81.950046,104.09782 29.568454,8.93757 q -2.97919,12.43812 -9.38445,20.77985 -6.405255,8.34173 -15.93866,12.58707 -9.458925,4.24534 -24.131432,4.24534 -17.800655,0 -29.121574,-5.1391 -11.246439,-5.21358 -19.439209,-18.24753 -8.1927706,-13.03395 -8.1927706,-33.366919 0,-27.110621 14.3745876,-41.634168 14.449068,-14.598027 40.814892,-14.598027 20.630885,0 32.398682,8.341729 11.842274,8.34173 17.577214,25.621027 l -29.79189,6.628696 q -1.564074,-4.990142 -3.277108,-7.299013 -2.83023,-3.872946 -6.926615,-5.958379 -4.096385,-2.085432 -9.161006,-2.085432 -11.469879,0 -17.577216,9.235486 -4.617744,6.852135 -4.617744,21.524642 0,18.173058 5.5115,24.950708 5.5115,6.70318 15.491784,6.70318 9.682365,0 14.598027,-5.43702 4.990142,-5.43702 7.224534,-15.78971 z"
       style="font-size:152.53448486px;font-family:'Arial Black', 'Arial Bold', Gadget, sans-serif"
       id="path3374" /></g></svg>