<?xml version="1.0" encoding="UTF-8" standalone="no"?>
<!-- Generator: Adobe Illustrator 19.0.0, SVG Export Plug-In . SVG Version: 6.00 Build 0)  -->

<svg
   xmlns:dc="http://purl.org/dc/elements/1.1/"
   xmlns:cc="http://creativecommons.org/ns#"
   xmlns:rdf="http://www.w3.org/1999/02/22-rdf-syntax-ns#"
   xmlns:svg="http://www.w3.org/2000/svg"
   xmlns="http://www.w3.org/2000/svg"
   xmlns:sodipodi="http://sodipodi.sourceforge.net/DTD/sodipodi-0.dtd"
   xmlns:inkscape="http://www.inkscape.org/namespaces/inkscape"
   version="1.1"
   id="Layer_1"
   x="0px"
   y="0px"
   viewBox="0 0 310 200"
   xml:space="preserve"
   inkscape:version="0.91 r13725"
   sodipodi:docname="between.svg"
   width="310"
   height="200"><metadata
     id="metadata11"><rdf:RDF><cc:Work
         rdf:about=""><dc:format>image/svg+xml</dc:format><dc:type
           rdf:resource="http://purl.org/dc/dcmitype/StillImage" /><dc:title /></cc:Work></rdf:RDF></metadata><defs
     id="defs9" /><sodipodi:namedview
     pagecolor="#ffffff"
     bordercolor="#666666"
     borderopacity="1"
     objecttolerance="10"
     gridtolerance="10"
     guidetolerance="10"
     inkscape:pageopacity="0"
     inkscape:pageshadow="2"
     inkscape:window-width="1920"
     inkscape:window-height="1017"
     id="namedview7"
     showgrid="false"
     inkscape:zoom="4.7133333"
     inkscape:cx="155"
     inkscape:cy="100"
     inkscape:window-x="-8"
     inkscape:window-y="-8"
     inkscape:window-maximized="1"
     inkscape:current-layer="text5" /><style
     type="text/css"
     id="style3">
	.st0{font-family:&quot;Arial Black&quot;, &quot;Arial Bold&quot;, Gadget, sans-serif;}
	.st1{font-size:75px;}
</style><g
     transform="scale(0.75380173,1.3266088)"
     style="font-size:126.36720276px;font-family:'Arial Black', 'Arial Bold', Gadget, sans-serif"
     id="text5"><path
       d="m 6.6330439,30.152066 52.3239201,0 q 13.08098,0 20.053389,6.478787 7.034112,6.478787 7.034112,16.042711 0,8.021356 -4.997922,13.75971 -3.331948,3.82557 -9.749032,6.046869 9.749032,2.344703 14.315035,8.083058 4.627705,5.676652 4.627705,14.315035 0,7.034114 -3.270245,12.649064 -3.270245,5.61495 -8.946897,8.88519 -3.517056,2.03619 -10.61287,2.96173 -9.440519,1.23406 -12.525656,1.23406 l -48.2515391,0 0,-90.456214 z m 28.1981501,35.479073 12.155439,0 q 6.54049,0 9.070302,-2.221299 2.591515,-2.283001 2.591515,-6.54049 0,-3.948975 -2.591515,-6.170273 -2.529812,-2.221299 -8.885194,-2.221299 l -12.340547,0 0,17.153361 z m 0,35.540771 14.253332,0 q 7.21922,0 10.180952,-2.529808 2.961731,-2.591514 2.961731,-6.910706 0,-4.010678 -2.961731,-6.417084 -2.900029,-2.46811 -10.242655,-2.46811 l -14.191629,0 0,18.325708 z"
       style="font-size:126.36720276px;font-family:'Arial Black', 'Arial Bold', Gadget, sans-serif"
       id="path3394" /><path
       d="m 99.433962,30.152066 74.907118,0 0,19.312956 -46.89408,0 0,14.376738 43.50043,0 0,18.449117 -43.50043,0 0,17.832093 48.25154,0 0,20.48531 -76.264578,0 0,-90.456214 z"
       style="font-size:126.36720276px;font-family:'Arial Black', 'Arial Bold', Gadget, sans-serif"
       id="path3396"
       inkscape:connector-curvature="0" /><path
       d="m 184.46033,30.152066 84.96467,0 0,22.33639 -28.50667,0 0,68.119824 -27.95133,0 0,-68.119824 -28.50667,0 0,-22.33639 z"
       style="font-size:126.36720276px;font-family:'Arial Black', 'Arial Bold', Gadget, sans-serif"
       id="path3398"
       inkscape:connector-curvature="0" /><path
       d="m 278.12508,30.152066 26.53217,0 9.56393,50.53454 13.94482,-50.53454 26.47047,0 14.00652,50.53454 9.56393,-50.53454 26.40877,0 -19.92999,90.456214 -27.39601,0 -15.85761,-56.951629 -15.7959,56.951629 -27.39601,0 -20.11509,-90.456214 z"
       style="font-size:126.36720276px;font-family:'Arial Black', 'Arial Bold', Gadget, sans-serif"
       id="path3400" /></g><text
     transform="scale(0.79983082,1.2502644)"
     class="st0 st1"
     x="5.0010576"
     y="96.020195"
     style="font-size:97.24591827px;font-family:'Arial Black', 'Arial Bold', Gadget, sans-serif"
     id="text3386" />
<text
     xml:space="preserve"
     style="font-style:normal;font-weight:normal;font-size:40px;line-height:125%;font-family:sans-serif;letter-spacing:0px;word-spacing:0px;fill:#000000;fill-opacity:1;stroke:none;stroke-width:1px;stroke-linecap:butt;stroke-linejoin:miter;stroke-opacity:1"
     x="83.726418"
     y="71.75708"
     id="text3370"
     sodipodi:linespacing="125%"><tspan
       sodipodi:role="line"
       id="tspan3372"
       x="83.726418"
       y="71.75708" /></text>
<text
     xml:space="preserve"
     style="font-style:normal;font-weight:normal;font-size:40px;line-height:125%;font-family:sans-serif;letter-spacing:0px;word-spacing:0px;fill:#000000;fill-opacity:1;stroke:none;stroke-width:1px;stroke-linecap:butt;stroke-linejoin:miter;stroke-opacity:1"
     x="30.365566"
     y="93.86792"
     id="text3374"
     sodipodi:linespacing="125%"><tspan
       sodipodi:role="line"
       id="tspan3376"
       x="30.365566"
       y="93.86792" /></text>
<flowRoot
     xml:space="preserve"
     id="flowRoot3378"
     style="font-style:normal;font-weight:normal;font-size:40px;line-height:125%;font-family:sans-serif;letter-spacing:0px;word-spacing:0px;fill:#000000;fill-opacity:1;stroke:none;stroke-width:1px;stroke-linecap:butt;stroke-linejoin:miter;stroke-opacity:1"
     transform="translate(0,-50)"><flowRegion
       id="flowRegion3380"><rect
         id="rect3382"
         width="115.27122"
         height="155.66037"
         x="53.066036"
         y="38.915092" /></flowRegion><flowPara
       id="flowPara3384" /></flowRoot><text
     xml:space="preserve"
     style="font-style:normal;font-weight:normal;font-size:40px;line-height:125%;font-family:sans-serif;letter-spacing:0px;word-spacing:0px;fill:#000000;fill-opacity:1;stroke:none;stroke-width:1px;stroke-linecap:butt;stroke-linejoin:miter;stroke-opacity:1"
     x="243.51414"
     y="80.601425"
     id="text3422"
     sodipodi:linespacing="125%"><tspan
       sodipodi:role="line"
       id="tspan3424"
       x="243.51414"
       y="80.601425" /></text>
</svg>