<?xml version="1.0" encoding="UTF-8" standalone="no"?>
<!-- Generator: Adobe Illustrator 19.0.0, SVG Export Plug-In . SVG Version: 6.00 Build 0)  -->

<svg
   xmlns:dc="http://purl.org/dc/elements/1.1/"
   xmlns:cc="http://creativecommons.org/ns#"
   xmlns:rdf="http://www.w3.org/1999/02/22-rdf-syntax-ns#"
   xmlns:svg="http://www.w3.org/2000/svg"
   xmlns="http://www.w3.org/2000/svg"
   xmlns:sodipodi="http://sodipodi.sourceforge.net/DTD/sodipodi-0.dtd"
   xmlns:inkscape="http://www.inkscape.org/namespaces/inkscape"
   version="1.1"
   id="Layer_1"
   x="0px"
   y="0px"
   viewBox="0 0 310 200"
   xml:space="preserve"
   inkscape:version="0.91 r13725"
   sodipodi:docname="between.svg"
   width="310"
   height="200"><metadata
     id="metadata11"><rdf:RDF><cc:Work
         rdf:about=""><dc:format>image/svg+xml</dc:format><dc:type
           rdf:resource="http://purl.org/dc/dcmitype/StillImage" /><dc:title /></cc:Work></rdf:RDF></metadata><defs
     id="defs9" /><sodipodi:namedview
     pagecolor="#ffffff"
     bordercolor="#666666"
     borderopacity="1"
     objecttolerance="10"
     gridtolerance="10"
     guidetolerance="10"
     inkscape:pageopacity="0"
     inkscape:pageshadow="2"
     inkscape:window-width="1536"
     inkscape:window-height="801"
     id="namedview7"
     showgrid="false"
     inkscape:zoom="2.3566667"
     inkscape:cx="124.24731"
     inkscape:cy="140.46852"
     inkscape:window-x="-8"
     inkscape:window-y="-8"
     inkscape:window-maximized="1"
     inkscape:current-layer="text5" /><style
     type="text/css"
     id="style3">
	.st0{font-family:&quot;Arial Black&quot;, &quot;Arial Bold&quot;, Gadget, sans-serif;}
	.st1{font-size:75px;}
</style><g
     transform="scale(0.75380173,1.3266088)"
     style="font-size:126.36720276px;font-family:'Arial Black', 'Arial Bold', Gadget, sans-serif"
     id="text5"><path
       d="m 21.186338,30.152066 49.857885,0 q 12.464471,0 19.108269,6.478787 6.702593,6.478787 6.702593,16.042711 0,8.021356 -4.762369,13.75971 -3.174913,3.82557 -9.289558,6.046869 9.289558,2.344703 13.640365,8.083058 4.409597,5.676652 4.409597,14.315035 0,7.034114 -3.116115,12.649064 -3.116118,5.61495 -8.525228,8.88519 -3.351297,2.03619 -10.112684,2.96173 -8.995585,1.23406 -11.935319,1.23406 l -45.977436,0 0,-90.456214 z m 26.869166,35.479073 11.582552,0 q 6.232235,0 8.642817,-2.221299 2.469376,-2.283001 2.469376,-6.54049 0,-3.948975 -2.469376,-6.170273 -2.410582,-2.221299 -8.466434,-2.221299 l -11.758935,0 0,17.153361 z m 0,35.540771 13.58157,0 q 6.878977,0 9.701122,-2.529808 2.822145,-2.591514 2.822145,-6.910706 0,-4.010678 -2.822145,-6.417084 -2.76335,-2.46811 -9.759916,-2.46811 l -13.522776,0 0,18.325708 z"
       style="font-size:126.36720276px;font-family:'Arial Black', 'Arial Bold', Gadget, sans-serif"
       id="path3394"
       inkscape:connector-curvature="0" /><path
       d="m 107.39362,30.152066 71.58973,0 0,19.312956 -44.81729,0 0,14.376738 41.57394,0 0,18.449117 -41.57394,0 0,17.832093 46.11464,0 0,20.48531 -72.88708,0 0,-90.456214 z"
       style="font-size:126.36720276px;font-family:'Arial Black', 'Arial Bold', Gadget, sans-serif"
       id="path3396"
       inkscape:connector-curvature="0" /><path
       d="m 187.11355,30.152066 79.33549,0 0,22.33639 -26.61801,0 0,68.119824 -26.09947,0 0,-68.119824 -26.61801,0 0,-22.33639 z"
       style="font-size:126.36720276px;font-family:'Arial Black', 'Arial Bold', Gadget, sans-serif"
       id="path3398"
       inkscape:connector-curvature="0" /><path
       d="m 275.47186,30.152066 22.75376,0 8.20194,50.53454 11.95896,-50.53454 22.70084,0 12.01188,50.53454 8.20194,-50.53454 22.64793,0 -17.09178,90.456214 -23.49459,0 -13.59935,-56.951629 -13.54643,56.951629 -23.49457,0 -17.25053,-90.456214 z"
       style="font-size:126.36720276px;font-family:'Arial Black', 'Arial Bold', Gadget, sans-serif"
       id="path3400"
       inkscape:connector-curvature="0" /></g><text
     transform="scale(0.79983082,1.2502644)"
     class="st0 st1"
     x="5.0010576"
     y="96.020195"
     style="font-size:97.24591827px;font-family:'Arial Black', 'Arial Bold', Gadget, sans-serif"
     id="text3386" />
<text
     xml:space="preserve"
     style="font-style:normal;font-weight:normal;font-size:40px;line-height:125%;font-family:sans-serif;letter-spacing:0px;word-spacing:0px;fill:#000000;fill-opacity:1;stroke:none;stroke-width:1px;stroke-linecap:butt;stroke-linejoin:miter;stroke-opacity:1"
     x="83.726418"
     y="71.75708"
     id="text3370"
     sodipodi:linespacing="125%"><tspan
       sodipodi:role="line"
       id="tspan3372"
       x="83.726418"
       y="71.75708" /></text>
<text
     xml:space="preserve"
     style="font-style:normal;font-weight:normal;font-size:40px;line-height:125%;font-family:sans-serif;letter-spacing:0px;word-spacing:0px;fill:#000000;fill-opacity:1;stroke:none;stroke-width:1px;stroke-linecap:butt;stroke-linejoin:miter;stroke-opacity:1"
     x="30.365566"
     y="93.86792"
     id="text3374"
     sodipodi:linespacing="125%"><tspan
       sodipodi:role="line"
       id="tspan3376"
       x="30.365566"
       y="93.86792" /></text>
<flowRoot
     xml:space="preserve"
     id="flowRoot3378"
     style="font-style:normal;font-weight:normal;font-size:40px;line-height:125%;font-family:sans-serif;letter-spacing:0px;word-spacing:0px;fill:#000000;fill-opacity:1;stroke:none;stroke-width:1px;stroke-linecap:butt;stroke-linejoin:miter;stroke-opacity:1"
     transform="translate(0,-50)"><flowRegion
       id="flowRegion3380"><rect
         id="rect3382"
         width="115.27122"
         height="155.66037"
         x="53.066036"
         y="38.915092" /></flowRegion><flowPara
       id="flowPara3384" /></flowRoot><text
     xml:space="preserve"
     style="font-style:normal;font-weight:normal;font-size:40px;line-height:125%;font-family:sans-serif;letter-spacing:0px;word-spacing:0px;fill:#000000;fill-opacity:1;stroke:none;stroke-width:1px;stroke-linecap:butt;stroke-linejoin:miter;stroke-opacity:1"
     x="243.51414"
     y="80.601425"
     id="text3422"
     sodipodi:linespacing="125%"><tspan
       sodipodi:role="line"
       id="tspan3424"
       x="243.51414"
       y="80.601425" /></text>
</svg>