<?xml version="1.0" encoding="utf-8"?>
<!-- Generator: Adobe Illustrator 19.0.0, SVG Export Plug-In . SVG Version: 6.00 Build 0)  -->
<svg version="1.1" id="Layer_1" xmlns="http://www.w3.org/2000/svg" xmlns:xlink="http://www.w3.org/1999/xlink" x="0px" y="0px"
	 viewBox="0 0 250 250" style="enable-background:new 0 0 250 250;" xml:space="preserve">
<path id="XMLID_1_" d="M231.9,146.2h-71.7l-0.1-5.8c-0.1-2.3-1.8-22.9-34.7-22.9c-12.5,0-21.7,2.9-27.3,8.8
	c-6,6.2-5.9,13.8-5.9,13.8l0.2,6.2H17.9c-3.3,0-5.9-2.7-5.9-5.9c0-3.3,2.7-5.9,5.9-5.9H81c0.9-4.5,3.2-10.8,8.6-16.3
	c7.9-8.2,20-12.4,35.8-12.4c33.7,0,43,18.9,45.6,28.7h60.9c3.3,0,5.9,2.7,5.9,5.9C237.8,143.5,235.2,146.2,231.9,146.2z"/>
</svg>
