<?xml version="1.0" encoding="utf-8"?>
<!-- Generator: Adobe Illustrator 19.0.0, SVG Export Plug-In . SVG Version: 6.00 Build 0)  -->
<svg version="1.1" id="Layer_1" xmlns="http://www.w3.org/2000/svg" xmlns:xlink="http://www.w3.org/1999/xlink" x="0px" y="0px"
	 viewBox="0 0 250 250" style="enable-background:new 0 0 250 250;" xml:space="preserve">
<style type="text/css">
	.st0{fill-rule:evenodd;clip-rule:evenodd;fill:none;stroke:#000000;stroke-width:9.4807;stroke-miterlimit:10;}
	.st1{font-family:"Arial Black", "Arial Bold", Gadget, sans-serif;}
	.st2{font-size:50px;}
</style>
<path id="XMLID_1_" class="st0" d="M219.5,231.5H29.2c-6.6,0-12-5.4-12-12V30.1c0-6.6,5.4-12,12-12h190.3c6.6,0,12,5.4,12,12v189.4
	C231.5,226.1,226.1,231.5,219.5,231.5z"/>
<g id="XMLID_2_">
	<polygon id="XMLID_10_" points="51.5,181.6 31.6,181.4 114.1,63.8 124.8,51 135.1,63.8 	"/>
	<polygon id="XMLID_7_" points="197.8,181.6 217.7,181.4 135.1,63.8 124.4,51 114.1,63.8 	"/>
	<polygon id="XMLID_12_" points="135.9,38 138.8,38 127,54.8 124.1,54.8 	"/>
	<polygon id="XMLID_11_" points="115.1,38 112.2,38 124,54.8 126.9,54.8 	"/>
</g>
<text id="XMLID_13_" transform="matrix(1 0 0 1 77.4844 218.667)" class="st1 st2">BIVY</text>
</svg>
