<?xml version="1.0" encoding="UTF-8" standalone="no"?>
<!-- Generator: Adobe Illustrator 19.0.0, SVG Export Plug-In . SVG Version: 6.00 Build 0)  -->

<svg
   xmlns:dc="http://purl.org/dc/elements/1.1/"
   xmlns:cc="http://creativecommons.org/ns#"
   xmlns:rdf="http://www.w3.org/1999/02/22-rdf-syntax-ns#"
   xmlns:svg="http://www.w3.org/2000/svg"
   xmlns="http://www.w3.org/2000/svg"
   xmlns:sodipodi="http://sodipodi.sourceforge.net/DTD/sodipodi-0.dtd"
   xmlns:inkscape="http://www.inkscape.org/namespaces/inkscape"
   version="1.1"
   id="Layer_1"
   x="0px"
   y="0px"
   viewBox="0 0 250 250"
   style="enable-background:new 0 0 250 250;"
   xml:space="preserve"
   inkscape:version="0.91 r13725"
   sodipodi:docname="distance175.svg"><metadata
     id="metadata4205"><rdf:RDF><cc:Work
         rdf:about=""><dc:format>image/svg+xml</dc:format><dc:type
           rdf:resource="http://purl.org/dc/dcmitype/StillImage" /><dc:title /></cc:Work></rdf:RDF></metadata><defs
     id="defs4203" /><sodipodi:namedview
     pagecolor="#ffffff"
     bordercolor="#666666"
     borderopacity="1"
     objecttolerance="10"
     gridtolerance="10"
     guidetolerance="10"
     inkscape:pageopacity="0"
     inkscape:pageshadow="2"
     inkscape:window-width="1536"
     inkscape:window-height="801"
     id="namedview4201"
     showgrid="false"
     inkscape:zoom="2.1740817"
     inkscape:cx="57.155264"
     inkscape:cy="125"
     inkscape:current-layer="text4740"
     inkscape:window-x="-8"
     inkscape:window-y="-8"
     inkscape:window-maximized="1" /><style
     type="text/css"
     id="style4196">
	.st0{fill-rule:evenodd;clip-rule:evenodd;}
</style><path
     style="fill:none;fill-rule:evenodd;stroke:#000000;stroke-width:3.8769505;stroke-linecap:butt;stroke-linejoin:miter;stroke-miterlimit:4;stroke-dasharray:none;stroke-opacity:1"
     d="m 126.5,150.11647 0,92.72788"
     id="path4198"
     inkscape:connector-curvature="0" /><path
     style="fill:none;fill-rule:evenodd;stroke:#000000;stroke-width:3.89192915;stroke-linecap:butt;stroke-linejoin:miter;stroke-miterlimit:4;stroke-dasharray:none;stroke-opacity:1"
     d="m 126.5,7.6318783 0,81.6887337"
     id="path4198-6"
     inkscape:connector-curvature="0" /><path
     style="fill:none;fill-rule:evenodd;stroke:#000000;stroke-width:4;stroke-linecap:butt;stroke-linejoin:miter;stroke-miterlimit:4;stroke-dasharray:none;stroke-opacity:1"
     d="M 140.74908,40.256272 126.49018,5.2989841 111.31136,41.176201"
     id="path4734"
     inkscape:connector-curvature="0" /><path
     inkscape:connector-curvature="0"
     id="path4736"
     d="M 140.74908,40.256272 126.49018,5.2989841 111.31136,41.176201"
     style="fill:none;fill-rule:evenodd;stroke:#000000;stroke-width:4;stroke-linecap:butt;stroke-linejoin:miter;stroke-miterlimit:4;stroke-dasharray:none;stroke-opacity:1" /><path
     style="fill:none;fill-rule:evenodd;stroke:#000000;stroke-width:4;stroke-linecap:butt;stroke-linejoin:miter;stroke-miterlimit:4;stroke-dasharray:none;stroke-opacity:1"
     d="m 140.74908,206.46961 -14.2589,34.95729 -15.17882,-35.87722"
     id="path4738"
     inkscape:connector-curvature="0" /><g
     transform="scale(1.0086833,0.99139146)"
     style="font-style:normal;font-variant:normal;font-weight:900;font-stretch:normal;font-size:67.29641724px;line-height:125%;font-family:Arial;-inkscape-font-specification:'Arial, Heavy';text-align:start;letter-spacing:0px;word-spacing:0px;writing-mode:lr-tb;text-anchor:start;fill:#000000;fill-opacity:1;stroke:none;stroke-width:1px;stroke-linecap:butt;stroke-linejoin:miter;stroke-opacity:1"
     id="text4740"><path
       d="m 65.851406,94.307668 0,48.993632 -13.538146,0 0,-32.10381 q -3.285958,2.49733 -6.374759,4.04173 -3.05594,1.5444 -7.689141,2.95736 l 0,-10.9751 q 6.834792,-2.20159 10.613644,-5.29039 3.778851,-3.0888 5.914724,-7.623422 l 11.073678,0 z"
       style=""
       id="path8129" /><path
       d="m 80.703936,95.129158 39.070044,0 0,9.036382 q -5.09324,4.60034 -8.51064,9.95645 -4.1403,6.5062 -6.53905,14.49108 -1.90586,6.21046 -2.56305,14.68823 l -13.340988,0 q 1.57726,-11.79659 4.961797,-19.78147 3.384536,-7.98487 10.712221,-17.08698 l -23.790334,0 0,-11.303692 z"
       style=""
       id="path8131" /><path
       d="m 130.84765,95.129158 31.77522,0 0,10.679362 -21.52303,0 -1.15008,7.22911 q 2.23445,-1.05151 4.40318,-1.57726 2.20159,-0.52575 4.33747,-0.52575 7.2291,0 11.73086,4.37032 4.50177,4.37032 4.50177,11.00796 0,4.66606 -2.33303,8.97066 -2.30017,4.30461 -6.57192,6.57192 -4.23888,2.26731 -10.87652,2.26731 -4.76464,0 -8.18203,-0.88721 -3.38454,-0.92007 -5.78329,-2.69448 -2.36589,-1.80728 -3.84457,-4.07459 -1.47868,-2.26731 -2.46447,-5.65185 l 13.53815,-1.47868 q 0.49289,3.2531 2.30017,4.9618 1.80727,1.67583 4.3046,1.67583 2.79307,0 4.60034,-2.10301 1.84014,-2.13587 1.84014,-6.3419 0,-4.3046 -1.84014,-6.30904 -1.84013,-2.00443 -4.89607,-2.00443 -1.93872,0 -3.746,0.95293 -1.34724,0.69005 -2.95736,2.49732 l -11.40227,-1.64297 4.23888,-25.893352 z"
       style=""
       id="path8133" /><path
       d="m 171.75783,108.40443 12.48664,0 0,5.09323 q 2.69449,-3.18738 5.42183,-4.53462 2.76021,-1.34724 6.63764,-1.34724 4.17316,0 6.60477,1.47868 2.43161,1.47868 3.97601,4.40318 3.15452,-3.41739 5.75043,-4.6332 2.5959,-1.24866 6.40761,-1.24866 5.61899,0 8.77351,3.35167 3.15452,3.31882 3.15452,10.41649 l 0,21.91734 -13.40671,0 0,-19.88005 q 0,-2.36588 -0.92007,-3.51597 -1.34724,-1.80728 -3.35167,-1.80728 -2.36589,0 -3.81171,1.7087 -1.44582,1.7087 -1.44582,5.48755 l 0,18.00705 -13.40671,0 0,-19.22285 q 0,-2.30017 -0.26288,-3.12166 -0.42717,-1.31439 -1.47868,-2.10302 -1.05151,-0.82149 -2.46447,-0.82149 -2.30017,0 -3.77885,1.74156 -1.47868,1.74156 -1.47868,5.71757 l 0,17.80989 -13.40671,0 0,-34.89687 z"
       style=""
       id="path8135" /></g><text
     xml:space="preserve"
     style="font-style:normal;font-variant:normal;font-weight:900;font-stretch:normal;font-size:79.76599884px;line-height:125%;font-family:Arial;-inkscape-font-specification:'Arial, Heavy';text-align:start;letter-spacing:0px;word-spacing:0px;writing-mode:lr-tb;text-anchor:start;fill:#000000;fill-opacity:1;stroke:none;stroke-width:1px;stroke-linecap:butt;stroke-linejoin:miter;stroke-opacity:1"
     x="219.86295"
     y="125.34967"
     id="text4744"
     sodipodi:linespacing="125%"><tspan
       sodipodi:role="line"
       id="tspan4746"
       x="219.86295"
       y="125.34967" /><tspan
       sodipodi:role="line"
       x="219.86295"
       y="225.05717"
       id="tspan4748" /></text>
</svg>