<?xml version="1.0" encoding="utf-8"?>
<!-- Generator: Adobe Illustrator 19.0.0, SVG Export Plug-In . SVG Version: 6.00 Build 0)  -->
<svg version="1.1" id="Layer_1" xmlns="http://www.w3.org/2000/svg" xmlns:xlink="http://www.w3.org/1999/xlink" x="0px" y="0px"
	 viewBox="0 0 250 250" style="enable-background:new 0 0 250 250;" xml:space="preserve">
<g id="XMLID_28_">
	<g id="XMLID_30_">
		<g id="XMLID_32_">
			<path id="XMLID_16_" d="M165.6,160.4c0,1.1-0.3,1.9-1.1,2.6c-1.3,1.3-3.7,1.3-5.3,0L135,138.8c-1.3-1.3-1.3-3.7,0-5.3
				c1.3-1.3,3.7-1.3,5.3,0l24.3,24.3C165.4,158.6,165.6,159.4,165.6,160.4z"/>
			<g id="XMLID_33_">
				<polygon id="XMLID_15_" points="126.5,187.4 189.2,125 189.2,187.4 				"/>
			</g>
		</g>
		
			<rect id="XMLID_14_" x="119.3" y="81.5" transform="matrix(-0.7071 0.7071 -0.7071 -0.7071 312.0866 126.845)" width="20.9" height="93.1"/>
	</g>
	<path id="XMLID_13_" d="M129.7,66.5c0,1.1-0.3,1.9-1.1,2.6l-60.1,60.1c-1.3,1.3-3.7,1.3-5.3,0c-1.3-1.3-1.3-3.7,0-5.3l60.1-60.1
		c1.3-1.3,3.7-1.3,5.3,0C129.4,64.7,129.7,65.7,129.7,66.5z"/>
</g>
</svg>
