<?xml version="1.0" encoding="UTF-8" standalone="no"?>
<!-- Generator: Adobe Illustrator 19.0.0, SVG Export Plug-In . SVG Version: 6.00 Build 0)  -->

<svg
   xmlns:dc="http://purl.org/dc/elements/1.1/"
   xmlns:cc="http://creativecommons.org/ns#"
   xmlns:rdf="http://www.w3.org/1999/02/22-rdf-syntax-ns#"
   xmlns:svg="http://www.w3.org/2000/svg"
   xmlns="http://www.w3.org/2000/svg"
   xmlns:sodipodi="http://sodipodi.sourceforge.net/DTD/sodipodi-0.dtd"
   xmlns:inkscape="http://www.inkscape.org/namespaces/inkscape"
   version="1.1"
   id="Layer_1"
   x="0px"
   y="0px"
   viewBox="0 0 250 200"
   xml:space="preserve"
   inkscape:version="0.91 r13725"
   sodipodi:docname="dry-river.svg"
   width="250"
   height="200"><metadata
     id="metadata11"><rdf:RDF><cc:Work
         rdf:about=""><dc:format>image/svg+xml</dc:format><dc:type
           rdf:resource="http://purl.org/dc/dcmitype/StillImage" /><dc:title /></cc:Work></rdf:RDF></metadata><defs
     id="defs9" /><sodipodi:namedview
     pagecolor="#ffffff"
     bordercolor="#666666"
     borderopacity="1"
     objecttolerance="10"
     gridtolerance="10"
     guidetolerance="10"
     inkscape:pageopacity="0"
     inkscape:pageshadow="2"
     inkscape:window-width="1536"
     inkscape:window-height="801"
     id="namedview7"
     showgrid="false"
     inkscape:zoom="2.9458334"
     inkscape:cx="114.52212"
     inkscape:cy="98.273277"
     inkscape:window-x="-8"
     inkscape:window-y="-8"
     inkscape:window-maximized="1"
     inkscape:current-layer="text5" /><style
     type="text/css"
     id="style3">
	.st0{font-family:&quot;Arial Black&quot;, &quot;Arial Bold&quot;, Gadget, sans-serif;}
	.st1{font-size:75px;}
</style><g
     transform="scale(0.87723608,1.139944)"
     style="font-size:142.2094574px;font-family:'Arial Black', 'Arial Bold', Gadget, sans-serif"
     id="text5"><path
       d="m 17.09916,138.62183 0,-101.796422 50.399767,0 q 14.018479,0 21.428246,2.499776 7.409767,2.499775 11.949087,9.30472 4.53932,6.735506 4.53932,16.456856 0,8.471462 -3.47125,14.651463 -3.47124,6.110562 -9.545915,9.929664 -3.87177,2.430337 -10.61399,4.027416 5.407127,1.874832 7.87705,3.749664 1.668866,1.249887 4.806335,5.346743 3.204223,4.09685 4.272298,6.31888 l 14.619282,29.51124 -34.178397,0 -16.154628,-31.10832 Q 59.955651,101.47238 57.552483,99.666989 54.281505,97.30609 50.142716,97.30609 l -2.670186,0 0,41.31574 -30.37337,0 z m 30.37337,-60.550124 12.750139,0 q 2.069395,0 8.01056,-1.388765 3.003959,-0.624943 4.87309,-3.194157 1.935885,-2.569214 1.935885,-5.902248 0,-4.930113 -3.00396,-7.568765 -3.00396,-2.638652 -11.281537,-2.638652 l -13.284177,0 0,20.692587 z"
       style="font-size:142.2094574px;font-family:'Arial Black', 'Arial Bold', Gadget, sans-serif"
       id="path3343"
       inkscape:connector-curvature="0" /><path
       d="m 123.91828,36.825408 31.52495,0 0,101.796422 -31.52495,0 0,-101.796422 z"
       style="font-size:142.2094574px;font-family:'Arial Black', 'Arial Bold', Gadget, sans-serif"
       id="path3345"
       inkscape:connector-curvature="0" /><path
       d="m 167.14356,87.793055 q 0,-24.928318 13.27625,-38.81596 13.27623,-13.887642 36.97431,-13.887642 24.29551,0 37.43899,13.679327 13.14348,13.60989 13.14348,38.191017 0,17.845623 -5.77516,29.302923 -5.70879,11.38787 -16.59531,17.77618 -10.82012,6.31888 -27.01713,6.31888 -16.46254,0 -27.28268,-5.48562 -10.75375,-5.48562 -17.45825,-17.35955 -6.7045,-11.87393 -6.7045,-29.719555 z m 30.07068,0.138877 q 0,15.415278 5.44326,22.150788 5.50964,6.73551 14.93576,6.73551 9.69165,0 15.00215,-6.59663 5.3105,-6.59663 5.3105,-23.678433 0,-14.373709 -5.57602,-20.970339 -5.50963,-6.666069 -15.00215,-6.666069 -9.09422,0 -14.60387,6.735507 -5.50963,6.735506 -5.50963,22.289666 z"
       style="font-size:142.2094574px;font-family:'Arial Black', 'Arial Bold', Gadget, sans-serif"
       id="path3347"
       inkscape:connector-curvature="0" /></g></svg>