<?xml version="1.0" encoding="UTF-8" standalone="no"?>
<!-- Generator: Adobe Illustrator 19.0.0, SVG Export Plug-In . SVG Version: 6.00 Build 0)  -->

<svg
   xmlns:dc="http://purl.org/dc/elements/1.1/"
   xmlns:cc="http://creativecommons.org/ns#"
   xmlns:rdf="http://www.w3.org/1999/02/22-rdf-syntax-ns#"
   xmlns:svg="http://www.w3.org/2000/svg"
   xmlns="http://www.w3.org/2000/svg"
   xmlns:sodipodi="http://sodipodi.sourceforge.net/DTD/sodipodi-0.dtd"
   xmlns:inkscape="http://www.inkscape.org/namespaces/inkscape"
   version="1.1"
   id="Layer_1"
   x="0px"
   y="0px"
   viewBox="0 0 250 250"
   style="enable-background:new 0 0 250 250;"
   xml:space="preserve"
   inkscape:version="0.91 r13725"
   sodipodi:docname="electric-pole.svg"><metadata
     id="metadata17"><rdf:RDF><cc:Work
         rdf:about=""><dc:format>image/svg+xml</dc:format><dc:type
           rdf:resource="http://purl.org/dc/dcmitype/StillImage" /></cc:Work></rdf:RDF></metadata><defs
     id="defs15" /><sodipodi:namedview
     pagecolor="#ffffff"
     bordercolor="#666666"
     borderopacity="1"
     objecttolerance="10"
     gridtolerance="10"
     guidetolerance="10"
     inkscape:pageopacity="0"
     inkscape:pageshadow="2"
     inkscape:window-width="640"
     inkscape:window-height="480"
     id="namedview13"
     showgrid="false"
     inkscape:zoom="2.276"
     inkscape:cx="114.01582"
     inkscape:cy="125"
     inkscape:current-layer="Layer_1" /><g
     id="g4145"
     transform="matrix(0.42648229,0,0,0.51317318,103.84956,59.167072)"><rect
       id="rect3"
       height="171.7"
       width="18.4"
       y="44.599998"
       x="116" /><g
       id="g5"><path
         id="path7"
         d="m 95.4,44.6 -18.9,0 0,9.6 c 0,0 0,5.5 5.5,5.5 4,0 5.3,5.7 5.3,5.7 0,0 -0.4,4.4 3.9,4.4 4.3,0 4.2,-4.2 4.2,-4.2 l 0,-21 z"
         inkscape:connector-curvature="0" /><path
         id="path9"
         d="m 155,44.6 18.8,0 0,9.6 c 0,0 0,5.5 -5.5,5.5 -4,0 -5.3,5.7 -5.3,5.7 0,0 0.4,4.4 -3.9,4.4 -4.3,0 -4.2,-4.2 -4.2,-4.2 l 0,-21 z"
         inkscape:connector-curvature="0" /></g><rect
       id="rect11"
       height="7.8000002"
       width="133.3"
       y="36.700001"
       x="58.5" /></g><g
     transform="matrix(0.42648229,0,0,0.51317318,-7.749737,48.622257)"
     id="g4152"><rect
       x="116"
       y="44.599998"
       width="18.4"
       height="171.7"
       id="rect4154" /><g
       id="g4156"><path
         inkscape:connector-curvature="0"
         d="m 95.4,44.6 -18.9,0 0,9.6 c 0,0 0,5.5 5.5,5.5 4,0 5.3,5.7 5.3,5.7 0,0 -0.4,4.4 3.9,4.4 4.3,0 4.2,-4.2 4.2,-4.2 l 0,-21 z"
         id="path4158" /><path
         inkscape:connector-curvature="0"
         d="m 155,44.6 18.8,0 0,9.6 c 0,0 0,5.5 -5.5,5.5 -4,0 -5.3,5.7 -5.3,5.7 0,0 0.4,4.4 -3.9,4.4 -4.3,0 -4.2,-4.2 -4.2,-4.2 l 0,-21 z"
         id="path4160" /></g><rect
       x="58.5"
       y="36.700001"
       width="133.3"
       height="7.8000002"
       id="rect4162" /></g><path
     style="fill:none;fill-rule:evenodd;stroke:#000000;stroke-width:1px;stroke-linecap:butt;stroke-linejoin:miter;stroke-opacity:1"
     d="M 30.755712,83.919156 C 93.585237,111.15993 142.79438,95.342707 142.79438,95.342707"
     id="path4174"
     inkscape:connector-curvature="0" /><path
     inkscape:connector-curvature="0"
     id="path4176"
     d="M 60.632689,83.479789 C 123.46221,110.72056 172.67136,94.90334 172.67136,94.90334"
     style="fill:none;fill-rule:evenodd;stroke:#000000;stroke-width:1px;stroke-linecap:butt;stroke-linejoin:miter;stroke-opacity:1" /><path
     style="fill:none;fill-rule:evenodd;stroke:#000000;stroke-width:1px;stroke-linecap:butt;stroke-linejoin:miter;stroke-opacity:1"
     d="M 60.632689,83.479789 C 123.46221,110.72056 172.67136,94.90334 172.67136,94.90334"
     id="path4178"
     inkscape:connector-curvature="0" /><path
     inkscape:connector-curvature="0"
     id="path4180"
     d="M 2.0933322,77.180794 C 18.205114,98.98291 30.824136,86.323619 30.824136,86.323619"
     style="fill:none;fill-rule:evenodd;stroke:#000000;stroke-width:0.45303267px;stroke-linecap:butt;stroke-linejoin:miter;stroke-opacity:1" /><path
     style="fill:none;fill-rule:evenodd;stroke:#000000;stroke-width:0.82595372px;stroke-linecap:butt;stroke-linejoin:miter;stroke-opacity:1"
     d="M 1.8067573,68.08087 C 34.020647,104.32615 59.251111,83.280504 59.251111,83.280504"
     id="path4182"
     inkscape:connector-curvature="0" /><path
     style="fill:none;fill-rule:evenodd;stroke:#000000;stroke-width:0.92713964px;stroke-linecap:butt;stroke-linejoin:miter;stroke-opacity:1"
     d="m 142.44145,94.480621 c 54.11533,27.186499 96.49937,11.400789 96.49937,11.400789"
     id="path4184"
     inkscape:connector-curvature="0" /><path
     inkscape:connector-curvature="0"
     id="path4186"
     d="m 172.26151,94.023027 c 37.90943,23.549583 67.60074,9.875633 67.60074,9.875633"
     style="fill:none;fill-rule:evenodd;stroke:#000000;stroke-width:0.72222686px;stroke-linecap:butt;stroke-linejoin:miter;stroke-opacity:1" /></svg>