<?xml version="1.0" encoding="UTF-8" standalone="no"?>
<!-- Generator: Adobe Illustrator 19.0.0, SVG Export Plug-In . SVG Version: 6.00 Build 0)  -->

<svg
   xmlns:dc="http://purl.org/dc/elements/1.1/"
   xmlns:cc="http://creativecommons.org/ns#"
   xmlns:rdf="http://www.w3.org/1999/02/22-rdf-syntax-ns#"
   xmlns:svg="http://www.w3.org/2000/svg"
   xmlns="http://www.w3.org/2000/svg"
   xmlns:sodipodi="http://sodipodi.sourceforge.net/DTD/sodipodi-0.dtd"
   xmlns:inkscape="http://www.inkscape.org/namespaces/inkscape"
   version="1.1"
   id="Layer_1"
   x="0px"
   y="0px"
   viewBox="0 0 250 250"
   style="enable-background:new 0 0 250 250;"
   xml:space="preserve"
   inkscape:version="0.91 r13725"
   sodipodi:docname="electric-line.svg"><metadata
     id="metadata3380"><rdf:RDF><cc:Work
         rdf:about=""><dc:format>image/svg+xml</dc:format><dc:type
           rdf:resource="http://purl.org/dc/dcmitype/StillImage" /><dc:title /></cc:Work></rdf:RDF></metadata><defs
     id="defs3378" /><sodipodi:namedview
     pagecolor="#ffffff"
     bordercolor="#666666"
     borderopacity="1"
     objecttolerance="10"
     gridtolerance="10"
     guidetolerance="10"
     inkscape:pageopacity="0"
     inkscape:pageshadow="2"
     inkscape:window-width="1920"
     inkscape:window-height="1080"
     id="namedview3376"
     showgrid="false"
     inkscape:zoom="6.1430716"
     inkscape:cx="130.08901"
     inkscape:cy="125"
     inkscape:window-x="0"
     inkscape:window-y="0"
     inkscape:window-maximized="0"
     inkscape:current-layer="g3358" /><style
     type="text/css"
     id="style3356">
	.st0{fill-rule:evenodd;clip-rule:evenodd;}
	.st1{fill:none;stroke:#000000;stroke-width:0.3409;stroke-linecap:round;stroke-miterlimit:10;}
	.st2{fill-rule:evenodd;clip-rule:evenodd;fill:#FFFFFF;}
</style><g
     id="g3358"
     transform="matrix(0.97604259,0,0,1.9569472,3.9707188,-119.12916)"><polygon
       class="st0"
       points="23.2,109.5 23.3,109.6 23.4,109.6 23.6,109.7 23.7,109.8 23.8,109.8 23.9,109.9 24.1,110 24.2,110.1 24.3,110.1 24.4,110.2 24.6,110.3 24.7,110.3 24.8,110.4 24.9,110.4 25,110.5 25.1,110.5 25.2,110.6 25.4,110.7 25.5,110.7 25.5,150.3 31.6,150.3 31.6,113.8 33.1,114.4 34.5,115.1 36,115.6 37.4,116.1 38.7,116.5 40.2,117 41.6,117.3 43,117.6 44.4,117.8 45.7,118 47.2,118.1 48.6,118.1 50,118.1 51.4,118 52.8,117.9 54.3,117.6 55.7,117.3 57.2,116.9 58.6,116.5 60,115.9 61.6,115.3 63.1,114.6 64.6,113.7 66.2,112.9 67.8,111.9 69.3,110.9 71,109.7 72.7,108.4 74.4,107.1 76.1,105.7 77.9,104.1 79.7,102.5 79.7,101.3 79.7,105 80.8,105 80.8,108.6 90.1,108.6 90.2,108.7 90.3,108.7 90.4,108.8 90.6,108.9 90.7,108.9 90.8,109 90.9,109.1 91.1,109.1 91.2,109.2 91.3,109.3 91.4,109.4 91.5,109.4 91.7,109.5 91.8,109.5 91.8,109.6 91.9,109.6 92.1,109.7 92.2,109.8 92.3,109.8 92.4,109.9 92.5,110 92.7,110.1 92.8,110.1 92.9,110.2 93,110.3 93.1,110.3 93.3,110.3 93.4,110.4 93.5,110.5 93.6,110.5 93.7,110.6 93.9,110.7 93.9,150.3 99.9,150.3 99.9,113.7 101.3,114.4 102.9,115 104.3,115.6 105.7,116 107.1,116.5 108.5,116.9 110,117.2 111.4,117.6 112.7,117.8 114.2,117.9 115.5,118.1 117,118.1 118.4,118.1 119.7,118 121.2,117.9 122.6,117.6 124.1,117.3 125.5,117 127,116.5 128.5,115.9 130,115.3 131.5,114.6 133.1,113.8 134.6,112.9 136.2,111.9 137.9,110.9 139.5,109.7 141.1,108.4 142.8,107.1 144.6,105.7 146.4,104.1 148.1,102.5 148.2,101.3 148.2,105 149.4,105 149.4,108.6 158.4,108.6 158.5,108.7 158.7,108.7 158.8,108.8 158.8,108.9 158.9,108.9 159.1,109 159.2,109.1 159.3,109.1 159.5,109.2 159.6,109.3 159.7,109.4 159.9,109.4 160,109.5 160.1,109.6 160.2,109.6 160.4,109.7 160.5,109.8 160.6,109.8 160.8,109.9 160.9,110 161,110.1 161.1,110.1 161.2,110.2 161.3,110.3 161.4,110.3 161.6,110.4 161.7,110.5 161.8,110.5 161.9,110.6 162.1,110.7 162.2,110.7 162.3,110.8 162.3,150.3 168.4,150.3 168.4,113.8 169.9,114.4 171.3,115.1 172.7,115.6 174.2,116.1 175.6,116.5 177,117 178.4,117.3 179.7,117.6 181.2,117.8 182.6,118 184,118.1 185.4,118.1 186.7,118.1 188.2,118 189.6,117.9 191.1,117.6 192.5,117.3 193.9,116.9 195.4,116.4 196.8,115.9 198.3,115.3 199.9,114.6 201.4,113.7 202.9,112.9 204.6,111.9 206.1,110.9 207.7,109.7 209.5,108.4 211.1,107.1 212.8,105.7 214.6,104.1 216.5,102.5 216.5,101.3 216.5,105 217.6,105 217.6,108.6 230.5,108.6 230.5,150.3 236.7,150.3 236.7,99.2 230.5,99.2 230.5,107.6 218.9,107.6 218.9,105 220.1,105 220.1,100.9 220.1,100.7 220.1,100.6 220,100.4 220,100.3 219.9,100.2 219.8,100 219.7,99.9 219.5,99.9 219.4,99.7 219.2,99.7 219.1,99.7 218.9,99.6 218.8,99.5 218.7,99.5 218.5,99.5 218.3,99.5 218.1,99.5 217.9,99.5 217.8,99.5 217.6,99.6 217.4,99.7 217.3,99.7 217.1,99.7 217,99.9 216.8,99.9 216.7,100 216.6,100.2 216.6,100.3 216.6,100.4 216.5,100.6 216.5,100.7 216.5,100.9 216.5,101.1 214.7,102.8 213,104.4 211.3,105.9 209.7,107.2 208,108.4 206.4,109.6 204.8,110.7 203.2,111.7 201.7,112.6 200.2,113.4 198.6,114.1 197.2,114.7 195.7,115.3 194.2,115.8 192.8,116.2 191.3,116.5 189.9,116.7 188.5,116.9 187,117 185.6,117 184.2,117 182.8,116.9 181.4,116.7 179.9,116.5 178.6,116.2 177.2,115.8 175.7,115.5 174.3,115 172.8,114.5 171.4,114 169.9,113.3 168.4,112.7 168.4,99.2 162.3,99.2 162.3,107.6 158.6,107.6 158.4,107.5 158.2,107.4 158,107.3 157.8,107.1 157.6,107.1 157.3,106.9 157.1,106.8 156.9,106.6 156.7,106.6 156.5,106.4 156.4,106.3 156.1,106.2 155.9,106.1 155.7,105.9 155.5,105.8 155.3,105.7 155.1,105.6 154.8,105.5 154.6,105.3 154.4,105.2 154.2,105.1 154,105 153.8,104.8 153.6,104.7 153.4,104.5 153.2,104.4 152.9,104.3 152.7,104.2 152.5,104.1 152.3,103.9 152,103.8 151.9,103.6 151.9,100.9 151.9,100.7 151.9,100.6 151.8,100.4 151.7,100.3 151.7,100.2 151.6,100 151.4,99.9 151.3,99.9 151.2,99.7 151,99.7 150.9,99.7 150.7,99.6 150.5,99.5 150.3,99.5 150.2,99.5 150,99.5 149.8,99.5 149.6,99.5 149.5,99.5 149.4,99.6 149.2,99.7 149.1,99.7 148.9,99.7 148.8,99.9 148.6,99.9 148.5,100 148.4,100.2 148.3,100.3 148.3,100.4 148.2,100.6 148.2,100.7 148.2,100.9 148.2,101.1 146.4,102.8 144.7,104.4 143,105.9 141.3,107.2 139.7,108.5 138,109.6 136.5,110.7 134.9,111.7 133.4,112.6 131.8,113.4 130.3,114.2 128.8,114.8 127.3,115.3 125.9,115.8 124.4,116.2 122.9,116.5 121.5,116.7 120,116.9 118.7,117 117.2,117 115.8,117 114.4,116.9 112.9,116.7 111.5,116.5 110.2,116.2 108.7,115.8 107.3,115.4 105.8,114.9 104.3,114.4 102.9,113.9 101.4,113.3 99.9,112.6 99.9,99.2 93.9,99.2 93.9,107.6 90.3,107.6 90.1,107.5 89.9,107.3 89.6,107.3 89.5,107.1 89.3,107 89.1,106.9 88.9,106.8 88.6,106.6 88.4,106.5 88.2,106.4 88,106.3 87.7,106.1 87.5,106 87.3,105.9 87.2,105.7 86.9,105.7 86.7,105.5 86.5,105.4 86.3,105.2 86,105.1 85.8,105 85.6,104.8 85.3,104.8 85.1,104.6 84.9,104.5 84.7,104.3 84.5,104.2 84.3,104.1 84,103.9 83.8,103.8 83.6,103.6 83.3,103.5 83.3,100.9 83.3,100.7 83.3,100.6 83.3,100.4 83.2,100.3 83.1,100.2 83,100 82.9,99.9 82.7,99.9 82.6,99.7 82.6,99.7 82.4,99.7 82.2,99.6 82.1,99.5 81.9,99.5 81.7,99.5 81.5,99.5 81.3,99.5 81.2,99.5 81,99.5 80.8,99.6 80.7,99.7 80.5,99.7 80.3,99.7 80.2,99.9 80.2,99.9 80.1,100 80,100.2 79.9,100.3 79.8,100.4 79.7,100.6 79.7,100.7 79.7,100.9 79.7,101.1 78,102.8 76.2,104.4 74.5,105.9 72.9,107.2 71.2,108.4 69.6,109.6 68,110.7 66.4,111.7 64.9,112.6 63.4,113.4 61.8,114.1 60.4,114.7 58.9,115.3 57.4,115.8 56,116.2 54.6,116.5 53.1,116.7 51.7,116.9 50.3,117 48.8,117 47.4,117 46,116.9 44.6,116.7 43.2,116.5 41.7,116.2 40.3,115.8 38.9,115.4 37.5,115 36,114.5 34.5,114 33.1,113.3 31.6,112.7 31.6,99.2 25.5,99.2 25.5,107.6 21.8,107.6 21.6,107.5 21.4,107.4 21.2,107.3 21,107.1 20.8,107 20.6,106.9 20.3,106.8 20.2,106.6 20,106.6 19.8,106.4 19.6,106.3 19.3,106.1 19.1,106.1 18.9,105.9 18.7,105.8 18.5,105.7 18.2,105.5 18,105.5 17.9,105.3 17.7,105.2 17.5,105 17.2,104.9 17,104.8 16.8,104.7 16.6,104.5 16.3,104.4 16.1,104.3 15.9,104.1 15.7,104.1 15.5,103.9 15.3,103.8 15.1,103.6 15.1,100.9 15.1,100.7 15,100.6 15,100.4 14.9,100.3 14.8,100.2 14.7,100 14.6,99.9 14.5,99.9 14.3,99.7 14.2,99.7 14,99.7 13.8,99.6 13.7,99.5 13.5,99.5 13.3,99.5 13.2,99.5 13.1,99.5 12.9,99.5 12.7,99.5 12.5,99.6 12.4,99.7 12.2,99.7 12.1,99.7 11.9,99.9 11.8,99.9 11.7,100 11.6,100.2 11.5,100.3 11.4,100.4 11.4,100.6 11.3,100.7 11.3,100.9 11.3,101.1 11.3,102.5 11.3,101.3 11.3,105 12.5,105 12.5,108.6 21.6,108.6 21.7,108.7 21.9,108.7 22,108.8 22.1,108.9 22.3,108.9 22.4,109 22.5,109.1 22.5,109.1 22.7,109.2 22.8,109.3 22.9,109.4 23.1,109.4 "
       id="polygon3360"
       style="clip-rule:evenodd;fill-rule:evenodd" /><polygon
       class="st2"
       points="85.6,106 85.7,106.1 85.9,106.1 86.1,106.3 86.2,106.4 86.4,106.4 86.5,106.6 86.7,106.6 86.9,106.7 87,106.8 87.2,106.9 87.2,107 87.4,107.1 87.6,107.2 87.7,107.3 87.9,107.3 88,107.4 88.2,107.5 88.4,107.6 82.2,107.6 82.2,105 83.3,105 83.3,104.7 83.5,104.8 83.7,104.9 83.8,105 84,105 84.2,105.2 84.3,105.2 84.5,105.3 84.7,105.5 84.8,105.5 84.9,105.6 85.1,105.7 85.2,105.8 85.4,105.9 "
       id="polygon3364"
       style="clip-rule:evenodd;fill:#ffffff;fill-rule:evenodd" /><polyline
       class="st1"
       points="88.4,107.6 82.2,107.6 82.2,105 83.3,105 83.3,104.7 83.5,104.8 83.7,104.9 83.8,105 84,105    84.2,105.2 84.3,105.2 84.5,105.3 84.7,105.5 84.8,105.5 84.9,105.6 85.1,105.7 85.2,105.8 85.4,105.9 85.6,106 85.7,106.1    85.9,106.1 86.1,106.3 86.2,106.4 86.4,106.4 86.5,106.6 86.7,106.6 86.9,106.7 87,106.8 87.2,106.9 87.2,107 87.4,107.1    87.6,107.2 87.7,107.3 87.9,107.3 88,107.4 88.2,107.5 88.4,107.6  "
       id="polyline3366"
       style="fill:none;stroke:#000000;stroke-width:0.3409;stroke-linecap:round;stroke-miterlimit:10" /><polygon
       class="st2"
       points="17.2,106.1 17.4,106.1 17.5,106.2 17.7,106.3 17.8,106.4 17.9,106.5 18,106.6 18.2,106.6 18.4,106.8 18.5,106.8 18.7,106.9 18.8,107 19,107.1 19.1,107.2 19.3,107.3 19.4,107.3 19.6,107.4 19.7,107.5 19.9,107.6 13.9,107.6 13.9,105 15.1,105 15.1,104.8 15.2,104.9 15.4,105 15.5,105 15.6,105.2 15.8,105.2 15.9,105.3 16.1,105.5 16.2,105.5 16.4,105.6 16.6,105.7 16.7,105.8 16.9,105.9 17,105.9 "
       id="polygon3368"
       style="clip-rule:evenodd;fill:#ffffff;fill-rule:evenodd" /><polyline
       class="st1"
       points="19.9,107.6 13.9,107.6 13.9,105 15.1,105 15.1,104.8 15.2,104.9 15.4,105 15.5,105 15.6,105.2    15.8,105.2 15.9,105.3 16.1,105.5 16.2,105.5 16.4,105.6 16.6,105.7 16.7,105.8 16.9,105.9 17,105.9 17.2,106.1 17.4,106.1    17.5,106.2 17.7,106.3 17.8,106.4 17.9,106.5 18,106.6 18.2,106.6 18.4,106.8 18.5,106.8 18.7,106.9 18.8,107 19,107.1 19.1,107.2    19.3,107.3 19.4,107.3 19.6,107.4 19.7,107.5 19.9,107.6  "
       id="polyline3370"
       style="fill:none;stroke:#000000;stroke-width:0.3409;stroke-linecap:round;stroke-miterlimit:10" /><polygon
       class="st2"
       points="154,106.1 153.9,106 153.7,105.9 153.5,105.8 153.4,105.7 153.2,105.6 153.1,105.5 152.9,105.5 152.8,105.4 152.6,105.2 152.4,105.2 152.3,105.1 152.1,105 152,104.9 151.9,104.8 151.9,105 150.7,105 150.7,107.6 156.6,107.6 156.5,107.5 156.4,107.5 156.2,107.3 156.1,107.3 155.9,107.2 155.8,107.1 155.6,107 155.5,106.9 155.3,106.8 155.1,106.8 155,106.7 154.8,106.6 154.7,106.5 154.5,106.4 154.4,106.4 154.2,106.2 154.2,106.1 "
       id="polygon3372"
       style="clip-rule:evenodd;fill:#ffffff;fill-rule:evenodd" /><polyline
       class="st1"
       points="156.6,107.6 156.5,107.5 156.4,107.5 156.2,107.3 156.1,107.3 155.9,107.2 155.8,107.1 155.6,107    155.5,106.9 155.3,106.8 155.1,106.8 155,106.7 154.8,106.6 154.7,106.5 154.5,106.4 154.4,106.4 154.2,106.2 154.2,106.1    154,106.1 153.9,106 153.7,105.9 153.5,105.8 153.4,105.7 153.2,105.6 153.1,105.5 152.9,105.5 152.8,105.4 152.6,105.2    152.4,105.2 152.3,105.1 152.1,105 152,104.9 151.9,104.8 151.9,105 150.7,105 150.7,107.6 156.6,107.6  "
       id="polyline3374"
       style="fill:none;stroke:#000000;stroke-width:0.3409;stroke-linecap:round;stroke-miterlimit:10" /><path
       style="fill:none;fill-rule:evenodd;stroke:#000000;stroke-width:0.72356254px;stroke-linecap:butt;stroke-linejoin:miter;stroke-opacity:1"
       d="m 218.14371,101.32856 c 19.28812,13.03881 28.85247,16.77555 28.85247,16.77555 l 0,0"
       id="path4141"
       inkscape:connector-curvature="0" /></g></svg>