<?xml version="1.0" encoding="UTF-8" standalone="no"?>
<!-- Generator: Adobe Illustrator 19.0.0, SVG Export Plug-In . SVG Version: 6.00 Build 0)  -->

<svg
   xmlns:dc="http://purl.org/dc/elements/1.1/"
   xmlns:cc="http://creativecommons.org/ns#"
   xmlns:rdf="http://www.w3.org/1999/02/22-rdf-syntax-ns#"
   xmlns:svg="http://www.w3.org/2000/svg"
   xmlns="http://www.w3.org/2000/svg"
   xmlns:sodipodi="http://sodipodi.sourceforge.net/DTD/sodipodi-0.dtd"
   xmlns:inkscape="http://www.inkscape.org/namespaces/inkscape"
   version="1.1"
   id="Layer_1"
   x="0px"
   y="0px"
   viewBox="0 0 250 200"
   xml:space="preserve"
   inkscape:version="0.91 r13725"
   sodipodi:docname="finish-of-selective-section.svg"
   width="250"
   height="200"><metadata
     id="metadata10"><rdf:RDF><cc:Work
         rdf:about=""><dc:format>image/svg+xml</dc:format><dc:type
           rdf:resource="http://purl.org/dc/dcmitype/StillImage" /><dc:title /></cc:Work></rdf:RDF></metadata><defs
     id="defs8" /><sodipodi:namedview
     pagecolor="#ffffff"
     bordercolor="#666666"
     borderopacity="1"
     objecttolerance="10"
     gridtolerance="10"
     guidetolerance="10"
     inkscape:pageopacity="0"
     inkscape:pageshadow="2"
     inkscape:window-width="1536"
     inkscape:window-height="801"
     id="namedview6"
     showgrid="false"
     inkscape:zoom="2.7174993"
     inkscape:cx="124.0212"
     inkscape:cy="93.959652"
     inkscape:window-x="-8"
     inkscape:window-y="-8"
     inkscape:window-maximized="1"
     inkscape:current-layer="XMLID_2_" /><style
     type="text/css"
     id="style3">
	.st0{font-family:&quot;Arial Black&quot;, &quot;Arial Bold&quot;, Gadget, sans-serif;}
	.st1{font-size:100px;}
</style><g
     transform="scale(0.82349747,1.2143328)"
     style="font-size:133.49784851px;font-family:'Arial Black', 'Arial Bold', Gadget, sans-serif"
     id="XMLID_2_"><path
       d="m 84.230049,114.35533 -33.6352,0 -4.628099,15.77464 -30.180423,0 35.916659,-95.560467 32.201141,0 35.916673,95.560467 -30.897467,0 -4.693284,-15.77464 z M 78.037522,93.691841 67.477634,59.339611 56.98293,93.691841 l 21.054592,0 z"
       style="font-size:133.49784851px;font-family:'Arial Black', 'Arial Bold', Gadget, sans-serif"
       id="path3342"
       inkscape:connector-curvature="0" /><path
       d="m 119.20045,98.515494 26.75915,-1.759982 q 0.86921,6.844368 3.53892,10.429518 4.34602,5.80142 12.41723,5.80142 6.02236,0 9.25085,-2.9333 3.29057,-2.99849 3.29057,-6.90956 0,-3.715513 -3.10432,-6.648816 -3.1043,-2.933302 -14.40399,-5.540682 -18.50169,-4.367361 -26.38663,-11.60284 -7.94704,-7.235479 -7.94704,-18.447213 0,-7.365848 4.0356,-13.884297 4.09769,-6.583635 12.23099,-10.299151 8.19537,-3.780701 22.41311,-3.780701 17.44622,0 26.57289,6.844372 9.18875,6.779188 10.92717,21.641253 l -26.5108,1.629613 q -1.05547,-6.453266 -4.47021,-9.386568 -3.35266,-2.933302 -9.31293,-2.933302 -4.9048,0 -7.38825,2.216273 -2.48345,2.151088 -2.48345,5.279944 0,2.281457 2.04884,4.106623 1.98676,1.890351 9.43711,3.519963 18.43959,4.171808 26.38662,8.473984 8.00912,4.236993 11.61012,10.559889 3.66308,6.322896 3.66308,14.145036 0,9.19101 -4.84272,16.94797 -4.84272,7.75695 -13.53479,11.79839 -8.69207,3.97626 -21.91642,3.97626 -23.22024,0 -32.16064,-9.38657 -8.94042,-9.38657 -10.12006,-23.857526 z"
       style="font-size:133.49784851px;font-family:'Arial Black', 'Arial Bold', Gadget, sans-serif"
       id="path3344"
       inkscape:connector-curvature="0" /><path
       d="m 205.95882,98.515494 26.75915,-1.759982 q 0.8692,6.844368 3.53891,10.429518 4.34603,5.80142 12.41723,5.80142 6.02237,0 9.25085,-2.9333 3.29057,-2.99849 3.29057,-6.90956 0,-3.715513 -3.10431,-6.648816 -3.10431,-2.933302 -14.404,-5.540682 -18.50169,-4.367361 -26.38663,-11.60284 -7.94703,-7.235479 -7.94703,-18.447213 0,-7.365848 4.0356,-13.884297 4.09769,-6.583635 12.23098,-10.299151 8.19538,-3.780701 22.41312,-3.780701 17.44621,0 26.57288,6.844372 9.18876,6.779188 10.92717,21.641253 l -26.5108,1.629613 q -1.05546,-6.453266 -4.4702,-9.386568 -3.35266,-2.933302 -9.31293,-2.933302 -4.90481,0 -7.38826,2.216273 -2.48345,2.151088 -2.48345,5.279944 0,2.281457 2.04885,4.106623 1.98675,1.890351 9.4371,3.519963 18.4396,4.171808 26.38663,8.473984 8.00911,4.236993 11.61011,10.559889 3.66309,6.322896 3.66309,14.145036 0,9.19101 -4.84272,16.94797 -4.84272,7.75695 -13.53479,11.79839 -8.69207,3.97626 -21.91643,3.97626 -23.22023,0 -32.16064,-9.38657 -8.94042,-9.38657 -10.12005,-23.857526 z"
       style="font-size:133.49784851px;font-family:'Arial Black', 'Arial Bold', Gadget, sans-serif"
       id="path3346"
       inkscape:connector-curvature="0" /></g></svg>