<?xml version="1.0" encoding="UTF-8" standalone="no"?>
<!-- Generator: Adobe Illustrator 19.0.0, SVG Export Plug-In . SVG Version: 6.00 Build 0)  -->

<svg
   xmlns:dc="http://purl.org/dc/elements/1.1/"
   xmlns:cc="http://creativecommons.org/ns#"
   xmlns:rdf="http://www.w3.org/1999/02/22-rdf-syntax-ns#"
   xmlns:svg="http://www.w3.org/2000/svg"
   xmlns="http://www.w3.org/2000/svg"
   xmlns:sodipodi="http://sodipodi.sourceforge.net/DTD/sodipodi-0.dtd"
   xmlns:inkscape="http://www.inkscape.org/namespaces/inkscape"
   version="1.1"
   id="Layer_1"
   x="0px"
   y="0px"
   viewBox="0 0 250 200"
   xml:space="preserve"
   inkscape:version="0.91 r13725"
   sodipodi:docname="finish-of-selective-section.svg"
   width="250"
   height="200"><metadata
     id="metadata10"><rdf:RDF><cc:Work
         rdf:about=""><dc:format>image/svg+xml</dc:format><dc:type
           rdf:resource="http://purl.org/dc/dcmitype/StillImage" /><dc:title></dc:title></cc:Work></rdf:RDF></metadata><defs
     id="defs8" /><sodipodi:namedview
     pagecolor="#ffffff"
     bordercolor="#666666"
     borderopacity="1"
     objecttolerance="10"
     gridtolerance="10"
     guidetolerance="10"
     inkscape:pageopacity="0"
     inkscape:pageshadow="2"
     inkscape:window-width="1920"
     inkscape:window-height="1017"
     id="namedview6"
     showgrid="false"
     inkscape:zoom="2.7174993"
     inkscape:cx="192.95701"
     inkscape:cy="101.48806"
     inkscape:window-x="-8"
     inkscape:window-y="-8"
     inkscape:window-maximized="1"
     inkscape:current-layer="XMLID_2_" /><style
     type="text/css"
     id="style3">
	.st0{font-family:&quot;Arial Black&quot;, &quot;Arial Bold&quot;, Gadget, sans-serif;}
	.st1{font-size:100px;}
</style><g
     transform="scale(0.82349747,1.2143328)"
     style="font-size:133.49784851px;font-family:'Arial Black', 'Arial Bold', Gadget, sans-serif"
     id="XMLID_2_"><path
       d="m 74.515385,114.35533 -33.6352,0 -4.628099,15.77464 -30.1804219,0 35.9166579,-95.560467 32.201141,0 35.916657,95.560467 -30.897451,0 -4.693284,-15.77464 z M 68.322858,93.691841 57.76297,59.339611 l -10.494704,34.35223 21.054592,0 z"
       style="font-size:133.49784851px;font-family:'Arial Black', 'Arial Bold', Gadget, sans-serif"
       id="path3342" /><path
       d="m 114.34311,98.515494 28.09452,-1.759982 q 0.91259,6.844368 3.71552,10.429518 4.56291,5.80142 13.0369,5.80142 6.32289,0 9.71249,-2.9333 3.45478,-2.99849 3.45478,-6.90956 0,-3.715513 -3.25923,-6.648816 -3.25922,-2.933302 -15.1228,-5.540682 -19.42498,-4.367361 -27.70341,-11.60284 -8.34362,-7.235479 -8.34362,-18.447213 0,-7.365848 4.23699,-13.884297 4.30218,-6.583635 12.84135,-10.299151 8.60435,-3.780701 23.5316,-3.780701 18.31685,0 27.89897,6.844372 9.6473,6.779188 11.47247,21.641253 l -27.83378,1.629613 q -1.10814,-6.453266 -4.69329,-9.386568 -3.51996,-2.933302 -9.77767,-2.933302 -5.14957,0 -7.75695,2.216273 -2.60738,2.151088 -2.60738,5.279944 0,2.281457 2.15108,4.106623 2.08591,1.890351 9.90805,3.519963 19.35979,4.171808 27.70341,8.473984 8.4088,4.236993 12.1895,10.559889 3.84588,6.322896 3.84588,14.145036 0,9.19101 -5.08439,16.94797 -5.08439,7.75695 -14.21022,11.79839 -9.12583,3.97626 -23.01012,3.97626 -24.37901,0 -33.76557,-9.38657 -9.38657,-9.38657 -10.62508,-23.857526 z"
       style="font-size:133.49784851px;font-family:'Arial Black', 'Arial Bold', Gadget, sans-serif"
       id="path3344" /><path
       d="m 210.81616,98.515494 28.09452,-1.759982 q 0.91258,6.844368 3.71551,10.429518 4.56292,5.80142 13.0369,5.80142 6.3229,0 9.71249,-2.9333 3.45478,-2.99849 3.45478,-6.90956 0,-3.715513 -3.25922,-6.648816 -3.25923,-2.933302 -15.12281,-5.540682 -19.42498,-4.367361 -27.70341,-11.60284 -8.34361,-7.235479 -8.34361,-18.447213 0,-7.365848 4.23699,-13.884297 4.30218,-6.583635 12.84134,-10.299151 8.60436,-3.780701 23.53161,-3.780701 18.31684,0 27.89896,6.844372 9.64731,6.779188 11.47247,21.641253 l -27.83378,1.629613 q -1.10813,-6.453266 -4.69328,-9.386568 -3.51996,-2.933302 -9.77767,-2.933302 -5.14958,0 -7.75696,2.216273 -2.60738,2.151088 -2.60738,5.279944 0,2.281457 2.15109,4.106623 2.0859,1.890351 9.90804,3.519963 19.3598,4.171808 27.70341,8.473984 8.4088,4.236993 12.1895,10.559889 3.84589,6.322896 3.84589,14.145036 0,9.19101 -5.08439,16.94797 -5.08439,7.75695 -14.21022,11.79839 -9.12583,3.97626 -23.01013,3.97626 -24.379,0 -33.76557,-9.38657 -9.38657,-9.38657 -10.62507,-23.857526 z"
       style="font-size:133.49784851px;font-family:'Arial Black', 'Arial Bold', Gadget, sans-serif"
       id="path3346" /></g></svg>