<?xml version="1.0" encoding="utf-8"?>
<!-- Generator: Adobe Illustrator 19.0.0, SVG Export Plug-In . SVG Version: 6.00 Build 0)  -->
<svg version="1.1" id="Layer_1" xmlns="http://www.w3.org/2000/svg" xmlns:xlink="http://www.w3.org/1999/xlink" x="0px" y="0px"
	 viewBox="0 0 250 250" style="enable-background:new 0 0 250 250;" xml:space="preserve">
<style type="text/css">
	.st0{fill:none;stroke:#000000;stroke-width:6.4681;stroke-miterlimit:10;}
</style>
<g>
	<polyline class="st0" points="101,28.2 71.1,50.1 71.1,60.6 101,60.6 	"/>
	<polyline class="st0" points="101,60.6 71.1,82.4 71.1,92.9 101,92.9 	"/>
	<polyline class="st0" points="101,92.9 71.1,114.7 71.1,125.2 101,125.2 	"/>
</g>
<g>
	<polyline class="st0" points="149.3,28.2 179.2,50.1 179.2,60.6 149.3,60.6 	"/>
	<polyline class="st0" points="149.3,60.6 179.2,82.4 179.2,92.9 149.3,92.9 	"/>
	<polyline class="st0" points="149.3,92.9 179.2,114.7 179.2,125.2 149.3,125.2 	"/>
</g>
<g>
	<polyline class="st0" points="191.1,224.7 191.1,208.5 149.3,132.5 149.3,24.2 121.9,24.2 	"/>
	<polyline class="st0" points="58.5,224.7 58.5,208.5 100.3,132.5 100.3,24.2 127.6,24.2 	"/>
</g>
<polyline class="st0" points="191.1,222.5 81.5,174.1 149.3,138.2 101.3,84 149.3,28.2 "/>
<polyline class="st0" points="58.5,222.5 168.8,174.1 101,138.2 148.9,84 101,28.2 "/>
<rect x="113.9" y="44.4" width="21.8" height="21.8"/>
<rect x="113.9" y="104.2" width="21.8" height="21.8"/>
</svg>
