<?xml version="1.0" encoding="UTF-8" standalone="no"?>
<!-- Generator: Adobe Illustrator 19.0.0, SVG Export Plug-In . SVG Version: 6.00 Build 0)  -->

<svg
   xmlns:dc="http://purl.org/dc/elements/1.1/"
   xmlns:cc="http://creativecommons.org/ns#"
   xmlns:rdf="http://www.w3.org/1999/02/22-rdf-syntax-ns#"
   xmlns:svg="http://www.w3.org/2000/svg"
   xmlns="http://www.w3.org/2000/svg"
   xmlns:sodipodi="http://sodipodi.sourceforge.net/DTD/sodipodi-0.dtd"
   xmlns:inkscape="http://www.inkscape.org/namespaces/inkscape"
   version="1.1"
   id="Layer_1"
   x="0px"
   y="0px"
   viewBox="0 0 250 250"
   style="enable-background:new 0 0 250 250;"
   xml:space="preserve"
   inkscape:version="0.91 r13725"
   sodipodi:docname="hole.svg"><metadata
     id="metadata4205"><rdf:RDF><cc:Work
         rdf:about=""><dc:format>image/svg+xml</dc:format><dc:type
           rdf:resource="http://purl.org/dc/dcmitype/StillImage" /><dc:title /></cc:Work></rdf:RDF></metadata><defs
     id="defs4203" /><sodipodi:namedview
     pagecolor="#ffffff"
     bordercolor="#666666"
     borderopacity="1"
     objecttolerance="10"
     gridtolerance="10"
     guidetolerance="10"
     inkscape:pageopacity="0"
     inkscape:pageshadow="2"
     inkscape:window-width="1920"
     inkscape:window-height="1017"
     id="namedview4201"
     showgrid="false"
     inkscape:zoom="4.8457143"
     inkscape:cx="125.00002"
     inkscape:cy="125"
     inkscape:current-layer="Layer_1"
     inkscape:window-x="1912"
     inkscape:window-y="-8"
     inkscape:window-maximized="1" /><style
     type="text/css"
     id="style4196">
	.st0{fill-rule:evenodd;clip-rule:evenodd;}
</style><path
     style="clip-rule:evenodd;fill-rule:evenodd"
     inkscape:connector-curvature="0"
     d="m 212.40034,120.59524 -0.29897,-4.40475 -0.49829,-4.40477 -0.69761,-4.28571 -0.99659,-4.28572 -1.1959,-4.16667 -1.39521,-4.047622 -1.59454,-3.928568 -1.79385,-3.809524 -1.99316,-3.809523 -2.09283,-3.690477 -2.29214,-3.571429 -2.3918,-3.45238 -2.59111,-3.333333 -2.79044,-3.214286 -2.89009,-3.095238 -3.0894,-2.857142 -3.18907,-2.738097 -3.28872,-2.619046 -3.48805,-2.380955 -3.48804,-2.261904 -3.68735,-2.142858 -3.78702,-1.904761 -3.88667,-1.785714 -3.98634,-1.54762 -4.08599,-1.309523 -4.18565,-1.190476 -4.18565,-0.952382 -4.2853,-0.833333 -4.28531,-0.595237 -4.48463,-0.357144 L 125,37.5 l -4.48462,0.119048 -4.48463,0.357144 -4.28531,0.595237 -4.2853,0.833333 -4.18565,0.952382 -4.18565,1.190476 -4.085991,1.309523 -3.986332,1.54762 -3.886674,1.785714 -3.787016,1.904761 -3.687358,2.142858 -3.488041,2.261904 -3.488041,2.380955 -3.288724,2.619046 -3.189066,2.738097 -3.089408,2.857142 -2.890091,3.095238 -2.790433,3.214286 -2.591116,3.333333 -2.3918,3.45238 -2.292141,3.571429 -2.092825,3.690477 -1.993166,3.809523 -1.79385,3.809524 -1.594533,3.928568 -1.395216,4.047622 -1.1959,4.16667 -0.996583,4.28572 -0.697608,4.28571 -0.498292,4.40477 -0.298975,4.40475 -0.09966,4.40477 0.09966,4.40476 0.298975,4.40476 0.498292,4.40476 0.697608,4.28572 0.996583,4.28571 1.1959,4.16667 1.395216,4.04762 1.594533,3.92856 1.79385,3.80953 1.993166,3.80951 2.092825,3.69048 2.292141,3.57144 2.3918,3.45237 2.591116,3.33334 2.790433,3.21429 2.890091,3.09524 3.089408,2.85715 3.189066,2.73809 3.288724,2.61905 3.488041,2.38095 3.488041,2.2619 3.687358,2.14286 3.787016,1.90476 3.886674,1.78571 3.986332,1.54762 4.085991,1.30952 4.18565,1.19049 4.18565,0.95237 4.2853,0.83333 4.28531,0.59524 4.48463,0.35715 L 125,212.5 l 4.48462,-0.11904 4.48463,-0.35715 4.28531,-0.59524 4.2853,-0.83333 4.18565,-0.95237 4.18565,-1.19049 4.08599,-1.30952 3.98634,-1.54762 3.88667,-1.78571 3.78702,-1.90476 3.68735,-2.14286 3.48804,-2.2619 3.48805,-2.38095 3.28872,-2.61905 3.18907,-2.73809 3.0894,-2.85715 2.89009,-3.09524 2.79044,-3.21429 2.59111,-3.33334 2.3918,-3.45237 2.29214,-3.57144 2.09283,-3.69048 1.99316,-3.80951 1.79385,-3.80953 1.59454,-3.92856 1.39521,-4.04762 1.1959,-4.16667 0.99659,-4.28571 0.69761,-4.28572 0.49829,-4.40476 0.29897,-4.40476 0.0997,-4.40476 -0.0997,-4.40477 z m -16.54328,8.09525 -0.29897,3.57142 -0.4983,3.57143 -0.59794,3.57144 -0.79727,3.45236 -0.99658,3.33334 -1.1959,3.33333 -1.29556,3.21429 -1.39522,3.09523 -1.59453,3.09524 -1.69419,2.97621 -1.79385,2.85713 -1.99317,2.73809 -2.09282,2.61906 -2.19249,2.61904 -2.3918,2.38096 -2.3918,2.38096 -2.59111,2.2619 -2.69078,2.14285 -2.79043,1.90476 -2.79043,1.90476 -2.98975,1.66668 -3.08941,1.54761 -3.08941,1.42856 -3.28872,1.30953 -3.28873,1.07144 -3.38838,1.07142 -3.48804,0.71428 -3.48804,0.71429 -3.5877,0.35714 -3.5877,0.2381 -3.5877,0.11904 -3.68736,-0.11904 -3.5877,-0.2381 -3.58769,-0.35714 -3.48805,-0.71429 -3.48804,-0.71428 -3.38838,-1.07142 -3.28872,-1.07144 -3.288726,-1.30953 -3.089408,-1.42856 -3.089408,-1.54761 -2.989749,-1.66668 -2.790433,-1.90476 -2.790433,-1.90476 -2.690774,-2.14285 -2.591116,-2.2619 -2.3918,-2.38096 -2.391799,-2.38096 -2.192483,-2.61904 -2.092825,-2.61906 -1.993166,-2.73809 -1.79385,-2.85713 -1.694191,-2.97621 -1.594533,-3.09524 -1.395217,-3.09523 -1.295558,-3.21429 -1.195899,-3.33333 -0.996584,-3.33334 -0.797266,-3.45236 -0.59795,-3.57144 -0.498292,-3.57143 -0.298974,-3.57142 -0.09966,-3.69048 0.09966,-3.69048 0.298974,-3.57143 0.498292,-3.57143 0.59795,-3.57142 0.797266,-3.4524 0.996584,-3.33332 1.195899,-3.33333 1.295558,-3.214291 1.395217,-3.095243 1.594533,-3.095236 1.694191,-2.976189 1.79385,-2.857144 1.993166,-2.738096 2.092825,-2.619047 2.192483,-2.619048 2.391799,-2.380952 2.3918,-2.380953 2.591116,-2.261905 2.690774,-2.142857 2.790433,-1.904761 2.790433,-1.904762 2.989749,-1.666667 3.089408,-1.547619 3.089408,-1.428572 3.288726,-1.309523 3.28872,-1.071429 3.38838,-1.071428 3.48804,-0.714286 3.48805,-0.714286 3.78701,-0.238095 3.5877,-0.238096 3.68736,-0.119047 3.5877,0.119047 3.5877,0.238096 3.5877,0.357144 3.48804,0.714285 3.48804,0.714285 3.38838,1.071428 3.28873,1.071429 3.28872,1.309524 3.08941,1.428571 3.08941,1.547619 2.98974,1.666667 2.79044,1.904762 2.79043,1.904762 2.69077,2.142857 2.59112,2.261905 2.3918,2.380952 2.3918,2.380954 2.19248,2.619046 2.09283,2.619048 1.99316,2.738095 1.79385,2.857145 1.69419,2.976194 1.59454,3.095237 1.39521,3.095236 1.29556,3.214284 1.1959,3.33332 0.99659,3.33336 0.79726,3.45236 0.59795,3.57145 0.49829,3.57141 0.29898,3.57143 0.0997,3.69048 -0.29898,3.57144 z"
     class="st0"
     id="XMLID_13_" /><path
     style="fill:none;fill-rule:evenodd;stroke:#000000;stroke-width:10.09473705;stroke-linecap:butt;stroke-linejoin:miter;stroke-miterlimit:4;stroke-dasharray:none;stroke-opacity:1"
     d="M 69.552256,182.76036 177.80779,74.221082"
     id="path5243"
     inkscape:connector-curvature="0" /><path
     style="fill:none;fill-rule:evenodd;stroke:#000000;stroke-width:9.8589344;stroke-linecap:butt;stroke-linejoin:miter;stroke-miterlimit:4;stroke-dasharray:none;stroke-opacity:1"
     d="M 69.056097,72.105773 179.39811,179.52568"
     id="path5245"
     inkscape:connector-curvature="0" /></svg>