<?xml version="1.0" encoding="UTF-8" standalone="no"?>
<!-- Generator: Adobe Illustrator 19.0.0, SVG Export Plug-In . SVG Version: 6.00 Build 0)  -->

<svg
   xmlns:dc="http://purl.org/dc/elements/1.1/"
   xmlns:cc="http://creativecommons.org/ns#"
   xmlns:rdf="http://www.w3.org/1999/02/22-rdf-syntax-ns#"
   xmlns:svg="http://www.w3.org/2000/svg"
   xmlns="http://www.w3.org/2000/svg"
   xmlns:sodipodi="http://sodipodi.sourceforge.net/DTD/sodipodi-0.dtd"
   xmlns:inkscape="http://www.inkscape.org/namespaces/inkscape"
   version="1.1"
   id="Layer_1"
   x="0px"
   y="0px"
   viewBox="0 0 180 200"
   xml:space="preserve"
   inkscape:version="0.91 r13725"
   sodipodi:docname="in.svg"
   width="180"
   height="200"><metadata
     id="metadata15"><rdf:RDF><cc:Work
         rdf:about=""><dc:format>image/svg+xml</dc:format><dc:type
           rdf:resource="http://purl.org/dc/dcmitype/StillImage" /><dc:title /></cc:Work></rdf:RDF></metadata><defs
     id="defs13" /><sodipodi:namedview
     pagecolor="#ffffff"
     bordercolor="#666666"
     borderopacity="1"
     objecttolerance="10"
     gridtolerance="10"
     guidetolerance="10"
     inkscape:pageopacity="0"
     inkscape:pageshadow="2"
     inkscape:window-width="1536"
     inkscape:window-height="801"
     id="namedview11"
     showgrid="false"
     inkscape:zoom="2.4984438"
     inkscape:cx="23.310435"
     inkscape:cy="110.86591"
     inkscape:window-x="-8"
     inkscape:window-y="-8"
     inkscape:window-maximized="1"
     inkscape:current-layer="text3344" /><style
     type="text/css"
     id="style3">
	.st0{font-family:&quot;Arial Black&quot;, &quot;Arial Bold&quot;, Gadget, sans-serif;}
	.st1{font-size:118.4014px;}
	
		.st2{fill-rule:evenodd;clip-rule:evenodd;fill:none;stroke:#000000;stroke-width:18.9859;stroke-linecap:round;stroke-miterlimit:10;}
</style><flowRoot
     xml:space="preserve"
     id="flowRoot3336"
     style="fill:black;stroke:none;stroke-opacity:1;stroke-width:1px;stroke-linejoin:miter;stroke-linecap:butt;fill-opacity:1;font-family:Arial;font-style:normal;font-weight:900;font-size:40px;line-height:125%;letter-spacing:0px;word-spacing:0px;-inkscape-font-specification:'Arial, Heavy';font-stretch:normal;font-variant:normal;text-anchor:middle;text-align:center;writing-mode:lr"><flowRegion
       id="flowRegion3338"><rect
         id="rect3340"
         width="142.58875"
         height="86.720642"
         x="17.510899"
         y="69.919037" /></flowRegion><flowPara
       id="flowPara3342" /></flowRoot><g
     transform="scale(0.87006911,1.149334)"
     style="font-style:normal;font-variant:normal;font-weight:900;font-stretch:normal;font-size:141.04762268px;line-height:125%;font-family:Arial;-inkscape-font-specification:'Arial, Heavy';text-align:center;letter-spacing:0px;word-spacing:0px;writing-mode:lr-tb;text-anchor:middle;fill:#000000;fill-opacity:1;stroke:none;stroke-width:1px;stroke-linecap:butt;stroke-linejoin:miter;stroke-opacity:1"
     id="text3344"><path
       d="m 15.404229,36.524535 43.825638,0 q 12.958845,0 20.903463,3.719029 8.009738,3.719029 13.219324,10.674991 5.209585,6.955962 7.553896,16.184664 2.34432,9.228702 2.34432,19.559338 0,16.184663 -3.516474,25.137883 -3.45135,8.88435 -9.637733,14.94499 -6.186383,5.99177 -13.284444,7.98902 -9.702853,2.75484 -17.582352,2.75484 l -43.825638,0 0,-100.964755 z m 29.499278,22.865142 0,55.165603 7.2283,0 q 9.247014,0 13.154204,-2.135 3.90719,-2.20387 6.121263,-7.5758 2.214074,-5.440805 2.214074,-17.562085 0,-16.046922 -4.949107,-21.96982 -4.949106,-5.922898 -16.410194,-5.922898 l -7.35854,0 z"
       id="path3442"
       inkscape:connector-curvature="0" /><path
       d="m 107.23646,104.0869 27.59632,-1.85952 q 0.89641,7.23145 3.64964,11.01935 4.482,6.12951 12.80572,6.12951 6.21077,0 9.54025,-3.09919 3.39352,-3.16806 3.39352,-7.30032 0,-3.92564 -3.20143,-7.02483 -3.20143,-3.099192 -14.85463,-5.854028 -19.08053,-4.614351 -27.21215,-12.259022 -8.19567,-7.644671 -8.19567,-19.490468 0,-7.782412 4.16186,-14.669503 4.22589,-6.955962 12.61364,-10.881604 8.45177,-3.994513 23.11432,-3.994513 17.99203,0 27.40424,7.231446 9.47623,7.162574 11.26903,22.865142 l -27.34021,1.721772 q -1.08849,-6.81822 -4.61006,-9.917411 -3.45754,-3.09919 -9.60429,-3.09919 -5.05825,0 -7.6194,2.34161 -2.56115,2.27274 -2.56115,5.578544 0,2.410482 2.11295,4.338867 2.04891,1.997257 9.73234,3.71903 19.0165,4.407738 27.21216,8.953218 8.25969,4.476609 11.97335,11.157087 3.77768,6.680478 3.77768,14.944983 0,9.7108 -4.99423,17.90644 -4.99423,8.19564 -13.95823,12.46564 -8.964,4.20112 -22.6021,4.20112 -23.94669,0 -33.16681,-9.91741 -9.22011,-9.91741 -10.43666,-25.20675 z"
       id="path3444"
       inkscape:connector-curvature="0" /></g></svg>