<?xml version="1.0" encoding="UTF-8" standalone="no"?>
<!-- Generator: Adobe Illustrator 19.0.0, SVG Export Plug-In . SVG Version: 6.00 Build 0)  -->

<svg
   xmlns:dc="http://purl.org/dc/elements/1.1/"
   xmlns:cc="http://creativecommons.org/ns#"
   xmlns:rdf="http://www.w3.org/1999/02/22-rdf-syntax-ns#"
   xmlns:svg="http://www.w3.org/2000/svg"
   xmlns="http://www.w3.org/2000/svg"
   xmlns:sodipodi="http://sodipodi.sourceforge.net/DTD/sodipodi-0.dtd"
   xmlns:inkscape="http://www.inkscape.org/namespaces/inkscape"
   version="1.1"
   id="Layer_1"
   x="0px"
   y="0px"
   viewBox="0 0 310 200"
   xml:space="preserve"
   inkscape:version="0.91 r13725"
   sodipodi:docname="keep-straight-on-main-road.svg"
   width="310"
   height="200"><metadata
     id="metadata11"><rdf:RDF><cc:Work
         rdf:about=""><dc:format>image/svg+xml</dc:format><dc:type
           rdf:resource="http://purl.org/dc/dcmitype/StillImage" /><dc:title /></cc:Work></rdf:RDF></metadata><defs
     id="defs9" /><sodipodi:namedview
     pagecolor="#ffffff"
     bordercolor="#666666"
     borderopacity="1"
     objecttolerance="10"
     gridtolerance="10"
     guidetolerance="10"
     inkscape:pageopacity="0"
     inkscape:pageshadow="2"
     inkscape:window-width="1536"
     inkscape:window-height="801"
     id="namedview7"
     showgrid="false"
     inkscape:zoom="2.3566668"
     inkscape:cx="184.34598"
     inkscape:cy="106.15575"
     inkscape:window-x="-8"
     inkscape:window-y="-8"
     inkscape:window-maximized="1"
     inkscape:current-layer="text5" /><style
     type="text/css"
     id="style3">
	.st0{font-family:&quot;Arial Black&quot;, &quot;Arial Bold&quot;, Gadget, sans-serif;}
	.st1{font-size:75px;}
</style><g
     transform="scale(0.69956015,1.4294696)"
     style="font-size:117.27414703px;font-family:'Arial Black', 'Arial Bold', Gadget, sans-serif"
     id="text5"><path
       d="m 21.156538,27.982402 76.277396,0 0,20.729122 -25.59198,0 0,63.218096 -25.093436,0 0,-63.218096 -25.59198,0 0,-20.729122 z"
       style="font-size:117.27414703px;font-family:'Arial Black', 'Arial Bold', Gadget, sans-serif"
       id="path3469"
       inkscape:connector-curvature="0" /><path
       d="m 109.57364,27.982402 36.39809,0 q 10.76258,0 17.36074,3.09219 6.65225,3.092189 10.97893,8.875729 4.32666,5.783539 6.27366,13.45675 1.947,7.673211 1.947,16.262626 0,13.45675 -2.9205,20.90091 -2.86642,7.386897 -8.00433,12.426023 -5.13792,4.98186 -11.03301,6.64248 -8.05841,2.29051 -14.60249,2.29051 l -36.39809,0 0,-83.947218 z m 24.49976,19.011239 0,45.867476 6.00324,0 q 7.67984,0 10.92483,-1.775145 3.24501,-1.832409 5.08384,-6.298905 1.83884,-4.523758 1.83884,-14.602005 0,-13.342225 -4.11034,-18.266823 -4.11033,-4.924598 -13.629,-4.924598 l -6.11141,0 z"
       style="font-size:117.27414703px;font-family:'Arial Black', 'Arial Bold', Gadget, sans-serif"
       id="path3471"
       inkscape:connector-curvature="0" /><path
       d="m 195.01809,111.92962 0,-83.947218 39.41577,0 q 10.96333,0 16.75823,2.06146 5.79491,2.061459 9.34494,7.673211 3.55002,5.554488 3.55002,13.571275 0,6.986058 -2.71472,12.082444 -2.71473,5.039124 -7.4655,8.188576 -3.02798,2.004197 -8.30081,3.321241 4.22871,1.546094 6.16034,3.092189 1.30516,1.03073 3.75886,4.409233 2.5059,3.378503 3.34121,5.210912 l 11.43317,24.336677 -26.72963,0 -12.63393,-25.653721 q -2.40149,-4.981861 -4.28092,-6.470693 -2.5581,-1.946934 -5.7949,-1.946934 l -2.08825,0 0,34.071348 -23.75388,0 z m 23.75388,-49.933134 9.97141,0 q 1.6184,0 6.26475,-1.145255 2.34929,-0.515365 3.81107,-2.634088 1.51398,-2.118722 1.51398,-4.867335 0,-4.065656 -2.34929,-6.241642 -2.34928,-2.175985 -8.82287,-2.175985 l -10.38905,0 0,17.064305 z"
       style="font-size:117.27414703px;font-family:'Arial Black', 'Arial Bold', Gadget, sans-serif"
       id="path3473"
       inkscape:connector-curvature="0" /><path
       d="m 277.14549,27.982402 41.82078,0 q 13.66256,0 20.4383,6.699744 6.83128,6.699744 6.83128,19.068501 0,12.712335 -7.44221,19.870181 -7.38667,7.157846 -22.60432,7.157846 l -13.77364,0 0,31.150946 -25.27019,0 0,-83.947218 z m 25.27019,35.78923 6.16481,0 q 7.27559,0 10.21916,-2.576825 2.94356,-2.634087 2.94356,-6.699744 0,-3.951131 -2.55479,-6.699743 -2.55479,-2.748613 -9.60823,-2.748613 l -7.16451,0 0,18.724925 z"
       style="font-size:117.27414703px;font-family:'Arial Black', 'Arial Bold', Gadget, sans-serif"
       id="path3475"
       inkscape:connector-curvature="0" /><path
       d="m 353.31758,27.982402 43.11886,0 q 14.08664,0 21.0727,6.699744 7.04332,6.699744 7.04332,19.068501 0,12.712335 -7.67321,19.870181 -7.61595,7.157846 -23.30595,7.157846 l -14.20116,0 0,31.150946 -26.05456,0 0,-83.947218 z m 26.05456,35.78923 6.35616,0 q 7.50142,0 10.53635,-2.576825 3.03493,-2.634087 3.03493,-6.699744 0,-3.951131 -2.63409,-6.699743 -2.63409,-2.748613 -9.90646,-2.748613 l -7.38689,0 0,18.724925 z"
       style="font-size:117.27414703px;font-family:'Arial Black', 'Arial Bold', Gadget, sans-serif"
       id="path3477"
       inkscape:connector-curvature="0" /></g></svg>