<?xml version="1.0" encoding="UTF-8" standalone="no"?>
<!-- Generator: Adobe Illustrator 19.0.0, SVG Export Plug-In . SVG Version: 6.00 Build 0)  -->

<svg
   xmlns:dc="http://purl.org/dc/elements/1.1/"
   xmlns:cc="http://creativecommons.org/ns#"
   xmlns:rdf="http://www.w3.org/1999/02/22-rdf-syntax-ns#"
   xmlns:svg="http://www.w3.org/2000/svg"
   xmlns="http://www.w3.org/2000/svg"
   xmlns:sodipodi="http://sodipodi.sourceforge.net/DTD/sodipodi-0.dtd"
   xmlns:inkscape="http://www.inkscape.org/namespaces/inkscape"
   version="1.1"
   id="Layer_1"
   x="0px"
   y="0px"
   viewBox="0 0 180 200"
   xml:space="preserve"
   inkscape:version="0.91 r13725"
   sodipodi:docname="left-right.svg"
   width="180"
   height="200"><metadata
     id="metadata15"><rdf:RDF><cc:Work
         rdf:about=""><dc:format>image/svg+xml</dc:format><dc:type
           rdf:resource="http://purl.org/dc/dcmitype/StillImage" /><dc:title /></cc:Work></rdf:RDF></metadata><defs
     id="defs13" /><sodipodi:namedview
     pagecolor="#ffffff"
     bordercolor="#666666"
     borderopacity="1"
     objecttolerance="10"
     gridtolerance="10"
     guidetolerance="10"
     inkscape:pageopacity="0"
     inkscape:pageshadow="2"
     inkscape:window-width="1536"
     inkscape:window-height="801"
     id="namedview11"
     showgrid="false"
     inkscape:zoom="2.4984442"
     inkscape:cx="118.4052"
     inkscape:cy="93.464653"
     inkscape:window-x="-8"
     inkscape:window-y="-8"
     inkscape:window-maximized="1"
     inkscape:current-layer="text3344" /><style
     type="text/css"
     id="style3">
	.st0{font-family:&quot;Arial Black&quot;, &quot;Arial Bold&quot;, Gadget, sans-serif;}
	.st1{font-size:118.4014px;}
	
		.st2{fill-rule:evenodd;clip-rule:evenodd;fill:none;stroke:#000000;stroke-width:18.9859;stroke-linecap:round;stroke-miterlimit:10;}
</style><flowRoot
     xml:space="preserve"
     id="flowRoot3336"
     style="fill:black;stroke:none;stroke-opacity:1;stroke-width:1px;stroke-linejoin:miter;stroke-linecap:butt;fill-opacity:1;font-family:Arial;font-style:normal;font-weight:900;font-size:40px;line-height:125%;letter-spacing:0px;word-spacing:0px;-inkscape-font-specification:'Arial, Heavy';font-stretch:normal;font-variant:normal;text-anchor:middle;text-align:center;writing-mode:lr"><flowRegion
       id="flowRegion3338"><rect
         id="rect3340"
         width="142.58875"
         height="86.720642"
         x="17.510899"
         y="69.919037" /></flowRegion><flowPara
       id="flowPara3342" /></flowRoot><g
     transform="scale(0.76321498,1.3102468)"
     style="font-style:normal;font-variant:normal;font-weight:900;font-stretch:normal;font-size:123.7253952px;line-height:125%;font-family:Arial;-inkscape-font-specification:'Arial, Heavy';text-align:center;letter-spacing:0px;word-spacing:0px;writing-mode:lr-tb;text-anchor:middle;fill:#000000;fill-opacity:1;stroke:none;stroke-width:1px;stroke-linecap:butt;stroke-linejoin:miter;stroke-opacity:1"
     id="text3344"><path
       d="m 62.158357,88.524865 0,-18.425901 39.830163,0 0,37.757996 q -11.436948,8.27655 -20.256483,11.29719 -8.762636,2.96023 -20.825485,2.96023 -14.85096,0 -24.239498,-5.37674 -9.331638,-5.37674 -14.509559,-16.00939 -5.121022,-10.632652 -5.121022,-24.406768 0,-14.49907 5.633124,-25.192134 5.633122,-10.753477 16.501066,-16.311453 8.478135,-4.289309 22.816993,-4.289309 13.826757,0 20.654784,2.658163 6.884929,2.658163 11.380047,8.276553 4.552019,5.557976 6.828023,14.136593 l -24.865396,4.712197 q -1.536306,-5.014261 -5.234822,-7.672424 -3.641614,-2.658163 -9.331637,-2.658163 -8.478135,0 -13.542256,6.28293 -5.00722,6.222518 -5.00722,19.754983 0,14.378244 5.06412,20.540349 5.121021,6.162103 14.225058,6.162103 4.324418,0 8.250534,-1.32908 3.926116,-1.32908 8.990236,-4.530959 l 0,-8.336966 -17.24077,0 z"
       id="path3386"
       inkscape:connector-curvature="0" /><path
       d="m 126.22897,26.251921 12.56586,0 -22.23191,99.162279 -12.44503,0 22.11108,-99.162279 z"
       id="path3388"
       inkscape:connector-curvature="0" /><path
       d="m 142.55536,32.038906 39.08803,0 q 11.55797,0 18.64377,3.262291 7.14388,3.262291 11.7903,9.363982 4.64642,6.101692 6.73731,14.197006 2.09089,8.095314 2.09089,17.157233 0,14.197006 -3.13634,22.050668 -3.07824,7.793254 -8.59587,13.109574 -5.51763,5.25591 -11.84838,7.00789 -8.65396,2.41651 -15.68168,2.41651 l -39.08803,0 0,-88.565154 z m 26.31036,20.057047 0,48.390647 6.44692,0 q 8.2474,0 11.73222,-1.872798 3.48481,-1.93321 5.45954,-6.645407 1.97473,-4.772611 1.97473,-15.405262 0,-14.07618 -4.4141,-19.27168 -4.4141,-5.1955 -14.63623,-5.1955 l -6.56308,0 z"
       id="path3390"
       inkscape:connector-curvature="0" /></g></svg>