<?xml version="1.0" encoding="utf-8"?>
<!-- Generator: Adobe Illustrator 19.0.0, SVG Export Plug-In . SVG Version: 6.00 Build 0)  -->
<svg version="1.1" id="Layer_1" xmlns="http://www.w3.org/2000/svg" xmlns:xlink="http://www.w3.org/1999/xlink" x="0px" y="0px"
	 viewBox="0 0 250 250" style="enable-background:new 0 0 250 250;" xml:space="preserve">
<g>
	<g>
		<g>
			<g>
				<polygon points="90.2,104.9 108.1,103.2 108.1,85.9 90.2,85.9 				"/>
				<polygon points="71.2,106.7 89,105 89,85.9 71.2,85.9 				"/>
				<polygon points="71.2,180.1 83.4,175 83.4,155.4 71.2,159.3 				"/>
				<polygon points="128.2,101.4 146.1,99.7 146.1,85.8 128.2,85.8 				"/>
				<polygon points="109.2,103.1 127.1,101.5 127.1,85.8 109.2,85.9 				"/>
				<polygon points="166.3,97.8 184.1,96.1 184.1,85.7 166.3,85.8 				"/>
				<polygon points="147.2,99.6 165.1,97.9 165.1,85.8 147.2,85.8 				"/>
				<polygon points="204.3,94.3 222.2,92.6 222.2,85.7 204.3,85.7 				"/>
				<polygon points="185.3,96 203.1,94.4 203.1,85.7 185.3,85.7 				"/>
				<polygon points="92.1,149.3 110,143.7 110,126.5 92.1,130.4 				"/>
				<polygon points="73.1,155.1 91,149.6 91,130.7 73.1,134.6 				"/>
				<polygon points="130.2,137.5 148,131.9 148,118.2 130.2,122.1 				"/>
				<polygon points="111.1,143.4 129,137.8 129,122.4 111.1,126.3 				"/>
				<polygon points="168.2,125.7 186.1,120.1 186.1,109.9 168.2,113.8 				"/>
				<polygon points="149.2,131.6 167,126 167,114.1 149.2,118 				"/>
				<polygon points="206.2,113.9 224.1,108.3 224.1,101.6 206.2,105.5 				"/>
				<polygon points="187.2,119.8 205.1,114.2 205.1,105.8 187.2,109.7 				"/>
				<polygon points="103.8,166.5 121.7,159 121.7,142.9 103.8,148.7 				"/>
				<polygon points="84.8,174.4 102.7,166.9 102.7,149.1 84.8,154.9 				"/>
				<polygon points="141.8,150.6 159.7,143.1 159.7,130.5 141.8,136.3 				"/>
				<polygon points="122.8,158.5 140.7,151.1 140.7,136.7 122.8,142.5 				"/>
				<polygon points="179.9,134.7 197.8,127.3 197.8,118.1 179.9,123.9 				"/>
				<polygon points="160.9,142.7 178.7,135.2 178.7,124.3 160.9,130.1 				"/>
				<polygon points="217.9,118.8 224.1,116.3 224.1,109.5 217.9,111.5 				"/>
				<polygon points="222.8,92.5 223.9,92.4 223.9,85.7 222.8,85.7 				"/>
				<polygon points="213.8,102.3 224.1,100.2 224.1,93.5 213.8,94.6 				"/>
				<polygon points="198.9,126.8 216.8,119.3 216.8,111.9 198.9,117.7 				"/>
				<polygon points="80.7,128.8 98.5,125.2 98.5,107 80.7,108.9 				"/>
				<polygon points="71.2,130.7 79.5,129 79.5,109 71.2,109.9 				"/>
				<polygon points="71.1,155.8 72.4,155.4 72.4,134.7 71.1,135 				"/>
				<polygon points="118.7,121.2 136.6,117.6 136.6,102.9 118.7,104.8 				"/>
				<polygon points="99.7,125 117.6,121.4 117.6,104.9 99.7,106.9 				"/>
				<polygon points="156.7,113.6 174.6,110.1 174.6,98.8 156.7,100.7 				"/>
				<polygon points="137.7,117.4 155.6,113.8 155.6,100.8 137.7,102.8 				"/>
				<polygon points="194.8,106 212.7,102.5 212.7,94.7 194.8,96.6 				"/>
				<polygon points="175.8,109.8 193.6,106.3 193.6,96.7 175.8,98.7 				"/>
			</g>
			<polygon points="227.7,80.4 67.6,68.6 67.6,81.2 227.7,84.2 			"/>
		</g>
	</g>
	<rect x="22.7" y="68.5" width="42.8" height="11.9"/>
	<rect x="48" y="86.1" width="19.5" height="21.1"/>
	<rect x="22.7" y="86.1" width="21.4" height="21.1"/>
	<rect x="38.7" y="110.2" width="28.9" height="21.1"/>
	<rect x="22.7" y="110.2" width="10.7" height="21.1"/>
	<rect x="22.7" y="134.6" width="44.9" height="21.1"/>
	<rect x="38.7" y="159.1" width="28.9" height="21.1"/>
	<rect x="22.7" y="159.1" width="12.3" height="21.1"/>
</g>
</svg>
