<?xml version="1.0" encoding="UTF-8" standalone="no"?>
<!-- Generator: Adobe Illustrator 19.0.0, SVG Export Plug-In . SVG Version: 6.00 Build 0)  -->

<svg
   xmlns:dc="http://purl.org/dc/elements/1.1/"
   xmlns:cc="http://creativecommons.org/ns#"
   xmlns:rdf="http://www.w3.org/1999/02/22-rdf-syntax-ns#"
   xmlns:svg="http://www.w3.org/2000/svg"
   xmlns="http://www.w3.org/2000/svg"
   xmlns:sodipodi="http://sodipodi.sourceforge.net/DTD/sodipodi-0.dtd"
   xmlns:inkscape="http://www.inkscape.org/namespaces/inkscape"
   version="1.1"
   id="Layer_1"
   x="0px"
   y="0px"
   viewBox="0 0 180 200"
   xml:space="preserve"
   inkscape:version="0.91 r13725"
   sodipodi:docname="main-track.svg"
   width="180"
   height="200"><metadata
     id="metadata15"><rdf:RDF><cc:Work
         rdf:about=""><dc:format>image/svg+xml</dc:format><dc:type
           rdf:resource="http://purl.org/dc/dcmitype/StillImage" /><dc:title /></cc:Work></rdf:RDF></metadata><defs
     id="defs13" /><sodipodi:namedview
     pagecolor="#ffffff"
     bordercolor="#666666"
     borderopacity="1"
     objecttolerance="10"
     gridtolerance="10"
     guidetolerance="10"
     inkscape:pageopacity="0"
     inkscape:pageshadow="2"
     inkscape:window-width="1920"
     inkscape:window-height="1017"
     id="namedview11"
     showgrid="false"
     inkscape:zoom="7.0666665"
     inkscape:cx="90"
     inkscape:cy="99.999997"
     inkscape:window-x="-8"
     inkscape:window-y="-8"
     inkscape:window-maximized="1"
     inkscape:current-layer="text3344" /><style
     type="text/css"
     id="style3">
	.st0{font-family:&quot;Arial Black&quot;, &quot;Arial Bold&quot;, Gadget, sans-serif;}
	.st1{font-size:118.4014px;}
	
		.st2{fill-rule:evenodd;clip-rule:evenodd;fill:none;stroke:#000000;stroke-width:18.9859;stroke-linecap:round;stroke-miterlimit:10;}
</style><flowRoot
     xml:space="preserve"
     id="flowRoot3336"
     style="fill:black;stroke:none;stroke-opacity:1;stroke-width:1px;stroke-linejoin:miter;stroke-linecap:butt;fill-opacity:1;font-family:Arial;font-style:normal;font-weight:900;font-size:40px;line-height:125%;letter-spacing:0px;word-spacing:0px;-inkscape-font-specification:'Arial, Heavy';font-stretch:normal;font-variant:normal;text-anchor:middle;text-align:center;writing-mode:lr"><flowRegion
       id="flowRegion3338"><rect
         id="rect3340"
         width="142.58875"
         height="86.720642"
         x="17.510899"
         y="69.919037" /></flowRegion><flowPara
       id="flowPara3342" /></flowRoot><g
     transform="scale(0.87316693,1.1452564)"
     style="font-style:normal;font-variant:normal;font-weight:900;font-stretch:normal;font-size:146.37756348px;line-height:125%;font-family:Arial;-inkscape-font-specification:'Arial, Heavy';text-align:center;letter-spacing:0px;word-spacing:0px;writing-mode:lr-tb;text-anchor:middle;fill:#000000;fill-opacity:1;stroke:none;stroke-width:1px;stroke-linecap:butt;stroke-linejoin:miter;stroke-opacity:1"
     id="text3344"><path
       d="m 5.7262762,34.926678 53.8194848,0 q 17.582461,0 26.302219,8.36239 8.79123,8.36239 8.79123,23.800648 0,15.8671 -9.577438,24.801277 -9.505965,8.934177 -29.089682,8.934177 l -17.725408,0 0,38.88154 -32.5204058,0 0,-104.780032 z m 32.5204058,44.670887 7.93355,0 q 9.363018,0 13.151109,-3.216304 3.788091,-3.287777 3.788091,-8.36239 0,-4.931666 -3.287777,-8.36239 -3.287777,-3.430724 -12.364902,-3.430724 l -9.220071,0 0,23.371808 z"
       style=""
       id="path3404" /><path
       d="m 111.50694,34.926678 53.81948,0 q 17.58246,0 26.30222,8.36239 8.79123,8.36239 8.79123,23.800648 0,15.8671 -9.57744,24.801277 -9.50596,8.934177 -29.08968,8.934177 l -17.72541,0 0,38.88154 -32.5204,0 0,-104.780032 z m 32.5204,44.670887 7.93355,0 q 9.36302,0 13.15111,-3.216304 3.78809,-3.287777 3.78809,-8.36239 0,-4.931666 -3.28777,-8.36239 -3.28778,-3.430724 -12.3649,-3.430724 l -9.22008,0 0,23.371808 z"
       style=""
       id="path3406" /></g></svg>