<?xml version="1.0" encoding="UTF-8" standalone="no"?>
<!-- Generator: Adobe Illustrator 19.0.0, SVG Export Plug-In . SVG Version: 6.00 Build 0)  -->

<svg
   xmlns:dc="http://purl.org/dc/elements/1.1/"
   xmlns:cc="http://creativecommons.org/ns#"
   xmlns:rdf="http://www.w3.org/1999/02/22-rdf-syntax-ns#"
   xmlns:svg="http://www.w3.org/2000/svg"
   xmlns="http://www.w3.org/2000/svg"
   xmlns:sodipodi="http://sodipodi.sourceforge.net/DTD/sodipodi-0.dtd"
   xmlns:inkscape="http://www.inkscape.org/namespaces/inkscape"
   version="1.1"
   id="Layer_1"
   x="0px"
   y="0px"
   viewBox="0 0 250 200"
   xml:space="preserve"
   inkscape:version="0.91 r13725"
   sodipodi:docname="many.svg"
   width="250"
   height="200"><metadata
     id="metadata11"><rdf:RDF><cc:Work
         rdf:about=""><dc:format>image/svg+xml</dc:format><dc:type
           rdf:resource="http://purl.org/dc/dcmitype/StillImage" /><dc:title /></cc:Work></rdf:RDF></metadata><defs
     id="defs9" /><sodipodi:namedview
     pagecolor="#ffffff"
     bordercolor="#666666"
     borderopacity="1"
     objecttolerance="10"
     gridtolerance="10"
     guidetolerance="10"
     inkscape:pageopacity="0"
     inkscape:pageshadow="2"
     inkscape:window-width="1536"
     inkscape:window-height="801"
     id="namedview7"
     showgrid="false"
     inkscape:zoom="1.4729166"
     inkscape:cx="13.561745"
     inkscape:cy="92.011104"
     inkscape:window-x="-8"
     inkscape:window-y="-8"
     inkscape:window-maximized="1"
     inkscape:current-layer="text5" /><style
     type="text/css"
     id="style3">
	.st0{font-family:&quot;Arial Black&quot;, &quot;Arial Bold&quot;, Gadget, sans-serif;}
	.st1{font-size:75px;}
</style><g
     transform="scale(0.78615765,1.2720095)"
     style="font-size:131.79133606px;font-family:'Arial Black', 'Arial Bold', Gadget, sans-serif"
     id="text5"><path
       d="m 18.775967,31.446317 25.009665,0 32.636727,52.188854 0,-52.188854 25.246161,0 0,94.338913 -25.246161,0 -32.459353,-51.802744 0,51.802744 -25.187039,0 0,-94.338913 z"
       style="font-size:131.79133606px;font-family:'Arial Black', 'Arial Bold', Gadget, sans-serif"
       id="path3343"
       inkscape:connector-curvature="0" /><path
       d="m 123.77532,31.446317 48.83734,0 q 12.20934,0 18.71714,6.75688 6.5654,6.75688 6.5654,16.731322 0,8.365661 -4.66489,14.350326 -3.10992,3.989777 -9.09941,6.306422 9.09941,2.445347 13.36116,8.430012 4.31934,5.920314 4.31934,14.929487 0,7.336044 -3.05233,13.192004 -3.05234,5.85596 -8.35072,9.26658 -3.2827,2.12359 -9.9057,3.08886 -8.81145,1.28702 -11.69101,1.28702 l -45.03632,0 0,-94.338913 z m 26.31918,37.001962 11.34547,0 q 6.10466,0 8.46591,-2.316644 2.41883,-2.380996 2.41883,-6.821232 0,-4.118479 -2.41883,-6.435123 -2.36125,-2.316645 -8.29314,-2.316645 l -11.51824,0 0,17.889644 z m 0,37.066311 13.30357,0 q 6.73817,0 9.50255,-2.6384 2.76438,-2.70275 2.76438,-7.207337 0,-4.18283 -2.76438,-6.692529 -2.70679,-2.574049 -9.56015,-2.574049 l -13.24597,0 0,19.112315 z"
       style="font-size:131.79133606px;font-family:'Arial Black', 'Arial Bold', Gadget, sans-serif"
       id="path3345"
       inkscape:connector-curvature="0" /><path
       d="m 211.83277,31.446317 30.00845,0 15.63567,29.022409 15.15456,-29.022409 29.70776,0 -27.42254,45.689379 30.00845,48.649534 -30.60982,0 -17.37965,-30.309431 -17.43978,30.309431 -30.42941,0 30.42941,-49.164344 -27.6631,-45.174569 z"
       style="font-size:131.79133606px;font-family:'Arial Black', 'Arial Bold', Gadget, sans-serif"
       id="path3347"
       inkscape:connector-curvature="0" /></g></svg>