<?xml version="1.0" encoding="UTF-8" standalone="no"?>
<!-- Generator: Adobe Illustrator 19.0.0, SVG Export Plug-In . SVG Version: 6.00 Build 0)  -->

<svg
   xmlns:dc="http://purl.org/dc/elements/1.1/"
   xmlns:cc="http://creativecommons.org/ns#"
   xmlns:rdf="http://www.w3.org/1999/02/22-rdf-syntax-ns#"
   xmlns:svg="http://www.w3.org/2000/svg"
   xmlns="http://www.w3.org/2000/svg"
   xmlns:sodipodi="http://sodipodi.sourceforge.net/DTD/sodipodi-0.dtd"
   xmlns:inkscape="http://www.inkscape.org/namespaces/inkscape"
   version="1.1"
   id="Layer_1"
   x="0px"
   y="0px"
   viewBox="0 0 250 200"
   xml:space="preserve"
   inkscape:version="0.91 r13725"
   sodipodi:docname="medium.svg"
   width="250"
   height="200"><metadata
     id="metadata11"><rdf:RDF><cc:Work
         rdf:about=""><dc:format>image/svg+xml</dc:format><dc:type
           rdf:resource="http://purl.org/dc/dcmitype/StillImage" /><dc:title /></cc:Work></rdf:RDF></metadata><defs
     id="defs9" /><sodipodi:namedview
     pagecolor="#ffffff"
     bordercolor="#666666"
     borderopacity="1"
     objecttolerance="10"
     gridtolerance="10"
     guidetolerance="10"
     inkscape:pageopacity="0"
     inkscape:pageshadow="2"
     inkscape:window-width="1920"
     inkscape:window-height="1017"
     id="namedview7"
     showgrid="false"
     inkscape:zoom="5.8916669"
     inkscape:cx="124.99999"
     inkscape:cy="99.999997"
     inkscape:window-x="-8"
     inkscape:window-y="-8"
     inkscape:window-maximized="1"
     inkscape:current-layer="text5" /><style
     type="text/css"
     id="style3">
	.st0{font-family:&quot;Arial Black&quot;, &quot;Arial Bold&quot;, Gadget, sans-serif;}
	.st1{font-size:75px;}
</style><g
     transform="scale(0.78248187,1.2779849)"
     style="font-size:126.84877014px;font-family:'Arial Black', 'Arial Bold', Gadget, sans-serif"
     id="text5"><path
       d="m 6.3899242,32.847725 36.9149738,0 14.245712,55.248585 14.183773,-55.248585 36.791097,0 0,90.800925 -22.917012,0 0,-69.246544 -17.776171,69.246544 -20.749188,0 -17.714233,-69.246544 0,69.246544 -22.9789518,0 0,-90.800925 z"
       style="font-size:126.84877014px;font-family:'Arial Black', 'Arial Bold', Gadget, sans-serif"
       id="path3356" /><path
       d="m 122.83313,78.310126 q 0,-22.235698 12.38758,-34.623273 12.38757,-12.387575 34.4994,-12.387575 22.66926,0 34.93296,12.201762 12.2637,12.139823 12.2637,34.065831 0,15.918034 -5.3886,26.137789 -5.32666,10.15781 -15.48447,15.85609 -10.09587,5.63635 -25.20871,5.63635 -15.3606,0 -25.45647,-4.89309 -10.03394,-4.8931 -16.28966,-15.48447 -6.25573,-10.59138 -6.25573,-26.509414 z m 28.05786,0.123876 q 0,13.750208 5.07891,19.758182 5.14084,6.007976 13.93602,6.007976 9.04293,0 13.99796,-5.8841 4.95503,-5.884098 4.95503,-21.120816 0,-12.82114 -5.20278,-18.705238 -5.14085,-5.946037 -13.99796,-5.946037 -8.48549,0 -13.62634,6.007974 -5.14084,6.007974 -5.14084,19.882059 z"
       style="font-size:126.84877014px;font-family:'Arial Black', 'Arial Bold', Gadget, sans-serif"
       id="path3358" /><path
       d="m 214.31537,32.847725 31.15475,0 18.33361,30.659248 18.33361,-30.659248 30.96894,0 -35.30459,52.77107 0,38.029855 -28.11979,0 0,-38.029855 -35.36653,-52.77107 z"
       style="font-size:126.84877014px;font-family:'Arial Black', 'Arial Bold', Gadget, sans-serif"
       id="path3360" /></g></svg>