<?xml version="1.0" encoding="UTF-8" standalone="no"?>
<!-- Generator: Adobe Illustrator 19.0.0, SVG Export Plug-In . SVG Version: 6.00 Build 0)  -->

<svg
   xmlns:dc="http://purl.org/dc/elements/1.1/"
   xmlns:cc="http://creativecommons.org/ns#"
   xmlns:rdf="http://www.w3.org/1999/02/22-rdf-syntax-ns#"
   xmlns:svg="http://www.w3.org/2000/svg"
   xmlns="http://www.w3.org/2000/svg"
   xmlns:sodipodi="http://sodipodi.sourceforge.net/DTD/sodipodi-0.dtd"
   xmlns:inkscape="http://www.inkscape.org/namespaces/inkscape"
   version="1.1"
   id="Layer_1"
   x="0px"
   y="0px"
   viewBox="0 0 250 200"
   xml:space="preserve"
   inkscape:version="0.91 r13725"
   sodipodi:docname="medium.svg"
   width="250"
   height="200"><metadata
     id="metadata11"><rdf:RDF><cc:Work
         rdf:about=""><dc:format>image/svg+xml</dc:format><dc:type
           rdf:resource="http://purl.org/dc/dcmitype/StillImage" /><dc:title /></cc:Work></rdf:RDF></metadata><defs
     id="defs9" /><sodipodi:namedview
     pagecolor="#ffffff"
     bordercolor="#666666"
     borderopacity="1"
     objecttolerance="10"
     gridtolerance="10"
     guidetolerance="10"
     inkscape:pageopacity="0"
     inkscape:pageshadow="2"
     inkscape:window-width="1536"
     inkscape:window-height="801"
     id="namedview7"
     showgrid="false"
     inkscape:zoom="2.9458335"
     inkscape:cx="96.001051"
     inkscape:cy="100.44432"
     inkscape:window-x="-8"
     inkscape:window-y="-8"
     inkscape:window-maximized="1"
     inkscape:current-layer="text5" /><style
     type="text/css"
     id="style3">
	.st0{font-family:&quot;Arial Black&quot;, &quot;Arial Bold&quot;, Gadget, sans-serif;}
	.st1{font-size:75px;}
</style><g
     transform="scale(0.78248187,1.2779849)"
     style="font-size:126.84877014px;font-family:'Arial Black', 'Arial Bold', Gadget, sans-serif"
     id="text5"><path
       d="m 19.169774,32.847725 36.130979,0 13.943164,55.248585 13.88254,-55.248585 36.009733,0 0,90.800925 -22.430304,0 0,-69.246544 -17.398643,69.246544 -20.30852,0 -17.338021,-69.246544 0,69.246544 -22.490928,0 0,-90.800925 z"
       style="font-size:126.84877014px;font-family:'Arial Black', 'Arial Bold', Gadget, sans-serif"
       id="path3356"
       inkscape:connector-curvature="0" /><path
       d="m 127.94507,78.310126 q 0,-22.235698 11.75926,-34.623273 11.75925,-12.387575 32.74952,-12.387575 21.51943,0 33.16109,12.201762 11.64166,12.139823 11.64166,34.065831 0,15.918034 -5.11528,26.137789 -5.05648,10.15781 -14.69906,15.85609 -9.58379,5.63635 -23.93008,5.63635 -14.58148,0 -24.16527,-4.89309 -9.525,-4.8931 -15.46341,-15.48447 -5.93843,-10.59138 -5.93843,-26.509414 z m 26.63471,0.123876 q 0,13.750208 4.8213,19.758182 4.88008,6.007976 13.22916,6.007976 8.58425,0 13.28795,-5.8841 4.7037,-5.884098 4.7037,-21.120816 0,-12.82114 -4.93888,-18.705238 -4.8801,-5.946037 -13.28796,-5.946037 -8.05509,0 -12.93518,6.007974 -4.88009,6.007974 -4.88009,19.882059 z"
       style="font-size:126.84877014px;font-family:'Arial Black', 'Arial Bold', Gadget, sans-serif"
       id="path3358"
       inkscape:connector-curvature="0" /><path
       d="m 214.31537,32.847725 27.73445,0 16.32086,30.659248 16.32087,-30.659248 27.56903,0 -31.4287,52.77107 0,38.029855 -25.03267,0 0,-38.029855 -31.48384,-52.77107 z"
       style="font-size:126.84877014px;font-family:'Arial Black', 'Arial Bold', Gadget, sans-serif"
       id="path3360"
       inkscape:connector-curvature="0" /></g></svg>