<?xml version="1.0" encoding="UTF-8" standalone="no"?>
<!-- Generator: Adobe Illustrator 19.0.0, SVG Export Plug-In . SVG Version: 6.00 Build 0)  -->

<svg
   xmlns:dc="http://purl.org/dc/elements/1.1/"
   xmlns:cc="http://creativecommons.org/ns#"
   xmlns:rdf="http://www.w3.org/1999/02/22-rdf-syntax-ns#"
   xmlns:svg="http://www.w3.org/2000/svg"
   xmlns="http://www.w3.org/2000/svg"
   xmlns:sodipodi="http://sodipodi.sourceforge.net/DTD/sodipodi-0.dtd"
   xmlns:inkscape="http://www.inkscape.org/namespaces/inkscape"
   version="1.1"
   id="Layer_1"
   x="0px"
   y="0px"
   viewBox="0 0 180 200"
   xml:space="preserve"
   inkscape:version="0.91 r13725"
   sodipodi:docname="narrow.svg"
   width="180"
   height="200"><metadata
     id="metadata15"><rdf:RDF><cc:Work
         rdf:about=""><dc:format>image/svg+xml</dc:format><dc:type
           rdf:resource="http://purl.org/dc/dcmitype/StillImage" /><dc:title /></cc:Work></rdf:RDF></metadata><defs
     id="defs13" /><sodipodi:namedview
     pagecolor="#ffffff"
     bordercolor="#666666"
     borderopacity="1"
     objecttolerance="10"
     gridtolerance="10"
     guidetolerance="10"
     inkscape:pageopacity="0"
     inkscape:pageshadow="2"
     inkscape:window-width="1920"
     inkscape:window-height="1017"
     id="namedview11"
     showgrid="false"
     inkscape:zoom="7.0666662"
     inkscape:cx="90.000003"
     inkscape:cy="100.00001"
     inkscape:window-x="-8"
     inkscape:window-y="-8"
     inkscape:window-maximized="1"
     inkscape:current-layer="text3344" /><style
     type="text/css"
     id="style3">
	.st0{font-family:&quot;Arial Black&quot;, &quot;Arial Bold&quot;, Gadget, sans-serif;}
	.st1{font-size:118.4014px;}
	
		.st2{fill-rule:evenodd;clip-rule:evenodd;fill:none;stroke:#000000;stroke-width:18.9859;stroke-linecap:round;stroke-miterlimit:10;}
</style><flowRoot
     xml:space="preserve"
     id="flowRoot3336"
     style="fill:black;stroke:none;stroke-opacity:1;stroke-width:1px;stroke-linejoin:miter;stroke-linecap:butt;fill-opacity:1;font-family:Arial;font-style:normal;font-weight:900;font-size:40px;line-height:125%;letter-spacing:0px;word-spacing:0px;-inkscape-font-specification:'Arial, Heavy';font-stretch:normal;font-variant:normal;text-anchor:middle;text-align:center;writing-mode:lr"><flowRegion
       id="flowRegion3338"><rect
         id="rect3340"
         width="142.58875"
         height="86.720642"
         x="17.510899"
         y="69.919037" /></flowRegion><flowPara
       id="flowPara3342" /></flowRoot><g
     transform="scale(0.90642241,1.1032384)"
     style="font-style:normal;font-variant:normal;font-weight:900;font-stretch:normal;font-size:146.94088745px;line-height:125%;font-family:Arial;-inkscape-font-specification:'Arial, Heavy';text-align:center;letter-spacing:0px;word-spacing:0px;writing-mode:lr-tb;text-anchor:middle;fill:#000000;fill-opacity:1;stroke:none;stroke-width:1px;stroke-linecap:butt;stroke-linejoin:miter;stroke-opacity:1"
     id="text3344"><path
       d="m 5.516194,38.050599 87.102655,0 0,22.457275 -54.528845,0 0,16.717396 50.582679,0 0,21.452795 -50.582679,0 0,20.735315 56.107312,0 0,23.82049 -88.681122,0 0,-105.183271 z"
       style=""
       id="path4189" /><path
       d="M 135.38094,68.471955 107.75778,63.52131 q 3.44393,-13.20172 13.20172,-20.233071 9.82954,-7.031352 27.76666,-7.031352 20.59182,0 29.77562,7.677088 9.18381,7.677087 9.18381,19.300341 0,6.816106 -3.73092,12.340739 -3.73093,5.524633 -11.26452,9.686044 6.09862,1.506719 9.32731,3.515676 5.23764,3.228682 8.10757,8.538069 2.94169,5.237636 2.94169,12.555986 0,9.1838 -4.80715,17.65012 -4.80714,8.39458 -13.84745,12.98648 -9.04031,4.52015 -23.74875,4.52015 -14.3497,0 -22.67252,-3.37218 -8.25107,-3.37217 -13.63221,-9.82954 -5.30939,-6.52911 -8.17933,-16.35865 l 29.20163,-3.87442 q 1.72197,8.82506 5.30939,12.26899 3.65917,3.37218 9.25556,3.37218 5.88337,0 9.75779,-4.30491 3.94617,-4.30491 3.94617,-11.47976 0,-7.31834 -3.80267,-11.33626 -3.73092,-4.01791 -10.18829,-4.01791 -3.44393,0 -9.4708,1.721963 l 1.50672,-20.878807 q 2.43945,0.358742 3.80267,0.358742 5.73988,0 9.54255,-3.659172 3.87442,-3.659173 3.87442,-8.681566 0,-4.807149 -2.86994,-7.677088 -2.86994,-2.869939 -7.89234,-2.869939 -5.16589,0 -8.39457,3.156933 -3.22868,3.085185 -4.37666,10.905769 z"
       style=""
       id="path4191" /></g></svg>