<?xml version="1.0" encoding="UTF-8" standalone="no"?>
<!-- Generator: Adobe Illustrator 19.0.0, SVG Export Plug-In . SVG Version: 6.00 Build 0)  -->

<svg
   xmlns:dc="http://purl.org/dc/elements/1.1/"
   xmlns:cc="http://creativecommons.org/ns#"
   xmlns:rdf="http://www.w3.org/1999/02/22-rdf-syntax-ns#"
   xmlns:svg="http://www.w3.org/2000/svg"
   xmlns="http://www.w3.org/2000/svg"
   xmlns:sodipodi="http://sodipodi.sourceforge.net/DTD/sodipodi-0.dtd"
   xmlns:inkscape="http://www.inkscape.org/namespaces/inkscape"
   version="1.1"
   id="Layer_1"
   x="0px"
   y="0px"
   viewBox="0 0 180 200"
   xml:space="preserve"
   inkscape:version="0.91 r13725"
   sodipodi:docname="on-the-right.svg"
   width="180"
   height="200"><metadata
     id="metadata15"><rdf:RDF><cc:Work
         rdf:about=""><dc:format>image/svg+xml</dc:format><dc:type
           rdf:resource="http://purl.org/dc/dcmitype/StillImage" /><dc:title /></cc:Work></rdf:RDF></metadata><defs
     id="defs13" /><sodipodi:namedview
     pagecolor="#ffffff"
     bordercolor="#666666"
     borderopacity="1"
     objecttolerance="10"
     gridtolerance="10"
     guidetolerance="10"
     inkscape:pageopacity="0"
     inkscape:pageshadow="2"
     inkscape:window-width="1536"
     inkscape:window-height="801"
     id="namedview11"
     showgrid="false"
     inkscape:zoom="3.5333334"
     inkscape:cx="69.679885"
     inkscape:cy="89.933741"
     inkscape:window-x="-8"
     inkscape:window-y="-8"
     inkscape:window-maximized="1"
     inkscape:current-layer="text3344" /><style
     type="text/css"
     id="style3">
	.st0{font-family:&quot;Arial Black&quot;, &quot;Arial Bold&quot;, Gadget, sans-serif;}
	.st1{font-size:118.4014px;}
	
		.st2{fill-rule:evenodd;clip-rule:evenodd;fill:none;stroke:#000000;stroke-width:18.9859;stroke-linecap:round;stroke-miterlimit:10;}
</style><flowRoot
     xml:space="preserve"
     id="flowRoot3336"
     style="fill:black;stroke:none;stroke-opacity:1;stroke-width:1px;stroke-linejoin:miter;stroke-linecap:butt;fill-opacity:1;font-family:Arial;font-style:normal;font-weight:900;font-size:40px;line-height:125%;letter-spacing:0px;word-spacing:0px;-inkscape-font-specification:'Arial, Heavy';font-stretch:normal;font-variant:normal;text-anchor:middle;text-align:center;writing-mode:lr"><flowRegion
       id="flowRegion3338"><rect
         id="rect3340"
         width="142.58875"
         height="86.720642"
         x="17.510899"
         y="69.919037" /></flowRegion><flowPara
       id="flowPara3342" /></flowRoot><g
     transform="scale(0.81916331,1.2207578)"
     style="font-style:normal;font-variant:normal;font-weight:900;font-stretch:normal;font-size:137.32440186px;line-height:125%;font-family:Arial;-inkscape-font-specification:'Arial, Heavy';text-align:center;letter-spacing:0px;word-spacing:0px;writing-mode:lr-tb;text-anchor:middle;fill:#000000;fill-opacity:1;stroke:none;stroke-width:1px;stroke-linecap:butt;stroke-linejoin:miter;stroke-opacity:1"
     id="text3344"><path
       d="m 81.514899,114.83932 -29.86019,0 -4.108669,16.22681 -26.793156,0 31.885591,-98.299595 28.587081,0 31.885614,98.299595 -27.429733,0 -4.166538,-16.22681 z M 76.017383,93.583543 66.642672,58.246649 57.32583,93.583543 l 18.691553,0 z"
       id="path4798"
       inkscape:connector-curvature="0" /><path
       d="m 118.29517,32.766535 41.71398,0 q 12.33444,0 19.89626,3.620859 7.6238,3.620858 12.58238,10.393204 4.95857,6.772346 7.18993,15.757439 2.23135,8.985092 2.23135,19.043032 0,15.757439 -3.34704,24.474321 -3.28505,8.64983 -9.17335,14.55048 -5.88831,5.83361 -12.64436,7.77814 -9.23533,2.68212 -16.73517,2.68212 l -41.71398,0 0,-98.299595 z m 28.07791,22.261573 0,53.709402 6.88001,0 q 8.80147,0 12.52039,-2.07865 3.71893,-2.14569 5.82633,-7.375818 2.10739,-5.297181 2.10739,-17.098497 0,-15.623333 -4.71064,-21.389885 -4.71065,-5.766552 -15.6195,-5.766552 l -7.00398,0 z"
       id="path4800"
       inkscape:connector-curvature="0" /></g></svg>