<?xml version="1.0" encoding="utf-8"?>
<!-- Generator: Adobe Illustrator 19.0.0, SVG Export Plug-In . SVG Version: 6.00 Build 0)  -->
<svg version="1.1" id="Layer_1" xmlns="http://www.w3.org/2000/svg" xmlns:xlink="http://www.w3.org/1999/xlink" x="0px" y="0px"
	 viewBox="0 0 250 250" style="enable-background:new 0 0 250 250;" xml:space="preserve">
<style type="text/css">
	.st0{fill-rule:evenodd;clip-rule:evenodd;fill:#010101;}
</style>
<path id="XMLID_2_" class="st0" d="M133.9,75.9c-0.2-0.6-0.7-1-1.6-0.8c0.1-2.1,0.5-3.9,1.6-5C132.8,72.7,136.4,74.7,133.9,75.9z
	 M112.4,59.4c-2.1-0.1-5.4-3.4-4.1-4.1C108.7,57.6,113.6,55.5,112.4,59.4z M105.8,50.3c-0.9,0.2-1.3,0.9-1.7,1.7
	c-3.1-0.5-4-3.1-7.4-3.3c-0.2-1.4,1.6-4.9,2.5-2.5C101.6,47.6,102.7,47.3,105.8,50.3z M152.1,44.5c-1.3-0.1-4.3-2.8-5-0.8
	c1.1-0.1,4.6,1.3,2.5,1.7c-1.2-1-3.4-1-4.1-2.5C147.5,41.3,153.3,43.3,152.1,44.5z M150.5,41.2c2.5-0.8-2.4-0.8-1.7-2.5
	c4,1.5,8.4,2.6,11.6,5c-6.1-0.4-7.5-0.3-7.4-2.5C151.5,40.8,150.8,42.4,150.5,41.2z M91,66.8c0.1-1.5,0.5-2.8,1.7-3.3
	c0.1,1.2-0.3,3.1,0.8,3.3c0.1-1.5,0.5-2.8,1.7-3.3c0.1,1-0.1,2.4,0.8,2.5c0.5-1.5,0.4-3.4,1.7-4.1V66c-3.3,1.4-7,2.3-9.9,4.1
	c0.6-2.7,1.7-4.9,3.3-6.6C91.8,65.1,88.5,66.3,91,66.8z M94.3,55.2c0.3-2.6-2.4,2.1-2.5-0.8c1.6-0.1,0.6-2.7,2.5-2.5
	c0.2,0.6,0,1.6,0.8,1.7c0-0.5,0.7-0.9,0.8,0C94.8,53.6,95.2,55,94.3,55.2z M97.6,42.8c-0.4,2.1-1.2,3.8-2.5,5
	c-0.2-1.2-1.8-0.9-2.5-1.7C94.6,40.1,95.1,46.1,97.6,42.8z M193.4,236.6c-0.4-2.9-2.1-4.5-3.3-6.6c-15.9-5.9-26.4-19.2-32.2-35.6
	c-10-28.1-30.7-52.4-35.5-87.8c4.8-1.2,10.5-7.8,5.8-13.2c3.6-2.6,6-6.5,4.1-12.4c1.6,2,1.9,5.2,2.5,8.3c0.4,0.1,3.1-4.6,2.5-8.3
	c1.9,0.6,0.3,4.6,0.8,6.6c1,2.7,0.9-2.2,0.8-3.3c0.9,3.1,1.1,4,1.2,4c0.1,0-0.5-3,0.5-3.2c1.9-0.3-0.2,4.8,1.6,8.3
	c1.2-4.3,2.7,1.6,2.5-4.1c1.9,1.2,0.3,5.8,0.8,8.3c0.7-0.5,1.5-1,1.7,0c1-0.1,0.7-1.5,0.8-2.5c1.5,0.2,1.9,1.4,1.7,3.3
	c1.3,2.5,0.7-3.6,0.8-5c1.4,1.3,1.8,3.7,1.7,6.6c1.7-0.2,1.6-2.2,2.5-3.3c1.9,0.9,0.3,5.2,0.8,7.5c1,1.7,1.2-4.3,1.7-5.8
	c1.9,1.7,0.3,6.9,0.8,9.9c1.2-1,1.6-4.4,1.7,0c1,2.7,0.9-2.2,0.8-3.3c1.9,0.6,0.3,4.6,0.8,6.6c2.5-4.3,1.5,3,1.7,5.8
	c1.1,2.6,0.8-2.9,0.8-4.1c2.1,1.8,2,5.7,2.5,9.1c2-24.4-13.6-38.2-30.6-46.4c-0.6-2.5,0.8-3,0.8-5c1.3,3.7,1.7,5.3,1.7-0.8
	c1.2,1,1.6,2.8,1.6,5c1-0.1,0.7-1.5,0.8-2.5c2.2-0.3,2.1,1.7,2.5,3.3c1.1-0.2,1.5-3.4,1.7,0c1.5-0.2,1.9-1.4,1.6-3.3
	c1.2,1,1.6,4.4,1.7,0c1.7,1.6,3.8,2.8,4.1,5.8c1.3-2.3,3-3.1,4.1,0c1.9-0.6-1.8-2.5-1.7-4.1c2.2,0.8,2.7,3.3,4.1,5
	c1.2-0.4-0.3-1.1,0-2.5c1.9,0.3,1.9,2.6,3.3,3.3c1.9,1.5-2-3.5-2.5-5c2.2,0.5,3.9,1.6,5,3.3c-3.4-9.7-23.5-16.8-37.2-11.6
	c-1.9-0.5,1-1.3-0.8-2.5c0.6-2.1,2.2,1.5,4.1,0.8c-0.3-1.1-1.5-1.3-1.7-2.5c3,1.3,4.9,1.6,5,0c2.2,1.8,2.1,0.9,5,1.7
	c-0.3-1.1-1.5-1.3-1.6-2.5c1.4,0.6,4.4,2.9,2.5,0c1.7,1.5,3.1,2.1,4.1,2.5c1.5-0.2-0.8-3.5-1.7-4.1c3,1.7,2.5-1,5.8,2.5
	c1.4-1.5-2.6-4.6-3.3-6.6c2.1,2,5,3.3,6.6,5.8c0.3-1.8,1-1.7,2.5,0.8c1.9-0.7-1.4-2.9-1.6-4.1c1.5,0.7,2.6,1.9,3.3,3.3
	c1.9-0.6-1.8-2.5-1.6-4.1c2.7,0.1,3.6,4.4,5.8,2.5c-0.5-1.7-1.7-2.7-2.5-4.1c1.5,0.7,2.6,1.9,3.3,3.3c0.6-3.1,0.8,0.4,4.1,0.8
	c-1.1-2.5-2.8-4.4-4.1-6.6c2.5,1.6,5.2,3.1,6.6,5.8c0.7-1.6-3.2-5.6-5-7.5c2.5-0.3,5.5,6,8.3,8.3c0.4-1.5-0.6-4.1-2.5-6.6
	c2.4,1.2,3.2,4,5,5.8c2-0.2-0.9-2.2-0.8-3.3c2.6,1.4,2.9,1.9,3.3,4.1c0.9-0.2,0.5-0.8,0-0.8c0.8-2.3,2.2,1.2,3.3-0.8
	c-1-2.5-2.8-4.4-4.1-6.6c2.9,2.4,4.6,5.8,8.3,7.5c0.8-2-4.2-5.1-4.9-8.3c2.6-0.1,2.8,2.2,5.8,1.7c-5.2-7.5-18.5-6.9-26.4-11.6
	c0.3-1.5,4.2,0.1,5,0.8c0.8-1.7-4.6-4.2-7.4-5c2.5-2.4,6.8,3.8,9.1,1.7c-0.8-2.5-5.9-0.7-5.8-4.1c-15.9-5.3-21.2,8.2-32.2,7.5
	c0.1-1.8,3.5-0.4,5-0.8c-0.2-1-4.5-1.9,2.5-1.7c-0.7-1.2-2.7-1.2-4.1-1.7c1.8-1.2,5.3-1.6,0-1.7c0.4-1.9,4.1-0.3,5.8-0.8
	c2.7-1-2.2-0.9-3.3-0.8c0.9-2.1,4.4-1.6,7.4-1.7c2.5-1.3-3.6-0.7-5-0.8c1.5-1.8,4.9-1.7,8.3-1.7c2.5-1.3-3.6-0.7-5-0.8
	c1.1-3.2,6.5,0.4,10.7-0.8c-5.4-2.8,2.8-2.3,6.6-1.7c-1.2-1.2-3.6-1.3-5.8-1.7c-0.1-1.8,2.9-0.4,4.1-0.8c2.5-1.3-3.6-0.7-5-0.8
	c0.7-1.2,2.1-1.8,4.1-1.7c-2.5-2.1-6.5,1.1-9.9,0.8c1.2-1.3,3.2-1.7,5.8-1.7c-5.8-2.5-10.7,3.1-14.9,5c-2.4-0.5,1.3-1.3,0.8-2.5
	c-1.7-0.7-6.4,9.4-12.4,9.9c0-0.8,1-0.6,1.6-0.8c-0.2-1.9-3.6-0.5-4.1,0c0.2-5.1,2.2-8.3,6.6-9.1c-3.3-3.4,1.8-0.9-1.7-4.1
	c1.1,0.3,3.1-4.5,0.8-6.6c-1.6,1.7-2.7,4-3.3,6.6c-2.1-1.1,1.2-3.7,0.8-5.8c-2.1,1.2-2.8,3.8-3.3,6.6c-0.8-0.6-1.3-1.5-1.7-2.5
	c-0.4,1.3,0.3,15-2.5,19c-1.8-0.9,1.3-4.1-1.6-5c2.6-0.3-3.2-10.2-1.7-17.4c-1.1-1.6-1,5-1.7,6.6c-1.5-3.8-3.6-16.8-3.3-4.1
	c-1.9-0.3-1.9-2.6-3.3-3.3c-1.6-1.6,1.9,4.3,2.5,5.8c-2.1-0.1-1.2-3.2-3.3-3.3c0.2-0.5,0.8,4.7-2.5-0.8c-2.2,2.3,3.3,5.8,5,9.1
	c-3.4-2.7-6.4-5.7-9.1-9.1c-2,0.2,1,2.2,0.8,3.3c-5.7-5.4-1.1,1.4-8.3-4.1c-3.5,0.8,5.3,2,4.9,5c-14.8-3.5,11.7,4.4,11.6,9.1
	c-4.1-0.6-9.4-7.1-17.4-6.6c-1.8,0.8,3.4,1.5,5,1.7c-1.8,2.5-4.7-0.8-7.4,0c0.8,2.3,4.2,1.9,6.6,2.5c-5.1,2.7,8.1,4.7,9.9,8.3
	c-4-0.4-11.2-4.8-15.7-7.5c-1.7,0.3,0.9,2.9,2.5,2.5c-0.5,1.1-1.8,1.5-3.3,1.7c0.2,1.1,3.4,1.5,0,1.7c1.3,1.6,1.7,2.7,0,3.3
	c0.8,1.8,3.8-1.1,6.6,0c3.3,2.1,0.7,7,0,9.9c-5.5-2-12.3-2.6-19.8-2.5c-2.7,1,2.2,0.9,3.3,0.8c-5,3.3-13,3.5-16.5,8.3
	c1,1.2,4.3-2.3,5.8-3.3c1.3,1.9-4.6,3.7-5.8,5.8c-2.2,1.5,1.7-0.4,2.5-0.8c1.6,0.9-2.2,3.3-3.3,4.1c0.8,1.6,3.3-2.1,4.9-2.5
	c-3.1,4.2,1.4,1.5-0.8,6.6c2.1-4.8,7.1-8.9,12.4-13.2c-0.9,2.4-2.6,4-4.1,5.8c2,0.6,5.5-4.4,7.4-6.6c2.1,1.6-2.8,3.2-2.5,5.8
	c2-1.3,3.7-3,5-5c2,0.1,0.2,2.7-0.8,2.5c1,2,2.4-2.5,4.1-2.5c0.2,1.6-1,3.5,2.5,0.8c-0.8,1.1-0.8,3.1-2.5,3.3c1,2,2.4-2.5,4.1-2.5
	c-1.9,4.5,1.5,0.9,2.5-0.8c-0.2,2.9-0.3,6,1.7,0c1.9,0.7-0.7,3.6-0.8,5c-17.7-1.7-26,6-30.6,17.4c2.3,1.7,3.7-4.6,5-6.6
	c1.7,2.2-2.4,5.9-2.5,9.1c1.1-0.9,4.7-3.8,2.5-0.8c2.4,0.7,3.9-6.6,5.8-9.1c0.9,0.2,0.6,1.6,1.7,1.6c-1.5,0.7-1.9,0.1-0.8,3.3
	c-2.5-3.1-0.9,3.8-2.5,2.5c-0.9,0.2-0.5,0.8,0,0.8v1.7c2-3.3,3.4-5.5,5.8-6.6c-0.4-1.3-0.9-0.1-0.8,0.8c-2.4-1.2,1.5-2.9,0.8-5
	c1.6,0.6,0.6,2.5,2.5,0.8c-1.5,1.3-1.1,4.4-2.5,5.8c4.1,3.1,5.8-8.2,9.1-2.5c2.5-0.6-0.8-1.8,0-3.3c1.3,1.2,2.1,2.8,2.5,5
	c-9.9,8-19.1,16.7-23.1,30.6c1.2-5.2,6.3-6.4,7.4-11.6c1.2,0.9,2,0.9,2.5-0.8c-0.4-1.3-0.9-0.1-0.8,0.8c-1.1-2.4,4.1-3.7,5-8.3
	c2.5,0.5-0.8,1.8,0,3.3c1-0.9,1.7-0.7,1.7,0.8c1.3-1.2,2.1-2.9,2.5-5c2.5,0.5-0.8,1.8,0,3.3c-9.1,7.2-12.5,20-16.5,32.3
	c0.8-0.6,1.3-1.5,1.7-2.5c2.6,0.9-1.8,4.8,1.6,2.5c-0.2,3.7-1.7,7.5,0,10.8c1.1-0.2,1.5-3.4,1.7,0c2.4-0.7-0.5-2.7,0-4.1
	c3.2,3.9,2-3.9,0.8-6.6c1.3,1.4,2.5,3,2.5,5.8c3.1-2.8-0.4-6.1-0.8-9.9c1.7,2.7,3.1,4.4,4.1,5.8c1.7-1.6,1.7-3.6,0.8-5.8
	c0.8,0.6,1.3,1.5,1.7,2.5c1.6-1.1-1.7-4.3-1.7-6.6c1,1.7,3.1,2.4,3.3,5c2.3-2.6-2.4-5.3-1.6-9.1c1.5,0.7,1.5,2.9,2.5,4.1
	c1.7,1.9-0.9-3.4,0-5.8c1.3,1.2,2.1,2.9,2.5,5c2.3-1.1,0.4-4.7,2.5-7.4c2.4,0.7-1.1,2.1,0,4.1c-0.3,2.2,2.3-5.6,2.5-8.3
	c1.5,0.8,1.5,2.9,2.5,4.1c1,0.7-0.5-6.1,0.8-1.7c1.2-1.8-1.1-7.1-1.7-9.9c2.4,0.6,2.1,4,3.3,5.8c-0.3-4.6,3.4-0.3,1.6-4.1
	c0-1.9,2.3,0.3,1.7,1.7c2.5-0.5-0.8-1.8,0-3.3c0.8,0.6,1.3,1.5,1.7,2.5c1.8,2-0.4-1.7,0-3.3c2.5,2.8,0.9,0.5,0.8-2.5
	c0.8,0.6,1.2,1.5,1.6,2.5c2.7-4.2,1-3.7,3.3-8.3c1.4,0.7,2.3,3,0,3.3c1.3,1.8,3-3.1,5-3.3c-2.4,3.9-6,6.7-8.3,10.8
	c-1.1,1.9,3.3-3.4,5-4.1c-3.8,12.4-11.1,21.5-15.7,33.1c0.7-0.2,0.8-0.8,1.7-0.8c-2.4,4.4-2.3,6.9-3.3,13.2c1.2-2.4,4-3.2,3.3-7.4
	c2.6,1.2-0.4,2.6,0.8,5c-2.5-4.8,7.4-13,5.8-19.9c1.8-0.1,0.4,2.9,0.8,4.1c2.4-0.1,1.5-3.4,1.6-5.8c1.8,3.6,2.6-1.8,2.5-5
	c1.1,0.6,1.5,1.8,1.7,3.3c1.8-0.1,0.3-3.5,0.8-5c1,3.2,4,1,8.3,0.8c2.8,8.7,5,24.3,7.4,33.9c4.4,17.3,15.1,33.4,21.5,50.5
	c4.9,13,13.3,20.9,14.9,33.9c-2.4,4.2-9.3,3.9-10.7,9.1c-12-1.5-14.9,6-24.8,6.6c1.4,2.4,8.5-0.8,9.9,1.7H193.4z"/>
</svg>
