<?xml version="1.0" encoding="utf-8"?>
<!-- Generator: Adobe Illustrator 19.0.0, SVG Export Plug-In . SVG Version: 6.00 Build 0)  -->
<svg version="1.1" id="Layer_1" xmlns="http://www.w3.org/2000/svg" xmlns:xlink="http://www.w3.org/1999/xlink" x="0px" y="0px"
	 viewBox="0 0 250 250" style="enable-background:new 0 0 250 250;" xml:space="preserve">
<style type="text/css">
	.st0{fill:#FFFFFF;}
	.st1{fill:#010101;}
</style>
<g id="XMLID_13_">
	<polygon id="XMLID_11_" points="123.6,37 124.7,37 126,37.2 127.1,37.2 128.4,37.2 129.5,37.2 130.9,37.4 132,37.4 133.3,37.6 
		133.7,37.6 134.4,37.6 134.8,37.6 135.5,37.8 136.2,37.8 136.6,37.8 137.3,38 137.9,38 138.4,38.3 139,38.3 139.5,38.5 140.1,38.5 
		140.8,38.5 141.2,38.7 141.9,38.7 142.6,38.9 143,38.9 143.7,39.1 144.1,39.3 144.8,39.3 145.2,39.6 145.9,39.6 146.5,39.8 147,40 
		147.7,40 148.1,40.2 148.8,40.4 149.2,40.4 149.9,40.6 150.3,40.9 151,40.9 151.4,41.1 151.9,41.3 152.1,41.3 152.5,41.3 
		152.7,41.5 153,41.5 153.4,41.7 153.6,41.7 154.1,41.9 154.3,41.9 154.7,42.1 154.9,42.1 155.2,42.4 155.6,42.4 155.8,42.6 
		156.3,42.6 156.5,42.8 156.7,42.8 157.2,43 157.4,43 157.8,43.2 158,43.2 158.3,43.4 158.7,43.4 158.9,43.7 159.4,43.9 159.6,43.9 
		159.8,44.1 160.2,44.1 160.5,44.3 160.7,44.3 161.1,44.5 161.4,44.7 161.8,44.7 162,45 162.2,45 162.7,45.2 162.9,45.4 163.1,45.4 
		163.6,45.6 163.8,45.6 164,45.8 164.4,46 164.7,46 164.9,46.3 165.3,46.5 165.6,46.5 165.8,46.7 166,46.9 166.4,46.9 166.7,47.1 
		166.9,47.1 167.3,47.3 167.5,47.6 167.8,47.6 168.2,47.8 168.4,48 168.6,48.2 168.9,48.2 169.3,48.4 169.5,48.6 169.8,48.6 
		170,48.9 170.4,49.1 170.6,49.1 170.9,49.3 171.1,49.5 171.5,49.7 171.7,49.7 172,49.9 172.2,50.2 172.6,50.2 172.8,50.4 
		173.1,50.6 173.3,50.8 173.5,50.8 173.9,51 174.2,51.2 174.4,51.4 174.6,51.4 174.8,51.7 175.3,51.9 175.5,52.1 175.7,52.3 
		175.9,52.3 176.2,52.5 176.6,52.7 176.8,53 177,53 177.3,53.2 177.5,53.4 177.7,53.6 178.1,53.8 178.4,53.8 178.6,54 178.8,54.3 
		179,54.5 179.3,54.7 179.5,54.7 179.9,54.9 180.1,55.1 180.4,55.3 180.6,55.6 180.8,55.8 181,55.8 181.2,56 181.5,56.2 181.7,56.4 
		182.1,56.6 182.3,56.9 182.6,56.9 182.8,57.1 183,57.3 183.2,57.5 183.5,57.7 183.7,57.9 183.9,58.2 184.1,58.2 184.3,58.4 
		184.6,58.6 184.8,58.8 185,59 185.2,59.2 185.4,59.4 185.7,59.4 186.1,59.7 186.3,59.9 186.5,60.1 186.8,60.3 187.2,61 187.9,61.4 
		188.5,62 189.2,62.5 189.6,63.1 190.3,63.6 190.7,64.2 191.4,64.9 191.9,65.3 192.1,65.5 192.5,65.9 193,66.4 193.2,66.8 
		193.6,67.2 194.1,67.4 194.3,67.9 194.7,68.3 195.2,68.7 195.4,69.2 195.8,69.6 196,70 196.5,70.3 196.7,70.7 197.2,71.1 
		197.4,71.6 197.8,72 198,72.4 198.5,72.9 198.7,73.3 199.1,73.7 199.4,74.2 199.8,74.4 200,74.8 200.5,75.2 200.7,75.7 200.9,76.1 
		201.4,76.5 201.6,77 201.8,77.4 202.2,77.8 202.5,78.3 202.7,78.5 202.9,78.9 203.1,79.1 203.3,79.6 203.6,79.8 203.8,80.2 
		204,80.4 204.2,80.9 204.4,81.3 204.7,81.5 204.7,81.9 204.9,82.2 205.1,82.6 205.3,82.8 205.6,83.2 205.8,83.4 206,83.9 
		206.2,84.3 206.4,84.5 206.7,85 206.7,85.2 206.9,85.6 207.1,86 207.3,86.3 207.5,86.7 207.8,86.9 207.8,87.3 208,87.6 208.2,88 
		208.4,88.4 208.6,88.6 208.6,89.1 208.9,89.3 209.1,89.7 209.3,90.2 209.5,90.4 209.5,90.8 209.7,91.2 210,91.5 210,91.9 
		210.2,92.1 210.4,92.5 210.6,93 210.6,93.2 210.9,93.6 211.1,94 211.1,94.3 211.3,94.7 211.5,94.9 211.5,95.3 211.7,95.8 212,96 
		212,96.4 212.2,96.9 212.2,97.1 212.4,97.5 212.6,97.9 212.6,98.2 212.8,98.6 212.8,99 213.1,99.2 213.1,99.7 213.3,100.1 
		213.5,100.5 213.7,101.2 214,101.8 214,102.5 214.2,102.9 214.4,103.6 214.6,104.2 214.6,104.9 214.8,105.5 215.1,105.9 
		215.1,106.6 215.3,107.2 215.5,107.9 215.5,108.5 215.7,109.2 215.7,109.6 215.9,110.3 215.9,110.9 216.2,111.6 216.2,112.2 
		216.4,112.9 216.4,113.3 216.4,113.9 216.6,114.6 216.6,115.2 216.8,115.9 216.8,116.5 216.8,117 216.8,117.6 217,118.3 217,118.9 
		217,119.6 217.3,120.4 217.3,121.3 217.3,122.2 217.3,123 217.5,123.9 217.5,124.8 217.5,125.6 217.5,126.7 217.5,127.3 217.5,128 
		217.5,128.6 217.5,129.3 217.5,130.2 217.3,130.8 217.3,131.5 217.3,132.1 217.3,133 217,133.6 217,134.3 217,134.9 216.8,135.6 
		216.8,136.4 216.8,137.1 216.6,137.7 216.6,138.8 216.4,139.7 216.2,140.5 216.2,141.6 215.9,142.5 215.7,143.6 215.5,144.4 
		215.3,145.5 215.1,146.4 214.8,147.5 214.6,148.3 214.4,149.4 214.2,150.3 214,151.1 213.5,152.2 213.3,153.1 213.1,153.9 
		212.6,154.8 212.4,155.7 212,156.5 211.7,157.4 211.3,158.3 210.9,159.1 210.6,160 210.4,160.4 210.2,160.9 210,161.3 209.7,161.7 
		209.5,162.2 209.3,162.6 209.1,163 208.9,163.7 208.6,164.1 208.6,164.5 208.4,165 208.2,165.4 207.8,165.8 207.5,166.3 
		207.3,166.7 207.1,167.1 206.9,167.6 206.7,168 206.4,168.4 206.2,168.9 206,169.3 205.8,169.7 205.6,170.2 205.1,170.6 204.9,171 
		204.7,171.5 204.4,171.9 204.2,172.3 203.8,172.8 203.6,173.2 203.3,173.6 202.9,174.1 202.7,174.5 202.5,174.7 202.2,174.9 
		202.2,175.3 202,175.6 201.8,176 201.6,176.2 201.4,176.6 201.1,176.9 200.9,177.1 200.7,177.5 200.5,177.7 200.2,178.2 
		199.8,178.4 199.6,178.6 199.4,179 199.1,179.2 198.9,179.7 198.7,179.9 198.5,180.1 198.3,180.5 198,180.8 197.8,181.2 
		197.6,181.4 197.4,181.6 197.2,182.1 196.9,182.3 196.7,182.7 196.3,182.9 196,183.1 195.8,183.6 195.6,183.8 195.4,184 
		195.2,184.4 194.9,184.6 194.5,185.1 194.3,185.3 194.1,185.5 193.8,185.9 193.6,186.2 193.2,186.4 193,186.8 192.7,187 
		192.5,187.2 192.3,187.7 191.9,187.9 191.6,188.1 191.4,188.3 191.2,188.8 190.7,189 190.5,189.2 190.3,189.6 189.9,189.8 
		189.6,190.1 189.4,190.3 189,190.7 188.8,190.9 188.5,191.1 188.1,191.3 187.9,191.8 187.7,192 187.2,192.2 187,192.4 186.8,192.9 
		186.3,193.1 186.1,193.3 185.7,193.5 185.4,193.7 185.2,194.2 184.8,194.4 184.6,194.6 184.1,194.8 183.9,195 183.5,195.2 
		183.2,195.7 183,195.9 182.6,196.1 182.3,196.3 181.9,196.5 181.7,196.8 181.2,197.2 181,197.4 180.6,197.6 180.4,197.8 
		179.9,198.1 179.7,198.3 179.3,198.5 179,198.7 178.6,198.9 178.1,199.3 177.9,199.6 177.5,199.8 177.3,200 176.8,200.2 
		176.6,200.4 176.2,200.6 175.7,200.9 175.5,201.1 175.1,201.3 174.8,201.5 174.4,201.7 173.9,201.9 173.7,202.2 173.3,202.4 
		172.8,202.6 172.6,202.8 172.2,203 171.7,203.2 171.5,203.5 171.1,203.7 170.6,203.9 170.4,204.1 170,204.3 169.5,204.5 
		169.3,204.8 168.9,205 168.4,205.2 168,205.4 167.8,205.6 167.3,205.8 166.9,205.8 166.4,206.1 166.2,206.3 165.8,206.5 
		165.3,206.7 164.9,206.9 164.7,207.1 164.2,207.1 164,207.4 163.6,207.6 163.3,207.6 163.1,207.8 162.7,207.8 162.5,208 
		162.2,208.2 161.8,208.2 161.6,208.4 161.4,208.4 161.1,208.6 160.7,208.6 160.5,208.9 160.2,209.1 159.8,209.1 159.6,209.3 
		159.4,209.3 158.9,209.5 158.7,209.5 158.5,209.7 158,209.7 157.8,209.9 157.4,209.9 157.2,210.2 156.9,210.2 156.5,210.4 
		156.3,210.4 156,210.6 155.6,210.6 155.4,210.8 155.2,210.8 154.7,211 154.5,211 154.1,211.2 153.8,211.2 153.6,211.5 153.2,211.5 
		153,211.5 152.5,211.7 152.3,211.7 152.1,211.9 151.6,211.9 151.4,212.1 151,212.1 150.7,212.1 150.3,212.3 150.1,212.3 
		149.9,212.5 149.4,212.5 149.2,212.5 148.8,212.8 148.5,212.8 148.1,213 147.9,213 147.7,213 147.2,213.2 147,213.2 146.5,213.2 
		146.3,213.4 145.9,213.4 145.7,213.6 145.2,213.6 145,213.6 144.8,213.8 144.3,213.8 144.1,213.8 143.7,214.1 143.5,214.1 
		143,214.1 142.8,214.1 142.3,214.3 142.1,214.3 141.7,214.3 141.5,214.5 141,214.5 140.8,214.5 140.4,214.5 140.1,214.7 
		139.9,214.7 139.5,214.7 139.3,214.7 138.8,214.9 138.6,214.9 138.1,214.9 137.9,214.9 137.5,215.1 137.3,215.1 136.8,215.1 
		136.6,215.1 136.2,215.1 135.9,215.4 135.5,215.4 135.3,215.4 134.8,215.4 134.6,215.4 134.2,215.6 134,215.6 133.5,215.6 
		133.3,215.6 132.8,215.6 132.6,215.6 132.2,215.8 132,215.8 131.5,215.8 131.3,215.8 130.9,215.8 130.6,215.8 130.2,215.8 
		130,215.8 129.5,215.8 129.3,216 128.9,216 128.4,216 128.2,216 127.8,216 127.5,216 127.1,216 126.9,216 126.4,216 126.2,216 
		125.8,216 125.6,216 125.1,216 124.9,216 124.4,216 124.2,216 123.8,216 123.6,216 123.1,216 122.9,216 122.5,216 122.2,216 
		121.8,216 121.6,216 121.1,216 120.9,216 120.5,216 120.2,216 119.8,216 119.6,216 119.1,216 118.9,216 118.5,216 118.3,216 
		117.8,216 117.6,215.8 117.2,215.8 116.9,215.8 116.5,215.8 116.3,215.8 115.8,215.8 115.6,215.8 115.2,215.8 114.9,215.6 
		114.5,215.6 114.3,215.6 113.8,215.6 113.6,215.6 113.2,215.6 113,215.6 112.5,215.4 112.3,215.4 111.9,215.4 111.6,215.4 
		111.2,215.4 111,215.1 110.5,215.1 110.3,215.1 109.9,215.1 109.6,215.1 109.2,214.9 109,214.9 108.5,214.9 108.3,214.9 
		107.9,214.7 107.7,214.7 107.2,214.7 107,214.7 106.5,214.5 106.3,214.5 105.9,214.5 105.7,214.5 105.2,214.3 105,214.3 
		104.6,214.3 104.3,214.1 104.1,214.1 103.7,214.1 103.4,213.8 103,213.8 102.8,213.8 102.3,213.8 102.1,213.6 101.7,213.6 
		101.5,213.4 101,213.4 100.8,213.4 100.6,213.2 100.1,213.2 99.9,213.2 99.5,213 99.3,213 98.8,213 98.6,212.8 98.1,212.8 
		97.9,212.5 97.7,212.5 97.3,212.5 97,212.3 96.6,212.3 96.4,212.1 96.2,212.1 95.7,212.1 95.5,211.9 95.1,211.9 94.8,211.7 
		94.4,211.7 94.2,211.5 93.9,211.5 93.5,211.5 93.3,211.2 93.1,211.2 92.6,211 92.4,211 92,210.8 91.7,210.8 91.5,210.6 91.1,210.6 
		90.9,210.4 90.6,210.4 90.2,210.2 90,210.2 89.5,209.9 89.3,209.9 89.1,209.7 88.6,209.7 88.4,209.5 88.2,209.5 87.8,209.3 
		87.5,209.3 87.3,209.1 86.9,209.1 86.7,208.9 86.4,208.6 86,208.6 85.8,208.4 85.6,208.4 85.3,208.2 84.9,208.2 84.7,208 
		84.4,207.8 84,207.8 83.8,207.6 83.6,207.6 83.1,207.4 82.9,207.1 82.5,207.1 82.2,206.9 81.8,206.7 81.4,206.5 80.9,206.3 
		80.7,206.1 80.2,205.8 79.8,205.8 79.4,205.6 79.1,205.4 78.7,205.2 78.3,205 77.8,204.8 77.6,204.5 77.2,204.3 76.7,204.1 
		76.5,203.9 76,203.7 75.6,203.5 75.4,203.2 74.9,203 74.5,202.8 74.3,202.6 73.8,202.4 73.4,202.2 73.2,201.9 72.7,201.7 
		72.3,201.5 72.1,201.3 71.6,201.1 71.4,200.9 71,200.6 70.5,200.4 70.3,200.2 69.9,200 69.6,199.8 69.2,199.6 69,199.3 68.5,198.9 
		68.1,198.7 67.9,198.5 67.4,198.3 67.2,198.1 66.8,197.8 66.5,197.6 66.1,197.4 65.9,197.2 65.4,196.8 65.2,196.5 64.8,196.3 
		64.6,196.1 64.1,195.9 63.9,195.7 63.7,195.2 63.2,195 63,194.8 62.6,194.6 62.3,194.4 61.9,194.2 61.7,193.7 61.5,193.5 61,193.3 
		60.8,193.1 60.4,192.9 60.1,192.4 59.9,192.2 59.5,192 59.3,191.8 59,191.3 58.6,191.1 58.4,190.9 58.1,190.7 57.7,190.3 
		57.5,190.1 57.3,189.8 56.8,189.6 56.6,189.2 56.4,189 55.9,188.8 55.7,188.3 55.5,188.1 55.3,187.9 54.8,187.7 54.6,187.2 
		54.4,187 54.2,186.8 53.9,186.4 53.5,186.2 53.3,185.9 53.1,185.5 52.8,185.3 52.6,185.1 52.2,184.6 52,184.4 51.7,184 51.5,183.8 
		51.3,183.6 51.1,183.1 50.9,182.9 50.4,182.7 50.2,182.3 50,182.1 49.7,181.6 49.5,181.4 49.3,181.2 49.1,180.8 48.9,180.5 
		48.6,180.1 48.4,179.9 48.2,179.7 48,179.2 47.8,179 47.5,178.6 47.3,178.4 46.9,178.2 46.7,177.7 46.4,177.5 46.2,177.1 46,176.9 
		45.8,176.6 45.5,176.2 45.3,176 45.1,175.6 44.9,175.3 44.9,174.9 44.7,174.7 44.4,174.5 44.2,174.1 43.8,173.6 43.6,173.2 
		43.3,172.8 42.9,172.3 42.7,171.9 42.5,171.5 42.2,171 42,170.6 41.6,170.2 41.4,169.7 41.1,169.3 40.9,168.9 40.7,168.4 40.5,168 
		40.2,167.6 40,167.1 39.8,166.7 39.6,166.3 39.4,165.8 38.9,165.4 38.7,165 38.5,164.5 38.5,164.1 38.3,163.7 38,163 37.8,162.6 
		37.6,162.2 37.4,161.7 37.2,161.3 36.9,160.9 36.7,160.4 36.5,160 36.3,159.1 35.8,158.3 35.4,157.4 35.2,156.5 34.7,155.7 
		34.5,154.8 34.1,153.9 33.8,153.1 33.6,152.2 33.2,151.1 33,150.3 32.7,149.4 32.5,148.3 32.3,147.5 32.1,146.4 31.8,145.5 
		31.6,144.4 31.4,143.6 31.2,142.5 31,141.6 31,140.5 30.7,139.7 30.5,138.8 30.5,137.7 30.3,137.1 30.3,136.4 30.3,135.6 
		30.1,134.9 30.1,134.3 30.1,133.6 29.9,133 29.9,132.1 29.9,131.5 29.9,130.8 29.6,130.2 29.6,129.3 29.6,128.6 29.6,128 
		29.6,127.3 29.6,126.7 29.6,125.6 29.6,124.8 29.6,123.9 29.9,123 29.9,122.2 29.9,121.3 29.9,120.4 30.1,119.6 30.1,118.9 
		30.1,118.3 30.3,117.6 30.3,117 30.3,116.5 30.3,115.9 30.5,115.2 30.5,114.6 30.7,113.9 30.7,113.3 30.7,112.9 31,112.2 31,111.6 
		31.2,110.9 31.2,110.3 31.4,109.6 31.4,109.2 31.6,108.5 31.6,107.9 31.8,107.2 32.1,106.6 32.1,105.9 32.3,105.5 32.5,104.9 
		32.5,104.2 32.7,103.6 33,102.9 33.2,102.5 33.2,101.8 33.4,101.2 33.6,100.5 33.8,100.1 34.1,99.7 34.1,99.2 34.3,99 34.3,98.6 
		34.5,98.2 34.5,97.9 34.7,97.5 34.9,97.1 34.9,96.9 35.2,96.4 35.2,96 35.4,95.8 35.6,95.3 35.6,94.9 35.8,94.7 36,94.3 36,94 
		36.3,93.6 36.5,93.2 36.5,93 36.7,92.5 36.9,92.1 37.2,91.9 37.2,91.5 37.4,91.2 37.6,90.8 37.6,90.4 37.8,90.2 38,89.7 38.3,89.3 
		38.5,89.1 38.5,88.6 38.7,88.4 38.9,88 39.1,87.6 39.4,87.3 39.4,86.9 39.6,86.7 39.8,86.3 40,86 40.2,85.6 40.5,85.2 40.5,85 
		40.7,84.5 40.9,84.3 41.1,83.9 41.4,83.4 41.6,83.2 41.8,82.8 42,82.6 42.2,82.2 42.5,81.9 42.5,81.5 42.7,81.3 42.9,80.9 
		43.1,80.4 43.3,80.2 43.6,79.8 43.8,79.6 44,79.1 44.2,78.9 44.4,78.5 44.7,78.3 44.9,77.8 45.3,77.4 45.5,77 45.8,76.5 46.2,76.1 
		46.4,75.7 46.7,75.2 47.1,74.8 47.3,74.4 47.8,74.2 48,73.7 48.4,73.3 48.6,72.9 49.1,72.4 49.3,72 49.7,71.6 50,71.1 50.4,70.7 
		50.6,70.3 51.1,70 51.3,69.6 51.7,69.2 52,68.7 52.4,68.3 52.8,67.9 53.1,67.4 53.5,67.2 53.9,66.8 54.2,66.4 54.6,65.9 55.1,65.5 
		55.3,65.3 55.7,64.9 56.4,64.2 56.8,63.6 57.5,63.1 57.9,62.5 58.6,62 59.3,61.4 59.9,61 60.4,60.3 60.6,60.1 60.8,59.9 61,59.7 
		61.5,59.4 61.7,59.4 61.9,59.2 62.1,59 62.3,58.8 62.6,58.6 62.8,58.4 63,58.2 63.2,58.2 63.5,57.9 63.7,57.7 63.9,57.5 64.1,57.3 
		64.3,57.1 64.6,56.9 64.8,56.9 65,56.6 65.4,56.4 65.7,56.2 65.9,56 66.1,55.8 66.3,55.8 66.5,55.6 66.8,55.3 67,55.1 67.2,54.9 
		67.6,54.7 67.9,54.7 68.1,54.5 68.3,54.3 68.5,54 68.8,53.8 69,53.8 69.4,53.6 69.6,53.4 69.9,53.2 70.1,53 70.3,53 70.5,52.7 
		71,52.5 71.2,52.3 71.4,52.3 71.6,52.1 71.8,51.9 72.3,51.7 72.5,51.4 72.7,51.4 73,51.2 73.2,51 73.6,50.8 73.8,50.8 74.1,50.6 
		74.3,50.4 74.5,50.2 74.9,50.2 75.2,49.9 75.4,49.7 75.6,49.7 76,49.5 76.3,49.3 76.5,49.1 76.7,49.1 77.2,48.9 77.4,48.6 
		77.6,48.6 77.8,48.4 78.3,48.2 78.5,48.2 78.7,48 78.9,47.8 79.4,47.6 79.6,47.6 79.8,47.3 80.2,47.1 80.5,47.1 80.7,46.9 
		81.1,46.9 81.4,46.7 81.6,46.5 81.8,46.5 82.2,46.3 82.5,46 82.7,46 83.1,45.8 83.3,45.6 83.6,45.6 84,45.4 84.2,45.4 84.4,45.2 
		84.9,45 85.1,45 85.3,44.7 85.8,44.7 86,44.5 86.4,44.3 86.7,44.3 86.9,44.1 87.3,44.1 87.5,43.9 87.8,43.9 88.2,43.7 88.4,43.4 
		88.9,43.4 89.1,43.2 89.3,43.2 89.7,43 90,43 90.4,42.8 90.6,42.8 90.9,42.6 91.3,42.6 91.5,42.4 92,42.4 92.2,42.1 92.4,42.1 
		92.8,41.9 93.1,41.9 93.5,41.7 93.7,41.7 94.2,41.5 94.4,41.5 94.6,41.3 95.1,41.3 95.3,41.3 95.7,41.1 96.2,40.9 96.8,40.9 
		97.3,40.6 97.9,40.4 98.4,40.4 99,40.2 99.5,40 100.1,40 100.6,39.8 101.2,39.6 101.9,39.6 102.3,39.3 103,39.3 103.4,39.1 
		104.1,38.9 104.6,38.9 105.2,38.7 105.9,38.7 106.3,38.5 107,38.5 107.7,38.5 108.1,38.3 108.8,38.3 109.2,38 109.9,38 110.5,37.8 
		111,37.8 111.6,37.8 112.3,37.6 112.7,37.6 113.4,37.6 113.8,37.6 115.2,37.4 116.3,37.4 117.6,37.2 118.7,37.2 120,37.2 
		121.1,37.2 122.2,37 	"/>
	<polygon id="XMLID_10_" class="st0" points="124,54 124.7,54 125.3,54 126.2,54.3 126.9,54.3 127.5,54.3 128.2,54.3 129.1,54.3 
		129.7,54.3 130.4,54.3 131.3,54.5 132,54.5 132.6,54.5 133.5,54.7 134.2,54.7 134.8,54.7 135.5,54.9 136.4,54.9 137,55.1 
		137.7,55.3 138.4,55.3 139,55.6 139.7,55.6 140.1,55.8 140.8,55.8 141.5,56 141.9,56 142.6,56.2 143,56.4 144.1,56.6 145.2,56.9 
		146.1,57.1 147.2,57.5 148.1,57.7 149.2,58.2 150.1,58.4 151.2,58.8 152.1,59 153,59.4 154.1,59.9 154.9,60.3 155.8,60.7 
		156.7,61.2 157.6,61.4 158.5,61.8 159.1,62.3 159.8,62.5 160.5,62.9 161.1,63.1 161.8,63.6 162.5,63.8 163.1,64.2 163.8,64.4 
		164.4,64.9 165.1,65.3 165.8,65.7 166.2,66.2 166.9,66.6 167.5,67 168.2,67.4 168.9,67.9 169.3,68.1 169.8,68.5 170.4,69 
		170.9,69.2 171.3,69.6 171.7,69.8 172.4,70.3 172.8,70.7 173.3,71.1 173.9,71.6 174.6,72 175.1,72.6 175.7,73.1 176.4,73.7 
		177,74.2 177.5,74.8 178.1,75.4 178.8,75.9 179.3,76.5 179.9,77 180.4,77.6 181,78.3 181.5,78.7 182.1,79.3 182.6,80 183.2,80.6 
		183.7,81.1 184.1,81.7 184.8,82.4 185.2,82.8 185.7,83.4 186.1,83.9 186.5,84.5 186.8,85 187.2,85.6 187.7,86 188.1,86.7 
		188.5,87.3 189,88 189.4,88.6 189.9,89.3 190.3,89.9 190.7,90.6 191,91.2 191.4,92.1 191.9,92.7 192.1,93.4 192.5,94 193,94.7 
		193.2,95.3 193.6,96.2 193.8,96.9 194.1,97.3 194.3,97.7 194.5,97.9 194.7,98.4 194.9,98.8 195.2,99.2 195.2,99.7 195.4,100.1 
		195.6,100.5 195.8,101 196,101.4 196,101.8 196.3,102.3 196.5,102.7 196.7,103.1 196.7,103.6 196.9,104 197.2,104.4 197.2,104.9 
		197.4,105.3 197.6,105.7 197.6,106.2 197.8,106.6 197.8,107 198,107.5 198.3,107.9 198.3,108.3 198.5,108.7 198.5,109.2 
		198.7,109.6 198.7,110 198.9,110.5 198.9,110.9 199.1,111.3 199.1,111.8 199.4,112.2 199.4,112.6 199.4,113.1 199.6,113.5 
		199.6,114.2 199.6,114.6 199.8,115 199.8,115.5 199.8,115.9 200,116.3 200,116.7 200,117.2 200.2,117.6 200.2,118 200.2,118.5 
		200.2,118.9 200.5,119.3 200.5,119.8 200.5,120.2 200.5,120.6 200.5,121.1 200.5,121.5 200.7,121.9 200.7,122.4 200.7,123 
		200.7,123.5 200.7,123.9 200.7,124.3 200.7,124.8 200.7,125.4 200.7,126.3 200.7,126.9 200.7,127.6 200.7,128.4 200.7,129.1 
		200.7,129.9 200.7,130.6 200.7,131.2 200.5,132.1 200.5,132.8 200.5,133.6 200.2,134.3 200.2,134.9 200.2,135.8 200,136.4 
		200,137.1 199.8,137.9 199.8,138.6 199.6,139.5 199.4,140.1 199.4,140.8 199.1,141.6 198.9,142.3 198.9,142.9 198.7,143.8 
		198.5,144.4 198.3,145.1 198,145.9 197.8,146.6 197.6,147.2 197.4,148.1 197.2,149 196.7,149.8 196.5,150.7 196,151.6 195.8,152.4 
		195.4,153.3 194.9,154.2 194.5,155 194.1,155.9 193.6,156.8 193.2,157.6 192.7,158.5 192.3,159.3 191.9,160.2 191.4,161.1 
		191,161.9 190.5,162.6 190.1,163.2 189.9,163.9 189.4,164.5 189,165.2 188.5,165.8 188.1,166.5 187.7,167.1 187.2,167.6 
		186.8,168.2 186.3,168.6 185.9,169.3 185.4,169.7 185,170.4 184.6,171 184.1,171.5 183.7,172.1 183,172.8 182.6,173.2 182.1,173.8 
		181.5,174.5 181,174.9 180.4,175.6 179.9,176.2 179.3,176.6 178.8,177.3 178.1,177.7 177.5,178.4 177,178.8 176.4,179.5 
		175.7,179.9 175.1,180.5 174.6,181 173.9,181.6 173.3,182.1 172.8,182.5 172.2,182.9 171.7,183.3 171.1,183.8 170.6,184 170,184.4 
		169.3,184.9 168.9,185.3 168.2,185.7 167.8,185.9 167.1,186.4 166.7,186.8 166,187.2 165.6,187.5 164.9,187.9 164.2,188.3 
		163.8,188.5 163.3,188.8 162.9,189 162.5,189.4 162,189.6 161.6,189.8 161.1,190.1 160.7,190.3 160.2,190.5 159.6,190.7 
		159.1,190.9 158.7,191.1 158.3,191.3 157.8,191.6 157.4,191.8 156.9,192 156.5,192.2 155.8,192.4 155.4,192.6 154.9,192.9 
		154.5,193.1 154.1,193.3 153.4,193.5 153,193.5 152.5,193.7 152.1,193.9 151.4,194.2 151,194.4 150.5,194.6 150.1,194.6 
		149.4,194.8 149,195 148.5,195.2 147.9,195.5 147.2,195.7 146.5,195.9 145.9,196.1 145.2,196.3 144.6,196.3 143.9,196.5 143,196.8 
		142.6,197 141.9,197 141.2,197.2 140.8,197.4 140.1,197.4 139.5,197.6 139,197.6 138.4,197.8 137.7,197.8 137,198.1 136.2,198.1 
		135.5,198.3 134.8,198.3 134.4,198.5 133.7,198.5 133.1,198.5 132.4,198.5 131.7,198.7 131.1,198.7 130.4,198.7 129.5,198.7 
		128.9,198.9 128,198.9 127.1,198.9 126.4,198.9 125.6,198.9 124.7,198.9 124,199.1 123.1,199.1 122.2,198.9 121.6,198.9 
		120.7,198.9 119.8,198.9 118.9,198.9 118.3,198.7 117.4,198.7 116.7,198.7 116,198.7 115.4,198.5 114.7,198.5 114.1,198.5 
		113.4,198.5 113,198.3 112.3,198.3 111.6,198.1 110.7,198.1 110.1,197.8 109.4,197.8 108.8,197.6 108.3,197.6 107.7,197.4 
		107,197.4 106.5,197.2 105.9,197 105.2,197 104.8,196.8 103.9,196.5 103.2,196.3 102.6,196.3 101.9,196.1 101.2,195.9 100.6,195.7 
		99.9,195.5 99.3,195.2 98.8,195 98.4,194.8 97.7,194.6 97.3,194.6 96.8,194.4 96.4,194.2 95.7,193.9 95.3,193.7 94.8,193.5 
		94.4,193.5 93.7,193.3 93.3,193.1 92.8,192.9 92.4,192.6 92,192.4 91.3,192.2 90.9,192 90.4,191.8 90,191.6 89.5,191.3 89.1,191.1 
		88.6,190.9 88.2,190.7 87.5,190.5 87.1,190.3 86.7,190.1 86.2,189.8 85.8,189.6 85.3,189.4 84.9,189 84.4,188.8 84,188.5 
		83.6,188.3 82.9,187.9 82.2,187.5 81.8,187.2 81.1,186.8 80.7,186.4 80,185.9 79.6,185.7 78.9,185.3 78.5,184.9 77.8,184.4 
		77.2,184 76.7,183.8 76,183.3 75.6,182.9 74.9,182.5 74.5,182.1 73.8,181.6 73.2,181 72.7,180.5 72.1,179.9 71.4,179.5 70.7,178.8 
		70.3,178.4 69.6,177.7 69,177.3 68.5,176.6 67.9,176.2 67.4,175.6 66.8,174.9 66.3,174.5 65.7,173.8 65.2,173.2 64.8,172.8 
		64.1,172.1 63.7,171.5 63.2,171 62.8,170.4 62.3,169.7 61.9,169.3 61.5,168.6 61,168.2 60.6,167.6 60.1,167.1 59.7,166.5 
		59.3,165.8 58.8,165.2 58.4,164.5 57.9,163.9 57.7,163.2 57.3,162.6 56.8,161.9 56.4,161.1 55.9,160.2 55.5,159.3 55.1,158.5 
		54.6,157.6 54.2,156.8 53.7,155.9 53.3,155 52.8,154.2 52.4,153.3 52,152.4 51.7,151.6 51.3,150.7 51.1,149.8 50.6,149 50.4,148.1 
		50.2,147.2 50,146.6 49.7,145.9 49.5,145.1 49.3,144.4 49.1,143.8 48.9,142.9 48.9,142.3 48.6,141.6 48.4,140.8 48.4,140.1 
		48.2,139.5 48,138.6 48,137.9 47.8,137.1 47.8,136.4 47.5,135.8 47.5,134.9 47.5,134.3 47.3,133.6 47.3,132.8 47.3,132.1 
		47.1,131.2 47.1,130.6 47.1,129.9 47.1,129.1 47.1,128.4 47.1,127.6 47.1,126.9 47.1,126.3 47.1,125.4 47.1,124.8 47.1,124.3 
		47.1,123.9 47.1,123.5 47.1,123 47.1,122.4 47.1,121.9 47.3,121.5 47.3,121.1 47.3,120.6 47.3,120.2 47.3,119.8 47.3,119.3 
		47.5,118.9 47.5,118.5 47.5,118 47.5,117.6 47.8,117.2 47.8,116.7 47.8,116.3 48,115.9 48,115.5 48,115 48.2,114.6 48.2,114.2 
		48.2,113.5 48.4,113.1 48.4,112.6 48.4,112.2 48.6,111.8 48.6,111.3 48.9,110.9 48.9,110.5 49.1,110 49.1,109.6 49.3,109.2 
		49.3,108.7 49.5,108.3 49.5,107.9 49.7,107.5 50,107 50,106.6 50.2,106.2 50.2,105.7 50.4,105.3 50.6,104.9 50.6,104.4 50.9,104 
		51.1,103.6 51.1,103.1 51.3,102.7 51.5,102.3 51.7,101.8 51.7,101.4 52,101 52.2,100.5 52.4,100.1 52.6,99.7 52.6,99.2 52.8,98.8 
		53.1,98.4 53.3,97.9 53.5,97.7 53.7,97.3 53.9,96.9 54.2,96.2 54.6,95.3 54.8,94.7 55.3,94 55.7,93.4 55.9,92.7 56.4,92.1 
		56.8,91.2 57,90.6 57.5,89.9 57.9,89.3 58.4,88.6 58.8,88 59.3,87.3 59.7,86.7 60.1,86 60.6,85.6 61,85 61.2,84.5 61.7,83.9 
		62.1,83.4 62.6,82.8 63,82.4 63.7,81.7 64.1,81.1 64.6,80.6 65.2,80 65.7,79.3 66.3,78.7 66.8,78.3 67.4,77.6 67.9,77 68.5,76.5 
		69,75.9 69.6,75.4 70.3,74.8 70.7,74.2 71.4,73.7 72.1,73.1 72.7,72.6 73.2,72 73.8,71.6 74.5,71.1 74.9,70.7 75.4,70.3 76,69.8 
		76.5,69.6 76.9,69.2 77.4,69 78,68.5 78.5,68.1 78.9,67.9 79.6,67.4 80.2,67 80.9,66.6 81.6,66.2 82,65.7 82.7,65.3 83.3,64.9 
		84,64.4 84.7,64.2 85.3,63.8 86,63.6 86.7,63.1 87.3,62.9 88,62.5 88.6,62.3 89.3,61.8 90.2,61.4 91.1,61.2 92,60.7 92.8,60.3 
		93.7,59.9 94.8,59.4 95.7,59 96.6,58.8 97.7,58.4 98.6,58.2 99.7,57.7 100.6,57.5 101.7,57.1 102.6,56.9 103.7,56.6 104.8,56.4 
		105.2,56.2 105.9,56 106.3,56 107,55.8 107.7,55.8 108.1,55.6 108.8,55.6 109.4,55.3 110.1,55.3 110.7,55.1 111.4,54.9 112.3,54.9 
		113,54.7 113.6,54.7 114.5,54.7 115.2,54.5 115.8,54.5 116.5,54.5 117.4,54.3 118,54.3 118.7,54.3 119.6,54.3 120.2,54.3 
		120.9,54.3 121.8,54 122.5,54 123.1,54 	"/>
	<polygon id="XMLID_7_" class="st1" points="172,152.9 165.6,117.2 163.3,105.3 163.1,104.9 163.1,104.2 163.1,103.6 162.9,102.9 
		162.9,102.5 162.7,101.8 162.7,101.2 162.5,100.7 162.2,99.7 162,98.8 161.8,97.7 161.6,96.6 161.1,95.8 160.9,94.9 160.5,93.8 
		160,93 159.8,92.5 159.6,91.9 159.4,91.5 158.9,91 158.7,90.4 158.3,89.9 158,89.5 157.6,89.1 156.7,88.4 156,87.8 154.9,87.3 
		153.8,87.1 153.4,87.1 153,86.9 152.7,86.9 152.7,87.1 152.7,87.8 152.7,90.4 152.7,91 152.5,91.7 152.5,92.3 152.7,93.2 153,93.8 
		153.2,94.5 153.4,95.1 153.8,95.8 156.3,101.6 156.5,102.3 156.7,102.9 156.9,103.3 157.2,104 157.2,104.4 157.4,104.9 
		157.4,105.3 157.4,105.7 158,109 159.4,116.7 163.8,142.7 165.1,150.3 165.3,151.3 165.6,152.4 165.6,153.5 165.3,154.6 165.1,155 
		164.9,155.5 164.7,155.9 164.4,156.3 164,156.8 163.6,157.2 162.9,157.6 162.2,157.8 161.6,158 160.9,158.3 160,158.3 159.4,158.3 
		158.9,158 158.5,157.8 158.3,157.8 157.8,157.6 157.6,157.6 157.6,157.4 157.4,157.4 157.2,157.4 156.9,157.2 156.9,157 
		156.5,156.8 156.3,156.5 156.3,156.3 156,156.1 155.6,155.7 155.4,155.2 155.2,154.8 154.9,154.4 154.9,153.1 154.9,152 
		154.9,150.7 154.9,149.4 154.9,148.5 154.9,147.7 154.9,146.6 155.2,145.7 155.2,144.6 155.2,143.8 155.2,142.7 155.2,141.8 
		155.2,141 155.2,139.9 155.2,139 155.4,137.9 155.4,137.1 155.4,136 155.4,135.1 155.4,134.3 155.4,133.2 155.4,132.3 155.4,131.5 
		155.4,130.6 155.2,129.9 155.2,129.3 154.9,128.6 154.9,128 154.7,127.6 154.5,127.1 154.5,126.7 154.3,126.3 154.3,126 
		154.1,125.6 153.8,125.4 153.6,125.2 153.6,125 153.4,124.8 153.2,124.5 153,124.3 152.5,123.9 152.1,123.5 151.4,123 150.7,122.6 
		150.1,122.4 149.4,121.9 148.8,121.7 148.1,121.5 147.4,121.5 146.5,121.3 145.9,121.3 145.2,121.3 144.3,121.3 144.1,121.3 
		144.1,120.9 144.1,119.8 144.1,119.3 144.3,119.3 145.2,119.3 149,119.3 149.9,119.3 150.3,119.3 150.3,118.7 150.3,117.2 
		150.3,110.9 150.3,85.6 150.3,78.7 150.3,77 150.3,76.7 150.3,76.3 149.6,76.3 147.9,76.3 140.6,76.3 112.1,76.3 92.2,76.3 
		87.1,76.3 85.8,76.3 85.3,76.3 85.3,76.7 85.3,77.6 85.3,81.3 85.3,96 85.3,113.7 85.3,118 85.3,119.1 85.3,119.6 85.6,119.6 
		86.7,119.6 90.2,119.6 91.1,119.6 91.3,119.6 91.3,120 91.3,121.3 91.3,126.3 91.3,146.6 91.3,164.8 91.3,169.3 91.3,170.4 
		91.3,170.6 91.7,170.8 92,170.6 93.9,170.6 101.7,170.6 132.6,170.6 141.2,170.6 143.2,170.6 143.7,170.8 143.9,170.6 143.9,170.2 
		143.9,168.6 143.9,162.4 143.9,137.3 143.9,129.7 143.9,128.2 143.9,127.8 143.9,127.6 144.3,127.6 144.8,127.6 145.4,127.6 
		146.1,127.6 147,127.6 147.7,127.8 148.1,128.4 148.5,128.9 148.8,129.5 148.8,130.2 149,130.8 149,131.2 149,131.9 149,132.3 
		148.8,135.3 148.5,149.2 148.5,150.3 148.5,151.3 148.5,152.4 148.5,153.5 148.5,154.4 148.8,155.2 149,156.1 149.2,156.8 
		149.4,157.6 149.9,158.5 150.3,159.1 150.7,160 151.2,160.2 151.4,160.6 151.9,161.1 152.3,161.5 152.5,161.7 153,162.2 
		153.4,162.4 153.8,162.8 154.7,163.2 155.4,163.7 156.3,163.9 157.2,164.3 158,164.3 158.7,164.5 159.4,164.5 160.2,164.5 
		160.9,164.5 161.6,164.5 162.2,164.5 162.9,164.3 163.3,164.1 164,163.9 164.7,163.7 165.1,163.5 165.8,163.2 166.2,163 
		166.7,162.6 167.3,162.4 167.8,161.9 168.2,161.5 168.6,161.1 168.9,160.6 169.1,160.4 169.3,160.4 169.5,160.2 169.8,160 
		170.2,159.1 170.6,158.3 171.1,157.4 171.3,156.5 171.7,155.5 171.7,154.6 172,153.7 	"/>
	<polygon id="XMLID_2_" class="st0" points="96.2,83.4 125.3,83.4 132.8,83.4 133.7,83.4 134.6,83.4 135.3,83.7 136.2,83.9 
		136.6,84.1 136.8,84.5 137,85 137.3,85.4 137.3,85.6 137.3,85.8 137.5,86.3 137.5,86.5 137.5,86.9 137.5,87.3 137.5,89.9 
		137.5,105.3 137.5,105.7 137.5,106.4 137.5,106.8 137.5,107.5 137.3,108.1 137.3,108.5 137,109.2 136.6,109.6 136.4,109.6 
		136.2,109.8 135.9,110 135.7,110.3 135.3,110.3 135.1,110.3 134.8,110.5 134.4,110.5 134,110.5 131.7,110.5 125.3,110.5 
		104.1,110.5 97.5,110.5 96.4,110.5 95.7,110.3 94.8,110 94.2,109.6 93.9,109.2 93.7,109 93.5,108.5 93.5,108.1 93.5,107.9 
		93.5,107.7 93.3,107.2 93.3,106.8 93.3,106.6 93.3,106.2 93.3,103.3 93.3,88.9 93.3,87.1 93.3,86.7 93.3,86.3 93.5,86 93.5,85.6 
		93.5,85.4 93.7,85 93.9,84.7 94.2,84.5 94.2,84.3 94.4,84.1 94.6,83.9 95.3,83.7 95.7,83.4 	"/>
</g>
</svg>
