<?xml version="1.0" encoding="UTF-8" standalone="no"?>
<!-- Created with Inkscape (http://www.inkscape.org/) -->

<svg
   xmlns:dc="http://purl.org/dc/elements/1.1/"
   xmlns:cc="http://creativecommons.org/ns#"
   xmlns:rdf="http://www.w3.org/1999/02/22-rdf-syntax-ns#"
   xmlns:svg="http://www.w3.org/2000/svg"
   xmlns="http://www.w3.org/2000/svg"
   xmlns:sodipodi="http://sodipodi.sourceforge.net/DTD/sodipodi-0.dtd"
   xmlns:inkscape="http://www.inkscape.org/namespaces/inkscape"
   width="250"
   height="250"
   viewBox="0 0 250 250"
   id="svg8451"
   version="1.1"
   inkscape:version="0.91 r13725"
   sodipodi:docname="pumpjack.svg">
  <defs
     id="defs8453" />
  <sodipodi:namedview
     id="base"
     pagecolor="#ffffff"
     bordercolor="#666666"
     borderopacity="1.0"
     inkscape:pageopacity="0.0"
     inkscape:pageshadow="2"
     inkscape:zoom="1.979899"
     inkscape:cx="62.603001"
     inkscape:cy="128.08844"
     inkscape:document-units="px"
     inkscape:current-layer="layer1"
     showgrid="false"
     units="px"
     inkscape:window-width="1440"
     inkscape:window-height="851"
     inkscape:window-x="0"
     inkscape:window-y="1"
     inkscape:window-maximized="1" />
  <metadata
     id="metadata8456">
    <rdf:RDF>
      <cc:Work
         rdf:about="">
        <dc:format>image/svg+xml</dc:format>
        <dc:type
           rdf:resource="http://purl.org/dc/dcmitype/StillImage" />
        <dc:title></dc:title>
      </cc:Work>
    </rdf:RDF>
  </metadata>
  <g
     inkscape:label="Layer 1"
     inkscape:groupmode="layer"
     id="layer1"
     transform="translate(0,-802.36216)">
    <path
       style="fill:none;fill-rule:evenodd;stroke:#000000;stroke-width:5;stroke-linecap:butt;stroke-linejoin:miter;stroke-miterlimit:4;stroke-dasharray:none;stroke-opacity:1"
       d="M 81.822357,1000.3393 100.51018,861.44333"
       id="path8459"
       inkscape:connector-curvature="0" />
    <path
       inkscape:connector-curvature="0"
       id="path9021"
       d="M 151.52288,1000.3393 132.83506,861.44333"
       style="fill:none;fill-rule:evenodd;stroke:#000000;stroke-width:5;stroke-linecap:butt;stroke-linejoin:miter;stroke-miterlimit:4;stroke-dasharray:none;stroke-opacity:1" />
    <path
       style="fill:none;fill-rule:evenodd;stroke:#000000;stroke-width:5;stroke-linecap:butt;stroke-linejoin:miter;stroke-opacity:1;stroke-miterlimit:4;stroke-dasharray:none"
       d="m 100.0051,862.45348 32.82996,0"
       id="path9023"
       inkscape:connector-curvature="0" />
    <path
       style="fill:none;fill-rule:evenodd;stroke:#000000;stroke-width:1px;stroke-linecap:butt;stroke-linejoin:miter;stroke-opacity:1"
       d="M 136.37059,892.75806 86.368043,971.04488"
       id="path9025"
       inkscape:connector-curvature="0" />
    <path
       inkscape:connector-curvature="0"
       id="path9027"
       d="m 96.469568,893.26314 50.002552,78.28682"
       style="fill:none;fill-rule:evenodd;stroke:#000000;stroke-width:1px;stroke-linecap:butt;stroke-linejoin:miter;stroke-opacity:1" />
    <ellipse
       style="fill:#000000;stroke-width:5;stroke-miterlimit:4;stroke-dasharray:none"
       id="path9029"
       cx="117.68277"
       cy="861.69586"
       rx="8.0812206"
       ry="8.3337584" />
    <path
       style="fill:none;fill-rule:evenodd;stroke:#000000;stroke-width:10;stroke-linecap:butt;stroke-linejoin:miter;stroke-opacity:1;stroke-miterlimit:4;stroke-dasharray:none"
       d="M 42.426407,877.60577 194.45437,843.76566"
       id="path9031"
       inkscape:connector-curvature="0" />
    <path
       style="fill:none;fill-rule:evenodd;stroke:#000000;stroke-width:5;stroke-linecap:butt;stroke-linejoin:miter;stroke-opacity:1;stroke-miterlimit:4;stroke-dasharray:none"
       d="m 46.972093,876.59562 0.505077,53.03301"
       id="path9033"
       inkscape:connector-curvature="0" />
    <path
       style="fill:none;fill-rule:evenodd;stroke:#000000;stroke-width:15;stroke-linecap:butt;stroke-linejoin:miter;stroke-opacity:1;stroke-miterlimit:4;stroke-dasharray:none"
       d="m 47.47717,923.06263 -0.505077,75.76145"
       id="path9035"
       inkscape:connector-curvature="0" />
    <path
       style="fill:none;fill-rule:evenodd;stroke:#000000;stroke-width:15;stroke-linecap:butt;stroke-linejoin:miter;stroke-miterlimit:4;stroke-dasharray:none;stroke-opacity:1"
       d="m 185.36299,815.48139 c 24.74873,23.23351 1.51522,61.6193 1.51522,61.6193"
       id="path9039"
       inkscape:connector-curvature="0"
       sodipodi:nodetypes="cc" />
    <ellipse
       style="fill:#000000;stroke-width:15;stroke-miterlimit:4;stroke-dasharray:none"
       id="path9041"
       cx="186.37314"
       cy="815.98645"
       rx="8.586297"
       ry="8.0812206" />
    <ellipse
       ry="8.0812206"
       rx="8.586297"
       cy="874.57532"
       cx="188.39345"
       id="ellipse9043"
       style="fill:#000000;stroke-width:15;stroke-miterlimit:4;stroke-dasharray:none" />
    <path
       style="fill:none;fill-rule:evenodd;stroke:#000000;stroke-width:3;stroke-linecap:butt;stroke-linejoin:miter;stroke-miterlimit:3;stroke-dasharray:none;stroke-opacity:1"
       d="m 202.54616,843.23319 1.99916,161.17411"
       id="path9045"
       inkscape:connector-curvature="0" />
    <path
       style="fill:none;fill-rule:evenodd;stroke:#000000;stroke-width:1px;stroke-linecap:butt;stroke-linejoin:miter;stroke-opacity:1"
       d="m 34.345187,950.84183 c -13.421441,9.25038 -3.548833,15.19218 -7.071068,25.75889 -0.944917,2.83475 -9.392951,11.51867 -6.565992,17.17259 2.391983,4.78397 9.030108,6.58559 13.131983,10.10149 1.320292,1.1317 1.44158,3.191 2.525382,4.5457 2.401013,3.0013 4.377945,5.472 7.576144,7.0711 0.127527,0.064 4.062545,8.393 12.12183,11.6168 8.729037,3.4916 28.459819,1.0101 37.880721,1.0101 7.611993,0 14.760063,0.9541 22.223353,2.0203 10.52595,1.5037 22.18694,0 32.82996,0 22.04237,0 57.86235,3.6463 77.27667,-6.0609 12.66684,-6.3334 16.42398,-22.6744 14.14214,-36.3655 -0.62319,-3.73909 -2.40013,-7.32967 -3.03046,-11.11168 -0.91551,-5.49303 -0.18455,-10.97569 -2.52538,-15.65737 -0.34786,-0.69571 -4.06426,-1.5507 -5.05077,-3.03045 -2.85854,-4.28782 -3.8063,-12.30235 -8.08122,-15.15229 -4.80035,-3.20023 -10.44942,-2.13627 -16.16244,-4.04061 -5.93526,-1.97842 -12.63784,-4.34584 -18.68782,-5.55584 -4.47494,-0.89499 -9.59803,0.37868 -14.14213,0 -19.90082,-1.6584 -73.339116,-3.29847 -88.893429,7.07107 -5.067078,3.37805 -14.050015,-1.37758 -19.697974,0.50507 -2.071356,0.69046 -5.871274,2.84082 -7.576144,4.54569 -0.496898,0.4969 -3.926392,-0.15482 -4.545687,0 -5.428841,1.35721 -13.483862,6.60429 -17.677669,5.55584 z"
       id="path9047"
       inkscape:connector-curvature="0" />
  </g>
</svg>
