<?xml version="1.0" encoding="UTF-8" standalone="no"?>
<!-- Generator: Adobe Illustrator 19.0.0, SVG Export Plug-In . SVG Version: 6.00 Build 0)  -->

<svg
   xmlns:dc="http://purl.org/dc/elements/1.1/"
   xmlns:cc="http://creativecommons.org/ns#"
   xmlns:rdf="http://www.w3.org/1999/02/22-rdf-syntax-ns#"
   xmlns:svg="http://www.w3.org/2000/svg"
   xmlns="http://www.w3.org/2000/svg"
   xmlns:sodipodi="http://sodipodi.sourceforge.net/DTD/sodipodi-0.dtd"
   xmlns:inkscape="http://www.inkscape.org/namespaces/inkscape"
   version="1.1"
   id="Layer_1"
   x="0px"
   y="0px"
   viewBox="0 0 180 200"
   xml:space="preserve"
   inkscape:version="0.91 r13725"
   sodipodi:docname="right-left.svg"
   width="180"
   height="200"><metadata
     id="metadata15"><rdf:RDF><cc:Work
         rdf:about=""><dc:format>image/svg+xml</dc:format><dc:type
           rdf:resource="http://purl.org/dc/dcmitype/StillImage" /><dc:title /></cc:Work></rdf:RDF></metadata><defs
     id="defs13" /><sodipodi:namedview
     pagecolor="#ffffff"
     bordercolor="#666666"
     borderopacity="1"
     objecttolerance="10"
     gridtolerance="10"
     guidetolerance="10"
     inkscape:pageopacity="0"
     inkscape:pageshadow="2"
     inkscape:window-width="1920"
     inkscape:window-height="1017"
     id="namedview11"
     showgrid="false"
     inkscape:zoom="7.0666673"
     inkscape:cx="87.786815"
     inkscape:cy="100.00002"
     inkscape:window-x="-8"
     inkscape:window-y="-8"
     inkscape:window-maximized="1"
     inkscape:current-layer="text3344" /><style
     type="text/css"
     id="style3">
	.st0{font-family:&quot;Arial Black&quot;, &quot;Arial Bold&quot;, Gadget, sans-serif;}
	.st1{font-size:118.4014px;}
	
		.st2{fill-rule:evenodd;clip-rule:evenodd;fill:none;stroke:#000000;stroke-width:18.9859;stroke-linecap:round;stroke-miterlimit:10;}
</style><flowRoot
     xml:space="preserve"
     id="flowRoot3336"
     style="fill:black;stroke:none;stroke-opacity:1;stroke-width:1px;stroke-linejoin:miter;stroke-linecap:butt;fill-opacity:1;font-family:Arial;font-style:normal;font-weight:900;font-size:40px;line-height:125%;letter-spacing:0px;word-spacing:0px;-inkscape-font-specification:'Arial, Heavy';font-stretch:normal;font-variant:normal;text-anchor:middle;text-align:center;writing-mode:lr"><flowRegion
       id="flowRegion3338"><rect
         id="rect3340"
         width="142.58875"
         height="86.720642"
         x="17.510899"
         y="69.919037" /></flowRegion><flowPara
       id="flowPara3342" /></flowRoot><g
     transform="scale(0.76321499,1.3102468)"
     style="font-style:normal;font-variant:normal;font-weight:900;font-stretch:normal;font-size:123.7253952px;line-height:125%;font-family:Arial;-inkscape-font-specification:'Arial, Heavy';text-align:center;letter-spacing:0px;word-spacing:0px;writing-mode:lr-tb;text-anchor:middle;fill:#000000;fill-opacity:1;stroke:none;stroke-width:1px;stroke-linecap:butt;stroke-linejoin:miter;stroke-opacity:1"
     id="text3344"><path
       d="m 6.5512301,32.038906 40.6578079,0 q 12.022146,0 19.392506,3.262291 7.430773,3.262291 12.263796,9.363982 4.833024,6.101692 7.007884,14.197006 2.174861,8.095314 2.174861,17.157233 0,14.197006 -3.262291,22.050668 -3.201878,7.793254 -8.941093,13.109574 -5.739215,5.25591 -12.324209,7.00789 -9.001506,2.41651 -16.311454,2.41651 l -40.6578079,0 0,-88.565154 z m 27.3669939,20.057047 0,48.390647 6.70582,0 q 8.578616,0 12.203384,-1.872798 3.624767,-1.93321 5.678802,-6.645407 2.054035,-4.772611 2.054035,-15.405262 0,-14.07618 -4.591372,-19.27168 -4.591372,-5.1955 -15.224023,-5.1955 l -6.826646,0 z"
       style=""
       id="path4880" /><path
       d="m 115.47549,30.528586 12.56586,0 -22.23191,91.525374 -12.44503,0 22.11108,-91.525374 z"
       style=""
       id="path4882" /><path
       d="m 181.2046,88.524865 0,-18.425901 42.28896,0 0,37.757996 q -12.14297,8.27655 -21.50696,11.29719 -9.30357,2.96023 -22.11108,2.96023 -15.76774,0 -25.73585,-5.37674 -9.90769,-5.37674 -15.40526,-16.00939 -5.43715,-10.632652 -5.43715,-24.406768 0,-14.49907 5.98087,-25.192134 5.98086,-10.753477 17.51971,-16.311453 9.0015,-4.289309 24.22552,-4.289309 14.68031,0 21.92985,2.658163 7.30995,2.658163 12.08256,8.276553 4.83302,5.557976 7.24953,14.136593 l -26.40039,4.712197 q -1.63114,-5.014261 -5.55798,-7.672424 -3.86641,-2.658163 -9.90769,-2.658163 -9.00151,0 -14.37825,6.28293 -5.31632,6.222518 -5.31632,19.754983 0,14.378244 5.37674,20.540349 5.43715,6.162103 15.10319,6.162103 4.59138,0 8.75986,-1.32908 4.16848,-1.32908 9.54522,-4.530959 l 0,-8.336966 -18.30508,0 z"
       style=""
       id="path4884" /></g></svg>