<?xml version="1.0" encoding="UTF-8" standalone="no"?>
<!-- Generator: Adobe Illustrator 19.0.0, SVG Export Plug-In . SVG Version: 6.00 Build 0)  -->

<svg
   xmlns:dc="http://purl.org/dc/elements/1.1/"
   xmlns:cc="http://creativecommons.org/ns#"
   xmlns:rdf="http://www.w3.org/1999/02/22-rdf-syntax-ns#"
   xmlns:svg="http://www.w3.org/2000/svg"
   xmlns="http://www.w3.org/2000/svg"
   xmlns:sodipodi="http://sodipodi.sourceforge.net/DTD/sodipodi-0.dtd"
   xmlns:inkscape="http://www.inkscape.org/namespaces/inkscape"
   version="1.1"
   id="Layer_1"
   x="0px"
   y="0px"
   viewBox="0 0 250 250"
   style="enable-background:new 0 0 250 250;"
   xml:space="preserve"
   inkscape:version="0.91 r13725"
   sodipodi:docname="rio.svg"><metadata
     id="metadata4205"><rdf:RDF><cc:Work
         rdf:about=""><dc:format>image/svg+xml</dc:format><dc:type
           rdf:resource="http://purl.org/dc/dcmitype/StillImage" /><dc:title /></cc:Work></rdf:RDF></metadata><defs
     id="defs4203" /><sodipodi:namedview
     pagecolor="#ffffff"
     bordercolor="#666666"
     borderopacity="1"
     objecttolerance="10"
     gridtolerance="10"
     guidetolerance="10"
     inkscape:pageopacity="0"
     inkscape:pageshadow="2"
     inkscape:window-width="1920"
     inkscape:window-height="1017"
     id="namedview4201"
     showgrid="false"
     inkscape:zoom="6.1492316"
     inkscape:cx="125"
     inkscape:cy="130.71996"
     inkscape:current-layer="Layer_1"
     inkscape:window-x="1912"
     inkscape:window-y="-8"
     inkscape:window-maximized="1" /><style
     type="text/css"
     id="style4196">
	.st0{fill-rule:evenodd;clip-rule:evenodd;}
</style><path
     style="fill:none;fill-rule:evenodd;stroke:#000000;stroke-width:3.59432936;stroke-linecap:butt;stroke-linejoin:miter;stroke-miterlimit:4;stroke-dasharray:none;stroke-opacity:1"
     d="m 238.45644,76.037923 c -8.66501,13.65004 -29.28403,13.444867 -37.81881,0 -8.14359,-12.828627 -30.5065,-11.519111 -37.81882,0 -8.3866,13.211456 -28.87764,14.085032 -37.8188,0 -7.99183,-12.589582 -29.908153,-12.461691 -37.818833,0 -8.357698,13.165928 -28.984629,13.916478 -37.818809,0 -8.005417,-12.610964 -29.463705,-13.161813 -37.818811,0"
     id="path4237"
     inkscape:connector-curvature="0"
     sodipodi:nodetypes="csssssc" /><path
     style="fill:none;fill-rule:evenodd;stroke:#000000;stroke-width:3.59432936;stroke-linecap:butt;stroke-linejoin:miter;stroke-miterlimit:4;stroke-dasharray:none;stroke-opacity:1"
     d="m 238.45644,162.03793 c -8.66501,13.65003 -29.28403,13.44486 -37.81881,0 -8.14359,-12.82863 -30.5065,-11.51912 -37.81882,0 -8.38661,13.21145 -28.87764,14.08502 -37.8188,0 -7.99184,-12.58958 -29.908148,-12.46169 -37.818829,0 -8.357699,13.16592 -28.984631,13.91647 -37.818812,0 -8.005416,-12.61096 -29.463705,-13.16182 -37.818812,0"
     id="path4237-8"
     inkscape:connector-curvature="0"
     sodipodi:nodetypes="csssssc" /></svg>