<?xml version="1.0" encoding="UTF-8" standalone="no"?>
<!-- Generator: Adobe Illustrator 19.0.0, SVG Export Plug-In . SVG Version: 6.00 Build 0)  -->

<svg
   xmlns:dc="http://purl.org/dc/elements/1.1/"
   xmlns:cc="http://creativecommons.org/ns#"
   xmlns:rdf="http://www.w3.org/1999/02/22-rdf-syntax-ns#"
   xmlns:svg="http://www.w3.org/2000/svg"
   xmlns="http://www.w3.org/2000/svg"
   xmlns:sodipodi="http://sodipodi.sourceforge.net/DTD/sodipodi-0.dtd"
   xmlns:inkscape="http://www.inkscape.org/namespaces/inkscape"
   version="1.1"
   id="Layer_1"
   x="0px"
   y="0px"
   viewBox="0 0 180 200"
   xml:space="preserve"
   inkscape:version="0.91 r13725"
   sodipodi:docname="road.svg"
   width="180"
   height="200"><metadata
     id="metadata15"><rdf:RDF><cc:Work
         rdf:about=""><dc:format>image/svg+xml</dc:format><dc:type
           rdf:resource="http://purl.org/dc/dcmitype/StillImage" /><dc:title /></cc:Work></rdf:RDF></metadata><defs
     id="defs13" /><sodipodi:namedview
     pagecolor="#ffffff"
     bordercolor="#666666"
     borderopacity="1"
     objecttolerance="10"
     gridtolerance="10"
     guidetolerance="10"
     inkscape:pageopacity="0"
     inkscape:pageshadow="2"
     inkscape:window-width="1536"
     inkscape:window-height="801"
     id="namedview11"
     showgrid="false"
     inkscape:zoom="3.5333333"
     inkscape:cx="82.447555"
     inkscape:cy="92.234744"
     inkscape:window-x="-8"
     inkscape:window-y="-8"
     inkscape:window-maximized="1"
     inkscape:current-layer="text3344" /><style
     type="text/css"
     id="style3">
	.st0{font-family:&quot;Arial Black&quot;, &quot;Arial Bold&quot;, Gadget, sans-serif;}
	.st1{font-size:118.4014px;}
	
		.st2{fill-rule:evenodd;clip-rule:evenodd;fill:none;stroke:#000000;stroke-width:18.9859;stroke-linecap:round;stroke-miterlimit:10;}
</style><flowRoot
     xml:space="preserve"
     id="flowRoot3336"
     style="fill:black;stroke:none;stroke-opacity:1;stroke-width:1px;stroke-linejoin:miter;stroke-linecap:butt;fill-opacity:1;font-family:Arial;font-style:normal;font-weight:900;font-size:40px;line-height:125%;letter-spacing:0px;word-spacing:0px;-inkscape-font-specification:'Arial, Heavy';font-stretch:normal;font-variant:normal;text-anchor:middle;text-align:center;writing-mode:lr"><flowRegion
       id="flowRegion3338"><rect
         id="rect3340"
         width="142.58875"
         height="86.720642"
         x="17.510899"
         y="69.919037" /></flowRegion><flowPara
       id="flowPara3342" /></flowRoot><g
     transform="scale(0.84441501,1.1842518)"
     style="font-style:normal;font-variant:normal;font-weight:900;font-stretch:normal;font-size:136.8888092px;line-height:125%;font-family:Arial;-inkscape-font-specification:'Arial, Heavy';text-align:center;letter-spacing:0px;word-spacing:0px;writing-mode:lr-tb;text-anchor:middle;fill:#000000;fill-opacity:1;stroke:none;stroke-width:1px;stroke-linecap:butt;stroke-linejoin:miter;stroke-opacity:1"
     id="text3344"><path
       d="m 15.395276,133.43539 0,-97.987786 48.478989,0 q 13.484223,0 20.611597,2.406249 7.127375,2.406248 11.493695,8.956592 4.366313,6.483503 4.366313,15.841136 0,8.154509 -3.338945,14.103291 -3.33895,5.881941 -9.182113,9.558154 -3.724213,2.339408 -10.209481,3.876734 5.201056,1.804686 7.576848,3.609373 1.605265,1.203124 4.623162,5.146698 3.082107,3.943579 4.109477,6.082459 l 14.062102,28.4071 -32.875803,0 -15.538961,-29.94442 Q 56.61847,97.675866 54.306889,95.93802 51.160571,93.665452 47.179514,93.665452 l -2.568422,0 0,39.769938 -29.215816,0 z m 29.215816,-58.284684 12.26422,0 q 1.990529,0 7.70527,-1.336805 2.889477,-0.601562 4.687372,-3.074651 1.862107,-2.473089 1.862107,-5.68142 0,-4.745657 -2.889475,-7.285586 -2.889477,-2.539929 -10.851589,-2.539929 l -12.777905,0 0,19.918391 z"
       id="path4905"
       inkscape:connector-curvature="0" /><path
       d="m 101.92177,84.508339 q 0,-23.995645 12.44327,-37.363693 12.44328,-13.368048 34.65452,-13.368048 22.77117,0 35.09002,13.167527 12.31884,13.100687 12.31884,36.762132 0,17.177943 -5.41282,28.206583 -5.35061,10.9618 -15.55409,17.1111 -10.14127,6.08246 -25.32207,6.08246 -15.42965,0 -25.57092,-5.28038 -10.07905,-5.28038 -16.3629,-16.71006 -6.28385,-11.42968 -6.28385,-28.607621 z m 28.184,0.133681 q 0,14.838533 5.10174,21.32204 5.16396,6.4835 13.9987,6.4835 9.08358,0 14.06089,-6.34982 4.9773,-6.349826 4.9773,-22.792525 0,-13.835929 -5.22616,-20.185752 -5.16397,-6.416663 -14.0609,-6.416663 -8.52364,0 -13.6876,6.483503 -5.16397,6.483503 -5.16397,21.455717 z"
       id="path4907"
       inkscape:connector-curvature="0" /></g></svg>