<?xml version="1.0" encoding="UTF-8" standalone="no"?>
<!-- Generator: Adobe Illustrator 19.0.0, SVG Export Plug-In . SVG Version: 6.00 Build 0)  -->

<svg
   xmlns:dc="http://purl.org/dc/elements/1.1/"
   xmlns:cc="http://creativecommons.org/ns#"
   xmlns:rdf="http://www.w3.org/1999/02/22-rdf-syntax-ns#"
   xmlns:svg="http://www.w3.org/2000/svg"
   xmlns="http://www.w3.org/2000/svg"
   xmlns:sodipodi="http://sodipodi.sourceforge.net/DTD/sodipodi-0.dtd"
   xmlns:inkscape="http://www.inkscape.org/namespaces/inkscape"
   version="1.1"
   id="Layer_1"
   x="0px"
   y="0px"
   viewBox="0 0 250 200"
   xml:space="preserve"
   inkscape:version="0.91 r13725"
   sodipodi:docname="rocky.svg"
   width="250"
   height="200"><metadata
     id="metadata11"><rdf:RDF><cc:Work
         rdf:about=""><dc:format>image/svg+xml</dc:format><dc:type
           rdf:resource="http://purl.org/dc/dcmitype/StillImage" /><dc:title /></cc:Work></rdf:RDF></metadata><defs
     id="defs9" /><sodipodi:namedview
     pagecolor="#ffffff"
     bordercolor="#666666"
     borderopacity="1"
     objecttolerance="10"
     gridtolerance="10"
     guidetolerance="10"
     inkscape:pageopacity="0"
     inkscape:pageshadow="2"
     inkscape:window-width="1920"
     inkscape:window-height="1017"
     id="namedview7"
     showgrid="false"
     inkscape:zoom="5.891666"
     inkscape:cx="125.00001"
     inkscape:cy="100.00001"
     inkscape:window-x="-8"
     inkscape:window-y="-8"
     inkscape:window-maximized="1"
     inkscape:current-layer="text5" /><style
     type="text/css"
     id="style3">
	.st0{font-family:&quot;Arial Black&quot;, &quot;Arial Bold&quot;, Gadget, sans-serif;}
	.st1{font-size:75px;}
</style><g
     transform="scale(0.78624053,1.2718754)"
     style="font-size:131.80523682px;font-family:'Arial Black', 'Arial Bold', Gadget, sans-serif"
     id="text5"><path
       d="m 6.3593771,31.449611 78.1306429,0 0,20.144062 -48.912099,0 0,14.99542 45.372408,0 0,19.24305 -45.372408,0 0,18.599467 50.327976,0 0,21.36687 -79.5465199,0 0,-94.348869 z"
       style="font-size:131.80523682px;font-family:'Arial Black', 'Arial Bold', Gadget, sans-serif"
       id="path4916" /><path
       d="m 101.35182,31.449611 38.35739,0 14.80234,57.407359 14.73799,-57.407359 38.22867,0 0,94.348869 -23.81247,0 0,-71.952276 -18.47076,71.952276 -21.55993,0 -18.4064,-71.952276 0,71.952276 -23.87683,0 0,-94.348869 z"
       style="font-size:131.80523682px;font-family:'Arial Black', 'Arial Bold', Gadget, sans-serif"
       id="path4918" /><path
       d="m 225.8846,31.449611 48.4616,0 q 15.83207,0 23.68375,7.529889 7.91604,7.529889 7.91604,21.431223 0,14.287482 -8.62398,22.332235 -8.55962,8.044753 -26.19371,8.044753 l -15.96079,0 0,35.010769 -29.28291,0 0,-94.348869 z m 29.28291,40.223766 7.14374,0 q 8.4309,0 11.84187,-2.896111 3.41098,-2.960469 3.41098,-7.529889 0,-4.440703 -2.96047,-7.529889 -2.96047,-3.089185 -11.13394,-3.089185 l -8.30218,0 0,21.045074 z"
       style="font-size:131.80523682px;font-family:'Arial Black', 'Arial Bold', Gadget, sans-serif"
       id="path4920" /></g></svg>