<?xml version="1.0" encoding="UTF-8" standalone="no"?>
<!-- Generator: Adobe Illustrator 19.0.0, SVG Export Plug-In . SVG Version: 6.00 Build 0)  -->

<svg
   xmlns:dc="http://purl.org/dc/elements/1.1/"
   xmlns:cc="http://creativecommons.org/ns#"
   xmlns:rdf="http://www.w3.org/1999/02/22-rdf-syntax-ns#"
   xmlns:svg="http://www.w3.org/2000/svg"
   xmlns="http://www.w3.org/2000/svg"
   xmlns:sodipodi="http://sodipodi.sourceforge.net/DTD/sodipodi-0.dtd"
   xmlns:inkscape="http://www.inkscape.org/namespaces/inkscape"
   version="1.1"
   id="Layer_1"
   x="0px"
   y="0px"
   viewBox="0 0 250 200"
   xml:space="preserve"
   inkscape:version="0.91 r13725"
   sodipodi:docname="rough.svg"
   width="250"
   height="200"><metadata
     id="metadata11"><rdf:RDF><cc:Work
         rdf:about=""><dc:format>image/svg+xml</dc:format><dc:type
           rdf:resource="http://purl.org/dc/dcmitype/StillImage" /><dc:title /></cc:Work></rdf:RDF></metadata><defs
     id="defs9" /><sodipodi:namedview
     pagecolor="#ffffff"
     bordercolor="#666666"
     borderopacity="1"
     objecttolerance="10"
     gridtolerance="10"
     guidetolerance="10"
     inkscape:pageopacity="0"
     inkscape:pageshadow="2"
     inkscape:window-width="1920"
     inkscape:window-height="1017"
     id="namedview7"
     showgrid="false"
     inkscape:zoom="5.8916664"
     inkscape:cx="125.00001"
     inkscape:cy="100.00002"
     inkscape:window-x="-8"
     inkscape:window-y="-8"
     inkscape:window-maximized="1"
     inkscape:current-layer="text5" /><style
     type="text/css"
     id="style3">
	.st0{font-family:&quot;Arial Black&quot;, &quot;Arial Bold&quot;, Gadget, sans-serif;}
	.st1{font-size:75px;}
</style><g
     transform="scale(0.82728901,1.2087674)"
     style="font-size:138.68659973px;font-family:'Arial Black', 'Arial Bold', Gadget, sans-serif"
     id="text5"><path
       d="m 6.0438372,33.091541 45.5742588,0 q 13.475895,0 21.737499,3.656776 8.329322,3.656775 13.746767,10.4963 5.417446,6.839525 7.855296,15.913745 2.437851,9.074221 2.437851,19.231931 0,15.913746 -3.656776,24.717097 -3.589058,8.73563 -10.022274,14.69482 -6.433216,5.89147 -13.814485,7.85529 -10.089992,2.70873 -18.283878,2.70873 l -45.5742588,0 0,-99.274689 z m 30.6762838,22.482398 0,54.242171 7.516706,0 q 9.615965,0 13.679049,-2.09926 4.063084,-2.16698 6.365498,-7.44899 2.302414,-5.349724 2.302414,-17.268104 0,-15.77831 -5.146573,-21.602063 -5.146573,-5.823754 -17.064952,-5.823754 l -7.652142,0 z"
       style="font-size:138.68659973px;font-family:'Arial Black', 'Arial Bold', Gadget, sans-serif"
       id="path4929" /><path
       d="m 113.37697,33.091541 82.20973,0 0,21.195755 -51.46573,0 0,15.778309 47.74124,0 0,20.247702 -47.74124,0 0,19.570523 52.95553,0 0,22.4824 -83.69953,0 0,-99.274689 z"
       style="font-size:138.68659973px;font-family:'Arial Black', 'Arial Bold', Gadget, sans-serif"
       id="path4931" /><path
       d="m 213.80287,33.091541 75.84424,0 0,21.331191 -45.03252,0 0,17.335825 38.46386,0 0,20.044547 -38.46386,0 0,40.563126 -30.81172,0 0,-99.274689 z"
       style="font-size:138.68659973px;font-family:'Arial Black', 'Arial Bold', Gadget, sans-serif"
       id="path4933" /></g></svg>