<?xml version="1.0" encoding="UTF-8" standalone="no"?>
<!-- Generator: Adobe Illustrator 19.0.0, SVG Export Plug-In . SVG Version: 6.00 Build 0)  -->

<svg
   xmlns:dc="http://purl.org/dc/elements/1.1/"
   xmlns:cc="http://creativecommons.org/ns#"
   xmlns:rdf="http://www.w3.org/1999/02/22-rdf-syntax-ns#"
   xmlns:svg="http://www.w3.org/2000/svg"
   xmlns="http://www.w3.org/2000/svg"
   xmlns:sodipodi="http://sodipodi.sourceforge.net/DTD/sodipodi-0.dtd"
   xmlns:inkscape="http://www.inkscape.org/namespaces/inkscape"
   version="1.1"
   id="Layer_1"
   x="0px"
   y="0px"
   viewBox="0 0 250 200"
   xml:space="preserve"
   inkscape:version="0.91 r13725"
   sodipodi:docname="rough.svg"
   width="250"
   height="200"><metadata
     id="metadata11"><rdf:RDF><cc:Work
         rdf:about=""><dc:format>image/svg+xml</dc:format><dc:type
           rdf:resource="http://purl.org/dc/dcmitype/StillImage" /><dc:title /></cc:Work></rdf:RDF></metadata><defs
     id="defs9" /><sodipodi:namedview
     pagecolor="#ffffff"
     bordercolor="#666666"
     borderopacity="1"
     objecttolerance="10"
     gridtolerance="10"
     guidetolerance="10"
     inkscape:pageopacity="0"
     inkscape:pageshadow="2"
     inkscape:window-width="1536"
     inkscape:window-height="801"
     id="namedview7"
     showgrid="false"
     inkscape:zoom="2.9458332"
     inkscape:cx="89.155665"
     inkscape:cy="98.586316"
     inkscape:window-x="-8"
     inkscape:window-y="-8"
     inkscape:window-maximized="1"
     inkscape:current-layer="text5" /><style
     type="text/css"
     id="style3">
	.st0{font-family:&quot;Arial Black&quot;, &quot;Arial Bold&quot;, Gadget, sans-serif;}
	.st1{font-size:75px;}
</style><g
     transform="scale(0.82728901,1.2087674)"
     style="font-size:138.68659973px;font-family:'Arial Black', 'Arial Bold', Gadget, sans-serif"
     id="text5"><path
       d="m 18.131512,33.091541 42.913037,0 q 12.688996,0 20.46818,3.656776 7.842947,3.656775 12.94405,10.4963 5.101105,6.839525 7.396601,15.913745 2.29549,9.074221 2.29549,19.231931 0,15.913746 -3.44324,24.717097 -3.37948,8.73563 -9.43704,14.69482 -6.057561,5.89147 -13.007815,7.85529 -9.500806,2.70873 -17.216226,2.70873 l -42.913037,0 0,-99.274689 z m 28.885001,22.482398 0,54.242171 7.077782,0 q 9.054459,0 12.880287,-2.09926 3.825828,-2.16698 5.993797,-7.44899 2.167969,-5.349724 2.167969,-17.268104 0,-15.77831 -4.846048,-21.602063 -4.846049,-5.823754 -16.068477,-5.823754 l -7.20531,0 z"
       style="font-size:138.68659973px;font-family:'Arial Black', 'Arial Bold', Gadget, sans-serif"
       id="path4929"
       inkscape:connector-curvature="0" /><path
       d="m 115.7945,33.091541 77.77643,0 0,21.195755 -48.69035,0 0,15.778309 45.16671,0 0,20.247702 -45.16671,0 0,19.570523 50.09981,0 0,22.4824 -79.18589,0 0,-99.274689 z"
       style="font-size:138.68659973px;font-family:'Arial Black', 'Arial Bold', Gadget, sans-serif"
       id="path4931"
       inkscape:connector-curvature="0" /><path
       d="m 208.96781,33.091541 72.15126,0 0,21.331191 -42.83981,0 0,17.335825 36.59099,0 0,20.044547 -36.59099,0 0,40.563126 -29.31145,0 0,-99.274689 z"
       style="font-size:138.68659973px;font-family:'Arial Black', 'Arial Bold', Gadget, sans-serif"
       id="path4933"
       inkscape:connector-curvature="0" /></g></svg>