<?xml version="1.0" encoding="utf-8"?>
<!-- Generator: Adobe Illustrator 19.0.0, SVG Export Plug-In . SVG Version: 6.00 Build 0)  -->
<svg version="1.1" id="Layer_1" xmlns="http://www.w3.org/2000/svg" xmlns:xlink="http://www.w3.org/1999/xlink" x="0px" y="0px"
	 viewBox="0 0 250 250" style="enable-background:new 0 0 250 250;" xml:space="preserve">
<style type="text/css">
	.st0{fill:#7F7F7F;stroke:#000000;stroke-width:5.6804;stroke-miterlimit:10;}
	.st1{fill:none;stroke:#000000;stroke-width:5.6804;stroke-miterlimit:10;}
	.st2{fill:none;stroke:#000000;stroke-width:5.0087;stroke-miterlimit:10;}
</style>
<path class="st0" d="M14.8,91.9v68.2H234c0,0-3.3-9-8-9.9c-4.7-0.9-3.3-2.8-5.2-5.2c-1.9-2.4-9-9-13.3-9.5s-14.2-4.7-20.4-6.1
	c-6.2-1.4-7.1-6.2-7.1-6.2l-14.7-0.5l-20.8-26.5h-17l-3.1-4.3H73.1l-6.2-3.8H23.8L14.8,91.9z"/>
<path class="st1" d="M96.7,160.1v-46.4c0,0,1.9-9.9,20.8-9.9s20.8,9.9,20.8,9.9v46.4"/>
<rect x="30" y="111.8" class="st1" width="12.3" height="10.4"/>
<rect x="175.8" y="136" class="st1" width="12.3" height="10.4"/>
<rect x="32.8" y="122.2" class="st1" width="19.4" height="9.7"/>
<rect x="40.4" y="131.9" class="st2" width="18" height="8.3"/>
<rect x="150.2" y="127.7" class="st2" width="18" height="8.3"/>
</svg>
