<?xml version="1.0" encoding="UTF-8" standalone="no"?>
<!-- Generator: Adobe Illustrator 19.0.0, SVG Export Plug-In . SVG Version: 6.00 Build 0)  -->

<svg
   xmlns:dc="http://purl.org/dc/elements/1.1/"
   xmlns:cc="http://creativecommons.org/ns#"
   xmlns:rdf="http://www.w3.org/1999/02/22-rdf-syntax-ns#"
   xmlns:svg="http://www.w3.org/2000/svg"
   xmlns="http://www.w3.org/2000/svg"
   xmlns:sodipodi="http://sodipodi.sourceforge.net/DTD/sodipodi-0.dtd"
   xmlns:inkscape="http://www.inkscape.org/namespaces/inkscape"
   version="1.1"
   id="Layer_1"
   x="0px"
   y="0px"
   viewBox="0 0 250 200"
   xml:space="preserve"
   inkscape:version="0.91 r13725"
   sodipodi:docname="rut.svg"
   width="250"
   height="200"><metadata
     id="metadata11"><rdf:RDF><cc:Work
         rdf:about=""><dc:format>image/svg+xml</dc:format><dc:type
           rdf:resource="http://purl.org/dc/dcmitype/StillImage" /><dc:title /></cc:Work></rdf:RDF></metadata><defs
     id="defs9" /><sodipodi:namedview
     pagecolor="#ffffff"
     bordercolor="#666666"
     borderopacity="1"
     objecttolerance="10"
     gridtolerance="10"
     guidetolerance="10"
     inkscape:pageopacity="0"
     inkscape:pageshadow="2"
     inkscape:window-width="1536"
     inkscape:window-height="801"
     id="namedview7"
     showgrid="false"
     inkscape:zoom="2.9458331"
     inkscape:cx="130.06473"
     inkscape:cy="103.64785"
     inkscape:window-x="-8"
     inkscape:window-y="-8"
     inkscape:window-maximized="1"
     inkscape:current-layer="text5" /><style
     type="text/css"
     id="style3">
	.st0{font-family:&quot;Arial Black&quot;, &quot;Arial Bold&quot;, Gadget, sans-serif;}
	.st1{font-size:75px;}
</style><g
     transform="scale(0.78542163,1.2732015)"
     style="font-size:127.32534027px;font-family:'Arial Black', 'Arial Bold', Gadget, sans-serif"
     id="text5"><path
       d="m 19.098023,78.604335 q 0,-22.319236 12.434115,-34.753352 12.434115,-12.434115 34.629011,-12.434115 22.754431,0 35.064201,12.247604 12.30976,12.185433 12.30976,34.193817 0,15.977838 -5.40883,26.235981 -5.34666,10.19598 -15.542636,15.91567 -10.133804,5.65752 -25.303425,5.65752 -15.418303,0 -25.552107,-4.91147 Q 31.656479,115.84451 25.377251,105.21334 19.098023,94.582174 19.098023,78.604335 Z m 28.163271,0.124342 q 0,13.801868 5.097987,19.832413 5.160158,6.03055 13.98838,6.03055 9.076904,0 14.05055,-5.906208 4.973646,-5.906205 4.973646,-21.200167 0,-12.869309 -5.222328,-18.775514 -5.160158,-5.968375 -14.050551,-5.968375 -8.517369,0 -13.677527,6.030546 -5.160157,6.030546 -5.160157,19.956755 z"
       style="font-size:127.32534027px;font-family:'Arial Black', 'Arial Bold', Gadget, sans-serif"
       id="path4942"
       inkscape:connector-curvature="0" /><path
       d="m 121.5629,124.1132 0,-91.142068 44.44957,0 q 12.36345,0 18.89842,2.238141 6.53497,2.238141 10.53837,8.330857 4.0034,6.030546 4.0034,14.734427 0,7.58481 -3.06142,13.117992 -3.06143,5.47101 -8.41892,8.890392 -3.41467,2.17597 -9.3609,3.605893 4.76876,1.678606 6.94708,3.357212 1.47184,1.11907 4.2389,4.787134 2.82593,3.668064 3.76791,5.657522 l 12.89331,26.422498 -30.14327,0 -14.24741,-27.852421 q -2.70819,-5.40884 -4.82764,-7.025275 -2.88481,-2.1138 -6.53497,-2.1138 l -2.35495,0 0,36.991496 -26.78748,0 z m 26.78748,-54.212745 11.24486,0 q 1.82508,0 7.06483,-1.243412 2.64932,-0.559535 4.29777,-2.859846 1.70734,-2.300312 1.70734,-5.284499 0,-4.414111 -2.64931,-6.776593 -2.64931,-2.362482 -9.94964,-2.362482 l -11.71585,0 0,18.526832 z"
       style="font-size:127.32534027px;font-family:'Arial Black', 'Arial Bold', Gadget, sans-serif"
       id="path4944"
       inkscape:connector-curvature="0" /><path
       d="m 212.71275,32.971132 25.38534,0 33.12698,50.420338 0,-50.420338 25.62539,0 0,91.142068 -25.62539,0 -32.94694,-50.047317 0,50.047317 -25.56538,0 0,-91.142068 z"
       style="font-size:127.32534027px;font-family:'Arial Black', 'Arial Bold', Gadget, sans-serif"
       id="path4946"
       inkscape:connector-curvature="0" /></g></svg>