<?xml version="1.0" encoding="UTF-8" standalone="no"?>
<!-- Generator: Adobe Illustrator 19.0.0, SVG Export Plug-In . SVG Version: 6.00 Build 0)  -->

<svg
   xmlns:dc="http://purl.org/dc/elements/1.1/"
   xmlns:cc="http://creativecommons.org/ns#"
   xmlns:rdf="http://www.w3.org/1999/02/22-rdf-syntax-ns#"
   xmlns:svg="http://www.w3.org/2000/svg"
   xmlns="http://www.w3.org/2000/svg"
   xmlns:sodipodi="http://sodipodi.sourceforge.net/DTD/sodipodi-0.dtd"
   xmlns:inkscape="http://www.inkscape.org/namespaces/inkscape"
   version="1.1"
   id="Layer_1"
   x="0px"
   y="0px"
   viewBox="0 0 250 200"
   xml:space="preserve"
   inkscape:version="0.91 r13725"
   sodipodi:docname="rut.svg"
   width="250"
   height="200"><metadata
     id="metadata11"><rdf:RDF><cc:Work
         rdf:about=""><dc:format>image/svg+xml</dc:format><dc:type
           rdf:resource="http://purl.org/dc/dcmitype/StillImage" /><dc:title /></cc:Work></rdf:RDF></metadata><defs
     id="defs9" /><sodipodi:namedview
     pagecolor="#ffffff"
     bordercolor="#666666"
     borderopacity="1"
     objecttolerance="10"
     gridtolerance="10"
     guidetolerance="10"
     inkscape:pageopacity="0"
     inkscape:pageshadow="2"
     inkscape:window-width="1920"
     inkscape:window-height="1017"
     id="namedview7"
     showgrid="false"
     inkscape:zoom="5.8916662"
     inkscape:cx="125.00001"
     inkscape:cy="99.999998"
     inkscape:window-x="-8"
     inkscape:window-y="-8"
     inkscape:window-maximized="1"
     inkscape:current-layer="text5" /><style
     type="text/css"
     id="style3">
	.st0{font-family:&quot;Arial Black&quot;, &quot;Arial Bold&quot;, Gadget, sans-serif;}
	.st1{font-size:75px;}
</style><g
     transform="scale(0.78542163,1.2732015)"
     style="font-size:127.32534027px;font-family:'Arial Black', 'Arial Bold', Gadget, sans-serif"
     id="text5"><path
       d="m 6.3660076,78.604335 q 0,-22.319236 12.4341154,-34.753352 12.434115,-12.434115 34.629011,-12.434115 22.754431,0 35.064205,12.247604 12.309771,12.185433 12.309771,34.193817 0,15.977838 -5.408837,26.235981 -5.34667,10.19598 -15.542644,15.91567 -10.133804,5.65752 -25.303425,5.65752 -15.418303,0 -25.552107,-4.91147 Q 18.924464,115.84451 12.645236,105.21334 6.3660076,94.582174 6.3660076,78.604335 Z m 28.1632714,0.124342 q 0,13.801868 5.097987,19.832413 5.160158,6.03055 13.98838,6.03055 9.076904,0 14.05055,-5.906208 4.973646,-5.906205 4.973646,-21.200167 0,-12.869309 -5.222328,-18.775514 -5.160158,-5.968375 -14.050551,-5.968375 -8.517369,0 -13.677527,6.030546 -5.160157,6.030546 -5.160157,19.956755 z"
       style="font-size:127.32534027px;font-family:'Arial Black', 'Arial Bold', Gadget, sans-serif"
       id="path4942" /><path
       d="m 116.4701,124.1132 0,-91.142068 46.93879,0 q 13.05582,0 19.95675,2.238141 6.90094,2.238141 11.12853,8.330857 4.2276,6.030546 4.2276,14.734427 0,7.58481 -3.23287,13.117992 -3.23287,5.47101 -8.89039,8.890392 -3.60589,2.17597 -9.88512,3.605893 5.03582,1.678606 7.33613,3.357212 1.55426,1.11907 4.47628,4.787134 2.98419,3.668064 3.97892,5.657522 l 13.61535,26.422498 -31.83133,0 -15.04528,-27.852421 q -2.85985,-5.40884 -5.09799,-7.025275 -3.04636,-2.1138 -6.90093,-2.1138 l -2.48683,0 0,36.991496 -28.28761,0 z m 28.28761,-54.212745 11.87458,0 q 1.92729,0 7.46047,-1.243412 2.79768,-0.559535 4.53845,-2.859846 1.80295,-2.300312 1.80295,-5.284499 0,-4.414111 -2.79767,-6.776593 -2.79768,-2.362482 -10.50683,-2.362482 l -12.37195,0 0,18.526832 z"
       style="font-size:127.32534027px;font-family:'Arial Black', 'Arial Bold', Gadget, sans-serif"
       id="path4944" /><path
       d="m 215.25915,32.971132 26.29815,0 34.31816,50.420338 0,-50.420338 26.54683,0 0,91.142068 -26.54683,0 -34.13165,-50.047317 0,50.047317 -26.48466,0 0,-91.142068 z"
       style="font-size:127.32534027px;font-family:'Arial Black', 'Arial Bold', Gadget, sans-serif"
       id="path4946" /></g></svg>