<?xml version="1.0" encoding="utf-8"?>
<!-- Generator: Adobe Illustrator 19.0.0, SVG Export Plug-In . SVG Version: 6.00 Build 0)  -->
<svg version="1.1" id="Layer_1" xmlns="http://www.w3.org/2000/svg" xmlns:xlink="http://www.w3.org/1999/xlink" x="0px" y="0px"
	 viewBox="0 0 250 250" style="enable-background:new 0 0 250 250;" xml:space="preserve">
<style type="text/css">
	.st0{fill:#939598;}
	.st1{fill:none;stroke:#000000;stroke-width:1.5697;stroke-miterlimit:10;}
</style>
<path id="XMLID_16_" class="st0" d="M18.3,104.5c0,0-6.3,0.1-6.5,7.7c-0.3,12.5,15.9,11.1,23.9,11.8c8,0.7,13.8,0,22.4,0
	s21,1.4,25.3,6.5c4.3,5.1,15.2,7.2,19.6,7.2c4.3,0,5.8,2.2,18.1,0s20.3-2.9,24.6-2.9s26.1,0.7,32.6-2.9s34.8-0.7,40.6-1.4
	c5.8-0.7,16.7-4.3,16.7-13.8s-6.5-19.6-15.9-19.6c-9.4,0-19.6,2.9-31.9-5.8c-12.3-8.7-29-21.7-45.6-20.3
	c-16.7,1.4-23.2,5.1-27.5,5.1S103,77,99.4,80.6c-3.6,3.6-6.5,2.9-12.3,3.6c-5.8,0.7-24.6-1.4-31.9,5.1s-13.8,15.3-21,15.6
	C27,105.3,18.3,104.5,18.3,104.5z"/>
<path id="XMLID_15_" class="st1" d="M50.8,102.6c2-0.5,5.4-0.5,7.9,0c2.5,0.5,4.3,0.8,7.1,0c2.8-0.8,10.4-0.5,12.4,0.5"/>
<path id="XMLID_12_" class="st1" d="M86.8,112.8c2-0.5,5.4-0.5,7.9,0s4.3,0.8,7.1,0c2.8-0.8,10.4-0.5,12.4,0.5"/>
<path id="XMLID_11_" class="st1" d="M67.1,118.4c2-0.5,5.4-0.5,7.9,0s4.3,0.8,7.1,0c2.8-0.8,10.4-0.5,12.4,0.5"/>
<path id="XMLID_10_" class="st1" d="M52.3,111.3c2-0.5,5.4-0.5,7.9,0s4.3,0.8,7.1,0s10.4-0.5,12.4,0.5"/>
<path id="XMLID_7_" class="st1" d="M23.4,113.8c2-0.5,5.4-0.5,7.9,0s4.3,0.8,7.1,0s10.4-0.5,12.4,0.5"/>
<path id="XMLID_1_" class="st1" d="M43.9,121.7c2-0.5,5.4-0.5,7.9,0c2.5,0.5,4.3,0.8,7.1,0s10.4-0.5,12.4,0.5"/>
<path id="XMLID_23_" class="st1" d="M180,113.8c2-0.5,5.4-0.5,7.9,0c2.5,0.5,4.3,0.8,7.1,0c2.8-0.8,10.4-0.5,12.4,0.5"/>
<path id="XMLID_22_" class="st1" d="M160.3,118.4c2-0.5,5.4-0.5,7.9,0c2.5,0.5,4.3,0.8,7.1,0c2.8-0.8,10.4-0.5,12.4,0.5"/>
<path id="XMLID_19_" class="st1" d="M112.9,107.1c2-0.5,5.4-0.5,7.9,0s4.3,0.8,7.1,0c2.8-0.8,10.4-0.5,12.4,0.5"/>
<path id="XMLID_43_" class="st1" d="M100.9,121.7c2-0.5,5.4-0.5,7.9,0s4.3,0.8,7.1,0s10.4-0.5,12.4,0.5"/>
<path id="XMLID_42_" class="st1" d="M124.8,125.7c2-0.5,5.4-0.5,7.9,0c2.5,0.5,4.3,0.8,7.1,0c2.8-0.8,10.4-0.5,12.4,0.5"/>
<path id="XMLID_41_" class="st1" d="M136.9,131.9c2-0.5,5.4-0.5,7.9,0c2.5,0.5,4.3,0.8,7.1,0c2.8-0.8,10.4-0.5,12.4,0.5"/>
<path id="XMLID_39_" class="st1" d="M99.4,132.4c2-0.5,5.4-0.5,7.9,0c2.5,0.5,4.3,0.8,7.1,0c2.8-0.8,10.4-0.5,12.4,0.5"/>
<path id="XMLID_35_" class="st1" d="M109.8,82.6c2-0.5,5.4-0.5,7.9,0c2.5,0.5,4.3,0.8,7.1,0s10.4-0.5,12.4,0.5"/>
<path id="XMLID_34_" class="st1" d="M123.5,77.4c2-0.5,5.4-0.5,7.9,0c2.5,0.5,4.3,0.8,7.1,0c2.8-0.8,10.4-0.5,12.4,0.5"/>
<path id="XMLID_33_" class="st1" d="M133.6,86.5c2-0.5,5.4-0.5,7.9,0c2.5,0.5,4.3,0.8,7.1,0c2.8-0.8,10.4-0.5,12.4,0.5"/>
<path id="XMLID_32_" class="st1" d="M145.8,92.8c2-0.5,5.4-0.5,7.9,0c2.5,0.5,4.3,0.8,7.1,0c2.8-0.8,10.4-0.5,12.4,0.5"/>
<path id="XMLID_49_" class="st1" d="M192,102.6c2-0.5,5.4-0.5,7.9,0c2.5,0.5,4.3,0.8,7.1,0c2.8-0.8,10.4-0.5,12.4,0.5"/>
<path id="XMLID_44_" class="st1" d="M203.4,110.3c2-0.5,5.4-0.5,7.9,0c2.5,0.5,4.3,0.8,7.1,0c2.8-0.8,10.4-0.5,12.4,0.5"/>
<path id="XMLID_40_" class="st1" d="M191,123.7c2-0.5,5.4-0.5,7.9,0c2.5,0.5,4.3,0.8,7.1,0c2.8-0.8,10.4-0.5,12.4,0.5"/>
<path id="XMLID_31_" class="st1" d="M126.1,97.3c2-0.5,5.4-0.5,7.9,0c2.5,0.5,4.3,0.8,7.1,0c2.8-0.8,10.4-0.5,12.4,0.5"/>
<path id="XMLID_30_" class="st1" d="M111.2,91.2c2-0.5,5.4-0.5,7.9,0c2.5,0.5,4.3,0.8,7.1,0c2.8-0.8,10.4-0.5,12.4,0.5"/>
<path id="XMLID_27_" class="st1" d="M100.8,100.7c2-0.5,5.4-0.5,7.9,0s4.3,0.8,7.1,0s10.4-0.5,12.4,0.5"/>
</svg>
