<?xml version="1.0" encoding="UTF-8" standalone="no"?>
<!-- Generator: Adobe Illustrator 19.0.0, SVG Export Plug-In . SVG Version: 6.00 Build 0)  -->

<svg
   xmlns:dc="http://purl.org/dc/elements/1.1/"
   xmlns:cc="http://creativecommons.org/ns#"
   xmlns:rdf="http://www.w3.org/1999/02/22-rdf-syntax-ns#"
   xmlns:svg="http://www.w3.org/2000/svg"
   xmlns="http://www.w3.org/2000/svg"
   xmlns:sodipodi="http://sodipodi.sourceforge.net/DTD/sodipodi-0.dtd"
   xmlns:inkscape="http://www.inkscape.org/namespaces/inkscape"
   version="1.1"
   id="Layer_1"
   x="0px"
   y="0px"
   viewBox="0 0 180 200"
   xml:space="preserve"
   inkscape:version="0.91 r13725"
   sodipodi:docname="sand.svg"
   width="180"
   height="200"><metadata
     id="metadata15"><rdf:RDF><cc:Work
         rdf:about=""><dc:format>image/svg+xml</dc:format><dc:type
           rdf:resource="http://purl.org/dc/dcmitype/StillImage" /><dc:title /></cc:Work></rdf:RDF></metadata><defs
     id="defs13" /><sodipodi:namedview
     pagecolor="#ffffff"
     bordercolor="#666666"
     borderopacity="1"
     objecttolerance="10"
     gridtolerance="10"
     guidetolerance="10"
     inkscape:pageopacity="0"
     inkscape:pageshadow="2"
     inkscape:window-width="1920"
     inkscape:window-height="1017"
     id="namedview11"
     showgrid="false"
     inkscape:zoom="7.0666665"
     inkscape:cx="90.000008"
     inkscape:cy="99.999999"
     inkscape:window-x="-8"
     inkscape:window-y="-8"
     inkscape:window-maximized="1"
     inkscape:current-layer="text3344" /><style
     type="text/css"
     id="style3">
	.st0{font-family:&quot;Arial Black&quot;, &quot;Arial Bold&quot;, Gadget, sans-serif;}
	.st1{font-size:118.4014px;}
	
		.st2{fill-rule:evenodd;clip-rule:evenodd;fill:none;stroke:#000000;stroke-width:18.9859;stroke-linecap:round;stroke-miterlimit:10;}
</style><flowRoot
     xml:space="preserve"
     id="flowRoot3336"
     style="fill:black;stroke:none;stroke-opacity:1;stroke-width:1px;stroke-linejoin:miter;stroke-linecap:butt;fill-opacity:1;font-family:Arial;font-style:normal;font-weight:900;font-size:40px;line-height:125%;letter-spacing:0px;word-spacing:0px;-inkscape-font-specification:'Arial, Heavy';font-stretch:normal;font-variant:normal;text-anchor:middle;text-align:center;writing-mode:lr"><flowRegion
       id="flowRegion3338"><rect
         id="rect3340"
         width="142.58875"
         height="86.720642"
         x="17.510899"
         y="69.919037" /></flowRegion><flowPara
       id="flowPara3342" /></flowRoot><g
     transform="scale(0.8451168,1.1832684)"
     style="font-style:normal;font-variant:normal;font-weight:900;font-stretch:normal;font-size:137.00257874px;line-height:125%;font-family:Arial;-inkscape-font-specification:'Arial, Heavy';text-align:center;letter-spacing:0px;word-spacing:0px;writing-mode:lr-tb;text-anchor:middle;fill:#000000;fill-opacity:1;stroke:none;stroke-width:1px;stroke-linecap:butt;stroke-linejoin:miter;stroke-opacity:1"
     id="text3344"><path
       d="M 5.9163454,101.10184 34.748431,99.29565 q 0.936541,7.02406 3.81306,10.70333 4.682705,5.95372 13.379158,5.95372 6.488892,0 9.967473,-3.01031 3.545477,-3.0772 3.545477,-7.09095 0,-3.81306 -3.34479,-6.823373 Q 58.76402,96.017757 46.588986,93.341925 26.65404,88.859907 18.158275,81.434474 9.5956138,74.009042 9.5956138,62.502966 q 0,-7.559225 4.3482262,-14.248804 4.415122,-6.756474 13.178471,-10.569534 8.830244,-3.879956 24.14938,-3.879956 18.797717,0 28.631399,7.024058 9.900577,6.957162 11.773659,22.209402 l -28.564503,1.672395 q -1.137228,-6.622683 -4.816497,-9.632994 -3.612372,-3.010311 -10.034368,-3.010311 -5.284768,0 -7.960599,2.274457 -2.675832,2.207561 -2.675832,5.418559 0,2.341353 2.207561,4.214435 2.140665,1.939978 10.16816,3.612373 19.86805,4.28133 28.430711,8.696453 8.629557,4.348226 12.509513,10.837118 3.946852,6.488891 3.946852,14.516383 0,9.43231 -5.217872,17.39291 -5.217872,7.9606 -14.583282,12.10814 -9.365411,4.08064 -23.614214,4.08064 -25.019026,0 -34.65202,-9.63299 -9.6329936,-9.633 -10.9040136,-24.48386 z"
       style=""
       id="path4967" /><path
       d="m 170.54688,117.35751 -34.51822,0 -4.74961,16.18879 -30.97275,0 36.85958,-98.069234 33.04652,0 36.85959,98.069234 -31.70861,0 -4.8165,-16.18879 z m -6.3551,-21.205962 -10.83711,-35.254081 -10.77023,35.254081 21.60734,0 z"
       style=""
       id="path4969" /></g></svg>