<?xml version="1.0" encoding="UTF-8" standalone="no"?>
<!-- Generator: Adobe Illustrator 19.0.0, SVG Export Plug-In . SVG Version: 6.00 Build 0)  -->

<svg
   xmlns:dc="http://purl.org/dc/elements/1.1/"
   xmlns:cc="http://creativecommons.org/ns#"
   xmlns:rdf="http://www.w3.org/1999/02/22-rdf-syntax-ns#"
   xmlns:svg="http://www.w3.org/2000/svg"
   xmlns="http://www.w3.org/2000/svg"
   xmlns:sodipodi="http://sodipodi.sourceforge.net/DTD/sodipodi-0.dtd"
   xmlns:inkscape="http://www.inkscape.org/namespaces/inkscape"
   version="1.1"
   id="Layer_1"
   x="0px"
   y="0px"
   viewBox="0 0 250 200"
   xml:space="preserve"
   inkscape:version="0.91 r13725"
   sodipodi:docname="start-of-selective-section.svg"
   width="250"
   height="200"><metadata
     id="metadata10"><rdf:RDF><cc:Work
         rdf:about=""><dc:format>image/svg+xml</dc:format><dc:type
           rdf:resource="http://purl.org/dc/dcmitype/StillImage" /><dc:title></dc:title></cc:Work></rdf:RDF></metadata><defs
     id="defs8" /><sodipodi:namedview
     pagecolor="#ffffff"
     bordercolor="#666666"
     borderopacity="1"
     objecttolerance="10"
     gridtolerance="10"
     guidetolerance="10"
     inkscape:pageopacity="0"
     inkscape:pageshadow="2"
     inkscape:window-width="1920"
     inkscape:window-height="1017"
     id="namedview6"
     showgrid="false"
     inkscape:zoom="5.4333331"
     inkscape:cx="125.00001"
     inkscape:cy="99.999992"
     inkscape:current-layer="XMLID_2_"
     inkscape:window-x="-8"
     inkscape:window-y="-8"
     inkscape:window-maximized="1" /><style
     type="text/css"
     id="style3">
	.st0{font-family:&quot;Arial Black&quot;, &quot;Arial Bold&quot;, Gadget, sans-serif;}
	.st1{font-size:100px;}
</style><g
     transform="scale(0.83805705,1.1932362)"
     style="font-size:135.85810852px;font-family:'Arial Black', 'Arial Bold', Gadget, sans-serif"
     id="XMLID_2_"><path
       d="m 5.9661811,35.180716 44.6447789,0 q 13.201056,0 21.294166,3.582196 8.159447,3.582197 13.466405,10.28223 5.306957,6.700034 7.695088,15.589188 2.388131,8.889153 2.388131,18.839698 0,15.589187 -3.582197,24.212992 -3.515859,8.55747 -9.817871,14.39512 -6.302012,5.77132 -13.532741,7.69509 -9.884208,2.65348 -17.910981,2.65348 l -44.6447789,0 0,-97.249994 z m 30.0506459,22.023873 0,53.135911 7.363404,0 q 9.419849,0 13.400067,-2.05645 3.980218,-2.12278 6.235675,-7.29706 2.255457,-5.240623 2.255457,-16.915929 0,-15.456513 -5.04161,-21.161493 -5.041609,-5.704979 -16.716916,-5.704979 l -7.496077,0 z"
       style="font-size:135.85810852px;font-family:'Arial Black', 'Arial Bold', Gadget, sans-serif"
       id="path3335" /><path
       d="m 105.93599,100.25728 28.59123,-1.791097 q 0.92872,6.965377 3.78121,10.613917 4.64359,5.90399 13.26739,5.90399 6.43469,0 9.88421,-2.98517 3.51586,-3.0515 3.51586,-7.03171 0,-3.78121 -3.31685,-6.766375 -3.31685,-2.985164 -15.39017,-5.638642 -19.76842,-4.444577 -28.19321,-11.80798 -8.49114,-7.363404 -8.49114,-18.773362 0,-7.496077 4.31191,-14.129774 4.37824,-6.700034 13.06838,-10.481241 8.75648,-3.847544 23.94764,-3.847544 18.64069,0 28.39223,6.965382 9.81787,6.899044 11.6753,22.023873 l -28.32588,1.658424 q -1.12773,-6.56736 -4.77626,-9.552524 -3.5822,-2.985163 -9.95055,-2.985163 -5.24062,0 -7.8941,2.255457 -2.65348,2.18912 -2.65348,5.373294 0,2.321794 2.18912,4.179229 2.12279,1.923772 10.08322,3.582196 19.70208,4.245566 28.19321,8.623806 8.55747,4.311903 12.40502,10.746589 3.91388,6.434686 3.91388,14.395125 0,9.35351 -5.17429,17.24761 -5.17428,7.8941 -14.46146,12.00699 -9.28717,4.04655 -23.41694,4.04655 -24.81003,0 -34.36255,-9.55252 -9.55253,-9.55252 -10.81293,-24.27933 z"
       style="font-size:135.85810852px;font-family:'Arial Black', 'Arial Bold', Gadget, sans-serif"
       id="path3337" /><path
       d="m 204.11471,100.25728 28.59123,-1.791097 q 0.92872,6.965377 3.78121,10.613917 4.64359,5.90399 13.26739,5.90399 6.43469,0 9.88421,-2.98517 3.51586,-3.0515 3.51586,-7.03171 0,-3.78121 -3.31685,-6.766375 -3.31685,-2.985164 -15.39017,-5.638642 -19.76842,-4.444577 -28.19322,-11.80798 -8.49113,-7.363404 -8.49113,-18.773362 0,-7.496077 4.31191,-14.129774 4.37824,-6.700034 13.06838,-10.481241 8.75648,-3.847544 23.94764,-3.847544 18.64069,0 28.39222,6.965382 9.81788,6.899044 11.67531,22.023873 l -28.32588,1.658424 q -1.12773,-6.56736 -4.77627,-9.552524 -3.58219,-2.985163 -9.95054,-2.985163 -5.24062,0 -7.8941,2.255457 -2.65348,2.18912 -2.65348,5.373294 0,2.321794 2.18912,4.179229 2.12278,1.923772 10.08322,3.582196 19.70208,4.245566 28.19321,8.623806 8.55747,4.311903 12.40501,10.746589 3.91389,6.434686 3.91389,14.395125 0,9.35351 -5.17429,17.24761 -5.17428,7.8941 -14.46146,12.00699 -9.28717,4.04655 -23.41695,4.04655 -24.81002,0 -34.36255,-9.55252 -9.55252,-9.55252 -10.81292,-24.27933 z"
       style="font-size:135.85810852px;font-family:'Arial Black', 'Arial Bold', Gadget, sans-serif"
       id="path3339" /></g></svg>