<?xml version="1.0" encoding="UTF-8" standalone="no"?>
<!-- Generator: Adobe Illustrator 19.0.0, SVG Export Plug-In . SVG Version: 6.00 Build 0)  -->

<svg
   xmlns:dc="http://purl.org/dc/elements/1.1/"
   xmlns:cc="http://creativecommons.org/ns#"
   xmlns:rdf="http://www.w3.org/1999/02/22-rdf-syntax-ns#"
   xmlns:svg="http://www.w3.org/2000/svg"
   xmlns="http://www.w3.org/2000/svg"
   xmlns:sodipodi="http://sodipodi.sourceforge.net/DTD/sodipodi-0.dtd"
   xmlns:inkscape="http://www.inkscape.org/namespaces/inkscape"
   version="1.1"
   id="Layer_1"
   x="0px"
   y="0px"
   viewBox="0 0 250 250"
   style="enable-background:new 0 0 250 250;"
   xml:space="preserve"
   inkscape:version="0.91 r13725"
   sodipodi:docname="start.svg"><metadata
     id="metadata30"><rdf:RDF><cc:Work
         rdf:about=""><dc:format>image/svg+xml</dc:format><dc:type
           rdf:resource="http://purl.org/dc/dcmitype/StillImage" /></cc:Work></rdf:RDF></metadata><defs
     id="defs28" /><sodipodi:namedview
     pagecolor="#ffffff"
     bordercolor="#666666"
     borderopacity="1"
     objecttolerance="10"
     gridtolerance="10"
     guidetolerance="10"
     inkscape:pageopacity="0"
     inkscape:pageshadow="2"
     inkscape:window-width="640"
     inkscape:window-height="480"
     id="namedview26"
     showgrid="false"
     inkscape:zoom="2.276"
     inkscape:cx="125"
     inkscape:cy="125"
     inkscape:current-layer="Layer_1" /><style
     type="text/css"
     id="style3">
	.st0{fill:#FFFFFF;}
	.st1{font-family:&quot;Arial Black&quot;, &quot;Arial Bold&quot;, Gadget, sans-serif;}
	.st2{font-size:50px;}
</style><g
     id="XMLID_31_"><polygon
       id="XMLID_29_"
       points="124,181.7 128.5,181.6 132.9,181.3 137.2,180.8 141.6,180.2 145.8,179.3 149.9,178.3 153.9,177.1    157.9,175.7 161.7,174.2 165.5,172.5 169.1,170.7 172.7,168.7 176.1,166.6 179.4,164.3 182.6,162 185.6,159.5 188.5,156.9    191.2,154.1 193.8,151.2 196.3,148.3 198.5,145.2 200.6,142 202.5,138.7 204.4,135.4 205.8,131.9 207.3,128.4 208.5,124.8    209.4,121.2 210.2,117.4 210.7,113.6 211.1,109.8 211.2,105.9 211.1,102 210.7,98.1 210.2,94.4 209.4,90.7 208.5,87 207.3,83.4    205.8,79.9 204.4,76.5 202.5,73.1 200.6,69.8 198.5,66.6 196.3,63.5 193.8,60.6 191.2,57.7 188.5,55 185.6,52.3 182.6,49.8    179.4,47.4 176.1,45.1 172.7,43.1 169.1,41.1 165.5,39.2 161.7,37.6 157.9,36.1 153.9,34.7 149.9,33.5 145.8,32.4 141.6,31.6    137.2,30.9 132.9,30.4 128.5,30.2 124,30.1 119.6,30.2 115.1,30.4 110.8,30.9 106.4,31.6 102.3,32.4 98.2,33.5 94.1,34.7    90.1,36.1 86.3,37.6 82.5,39.2 78.9,41.1 75.3,43.1 71.9,45.1 68.6,47.4 65.5,49.8 62.4,52.3 59.6,55 56.8,57.7 54.2,60.6    51.7,63.5 49.5,66.6 47.4,69.8 45.5,73.1 43.7,76.5 42.2,79.9 40.8,83.4 39.6,87 38.6,90.7 37.8,94.4 37.3,98.1 37,102 36.8,105.9    37,109.8 37.3,113.6 37.8,117.4 38.6,121.2 39.6,124.8 40.8,128.4 42.2,131.9 43.7,135.4 45.5,138.7 47.4,142 49.5,145.2    51.7,148.3 54.2,151.2 56.8,154.1 59.6,156.9 62.4,159.5 65.5,162 68.6,164.3 71.9,166.6 75.3,168.7 78.9,170.7 82.5,172.5    86.3,174.2 90.1,175.7 94.1,177.1 98.2,178.3 102.3,179.3 106.4,180.2 110.8,180.8 115.1,181.3 119.6,181.6  " /><polygon
       id="XMLID_28_"
       class="st0"
       points="151.1,162.6 154.4,161.4 157.5,159.9 160.6,158.4 163.6,156.8 166.5,155 169.2,153.1    171.8,151.1 174.3,149 176.6,146.8 178.8,144.6 180.9,142.2 182.9,139.8 184.6,137.3 186.3,134.7 187.8,132.1 189.2,129.4    190.5,126.6 191.5,123.8 192.4,121 193.1,118.1 193.8,115.2 194.2,112.2 194.5,109.3 194.6,106.3 194.6,103.3 194.3,100.3    193.9,97.3 193.4,94.3 192.6,91.3 191.6,88.3 190.5,85.3 189.3,82.4 187.8,79.5 186.2,76.7 184.4,74 182.5,71.4 180.4,69    178.3,66.6 176,64.4 173.6,62.2 171.1,60.2 168.5,58.3 165.8,56.4 163,54.8 160.1,53.2 157.1,51.7 154.1,50.4 151,49.2 147.8,48.2    144.7,47.2 141.3,46.4 138,45.8 134.7,45.2 131.3,44.9 127.9,44.6 124.5,44.5 121.1,44.5 117.6,44.7 114.1,45.1 110.6,45.6    107.2,46.2 103.8,47.1 100.4,48 97,49.2 93.7,50.4 90.5,51.9 87.4,53.4 84.4,55 81.6,56.8 78.8,58.7 76.2,60.7 73.8,62.8    71.4,64.9 69.2,67.2 67.1,69.6 65.2,72 63.4,74.5 61.8,77.1 60.2,79.7 58.8,82.4 57.6,85.2 56.6,88 55.6,90.8 54.9,93.7 54.3,96.6    53.8,99.5 53.6,102.5 53.4,105.5 53.5,108.5 53.7,111.5 54.1,114.5 54.7,117.5 55.4,120.5 56.4,123.5 57.5,126.4 58.8,129.4    60.3,132.3 61.8,135.1 63.7,137.8 65.6,140.3 67.6,142.8 69.7,145.2 72,147.4 74.4,149.6 76.9,151.6 79.5,153.6 82.2,155.3    85.1,157.1 87.9,158.6 90.9,160.1 93.9,161.4 97.1,162.6 100.2,163.7 103.4,164.6 106.7,165.4 110,166.1 113.3,166.6 116.7,166.9    120.1,167.2 123.6,167.3 127,167.2 130.5,167.1 133.9,166.7 137.4,166.2 140.8,165.6 144.3,164.8 147.7,163.8  " /><polygon
       id="XMLID_27_"
       class="st0"
       points="211.2,55.3 210.6,54.8 210,54.3 209.5,53.8 208.9,53.2 208.3,52.8 207.7,52.2    207.2,51.7 206.6,51.2 206.2,50.7 205.6,50.2 205.1,49.7 204.5,49.3 204,48.8 203.5,48.4 202.9,48 202.4,47.5 201.8,47.1    201.3,46.7 200.7,46.3 200.2,46 199.6,45.6 199.1,45.3 198.4,45 197.9,44.7 197.2,44.4 196.6,44.2 196,44 195.4,43.8 194.7,43.6    194,43.4 193.3,43.3 192.6,43.2 191.9,43.1 191.2,43.1 190.4,43 189.6,43 188.8,43 188,43 187.1,43.1 186.4,43.1 185.5,43.2    184.5,43.3 183.7,43.4 182.7,43.6 181.8,43.7 180.7,43.9 179.8,44.1 178.8,44.3 177.7,44.6 176.6,44.9 175.5,45.1 174.4,45.5    173.2,45.8 172,46.2 170.8,46.6 169.5,47 168.2,47.4 166.9,47.9 165.6,48.4 164.2,48.8 162.7,49.4 161.3,49.9 159.8,50.6    158.2,51.2 157.1,51.7 156,52.1 154.8,52.6 153.6,53 152.4,53.4 151.2,53.7 150,54.1 148.8,54.4 147.6,54.7 146.3,55 145.1,55.2    143.9,55.4 142.7,55.6 141.5,55.7 140.3,55.8 139.1,55.8 138,55.8 136.8,55.8 135.7,55.7 134.6,55.6 133.5,55.4 132.4,55.2    131.4,54.9 130.5,54.5 129.4,54.2 128.6,53.7 127.6,53.2 126.8,52.6 126,52 125.2,51.3 124.5,50.6 123.8,49.7 123.6,49.3    123.3,48.9 123,48.5 122.8,48.1 122.5,47.6 122.2,47.1 122,46.6 121.8,46.2 121.5,45.6 121.3,45.1 121,44.4 120.7,43.9 120.5,43.3    120.3,42.6 120,41.9 119.8,41.2 119.6,40.5 119.3,39.7 119.1,39 118.8,38.1 118.5,37.3 118.3,36.4 118.1,35.5 117.8,34.6    117.6,33.6 117.3,32.6 117,31.5 116.8,30.5 116.6,29.3 116.2,28.2 116,27.1 115.7,25.8 77.6,116.3 77.8,116.8 78,117.4 78.3,118.1    78.6,118.7 78.8,119.4 79.1,120.1 79.3,120.8 79.5,121.5 79.8,122.2 80,123 80.2,123.7 80.5,124.4 80.7,125.2 80.9,126 81.2,126.7    81.4,127.5 81.7,128.2 81.9,129 82.2,129.7 82.4,130.4 82.8,131.2 83,131.9 83.3,132.6 83.6,133.3 83.9,134 84.2,134.6 84.5,135.3    84.9,135.9 85.2,136.5 85.6,137.1 85.9,137.6 86.3,138.2 86.9,138.5 87.4,138.9 87.9,139.2 88.4,139.6 88.8,139.8 89.2,140.2    89.6,140.4 90,140.7 90.3,140.9 90.7,141.1 91.1,141.3 91.4,141.5 91.7,141.7 92,142 92.4,142.1 92.7,142.3 93,142.4 93.4,142.6    93.7,142.8 94.1,142.9 94.5,143.1 94.9,143.2 95.4,143.3 95.9,143.5 96.3,143.6 96.9,143.7 97.4,143.9 98,144.1 98.6,144.2    99.3,144.4 100,144.5 100.8,144.7 101.8,144.8 102.9,144.9 104.1,144.8 105.4,144.7 106.8,144.5 108.3,144.2 109.8,143.7    111.3,143.3 112.9,142.8 114.6,142.2 116.3,141.6 118,140.9 119.7,140.2 121.4,139.5 123.1,138.7 124.8,137.9 126.5,137.1    128.2,136.3 129.8,135.6 131.4,134.7 132.9,134 134.3,133.2 135.7,132.5 137.1,131.7 138.3,131 139.4,130.4 140.5,129.9    141.3,129.3 142.1,128.8 142.8,128.5 143.4,128.2 143.8,127.9 145.9,126.8 148,125.8 150,124.8 151.8,123.8 153.6,123 155.3,122.2    156.9,121.5 158.5,120.9 159.9,120.3 161.3,119.8 162.7,119.4 163.9,119 165.1,118.7 166.2,118.5 167.3,118.3 168.3,118.3    169.3,118.3 170.2,118.3 171.1,118.5 171.9,118.7 172.7,119.1 173.5,119.5 174.2,119.9 174.9,120.5 175.6,121.2 176.2,121.8    176.9,122.7 177.5,123.6 178.1,124.5 178.7,125.5 179.2,126.7 179.8,127.9  " /><polygon
       id="XMLID_26_"
       points="192.4,44.3 193.1,44.4 193.7,44.5 194.3,44.7 195,44.8 195.5,45 196.1,45.2 196.7,45.4 197.2,45.7    197.8,46 198.4,46.2 198.9,46.6 199.4,46.9 199.9,47.3 200.5,47.6 201,48 201.5,48.4 202.1,48.8 202.5,49.2 203.1,49.7 203.6,50.1    204.1,50.6 204.7,51 205.2,51.5 205.7,52 206.2,52.5 206.8,53 207.4,53.5 207.9,54.1 208.5,54.5 209.1,55.1 209.7,55.6 210.3,56.1    212.2,54.5 211.5,54 211,53.5 210.4,53 209.8,52.5 209.2,51.9 208.7,51.5 208.1,51 207.6,50.4 207.1,49.9 206.6,49.5 206,49    205.5,48.5 204.9,48 204.4,47.5 203.8,47.1 203.2,46.6 202.7,46.2 202.1,45.8 201.5,45.4 201,45.1 200.3,44.7 199.8,44.3 199.1,44    198.5,43.7 197.8,43.4 197.2,43.1 196.5,42.9 195.7,42.7 195,42.5 194.3,42.3 193.5,42.2 192.8,42  " /><polygon
       id="XMLID_25_"
       points="158.9,52.2 160.4,51.6 161.9,51 163.3,50.4 164.7,49.9 166.1,49.4 167.4,48.9 168.7,48.4 170,48    171.2,47.6 172.5,47.3 173.6,46.9 174.7,46.5 175.8,46.2 177,46 178.1,45.7 179.1,45.4 180.1,45.2 181.1,45 182,44.8 183,44.7    183.8,44.5 184.8,44.4 185.6,44.3 186.4,44.2 187.3,44.2 188.1,44.2 188.8,44.1 189.6,44.1 190.3,44.2 191.1,44.2 191.7,44.2    192.4,44.3 192.8,42 192,42 191.2,41.9 190.5,41.9 189.6,41.8 188.8,41.8 187.9,41.8 187.1,41.9 186.2,42 185.3,42 184.4,42.2    183.4,42.3 182.5,42.5 181.5,42.6 180.5,42.8 179.5,43 178.5,43.2 177.4,43.5 176.2,43.8 175.1,44 174,44.4 172.8,44.7 171.6,45.1    170.3,45.5 169.1,45.9 167.7,46.4 166.5,46.8 165,47.3 163.7,47.8 162.2,48.4 160.8,48.9 159.3,49.5 157.7,50.2  " /><polygon
       id="XMLID_24_"
       points="122.7,50.3 123.4,51.2 124.2,52.1 125.1,52.8 126,53.5 126.9,54.1 127.8,54.7 128.9,55.2    129.9,55.6 131,56 132.1,56.3 133.2,56.5 134.4,56.7 135.5,56.9 136.7,56.9 138,56.9 139.1,56.9 140.4,56.9 141.6,56.8 142.8,56.7    144.1,56.5 145.4,56.3 146.6,56.1 147.9,55.8 149.2,55.5 150.3,55.2 151.6,54.8 152.9,54.4 154.1,54 155.3,53.6 156.5,53.2    157.7,52.7 158.9,52.2 157.7,50.2 156.6,50.6 155.5,51 154.3,51.5 153.1,51.9 151.9,52.3 150.8,52.6 149.6,53 148.4,53.3    147.2,53.6 146,53.9 144.8,54.1 143.6,54.3 142.5,54.4 141.3,54.5 140.2,54.6 139.1,54.7 138,54.7 136.8,54.7 135.8,54.6    134.8,54.5 133.8,54.3 132.8,54.1 131.9,53.9 130.9,53.5 130.1,53.2 129.2,52.8 128.4,52.3 127.6,51.7 126.9,51.2 126.2,50.6    125.6,49.9 124.9,49.1  " /><polygon
       id="XMLID_23_"
       points="117,26.3 114.4,26 114.7,27.3 115,28.5 115.2,29.6 115.5,30.7 115.8,31.8 116,32.8 116.3,33.8    116.6,34.8 116.8,35.7 117,36.7 117.3,37.6 117.5,38.4 117.8,39.2 118.1,40.1 118.3,40.8 118.5,41.6 118.8,42.3 119,42.9    119.2,43.6 119.6,44.2 119.8,44.9 120,45.5 120.3,46 120.5,46.6 120.8,47.1 121.1,47.6 121.3,48.1 121.6,48.6 121.8,49.1    122.2,49.5 122.5,49.9 122.7,50.3 124.9,49.1 124.7,48.7 124.5,48.4 124.2,48 124,47.5 123.7,47.1 123.4,46.6 123.2,46.2 123,45.7    122.7,45.2 122.5,44.7 122.2,44.1 122,43.5 121.8,42.9 121.5,42.3 121.3,41.6 121.1,40.9 120.8,40.2 120.6,39.4 120.3,38.7    120.1,37.9 119.9,37 119.6,36.1 119.3,35.2 119.1,34.3 118.8,33.3 118.6,32.4 118.3,31.3 118.1,30.2 117.8,29.1 117.5,28    117.3,26.8 117,25.6 114.5,25.4 117,25.6 116.1,21.7 114.5,25.4  " /><polygon
       id="XMLID_22_"
       points="78.7,115.9 78.7,116.6 117,26.3 114.5,25.4 76.3,115.9 76.3,116.7 76.3,115.9 76.1,116.3    76.3,116.7  " /><polygon
       id="XMLID_21_"
       points="87.1,137.3 87.4,137.6 87,137 86.7,136.5 86.4,136 86.1,135.4 85.8,134.8 85.4,134.2 85.1,133.5    84.8,132.9 84.5,132.2 84.3,131.5 84,130.8 83.7,130.1 83.5,129.4 83.2,128.6 82.9,127.9 82.7,127.1 82.4,126.4 82.2,125.7    82,124.9 81.7,124.2 81.5,123.4 81.3,122.7 81,121.9 80.8,121.2 80.6,120.5 80.3,119.8 80,119.1 79.8,118.4 79.5,117.7 79.3,117.1    79,116.5 78.7,115.9 76.3,116.7 76.5,117.2 76.8,117.9 77.1,118.5 77.3,119.1 77.6,119.8 77.8,120.5 78,121.2 78.3,121.8    78.5,122.5 78.7,123.3 79,124 79.2,124.8 79.4,125.5 79.7,126.3 79.9,127.1 80.2,127.8 80.4,128.6 80.6,129.3 80.9,130.1    81.2,130.8 81.5,131.5 81.7,132.3 82.1,133 82.4,133.7 82.7,134.4 83,135.1 83.3,135.7 83.7,136.4 84,137 84.4,137.6 84.8,138.2    85.2,138.8 85.5,139.1 85.2,138.8 85.4,138.9 85.5,139.1  " /><polygon
       id="XMLID_20_"
       points="101.1,143.6 100.3,143.4 99.7,143.3 99,143.1 98.4,143 97.8,142.8 97.2,142.6 96.7,142.5    96.3,142.4 95.9,142.3 95.4,142.2 95,142 94.7,141.9 94.3,141.7 94,141.6 93.7,141.5 93.3,141.3 93,141.1 92.7,141 92.4,140.8    92.1,140.7 91.8,140.4 91.4,140.2 91.1,140 90.7,139.8 90.4,139.5 90,139.2 89.6,138.9 89.2,138.7 88.7,138.3 88.2,138 87.7,137.6    87.1,137.3 85.5,139.1 86.1,139.4 86.6,139.8 87.1,140.1 87.5,140.4 88,140.7 88.4,141.1 88.8,141.3 89.2,141.5 89.6,141.8 90,142    90.3,142.3 90.7,142.5 91,142.7 91.4,142.9 91.7,143.1 92.1,143.3 92.4,143.5 92.8,143.6 93.2,143.8 93.6,143.9 94.1,144.1    94.4,144.3 94.9,144.4 95.4,144.6 96,144.7 96.5,144.8 97.1,145 97.7,145.2 98.3,145.3 99,145.5 99.7,145.6 100.5,145.8  " /><polygon
       id="XMLID_19_"
       points="143.1,126.9 143,127 142.6,127.2 142.1,127.5 141.4,127.9 140.6,128.4 139.7,128.9 138.7,129.5    137.6,130.1 136.4,130.8 135,131.5 133.7,132.2 132.2,133 130.7,133.8 129.1,134.5 127.5,135.4 125.9,136.1 124.2,136.9    122.6,137.7 120.8,138.5 119.2,139.2 117.4,139.9 115.8,140.6 114.1,141.1 112.4,141.7 110.9,142.2 109.4,142.7 108,143.1    106.5,143.3 105.2,143.6 104,143.7 102.9,143.7 102,143.7 101.1,143.6 100.5,145.8 101.6,146 102.9,146 104.2,146 105.7,145.8    107.1,145.6 108.6,145.2 110.2,144.8 111.7,144.4 113.4,143.9 115.1,143.3 116.8,142.6 118.5,142 120.3,141.3 122,140.5    123.7,139.8 125.5,138.9 127.1,138.1 128.8,137.4 130.5,136.5 132,135.7 133.5,135 135,134.2 136.5,133.4 137.7,132.7 139,132.1    140.1,131.4 141.2,130.8 142.1,130.3 142.9,129.8 143.6,129.4 144.1,129.1 144.5,128.8 144.4,128.9 143.1,126.9 143,126.9 143,127     " /><polygon
       id="XMLID_18_"
       points="178.6,127.5 181.1,127.5 180.4,126.2 179.9,125.1 179.2,124 178.6,123 178,122 177.3,121.2    176.6,120.4 175.8,119.7 175.1,119.1 174.2,118.5 173.3,118.1 172.4,117.7 171.4,117.4 170.4,117.2 169.4,117.1 168.3,117.1    167.2,117.2 166,117.4 164.8,117.6 163.5,117.9 162.2,118.3 160.8,118.7 159.4,119.2 157.9,119.8 156.3,120.5 154.7,121.2 153,122    151.2,122.9 149.3,123.8 147.3,124.7 145.2,125.8 143.1,126.9 144.4,128.9 146.6,127.7 148.6,126.7 150.6,125.8 152.5,124.9    154.2,124 155.9,123.2 157.5,122.5 159,121.9 160.5,121.3 161.8,120.8 163.1,120.4 164.2,120.1 165.4,119.8 166.5,119.6    167.5,119.4 168.3,119.4 169.2,119.4 170,119.5 170.7,119.6 171.4,119.8 172.1,120.1 172.8,120.4 173.4,120.8 174,121.3    174.6,121.9 175.2,122.5 175.8,123.3 176.3,124.1 177,125 177.5,126 178.1,127.1 178.6,128.3 181.1,128.3 178.6,128.3 179.9,131    181.1,128.3  " /><polygon
       id="XMLID_17_"
       points="210.3,56.1 210,55 178.6,127.5 181.1,128.3 212.4,55.7 212.2,54.5 212.4,55.7 212.7,55 212.2,54.5     " /><polygon
       id="XMLID_16_"
       points="110,20.6 110,20.8 110.1,20.9 110.2,21 110.3,21.2 110.5,21.4 110.6,21.6 110.8,21.8 111,22    111.3,22.2 111.5,22.4 111.7,22.6 112.1,22.9 112.3,23.1 112.6,23.3 112.8,23.5 113.2,23.8 113.4,24 113.7,24.2 114,24.5    114.3,24.7 114.5,24.9 114.7,25.1 115.1,25.3 115.2,25.5 115.5,25.7 115.7,25.9 115.8,26.1 116,26.3 116.1,26.5 116.2,26.6    116.3,26.7 116.3,26.9 114,32 111.7,37.1 109.4,42.3 107.1,47.4 104.8,52.6 102.4,57.7 100.1,62.8 97.8,67.9 95.5,73.1 93.2,78.2    90.9,83.3 88.6,88.5 86.2,93.6 84,98.8 81.7,103.9 79.3,109 77,114.1 74.7,119.3 72.4,124.4 70.1,129.5 67.8,134.7 65.5,139.8    63.1,145 60.8,150.1 58.5,155.2 56.2,160.4 53.9,165.5 51.6,170.7 49.3,175.7 47,180.9 44.6,186 42.3,191.2 42.3,191.1 42.3,190.8    42.2,190.7 42,190.5 41.9,190.4 41.8,190.2 41.6,190 41.4,189.7 41.2,189.5 41,189.3 40.8,189.1 40.5,188.8 40.3,188.6 40.1,188.4    39.8,188.1 39.6,187.9 39.3,187.6 39.1,187.4 38.9,187.1 38.6,186.9 38.4,186.7 38.2,186.5 37.9,186.2 37.8,186 37.5,185.8    37.4,185.6 37.2,185.4 37.1,185.2 37,185 36.9,184.8 36.9,184.7 36.8,184.5 39.1,179.4 41.4,174.3 43.8,169.1 46.1,164.1    48.3,158.9 50.6,153.8 52.9,148.7 55.1,143.5 57.4,138.5 59.7,133.3 62,128.2 64.3,123.1 66.6,117.9 68.9,112.8 71.1,107.7    73.4,102.5 75.7,97.5 77.9,92.3 80.2,87.2 82.5,82.1 84.7,76.9 87,71.8 89.3,66.7 91.6,61.6 93.9,56.5 96.2,51.3 98.5,46.2    100.8,41.1 103.1,36 105.3,30.9 107.6,25.7  " /><polygon
       id="XMLID_15_"
       points="116.1,26.7 116.1,26.8 116,26.7 116,26.6 115.8,26.5 115.8,26.3 115.6,26.2 115.5,26 115.3,25.8    115.1,25.6 114.9,25.4 114.7,25.2 114.3,25 114.1,24.8 113.9,24.6 113.6,24.3 113.3,24.1 113,23.9 112.7,23.6 112.4,23.4    112.1,23.2 111.9,23 111.6,22.8 111.3,22.5 111.1,22.3 110.9,22.1 110.6,21.9 110.5,21.7 110.2,21.5 110.1,21.3 109.9,21.1    109.8,20.9 109.8,20.8 109.7,20.6 110.2,20.7 110.3,20.8 110.3,20.9 110.4,21 110.6,21.2 110.6,21.3 110.8,21.5 111,21.7    111.2,21.9 111.4,22.1 111.7,22.3 111.9,22.5 112.2,22.8 112.4,23 112.7,23.2 113,23.4 113.3,23.6 113.6,23.9 113.9,24.1    114.1,24.3 114.4,24.5 114.7,24.7 114.9,24.9 115.2,25.2 115.5,25.4 115.6,25.6 115.8,25.8 116,26 116.2,26.2 116.3,26.4    116.5,26.6 116.6,26.7 116.6,26.9 116.6,27 116.6,26.9 116.6,27 116.6,27  " /><polygon
       id="XMLID_14_"
       points="42.7,191.3 42.1,191.1 44.4,185.9 46.7,180.8 49,175.6 51.3,170.5 53.6,165.4 55.9,160.2    58.2,155.1 60.6,149.9 62.9,144.8 65.2,139.7 67.5,134.5 69.8,129.4 72.1,124.2 74.4,119.2 76.8,114 79.1,108.9 81.3,103.7    83.7,98.6 86,93.5 88.3,88.3 90.6,83.2 93,78 95.2,72.9 97.5,67.8 99.9,62.6 102.2,57.5 104.5,52.4 106.8,47.3 109.1,42.1    111.4,37 113.7,31.8 116.1,26.7 116.6,27 114.3,32.2 112,37.3 109.7,42.5 107.3,47.5 105,52.7 102.7,57.8 100.4,63 98.1,68.1    95.8,73.2 93.5,78.4 91.1,83.5 88.8,88.7 86.6,93.8 84.2,98.9 81.9,104.1 79.6,109.2 77.2,114.3 75,119.4 72.7,124.6 70.4,129.7    68,134.9 65.7,140 63.4,145.1 61.1,150.3 58.8,155.4 56.5,160.5 54.2,165.6 51.8,170.8 49.5,175.9 47.2,181.1 44.9,186.2    42.7,191.3 42.1,191.1 42.7,191.3 42.3,192.1 42.1,191.1  " /><polygon
       id="XMLID_13_"
       points="37.1,184.7 37.1,184.6 37.1,184.7 37.2,184.9 37.3,185 37.4,185.1 37.4,185.4 37.6,185.5    37.8,185.7 37.9,185.9 38.2,186.1 38.3,186.4 38.6,186.6 38.8,186.8 39,187.1 39.3,187.3 39.5,187.5 39.7,187.8 40,188 40.3,188.2    40.5,188.4 40.8,188.7 41,188.9 41.2,189.2 41.4,189.4 41.6,189.6 41.8,189.9 42,190.1 42.2,190.3 42.3,190.5 42.4,190.7    42.5,190.9 42.6,191.1 42.7,191.3 42.1,191.1 42,191 42,190.8 41.9,190.7 41.8,190.6 41.7,190.4 41.6,190.2 41.4,190 41.2,189.8    41,189.6 40.8,189.4 40.6,189.1 40.4,188.9 40.1,188.6 39.9,188.4 39.7,188.2 39.4,188 39.2,187.8 38.9,187.5 38.6,187.3 38.4,187    38.2,186.8 38,186.5 37.8,186.3 37.5,186.1 37.4,185.8 37.2,185.6 37.1,185.4 36.9,185.2 36.7,185 36.7,184.8 36.6,184.7    36.6,184.5 36.6,184.4 36.6,184.5 36.6,184.4  " /><polygon
       id="XMLID_12_"
       points="109.7,20.6 110.2,20.8 108,25.9 105.7,31 103.4,36.1 101.1,41.3 98.7,46.4 96.4,51.5 94.1,56.6    91.9,61.8 89.6,66.9 87.3,72 85.1,77.1 82.8,82.2 80.5,87.4 78.2,92.4 75.9,97.6 73.7,102.7 71.4,107.8 69.1,113 66.8,118.1    64.5,123.2 62.2,128.4 60,133.4 57.7,138.6 55.4,143.7 53.2,148.8 50.9,154 48.6,159.1 46.3,164.2 44,169.3 41.7,174.4 39.4,179.6    37.1,184.7 36.6,184.4 38.9,179.2 41.2,174.1 43.4,169 45.7,163.9 48,158.8 50.3,153.6 52.6,148.5 54.9,143.4 57.2,138.2    59.5,133.2 61.8,128 64.1,122.9 66.3,117.8 68.6,112.6 70.8,107.6 73.1,102.4 75.4,97.3 77.7,92.2 79.9,87 82.2,81.9 84.5,76.8    86.8,71.7 89.1,66.6 91.4,61.4 93.7,56.3 96,51.2 98.2,46.1 100.5,40.9 102.8,35.8 105.1,30.7 107.4,25.6 109.7,20.5 110.2,20.7    109.7,20.5 110.1,19.7 110.2,20.7  " /></g><text
     class="st1 st2"
     id="text24"
     x="30.562389"
     y="235.10545"
     style="font-size:50px;font-family:'Arial Black', 'Arial Bold', Gadget, sans-serif">START</text>
</svg>