<?xml version="1.0" encoding="UTF-8" standalone="no"?>
<!-- Generator: Adobe Illustrator 19.0.0, SVG Export Plug-In . SVG Version: 6.00 Build 0)  -->

<svg
   xmlns:dc="http://purl.org/dc/elements/1.1/"
   xmlns:cc="http://creativecommons.org/ns#"
   xmlns:rdf="http://www.w3.org/1999/02/22-rdf-syntax-ns#"
   xmlns:svg="http://www.w3.org/2000/svg"
   xmlns="http://www.w3.org/2000/svg"
   xmlns:sodipodi="http://sodipodi.sourceforge.net/DTD/sodipodi-0.dtd"
   xmlns:inkscape="http://www.inkscape.org/namespaces/inkscape"
   version="1.1"
   id="Layer_1"
   x="0px"
   y="0px"
   viewBox="0 0 180 200"
   xml:space="preserve"
   inkscape:version="0.91 r13725"
   sodipodi:docname="stone.svg"
   width="180"
   height="200"><metadata
     id="metadata15"><rdf:RDF><cc:Work
         rdf:about=""><dc:format>image/svg+xml</dc:format><dc:type
           rdf:resource="http://purl.org/dc/dcmitype/StillImage" /><dc:title /></cc:Work></rdf:RDF></metadata><defs
     id="defs13" /><sodipodi:namedview
     pagecolor="#ffffff"
     bordercolor="#666666"
     borderopacity="1"
     objecttolerance="10"
     gridtolerance="10"
     guidetolerance="10"
     inkscape:pageopacity="0"
     inkscape:pageshadow="2"
     inkscape:window-width="1920"
     inkscape:window-height="1017"
     id="namedview11"
     showgrid="false"
     inkscape:zoom="7.0666662"
     inkscape:cx="89.999997"
     inkscape:cy="99.999984"
     inkscape:window-x="-8"
     inkscape:window-y="-8"
     inkscape:window-maximized="1"
     inkscape:current-layer="text3344" /><style
     type="text/css"
     id="style3">
	.st0{font-family:&quot;Arial Black&quot;, &quot;Arial Bold&quot;, Gadget, sans-serif;}
	.st1{font-size:118.4014px;}
	
		.st2{fill-rule:evenodd;clip-rule:evenodd;fill:none;stroke:#000000;stroke-width:18.9859;stroke-linecap:round;stroke-miterlimit:10;}
</style><flowRoot
     xml:space="preserve"
     id="flowRoot3336"
     style="fill:black;stroke:none;stroke-opacity:1;stroke-width:1px;stroke-linejoin:miter;stroke-linecap:butt;fill-opacity:1;font-family:Arial;font-style:normal;font-weight:900;font-size:40px;line-height:125%;letter-spacing:0px;word-spacing:0px;-inkscape-font-specification:'Arial, Heavy';font-stretch:normal;font-variant:normal;text-anchor:middle;text-align:center;writing-mode:lr"><flowRegion
       id="flowRegion3338"><rect
         id="rect3340"
         width="142.58875"
         height="86.720642"
         x="17.510899"
         y="69.919037" /></flowRegion><flowPara
       id="flowPara3342" /></flowRoot><g
     transform="scale(0.83369442,1.1994803)"
     style="font-style:normal;font-variant:normal;font-weight:900;font-stretch:normal;font-size:135.0617981px;line-height:125%;font-family:Arial;-inkscape-font-specification:'Arial, Heavy';text-align:center;letter-spacing:0px;word-spacing:0px;writing-mode:lr-tb;text-anchor:middle;fill:#000000;fill-opacity:1;stroke:none;stroke-width:1px;stroke-linecap:butt;stroke-linejoin:miter;stroke-opacity:1"
     id="text3344"><path
       d="m 73.858032,92.17353 26.181408,7.91378 q -2.637921,11.01334 -8.309461,18.39953 -5.671541,7.38619 -14.112903,11.14524 -8.375414,3.75904 -21.367199,3.75904 -15.761606,0 -25.785724,-4.55042 -9.958169,-4.61637 -17.212465,-16.1573 -7.254296,-11.54092 -7.254296,-29.544766 0,-24.005124 12.727992,-36.865012 12.79394,-12.925836 36.139582,-12.925836 18.267636,0 28.687443,7.386192 10.485755,7.386192 15.563762,22.686161 l -26.379258,5.869385 q -1.384911,-4.418526 -2.901718,-6.462918 -2.506029,-3.429303 -6.133177,-5.275852 -3.627148,-1.846548 -8.111622,-1.846548 -10.156014,0 -15.563762,8.17757 -4.088785,6.067229 -4.088785,19.059014 0,16.091347 4.880163,22.09263 4.880162,5.93533 13.717214,5.93533 8.573258,0 12.925836,-4.81421 4.418525,-4.81422 6.39697,-13.98101 z"
       style=""
       id="path3374" /><path
       d="m 107.82132,34.996489 32.90813,0 17.14651,29.742613 16.61894,-29.742613 32.57838,0 -30.07236,46.823182 32.90813,49.856799 -33.56761,0 -19.05901,-31.06158 -19.12496,31.06158 -33.36976,0 33.36976,-50.384384 -30.33615,-46.295597 z"
       style=""
       id="path3376" /></g></svg>