<?xml version="1.0" encoding="UTF-8" standalone="no"?>
<!-- Generator: Adobe Illustrator 19.0.0, SVG Export Plug-In . SVG Version: 6.00 Build 0)  -->

<svg
   xmlns:dc="http://purl.org/dc/elements/1.1/"
   xmlns:cc="http://creativecommons.org/ns#"
   xmlns:rdf="http://www.w3.org/1999/02/22-rdf-syntax-ns#"
   xmlns:svg="http://www.w3.org/2000/svg"
   xmlns="http://www.w3.org/2000/svg"
   xmlns:sodipodi="http://sodipodi.sourceforge.net/DTD/sodipodi-0.dtd"
   xmlns:inkscape="http://www.inkscape.org/namespaces/inkscape"
   version="1.1"
   id="Layer_1"
   x="0px"
   y="0px"
   viewBox="0 0 180 200"
   xml:space="preserve"
   inkscape:version="0.91 r13725"
   sodipodi:docname="to-take.svg"
   width="180"
   height="200"><metadata
     id="metadata15"><rdf:RDF><cc:Work
         rdf:about=""><dc:format>image/svg+xml</dc:format><dc:type
           rdf:resource="http://purl.org/dc/dcmitype/StillImage" /><dc:title /></cc:Work></rdf:RDF></metadata><defs
     id="defs13" /><sodipodi:namedview
     pagecolor="#ffffff"
     bordercolor="#666666"
     borderopacity="1"
     objecttolerance="10"
     gridtolerance="10"
     guidetolerance="10"
     inkscape:pageopacity="0"
     inkscape:pageshadow="2"
     inkscape:window-width="1920"
     inkscape:window-height="1017"
     id="namedview11"
     showgrid="false"
     inkscape:zoom="7.0666663"
     inkscape:cx="90.000007"
     inkscape:cy="99.999994"
     inkscape:window-x="1912"
     inkscape:window-y="-8"
     inkscape:window-maximized="1"
     inkscape:current-layer="text3344" /><style
     type="text/css"
     id="style3">
	.st0{font-family:&quot;Arial Black&quot;, &quot;Arial Bold&quot;, Gadget, sans-serif;}
	.st1{font-size:118.4014px;}
	
		.st2{fill-rule:evenodd;clip-rule:evenodd;fill:none;stroke:#000000;stroke-width:18.9859;stroke-linecap:round;stroke-miterlimit:10;}
</style><flowRoot
     xml:space="preserve"
     id="flowRoot3336"
     style="fill:black;stroke:none;stroke-opacity:1;stroke-width:1px;stroke-linejoin:miter;stroke-linecap:butt;fill-opacity:1;font-family:Arial;font-style:normal;font-weight:900;font-size:40px;line-height:125%;letter-spacing:0px;word-spacing:0px;-inkscape-font-specification:'Arial, Heavy';font-stretch:normal;font-variant:normal;text-anchor:middle;text-align:center;writing-mode:lr"><flowRegion
       id="flowRegion3338"><rect
         id="rect3340"
         width="142.58875"
         height="86.720642"
         x="17.510899"
         y="69.919037" /></flowRegion><flowPara
       id="flowPara3342" /></flowRoot><g
     transform="scale(0.85696112,1.1669141)"
     style="font-style:normal;font-variant:normal;font-weight:900;font-stretch:normal;font-size:143.66082764px;line-height:125%;font-family:Arial;-inkscape-font-specification:'Arial, Heavy';text-align:center;letter-spacing:0px;word-spacing:0px;writing-mode:lr-tb;text-anchor:middle;fill:#000000;fill-opacity:1;stroke:none;stroke-width:1px;stroke-linecap:butt;stroke-linejoin:miter;stroke-opacity:1"
     id="text3344"><path
       d="m 5.8345772,137.11378 0,-102.835334 52.9609008,0 q 14.730847,0 22.517151,2.525288 7.786305,2.525288 12.556293,9.399683 4.769989,6.804248 4.769989,16.624813 0,8.55792 -3.647639,14.800993 -3.647638,6.172927 -10.031005,10.031005 -4.068519,2.455141 -11.153355,4.06852 5.681898,1.893966 8.277333,3.787932 1.753672,1.262644 5.050576,5.40131 3.367051,4.13867 4.489401,6.38337 l 15.362168,29.81242 -35.915206,0 -16.975548,-31.4258 q -3.226756,-6.102781 -5.752044,-7.9266 -3.437198,-2.384994 -7.786305,-2.384994 l -2.805876,0 0,41.737394 -31.9168338,0 z m 31.9168338,-61.168082 13.398056,0 q 2.174554,0 8.417627,-1.402938 3.15661,-0.631322 5.120723,-3.226757 2.034259,-2.595434 2.034259,-5.962485 0,-4.980429 -3.15661,-7.646011 -3.15661,-2.665582 -11.854824,-2.665582 l -13.959231,0 0,20.903773 z"
       style=""
       id="path4140" /><path
       d="m 116.94725,34.278446 52.8206,0 q 17.25614,0 25.81406,8.207186 8.62806,8.207186 8.62806,23.358914 0,15.572609 -9.39968,24.34097 -9.32953,8.768361 -28.54978,8.768361 l -17.39643,0 0,38.159903 -31.91683,0 0,-102.835334 z m 31.91683,43.841806 7.7863,0 q 9.18925,0 12.90703,-3.15661 3.71779,-3.226757 3.71779,-8.207186 0,-4.840136 -3.22676,-8.207186 -3.22676,-3.367051 -12.13541,-3.367051 l -9.04895,0 0,22.938033 z"
       style=""
       id="path4142" /></g></svg>