<?xml version="1.0" encoding="UTF-8" standalone="no"?>
<!-- Generator: Adobe Illustrator 19.0.0, SVG Export Plug-In . SVG Version: 6.00 Build 0)  -->

<svg
   xmlns:dc="http://purl.org/dc/elements/1.1/"
   xmlns:cc="http://creativecommons.org/ns#"
   xmlns:rdf="http://www.w3.org/1999/02/22-rdf-syntax-ns#"
   xmlns:svg="http://www.w3.org/2000/svg"
   xmlns="http://www.w3.org/2000/svg"
   xmlns:sodipodi="http://sodipodi.sourceforge.net/DTD/sodipodi-0.dtd"
   xmlns:inkscape="http://www.inkscape.org/namespaces/inkscape"
   version="1.1"
   id="Layer_1"
   x="0px"
   y="0px"
   viewBox="0 0 180 200"
   xml:space="preserve"
   inkscape:version="0.91 r13725"
   sodipodi:docname="vegetation.svg"
   width="180"
   height="200"><metadata
     id="metadata15"><rdf:RDF><cc:Work
         rdf:about=""><dc:format>image/svg+xml</dc:format><dc:type
           rdf:resource="http://purl.org/dc/dcmitype/StillImage" /><dc:title /></cc:Work></rdf:RDF></metadata><defs
     id="defs13" /><sodipodi:namedview
     pagecolor="#ffffff"
     bordercolor="#666666"
     borderopacity="1"
     objecttolerance="10"
     gridtolerance="10"
     guidetolerance="10"
     inkscape:pageopacity="0"
     inkscape:pageshadow="2"
     inkscape:window-width="1920"
     inkscape:window-height="1017"
     id="namedview11"
     showgrid="false"
     inkscape:zoom="7.0666663"
     inkscape:cx="90.000003"
     inkscape:cy="99.999943"
     inkscape:window-x="-8"
     inkscape:window-y="-8"
     inkscape:window-maximized="1"
     inkscape:current-layer="text3344" /><style
     type="text/css"
     id="style3">
	.st0{font-family:&quot;Arial Black&quot;, &quot;Arial Bold&quot;, Gadget, sans-serif;}
	.st1{font-size:118.4014px;}
	
		.st2{fill-rule:evenodd;clip-rule:evenodd;fill:none;stroke:#000000;stroke-width:18.9859;stroke-linecap:round;stroke-miterlimit:10;}
</style><flowRoot
     xml:space="preserve"
     id="flowRoot3336"
     style="fill:black;stroke:none;stroke-opacity:1;stroke-width:1px;stroke-linejoin:miter;stroke-linecap:butt;fill-opacity:1;font-family:Arial;font-style:normal;font-weight:900;font-size:40px;line-height:125%;letter-spacing:0px;word-spacing:0px;-inkscape-font-specification:'Arial, Heavy';font-stretch:normal;font-variant:normal;text-anchor:middle;text-align:center;writing-mode:lr"><flowRegion
       id="flowRegion3338"><rect
         id="rect3340"
         width="142.58875"
         height="86.720642"
         x="17.510899"
         y="69.919037" /></flowRegion><flowPara
       id="flowPara3342" /></flowRoot><g
     transform="scale(0.83153915,1.2025892)"
     style="font-style:normal;font-variant:normal;font-weight:900;font-stretch:normal;font-size:134.80149841px;line-height:125%;font-family:Arial;-inkscape-font-specification:'Arial, Heavy';text-align:center;letter-spacing:0px;word-spacing:0px;writing-mode:lr-tb;text-anchor:middle;fill:#000000;fill-opacity:1;stroke:none;stroke-width:1px;stroke-linecap:butt;stroke-linejoin:miter;stroke-opacity:1"
     id="text3344"><path
       d="m 6.0129494,34.907137 31.1991746,0 21.720945,69.441203 21.391839,-69.441203 30.277682,0 -35.806649,96.493653 -32.318133,0 L 6.0129494,34.907137 Z"
       style=""
       id="path3348" /><path
       d="m 164.37838,96.449813 0,-20.075419 46.07473,0 0,41.138156 q -13.23003,9.01748 -23.43229,12.30853 -10.13644,3.22523 -24.0905,3.22523 -17.17929,0 -28.03977,-5.85807 -10.79465,-5.85807 -16.78436,-17.44258 -5.9239,-11.5845 -5.9239,-26.591698 0,-15.797051 6.51629,-27.447375 6.51628,-11.716146 19.0881,-17.771682 9.80734,-4.673294 26.39424,-4.673294 15.99451,0 23.89304,2.896125 7.96434,2.896126 13.16421,9.017484 5.26568,6.055536 7.89852,15.402124 l -28.76379,5.134041 q -1.77717,-5.463146 -6.05554,-8.359272 -4.21255,-2.896126 -10.79465,-2.896126 -9.80734,0 -15.66541,6.845388 -5.79225,6.779568 -5.79225,21.523482 0,15.665408 5.85807,22.379153 5.92389,6.71375 16.45526,6.71375 5.0024,0 9.54405,-1.44806 4.54166,-1.44807 10.39973,-4.93658 l 0,-9.083307 -19.94378,0 z"
       style=""
       id="path3350" /></g></svg>