<?xml version="1.0" encoding="UTF-8" standalone="no"?>
<!-- Generator: Adobe Illustrator 19.0.0, SVG Export Plug-In . SVG Version: 6.00 Build 0)  -->

<svg
   xmlns:dc="http://purl.org/dc/elements/1.1/"
   xmlns:cc="http://creativecommons.org/ns#"
   xmlns:rdf="http://www.w3.org/1999/02/22-rdf-syntax-ns#"
   xmlns:svg="http://www.w3.org/2000/svg"
   xmlns="http://www.w3.org/2000/svg"
   xmlns:sodipodi="http://sodipodi.sourceforge.net/DTD/sodipodi-0.dtd"
   xmlns:inkscape="http://www.inkscape.org/namespaces/inkscape"
   version="1.1"
   id="Layer_1"
   x="0px"
   y="0px"
   viewBox="0 0 250 250"
   style="enable-background:new 0 0 250 250;"
   xml:space="preserve"
   inkscape:version="0.91 r13725"
   sodipodi:docname="village.svg"><metadata
     id="metadata12"><rdf:RDF><cc:Work
         rdf:about=""><dc:format>image/svg+xml</dc:format><dc:type
           rdf:resource="http://purl.org/dc/dcmitype/StillImage" /></cc:Work></rdf:RDF></metadata><defs
     id="defs10" /><sodipodi:namedview
     pagecolor="#ffffff"
     bordercolor="#666666"
     borderopacity="1"
     objecttolerance="10"
     gridtolerance="10"
     guidetolerance="10"
     inkscape:pageopacity="0"
     inkscape:pageshadow="2"
     inkscape:window-width="1920"
     inkscape:window-height="1017"
     id="namedview8"
     showgrid="false"
     inkscape:zoom="5.7687075"
     inkscape:cx="124.2"
     inkscape:cy="124.8"
     inkscape:window-x="-8"
     inkscape:window-y="-8"
     inkscape:window-maximized="1"
     inkscape:current-layer="XMLID_14_" /><style
     type="text/css"
     id="style3">
	.st0{fill-rule:evenodd;clip-rule:evenodd;}
</style><g
     id="XMLID_14_"><path
       id="XMLID_13_"
       class="st0"
       d="M211.9,121.5l-0.3-3.7l-0.5-3.7l-0.7-3.6l-1-3.6l-1.2-3.5l-1.4-3.4l-1.6-3.3l-1.8-3.2l-2-3.2   l-2.1-3.1l-2.3-3l-2.4-2.9l-2.6-2.8l-2.8-2.7l-2.9-2.6l-3.1-2.4l-3.2-2.3l-3.3-2.2l-3.5-2l-3.5-1.9l-3.7-1.8l-3.8-1.6l-3.9-1.5   l-4-1.3l-4.1-1.1l-4.2-1l-4.2-0.8l-4.3-0.7l-4.3-0.5l-4.5-0.3l-4.5-0.1l-4.5,0.1l-4.5,0.3l-4.3,0.5l-4.3,0.7l-4.2,0.8l-4.2,1   l-4.1,1.1l-4,1.3L86.2,59l-3.8,1.6l-3.7,1.8l-3.5,1.9l-3.5,2l-3.3,2.2l-3.2,2.3l-3.1,2.4l-2.9,2.6l-2.8,2.7l-2.6,2.8l-2.4,2.9   l-2.3,3L47,90.3l-2,3.2l-1.8,3.2l-1.6,3.3l-1.4,3.4l-1.2,3.5l-1,3.6l-0.7,3.6l-0.5,3.7l-0.3,3.7l-0.1,3.7l0.1,3.7l0.3,3.7l0.5,3.7   l0.7,3.6l1,3.6l1.2,3.5l1.4,3.4l1.6,3.3l1.8,3.2l2,3.2l2.1,3.1l2.3,3l2.4,2.9l2.6,2.8l2.8,2.7l2.9,2.6l3.1,2.4l3.2,2.3l3.3,2.2   l3.5,2l3.5,1.9l3.7,1.8l3.8,1.6l3.9,1.5l4,1.3l4.1,1.1l4.2,1l4.2,0.8l4.3,0.7l4.3,0.5l4.5,0.3l4.5,0.1l4.5-0.1l4.5-0.3l4.3-0.5   l4.3-0.7l4.2-0.8l4.2-1l4.1-1.1l4-1.3l3.9-1.5l3.8-1.6l3.7-1.8l3.5-1.9l3.5-2l3.3-2.2l3.2-2.3l3.1-2.4l2.9-2.6l2.8-2.7l2.6-2.8   l2.4-2.9l2.3-3l2.1-3.1l2-3.2l1.8-3.2l1.6-3.3l1.4-3.4l1.2-3.5l1-3.6l0.7-3.6l0.5-3.7l0.3-3.7l0.1-3.7L211.9,121.5z M195.3,128.3   l-0.3,3l-0.5,3l-0.6,3l-0.8,2.9l-1,2.8l-1.2,2.8l-1.3,2.7l-1.4,2.6l-1.6,2.6l-1.7,2.5l-1.8,2.4l-2,2.3l-2.1,2.2l-2.2,2.2l-2.4,2   l-2.4,2l-2.6,1.9l-2.7,1.8l-2.8,1.6l-2.8,1.6l-3,1.4l-3.1,1.3l-3.1,1.2l-3.3,1.1l-3.3,0.9l-3.4,0.9l-3.5,0.6l-3.5,0.6l-3.6,0.3   l-3.6,0.2l-3.6,0.1l-3.7-0.1l-3.6-0.2l-3.6-0.3l-3.5-0.6l-3.5-0.6l-3.4-0.9l-3.3-0.9l-3.3-1.1l-3.1-1.2l-3.1-1.3l-3-1.4l-2.8-1.6   l-2.8-1.6l-2.7-1.8l-2.6-1.9l-2.4-2l-2.4-2l-2.2-2.2l-2.1-2.2l-2-2.3l-1.8-2.4l-1.7-2.5l-1.6-2.6l-1.4-2.6l-1.3-2.7l-1.2-2.8   l-1-2.8l-0.8-2.9l-0.6-3l-0.5-3l-0.3-3l-0.1-3.1l0.1-3.1l0.3-3l0.5-3l0.6-3l0.8-2.9l1-2.8l1.2-2.8l1.3-2.7l1.4-2.6l1.6-2.6l1.7-2.5   l1.8-2.4l2-2.3l2.1-2.2l2.2-2.2l2.4-2l2.4-2l2.6-1.9l2.7-1.8l2.8-1.6l2.8-1.6l3-1.4l3.1-1.3l3.1-1.2l3.3-1.1l3.3-0.9l3.4-0.9   l3.5-0.6l3.5-0.6L117,66l3.6-0.2l3.7-0.1l3.6,0.1l3.6,0.2l3.6,0.3l3.5,0.6l3.5,0.6l3.4,0.9l3.3,0.9l3.3,1.1l3.1,1.2l3.1,1.3l3,1.4   l2.8,1.6l2.8,1.6l2.7,1.8l2.6,1.9l2.4,2l2.4,2l2.2,2.2l2.1,2.2l2,2.3l1.8,2.4l1.7,2.5l1.6,2.6l1.4,2.6l1.3,2.7l1.2,2.8l1,2.8   l0.8,2.9l0.6,3l0.5,3l0.3,3l0.1,3.1L195.3,128.3z" /><path
       style="clip-rule:evenodd;fill-rule:evenodd"
       d="m 78.5,89.9 27.4,0 19,50.9 18.7,-50.9 26.6,0 -31.4,70.7 -28.3,0 z"
       id="XMLID_10_" /></g></svg>