<?xml version="1.0" encoding="UTF-8" standalone="no"?>
<!-- Generator: Adobe Illustrator 19.0.0, SVG Export Plug-In . SVG Version: 6.00 Build 0)  -->

<svg
   xmlns:dc="http://purl.org/dc/elements/1.1/"
   xmlns:cc="http://creativecommons.org/ns#"
   xmlns:rdf="http://www.w3.org/1999/02/22-rdf-syntax-ns#"
   xmlns:svg="http://www.w3.org/2000/svg"
   xmlns="http://www.w3.org/2000/svg"
   xmlns:sodipodi="http://sodipodi.sourceforge.net/DTD/sodipodi-0.dtd"
   xmlns:inkscape="http://www.inkscape.org/namespaces/inkscape"
   version="1.1"
   id="Layer_1"
   x="0px"
   y="0px"
   viewBox="0 0 310 200"
   xml:space="preserve"
   inkscape:version="0.91 r13725"
   sodipodi:docname="wash.svg"
   width="310"
   height="200"><metadata
     id="metadata11"><rdf:RDF><cc:Work
         rdf:about=""><dc:format>image/svg+xml</dc:format><dc:type
           rdf:resource="http://purl.org/dc/dcmitype/StillImage" /><dc:title /></cc:Work></rdf:RDF></metadata><defs
     id="defs9" /><sodipodi:namedview
     pagecolor="#ffffff"
     bordercolor="#666666"
     borderopacity="1"
     objecttolerance="10"
     gridtolerance="10"
     guidetolerance="10"
     inkscape:pageopacity="0"
     inkscape:pageshadow="2"
     inkscape:window-width="1920"
     inkscape:window-height="1017"
     id="namedview7"
     showgrid="false"
     inkscape:zoom="4.7133334"
     inkscape:cx="155"
     inkscape:cy="99.999992"
     inkscape:window-x="-8"
     inkscape:window-y="-8"
     inkscape:window-maximized="1"
     inkscape:current-layer="text5" /><style
     type="text/css"
     id="style3">
	.st0{font-family:&quot;Arial Black&quot;, &quot;Arial Bold&quot;, Gadget, sans-serif;}
	.st1{font-size:75px;}
</style><g
     transform="scale(0.77009186,1.2985464)"
     style="font-size:124.75791931px;font-family:'Arial Black', 'Arial Bold', Gadget, sans-serif"
     id="text5"><path
       d="m 6.492732,77.03965 q 0,-21.869186 12.183391,-34.052577 12.18339,-12.18339 33.930742,-12.18339 22.295605,0 34.357162,12.000639 12.061556,11.939723 12.061556,33.504325 0,15.655656 -5.299775,25.706953 -5.238858,9.99038 -15.229238,15.59474 -9.929463,5.54344 -24.7932,5.54344 -15.107404,0 -25.036867,-4.81244 Q 18.797956,113.5289 12.645344,103.11211 6.492732,92.695307 6.492732,77.03965 Z m 27.59538,0.121834 q 0,13.523563 4.99519,19.432508 5.056107,5.908948 13.706314,5.908948 8.893875,0 13.767231,-5.787114 4.873357,-5.787111 4.873357,-20.772681 0,-12.609809 -5.117024,-18.39692 -5.056107,-5.848027 -13.767232,-5.848027 -8.345622,0 -13.401729,5.908944 -5.056107,5.908944 -5.056107,19.554342 z"
       style="font-size:124.75791931px;font-family:'Arial Black', 'Arial Bold', Gadget, sans-serif"
       id="path3370" /><path
       d="m 172.12593,32.326607 27.53446,0 0,53.241416 q 0,7.919204 -2.49759,14.985567 -2.43668,7.00545 -7.73646,12.30523 -5.23885,5.23886 -11.02596,7.37095 -8.04104,2.98493 -19.31068,2.98493 -6.51811,0 -14.25457,-0.91375 -7.67553,-0.91376 -12.85347,-3.5941 -5.17794,-2.74127 -9.50305,-7.73646 -4.26418,-4.99519 -5.84802,-10.29496 -2.55852,-8.528376 -2.55852,-15.107407 l 0,-53.241416 27.53447,0 0,54.520672 q 0,7.310035 4.02051,11.452387 4.08144,4.081434 11.26964,4.081434 7.12728,0 11.1478,-4.020517 4.08144,-4.081435 4.08144,-11.513304 l 0,-54.520672 z"
       style="font-size:124.75791931px;font-family:'Arial Black', 'Arial Bold', Gadget, sans-serif"
       id="path3372" /><path
       d="m 217.9964,32.326607 73.95318,0 0,19.067006 -46.29689,0 0,14.19365 42.94646,0 0,18.214169 -42.94646,0 0,17.604998 47.63706,0 0,20.22443 -75.29335,0 0,-89.304253 z"
       style="font-size:124.75791931px;font-family:'Arial Black', 'Arial Bold', Gadget, sans-serif"
       id="path3374" /><path
       d="m 308.57989,32.326607 40.99711,0 q 12.12247,0 19.55434,3.289515 7.49279,3.289515 12.36614,9.442128 4.87336,6.152612 7.06637,14.315484 2.19301,8.162871 2.19301,17.300414 0,14.315484 -3.28952,22.234688 -3.2286,7.858284 -9.01571,13.218974 -5.78711,5.29978 -12.42705,7.06637 -9.07663,2.43668 -16.44758,2.43668 l -40.99711,0 0,-89.304253 z m 27.59538,20.224428 0,48.794475 6.76178,0 q 8.65021,0 12.30523,-1.888421 3.65501,-1.949343 5.72619,-6.700865 2.07118,-4.81244 2.07118,-15.533823 0,-14.19365 -4.62969,-19.432508 -4.62969,-5.238858 -15.35108,-5.238858 l -6.88361,0 z"
       style="font-size:124.75791931px;font-family:'Arial Black', 'Arial Bold', Gadget, sans-serif"
       id="path3376" /></g><text
     transform="scale(0.79983082,1.2502644)"
     class="st0 st1"
     x="5.0010576"
     y="96.020195"
     style="font-size:97.24591827px;font-family:'Arial Black', 'Arial Bold', Gadget, sans-serif"
     id="text3386" />
<text
     xml:space="preserve"
     style="font-style:normal;font-weight:normal;font-size:40px;line-height:125%;font-family:sans-serif;letter-spacing:0px;word-spacing:0px;fill:#000000;fill-opacity:1;stroke:none;stroke-width:1px;stroke-linecap:butt;stroke-linejoin:miter;stroke-opacity:1"
     x="83.726418"
     y="71.75708"
     id="text3370"
     sodipodi:linespacing="125%"><tspan
       sodipodi:role="line"
       id="tspan3372"
       x="83.726418"
       y="71.75708" /></text>
<text
     xml:space="preserve"
     style="font-style:normal;font-weight:normal;font-size:40px;line-height:125%;font-family:sans-serif;letter-spacing:0px;word-spacing:0px;fill:#000000;fill-opacity:1;stroke:none;stroke-width:1px;stroke-linecap:butt;stroke-linejoin:miter;stroke-opacity:1"
     x="30.365566"
     y="93.86792"
     id="text3374"
     sodipodi:linespacing="125%"><tspan
       sodipodi:role="line"
       id="tspan3376"
       x="30.365566"
       y="93.86792" /></text>
<flowRoot
     xml:space="preserve"
     id="flowRoot3378"
     style="font-style:normal;font-weight:normal;font-size:40px;line-height:125%;font-family:sans-serif;letter-spacing:0px;word-spacing:0px;fill:#000000;fill-opacity:1;stroke:none;stroke-width:1px;stroke-linecap:butt;stroke-linejoin:miter;stroke-opacity:1"
     transform="translate(0,-50)"><flowRegion
       id="flowRegion3380"><rect
         id="rect3382"
         width="115.27122"
         height="155.66037"
         x="53.066036"
         y="38.915092" /></flowRegion><flowPara
       id="flowPara3384" /></flowRoot><text
     xml:space="preserve"
     style="font-style:normal;font-weight:normal;font-size:40px;line-height:125%;font-family:sans-serif;letter-spacing:0px;word-spacing:0px;fill:#000000;fill-opacity:1;stroke:none;stroke-width:1px;stroke-linecap:butt;stroke-linejoin:miter;stroke-opacity:1"
     x="243.51414"
     y="80.601425"
     id="text3422"
     sodipodi:linespacing="125%"><tspan
       sodipodi:role="line"
       id="tspan3424"
       x="243.51414"
       y="80.601425" /></text>
</svg>