<?xml version="1.0" encoding="UTF-8" standalone="no"?>
<!-- Generator: Adobe Illustrator 19.0.0, SVG Export Plug-In . SVG Version: 6.00 Build 0)  -->

<svg
   xmlns:dc="http://purl.org/dc/elements/1.1/"
   xmlns:cc="http://creativecommons.org/ns#"
   xmlns:rdf="http://www.w3.org/1999/02/22-rdf-syntax-ns#"
   xmlns:svg="http://www.w3.org/2000/svg"
   xmlns="http://www.w3.org/2000/svg"
   xmlns:sodipodi="http://sodipodi.sourceforge.net/DTD/sodipodi-0.dtd"
   xmlns:inkscape="http://www.inkscape.org/namespaces/inkscape"
   version="1.1"
   id="Layer_1"
   x="0px"
   y="0px"
   viewBox="0 0 250 250"
   style="enable-background:new 0 0 250 250;"
   xml:space="preserve"
   inkscape:version="0.91 r13725"
   sodipodi:docname="wash bend2.svg"><metadata
     id="metadata4205"><rdf:RDF><cc:Work
         rdf:about=""><dc:format>image/svg+xml</dc:format><dc:type
           rdf:resource="http://purl.org/dc/dcmitype/StillImage" /><dc:title /></cc:Work></rdf:RDF></metadata><defs
     id="defs4203" /><sodipodi:namedview
     pagecolor="#ffffff"
     bordercolor="#666666"
     borderopacity="1"
     objecttolerance="10"
     gridtolerance="10"
     guidetolerance="10"
     inkscape:pageopacity="0"
     inkscape:pageshadow="2"
     inkscape:window-width="1595"
     inkscape:window-height="1008"
     id="namedview4201"
     showgrid="false"
     inkscape:zoom="3.0746158"
     inkscape:cx="97.947206"
     inkscape:cy="117.7102"
     inkscape:current-layer="Layer_1"
     inkscape:window-x="208"
     inkscape:window-y="0"
     inkscape:window-maximized="0" /><style
     type="text/css"
     id="style4196">
	.st0{fill-rule:evenodd;clip-rule:evenodd;}
</style><path
     style="fill:none;fill-rule:evenodd;stroke:#000000;stroke-width:3.5;stroke-linecap:butt;stroke-linejoin:miter;stroke-miterlimit:4;stroke-dasharray:none;stroke-opacity:1"
     d="M 20.16512,245.4466 C 17.888413,226.90769 5.1366066,227.89596 8.4563413,208.04354 11.454495,190.11421 32.64135,191.49836 33.174876,173.56769 33.613253,158.83475 23.174181,153.25816 29.33163,137.82234 c 7.810265,-19.5792 21.584871,-13.32208 26.935563,-24.09953 7.61202,-15.332245 -2.927195,-24.816172 7.155364,-35.776826 11.058028,-12.021075 25.625409,-8.038036 38.378783,-15.286462 19.82933,-11.270079 8.62375,-25.346649 24.71854,-32.524389 17.4649,-7.788762 27.86279,3.934225 45.53414,-2.276708 C 185.9164,22.986224 189.23853,6.5361972 211.08329,5.7418414 228.9717,5.0913532 239.3795,16.47489 239.3795,16.47489"
     id="path4818"
     inkscape:connector-curvature="0"
     sodipodi:nodetypes="csssssssssc" /><path
     style="fill:none;fill-rule:evenodd;stroke:#000000;stroke-width:3.5;stroke-linecap:butt;stroke-linejoin:miter;stroke-miterlimit:4;stroke-dasharray:none;stroke-opacity:1"
     d="M 90.213023,244.19438 C 88.641271,230.5291 79.8379,231.25757 82.129721,216.62406 84.199534,203.4081 98.826139,204.42838 99.194468,191.21144 99.49711,180.35158 92.164413,179.6027 95.674439,163.74983 c 2.536463,-11.45581 12.301481,-10.86302 17.890351,-17.60987 7.20651,-8.69966 0.68183,-17.7106 7.64245,-25.78984 7.63405,-8.86091 16.91021,-5.00914 25.36437,-10.89065 9.13602,-6.35588 6.17804,-18.084861 17.28928,-23.375674 12.05712,-5.741206 19.01089,2.301458 31.21054,-2.276708 9.57007,-3.591368 12.59983,-12.960723 27.68065,-13.546253 12.34948,-0.479485 18.79833,8.991159 18.79833,8.991159"
     id="path4818-9"
     inkscape:connector-curvature="0"
     sodipodi:nodetypes="csssssssssc" /></svg>