<?xml version="1.0" encoding="UTF-8" standalone="no"?>
<!-- Generator: Adobe Illustrator 19.0.0, SVG Export Plug-In . SVG Version: 6.00 Build 0)  -->

<svg
   xmlns:dc="http://purl.org/dc/elements/1.1/"
   xmlns:cc="http://creativecommons.org/ns#"
   xmlns:rdf="http://www.w3.org/1999/02/22-rdf-syntax-ns#"
   xmlns:svg="http://www.w3.org/2000/svg"
   xmlns="http://www.w3.org/2000/svg"
   xmlns:sodipodi="http://sodipodi.sourceforge.net/DTD/sodipodi-0.dtd"
   xmlns:inkscape="http://www.inkscape.org/namespaces/inkscape"
   version="1.1"
   id="Layer_1"
   x="0px"
   y="0px"
   viewBox="0 0 250 250"
   style="enable-background:new 0 0 250 250;"
   xml:space="preserve"
   inkscape:version="0.91 r13725"
   sodipodi:docname="waypoint-masked.svg"><metadata
     id="metadata4205"><rdf:RDF><cc:Work
         rdf:about=""><dc:format>image/svg+xml</dc:format><dc:type
           rdf:resource="http://purl.org/dc/dcmitype/StillImage" /><dc:title /></cc:Work></rdf:RDF></metadata><defs
     id="defs4203" /><sodipodi:namedview
     pagecolor="#ffffff"
     bordercolor="#666666"
     borderopacity="1"
     objecttolerance="10"
     gridtolerance="10"
     guidetolerance="10"
     inkscape:pageopacity="0"
     inkscape:pageshadow="2"
     inkscape:window-width="640"
     inkscape:window-height="480"
     id="namedview4201"
     showgrid="false"
     inkscape:zoom="2.952"
     inkscape:cx="84.51897"
     inkscape:cy="125"
     inkscape:current-layer="Layer_1" /><style
     type="text/css"
     id="style4196">
	.st0{fill-rule:evenodd;clip-rule:evenodd;}
</style><path
     style="clip-rule:evenodd;fill-rule:evenodd"
     inkscape:connector-curvature="0"
     d="m 211.9,126.80806 -0.3,-3.98137 -0.5,-3.98138 -0.7,-3.87377 -1,-3.87376 -1.2,-3.76617 -1.4,-3.65856 -1.6,-3.55095 -1.8,-3.443349 -2,-3.443349 -2.1,-3.335745 -2.3,-3.22814 -2.4,-3.120535 -2.6,-3.012931 -2.8,-2.905326 -2.9,-2.797721 -3.1,-2.582512 -3.2,-2.474908 -3.3,-2.367302 -3.5,-2.152094 -3.5,-2.044489 -3.7,-1.936884 -3.8,-1.721674 -3.9,-1.61407 -4,-1.398861 -4.1,-1.183651 -4.2,-1.076047 -4.2,-0.860837 -4.3,-0.753233 -4.3,-0.538023 -4.5,-0.322814 -4.5,-0.107605 -4.5,0.107605 -4.5,0.322814 -4.3,0.538023 -4.3,0.753233 -4.2,0.860837 -4.2,1.076047 -4.1,1.183651 -4,1.398861 -3.9,1.61407 -3.8,1.721674 -3.7,1.936884 -3.5,2.044489 -3.5,2.152094 -3.3,2.367302 -3.2,2.474908 -3.1,2.582512 -2.9,2.797721 -2.8,2.905326 -2.6,3.012931 -2.4,3.120535 -2.3,3.22814 -2.1,3.335745 -2,3.443349 -1.8,3.443349 -1.6,3.55095 -1.4,3.65856 -1.2,3.76617 -1,3.87376 -0.7,3.87377 -0.5,3.98138 -0.3,3.98137 -0.1,3.98137 0.1,3.98137 0.3,3.98138 0.5,3.98137 0.7,3.87377 1,3.87377 1.2,3.76616 1.4,3.65856 1.6,3.55095 1.8,3.44335 2,3.44335 2.1,3.33574 2.3,3.22814 2.4,3.12054 2.6,3.01293 2.8,2.90533 2.9,2.79772 3.1,2.58251 3.2,2.47491 3.3,2.3673 3.5,2.15209 3.5,2.04449 3.7,1.93689 3.8,1.72167 3.9,1.61407 4,1.39886 4.1,1.18365 4.2,1.07605 4.2,0.86084 4.3,0.75323 4.3,0.53802 4.5,0.32282 4.5,0.1076 4.5,-0.1076 4.5,-0.32282 4.3,-0.53802 4.3,-0.75323 4.2,-0.86084 4.2,-1.07605 4.1,-1.18365 4,-1.39886 3.9,-1.61407 3.8,-1.72167 3.7,-1.93689 3.5,-2.04449 3.5,-2.15209 3.3,-2.3673 3.2,-2.47491 3.1,-2.58251 2.9,-2.79772 2.8,-2.90533 2.6,-3.01293 2.4,-3.12054 2.3,-3.22814 2.1,-3.33574 2,-3.44335 1.8,-3.44335 1.6,-3.55095 1.4,-3.65856 1.2,-3.76616 1,-3.87377 0.7,-3.87377 0.5,-3.98137 0.3,-3.98138 0.1,-3.98137 -0.1,-3.98137 z m -16.6,7.31712 -0.3,3.22814 -0.5,3.22814 -0.6,3.22814 -0.8,3.12053 -1,3.01293 -1.2,3.01293 -1.3,2.90533 -1.4,2.79772 -1.6,2.79772 -1.7,2.69012 -1.8,2.58251 -2,2.47491 -2.1,2.3673 -2.2,2.3673 -2.4,2.1521 -2.4,2.15209 -2.6,2.04449 -2.7,1.93688 -2.8,1.72168 -2.8,1.72167 -3,1.50647 -3.1,1.39886 -3.1,1.29125 -3.3,1.18365 -3.3,0.96845 -3.4,0.96844 -3.5,0.64563 -3.5,0.64562 -3.6,0.32282 -3.6,0.21521 -3.6,0.1076 -3.7,-0.1076 -3.6,-0.21521 -3.6,-0.32282 -3.5,-0.64562 -3.5,-0.64563 -3.4,-0.96844 -3.3,-0.96845 -3.3,-1.18365 -3.1,-1.29125 -3.1,-1.39886 -3,-1.50647 -2.8,-1.72167 -2.8,-1.72168 -2.7,-1.93688 -2.6,-2.04449 -2.4,-2.15209 -2.4,-2.1521 -2.2,-2.3673 -2.1,-2.3673 -2,-2.47491 -1.8,-2.58251 -1.7,-2.69012 -1.6,-2.79772 -1.4,-2.79772 -1.3,-2.90533 -1.2,-3.01293 -1,-3.01293 -0.8,-3.12053 -0.6,-3.22814 -0.5,-3.22814 -0.3,-3.22814 -0.1,-3.33575 0.1,-3.33574 0.3,-3.22814 0.5,-3.22814 0.6,-3.22814 0.8,-3.12054 1,-3.01293 1.2,-3.01293 1.3,-2.90533 1.4,-2.79772 1.6,-2.79772 1.7,-2.690116 1.8,-2.582512 2,-2.474908 2.1,-2.367302 2.2,-2.367303 2.4,-2.152093 2.4,-2.152094 2.6,-2.044488 2.7,-1.936884 2.8,-1.721675 2.8,-1.721675 3,-1.506465 3.1,-1.398861 3.1,-1.291256 3.3,-1.183651 3.3,-0.968442 3.4,-0.968442 3.5,-0.645628 3.5,-0.645628 3.8,-0.215209 3.6,-0.21521 3.7,-0.107604 3.6,0.107604 3.6,0.21521 3.6,0.322814 3.5,0.645628 3.5,0.645628 3.4,0.968442 3.3,0.968442 3.3,1.183651 3.1,1.291256 3.1,1.398861 3,1.506465 2.8,1.721675 2.8,1.721674 2.7,1.936884 2.6,2.044489 2.4,2.152093 2.4,2.152094 2.2,2.367302 2.1,2.367303 2,2.474907 1.8,2.582513 1.7,2.690121 1.6,2.79772 1.4,2.79772 1.3,2.90532 1.2,3.01293 1,3.01294 0.8,3.12053 0.6,3.22814 0.5,3.22814 0.3,3.22814 0.1,3.33575 -0.3,3.22814 z"
     class="st0"
     id="XMLID_13_" /><text
     xml:space="preserve"
     style="font-style:normal;font-weight:normal;font-size:60.27892685px;line-height:125%;font-family:sans-serif;letter-spacing:0px;word-spacing:0px;fill:#000000;fill-opacity:1;stroke:none;stroke-width:1px;stroke-linecap:butt;stroke-linejoin:miter;stroke-opacity:1"
     x="80.122032"
     y="122.57157"
     id="text5478"
     sodipodi:linespacing="125%"
     transform="scale(0.76952856,1.2994969)"><tspan
       sodipodi:role="line"
       x="80.122032"
       y="122.57157"
       id="tspan5480"><tspan
         x="80.122032"
         y="122.57157"
         style="font-style:normal;font-variant:normal;font-weight:900;font-stretch:normal;font-family:'Arial Black';-inkscape-font-specification:'Arial Black,  Heavy'"
         id="tspan5482">WPM</tspan></tspan></text>
</svg>