<?xml version="1.0" encoding="UTF-8" standalone="no"?>
<!-- Generator: Adobe Illustrator 19.0.0, SVG Export Plug-In . SVG Version: 6.00 Build 0)  -->

<svg
   xmlns:dc="http://purl.org/dc/elements/1.1/"
   xmlns:cc="http://creativecommons.org/ns#"
   xmlns:rdf="http://www.w3.org/1999/02/22-rdf-syntax-ns#"
   xmlns:svg="http://www.w3.org/2000/svg"
   xmlns="http://www.w3.org/2000/svg"
   xmlns:sodipodi="http://sodipodi.sourceforge.net/DTD/sodipodi-0.dtd"
   xmlns:inkscape="http://www.inkscape.org/namespaces/inkscape"
   version="1.1"
   id="Layer_1"
   x="0px"
   y="0px"
   viewBox="0 0 250 250"
   style="enable-background:new 0 0 250 250;"
   xml:space="preserve"
   inkscape:version="0.91 r13725"
   sodipodi:docname="well.svg"><metadata
     id="metadata7462"><rdf:RDF><cc:Work
         rdf:about=""><dc:format>image/svg+xml</dc:format><dc:type
           rdf:resource="http://purl.org/dc/dcmitype/StillImage" /></cc:Work></rdf:RDF></metadata><defs
     id="defs7460" /><sodipodi:namedview
     pagecolor="#ffffff"
     bordercolor="#666666"
     borderopacity="1"
     objecttolerance="10"
     gridtolerance="10"
     guidetolerance="10"
     inkscape:pageopacity="0"
     inkscape:pageshadow="2"
     inkscape:window-width="1344"
     inkscape:window-height="795"
     id="namedview7458"
     showgrid="false"
     inkscape:zoom="2.74"
     inkscape:cx="125"
     inkscape:cy="125"
     inkscape:window-x="0"
     inkscape:window-y="0"
     inkscape:window-maximized="0"
     inkscape:current-layer="Layer_1" /><style
     type="text/css"
     id="style7438">
	.st0{fill:#7F7F7F;stroke:#000000;stroke-width:6.3725;stroke-miterlimit:10;}
	.st1{fill:#4B4B4B;stroke:#000000;stroke-width:6.3725;stroke-miterlimit:10;}
	.st2{fill:none;stroke:#000000;stroke-width:6.3725;stroke-miterlimit:10;}
</style><path
     class="st0"
     d="M65.9,124.8v66.9c0,16.7,26.6,30.3,59.5,30.3c32.8,0,59.5-13.6,59.5-30.3v-66.9H65.9z"
     id="path7440" /><ellipse
     class="st0"
     cx="125.4"
     cy="124.8"
     rx="59.5"
     ry="30.3"
     id="ellipse7442" /><path
     d="M125.4,51.4c-7.8,0-14.2-1.2-14.2,3.7V82c0,4.9,6.3,4.7,14.2,4.7c7.8,0,14.2,0.2,14.2-4.7V55.1  C139.5,50.2,133.2,51.4,125.4,51.4z"
     id="path7444" /><ellipse
     cx="125.4"
     cy="123"
     rx="51.4"
     ry="22.5"
     id="ellipse7446" /><g
     id="g7448"><line
       class="st1"
       x1="74"
       y1="123"
       x2="74"
       y2="37.2"
       id="line7450" /><line
       class="st1"
       x1="176.8"
       y1="123"
       x2="176.8"
       y2="37.2"
       id="line7452" /></g><rect
     x="62.7"
     y="27.6"
     width="125.3"
     height="9.6"
     id="rect7454" /><line
     class="st2"
     x1="125.4"
     y1="32.4"
     x2="125.4"
     y2="62.7"
     id="line7456" /><path
     style="fill:#ffffff"
     d="m 118.9781,218.48208 c -16.99226,-1.37168 -29.718608,-5.03129 -39.003979,-11.21605 -3.306139,-2.20214 -7.268595,-6.11546 -8.724568,-8.61639 -2.084902,-3.58125 -2.088969,-3.64399 -2.088969,-32.22266 l 0,-26.22989 2.09854,1.88212 c 16.729009,15.00377 52.859696,20.61782 82.420286,12.8066 10.45841,-2.76358 20.01597,-7.50722 25.8279,-12.819 l 2.08437,-1.90499 -0.10241,27.32785 -0.10241,27.32785 -1.14732,2.42155 c -2.85006,6.01535 -10.7264,11.94239 -20.93297,15.75229 -11.27209,4.20766 -28.00352,6.48564 -40.32847,5.49072 z"
     id="path7464"
     inkscape:connector-curvature="0" /><path
     style="fill:#ffffff"
     d="m 119.34307,151.54007 c -24.214173,-1.17132 -44.7612,-10.51306 -49.303614,-22.41598 -0.871547,-2.2838 -0.901604,-6.71768 -0.05814,-8.57664 l 0.57958,-1.27738 0.02977,1.91606 0.02977,1.91606 1.642336,0 c 1.501844,0 1.642335,0.0769 1.642335,0.89872 0,0.49429 0.344387,1.81917 0.765303,2.94417 0.90005,2.4056 4.172324,6.10191 7.252501,8.19231 13.919356,9.44657 41.152857,13.06286 64.427447,8.55522 17.04804,-3.30173 29.24768,-10.91625 30.3477,-18.94179 l 0.22597,-1.64863 1.57366,0 1.57365,0 0.11368,-1.91606 0.11368,-1.91606 0.68156,2.16852 c 1.4463,4.60168 -0.0985,9.5246 -4.42929,14.11551 -10.21099,10.82418 -32.89238,17.16219 -57.2079,15.98597 z"
     id="path7466"
     inkscape:connector-curvature="0" /><path
     style="fill:#ffffff"
     d="m 77.189781,112.92151 0,-1.87949 3.105266,-2.02411 c 7.573994,-4.93698 17.251067,-8.19258 30.471373,-10.251288 5.96598,-0.929042 23.09904,-0.926245 29.37957,0.0048 12.38298,1.835681 23.78306,5.728841 30.83941,10.531731 l 2.37226,1.61467 0.11128,1.98635 0.11127,1.98634 -1.57113,-1.50597 c -5.86443,-5.62122 -16.70989,-9.79972 -31.31565,-12.06517 -6.03916,-0.93671 -24.20798,-0.93607 -30.47445,0.001 -14.301009,2.1387 -25.25541,6.31492 -31.385256,11.96522 l -1.643943,1.51533 0,-1.87948 z"
     id="path7468"
     inkscape:connector-curvature="0" /></svg>