<?xml version="1.0" encoding="UTF-8" standalone="no"?>
<!-- Generator: Adobe Illustrator 19.0.0, SVG Export Plug-In . SVG Version: 6.00 Build 0)  -->

<svg
   xmlns:dc="http://purl.org/dc/elements/1.1/"
   xmlns:cc="http://creativecommons.org/ns#"
   xmlns:rdf="http://www.w3.org/1999/02/22-rdf-syntax-ns#"
   xmlns:svg="http://www.w3.org/2000/svg"
   xmlns="http://www.w3.org/2000/svg"
   xmlns:sodipodi="http://sodipodi.sourceforge.net/DTD/sodipodi-0.dtd"
   xmlns:inkscape="http://www.inkscape.org/namespaces/inkscape"
   version="1.1"
   id="Layer_1"
   x="0px"
   y="0px"
   viewBox="0 0 250 250"
   style="enable-background:new 0 0 250 250;"
   xml:space="preserve"
   inkscape:version="0.91 r13725"
   sodipodi:docname="winding-track.svg"><metadata
     id="metadata13"><rdf:RDF><cc:Work
         rdf:about=""><dc:format>image/svg+xml</dc:format><dc:type
           rdf:resource="http://purl.org/dc/dcmitype/StillImage" /></cc:Work></rdf:RDF></metadata><defs
     id="defs11" /><sodipodi:namedview
     pagecolor="#ffffff"
     bordercolor="#666666"
     borderopacity="1"
     objecttolerance="10"
     gridtolerance="10"
     guidetolerance="10"
     inkscape:pageopacity="0"
     inkscape:pageshadow="2"
     inkscape:window-width="640"
     inkscape:window-height="480"
     id="namedview9"
     showgrid="false"
     inkscape:zoom="2.276"
     inkscape:cx="125"
     inkscape:cy="125"
     inkscape:current-layer="Layer_1" /><style
     type="text/css"
     id="style3">
	.st0{font-family:&quot;Arial Black&quot;, &quot;Arial Bold&quot;, Gadget, sans-serif;}
	.st1{font-size:125px;}
	.st2{fill:none;stroke:#000000;stroke-width:0.155;stroke-linecap:round;stroke-linejoin:round;stroke-miterlimit:10;}
</style><text
     id="XMLID_2_"
     transform="scale(1.0002605,0.9997396)"
     class="st0 st1"
     x="-2.0374696"
     y="192.36324"
     style="font-size:187.65600586px;font-family:'Arial Black', 'Arial Bold', Gadget, sans-serif">P</text>
<g
     id="XMLID_1_"
     transform="matrix(1.3731353,0,0,1.4590533,-49.922229,-44.843187)"><polygon
       id="XMLID_10_"
       points="192.8,70.7 193.1,71 193.3,71.4 193.4,71.7 193.8,72.1 193.9,72.4 194.1,72.9 194.3,73.1 194.6,73.6 194.8,73.9 194.9,74.3 195.1,74.6 195.4,75 195.6,75.3 195.8,75.7 196,76 196.3,76.4 196.5,76.7 196.6,77 197,77.4 197.1,77.7 197.3,78.1 197.5,78.4 197.8,78.8 198,79.1 198.1,79.6 198.5,79.8 198.6,80.3 198.8,80.6 199,81 199.3,81.3 199.5,81.6 199.7,81.8 200,82.3 200.2,82.6 200.3,82.8 200.5,83.3 200.7,83.6 201,83.8 201.2,84.4 201.3,84.8 201,85 200.5,85.1 198.5,85.7 191.1,88.1 190.9,88.1 190.6,88.3 190.4,88.3 190.2,88.3 190.1,88.4 189.9,88.4 189.6,88.5 189.4,88.5 189.2,88.7 189.1,88.7 188.9,88.8 188.7,88.8 188.4,88.8 188.2,89 188,89 187.9,89.1 187.7,89.1 187.4,89.3 187.2,89.3 187,89.4 186.9,89.4 186.7,89.4 186.5,89.5 186.2,89.5 186,89.7 185.9,89.7 185.7,89.8 185.5,89.8 185.3,90 185,90 184.8,90.1 184.7,90.1 184.5,90.1 184.3,90.3 184,90.3 183.8,90.4 183.7,90.4 183.5,90.5 183.3,90.5 183.2,90.7 182.8,90.7 182.7,90.7 182.5,90.8 182.3,90.8 182.2,91 181.8,91 181.6,91.1 181.5,91.1 181.3,91.2 181.1,91.2 181,91.4 180.6,91.4 180.5,91.4 180.3,91.5 180.1,91.5 180,91.7 179.6,91.7 179.5,91.8 179.3,91.8 179.1,92 179,92 178.8,92.1 178.4,92.1 178.3,92.1 178.1,92.2 177.9,92.2 177.8,92.4 177.6,92.4 177.3,92.5 177.1,92.5 176.9,92.7 176.8,92.7 176.6,92.8 176.3,92.8 176.1,92.8 175.9,93 175.8,93 175.6,93.1 175.4,93.1 175.1,93.2 174.9,93.2 174.7,93.4 174.6,93.4 174.4,93.5 174.1,93.5 173.9,93.7 173.7,93.7 173.6,93.7 173.4,93.8 173.2,93.8 172.9,94 172.7,94 172.6,94.1 172.4,94.1 172.2,94.2 172.1,94.2 171.7,94.4 171.5,94.4 171.4,94.4 171.2,94.5 171,94.5 170.7,94.7 170.5,94.7 170.4,94.8 170.2,94.8 170,95 169.9,95 169.5,95.1 169.4,95.1 169.2,95.1 169,95.2 168.9,95.2 168.5,95.4 168.3,95.4 168.2,95.5 168,95.5 167.8,95.7 167.7,95.7 167.3,95.8 167.2,95.8 167,95.8 166.8,96 166.7,96 166.5,96.1 166.2,96.1 166,96.2 165.8,96.2 165.7,96.4 165.2,96.5 164.5,96.7 164,96.8 163.5,97 163,97.2 162.3,97.4 161.8,97.5 161.3,97.7 160.8,97.8 160.1,98.1 159.6,98.2 159.1,98.4 158.6,98.5 158.1,98.8 157.4,98.9 156.9,99.1 156.4,99.4 155.9,99.5 155.6,99.8 155.1,100.1 154.7,100.5 154.4,100.9 154,101.4 153.9,101.8 153.9,102.2 153.9,102.7 154,103.1 154,103.5 154.4,103.9 154.5,104.4 154.9,104.6 155.4,104.9 155.7,105.2 156.2,105.5 156.7,105.6 157.2,105.8 157.6,105.9 157.7,105.9 158.1,105.9 158.4,106.1 158.6,106.1 158.9,106.2 159.6,106.2 160.1,106.2 160.8,106.2 161.4,106.4 162.1,106.4 163,106.5 163.6,106.5 164.3,106.6 165,106.6 165.7,106.6 166.3,106.8 166.8,106.8 167.5,106.8 168.2,106.8 168.9,106.9 169.4,106.9 170,107.1 170.9,107.1 171.5,107.1 172.2,107.2 179.3,108.2 179.6,108.2 180.1,108.4 180.6,108.5 181,108.6 181.5,108.8 181.8,108.8 182.3,108.9 182.8,109.1 183.3,109.1 183.8,109.2 184.3,109.4 184.8,109.5 185.3,109.6 185.9,109.8 186.4,110.1 186.9,110.2 187.4,110.4 187.7,110.5 188.2,110.8 188.5,110.9 189.1,111.1 189.4,111.2 189.9,111.4 190.2,111.6 190.6,111.8 190.7,111.8 191.4,112.2 191.9,112.5 192.6,112.9 193.1,113.2 193.6,113.6 194.3,114.1 194.8,114.5 195.1,114.9 195.4,115.3 195.8,115.6 196.1,115.9 196.5,116.3 197,116.8 197.3,117.2 197.5,117.8 198,118.2 198.1,118.5 198.5,118.9 198.6,119.3 198.8,119.8 199,120.2 199.3,120.6 199.5,121 199.7,121.5 200,121.8 200,122 200.2,122.3 200.3,122.6 200.5,123 200.5,123.3 200.7,123.6 200.8,124 201,124.5 201.2,125 201.3,125.5 201.5,126 201.7,126.6 201.7,127 201.8,127.6 201.8,128 202,128.9 202,129.6 202,130.5 201.8,131.2 201.8,131.3 201.8,131.6 201.7,132 201.7,132.5 201.5,132.7 201.5,133.2 201.3,133.6 201.3,134 201.2,134.3 201,134.7 200.8,135 200.7,135.3 200.5,135.6 200.5,136 200.3,136.3 200.2,136.6 200,136.9 199.8,137.2 199.7,137.4 199.5,137.7 199.3,138 199.2,138.3 199,138.6 198.8,138.9 198.5,139.2 198.3,139.3 198.1,139.6 198,140 197.8,140.3 197.6,140.6 197.3,140.9 197,141.2 196.6,141.4 196.5,141.7 196,142.3 195.6,142.7 195.1,143.1 194.6,143.6 194.3,144 193.8,144.3 193.3,144.7 192.8,145.1 192.4,145.4 192.1,145.7 191.6,145.9 191.2,146.1 190.9,146.3 190.7,146.6 190.4,146.7 189.9,147 189.6,147.1 189.2,147.4 188.9,147.6 188.5,147.7 188,148 187.4,148.1 186.9,148.4 186.4,148.6 185.7,148.8 185.2,149 184.7,149.1 184,149.4 183.5,149.6 183,149.7 182.3,150 181.8,150.1 181.1,150.3 180.6,150.4 180,150.7 179.5,150.8 160.4,157.1 148.3,161.1 144.8,162.3 144.4,162.3 144.1,162.4 143.8,162.5 143.6,162.5 143.4,162.7 143.4,162.5 143.1,162.1 142.3,160.7 142.1,160.3 141.8,159.8 141.6,159.5 141.4,159.1 141.1,158.7 140.9,158.3 140.6,158 140.4,157.5 140.2,157.1 139.9,156.8 139.7,156.4 139.4,156 139.2,155.6 138.9,155.3 138.7,154.8 138.6,154.4 135.4,149.4 134.7,148.1 134.5,148 134.7,147.8 135,147.7 135.4,147.6 137.7,146.9 144.8,144.6 167.5,137.3 172.7,135.7 173.1,135.6 173.4,135.4 173.9,135.3 174.2,135.3 174.6,135.2 174.9,135 175.3,134.9 175.6,134.6 175.9,134.4 176.3,134.2 176.6,134 176.8,133.7 177.1,133.5 177.4,133.3 177.8,133 177.9,132.7 178.3,132.5 178.4,132.2 178.6,131.9 179,131.6 179.1,131.2 179.3,130.9 179.3,130.6 179.5,130.2 179.5,129.6 179.3,129 179.1,128.5 178.6,127.9 178.3,127.5 177.9,127.2 177.6,126.9 177.1,126.6 176.6,126.5 176.1,126.3 175.6,126.2 175.1,126 174.9,126 174.6,126 174.1,125.9 173.6,125.8 173.1,125.8 172.6,125.6 172.1,125.5 171.4,125.5 170.9,125.3 170.4,125.3 169.5,125.2 168.7,125 168,124.9 167.2,124.8 166.8,124.8 166.5,124.8 166,124.6 165.3,124.6 164.6,124.5 164,124.3 163.6,124.3 163.5,124.3 163.1,124.3 162.8,124.3 162,124.2 161.3,124 160.4,123.9 159.6,123.8 159.4,123.8 159.1,123.8 158.8,123.8 158.4,123.6 157.7,123.6 157.1,123.5 156.4,123.3 155.7,123.2 155.4,123.2 155.1,123.2 154.4,123 153.7,122.9 152.9,122.8 152.2,122.6 151.5,122.5 150.7,122.3 150,122.2 149.3,121.9 148.8,121.9 148.5,121.8 148,121.6 147.6,121.5 147.1,121.3 146.8,121.2 146.3,121 146,120.9 145.5,120.8 145.1,120.5 144.8,120.3 144.4,120.2 143.9,119.9 143.6,119.8 143.3,119.6 142.8,119.3 142.6,119.2 142.3,119.2 141.8,118.9 141.4,118.5 140.9,118.2 140.4,117.9 140.1,117.5 139.6,117.2 139.2,116.8 138.7,116.5 138.4,116.2 138.2,115.9 137.9,115.5 137.7,115.2 137.4,114.9 137.2,114.6 136.9,114.3 136.7,114.1 136.5,113.8 136.2,113.3 136,113.1 135.9,112.8 135.7,112.6 135.7,112.4 135.5,112.2 135.4,112.1 135.2,111.6 135,111.2 134.7,110.8 134.5,110.4 134.3,109.9 134.2,109.5 134,109.1 133.8,108.6 133.7,108.4 133.5,108.1 133.5,107.8 133.3,107.5 133.3,107.1 133.2,106.6 133.2,106.2 133,105.8 133,105.4 133,104.8 132.8,104.4 132.8,103.9 132.7,103.5 132.8,103.1 132.8,102.7 132.8,102.2 132.8,101.9 132.8,101.7 132.8,101.5 132.8,101.2 133,101.1 133,100.8 133,100.5 133.2,100.4 133.2,99.9 133.2,99.7 133.3,99.2 133.3,98.8 133.5,98.5 133.7,98.1 133.8,97.8 133.8,97.4 134,97 134.2,96.7 134.3,96.2 134.7,95.8 134.7,95.7 134.7,95.5 134.9,95.2 134.9,95.1 135.2,94.7 135.4,94.1 135.7,93.7 136,93.2 136.5,92.8 136.9,92.2 137.2,91.8 137.5,91.4 138.1,91 138.4,90.5 138.7,90.1 139.2,89.7 139.6,89.3 139.9,89 140.2,88.5 140.7,88.3 140.9,88.1 141.3,87.8 141.6,87.7 141.9,87.4 142.1,87.1 142.4,86.8 143.1,86.5 143.8,86.1 144.4,85.8 145.1,85.5 145.6,85.4 146.3,85.3 146.8,85.1 147.3,85 147.8,84.7 148.3,84.5 149,84.4 149.5,84.3 158.4,81.3 192.4,70 192.6,70.3 " /><polygon
       id="XMLID_7_"
       class="st2"
       points="192.8,70.7 193.1,71 193.3,71.4 193.4,71.7 193.8,72.1 193.9,72.4 194.1,72.9 194.3,73.1 194.6,73.6 194.8,73.9 194.9,74.3 195.1,74.6 195.4,75 195.6,75.3 195.8,75.7 196,76 196.3,76.4 196.5,76.7 196.6,77 197,77.4 197.1,77.7 197.3,78.1 197.5,78.4 197.8,78.8 198,79.1 198.1,79.6 198.5,79.8 198.6,80.3 198.8,80.6 199,81 199.3,81.3 199.5,81.6 199.7,81.8 200,82.3 200.2,82.6 200.3,82.8 200.5,83.3 200.7,83.6 201,83.8 201.2,84.4 201.3,84.8 201,85 200.5,85.1 198.5,85.7 191.1,88.1 190.9,88.1 190.6,88.3 190.4,88.3 190.2,88.3 190.1,88.4 189.9,88.4 189.6,88.5 189.4,88.5 189.2,88.7 189.1,88.7 188.9,88.8 188.7,88.8 188.4,88.8 188.2,89 188,89 187.9,89.1 187.7,89.1 187.4,89.3 187.2,89.3 187,89.4 186.9,89.4 186.7,89.4 186.5,89.5 186.2,89.5 186,89.7 185.9,89.7 185.7,89.8 185.5,89.8 185.3,90 185,90 184.8,90.1 184.7,90.1 184.5,90.1 184.3,90.3 184,90.3 183.8,90.4 183.7,90.4 183.5,90.5 183.3,90.5 183.2,90.7 182.8,90.7 182.7,90.7 182.5,90.8 182.3,90.8 182.2,91 181.8,91 181.6,91.1 181.5,91.1 181.3,91.3 181.1,91.3 181,91.4 180.6,91.4 180.5,91.4 180.3,91.5 180.1,91.5 180,91.7 179.6,91.7 179.5,91.8 179.3,91.8 179.1,92 179,92 178.8,92.1 178.4,92.1 178.3,92.1 178.1,92.2 177.9,92.2 177.8,92.4 177.6,92.4 177.3,92.5 177.1,92.5 176.9,92.7 176.8,92.7 176.6,92.8 176.3,92.8 176.1,92.8 175.9,93 175.8,93 175.6,93.1 175.4,93.1 175.1,93.2 174.9,93.2 174.7,93.4 174.6,93.4 174.4,93.5 174.1,93.5 173.9,93.7 173.7,93.7 173.6,93.7 173.4,93.8 173.2,93.8 172.9,94 172.7,94 172.6,94.1 172.4,94.1 172.2,94.2 172.1,94.2 171.7,94.4 171.5,94.4 171.4,94.4 171.2,94.5 171,94.5 170.7,94.7 170.5,94.7 170.4,94.8 170.2,94.8 170,95 169.9,95 169.5,95.1 169.4,95.1 169.2,95.1 169,95.2 168.9,95.2 168.5,95.4 168.4,95.4 168.2,95.5 168,95.5 167.8,95.7 167.7,95.7 167.3,95.8 167.2,95.8 167,95.8 166.8,96 166.7,96 166.5,96.1 166.2,96.1 166,96.2 165.8,96.2 165.7,96.4 165.2,96.5 164.5,96.7 164,96.8 163.5,97 163,97.2 162.3,97.4 161.8,97.5 161.3,97.7 160.8,97.8 160.1,98.1 159.6,98.2 159.1,98.4 158.6,98.5 158.1,98.8 157.4,98.9 156.9,99.1 156.4,99.4 155.9,99.5 155.6,99.8 155.1,100.1 154.7,100.5 154.4,100.9 154,101.4 153.9,101.8 153.9,102.2 153.9,102.7 154,103.1 154,103.5 154.4,103.9 154.5,104.4 154.9,104.7 155.4,104.9 155.7,105.2 156.2,105.5 156.7,105.7 157.2,105.8 157.6,105.9 157.7,105.9 158.1,105.9 158.4,106.1 158.6,106.1 158.9,106.2 159.6,106.2 160.1,106.2 160.8,106.2 161.4,106.4 162.1,106.4 163,106.5 163.6,106.5 164.3,106.6 165,106.6 165.7,106.6 166.3,106.8 166.8,106.8 167.5,106.8 168.2,106.8 168.9,106.9 169.4,106.9 170,107.1 170.9,107.1 171.5,107.1 172.2,107.2 179.3,108.2 179.6,108.2 180.1,108.4 180.6,108.5 181,108.6 181.5,108.8 181.8,108.8 182.3,108.9 182.8,109.1 183.3,109.1 183.8,109.2 184.3,109.4 184.8,109.5 185.3,109.6 185.9,109.8 186.4,110.1 186.9,110.2 187.4,110.4 187.7,110.5 188.2,110.8 188.5,110.9 189.1,111.1 189.4,111.2 189.9,111.4 190.2,111.6 190.6,111.8 190.7,111.8 191.4,112.2 191.9,112.5 192.6,112.9 193.1,113.2 193.6,113.6 194.3,114.1 194.8,114.5 195.1,114.9 195.4,115.3 195.8,115.6 196.1,115.9 196.5,116.3 197,116.8 197.3,117.2 197.5,117.8 198,118.2 198.1,118.5 198.5,118.9 198.6,119.3 198.8,119.8 199,120.2 199.3,120.6 199.5,121 199.7,121.5 200,121.8 200,122 200.2,122.3 200.3,122.6 200.5,123 200.5,123.3 200.7,123.6 200.8,124 201,124.5 201.2,125 201.3,125.5 201.5,126 201.7,126.6 201.7,127 201.8,127.6 201.8,128 202,128.9 202,129.6 202,130.5 201.8,131.2 201.8,131.3 201.8,131.6 201.7,132 201.7,132.5 201.5,132.7 201.5,133.2 201.3,133.6 201.3,134 201.2,134.3 201,134.7 200.8,135 200.7,135.3 200.5,135.6 200.5,136 200.3,136.3 200.2,136.6 200,136.9 199.8,137.2 199.7,137.4 199.5,137.7 199.3,138 199.2,138.3 199,138.6 198.8,138.9 198.5,139.2 198.3,139.3 198.1,139.6 198,140 197.8,140.3 197.6,140.6 197.3,140.9 197,141.2 196.6,141.4 196.5,141.7 196,142.3 195.6,142.7 195.1,143.1 194.6,143.6 194.3,144 193.8,144.3 193.3,144.7 192.8,145.1 192.4,145.4 192.1,145.7 191.6,145.9 191.2,146.1 190.9,146.3 190.7,146.6 190.4,146.7 189.9,147 189.6,147.1 189.2,147.4 188.9,147.6 188.5,147.7 188,148 187.4,148.1 186.9,148.4 186.4,148.6 185.7,148.8 185.2,149 184.7,149.1 184,149.4 183.5,149.6 183,149.7 182.3,150 181.8,150.1 181.1,150.3 180.6,150.4 180,150.7 179.5,150.8 160.4,157.1 148.3,161.1 144.8,162.3 144.4,162.3 144.1,162.4 143.8,162.5 143.6,162.5 143.4,162.7 143.4,162.5 143.1,162.1 142.3,160.7 142.1,160.3 141.8,159.8 141.6,159.5 141.4,159.1 141.1,158.7 140.9,158.3 140.6,158 140.4,157.5 140.2,157.1 139.9,156.8 139.7,156.4 139.4,156 139.2,155.6 138.9,155.3 138.7,154.8 138.6,154.4 135.4,149.4 134.7,148.1 134.5,148 134.7,147.9 135,147.7 135.4,147.6 137.7,146.9 144.8,144.6 167.5,137.3 172.7,135.7 173.1,135.6 173.4,135.4 173.9,135.3 174.2,135.3 174.6,135.2 174.9,135 175.3,134.9 175.6,134.6 175.9,134.4 176.3,134.2 176.6,134 176.8,133.7 177.1,133.5 177.4,133.3 177.8,133 177.9,132.7 178.3,132.5 178.4,132.2 178.6,131.9 179,131.6 179.1,131.2 179.3,130.9 179.3,130.6 179.5,130.2 179.5,129.6 179.3,129 179.1,128.5 178.6,127.9 178.3,127.5 177.9,127.2 177.6,126.9 177.1,126.6 176.6,126.5 176.1,126.3 175.6,126.2 175.1,126 174.9,126 174.6,126 174.1,125.9 173.6,125.8 173.1,125.8 172.6,125.6 172.1,125.5 171.4,125.5 170.9,125.3 170.4,125.3 169.5,125.2 168.7,125 168,124.9 167.2,124.8 166.8,124.8 166.5,124.8 166,124.6 165.3,124.6 164.6,124.5 164,124.3 163.6,124.3 163.5,124.3 163.1,124.3 162.8,124.3 162,124.2 161.3,124 160.4,123.9 159.6,123.8 159.4,123.8 159.1,123.8 158.8,123.8 158.4,123.6 157.7,123.6 157.1,123.5 156.4,123.3 155.7,123.2 155.4,123.2 155.1,123.2 154.4,123 153.7,122.9 152.9,122.8 152.2,122.6 151.5,122.5 150.7,122.3 150,122.2 149.3,121.9 148.8,121.9 148.5,121.8 148,121.6 147.6,121.5 147.1,121.3 146.8,121.2 146.3,121 146,120.9 145.5,120.8 145.1,120.5 144.8,120.3 144.4,120.2 143.9,119.9 143.6,119.8 143.3,119.6 142.8,119.3 142.6,119.2 142.3,119.2 141.8,118.9 141.4,118.5 140.9,118.2 140.4,117.9 140.1,117.5 139.6,117.2 139.2,116.8 138.7,116.5 138.4,116.2 138.2,115.9 137.9,115.5 137.7,115.2 137.4,114.9 137.2,114.6 136.9,114.3 136.7,114.1 136.5,113.8 136.2,113.3 136,113.1 135.9,112.8 135.7,112.6 135.7,112.4 135.5,112.2 135.4,112.1 135.2,111.6 135,111.2 134.7,110.8 134.5,110.4 134.3,109.9 134.2,109.5 134,109.1 133.8,108.6 133.7,108.4 133.5,108.1 133.5,107.8 133.3,107.5 133.3,107.1 133.2,106.6 133.2,106.2 133,105.8 133,105.4 133,104.8 132.8,104.4 132.8,103.9 132.7,103.5 132.8,103.1 132.8,102.7 132.8,102.2 132.8,101.9 132.8,101.7 132.8,101.5 132.8,101.2 133,101.1 133,100.8 133,100.5 133.2,100.4 133.2,99.9 133.2,99.7 133.3,99.2 133.3,98.8 133.5,98.5 133.7,98.1 133.8,97.8 133.8,97.4 134,97 134.2,96.7 134.3,96.2 134.7,95.8 134.7,95.7 134.7,95.5 134.9,95.2 134.9,95.1 135.2,94.7 135.4,94.1 135.7,93.7 136,93.2 136.5,92.8 136.9,92.2 137.2,91.8 137.5,91.4 138.1,91 138.4,90.5 138.7,90.1 139.2,89.7 139.6,89.3 139.9,89 140.2,88.5 140.7,88.3 140.9,88.1 141.3,87.8 141.6,87.7 141.9,87.4 142.1,87.1 142.4,86.8 143.1,86.5 143.8,86.1 144.4,85.8 145.1,85.5 145.6,85.4 146.3,85.3 146.8,85.1 147.3,85 147.8,84.7 148.3,84.5 149,84.4 149.5,84.3 158.4,81.3 192.4,70 192.6,70.3 "
       style="fill:none;stroke:#000000;stroke-width:0.155;stroke-linecap:round;stroke-linejoin:round;stroke-miterlimit:10" /></g></svg>