<?xml version="1.0" encoding="UTF-8" standalone="no"?>
<!-- Generator: Adobe Illustrator 19.0.0, SVG Export Plug-In . SVG Version: 6.00 Build 0)  -->

<svg
   xmlns:dc="http://purl.org/dc/elements/1.1/"
   xmlns:cc="http://creativecommons.org/ns#"
   xmlns:rdf="http://www.w3.org/1999/02/22-rdf-syntax-ns#"
   xmlns:svg="http://www.w3.org/2000/svg"
   xmlns="http://www.w3.org/2000/svg"
   xmlns:sodipodi="http://sodipodi.sourceforge.net/DTD/sodipodi-0.dtd"
   xmlns:inkscape="http://www.inkscape.org/namespaces/inkscape"
   version="1.1"
   id="Layer_1"
   x="0px"
   y="0px"
   viewBox="0 0 250 200"
   xml:space="preserve"
   inkscape:version="0.91 r13725"
   sodipodi:docname="always.svg"
   width="250"
   height="200"><metadata
     id="metadata11"><rdf:RDF><cc:Work
         rdf:about=""><dc:format>image/svg+xml</dc:format><dc:type
           rdf:resource="http://purl.org/dc/dcmitype/StillImage" /><dc:title /></cc:Work></rdf:RDF></metadata><defs
     id="defs9" /><sodipodi:namedview
     pagecolor="#ffffff"
     bordercolor="#666666"
     borderopacity="1"
     objecttolerance="10"
     gridtolerance="10"
     guidetolerance="10"
     inkscape:pageopacity="0"
     inkscape:pageshadow="2"
     inkscape:window-width="1536"
     inkscape:window-height="801"
     id="namedview7"
     showgrid="false"
     inkscape:zoom="3.392"
     inkscape:cx="126.83495"
     inkscape:cy="91.262267"
     inkscape:window-x="-8"
     inkscape:window-y="-8"
     inkscape:window-maximized="1"
     inkscape:current-layer="text5" /><style
     type="text/css"
     id="style3">
	.st0{font-family:&quot;Arial Black&quot;, &quot;Arial Bold&quot;, Gadget, sans-serif;}
	.st1{font-size:75px;}
</style><g
     transform="scale(0.84972767,1.1768476)"
     style="font-size:137.65924072px;font-family:'Arial Black', 'Arial Bold', Gadget, sans-serif"
     id="text5"><path
       d="m 13.020265,35.669521 90.128385,0 0,24.332346 -30.239155,0 0,74.206933 -29.650078,0 0,-74.206933 -30.239152,0 0,-24.332346 z"
       style="font-size:137.65924072px;font-family:'Arial Black', 'Arial Bold', Gadget, sans-serif"
       id="path3352"
       inkscape:connector-curvature="0" /><path
       d="m 149.01603,35.669521 29.31386,0 0,53.571491 q 0,16.871328 -2.90556,25.676678 -2.841,8.80535 -11.55767,14.92204 -8.6521,6.1167 -22.21138,6.1167 -14.33409,0 -22.21138,-4.03299 -7.8773,-4.03298 -12.20335,-11.76287 -4.26148,-7.79711 -5.0363,-19.2239 l 27.95793,-3.965769 q 0.0645,6.519989 1.09765,9.679169 1.03309,3.15917 3.48668,5.10844 1.67877,1.27712 4.77802,1.27712 4.90717,0 7.16705,-3.76412 2.32445,-3.83134 2.32445,-12.83834 l 0,-60.763649 z"
       style="font-size:137.65924072px;font-family:'Arial Black', 'Arial Bold', Gadget, sans-serif"
       id="path3354"
       inkscape:connector-curvature="0" /><path
       d="m 194.22241,101.60883 27.6211,-1.814839 q 0.8972,7.057729 3.6529,10.754629 4.48602,5.98226 12.81721,5.98226 6.21635,0 9.54882,-3.02474 3.39656,-3.09195 3.39656,-7.12494 0,-3.83134 -3.2043,-6.856075 -3.2043,-3.024739 -14.86797,-5.713396 -19.09764,-4.5035 -27.23658,-11.964524 -8.20301,-7.461023 -8.20301,-19.022248 0,-7.595456 4.1656,-14.317099 4.22967,-6.788859 12.62495,-10.620195 8.45936,-3.898553 23.13507,-3.898553 18.00819,0 27.42883,7.057725 9.48474,6.990508 11.27915,22.315853 l -27.36475,1.680411 q -1.08946,-6.654426 -4.61419,-9.679166 -3.46065,-3.024739 -9.61292,-3.024739 -5.06279,0 -7.62623,2.285359 -2.56345,2.218142 -2.56345,5.44453 0,2.352575 2.11484,4.234635 2.05076,1.949276 9.74108,3.629687 19.03357,4.301851 27.23658,8.738135 8.26711,4.369068 11.9841,10.889062 3.78107,6.519993 3.78107,14.585968 0,9.47751 -4.99871,17.47627 -4.99871,7.99875 -13.97076,12.16617 -8.97205,4.1002 -22.62238,4.1002 -23.96819,0 -33.19659,-9.67916 -9.22839,-9.67917 -10.44602,-24.60122 z"
       style="font-size:137.65924072px;font-family:'Arial Black', 'Arial Bold', Gadget, sans-serif"
       id="path3356"
       inkscape:connector-curvature="0" /></g><text
     transform="scale(0.79983082,1.2502644)"
     class="st0 st1"
     x="5.0010576"
     y="96.020195"
     style="font-size:97.24591827px;font-family:'Arial Black', 'Arial Bold', Gadget, sans-serif"
     id="text3386" />
<text
     xml:space="preserve"
     style="font-style:normal;font-weight:normal;font-size:40px;line-height:125%;font-family:sans-serif;letter-spacing:0px;word-spacing:0px;fill:#000000;fill-opacity:1;stroke:none;stroke-width:1px;stroke-linecap:butt;stroke-linejoin:miter;stroke-opacity:1"
     x="83.726418"
     y="71.75708"
     id="text3370"
     sodipodi:linespacing="125%"><tspan
       sodipodi:role="line"
       id="tspan3372"
       x="83.726418"
       y="71.75708" /></text>
<text
     xml:space="preserve"
     style="font-style:normal;font-weight:normal;font-size:40px;line-height:125%;font-family:sans-serif;letter-spacing:0px;word-spacing:0px;fill:#000000;fill-opacity:1;stroke:none;stroke-width:1px;stroke-linecap:butt;stroke-linejoin:miter;stroke-opacity:1"
     x="30.365566"
     y="93.86792"
     id="text3374"
     sodipodi:linespacing="125%"><tspan
       sodipodi:role="line"
       id="tspan3376"
       x="30.365566"
       y="93.86792" /></text>
<flowRoot
     xml:space="preserve"
     id="flowRoot3378"
     style="font-style:normal;font-weight:normal;font-size:40px;line-height:125%;font-family:sans-serif;letter-spacing:0px;word-spacing:0px;fill:#000000;fill-opacity:1;stroke:none;stroke-width:1px;stroke-linecap:butt;stroke-linejoin:miter;stroke-opacity:1"
     transform="translate(0,-50)"><flowRegion
       id="flowRegion3380"><rect
         id="rect3382"
         width="115.27122"
         height="155.66037"
         x="53.066036"
         y="38.915092" /></flowRegion><flowPara
       id="flowPara3384" /></flowRoot></svg>