<?xml version="1.0" encoding="UTF-8" standalone="no"?>
<!-- Generator: Adobe Illustrator 19.0.0, SVG Export Plug-In . SVG Version: 6.00 Build 0)  -->

<svg
   xmlns:dc="http://purl.org/dc/elements/1.1/"
   xmlns:cc="http://creativecommons.org/ns#"
   xmlns:rdf="http://www.w3.org/1999/02/22-rdf-syntax-ns#"
   xmlns:svg="http://www.w3.org/2000/svg"
   xmlns="http://www.w3.org/2000/svg"
   xmlns:sodipodi="http://sodipodi.sourceforge.net/DTD/sodipodi-0.dtd"
   xmlns:inkscape="http://www.inkscape.org/namespaces/inkscape"
   version="1.1"
   id="Layer_1"
   x="0px"
   y="0px"
   viewBox="0 0 250 200"
   xml:space="preserve"
   inkscape:version="0.91 r13725"
   sodipodi:docname="average-bearing.svg"
   width="250"
   height="200"><metadata
     id="metadata11"><rdf:RDF><cc:Work
         rdf:about=""><dc:format>image/svg+xml</dc:format><dc:type
           rdf:resource="http://purl.org/dc/dcmitype/StillImage" /><dc:title /></cc:Work></rdf:RDF></metadata><defs
     id="defs9" /><sodipodi:namedview
     pagecolor="#ffffff"
     bordercolor="#666666"
     borderopacity="1"
     objecttolerance="10"
     gridtolerance="10"
     guidetolerance="10"
     inkscape:pageopacity="0"
     inkscape:pageshadow="2"
     inkscape:window-width="1536"
     inkscape:window-height="801"
     id="namedview7"
     showgrid="false"
     inkscape:zoom="2.8284271"
     inkscape:cx="99.96464"
     inkscape:cy="99.999995"
     inkscape:window-x="-8"
     inkscape:window-y="-8"
     inkscape:window-maximized="1"
     inkscape:current-layer="text5" /><style
     type="text/css"
     id="style3">
	.st0{font-family:&quot;Arial Black&quot;, &quot;Arial Bold&quot;, Gadget, sans-serif;}
	.st1{font-size:100px;}
</style><g
     transform="scale(1.0940579,0.9140284)"
     style="font-size:177.24171448px;font-family:'Arial Black', 'Arial Bold', Gadget, sans-serif"
     id="text5"><path
       d="m 91.392885,120.95939 30.676075,10.38526 q -3.09078,14.45282 -9.73598,24.14572 -6.64519,9.69291 -16.535723,14.62591 -9.813251,4.93299 -25.03538,4.93299 -18.467456,0 -30.21245,-5.97152 -11.667725,-6.05807 -20.16739,-21.20323 -8.499668,-15.14517 -8.499668,-38.77163 0,-31.501943 14.913053,-48.377985 14.990319,-16.962586 42.343792,-16.962586 21.403704,0 33.612326,9.692906 12.28588,9.692906 18.23565,29.771069 L 90.079301,90.928693 Q 88.456638,85.130258 86.679434,82.4474 83.743186,77.947122 79.493353,75.523895 75.243519,73.100669 69.98918,73.100669 q -11.899533,0 -18.235647,10.731432 -4.790722,7.96203 -4.790722,25.011159 0,21.11669 5.717958,28.99218 5.717957,7.78894 16.072096,7.78894 10.04506,0 15.14486,-6.3177 5.177069,-6.3177 7.49516,-18.34729 z"
       style="font-size:177.24171448px;font-family:'Arial Black', 'Arial Bold', Gadget, sans-serif"
       id="path4136"
       inkscape:connector-curvature="0" /><path
       d="m 124.60089,133.03782 11.73562,0 4.52885,24.0515 4.50915,-24.0515 11.69624,0 0,39.52858 -7.28553,0 0,-30.14525 -5.65122,30.14525 -6.59636,0 -5.63152,-30.14525 0,30.14525 -7.30523,0 0,-39.52858 z"
       style="font-size:36.15594864px"
       id="path4138"
       inkscape:connector-curvature="0" /><path
       d="m 159.79122,152.82908 q 0,-9.67993 3.76793,-15.07263 3.76793,-5.39272 10.49368,-5.39272 6.89532,0 10.62557,5.31183 3.73026,5.28485 3.73026,14.82996 0,6.92962 -1.63906,11.37862 -1.6202,4.42202 -4.70991,6.90266 -3.07086,2.45369 -7.66775,2.45369 -4.67222,0 -7.74309,-2.13013 -3.05203,-2.1301 -4.95483,-6.74089 -1.9028,-4.61077 -1.9028,-11.54039 z m 8.53436,0.0539 q 0,5.98591 1.54485,8.60138 1.5637,2.61546 4.23892,2.61546 2.7506,0 4.25777,-2.56153 1.50716,-2.56154 1.50716,-9.19458 0,-5.58145 -1.58253,-8.14299 -1.56369,-2.5885 -4.25776,-2.5885 -2.58103,0 -4.14471,2.61545 -1.5637,2.61548 -1.5637,8.65531 z"
       style="font-size:36.15594864px"
       id="path4140"
       inkscape:connector-curvature="0" /><path
       d="m 187.04622,133.03782 9.90439,0 5.82842,13.34697 5.82843,-13.34697 9.84531,0 -11.22365,22.97295 0,16.55563 -8.93955,0 0,-16.55563 -11.24335,-22.97295 z"
       style="font-size:36.15594864px"
       id="path4142"
       inkscape:connector-curvature="0" /></g></svg>