<?xml version="1.0" encoding="UTF-8" standalone="no"?>
<!-- Generator: Adobe Illustrator 19.0.0, SVG Export Plug-In . SVG Version: 6.00 Build 0)  -->

<svg
   xmlns:dc="http://purl.org/dc/elements/1.1/"
   xmlns:cc="http://creativecommons.org/ns#"
   xmlns:rdf="http://www.w3.org/1999/02/22-rdf-syntax-ns#"
   xmlns:svg="http://www.w3.org/2000/svg"
   xmlns="http://www.w3.org/2000/svg"
   xmlns:sodipodi="http://sodipodi.sourceforge.net/DTD/sodipodi-0.dtd"
   xmlns:inkscape="http://www.inkscape.org/namespaces/inkscape"
   version="1.1"
   id="Layer_1"
   x="0px"
   y="0px"
   viewBox="0 0 110 200"
   xml:space="preserve"
   inkscape:version="0.91 r13725"
   sodipodi:docname="bearing.svg"
   width="110"
   height="200"><metadata
     id="metadata11"><rdf:RDF><cc:Work
         rdf:about=""><dc:format>image/svg+xml</dc:format><dc:type
           rdf:resource="http://purl.org/dc/dcmitype/StillImage" /><dc:title /></cc:Work></rdf:RDF></metadata><defs
     id="defs9" /><sodipodi:namedview
     pagecolor="#ffffff"
     bordercolor="#666666"
     borderopacity="1"
     objecttolerance="10"
     gridtolerance="10"
     guidetolerance="10"
     inkscape:pageopacity="0"
     inkscape:pageshadow="2"
     inkscape:window-width="1410"
     inkscape:window-height="811"
     id="namedview7"
     showgrid="false"
     inkscape:zoom="5.35"
     inkscape:cx="27.429909"
     inkscape:cy="100.00001"
     inkscape:window-x="0"
     inkscape:window-y="23"
     inkscape:window-maximized="0"
     inkscape:current-layer="text5" /><style
     type="text/css"
     id="style3">
	.st0{font-family:&quot;Arial Black&quot;, &quot;Arial Bold&quot;, Gadget, sans-serif;}
	.st1{font-size:100px;}
</style><g
     transform="scale(0.94154786,1.0620809)"
     style="font-size:152.53448486px;font-family:'Arial Black', 'Arial Bold', Gadget, sans-serif"
     id="text5"><path
       d="m 79.596477,104.09782 26.611613,8.93757 q -2.68127,12.43812 -8.446014,20.77985 -5.764727,8.34173 -14.34479,12.58707 -8.513032,4.24534 -21.718286,4.24534 -16.020588,0 -26.209413,-5.1391 -10.121793,-5.21358 -17.495286,-18.24753 -7.373492,-13.03395 -7.373492,-33.366919 0,-27.110621 12.937127,-41.634168 13.004158,-14.598027 36.733397,-14.598027 18.567794,0 29.158809,8.341729 10.658048,8.34173 15.819508,25.621027 l -26.812713,6.628696 q -1.407667,-4.990142 -2.949398,-7.299013 -2.547207,-3.872946 -6.233953,-5.958379 -3.686746,-2.085432 -8.244904,-2.085432 -10.322889,0 -15.819492,9.235486 -4.155969,6.852135 -4.155969,21.524642 0,18.173058 4.960349,24.950708 4.96035,6.70318 13.942604,6.70318 8.714128,0 13.138222,-5.43702 4.491128,-5.43702 6.502081,-15.78971 z"
       style="font-size:152.53448486px;font-family:'Arial Black', 'Arial Bold', Gadget, sans-serif"
       id="path3374"
       inkscape:connector-curvature="0" /></g></svg>