<?xml version="1.0" encoding="UTF-8" standalone="no"?>
<!-- Generator: Adobe Illustrator 19.0.0, SVG Export Plug-In . SVG Version: 6.00 Build 0)  -->

<svg
   xmlns:dc="http://purl.org/dc/elements/1.1/"
   xmlns:cc="http://creativecommons.org/ns#"
   xmlns:rdf="http://www.w3.org/1999/02/22-rdf-syntax-ns#"
   xmlns:svg="http://www.w3.org/2000/svg"
   xmlns="http://www.w3.org/2000/svg"
   xmlns:sodipodi="http://sodipodi.sourceforge.net/DTD/sodipodi-0.dtd"
   xmlns:inkscape="http://www.inkscape.org/namespaces/inkscape"
   version="1.1"
   id="Layer_1"
   x="0px"
   y="0px"
   viewBox="0 0 180 200"
   xml:space="preserve"
   inkscape:version="0.91 r13725"
   sodipodi:docname="on-the-left.svg"
   width="180"
   height="200"><metadata
     id="metadata15"><rdf:RDF><cc:Work
         rdf:about=""><dc:format>image/svg+xml</dc:format><dc:type
           rdf:resource="http://purl.org/dc/dcmitype/StillImage" /><dc:title /></cc:Work></rdf:RDF></metadata><defs
     id="defs13" /><sodipodi:namedview
     pagecolor="#ffffff"
     bordercolor="#666666"
     borderopacity="1"
     objecttolerance="10"
     gridtolerance="10"
     guidetolerance="10"
     inkscape:pageopacity="0"
     inkscape:pageshadow="2"
     inkscape:window-width="1536"
     inkscape:window-height="801"
     id="namedview11"
     showgrid="false"
     inkscape:zoom="3.5333335"
     inkscape:cx="96.559151"
     inkscape:cy="89.063377"
     inkscape:window-x="-8"
     inkscape:window-y="-8"
     inkscape:window-maximized="1"
     inkscape:current-layer="text3344" /><style
     type="text/css"
     id="style3">
	.st0{font-family:&quot;Arial Black&quot;, &quot;Arial Bold&quot;, Gadget, sans-serif;}
	.st1{font-size:118.4014px;}
	
		.st2{fill-rule:evenodd;clip-rule:evenodd;fill:none;stroke:#000000;stroke-width:18.9859;stroke-linecap:round;stroke-miterlimit:10;}
</style><flowRoot
     xml:space="preserve"
     id="flowRoot3336"
     style="fill:black;stroke:none;stroke-opacity:1;stroke-width:1px;stroke-linejoin:miter;stroke-linecap:butt;fill-opacity:1;font-family:Arial;font-style:normal;font-weight:900;font-size:40px;line-height:125%;letter-spacing:0px;word-spacing:0px;-inkscape-font-specification:'Arial, Heavy';font-stretch:normal;font-variant:normal;text-anchor:middle;text-align:center;writing-mode:lr"><flowRegion
       id="flowRegion3338"><rect
         id="rect3340"
         width="142.58875"
         height="86.720642"
         x="17.510899"
         y="69.919037" /></flowRegion><flowPara
       id="flowPara3342" /></flowRoot><g
     transform="scale(0.82689329,1.2093459)"
     style="font-style:normal;font-variant:normal;font-weight:900;font-stretch:normal;font-size:134.04833984px;line-height:125%;font-family:Arial;-inkscape-font-specification:'Arial, Heavy';text-align:center;letter-spacing:0px;word-spacing:0px;writing-mode:lr-tb;text-anchor:middle;fill:#000000;fill-opacity:1;stroke:none;stroke-width:1px;stroke-linecap:butt;stroke-linejoin:miter;stroke-opacity:1"
     id="text3344"><path
       d="m 78.8709,114.8269 -29.90087,0 -4.114266,15.8397 -26.829656,0 31.929029,-95.954529 28.626025,0 31.929028,95.954529 -27.467076,0 -4.172214,-15.8397 z m -5.505005,-20.748694 -9.387482,-34.493885 -9.329535,34.493885 18.717017,0 z"
       id="path4782"
       inkscape:connector-curvature="0" /><path
       d="m 156.79958,95.910898 0,-19.963254 42.12642,0 0,40.908306 q -12.0963,8.9671 -21.42429,12.23977 -9.26782,3.20721 -22.0261,3.20721 -15.70713,0 -25.63693,-5.82535 -9.8696,-5.82534 -15.34605,-17.34512 -5.41625,-11.519776 -5.41625,-26.443127 0,-15.70879 5.95789,-27.294022 5.95787,-11.650686 17.45236,-17.672389 8.96691,-4.647183 24.1324,-4.647183 14.62389,0 21.84556,2.879944 7.28185,2.879945 12.03613,8.967101 4.81443,6.021703 7.22166,15.31607 l -26.29892,5.105357 q -1.62488,-5.432623 -5.53661,-8.312568 -3.85155,-2.879945 -9.86962,-2.879945 -8.96691,0 -14.32297,6.807143 -5.29589,6.741689 -5.29589,21.403226 0,15.577883 5.35608,22.254123 5.41625,6.67623 15.04513,6.67623 4.57373,0 8.72618,-1.43997 4.15248,-1.43997 9.50853,-4.909 l 0,-9.032552 -18.23471,0 z"
       id="path4784"
       inkscape:connector-curvature="0" /></g></svg>