<?xml version="1.0" encoding="UTF-8" standalone="no"?>
<!-- Generator: Adobe Illustrator 19.0.0, SVG Export Plug-In . SVG Version: 6.00 Build 0)  -->

<svg
   xmlns:dc="http://purl.org/dc/elements/1.1/"
   xmlns:cc="http://creativecommons.org/ns#"
   xmlns:rdf="http://www.w3.org/1999/02/22-rdf-syntax-ns#"
   xmlns:svg="http://www.w3.org/2000/svg"
   xmlns="http://www.w3.org/2000/svg"
   xmlns:sodipodi="http://sodipodi.sourceforge.net/DTD/sodipodi-0.dtd"
   xmlns:inkscape="http://www.inkscape.org/namespaces/inkscape"
   version="1.1"
   id="Layer_1"
   x="0px"
   y="0px"
   viewBox="0 0 180 200"
   xml:space="preserve"
   inkscape:version="0.91 r13725"
   sodipodi:docname="right-left.svg"
   width="180"
   height="200"><metadata
     id="metadata15"><rdf:RDF><cc:Work
         rdf:about=""><dc:format>image/svg+xml</dc:format><dc:type
           rdf:resource="http://purl.org/dc/dcmitype/StillImage" /><dc:title /></cc:Work></rdf:RDF></metadata><defs
     id="defs13" /><sodipodi:namedview
     pagecolor="#ffffff"
     bordercolor="#666666"
     borderopacity="1"
     objecttolerance="10"
     gridtolerance="10"
     guidetolerance="10"
     inkscape:pageopacity="0"
     inkscape:pageshadow="2"
     inkscape:window-width="1536"
     inkscape:window-height="801"
     id="namedview11"
     showgrid="false"
     inkscape:zoom="3.5333337"
     inkscape:cx="72.818146"
     inkscape:cy="121.16756"
     inkscape:window-x="-8"
     inkscape:window-y="-8"
     inkscape:window-maximized="1"
     inkscape:current-layer="text3344" /><style
     type="text/css"
     id="style3">
	.st0{font-family:&quot;Arial Black&quot;, &quot;Arial Bold&quot;, Gadget, sans-serif;}
	.st1{font-size:118.4014px;}
	
		.st2{fill-rule:evenodd;clip-rule:evenodd;fill:none;stroke:#000000;stroke-width:18.9859;stroke-linecap:round;stroke-miterlimit:10;}
</style><flowRoot
     xml:space="preserve"
     id="flowRoot3336"
     style="fill:black;stroke:none;stroke-opacity:1;stroke-width:1px;stroke-linejoin:miter;stroke-linecap:butt;fill-opacity:1;font-family:Arial;font-style:normal;font-weight:900;font-size:40px;line-height:125%;letter-spacing:0px;word-spacing:0px;-inkscape-font-specification:'Arial, Heavy';font-stretch:normal;font-variant:normal;text-anchor:middle;text-align:center;writing-mode:lr"><flowRegion
       id="flowRegion3338"><rect
         id="rect3340"
         width="142.58875"
         height="86.720642"
         x="17.510899"
         y="69.919037" /></flowRegion><flowPara
       id="flowPara3342" /></flowRoot><g
     transform="scale(0.76321499,1.3102468)"
     style="font-style:normal;font-variant:normal;font-weight:900;font-stretch:normal;font-size:123.7253952px;line-height:125%;font-family:Arial;-inkscape-font-specification:'Arial, Heavy';text-align:center;letter-spacing:0px;word-spacing:0px;writing-mode:lr-tb;text-anchor:middle;fill:#000000;fill-opacity:1;stroke:none;stroke-width:1px;stroke-linecap:butt;stroke-linejoin:miter;stroke-opacity:1"
     id="text3344"><path
       d="m 17.033205,32.038906 38.43781,0 q 11.365712,0 18.333635,3.262291 7.025038,3.262291 11.594168,9.363982 4.569131,6.101692 6.625239,14.197006 2.05611,8.095314 2.05611,17.157233 0,14.197006 -3.084164,22.050668 -3.027049,7.793254 -8.452891,13.109574 -5.425842,5.25591 -11.651282,7.00789 -8.510005,2.41651 -15.420815,2.41651 l -38.43781,0 0,-88.565154 z m 25.872701,20.057047 0,48.390647 6.339669,0 q 8.110206,0 11.537054,-1.872798 3.426848,-1.93321 5.368728,-6.645407 1.941881,-4.772611 1.941881,-15.405262 0,-14.07618 -4.340674,-19.27168 -4.340674,-5.1955 -14.39276,-5.1955 l -6.453898,0 z"
       id="path4880"
       inkscape:connector-curvature="0" /><path
       d="m 118.09598,30.528586 12.56586,0 -22.23191,91.525374 -12.445026,0 22.111076,-91.525374 z"
       id="path4882"
       inkscape:connector-curvature="0" /><path
       d="m 177.0684,88.524865 0,-18.425901 38.63784,0 0,37.757996 q -11.09457,8.27655 -19.6501,11.29719 -8.50032,2.96023 -20.20207,2.96023 -14.40639,0 -23.51388,-5.37674 -9.05229,-5.37674 -14.07521,-16.00939 -4.96772,-10.632652 -4.96772,-24.406768 0,-14.49907 5.4645,-25.192134 5.46449,-10.753477 16.0071,-16.311453 8.22433,-4.289309 22.13395,-4.289309 13.41285,0 20.03649,2.658163 6.67882,2.658163 11.03938,8.276553 4.41575,5.557976 6.62362,14.136593 l -24.12105,4.712197 q -1.49031,-5.014261 -5.07811,-7.672424 -3.5326,-2.658163 -9.05229,-2.658163 -8.22434,0 -13.13687,6.28293 -4.85732,6.222518 -4.85732,19.754983 0,14.378244 4.91252,20.540349 4.96773,6.162103 13.79922,6.162103 4.19498,0 8.00356,-1.32908 3.80858,-1.32908 8.72111,-4.530959 l 0,-8.336966 -16.72467,0 z"
       id="path4884"
       inkscape:connector-curvature="0" /></g></svg>