<?xml version="1.0" encoding="UTF-8" standalone="no"?>
<!-- Generator: Adobe Illustrator 19.0.0, SVG Export Plug-In . SVG Version: 6.00 Build 0)  -->

<svg
   xmlns:dc="http://purl.org/dc/elements/1.1/"
   xmlns:cc="http://creativecommons.org/ns#"
   xmlns:rdf="http://www.w3.org/1999/02/22-rdf-syntax-ns#"
   xmlns:svg="http://www.w3.org/2000/svg"
   xmlns="http://www.w3.org/2000/svg"
   xmlns:sodipodi="http://sodipodi.sourceforge.net/DTD/sodipodi-0.dtd"
   xmlns:inkscape="http://www.inkscape.org/namespaces/inkscape"
   version="1.1"
   id="Layer_1"
   x="0px"
   y="0px"
   viewBox="0 0 250 200"
   xml:space="preserve"
   inkscape:version="0.91 r13725"
   sodipodi:docname="slow-down.svg"
   width="250"
   height="200"><metadata
     id="metadata11"><rdf:RDF><cc:Work
         rdf:about=""><dc:format>image/svg+xml</dc:format><dc:type
           rdf:resource="http://purl.org/dc/dcmitype/StillImage" /><dc:title /></cc:Work></rdf:RDF></metadata><defs
     id="defs9" /><sodipodi:namedview
     pagecolor="#ffffff"
     bordercolor="#666666"
     borderopacity="1"
     objecttolerance="10"
     gridtolerance="10"
     guidetolerance="10"
     inkscape:pageopacity="0"
     inkscape:pageshadow="2"
     inkscape:window-width="1536"
     inkscape:window-height="801"
     id="namedview7"
     showgrid="false"
     inkscape:zoom="2.0830187"
     inkscape:cx="108.25832"
     inkscape:cy="98.922484"
     inkscape:window-x="-8"
     inkscape:window-y="-8"
     inkscape:window-maximized="1"
     inkscape:current-layer="text5" /><style
     type="text/css"
     id="style3">
	.st0{font-family:&quot;Arial Black&quot;, &quot;Arial Bold&quot;, Gadget, sans-serif;}
	.st1{font-size:75px;}
</style><g
     transform="scale(0.84318461,1.1859799)"
     style="font-size:141.35131836px;font-family:'Arial Black', 'Arial Bold', Gadget, sans-serif"
     id="text5"><path
       d="m 17.430718,134.90953 0,-101.182144 47.682896,0 q 13.262792,0 20.273125,2.484691 7.010334,2.484691 11.304952,9.248572 4.294619,6.694863 4.294619,16.357551 0,8.420342 -3.28412,14.56305 -3.28412,6.07369 -9.03133,9.869746 -3.663057,2.415672 -10.041829,4.003113 5.115648,1.863519 7.452426,3.727037 1.578904,1.242346 4.547243,5.314478 3.031495,4.072136 4.041994,6.280746 l 13.831196,29.33316 -32.335949,0 -15.283789,-30.9206 q -2.905183,-6.004671 -5.178805,-7.79917 -3.094652,-2.346652 -7.010332,-2.346652 l -2.526247,0 0,41.066422 -28.73605,0 z m 28.73605,-60.18474 12.062826,0 q 1.957841,0 7.578738,-1.380384 2.842028,-0.621173 4.610399,-3.174883 1.831529,-2.553711 1.831529,-5.866632 0,-4.900363 -2.842027,-7.523093 -2.842028,-2.62273 -10.67339,-2.62273 l -12.568075,0 0,20.567722 z"
       style="font-size:141.35131836px;font-family:'Arial Black', 'Arial Bold', Gadget, sans-serif"
       id="path4987"
       inkscape:connector-curvature="0" /><path
       d="m 117.76631,33.727386 29.22183,0 0,76.266214 45.6067,0 0,24.91593 -74.82853,0 0,-101.182144 z"
       style="font-size:141.35131836px;font-family:'Arial Black', 'Arial Bold', Gadget, sans-serif"
       id="path4989"
       inkscape:connector-curvature="0" /><path
       d="m 195.21027,33.727386 84.97455,0 0,24.98495 -28.50998,0 0,76.197194 -27.95459,0 0,-76.197194 -28.50998,0 0,-24.98495 z"
       style="font-size:141.35131836px;font-family:'Arial Black', 'Arial Bold', Gadget, sans-serif"
       id="path4991"
       inkscape:connector-curvature="0" /></g><text
     transform="scale(0.79983082,1.2502644)"
     class="st0 st1"
     x="5.0010576"
     y="96.020195"
     style="font-size:97.24591827px;font-family:'Arial Black', 'Arial Bold', Gadget, sans-serif"
     id="text3386" />
<text
     xml:space="preserve"
     style="font-style:normal;font-weight:normal;font-size:40px;line-height:125%;font-family:sans-serif;letter-spacing:0px;word-spacing:0px;fill:#000000;fill-opacity:1;stroke:none;stroke-width:1px;stroke-linecap:butt;stroke-linejoin:miter;stroke-opacity:1"
     x="83.726418"
     y="71.75708"
     id="text3370"
     sodipodi:linespacing="125%"><tspan
       sodipodi:role="line"
       id="tspan3372"
       x="83.726418"
       y="71.75708" /></text>
<text
     xml:space="preserve"
     style="font-style:normal;font-weight:normal;font-size:40px;line-height:125%;font-family:sans-serif;letter-spacing:0px;word-spacing:0px;fill:#000000;fill-opacity:1;stroke:none;stroke-width:1px;stroke-linecap:butt;stroke-linejoin:miter;stroke-opacity:1"
     x="30.365566"
     y="93.86792"
     id="text3374"
     sodipodi:linespacing="125%"><tspan
       sodipodi:role="line"
       id="tspan3376"
       x="30.365566"
       y="93.86792" /></text>
<flowRoot
     xml:space="preserve"
     id="flowRoot3378"
     style="font-style:normal;font-weight:normal;font-size:40px;line-height:125%;font-family:sans-serif;letter-spacing:0px;word-spacing:0px;fill:#000000;fill-opacity:1;stroke:none;stroke-width:1px;stroke-linecap:butt;stroke-linejoin:miter;stroke-opacity:1"
     transform="translate(0,-50)"><flowRegion
       id="flowRegion3380"><rect
         id="rect3382"
         width="115.27122"
         height="155.66037"
         x="53.066036"
         y="38.915092" /></flowRegion><flowPara
       id="flowPara3384" /></flowRoot></svg>