<?xml version="1.0" encoding="UTF-8" standalone="no"?>
<!-- Generator: Adobe Illustrator 19.0.0, SVG Export Plug-In . SVG Version: 6.00 Build 0)  -->

<svg
   xmlns:dc="http://purl.org/dc/elements/1.1/"
   xmlns:cc="http://creativecommons.org/ns#"
   xmlns:rdf="http://www.w3.org/1999/02/22-rdf-syntax-ns#"
   xmlns:svg="http://www.w3.org/2000/svg"
   xmlns="http://www.w3.org/2000/svg"
   xmlns:sodipodi="http://sodipodi.sourceforge.net/DTD/sodipodi-0.dtd"
   xmlns:inkscape="http://www.inkscape.org/namespaces/inkscape"
   version="1.1"
   id="Layer_1"
   x="0px"
   y="0px"
   viewBox="0 0 180 200"
   xml:space="preserve"
   inkscape:version="0.91 r13725"
   sodipodi:docname="to-take.svg"
   width="180"
   height="200"><metadata
     id="metadata15"><rdf:RDF><cc:Work
         rdf:about=""><dc:format>image/svg+xml</dc:format><dc:type
           rdf:resource="http://purl.org/dc/dcmitype/StillImage" /><dc:title /></cc:Work></rdf:RDF></metadata><defs
     id="defs13" /><sodipodi:namedview
     pagecolor="#ffffff"
     bordercolor="#666666"
     borderopacity="1"
     objecttolerance="10"
     gridtolerance="10"
     guidetolerance="10"
     inkscape:pageopacity="0"
     inkscape:pageshadow="2"
     inkscape:window-width="1536"
     inkscape:window-height="801"
     id="namedview11"
     showgrid="false"
     inkscape:zoom="1.7666666"
     inkscape:cx="187.02074"
     inkscape:cy="147.71723"
     inkscape:window-x="-8"
     inkscape:window-y="-8"
     inkscape:window-maximized="1"
     inkscape:current-layer="text3344" /><style
     type="text/css"
     id="style3">
	.st0{font-family:&quot;Arial Black&quot;, &quot;Arial Bold&quot;, Gadget, sans-serif;}
	.st1{font-size:118.4014px;}
	
		.st2{fill-rule:evenodd;clip-rule:evenodd;fill:none;stroke:#000000;stroke-width:18.9859;stroke-linecap:round;stroke-miterlimit:10;}
</style><flowRoot
     xml:space="preserve"
     id="flowRoot3336"
     style="fill:black;stroke:none;stroke-opacity:1;stroke-width:1px;stroke-linejoin:miter;stroke-linecap:butt;fill-opacity:1;font-family:Arial;font-style:normal;font-weight:900;font-size:40px;line-height:125%;letter-spacing:0px;word-spacing:0px;-inkscape-font-specification:'Arial, Heavy';font-stretch:normal;font-variant:normal;text-anchor:middle;text-align:center;writing-mode:lr"><flowRegion
       id="flowRegion3338"><rect
         id="rect3340"
         width="142.58875"
         height="86.720642"
         x="17.510899"
         y="69.919037" /></flowRegion><flowPara
       id="flowPara3342" /></flowRoot><g
     transform="scale(0.85696112,1.1669141)"
     style="font-style:normal;font-variant:normal;font-weight:900;font-stretch:normal;font-size:143.66082764px;line-height:125%;font-family:Arial;-inkscape-font-specification:'Arial, Heavy';text-align:center;letter-spacing:0px;word-spacing:0px;writing-mode:lr-tb;text-anchor:middle;fill:#000000;fill-opacity:1;stroke:none;stroke-width:1px;stroke-linecap:butt;stroke-linejoin:miter;stroke-opacity:1"
     id="text3344"><path
       d="m 17.503718,137.11378 0,-102.835334 49.04825,0 q 13.64256,0 20.853628,2.525288 7.211067,2.525288 11.628658,9.399683 4.417596,6.804248 4.417596,16.624813 0,8.55792 -3.37816,14.800993 -3.378161,6.172927 -9.289937,10.031005 -3.767944,2.455141 -10.329367,4.06852 5.262131,1.893966 7.66582,3.787932 1.624114,1.262644 4.677449,5.40131 3.1183,4.13867 4.157733,6.38337 l 14.227252,29.81242 -33.261871,0 -15.721427,-31.4258 q -2.988369,-6.102781 -5.327094,-7.9266 -3.183265,-2.384994 -7.211068,-2.384994 l -2.598584,0 0,41.737394 -29.558878,0 z m 29.558878,-61.168082 12.408234,0 q 2.013902,0 7.795749,-1.402938 2.923405,-0.631322 4.742413,-3.226757 1.883972,-2.595434 1.883972,-5.962485 0,-4.980429 -2.923405,-7.646011 -2.923406,-2.665582 -10.979012,-2.665582 l -12.927951,0 0,20.903773 z"
       id="path4140"
       inkscape:connector-curvature="0" /><path
       d="m 114.61342,34.278446 47.73179,0 q 15.59366,0 23.3271,8.207186 7.79682,8.207186 7.79682,23.358914 0,15.572609 -8.4941,24.34097 -8.43072,8.768361 -25.79926,8.768361 l -15.72043,0 0,38.159903 -28.84192,0 0,-102.835334 z m 28.84192,43.841806 7.03616,0 q 8.30394,0 11.66355,-3.15661 3.35961,-3.226757 3.35961,-8.207186 0,-4.840136 -2.9159,-8.207186 -2.91588,-3.367051 -10.96626,-3.367051 l -8.17716,0 0,22.938033 z"
       id="path4142"
       inkscape:connector-curvature="0" /></g></svg>