<?xml version="1.0" encoding="UTF-8" standalone="no"?>
<!-- Generator: Adobe Illustrator 19.0.0, SVG Export Plug-In . SVG Version: 6.00 Build 0)  -->

<svg
   xmlns:dc="http://purl.org/dc/elements/1.1/"
   xmlns:cc="http://creativecommons.org/ns#"
   xmlns:rdf="http://www.w3.org/1999/02/22-rdf-syntax-ns#"
   xmlns:svg="http://www.w3.org/2000/svg"
   xmlns="http://www.w3.org/2000/svg"
   xmlns:sodipodi="http://sodipodi.sourceforge.net/DTD/sodipodi-0.dtd"
   xmlns:inkscape="http://www.inkscape.org/namespaces/inkscape"
   version="1.1"
   id="Layer_1"
   x="0px"
   y="0px"
   viewBox="0 0 250 250"
   style="enable-background:new 0 0 250 250;"
   xml:space="preserve"
   inkscape:version="0.91 r13725"
   sodipodi:docname="distance100.svg"><metadata
     id="metadata4205"><rdf:RDF><cc:Work
         rdf:about=""><dc:format>image/svg+xml</dc:format><dc:type
           rdf:resource="http://purl.org/dc/dcmitype/StillImage" /><dc:title /></cc:Work></rdf:RDF></metadata><defs
     id="defs4203" /><sodipodi:namedview
     pagecolor="#ffffff"
     bordercolor="#666666"
     borderopacity="1"
     objecttolerance="10"
     gridtolerance="10"
     guidetolerance="10"
     inkscape:pageopacity="0"
     inkscape:pageshadow="2"
     inkscape:window-width="1536"
     inkscape:window-height="801"
     id="namedview4201"
     showgrid="false"
     inkscape:zoom="2.1740817"
     inkscape:cx="57.155264"
     inkscape:cy="125"
     inkscape:current-layer="text4740"
     inkscape:window-x="-8"
     inkscape:window-y="-8"
     inkscape:window-maximized="1" /><style
     type="text/css"
     id="style4196">
	.st0{fill-rule:evenodd;clip-rule:evenodd;}
</style><path
     style="fill:none;fill-rule:evenodd;stroke:#000000;stroke-width:3.8769505;stroke-linecap:butt;stroke-linejoin:miter;stroke-miterlimit:4;stroke-dasharray:none;stroke-opacity:1"
     d="m 126.5,150.11647 0,92.72788"
     id="path4198"
     inkscape:connector-curvature="0" /><path
     style="fill:none;fill-rule:evenodd;stroke:#000000;stroke-width:3.89192915;stroke-linecap:butt;stroke-linejoin:miter;stroke-miterlimit:4;stroke-dasharray:none;stroke-opacity:1"
     d="m 126.5,7.6318783 0,81.6887337"
     id="path4198-6"
     inkscape:connector-curvature="0" /><path
     style="fill:none;fill-rule:evenodd;stroke:#000000;stroke-width:4;stroke-linecap:butt;stroke-linejoin:miter;stroke-miterlimit:4;stroke-dasharray:none;stroke-opacity:1"
     d="M 140.74908,40.256272 126.49018,5.2989841 111.31136,41.176201"
     id="path4734"
     inkscape:connector-curvature="0" /><path
     inkscape:connector-curvature="0"
     id="path4736"
     d="M 140.74908,40.256272 126.49018,5.2989841 111.31136,41.176201"
     style="fill:none;fill-rule:evenodd;stroke:#000000;stroke-width:4;stroke-linecap:butt;stroke-linejoin:miter;stroke-miterlimit:4;stroke-dasharray:none;stroke-opacity:1" /><path
     style="fill:none;fill-rule:evenodd;stroke:#000000;stroke-width:4;stroke-linecap:butt;stroke-linejoin:miter;stroke-miterlimit:4;stroke-dasharray:none;stroke-opacity:1"
     d="m 140.74908,206.46961 -14.2589,34.95729 -15.17882,-35.87722"
     id="path4738"
     inkscape:connector-curvature="0" /><g
     transform="scale(1.0086833,0.99139146)"
     style="font-style:normal;font-variant:normal;font-weight:900;font-stretch:normal;font-size:67.29641724px;line-height:125%;font-family:Arial;-inkscape-font-specification:'Arial, Heavy';text-align:start;letter-spacing:0px;word-spacing:0px;writing-mode:lr-tb;text-anchor:start;fill:#000000;fill-opacity:1;stroke:none;stroke-width:1px;stroke-linecap:butt;stroke-linejoin:miter;stroke-opacity:1"
     id="text4740"><path
       d="m 65.851406,94.307668 0,48.993632 -13.538146,0 0,-32.10381 q -3.285958,2.49733 -6.374759,4.04173 -3.05594,1.5444 -7.689141,2.95736 l 0,-10.9751 q 6.834792,-2.20159 10.613644,-5.29039 3.778851,-3.0888 5.914724,-7.623422 l 11.073678,0 z"
       style=""
       id="path6437" /><path
       d="m 80.473919,119.01807 q 0,-13.7353 4.928937,-19.222852 4.961796,-5.48755 15.082544,-5.48755 4.86322,0 7.98488,1.215805 3.12166,1.182944 5.09323,3.12166 1.97158,1.905857 3.08881,4.041727 1.15008,2.10301 1.84013,4.92894 1.34724,5.38897 1.34724,11.23797 0,13.11098 -4.43604,19.19 -4.43604,6.07902 -15.2797,6.07902 -6.079025,0 -9.825017,-1.93872 -3.745992,-1.93871 -6.144741,-5.6847 -1.741558,-2.66163 -2.727345,-7.26197 -0.952928,-4.6332 -0.952928,-10.21933 z m 13.27527,0.0329 q 0,9.20068 1.610119,12.58522 1.642979,3.35168 4.731782,3.35168 2.03729,0 3.51597,-1.41297 1.51154,-1.44582 2.20159,-4.53462 0.72292,-3.0888 0.72292,-9.62785 0,-9.595 -1.64298,-12.88096 -1.61012,-3.31882 -4.86322,-3.31882 -3.318819,0 -4.7975,3.38454 -1.478681,3.35168 -1.478681,12.45378 z"
       style=""
       id="path6439" /><path
       d="m 125.42582,119.01807 q 0,-13.7353 4.92894,-19.222852 4.9618,-5.48755 15.08255,-5.48755 4.86321,0 7.98487,1.215805 3.12166,1.182944 5.09324,3.12166 1.97157,1.905857 3.0888,4.041727 1.15008,2.10301 1.84014,4.92894 1.34724,5.38897 1.34724,11.23797 0,13.11098 -4.43604,19.19 -4.43605,6.07902 -15.27971,6.07902 -6.07902,0 -9.82501,-1.93872 -3.74599,-1.93871 -6.14474,-5.6847 -1.74156,-2.66163 -2.72735,-7.26197 -0.95293,-4.6332 -0.95293,-10.21933 z m 13.27527,0.0329 q 0,9.20068 1.61012,12.58522 1.64298,3.35168 4.73178,3.35168 2.0373,0 3.51598,-1.41297 1.51154,-1.44582 2.20159,-4.53462 0.72291,-3.0888 0.72291,-9.62785 0,-9.595 -1.64298,-12.88096 -1.61012,-3.31882 -4.86322,-3.31882 -3.31881,0 -4.7975,3.38454 -1.47868,3.35168 -1.47868,12.45378 z"
       style=""
       id="path6441" /><path
       d="m 171.75783,108.40443 12.48664,0 0,5.09323 q 2.69449,-3.18738 5.42183,-4.53462 2.76021,-1.34724 6.63764,-1.34724 4.17316,0 6.60477,1.47868 2.43161,1.47868 3.97601,4.40318 3.15452,-3.41739 5.75043,-4.6332 2.5959,-1.24866 6.40761,-1.24866 5.61899,0 8.77351,3.35167 3.15452,3.31882 3.15452,10.41649 l 0,21.91734 -13.40671,0 0,-19.88005 q 0,-2.36588 -0.92007,-3.51597 -1.34724,-1.80728 -3.35167,-1.80728 -2.36589,0 -3.81171,1.7087 -1.44582,1.7087 -1.44582,5.48755 l 0,18.00705 -13.40671,0 0,-19.22285 q 0,-2.30017 -0.26288,-3.12166 -0.42717,-1.31439 -1.47868,-2.10302 -1.05151,-0.82149 -2.46447,-0.82149 -2.30017,0 -3.77885,1.74156 -1.47868,1.74156 -1.47868,5.71757 l 0,17.80989 -13.40671,0 0,-34.89687 z"
       style=""
       id="path6443" /></g><text
     xml:space="preserve"
     style="font-style:normal;font-variant:normal;font-weight:900;font-stretch:normal;font-size:79.76599884px;line-height:125%;font-family:Arial;-inkscape-font-specification:'Arial, Heavy';text-align:start;letter-spacing:0px;word-spacing:0px;writing-mode:lr-tb;text-anchor:start;fill:#000000;fill-opacity:1;stroke:none;stroke-width:1px;stroke-linecap:butt;stroke-linejoin:miter;stroke-opacity:1"
     x="219.86295"
     y="125.34967"
     id="text4744"
     sodipodi:linespacing="125%"><tspan
       sodipodi:role="line"
       id="tspan4746"
       x="219.86295"
       y="125.34967" /><tspan
       sodipodi:role="line"
       x="219.86295"
       y="225.05717"
       id="tspan4748" /></text>
</svg>