<?xml version="1.0" encoding="UTF-8" standalone="no"?>
<!-- Generator: Adobe Illustrator 19.0.0, SVG Export Plug-In . SVG Version: 6.00 Build 0)  -->

<svg
   xmlns:dc="http://purl.org/dc/elements/1.1/"
   xmlns:cc="http://creativecommons.org/ns#"
   xmlns:rdf="http://www.w3.org/1999/02/22-rdf-syntax-ns#"
   xmlns:svg="http://www.w3.org/2000/svg"
   xmlns="http://www.w3.org/2000/svg"
   xmlns:sodipodi="http://sodipodi.sourceforge.net/DTD/sodipodi-0.dtd"
   xmlns:inkscape="http://www.inkscape.org/namespaces/inkscape"
   version="1.1"
   id="Layer_1"
   x="0px"
   y="0px"
   viewBox="0 0 250 250"
   style="enable-background:new 0 0 250 250;"
   xml:space="preserve"
   inkscape:version="0.91 r13725"
   sodipodi:docname="distance50.svg"><metadata
     id="metadata4205"><rdf:RDF><cc:Work
         rdf:about=""><dc:format>image/svg+xml</dc:format><dc:type
           rdf:resource="http://purl.org/dc/dcmitype/StillImage" /><dc:title /></cc:Work></rdf:RDF></metadata><defs
     id="defs4203" /><sodipodi:namedview
     pagecolor="#ffffff"
     bordercolor="#666666"
     borderopacity="1"
     objecttolerance="10"
     gridtolerance="10"
     guidetolerance="10"
     inkscape:pageopacity="0"
     inkscape:pageshadow="2"
     inkscape:window-width="1536"
     inkscape:window-height="801"
     id="namedview4201"
     showgrid="false"
     inkscape:zoom="2.1740817"
     inkscape:cx="57.155264"
     inkscape:cy="125"
     inkscape:current-layer="text4740"
     inkscape:window-x="-8"
     inkscape:window-y="-8"
     inkscape:window-maximized="1" /><style
     type="text/css"
     id="style4196">
	.st0{fill-rule:evenodd;clip-rule:evenodd;}
</style><path
     style="fill:none;fill-rule:evenodd;stroke:#000000;stroke-width:3.8769505;stroke-linecap:butt;stroke-linejoin:miter;stroke-miterlimit:4;stroke-dasharray:none;stroke-opacity:1"
     d="m 126.5,150.11647 0,92.72788"
     id="path4198"
     inkscape:connector-curvature="0" /><path
     style="fill:none;fill-rule:evenodd;stroke:#000000;stroke-width:3.89192915;stroke-linecap:butt;stroke-linejoin:miter;stroke-miterlimit:4;stroke-dasharray:none;stroke-opacity:1"
     d="m 126.5,7.6318783 0,81.6887337"
     id="path4198-6"
     inkscape:connector-curvature="0" /><path
     style="fill:none;fill-rule:evenodd;stroke:#000000;stroke-width:4;stroke-linecap:butt;stroke-linejoin:miter;stroke-miterlimit:4;stroke-dasharray:none;stroke-opacity:1"
     d="M 140.74908,40.256272 126.49018,5.2989841 111.31136,41.176201"
     id="path4734"
     inkscape:connector-curvature="0" /><path
     inkscape:connector-curvature="0"
     id="path4736"
     d="M 140.74908,40.256272 126.49018,5.2989841 111.31136,41.176201"
     style="fill:none;fill-rule:evenodd;stroke:#000000;stroke-width:4;stroke-linecap:butt;stroke-linejoin:miter;stroke-miterlimit:4;stroke-dasharray:none;stroke-opacity:1" /><path
     style="fill:none;fill-rule:evenodd;stroke:#000000;stroke-width:4;stroke-linecap:butt;stroke-linejoin:miter;stroke-miterlimit:4;stroke-dasharray:none;stroke-opacity:1"
     d="m 140.74908,206.46961 -14.2589,34.95729 -15.17882,-35.87722"
     id="path4738"
     inkscape:connector-curvature="0" /><g
     transform="scale(1.0086833,0.99139146)"
     style="font-style:normal;font-variant:normal;font-weight:900;font-stretch:normal;font-size:67.29641724px;line-height:125%;font-family:Arial;-inkscape-font-specification:'Arial, Heavy';text-align:start;letter-spacing:0px;word-spacing:0px;writing-mode:lr-tb;text-anchor:start;fill:#000000;fill-opacity:1;stroke:none;stroke-width:1px;stroke-linecap:butt;stroke-linejoin:miter;stroke-opacity:1"
     id="text4740"><path
       d="m 66.936113,96.057075 31.775213,0 0,10.679365 -21.523024,0 -1.150086,7.22911 q 2.234452,-1.05151 4.403184,-1.57726 2.201592,-0.52576 4.337464,-0.52576 7.229108,0 11.73087,4.37033 4.501766,4.37032 4.501766,11.00796 0,4.66606 -2.333034,8.97066 -2.30017,4.30461 -6.571916,6.57192 -4.238885,2.26731 -10.87652,2.26731 -4.764639,0 -8.182035,-0.88721 -3.384537,-0.92007 -5.783286,-2.69449 -2.36589,-1.80727 -3.844571,-4.07458 -1.478681,-2.26732 -2.464468,-5.65185 l 13.538146,-1.47868 q 0.492894,3.25309 2.300171,4.96179 1.807276,1.67584 4.304604,1.67584 2.793065,0 4.600341,-2.10301 1.840137,-2.13587 1.840137,-6.3419 0,-4.30461 -1.840137,-6.30904 -1.840136,-2.00443 -4.896077,-2.00443 -1.938715,0 -3.745992,0.95292 -1.347242,0.69006 -2.957362,2.49733 l -11.402274,-1.64298 4.238886,-25.893345 z"
       style=""
       id="path5313" /><path
       d="m 106.46619,119.94599 q 0,-13.73531 4.92893,-19.22285 4.9618,-5.487554 15.08255,-5.487554 4.86322,0 7.98488,1.215804 3.12166,1.182945 5.09323,3.12166 1.97158,1.90586 3.0888,4.04173 1.15009,2.10301 1.84014,4.92894 1.34724,5.38897 1.34724,11.23797 0,13.11097 -4.43604,19.18999 -4.43604,6.07903 -15.27971,6.07903 -6.07902,0 -9.82501,-1.93872 -3.74599,-1.93871 -6.14474,-5.68471 -1.74156,-2.66162 -2.72735,-7.26196 -0.95292,-4.6332 -0.95292,-10.21933 z m 13.27527,0.0329 q 0,9.20068 1.61012,12.58522 1.64297,3.35167 4.73178,3.35167 2.03729,0 3.51597,-1.41296 1.51154,-1.44582 2.20159,-4.53462 0.72291,-3.0888 0.72291,-9.62786 0,-9.59499 -1.64298,-12.88095 -1.61012,-3.31882 -4.86321,-3.31882 -3.31882,0 -4.7975,3.38454 -1.47868,3.35168 -1.47868,12.45378 z"
       style=""
       id="path5315" /><path
       d="m 152.79819,109.33234 12.48664,0 0,5.09324 q 2.69449,-3.18738 5.42183,-4.53462 2.76021,-1.34724 6.63764,-1.34724 4.17317,0 6.60477,1.47868 2.43161,1.47868 3.97601,4.40318 3.15452,-3.4174 5.75043,-4.6332 2.59591,-1.24866 6.40762,-1.24866 5.61899,0 8.7735,3.35167 3.15452,3.31882 3.15452,10.41649 l 0,21.91734 -13.4067,0 0,-19.88005 q 0,-2.36589 -0.92007,-3.51597 -1.34724,-1.80728 -3.35168,-1.80728 -2.36589,0 -3.81171,1.7087 -1.44582,1.7087 -1.44582,5.48755 l 0,18.00705 -13.40671,0 0,-19.22286 q 0,-2.30017 -0.26288,-3.12166 -0.42717,-1.31438 -1.47868,-2.10301 -1.0515,-0.82149 -2.46447,-0.82149 -2.30017,0 -3.77885,1.74156 -1.47868,1.74156 -1.47868,5.71757 l 0,17.80989 -13.40671,0 0,-34.89688 z"
       style=""
       id="path5317" /></g><text
     xml:space="preserve"
     style="font-style:normal;font-variant:normal;font-weight:900;font-stretch:normal;font-size:79.76599884px;line-height:125%;font-family:Arial;-inkscape-font-specification:'Arial, Heavy';text-align:start;letter-spacing:0px;word-spacing:0px;writing-mode:lr-tb;text-anchor:start;fill:#000000;fill-opacity:1;stroke:none;stroke-width:1px;stroke-linecap:butt;stroke-linejoin:miter;stroke-opacity:1"
     x="219.86295"
     y="125.34967"
     id="text4744"
     sodipodi:linespacing="125%"><tspan
       sodipodi:role="line"
       id="tspan4746"
       x="219.86295"
       y="125.34967" /><tspan
       sodipodi:role="line"
       x="219.86295"
       y="225.05717"
       id="tspan4748" /></text>
</svg>