<?xml version="1.0" encoding="UTF-8" standalone="no"?>
<!-- Generator: Adobe Illustrator 19.0.0, SVG Export Plug-In . SVG Version: 6.00 Build 0)  -->

<svg
   xmlns:dc="http://purl.org/dc/elements/1.1/"
   xmlns:cc="http://creativecommons.org/ns#"
   xmlns:rdf="http://www.w3.org/1999/02/22-rdf-syntax-ns#"
   xmlns:svg="http://www.w3.org/2000/svg"
   xmlns="http://www.w3.org/2000/svg"
   xmlns:sodipodi="http://sodipodi.sourceforge.net/DTD/sodipodi-0.dtd"
   xmlns:inkscape="http://www.inkscape.org/namespaces/inkscape"
   version="1.1"
   id="Layer_1"
   x="0px"
   y="0px"
   viewBox="0 0 250 200"
   xml:space="preserve"
   inkscape:version="0.91 r13725"
   sodipodi:docname="tight.svg"
   width="250"
   height="200"><metadata
     id="metadata11"><rdf:RDF><cc:Work
         rdf:about=""><dc:format>image/svg+xml</dc:format><dc:type
           rdf:resource="http://purl.org/dc/dcmitype/StillImage" /><dc:title /></cc:Work></rdf:RDF></metadata><defs
     id="defs9" /><sodipodi:namedview
     pagecolor="#ffffff"
     bordercolor="#666666"
     borderopacity="1"
     objecttolerance="10"
     gridtolerance="10"
     guidetolerance="10"
     inkscape:pageopacity="0"
     inkscape:pageshadow="2"
     inkscape:window-width="1536"
     inkscape:window-height="801"
     id="namedview7"
     showgrid="false"
     inkscape:zoom="1.4729167"
     inkscape:cx="155.21396"
     inkscape:cy="150.57598"
     inkscape:window-x="-8"
     inkscape:window-y="-8"
     inkscape:window-maximized="1"
     inkscape:current-layer="text5" /><style
     type="text/css"
     id="style3">
	.st0{font-family:&quot;Arial Black&quot;, &quot;Arial Bold&quot;, Gadget, sans-serif;}
	.st1{font-size:75px;}
</style><g
     transform="scale(0.82202785,1.2165038)"
     style="font-size:133.2596283px;font-family:'Arial Black', 'Arial Bold', Gadget, sans-serif"
     id="text5"><path
       d="m 18.247558,98.339685 28.044386,-1.756841 q 0.910954,6.832156 3.708886,10.410906 4.554772,5.79107 13.013635,5.79107 6.311614,0 9.695159,-2.92807 3.448613,-2.99313 3.448613,-6.89722 0,-3.708891 -3.253409,-6.636959 Q 69.651419,93.394503 57.809011,90.791776 38.418694,86.432208 30.155035,79.20964 21.826308,71.987073 21.826308,60.795346 q 0,-7.352704 4.229432,-13.859522 4.2945,-6.571886 12.818431,-10.280772 8.589,-3.773954 23.489613,-3.773954 18.284158,0 27.84918,6.832158 9.63009,6.767091 11.451996,21.602635 l -27.784109,1.626705 q -1.106159,-6.44175 -4.684909,-9.369818 -3.513681,-2.928068 -9.760226,-2.928068 -5.140387,0 -7.743114,2.212318 -2.602727,2.14725 -2.602727,5.270523 0,2.277386 2.14725,4.099295 2.082182,1.886977 9.890363,3.513681 19.325249,4.164364 27.653976,8.458864 8.393795,4.229431 12.167746,10.541044 3.83903,6.311614 3.83903,14.119795 0,9.17461 -5.075322,16.91773 -5.075318,7.74311 -14.184863,11.77734 -9.109545,3.96916 -22.969067,3.96916 -24.335498,0 -33.705316,-9.36982 -9.369819,-9.36982 -10.606114,-23.814955 z"
       style="font-size:133.2596283px;font-family:'Arial Black', 'Arial Bold', Gadget, sans-serif"
       id="path3394"
       inkscape:connector-curvature="0" /><path
       d="m 112.32476,34.507802 73.25662,0 0,20.36634 -45.86082,0 0,15.160885 42.54194,0 0,19.455385 -42.54194,0 0,18.804708 47.18837,0 0,21.60263 -74.58417,0 0,-95.389948 z"
       style="font-size:133.2596283px;font-family:'Arial Black', 'Arial Bold', Gadget, sans-serif"
       id="path3396"
       inkscape:connector-curvature="0" /><path
       d="m 194.48308,129.89775 0,-95.389948 46.98605,0 q 13.06896,0 19.97685,2.342454 6.90788,2.342455 11.13973,8.719136 4.23186,6.311614 4.23186,15.421158 0,7.938318 -3.23613,13.729386 -3.23612,5.726 -8.89933,9.304749 -3.60953,2.277387 -9.89508,3.773955 5.04089,1.756841 7.34351,3.513681 1.55583,1.171228 4.48079,5.01025 2.98719,3.839019 3.98292,5.921209 l 13.62907,27.65397 -31.86338,0 -15.06043,-29.15054 q -2.86273,-5.660934 -5.10312,-7.352707 -3.04943,-2.212318 -6.90789,-2.212318 l -2.48933,0 0,38.715565 -28.31609,0 z m 28.31609,-56.73945 11.88654,0 q 1.92923,0 7.46798,-1.301364 2.80049,-0.585613 4.54302,-2.993136 1.80477,-2.407523 1.80477,-5.530795 0,-4.619841 -2.8005,-7.092432 -2.80049,-2.47259 -10.5174,-2.47259 l -12.38441,0 0,19.390317 z"
       style="font-size:133.2596283px;font-family:'Arial Black', 'Arial Bold', Gadget, sans-serif"
       id="path3398"
       inkscape:connector-curvature="0" /></g><text
     transform="scale(0.79983082,1.2502644)"
     class="st0 st1"
     x="5.0010576"
     y="96.020195"
     style="font-size:97.24591827px;font-family:'Arial Black', 'Arial Bold', Gadget, sans-serif"
     id="text3386" />
<text
     xml:space="preserve"
     style="font-style:normal;font-weight:normal;font-size:40px;line-height:125%;font-family:sans-serif;letter-spacing:0px;word-spacing:0px;fill:#000000;fill-opacity:1;stroke:none;stroke-width:1px;stroke-linecap:butt;stroke-linejoin:miter;stroke-opacity:1"
     x="83.726418"
     y="71.75708"
     id="text3370"
     sodipodi:linespacing="125%"><tspan
       sodipodi:role="line"
       id="tspan3372"
       x="83.726418"
       y="71.75708" /></text>
<text
     xml:space="preserve"
     style="font-style:normal;font-weight:normal;font-size:40px;line-height:125%;font-family:sans-serif;letter-spacing:0px;word-spacing:0px;fill:#000000;fill-opacity:1;stroke:none;stroke-width:1px;stroke-linecap:butt;stroke-linejoin:miter;stroke-opacity:1"
     x="30.365566"
     y="93.86792"
     id="text3374"
     sodipodi:linespacing="125%"><tspan
       sodipodi:role="line"
       id="tspan3376"
       x="30.365566"
       y="93.86792" /></text>
<flowRoot
     xml:space="preserve"
     id="flowRoot3378"
     style="font-style:normal;font-weight:normal;font-size:40px;line-height:125%;font-family:sans-serif;letter-spacing:0px;word-spacing:0px;fill:#000000;fill-opacity:1;stroke:none;stroke-width:1px;stroke-linecap:butt;stroke-linejoin:miter;stroke-opacity:1"
     transform="translate(0,-50)"><flowRegion
       id="flowRegion3380"><rect
         id="rect3382"
         width="115.27122"
         height="155.66037"
         x="53.066036"
         y="38.915092" /></flowRegion><flowPara
       id="flowPara3384" /></flowRoot></svg>