<?xml version="1.0" encoding="UTF-8" standalone="no"?>
<!-- Generator: Adobe Illustrator 19.0.0, SVG Export Plug-In . SVG Version: 6.00 Build 0)  -->

<svg
   xmlns:dc="http://purl.org/dc/elements/1.1/"
   xmlns:cc="http://creativecommons.org/ns#"
   xmlns:rdf="http://www.w3.org/1999/02/22-rdf-syntax-ns#"
   xmlns:svg="http://www.w3.org/2000/svg"
   xmlns="http://www.w3.org/2000/svg"
   xmlns:sodipodi="http://sodipodi.sourceforge.net/DTD/sodipodi-0.dtd"
   xmlns:inkscape="http://www.inkscape.org/namespaces/inkscape"
   version="1.1"
   id="Layer_1"
   x="0px"
   y="0px"
   viewBox="0 0 110 200"
   xml:space="preserve"
   inkscape:version="0.91 r13725"
   sodipodi:docname="twisty.svg"
   width="110"
   height="200"><metadata
     id="metadata12"><rdf:RDF><cc:Work
         rdf:about=""><dc:format>image/svg+xml</dc:format><dc:type
           rdf:resource="http://purl.org/dc/dcmitype/StillImage" /><dc:title /></cc:Work></rdf:RDF></metadata><defs
     id="defs10" /><sodipodi:namedview
     pagecolor="#ffffff"
     bordercolor="#666666"
     borderopacity="1"
     objecttolerance="10"
     gridtolerance="10"
     guidetolerance="10"
     inkscape:pageopacity="0"
     inkscape:pageshadow="2"
     inkscape:window-width="1536"
     inkscape:window-height="801"
     id="namedview8"
     showgrid="false"
     inkscape:zoom="3.0279457"
     inkscape:cx="26.474448"
     inkscape:cy="107.0292"
     inkscape:current-layer="XMLID_1_"
     inkscape:window-x="-8"
     inkscape:window-y="-8"
     inkscape:window-maximized="1" /><style
     type="text/css"
     id="style3">
	.st0{fill:none;stroke:#000000;stroke-width:0.155;stroke-linecap:round;stroke-linejoin:round;stroke-miterlimit:10;}
</style><g
     id="XMLID_1_"
     transform="matrix(1.439474,0,0,1.5080389,-128.31194,-75.460318)"><polygon
       id="XMLID_10_"
       points="158.5,79.8 158.6,80.3 158.8,80.6 159,81 159.3,81.3 159.5,81.6 159.7,81.8 160,82.3 160.2,82.6 160.3,82.8 160.5,83.3 160.7,83.6 161,83.8 161.2,84.4 161.3,84.8 161,85 160.5,85.1 158.5,85.7 151.1,88.1 150.9,88.1 150.6,88.3 150.4,88.3 150.2,88.3 150.1,88.4 149.9,88.4 149.6,88.5 149.4,88.5 149.2,88.7 149.1,88.7 148.9,88.8 148.7,88.8 148.4,88.8 148.2,89 148,89 147.9,89.1 147.7,89.1 147.4,89.3 147.2,89.3 147,89.4 146.9,89.4 146.7,89.4 146.5,89.5 146.2,89.5 146,89.7 145.9,89.7 145.7,89.8 145.5,89.8 145.3,90 145,90 144.8,90.1 144.7,90.1 144.5,90.1 144.3,90.3 144,90.3 143.8,90.4 143.7,90.4 143.5,90.5 143.3,90.5 143.2,90.7 142.8,90.7 142.7,90.7 142.5,90.8 142.3,90.8 142.2,91 141.8,91 141.6,91.1 141.5,91.1 141.3,91.2 141.1,91.2 141,91.4 140.6,91.4 140.5,91.4 140.3,91.5 140.1,91.5 140,91.7 139.6,91.7 139.5,91.8 139.3,91.8 139.1,92 139,92 138.8,92.1 138.4,92.1 138.3,92.1 138.1,92.2 137.9,92.2 137.8,92.4 137.6,92.4 137.3,92.5 137.1,92.5 136.9,92.7 136.8,92.7 136.6,92.8 136.3,92.8 136.1,92.8 135.9,93 135.8,93 135.6,93.1 135.4,93.1 135.1,93.2 134.9,93.2 134.7,93.4 134.6,93.4 134.4,93.5 134.1,93.5 133.9,93.7 133.7,93.7 133.6,93.7 133.4,93.8 133.2,93.8 132.9,94 132.7,94 132.6,94.1 132.4,94.1 132.2,94.2 132.1,94.2 131.7,94.4 131.5,94.4 131.4,94.4 131.2,94.5 131,94.5 130.7,94.7 130.5,94.7 130.4,94.8 130.2,94.8 130,95 129.9,95 129.5,95.1 129.4,95.1 129.2,95.1 129,95.2 128.9,95.2 128.5,95.4 128.3,95.4 128.2,95.5 128,95.5 127.8,95.7 127.7,95.7 127.3,95.8 127.2,95.8 127,95.8 126.8,96 126.7,96 126.5,96.1 126.2,96.1 126,96.2 125.8,96.2 125.7,96.4 125.2,96.5 124.5,96.7 124,96.8 123.5,97 123,97.2 122.3,97.4 121.8,97.5 121.3,97.7 120.8,97.8 120.1,98.1 119.6,98.2 119.1,98.4 118.6,98.5 118.1,98.8 117.4,98.9 116.9,99.1 116.4,99.4 115.9,99.5 115.6,99.8 115.1,100.1 114.7,100.5 114.4,100.9 114,101.4 113.9,101.8 113.9,102.2 113.9,102.7 114,103.1 114,103.5 114.4,103.9 114.5,104.4 114.9,104.6 115.4,104.9 115.7,105.2 116.2,105.5 116.7,105.6 117.2,105.8 117.6,105.9 117.7,105.9 118.1,105.9 118.4,106.1 118.6,106.1 118.9,106.2 119.6,106.2 120.1,106.2 120.8,106.2 121.4,106.4 122.1,106.4 123,106.5 123.6,106.5 124.3,106.6 125,106.6 125.7,106.6 126.3,106.8 126.8,106.8 127.5,106.8 128.2,106.8 128.9,106.9 129.4,106.9 130,107.1 130.9,107.1 131.5,107.1 132.2,107.2 139.3,108.2 139.6,108.2 140.1,108.4 140.6,108.5 141,108.6 141.5,108.8 141.8,108.8 142.3,108.9 142.8,109.1 143.3,109.1 143.8,109.2 144.3,109.4 144.8,109.5 145.3,109.6 145.9,109.8 146.4,110.1 146.9,110.2 147.4,110.4 147.7,110.5 148.2,110.8 148.5,110.9 149.1,111.1 149.4,111.2 149.9,111.4 150.2,111.6 150.6,111.8 150.7,111.8 151.4,112.2 151.9,112.5 152.6,112.9 153.1,113.2 153.6,113.6 154.3,114.1 154.8,114.5 155.1,114.9 155.4,115.3 155.8,115.6 156.1,115.9 156.5,116.3 157,116.8 157.3,117.2 157.5,117.8 158,118.2 158.1,118.5 158.5,118.9 158.6,119.3 158.8,119.8 159,120.2 159.3,120.6 159.5,121 159.7,121.5 160,121.8 160,122 160.2,122.3 160.3,122.6 160.5,123 160.5,123.3 160.7,123.6 160.8,124 161,124.5 161.2,125 161.3,125.5 161.5,126 161.7,126.6 161.7,127 161.8,127.6 161.8,128 162,128.9 162,129.6 162,130.5 161.8,131.2 161.8,131.3 161.8,131.6 161.7,132 161.7,132.5 161.5,132.7 161.5,133.2 161.3,133.6 161.3,134 161.2,134.3 161,134.7 160.8,135 160.7,135.3 160.5,135.6 160.5,136 160.3,136.3 160.2,136.6 160,136.9 159.8,137.2 159.7,137.4 159.5,137.7 159.3,138 159.2,138.3 159,138.6 158.8,138.9 158.5,139.2 158.3,139.3 158.1,139.6 158,140 157.8,140.3 157.6,140.6 157.3,140.9 157,141.2 156.6,141.4 156.5,141.7 156,142.3 155.6,142.7 155.1,143.1 154.6,143.6 154.3,144 153.8,144.3 153.3,144.7 152.8,145.1 152.4,145.4 152.1,145.7 151.6,145.9 151.2,146.1 150.9,146.3 150.7,146.6 150.4,146.7 149.9,147 149.6,147.1 149.2,147.4 148.9,147.6 148.5,147.7 148,148 147.4,148.1 146.9,148.4 146.4,148.6 145.7,148.8 145.2,149 144.7,149.1 144,149.4 143.5,149.6 143,149.7 142.3,150 141.8,150.1 141.1,150.3 140.6,150.4 140,150.7 139.5,150.8 120.4,157.1 108.3,161.1 104.8,162.3 104.4,162.3 104.1,162.4 103.8,162.5 103.6,162.5 103.4,162.7 103.4,162.5 103.1,162.1 102.3,160.7 102.1,160.3 101.8,159.8 101.6,159.5 101.4,159.1 101.1,158.7 100.9,158.3 100.6,158 100.4,157.5 100.2,157.1 99.9,156.8 99.7,156.4 99.4,156 99.2,155.6 98.9,155.3 98.7,154.8 98.6,154.4 95.4,149.4 94.7,148.1 94.5,148 94.7,147.8 95,147.7 95.4,147.6 97.7,146.9 104.8,144.6 127.5,137.3 132.7,135.7 133.1,135.6 133.4,135.4 133.9,135.3 134.2,135.3 134.6,135.2 134.9,135 135.3,134.9 135.6,134.6 135.9,134.4 136.3,134.2 136.6,134 136.8,133.7 137.1,133.5 137.4,133.3 137.8,133 137.9,132.7 138.3,132.5 138.4,132.2 138.6,131.9 139,131.6 139.1,131.2 139.3,130.9 139.3,130.6 139.5,130.2 139.5,129.6 139.3,129 139.1,128.5 138.6,127.9 138.3,127.5 137.9,127.2 137.6,126.9 137.1,126.6 136.6,126.5 136.1,126.3 135.6,126.2 135.1,126 134.9,126 134.6,126 134.1,125.9 133.6,125.8 133.1,125.8 132.6,125.6 132.1,125.5 131.4,125.5 130.9,125.3 130.4,125.3 129.5,125.2 128.7,125 128,124.9 127.2,124.8 126.8,124.8 126.5,124.8 126,124.6 125.3,124.6 124.6,124.5 124,124.3 123.6,124.3 123.5,124.3 123.1,124.3 122.8,124.3 122,124.2 121.3,124 120.4,123.9 119.6,123.8 119.4,123.8 119.1,123.8 118.8,123.8 118.4,123.6 117.7,123.6 117.1,123.5 116.4,123.3 115.7,123.2 115.4,123.2 115.1,123.2 114.4,123 113.7,122.9 112.9,122.8 112.2,122.6 111.5,122.5 110.7,122.3 110,122.2 109.3,121.9 108.8,121.9 108.5,121.8 108,121.6 107.6,121.5 107.1,121.3 106.8,121.2 106.3,121 106,120.9 105.5,120.8 105.1,120.5 104.8,120.3 104.4,120.2 103.9,119.9 103.6,119.8 103.3,119.6 102.8,119.3 102.6,119.2 102.3,119.2 101.8,118.9 101.4,118.5 100.9,118.2 100.4,117.9 100.1,117.5 99.6,117.2 99.2,116.8 98.7,116.5 98.4,116.2 98.2,115.9 97.9,115.5 97.7,115.2 97.4,114.9 97.2,114.6 96.9,114.3 96.7,114.1 96.5,113.8 96.2,113.3 96,113.1 95.9,112.8 95.7,112.6 95.7,112.4 95.5,112.2 95.4,112.1 95.2,111.6 95,111.2 94.7,110.8 94.5,110.4 94.3,109.9 94.2,109.5 94,109.1 93.8,108.6 93.7,108.4 93.5,108.1 93.5,107.8 93.3,107.5 93.3,107.1 93.2,106.6 93.2,106.2 93,105.8 93,105.4 93,104.8 92.8,104.4 92.8,103.9 92.7,103.5 92.8,103.1 92.8,102.7 92.8,102.2 92.8,101.9 92.8,101.7 92.8,101.5 92.8,101.2 93,101.1 93,100.8 93,100.5 93.2,100.4 93.2,99.9 93.2,99.7 93.3,99.2 93.3,98.8 93.5,98.5 93.7,98.1 93.8,97.8 93.8,97.4 94,97 94.2,96.7 94.3,96.2 94.7,95.8 94.7,95.7 94.7,95.5 94.9,95.2 94.9,95.1 95.2,94.7 95.4,94.1 95.7,93.7 96,93.2 96.5,92.8 96.9,92.2 97.2,91.8 97.5,91.4 98.1,91 98.4,90.5 98.7,90.1 99.2,89.7 99.6,89.3 99.9,89 100.2,88.5 100.7,88.3 100.9,88.1 101.3,87.8 101.6,87.7 101.9,87.4 102.1,87.1 102.4,86.8 103.1,86.5 103.8,86.1 104.4,85.8 105.1,85.5 105.6,85.4 106.3,85.3 106.8,85.1 107.3,85 107.8,84.7 108.3,84.5 109,84.4 109.5,84.3 118.4,81.3 152.4,70 152.6,70.3 152.8,70.7 153.1,71 153.3,71.4 153.4,71.7 153.8,72.1 153.9,72.4 154.1,72.9 154.3,73.1 154.6,73.6 154.8,73.9 154.9,74.3 155.1,74.6 155.4,75 155.6,75.3 155.8,75.7 156,76 156.3,76.4 156.5,76.7 156.6,77 157,77.4 157.1,77.7 157.3,78.1 157.5,78.4 157.8,78.8 158,79.1 158.1,79.6 "
       transform="matrix(0.89074814,-0.03476153,0,1,12.880793,4.4268803)" /></g></svg>