<?xml version="1.0" encoding="utf-8"?>
<!-- Generator: Adobe Illustrator 19.0.0, SVG Export Plug-In . SVG Version: 6.00 Build 0)  -->
<svg version="1.1" id="Layer_1" xmlns="http://www.w3.org/2000/svg" xmlns:xlink="http://www.w3.org/1999/xlink" x="0px" y="0px"
	 viewBox="0 0 250 250" style="enable-background:new 0 0 250 250;" xml:space="preserve">
<g id="XMLID_28_">
	<g id="XMLID_30_">
		<g id="XMLID_32_">
			<path id="XMLID_16_" d="M177.9,121.9c0.7,0.7,1.1,1.5,1.1,2.6c0,1.9-1.7,3.6-3.7,3.7h-34.4c-1.9,0-3.6-1.7-3.7-3.7
				c0-1.9,1.7-3.6,3.7-3.7h34.4C176.4,120.8,177.2,121.1,177.9,121.9z"/>
			<g id="XMLID_33_">
				<polygon id="XMLID_15_" points="169.3,168.7 169.5,80.2 213.6,124.3 				"/>
			</g>
		</g>
		<rect id="XMLID_14_" x="83.1" y="113.9" width="93.1" height="20.9"/>
	</g>
	<path id="XMLID_13_" d="M86,80.9c0.7,0.7,1.1,1.5,1.1,2.6v84.9c0,1.9-1.7,3.6-3.7,3.7c-1.9,0-3.6-1.7-3.7-3.7V83.5
		c0-1.9,1.7-3.6,3.7-3.7C84.5,79.8,85.5,80.4,86,80.9z"/>
</g>
</svg>
