<?xml version="1.0" encoding="UTF-8" standalone="no"?>
<!-- Generator: Adobe Illustrator 19.0.0, SVG Export Plug-In . SVG Version: 6.00 Build 0)  -->

<svg
   xmlns:dc="http://purl.org/dc/elements/1.1/"
   xmlns:cc="http://creativecommons.org/ns#"
   xmlns:rdf="http://www.w3.org/1999/02/22-rdf-syntax-ns#"
   xmlns:svg="http://www.w3.org/2000/svg"
   xmlns="http://www.w3.org/2000/svg"
   xmlns:sodipodi="http://sodipodi.sourceforge.net/DTD/sodipodi-0.dtd"
   xmlns:inkscape="http://www.inkscape.org/namespaces/inkscape"
   version="1.1"
   id="Layer_1"
   x="0px"
   y="0px"
   viewBox="0 0 250 250"
   style="enable-background:new 0 0 250 250;"
   xml:space="preserve"
   inkscape:version="0.91 r13725"
   sodipodi:docname="barbed-wire-fence.svg"><metadata
     id="metadata11"><rdf:RDF><cc:Work
         rdf:about=""><dc:format>image/svg+xml</dc:format><dc:type
           rdf:resource="http://purl.org/dc/dcmitype/StillImage" /></cc:Work></rdf:RDF></metadata><defs
     id="defs9" /><sodipodi:namedview
     pagecolor="#ffffff"
     bordercolor="#666666"
     borderopacity="1"
     objecttolerance="10"
     gridtolerance="10"
     guidetolerance="10"
     inkscape:pageopacity="0"
     inkscape:pageshadow="2"
     inkscape:window-width="640"
     inkscape:window-height="480"
     id="namedview7"
     showgrid="false"
     inkscape:zoom="2.276"
     inkscape:cx="123.62917"
     inkscape:cy="125"
     inkscape:current-layer="Layer_1" /><style
     type="text/css"
     id="style3">
	.st0{fill-rule:evenodd;clip-rule:evenodd;}
</style><path
     class="st0"
     d="m 12.621265,151.75602 c 0,0 0.9,0.19609 2.4,-0.29415 0.8,0.1961 3,0.44122 5.7,-0.098 2,0.6373 6.7,1.12754 7.8,0.73535 0,0 1,0.1961 1.7,0 0,0 1.4,1.61778 1.6,1.8629 0.2,0.24512 0.7,0.93145 1.3,1.12755 0.4,-0.73536 -0.7,-2.15705 -1.6,-3.03947 0,0 1.2,-0.1961 1.8,-0.88243 1.1,0.44122 3.3,0.63731 5.3,-0.049 1.6,0.53926 3.5,0.58828 5.9,0.0981 2.2,0.58828 4.1,0.58828 6.5,-0.049 2.4,0.49024 4.9,0.53926 6.8,0 2.3,0.68633 5.1,0.49024 6.4,0.1961 0.2,0.29414 1.8,0.58828 1.8,0.58828 l -3.8,2.74533 c 0,0 1.1,-0.1961 1.9,-0.49024 0.8,-0.29414 2.2,-1.56876 2.9,-2.15704 0,0 0.3,0.049 0.8,-0.0981 0.3,0.049 1.1,0.049 1.3,-0.049 0,0 3,0.6373 4.8,1.07852 1.8,0.39219 3,0.58828 3,0.58828 0,0 -0.6,-0.53926 -1.4,-0.73535 -0.8,-0.1961 -5.7,-1.27462 -5.7,-1.27462 l 0,-0.049 c 0,0 0.7,-0.0981 1,-0.24512 1.3,0.34317 5.2,0.68633 7.1,0.14707 1,0.24512 4.1,0.58828 7.2,-0.049 1.5,0.34316 6.2,0.6373 8,0.049 0.5,0.049 3.1,0.68633 6.8,0.049 2.300005,0.53926 7.100005,1.0295 8.100005,0.78438 0,0 0.9,0.1961 1.5,0.049 0,0 0.1,0.19609 1.2,-0.049 0,0 1.3,1.37267 1.5,1.91193 0.2,0.19609 2.1,0.93145 2.1,0.93145 0,0 -1.4,-2.00997 -2.5,-2.94142 0,0 0.6,-0.0981 1.5,-0.68634 1.8,0.49024 4.1,0.53926 7.1,0 0,0 0,0 0.1,0 1.1,0.34317 2.3,0.39219 3.4,0.34317 0.6,0 1.3,-0.0981 1.9,-0.24512 0.3,-0.049 0.6,-0.0981 0.6,-0.14707 3,0.49024 5.2,0.44121 7,-0.049 0.9,0.53926 1.5,0.68633 1.5,0.68633 -1,0.93145 -2.5,2.94142 -2.5,2.94142 0,0 1.9,-0.73536 2.1,-0.93145 0.3,-0.53926 1.5,-1.91192 1.5,-1.91192 1.1,0.24511 1.2,0.049 1.2,0.049 0.6,0.14707 1.5,-0.049 1.5,-0.049 0.9,0.19609 5.7,-0.29415 8,-0.78438 3.7,0.6373 6.4,0 6.8,-0.049 1.7,0.58829 6.5,0.29415 8,-0.049 3,0.63731 6.2,0.29414 7.2,0.049 2,0.58829 5.8,0.1961 7.1,-0.14707 0.3,0.1961 1,0.24512 1,0.24512 l 0,0.049 c 0,0 -4.9,1.07852 -5.7,1.27462 -0.8,0.19609 -1.4,0.73535 -1.4,0.73535 0,0 1.2,-0.14707 3,-0.58828 1.8,-0.39219 4.8,-1.07852 4.8,-1.07852 0.2,0.14707 1,0.14707 1.3,0.049 0.5,0.0981 0.8,0.0981 0.8,0.0981 0.7,0.58828 2.1,1.8629 2.9,2.15704 0.8,0.29414 1.9,0.49024 1.9,0.49024 l -3.8,-2.74533 c 0,0 1.6,-0.29414 1.8,-0.58828 1.3,0.29414 4.1,0.49024 6.4,-0.1961 1.9,0.53927 4.5,0.53927 6.8,0 2.4,0.58829 4.3,0.58829 6.5,0.049 2.4,0.49024 4.3,0.44121 5.9,-0.0981 2,0.68633 4.1,0.49024 5.3,0.049 0.7,0.68634 1.8,0.88243 1.8,0.88243 -0.8,0.88243 -2,2.30411 -1.6,3.03947 0.6,-0.24512 1.1,-0.88243 1.3,-1.12755 0.2,-0.24511 1.6,-1.8629 1.6,-1.8629 0.7,0.14708 1.7,0 1.7,0 1.1,0.39219 5.8,-0.14707 7.8,-0.73535 2.6,0.53926 4.9,0.29414 5.7,0.0981 1.5,0.49023 2.4,0.29414 2.4,0.29414 0,0 1.7,-0.1961 2.2,-0.44121 -0.9,-0.49024 -3.1,-0.73536 -4.2,-0.58829 -1.1,-0.24512 -4.1,-0.78438 -6.4,0 -2.3,-0.34316 -3.3,-0.58828 -5.1,0 -0.8,-0.24512 -1.2,-0.14707 -1.2,-0.14707 0,-0.44121 -0.5,-0.68633 -1,-0.73535 -0.4,-0.049 -2.8,-0.0981 -3.4,0.098 -0.7,0.14707 -0.8,0.58829 -0.8,0.58829 l -0.3,-0.049 c 0,0 -0.3,-1.22559 -1,-1.76485 -0.7,-0.53926 -1.9,-1.22559 -2.5,-1.42169 -0.6,-0.19609 -1.6,-0.29414 -1.6,-0.29414 0,0 0.3,0.39219 1.6,1.17657 1.4,0.78438 2.3,1.42169 2.4,2.35314 -1.1,-0.1961 -3.7,-0.1961 -4.7,0.049 -0.8,-0.19609 -4.2,-0.49024 -6,0.049 -0.6,-0.24511 -4,-0.49023 -6.1,-0.049 -1.5,-0.34317 -5.1,-0.44121 -7.2,0 -0.9,-0.24512 -4.3,-0.39219 -6,-0.14707 -0.3,-0.73536 -0.8,-2.84337 -0.9,-3.03947 -0.1,-0.19609 -1,-0.8334 -1,-0.8334 0,0 -0.4,0.24512 -0.1,1.07852 0.3,0.8334 0.7,2.40216 0.7,2.40216 0,0 -2.2,-0.24512 -2.8,-0.24512 -0.6,0 -1.1,0.29414 -1.1,0.29414 0,0 1.2,-2.45118 2,-2.89239 0,-0.34317 -0.2,-0.88243 -0.2,-0.88243 0,0 -1.1,0.78438 -1.7,1.76485 -0.6,0.98048 -1.4,2.10802 -1.3,2.35314 -0.6,0.0981 -1,0.14707 -1.4,0.19609 -0.9,-0.24511 -2.9,-0.68633 -6.6,0.14708 -1.7,-0.44122 -4.8,-0.73536 -7.6,-0.0981 -1.4,-0.29414 -4.5,-0.58829 -7.7,0.14707 -1.6,-0.44121 -4.3,-0.8334 -7,-0.049 -1.3,-0.34317 -3.7,-0.63731 -5.8,0.049 -0.3,-0.049 -0.4,-0.24512 -0.4,-0.24512 0,-0.58828 -1.1,-1.27462 -1.5,-0.73535 -0.4,-0.0981 -1.9,-0.049 -2.6,-0.049 -0.7,0 -2,-0.049 -1.8,0.68633 l -0.5,0.049 c 0,0 -2,-3.33361 -2.1,-3.52971 -0.2,-0.19609 -0.8,-0.49024 -0.8,-0.49024 0,0 -0.4,0.63731 0.2,1.61779 0.5,0.98047 1.6,2.45118 1.6,2.45118 0,0 -3.8,-0.39219 -5.8,0.14707 -0.8,-0.29414 -2.3,-0.29414 -3.9,-0.24512 -1.4,-0.049 -2.7,0 -3.4,0.24512 -1.9,-0.58828 -5.8,-0.14707 -5.8,-0.14707 0,0 1.1,-1.47071 1.6,-2.45118 0.5,-0.98048 0.2,-1.61779 0.2,-1.61779 0,0 -0.6,0.29415 -0.8,0.49024 -0.2,0.1961 -2.1,3.52971 -2.1,3.52971 l -0.5,-0.049 c 0.1,-0.73535 -1.1,-0.6373 -1.8,-0.68633 -0.7,0 -2.3,-0.049 -2.6,0.049 -0.3,-0.49024 -1.5,0.14707 -1.5,0.73535 0,0 -0.1,0.14707 -0.4,0.24512 -2.1,-0.68633 -4.5,-0.44121 -5.800005,-0.049 -2.7,-0.78438 -5.4,-0.39219 -7,0.049 -3.2,-0.73536 -6.3,-0.49024 -7.7,-0.14707 -2.8,-0.63731 -5.9,-0.34317 -7.6,0.0981 -3.8,-0.83341 -5.7,-0.34317 -6.6,-0.14708 -0.4,-0.049 -0.8,-0.14707 -1.4,-0.19609 0.1,-0.24512 -0.7,-1.37266 -1.3,-2.35314 -0.6,-0.98047 -1.7,-1.76485 -1.7,-1.76485 0,0 -0.3,0.53926 -0.2,0.88243 0.8,0.44121 2,2.89239 2,2.89239 0,0 -0.5,-0.29414 -1.1,-0.29414 -0.6,0 -2.8,0.24512 -2.8,0.24512 0,0 0.4,-1.56876 0.7,-2.40216 0.3,-0.8334 -0.1,-1.07852 -0.1,-1.07852 0,0 -0.9,0.63731 -1,0.8334 -0.1,0.1961 -0.6,2.30411 -0.9,3.03947 -1.7,-0.24512 -5.1,-0.0981 -6,0.14707 -2.1,-0.44121 -5.7,-0.34317 -7.2,0 -2.1,-0.44121 -5.5,-0.24512 -6.1,0.049 -1.8,-0.53926 -5.1,-0.24511 -6,-0.049 -1,-0.24512 -3.6,-0.29414 -4.7,-0.049 0,-0.98048 1,-1.56876 2.4,-2.35314 1.4,-0.78438 1.6,-1.17657 1.6,-1.17657 0,0 -1.1,0.0981 -1.6,0.29414 -0.6,0.1961 -1.8,0.88243 -2.5,1.42169 -0.7,0.53926 -1,1.76485 -1,1.76485 l -0.3,0.049 c 0,0 -0.1,-0.39219 -0.8,-0.58829 -0.7,-0.14707 -3,-0.098 -3.4,-0.098 -0.4,0.049 -0.9,0.29414 -1,0.73535 0,0 -0.4,-0.0981 -1.2,0.14707 -1.8,-0.58828 -2.8,-0.34316 -5.1,0 -2.3,-0.78438 -5.3,-0.24512 -6.4,0 -1.1,-0.19609 -3.3,0.049 -4.1999996,0.58829 1.3999996,0.34316 3.0999996,0.53926 3.0999996,0.53926 z"
     id="path5"
     inkscape:connector-curvature="0"
     style="clip-rule:evenodd;fill-rule:evenodd" /><path
     style="clip-rule:evenodd;fill-rule:evenodd"
     inkscape:connector-curvature="0"
     id="path3339"
     d="m 11.303163,97.272045 c 0,0 0.9,0.273773 2.4,-0.410659 0.8,0.273773 3,0.615989 5.7,-0.136887 2,0.889762 6.7,1.574195 7.8,1.026649 0,0 1,0.273773 1.7,0 0,0 1.4,2.258622 1.6,2.600842 0.2,0.34222 0.7,1.30042 1.3,1.57419 0.4,-1.02664 -0.7,-3.011497 -1.6,-4.243475 0,0 1.2,-0.273773 1.8,-1.231977 1.1,0.615987 3.3,0.88976 5.3,-0.06844 1.6,0.752874 3.5,0.821317 5.9,0.136887 2.2,0.821316 4.1,0.821316 6.5,-0.06844 2.4,0.684431 4.9,0.752874 6.8,0 2.3,0.958204 5.1,0.684431 6.4,0.273771 0.2,0.41066 1.8,0.821319 1.8,0.821319 l -3.8,3.832822 c 0,0 1.1,-0.27377 1.9,-0.68443 0.8,-0.41066 2.2,-2.190187 2.9,-3.011505 0,0 0.3,0.06844 0.8,-0.136887 0.3,0.06844 1.1,0.06844 1.3,-0.06844 0,0 3,0.889762 4.8,1.505751 1.8,0.547546 3,0.821319 3,0.821319 0,0 -0.6,-0.752876 -1.4,-1.026649 -0.8,-0.273773 -5.7,-1.779524 -5.7,-1.779524 l 0,-0.06844 c 0,0 0.7,-0.136886 1,-0.342214 1.3,0.4791 5.2,0.958203 7.1,0.205328 1,0.342216 4.1,0.821318 7.2,-0.06844 1.5,0.479103 6.2,0.889762 8,0.06844 0.5,0.06844 3.1,0.958205 6.8,0.06844 2.300007,0.752875 7.100007,1.437308 8.100007,1.095092 0,0 0.9,0.273772 1.5,0.06844 0,0 0.1,0.273773 1.2,-0.06844 0,0 1.3,1.91641 1.5,2.669282 0.2,0.27378 2.1,1.30042 2.1,1.30042 0,0 -1.4,-2.806168 -2.5,-4.106589 0,0 0.6,-0.136886 1.5,-0.958205 1.8,0.684432 4.1,0.752875 7.1,0 0,0 0,0 0.1,0 1.1,0.479102 2.3,0.547546 3.4,0.479102 0.6,0 1.3,-0.136886 1.9,-0.342216 0.3,-0.06844 0.6,-0.136886 0.6,-0.205329 3,0.684432 5.2,0.615989 7,-0.06844 0.9,0.752876 1.5,0.958206 1.5,0.958206 -1,1.300421 -2.5,4.106595 -2.5,4.106595 0,0 1.9,-1.02665 2.1,-1.30042 0.3,-0.752878 1.5,-2.669289 1.5,-2.669289 1.1,0.342216 1.2,0.06844 1.2,0.06844 0.6,0.20533 1.5,-0.06844 1.5,-0.06844 0.9,0.273773 5.7,-0.410659 8,-1.095092 3.7,0.889762 6.4,0 6.8,-0.06844 1.7,0.821317 6.5,0.410657 8,-0.06844 3,0.88976 6.2,0.410657 7.2,0.06844 2,0.821317 5.8,0.273771 7.1,-0.20533 0.3,0.273771 1,0.342215 1,0.342215 l 0,0.06844 c 0,0 -4.9,1.505751 -5.7,1.779524 -0.8,0.273773 -1.4,1.026648 -1.4,1.026648 0,0 1.2,-0.205329 3,-0.821319 1.8,-0.547545 4.8,-1.505751 4.8,-1.505751 0.2,0.20533 1,0.20533 1.3,0.06844 0.5,0.136886 0.8,0.136886 0.8,0.136886 0.7,0.821319 2.1,2.600844 2.9,3.011504 0.8,0.41066 1.9,0.68443 1.9,0.68443 l -3.8,-3.83282 c 0,0 1.6,-0.41066 1.8,-0.821317 1.3,0.410657 4.1,0.68443 6.4,-0.273773 1.9,0.752873 4.5,0.752873 6.8,0 2.4,0.821317 4.3,0.821317 6.5,0.06844 2.4,0.68443 4.3,0.615987 5.9,-0.136886 2,0.958203 4.1,0.68443 5.3,0.06844 0.7,0.958203 1.8,1.231976 1.8,1.231976 -0.8,1.231978 -2,3.216834 -1.6,4.243484 0.6,-0.34222 1.1,-1.23198 1.3,-1.5742 0.2,-0.342214 1.6,-2.600841 1.6,-2.600841 0.7,0.20533 1.7,0 1.7,0 1.1,0.547546 5.8,-0.205329 7.8,-1.026646 2.6,0.752873 4.9,0.410657 5.7,0.136884 1.5,0.684433 2.4,0.41066 2.4,0.41066 0,0 1.7,-0.273773 2.2,-0.615987 -0.9,-0.684433 -3.1,-1.026649 -4.2,-0.821319 -1.1,-0.342216 -4.1,-1.095092 -6.4,0 -2.3,-0.479103 -3.3,-0.821319 -5.1,0 -0.8,-0.342216 -1.2,-0.20533 -1.2,-0.20533 0,-0.615989 -0.5,-0.958205 -1,-1.026648 -0.4,-0.06844 -2.8,-0.136887 -3.4,0.136886 -0.7,0.20533 -0.8,0.821319 -0.8,0.821319 l -0.3,-0.06844 c 0,0 -0.3,-1.711081 -1,-2.463957 -0.7,-0.752875 -1.9,-1.71108 -2.5,-1.984853 -0.6,-0.273773 -1.6,-0.41066 -1.6,-0.41066 0,0 0.3,0.547546 1.6,1.642638 1.4,1.095092 2.3,1.984854 2.4,3.285275 -1.1,-0.273773 -3.7,-0.273773 -4.7,0.06844 -0.8,-0.273773 -4.2,-0.684432 -6,0.06844 -0.6,-0.342216 -4,-0.684432 -6.1,-0.06844 -1.5,-0.479102 -5.1,-0.615989 -7.2,0 -0.9,-0.342216 -4.3,-0.547546 -6,-0.20533 -0.3,-1.026648 -0.8,-3.969707 -0.9,-4.24348 -0.1,-0.273773 -1,-1.163535 -1,-1.163535 0,0 -0.4,0.342216 -0.1,1.505751 0.3,1.163535 0.7,3.353719 0.7,3.353719 0,0 -2.2,-0.342217 -2.8,-0.342217 -0.6,0 -1.1,0.41066 -1.1,0.41066 0,0 1.2,-3.422162 2,-4.038151 0,-0.479102 -0.2,-1.231978 -0.2,-1.231978 0,0 -1.1,1.095092 -1.7,2.463956 -0.6,1.368865 -1.4,2.943059 -1.3,3.285275 -0.6,0.136887 -1,0.20533 -1.4,0.273773 -0.9,-0.342216 -2.9,-0.958205 -6.6,0.20533 -1.7,-0.615989 -4.8,-1.026648 -7.6,-0.136886 -1.4,-0.41066 -4.5,-0.821319 -7.7,0.205329 -1.6,-0.615989 -4.3,-1.163535 -7,-0.06844 -1.3,-0.479103 -3.7,-0.889762 -5.8,0.06844 -0.3,-0.06844 -0.4,-0.342216 -0.4,-0.342216 0,-0.821319 -1.1,-1.779524 -1.5,-1.026648 -0.4,-0.136887 -1.9,-0.06844 -2.6,-0.06844 -0.7,0 -2,-0.06844 -1.8,0.958206 l -0.5,0.06844 c 0,0 -2,-4.65414 -2.1,-4.927913 -0.2,-0.273773 -0.8,-0.684432 -0.8,-0.684432 0,0 -0.4,0.889762 0.2,2.258627 0.5,1.368864 1.6,3.422161 1.6,3.422161 0,0 -3.8,-0.547546 -5.8,0.20533 -0.8,-0.41066 -2.3,-0.41066 -3.9,-0.342216 -1.4,-0.06844 -2.7,0 -3.4,0.342216 -1.9,-0.821319 -5.8,-0.20533 -5.8,-0.20533 0,0 1.1,-2.053297 1.6,-3.422161 0.5,-1.368865 0.2,-2.258627 0.2,-2.258627 0,0 -0.6,0.410659 -0.8,0.684432 -0.2,0.273773 -2.1,4.927913 -2.1,4.927913 l -0.5,-0.06844 c 0.1,-1.026649 -1.1,-0.889762 -1.8,-0.958206 -0.7,0 -2.3,-0.06844 -2.6,0.06844 -0.3,-0.684433 -1.5,0.205329 -1.5,1.026648 0,0 -0.1,0.20533 -0.4,0.342216 -2.1,-0.958205 -4.500005,-0.615989 -5.800007,-0.06844 -2.7,-1.095092 -5.4,-0.547546 -7,0.06844 -3.2,-1.026648 -6.3,-0.684432 -7.7,-0.205329 -2.8,-0.889762 -5.9,-0.479103 -7.6,0.136886 -3.8,-1.163535 -5.7,-0.479103 -6.6,-0.20533 -0.4,-0.06844 -0.8,-0.205329 -1.4,-0.273773 0.1,-0.342216 -0.7,-1.91641 -1.3,-3.285275 -0.6,-1.368864 -1.7,-2.463956 -1.7,-2.463956 0,0 -0.3,0.752876 -0.2,1.231978 0.8,0.615989 2,4.038151 2,4.038151 0,0 -0.5,-0.41066 -1.1,-0.41066 -0.6,0 -2.8,0.342217 -2.8,0.342217 0,0 0.4,-2.190184 0.7,-3.353719 0.3,-1.163535 -0.1,-1.505751 -0.1,-1.505751 0,0 -0.9,0.889762 -1,1.163535 -0.1,0.273773 -0.6,3.216832 -0.9,4.24348 -1.7,-0.342216 -5.1,-0.136886 -6,0.20533 -2.1,-0.615989 -5.7,-0.479102 -7.2,0 -2.1,-0.615989 -5.5,-0.342216 -6.1,0.06844 -1.8,-0.752875 -5.1,-0.342216 -6,-0.06844 -1,-0.342216 -3.6,-0.410659 -4.7,-0.06844 0,-1.368865 1,-2.190183 2.4,-3.285275 1.4,-1.095092 1.6,-1.642638 1.6,-1.642638 0,0 -1.1,0.136887 -1.6,0.41066 -0.6,0.273773 -1.8,1.231978 -2.5,1.984853 -0.7,0.752876 -1,2.463957 -1,2.463957 l -0.3,0.06844 c 0,0 -0.1,-0.547546 -0.8,-0.821319 -0.7,-0.20533 -3,-0.136886 -3.4,-0.136886 -0.4,0.06844 -0.9,0.410659 -1,1.026648 0,0 -0.4,-0.136886 -1.2,0.20533 -1.8,-0.821319 -2.8,-0.479103 -5.1,0 -2.3,-1.095092 -5.3,-0.342216 -6.4,0 -1.1,-0.273773 -3.2999999,0.06844 -4.1999995,0.821319 1.3999999,0.4791 3.0999995,0.752873 3.0999995,0.752873 z"
     class="st0" /><path
     class="st0"
     d="m 10.863796,123.19472 c 0,0 0.9,0.27377 2.4,-0.41066 0.8,0.27377 3,0.61599 5.7,-0.13689 2,0.88976 6.7,1.5742 7.8,1.02665 0,0 1,0.27377 1.7,0 0,0 1.4,2.25862 1.6,2.60084 0.2,0.34222 0.7,1.30042 1.3,1.57419 0.4,-1.02664 -0.7,-3.0115 -1.6,-4.24347 0,0 1.2,-0.27378 1.8,-1.23198 1.1,0.61599 3.3,0.88976 5.3,-0.0684 1.6,0.75287 3.5,0.82132 5.9,0.13689 2.2,0.82131 4.1,0.82131 6.5,-0.0684 2.4,0.68443 4.9,0.75287 6.8,0 2.3,0.9582 5.1,0.68443 6.4,0.27377 0.2,0.41066 1.8,0.82132 1.8,0.82132 l -3.8,3.83282 c 0,0 1.1,-0.27377 1.9,-0.68443 0.8,-0.41066 2.2,-2.19019 2.9,-3.01151 0,0 0.3,0.0684 0.8,-0.13688 0.3,0.0684 1.1,0.0684 1.3,-0.0684 0,0 3,0.88976 4.8,1.50575 1.8,0.54754 3,0.82132 3,0.82132 0,0 -0.6,-0.75288 -1.4,-1.02665 -0.8,-0.27378 -5.7,-1.77953 -5.7,-1.77953 l 0,-0.0684 c 0,0 0.7,-0.13688 1,-0.34221 1.3,0.4791 5.2,0.9582 7.1,0.20533 1,0.34221 4.1,0.82132 7.2,-0.0684 1.5,0.4791 6.2,0.88976 8,0.0684 0.5,0.0684 3.1,0.9582 6.8,0.0684 2.300004,0.75287 7.100004,1.43731 8.100004,1.09509 0,0 0.9,0.27377 1.5,0.0684 0,0 0.1,0.27377 1.2,-0.0684 0,0 1.3,1.91641 1.5,2.66928 0.2,0.27378 2.1,1.30042 2.1,1.30042 0,0 -1.4,-2.80617 -2.5,-4.10659 0,0 0.6,-0.13688 1.5,-0.9582 1.8,0.68443 4.1,0.75287 7.1,0 0,0 0,0 0.1,0 1.1,0.4791 2.3,0.54754 3.4,0.4791 0.6,0 1.3,-0.13689 1.9,-0.34222 0.3,-0.0684 0.6,-0.13688 0.6,-0.20533 3,0.68444 5.2,0.61599 7,-0.0684 0.9,0.75288 1.5,0.95821 1.5,0.95821 -1,1.30042 -2.5,4.1066 -2.5,4.1066 0,0 1.9,-1.02665 2.1,-1.30042 0.3,-0.75288 1.5,-2.66929 1.5,-2.66929 1.1,0.34221 1.2,0.0684 1.2,0.0684 0.6,0.20533 1.5,-0.0684 1.5,-0.0684 0.9,0.27377 5.7,-0.41066 8,-1.0951 3.7,0.88977 6.4,0 6.8,-0.0684 1.7,0.82132 6.5,0.41066 8,-0.0684 3,0.88976 6.2,0.41066 7.2,0.0684 2,0.82132 5.8,0.27378 7.1,-0.20533 0.3,0.27378 1,0.34222 1,0.34222 l 0,0.0684 c 0,0 -4.9,1.50575 -5.7,1.77952 -0.8,0.27378 -1.4,1.02665 -1.4,1.02665 0,0 1.2,-0.20533 3,-0.82132 1.8,-0.54754 4.8,-1.50575 4.8,-1.50575 0.2,0.20533 1,0.20533 1.3,0.0684 0.5,0.13689 0.8,0.13689 0.8,0.13689 0.7,0.82132 2.1,2.60084 2.9,3.0115 0.8,0.41066 1.9,0.68443 1.9,0.68443 l -3.8,-3.83282 c 0,0 1.6,-0.41066 1.8,-0.82132 1.3,0.41066 4.1,0.68443 6.4,-0.27377 1.9,0.75287 4.5,0.75287 6.8,0 2.4,0.82132 4.3,0.82132 6.5,0.0684 2.4,0.68443 4.3,0.61599 5.9,-0.13688 2,0.9582 4.1,0.68443 5.3,0.0684 0.7,0.9582 1.8,1.23197 1.8,1.23197 -0.8,1.23198 -2,3.21684 -1.6,4.24349 0.6,-0.34222 1.1,-1.23198 1.3,-1.5742 0.2,-0.34222 1.6,-2.60085 1.6,-2.60085 0.7,0.20533 1.7,0 1.7,0 1.1,0.54755 5.8,-0.20532 7.8,-1.02664 2.6,0.75287 4.9,0.41066 5.7,0.13688 1.5,0.68444 2.4,0.41066 2.4,0.41066 0,0 1.7,-0.27377 2.2,-0.61598 -0.9,-0.68444 -3.1,-1.02665 -4.2,-0.82132 -1.1,-0.34222 -4.1,-1.0951 -6.4,0 -2.3,-0.47911 -3.3,-0.82132 -5.1,0 -0.8,-0.34222 -1.2,-0.20533 -1.2,-0.20533 0,-0.61599 -0.5,-0.95821 -1,-1.02665 -0.4,-0.0684 -2.8,-0.13689 -3.4,0.13688 -0.7,0.20533 -0.8,0.82132 -0.8,0.82132 l -0.3,-0.0684 c 0,0 -0.3,-1.71108 -1,-2.46395 -0.7,-0.75288 -1.9,-1.71108 -2.5,-1.98486 -0.6,-0.27377 -1.6,-0.41066 -1.6,-0.41066 0,0 0.3,0.54755 1.6,1.64264 1.4,1.09509 2.3,1.98486 2.4,3.28528 -1.1,-0.27378 -3.7,-0.27378 -4.7,0.0684 -0.8,-0.27378 -4.2,-0.68444 -6,0.0684 -0.6,-0.34222 -4,-0.68444 -6.1,-0.0684 -1.5,-0.47911 -5.1,-0.61599 -7.2,0 -0.9,-0.34222 -4.3,-0.54755 -6,-0.20533 -0.3,-1.02665 -0.8,-3.96971 -0.9,-4.24348 -0.1,-0.27378 -1,-1.16354 -1,-1.16354 0,0 -0.4,0.34222 -0.1,1.50575 0.3,1.16354 0.7,3.35372 0.7,3.35372 0,0 -2.2,-0.34222 -2.8,-0.34222 -0.6,0 -1.1,0.41066 -1.1,0.41066 0,0 1.2,-3.42216 2,-4.03815 0,-0.4791 -0.2,-1.23197 -0.2,-1.23197 0,0 -1.1,1.09509 -1.7,2.46395 -0.6,1.36887 -1.4,2.94306 -1.3,3.28528 -0.6,0.13688 -1,0.20533 -1.4,0.27377 -0.9,-0.34222 -2.9,-0.95821 -6.6,0.20533 -1.7,-0.61599 -4.8,-1.02665 -7.6,-0.13689 -1.4,-0.41066 -4.5,-0.82132 -7.7,0.20533 -1.6,-0.61599 -4.3,-1.16353 -7,-0.0684 -1.3,-0.4791 -3.7,-0.88976 -5.8,0.0684 -0.3,-0.0684 -0.4,-0.34221 -0.4,-0.34221 0,-0.82132 -1.1,-1.77953 -1.5,-1.02665 -0.4,-0.13689 -1.9,-0.0684 -2.6,-0.0684 -0.7,0 -2,-0.0684 -1.8,0.9582 l -0.5,0.0684 c 0,0 -2,-4.65414 -2.1,-4.92791 -0.2,-0.27377 -0.8,-0.68443 -0.8,-0.68443 0,0 -0.4,0.88976 0.2,2.25863 0.5,1.36886 1.6,3.42216 1.6,3.42216 0,0 -3.8,-0.54755 -5.8,0.20533 -0.8,-0.41066 -2.3,-0.41066 -3.9,-0.34222 -1.4,-0.0684 -2.7,0 -3.4,0.34222 -1.9,-0.82132 -5.8,-0.20533 -5.8,-0.20533 0,0 1.1,-2.0533 1.6,-3.42216 0.5,-1.36887 0.2,-2.25863 0.2,-2.25863 0,0 -0.6,0.41066 -0.8,0.68443 -0.2,0.27377 -2.1,4.92791 -2.1,4.92791 l -0.5,-0.0684 c 0.1,-1.02664 -1.1,-0.88976 -1.8,-0.9582 -0.7,0 -2.3,-0.0684 -2.6,0.0684 -0.3,-0.68443 -1.5,0.20533 -1.5,1.02665 0,0 -0.1,0.20533 -0.4,0.34221 -2.1,-0.9582 -4.500002,-0.61599 -5.800004,-0.0684 -2.7,-1.09509 -5.4,-0.54754 -7,0.0684 -3.2,-1.02665 -6.3,-0.68443 -7.7,-0.20533 -2.8,-0.88976 -5.9,-0.4791 -7.6,0.13689 -3.8,-1.16354 -5.7,-0.4791 -6.6,-0.20533 -0.4,-0.0684 -0.8,-0.20533 -1.4,-0.27377 0.1,-0.34222 -0.7,-1.91641 -1.3,-3.28528 -0.6,-1.36886 -1.7,-2.46395 -1.7,-2.46395 0,0 -0.3,0.75287 -0.2,1.23197 0.8,0.61599 2,4.03815 2,4.03815 0,0 -0.5,-0.41066 -1.1,-0.41066 -0.6,0 -2.8,0.34222 -2.8,0.34222 0,0 0.4,-2.19018 0.7,-3.35372 0.3,-1.16353 -0.1,-1.50575 -0.1,-1.50575 0,0 -0.9,0.88976 -1,1.16354 -0.1,0.27377 -0.6,3.21683 -0.9,4.24348 -1.7,-0.34222 -5.1,-0.13689 -6,0.20533 -2.1,-0.61599 -5.7,-0.47911 -7.2,0 -2.1,-0.61599 -5.5,-0.34222 -6.1,0.0684 -1.8,-0.75288 -5.1,-0.34222 -6,-0.0684 -1,-0.34222 -3.6,-0.41066 -4.7,-0.0684 0,-1.36887 1,-2.19019 2.4,-3.28528 1.4,-1.09509 1.6,-1.64264 1.6,-1.64264 0,0 -1.1,0.13689 -1.6,0.41066 -0.6,0.27378 -1.8,1.23198 -2.5,1.98486 -0.7,0.75287 -1,2.46395 -1,2.46395 l -0.3,0.0684 c 0,0 -0.1,-0.54754 -0.8,-0.82132 -0.7,-0.20533 -3,-0.13688 -3.4,-0.13688 -0.4,0.0684 -0.9,0.41066 -1,1.02665 0,0 -0.4,-0.13689 -1.2,0.20533 -1.8,-0.82132 -2.8,-0.47911 -5.1,0 -2.3,-1.0951 -5.3,-0.34222 -6.4,0 -1.1,-0.27378 -3.3000002,0.0684 -4.1999998,0.82132 1.3999999,0.4791 3.0999998,0.75287 3.0999998,0.75287 z"
     id="path3341"
     inkscape:connector-curvature="0"
     style="clip-rule:evenodd;fill-rule:evenodd" /><path
     style="fill:none;fill-rule:evenodd;stroke:#000000;stroke-width:5;stroke-linecap:butt;stroke-linejoin:miter;stroke-opacity:1;stroke-miterlimit:4;stroke-dasharray:none"
     d="M 23.725835,86.994728 23.286467,182.33743"
     id="path3343"
     inkscape:connector-curvature="0" /><path
     inkscape:connector-curvature="0"
     id="path4145"
     d="m 222.31986,86.55536 -0.43937,95.34271"
     style="fill:none;fill-rule:evenodd;stroke:#000000;stroke-width:5;stroke-linecap:butt;stroke-linejoin:miter;stroke-miterlimit:4;stroke-dasharray:none;stroke-opacity:1" /><path
     style="fill:none;fill-rule:evenodd;stroke:#000000;stroke-width:5;stroke-linecap:butt;stroke-linejoin:miter;stroke-miterlimit:4;stroke-dasharray:none;stroke-opacity:1"
     d="M 122.58348,86.115993 122.14411,181.4587"
     id="path4147"
     inkscape:connector-curvature="0" /></svg>