<?xml version="1.0" encoding="utf-8"?>
<!-- Generator: Adobe Illustrator 19.0.0, SVG Export Plug-In . SVG Version: 6.00 Build 0)  -->
<svg version="1.1" id="Layer_1" xmlns="http://www.w3.org/2000/svg" xmlns:xlink="http://www.w3.org/1999/xlink" x="0px" y="0px"
	 viewBox="0 0 250 250" style="enable-background:new 0 0 250 250;" xml:space="preserve">
<style type="text/css">
	.st0{fill:none;stroke:#000000;stroke-width:7.0065;stroke-miterlimit:10;}
</style>
<g>
	<g>
		<line class="st0" x1="118.1" y1="237" x2="118.1" y2="188.4"/>
		<line class="st0" x1="100.6" y1="204.6" x2="135.6" y2="204.6"/>
	</g>
	<g>
		<line class="st0" x1="202" y1="195" x2="202" y2="146.4"/>
		<line class="st0" x1="184.5" y1="162.6" x2="219.6" y2="162.6"/>
	</g>
	<g>
		<line class="st0" x1="49.1" y1="195" x2="49.1" y2="146.4"/>
		<line class="st0" x1="31.5" y1="162.6" x2="66.6" y2="162.6"/>
	</g>
	<g>
		<line class="st0" x1="127.3" y1="178.3" x2="127.3" y2="129.7"/>
		<line class="st0" x1="109.8" y1="145.9" x2="144.8" y2="145.9"/>
	</g>
	<g>
		<line class="st0" x1="57.8" y1="135.4" x2="57.8" y2="86.8"/>
		<line class="st0" x1="40.3" y1="103" x2="75.3" y2="103"/>
	</g>
	<g>
		<line class="st0" x1="181.3" y1="135.4" x2="181.3" y2="86.8"/>
		<line class="st0" x1="163.8" y1="103" x2="198.8" y2="103"/>
	</g>
	<g>
		<line class="st0" x1="120.9" y1="108.5" x2="120.9" y2="59.9"/>
		<line class="st0" x1="103.4" y1="76.1" x2="138.4" y2="76.1"/>
	</g>
	<g>
		<line class="st0" x1="71.8" y1="59.9" x2="71.8" y2="11.3"/>
		<line class="st0" x1="54.3" y1="27.5" x2="89.4" y2="27.5"/>
	</g>
	<g>
		<line class="st0" x1="165.1" y1="59.9" x2="165.1" y2="11.3"/>
		<line class="st0" x1="147.6" y1="27.5" x2="182.6" y2="27.5"/>
	</g>
</g>
</svg>
