<?xml version="1.0" encoding="utf-8"?>
<!-- Generator: Adobe Illustrator 19.0.0, SVG Export Plug-In . SVG Version: 6.00 Build 0)  -->
<svg version="1.1" id="Layer_1" xmlns="http://www.w3.org/2000/svg" xmlns:xlink="http://www.w3.org/1999/xlink" x="0px" y="0px"
	 viewBox="0 0 250 250" style="enable-background:new 0 0 250 250;" xml:space="preserve">
<g>
	<path d="M234.4,132.8c-10.3,5.7-16.6,0-18.6-1.7c-2-1.7-1.7-7.4,0.6-10s1.7-4.6,0-4.9s-3.7-1.7-5.4-2.9c-1.7-1.1-5.7-2.3-8.9-3.4
		c-3.1-1.1-5.1-4.3-7.2-7.4c-2-3.1-8.9-2-13.4-2.3c-4.6-0.3-6.9-6.9-7.2-10c-0.3-3.1-4.9-4.6-8.9-7.4c-4-2.9-2-8-2-8h-5.1
		c0,1.1-1.4,6-9.2,6s-10.3,0.9-16,4.3c-5.7,3.4-14.3-0.6-16.6-2.3c-2.3-1.7-6.6-2.6-12.6,1.7c-6,4.3-11.4,0.3-16.9-2
		c-5.4-2.3-6.6,2-11.2,2.9c-4.6,0.9-6.9-8.6-6.9-8.6c-22.9,4.3-36.9,15.4-36.9,15.4c0,3.7,0.3,6.3,2.6,7.4c2.3,1.1,8.9,1.1,12,4.6
		c3.1,3.4,0,7.2,0,7.2c38.9-24.3,69.8-24,93-22.6s49.5,19.7,56.3,35.5c6.9,15.7-2.6,23.7-2.6,23.7c1.1-16.3-9.4-26.9-19.2-34.6
		c-9.7-7.7-22.3-16-46.1-16.3s-49.5,7.4-64.9,15.2s-15.4,28.3-15.4,28.3c-8.6-3.7-11.4-23.5-12.6-26.9c-1.1-3.4-6.6-1.7-11.4-1.4
		s-6.3-3.7-6.3-3.7c-7.2,14.9,2.9,28.6,2.9,28.6c10-4.6,16.3,6.6,16.3,6.6c10.3-0.9,11.2,8.3,11.2,8.3c10.9,1.4,12,7.7,12,7.7
		c14-5.1,16.3,0,16.3,0c8.3-2.3,10.6,4.6,11.7,6.9s6.9,1.4,10.9,6.3c4,4.9,1.1,11.4,1.1,11.4c51.2,6.9,70.9,3.1,106.1-11.4
		C241.3,158.3,234.4,132.8,234.4,132.8z M139.1,169.2c-19.2,0.6-46.9-8.3-46.9-8.3c-4.3-9.9,1.7-11.4,9.4-14.9s21.5-3.1,33.8,0
		c12.3,3.1,14,12.3,14,14.9C149.4,163.4,139.1,169.2,139.1,169.2z M166.6,163.4c-6.6,2.6-12.9,1.7-12.9,1.7s8-4.3,3.7-14.3
		c-4.3-10-15.4-15.2-26.6-17.3c-11.2-2.2-22,0.5-29.5,1.3c-7.4,0.9-14.9,6.6-19.2,11.2c-4.3,4.6-1.7,10-1.7,10l-11.2-4.3
		c-2.6-9.4,2-14,14.9-20.5s36-9,44.3-9c8.3,0,24.3,4.3,33.8,14C171.7,146,166.6,163.4,166.6,163.4z M187.5,155.4l-10.6,5.4
		c0,0,0-3.1,0-13.2c0-10-6.6-16.9-10.3-20.9s-8.6-9.7-37.5-12.3s-46.9,8.6-58.6,14.9c-11.7,6.3-8,19.7-8,19.7
		c-4.6-1.4-8.6-4.3-8.6-4.3s-0.9-7.4,4-17.2s26.3-16,44-19.2c17.7-3.1,35.5-3.1,49.2,0c13.7,3.1,26,16.3,32,26.6
		S187.5,155.4,187.5,155.4z"/>
	<path d="M76.8,80.5c0,0-4.6-3.1-4-7.4c0.6-4.3,2.3-5.1,6.9-5.1c4.6,0,5.4,0,7.7-2.3c2.3-2.3,6-0.9,7.2,0c1.1,0.9,5.4,4.6,8.3,0.3
		c2.9-4.3,5.7-1.1,8-0.3c2.3,0.9,5,3.4,7.5,0.6s4.5-1.4,6.6-0.3c2.2,1.1,6.2,2.9,7,0.6s2.6-0.9,6-0.3c3.4,0.6,4.6,1.7,6.9-0.6
		c2.3-2.3,4.9,0,6,1.7c1.1,1.7,6.3,9.7-2.9,9.4c-9.2-0.3-10.9-1.1-14.9,2c-4,3.1-5.7,5.1-13,1.7c-7.3-3.4-10.7-3.7-16.7-0.9
		s-9.4,3.1-12.6,0.9C87.7,78.2,80.8,76.8,76.8,80.5z"/>
	<path d="M178,71.6c-7.2,0.3-10.1,2-10,5.4c0,3.4,4,5.4,5,6.6c1,1.1,3.9,3.4,5,6.6c1.1,3.1,3.3,6,9.7,5.4c6.4-0.6,8.6,1.4,10.1,3.4
		c1.4,2,2.6,6.4,7.2,7.1c4.6,0.6,7.7,4.6,11.7,5.5c4,0.9,5.4,1.7,5.7,4.3c0.3,2.6,0.6,2-1.4,6.3c-2,4.3-3.4,7.4,4.6,7.7
		s11.4-5.4,9.4-9.4c-2-4-5.1-11-4.8-14.4c0.3-3.4-4.6-7.4-7.7-8.2c-3.1-0.9-5.7-4-6.9-8.3s-7.2-5.4-7.2-5.4s-0.6-3.1-5.4-4.6
		c-4.9-1.4-10.3-3.1-11.7-2.6c-1.4,0.6-4.3,4.3-6.9-0.9C181.8,71.1,178,71.6,178,71.6z"/>
	<path d="M29.9,143.5c-2-2.5-6.3-3.3-8.6,0s3.1,3.3,4.3,7.9c1.1,4.6,6,10,11.7,12.3s7.7,5.1,9.2,7.2c1.4,2,4.5,4,7.4,4
		c2.9,0,8.1,1.4,11.5,4c3.4,2.6,19.7,7.4,25.5,5.4c5.7-2,6.9-8,2.6-10.3s-9.7-4.9-10.6-7.2s-3.4-5.4-5.7-1.6c0,0-2.5-3.8-8.4-2.3
		s-7,4.4-10.3,2.3s-2.2-4.4-2.2-4.4s-0.9-2.9-4.9-2.9s-6.6-1.1-7.4-3.7c-0.9-2.6,0.9-5.4-3.4-5.4S36,150.9,29.9,143.5z"/>
</g>
</svg>
