<?xml version="1.0" encoding="UTF-8" standalone="no"?>
<!-- Generator: Adobe Illustrator 19.0.0, SVG Export Plug-In . SVG Version: 6.00 Build 0)  -->

<svg
   xmlns:dc="http://purl.org/dc/elements/1.1/"
   xmlns:cc="http://creativecommons.org/ns#"
   xmlns:rdf="http://www.w3.org/1999/02/22-rdf-syntax-ns#"
   xmlns:svg="http://www.w3.org/2000/svg"
   xmlns="http://www.w3.org/2000/svg"
   xmlns:sodipodi="http://sodipodi.sourceforge.net/DTD/sodipodi-0.dtd"
   xmlns:inkscape="http://www.inkscape.org/namespaces/inkscape"
   version="1.1"
   id="Layer_1"
   x="0px"
   y="0px"
   viewBox="0 0 250 250"
   style="enable-background:new 0 0 250 250;"
   xml:space="preserve"
   inkscape:version="0.91 r13725"
   sodipodi:docname="pointy-sign.svg"><metadata
     id="metadata9234"><rdf:RDF><cc:Work
         rdf:about=""><dc:format>image/svg+xml</dc:format><dc:type
           rdf:resource="http://purl.org/dc/dcmitype/StillImage" /><dc:title></dc:title></cc:Work></rdf:RDF></metadata><defs
     id="defs9232" /><sodipodi:namedview
     pagecolor="#ffffff"
     bordercolor="#666666"
     borderopacity="1"
     objecttolerance="10"
     gridtolerance="10"
     guidetolerance="10"
     inkscape:pageopacity="0"
     inkscape:pageshadow="2"
     inkscape:window-width="1216"
     inkscape:window-height="677"
     id="namedview9230"
     showgrid="false"
     inkscape:zoom="0.944"
     inkscape:cx="125"
     inkscape:cy="125"
     inkscape:window-x="40"
     inkscape:window-y="59"
     inkscape:window-maximized="0"
     inkscape:current-layer="Layer_1" /><style
     type="text/css"
     id="style9186">
	.st0{fill-rule:evenodd;clip-rule:evenodd;}
	.st1{fill-rule:evenodd;clip-rule:evenodd;fill:#FFFFFF;}
</style><rect
     x="113.66884"
     y="108.98813"
     class="st0"
     width="20.605757"
     height="112.17798"
     id="rect9188"
     style="clip-rule:evenodd;fill-rule:evenodd" /><polygon
     class="st1"
     points="14.5,86.2 14.3,86.2 14.1,86.2 13.9,86.2 13.7,86.2 13.6,86.2 13.4,86.3 13.3,86.3 13.2,86.3 13.1,86.3 13,86.4 12.9,86.4 12.8,86.5 12.7,86.5 12.6,86.6 12.6,86.7 12.5,86.8 12.5,86.9 12.5,87 12.5,87.1 12.4,87.2 12.4,87.3 12.4,87.5 12.4,87.7 12.4,87.8 12.4,88 12.3,88.2 12.3,88.5 12.3,88.7 12.3,88.9 12.3,113.5 12.3,113.8 12.3,114 12.4,114.2 12.4,114.4 12.4,114.6 12.4,114.8 12.4,114.9 12.4,115.1 12.4,115.2 12.5,115.3 12.5,115.5 12.5,115.6 12.5,115.7 12.6,115.8 12.6,115.8 12.7,115.9 12.8,116 12.9,116 13,116.1 13.1,116.1 13.2,116.1 13.3,116.2 13.4,116.2 13.6,116.2 13.7,116.2 13.9,116.2 14.1,116.2 14.3,116.2 14.5,116.2 14.7,116.2 15,116.2 15.2,116.2 98.8,116.2 113.2,101.2 99.3,86.2 15.2,86.2 15,86.2 14.7,86.2 "
     id="polygon9190"
     transform="matrix(2.1243048,0,0,2.1614253,-4.2300673,-142.38563)"
     style="clip-rule:evenodd;fill:#ffffff;fill-rule:evenodd" /><rect
     x="28.059362"
     y="41.767796"
     width="178.4416"
     height="4.106708"
     id="rect9192" /><polygon
     points="13.4,88.1 13.4,87.9 13.4,87.7 13.4,87.6 13.4,87.4 13.4,87.3 13.4,87.3 13.5,87.2 13.5,87.2 13.5,87.2 13.4,87.2 13.4,87.2 13.4,87.2 13.4,87.2 13.5,87.2 13.6,87.2 13.7,87.2 13.8,87.2 14,87.2 14.1,87.2 14.3,87.2 14.5,87.2 14.7,87.2 15,87.2 15.2,87.2 15.2,85.2 15,85.2 14.7,85.2 14.5,85.2 14.3,85.2 14,85.2 13.8,85.2 13.7,85.3 13.5,85.3 13.3,85.3 13.1,85.3 12.9,85.4 12.7,85.4 12.5,85.5 12.3,85.6 12.1,85.7 12,85.9 11.8,86 11.7,86.2 11.6,86.4 11.6,86.6 11.5,86.7 11.4,86.9 11.4,87.1 11.4,87.2 11.4,87.4 11.4,87.6 11.3,87.8 11.3,88 11.3,88.2 11.3,88.5 11.3,88.7 11.3,88.9 13.4,88.9 13.4,88.7 13.4,88.5 13.4,88.2 "
     id="polygon9194"
     transform="matrix(2.1243048,0,0,2.1614253,-4.2300673,-142.38563)" /><rect
     x="19.774576"
     y="49.765068"
     width="4.4610395"
     height="53.171059"
     id="rect9196" /><polygon
     points="14.3,115.3 14.1,115.3 14,115.2 13.8,115.2 13.7,115.2 13.6,115.2 13.5,115.2 13.4,115.2 13.4,115.2 13.4,115.2 13.4,115.2 13.5,115.2 13.5,115.3 13.5,115.2 13.5,115.2 13.4,115.1 13.4,115.1 13.4,115 13.4,114.8 13.4,114.7 13.4,114.6 13.4,114.4 13.4,114.2 13.4,114 13.4,113.8 13.4,113.5 11.3,113.5 11.3,113.8 11.3,114 11.3,114.2 11.3,114.4 11.3,114.6 11.4,114.8 11.4,115 11.4,115.2 11.4,115.4 11.4,115.5 11.5,115.7 11.6,115.9 11.6,116.1 11.7,116.3 11.8,116.4 12,116.6 12.1,116.7 12.3,116.8 12.5,116.9 12.7,117 12.9,117 13.1,117.1 13.3,117.1 13.5,117.1 13.7,117.2 13.8,117.2 14,117.2 14.3,117.2 14.5,117.2 14.7,117.2 15,117.2 15.2,117.2 15.2,115.3 15,115.3 14.7,115.3 14.5,115.3 "
     id="polygon9198"
     transform="matrix(2.1243048,0,0,2.1614253,-4.2300673,-142.38563)" /><polygon
     points="98.8,117.2 99.6,116.9 98.8,117.2 99.3,117.2 99.6,116.9 98,115.6 98.8,115.3 15.2,115.3 15.2,117.2 "
     id="polygon9200"
     transform="matrix(2.1243048,0,0,2.1614253,-4.2300673,-142.38563)" /><polygon
     points="114,101.9 114,100.6 112.5,101.8 112.5,100.6 98,115.6 99.6,116.9 "
     id="polygon9202"
     transform="matrix(2.1243048,0,0,2.1614253,-4.2300673,-142.38563)" /><polygon
     points="100,85.6 99.3,85.2 99.3,87.2 98.5,86.9 112.5,101.8 114,100.6 "
     id="polygon9204"
     transform="matrix(2.1243048,0,0,2.1614253,-4.2300673,-142.38563)" /></svg>