<?xml version="1.0" encoding="UTF-8" standalone="no"?>
<!-- Generator: Adobe Illustrator 19.0.0, SVG Export Plug-In . SVG Version: 6.00 Build 0)  -->

<svg
   xmlns:dc="http://purl.org/dc/elements/1.1/"
   xmlns:cc="http://creativecommons.org/ns#"
   xmlns:rdf="http://www.w3.org/1999/02/22-rdf-syntax-ns#"
   xmlns:svg="http://www.w3.org/2000/svg"
   xmlns="http://www.w3.org/2000/svg"
   xmlns:sodipodi="http://sodipodi.sourceforge.net/DTD/sodipodi-0.dtd"
   xmlns:inkscape="http://www.inkscape.org/namespaces/inkscape"
   version="1.1"
   id="Layer_1"
   x="0px"
   y="0px"
   viewBox="0 0 250 250"
   style="enable-background:new 0 0 250 250;"
   xml:space="preserve"
   inkscape:version="0.91 r13725"
   sodipodi:docname="ruins.svg"><metadata
     id="metadata23"><rdf:RDF><cc:Work
         rdf:about=""><dc:format>image/svg+xml</dc:format><dc:type
           rdf:resource="http://purl.org/dc/dcmitype/StillImage" /></cc:Work></rdf:RDF></metadata><defs
     id="defs21" /><sodipodi:namedview
     pagecolor="#ffffff"
     bordercolor="#666666"
     borderopacity="1"
     objecttolerance="10"
     gridtolerance="10"
     guidetolerance="10"
     inkscape:pageopacity="0"
     inkscape:pageshadow="2"
     inkscape:window-width="640"
     inkscape:window-height="480"
     id="namedview19"
     showgrid="false"
     inkscape:zoom="2.276"
     inkscape:cx="60.852373"
     inkscape:cy="125"
     inkscape:current-layer="Layer_1" /><style
     type="text/css"
     id="style3">
	.st0{fill:#7F7F7F;stroke:#000000;stroke-width:5.6804;stroke-miterlimit:10;}
	.st1{fill:none;stroke:#000000;stroke-width:5.6804;stroke-miterlimit:10;}
	.st2{fill:none;stroke:#000000;stroke-width:5.0087;stroke-miterlimit:10;}
</style><path
     class="st0"
     d="M14.8,91.9v68.2H234c0,0-3.3-9-8-9.9c-4.7-0.9-3.3-2.8-5.2-5.2c-1.9-2.4-9-9-13.3-9.5s-14.2-4.7-20.4-6.1  c-6.2-1.4-7.1-6.2-7.1-6.2l-14.7-0.5l-20.8-26.5h-17l-3.1-4.3H73.1l-6.2-3.8H23.8L14.8,91.9z"
     id="path5"
     style="fill:#ffffff;fill-opacity:1" /><path
     class="st1"
     d="M96.7,160.1v-46.4c0,0,1.9-9.9,20.8-9.9s20.8,9.9,20.8,9.9v46.4"
     id="path7" /><rect
     x="30"
     y="111.8"
     class="st1"
     width="12.3"
     height="10.4"
     id="rect9" /><rect
     x="175.8"
     y="136"
     class="st1"
     width="12.3"
     height="10.4"
     id="rect11" /><rect
     x="32.8"
     y="122.2"
     class="st1"
     width="19.4"
     height="9.7"
     id="rect13" /><rect
     x="40.4"
     y="131.9"
     class="st2"
     width="18"
     height="8.3"
     id="rect15" /><rect
     x="150.2"
     y="127.7"
     class="st2"
     width="18"
     height="8.3"
     id="rect17" /></svg>