<?xml version="1.0" encoding="UTF-8" standalone="no"?>
<!-- Generator: Adobe Illustrator 19.0.0, SVG Export Plug-In . SVG Version: 6.00 Build 0)  -->

<svg
   xmlns:dc="http://purl.org/dc/elements/1.1/"
   xmlns:cc="http://creativecommons.org/ns#"
   xmlns:rdf="http://www.w3.org/1999/02/22-rdf-syntax-ns#"
   xmlns:svg="http://www.w3.org/2000/svg"
   xmlns="http://www.w3.org/2000/svg"
   xmlns:sodipodi="http://sodipodi.sourceforge.net/DTD/sodipodi-0.dtd"
   xmlns:inkscape="http://www.inkscape.org/namespaces/inkscape"
   version="1.1"
   id="Layer_1"
   x="0px"
   y="0px"
   viewBox="0 0 250 250"
   style="enable-background:new 0 0 250 250;"
   xml:space="preserve"
   inkscape:version="0.91 r13725"
   sodipodi:docname="water-trough.svg"><metadata
     id="metadata4155"><rdf:RDF><cc:Work
         rdf:about=""><dc:format>image/svg+xml</dc:format><dc:type
           rdf:resource="http://purl.org/dc/dcmitype/StillImage" /><dc:title></dc:title></cc:Work></rdf:RDF></metadata><defs
     id="defs4153" /><sodipodi:namedview
     pagecolor="#ffffff"
     bordercolor="#666666"
     borderopacity="1"
     objecttolerance="10"
     gridtolerance="10"
     guidetolerance="10"
     inkscape:pageopacity="0"
     inkscape:pageshadow="2"
     inkscape:window-width="1920"
     inkscape:window-height="1017"
     id="namedview4151"
     showgrid="false"
     inkscape:zoom="0.67698739"
     inkscape:cx="0.11717937"
     inkscape:cy="182.05717"
     inkscape:window-x="-8"
     inkscape:window-y="-8"
     inkscape:window-maximized="1"
     inkscape:current-layer="g4139" /><style
     type="text/css"
     id="style4137">
	.st0{fill:#FFFFFF;}
</style><g
     id="g4139"><path
       style="fill:none;fill-rule:evenodd;stroke:#000000;stroke-width:3;stroke-linecap:butt;stroke-linejoin:miter;stroke-miterlimit:4;stroke-dasharray:none;stroke-opacity:1"
       d="m 68.37815,115.62291 c 6.52807,0 8.58391,-5.31047 8.58391,-5.31047 l 0.11424,0 c 0,0 2.86483,5.25122 8.84025,5.24886 5.46993,-0.002 8.54121,-5.19863 8.54121,-5.19863 l 0.13244,0.006 c 0,0 4.00796,5.20793 8.80568,5.19205 6.18468,-0.0205 9.16042,-5.24838 9.16042,-5.24838 l 0.13056,-0.0163 c 0,0 3.06869,5.34168 7.80104,5.27142 4.58594,-0.0681 7.39303,-5.2551 7.39303,-5.2551 l 0.2448,0 c 0,0 2.56227,5.28774 7.50728,5.27142 4.70742,-0.0155 6.85447,-5.3367 6.85447,-5.3367 l 0.21216,0.0163 c 0,0 2.31746,5.22245 7.27879,5.22245 4.96133,0 7.99688,-5.15717 7.99688,-5.15717 l 0.14688,2e-5 c 0,0 2.92101,5.33303 6.64231,5.32037 3.27974,-0.0112 7.31143,-5.36933 7.31143,-5.36933 l 0.1632,0 c 0,0 1.32194,5.05925 6.54439,5.32037"
       id="path4233-7"
       inkscape:connector-curvature="0"
       sodipodi:nodetypes="cccsccsccsccsccsccsccc" /><path
       style="fill:none;fill-rule:evenodd;stroke:#000000;stroke-width:3;stroke-linecap:butt;stroke-linejoin:miter;stroke-miterlimit:4;stroke-dasharray:none;stroke-opacity:1"
       d="m 51.231294,101.79413 c 12.05403,-0.0106 13.54029,-5.325204 13.54029,-5.325204 l 0.78337,0 c 0,0 3.28035,5.286314 9.5473,5.286314 6.26694,0 9.56601,-5.316244 9.56601,-5.316244 l 0.25185,-0.0163 c 0,0 2.40642,5.340404 8.93448,5.340404 6.528066,0 8.583916,-5.310474 8.583916,-5.310474 l 0.11424,0 c 0,0 2.86483,5.251224 8.84025,5.248864 5.46993,-0.002 8.54121,-5.198634 8.54121,-5.198634 l 0.13244,0.006 c 0,0 4.00796,5.207934 8.80568,5.192054 6.18468,-0.0205 9.16042,-5.248384 9.16042,-5.248384 l 0.13056,-0.0163 c 0,0 3.06869,5.341684 7.80104,5.271424 4.58594,-0.0681 7.39303,-5.255104 7.39303,-5.255104 l 0.2448,0 c 0,0 2.56227,5.287744 7.50728,5.271424 4.70742,-0.0155 6.85447,-5.336704 6.85447,-5.336704 l 0.21216,0.0163 c 0,0 2.31746,5.222454 7.27879,5.222454 4.96133,0 7.99688,-5.157174 7.99688,-5.157174 l 0.14688,2e-5 c 0,0 2.92101,5.333034 6.64231,5.320374 3.27974,-0.0112 5.6035,-5.369334 5.6035,-5.369334 l 0.11704,0 c 0,0 1.9581,4.985814 7.18055,5.246934"
       id="path4233"
       inkscape:connector-curvature="0"
       sodipodi:nodetypes="cccsccsccsccsccsccsccsccsccc" /><path
       style="fill:none;fill-rule:evenodd;stroke:#000000;stroke-width:3;stroke-linecap:butt;stroke-linejoin:miter;stroke-miterlimit:4;stroke-dasharray:none;stroke-opacity:1"
       d="m 204.23426,87.452698 c -12.05403,-0.0106 -13.54029,-5.325204 -13.54029,-5.325204 l -0.78337,0 c 0,0 -3.28035,5.286314 -9.5473,5.286314 -6.26694,0 -9.56601,-5.316244 -9.56601,-5.316244 l -0.25185,-0.0163 c 0,0 -2.40642,5.340404 -8.93448,5.340404 -6.52807,0 -8.58392,-5.310474 -8.58392,-5.310474 l -0.11424,0 c 0,0 -2.86483,5.251224 -8.84025,5.248864 -5.46993,-0.002 -8.54121,-5.198634 -8.54121,-5.198634 l -0.13244,0.006 c 0,0 -4.00796,5.207934 -8.80568,5.192054 -6.18468,-0.0205 -9.16042,-5.248384 -9.16042,-5.248384 l -0.13056,-0.0163 c 0,0 -3.06869,5.341684 -7.80104,5.271424 -4.58594,-0.0681 -7.39303,-5.255104 -7.39303,-5.255104 l -0.2448,0 c 0,0 -2.562275,5.287744 -7.507285,5.271424 -4.70742,-0.0155 -6.85447,-5.336704 -6.85447,-5.336704 l -0.21216,0.0163 c 0,0 -2.31746,5.222454 -7.27879,5.222454 -4.96133,0 -7.99688,-5.157174 -7.99688,-5.157174 l -0.14688,2e-5 c 0,0 -2.92101,5.333034 -6.64231,5.320374 -3.27974,-0.0112 -7.31143,-5.369334 -7.31143,-5.369334"
       id="path4233-8"
       inkscape:connector-curvature="0"
       sodipodi:nodetypes="cccsccsccsccsccsccsccsccsc" /><path
       style="opacity:1;fill:none;fill-opacity:1;stroke:#000000;stroke-width:4.14636993;stroke-linecap:butt;stroke-miterlimit:4;stroke-dasharray:none;stroke-opacity:1"
       id="path4167-8"
       sodipodi:type="arc"
       sodipodi:cx="-98.375526"
       sodipodi:cy="124.03093"
       sodipodi:rx="29.975029"
       sodipodi:ry="78.366104"
       sodipodi:start="4.7057437"
       sodipodi:end="4.701075"
       d="m -98.574717,45.666556 a 29.975029,78.366104 0 0 1 30.173305,77.752144 29.975029,78.366104 0 0 1 -29.704953,78.97517 29.975029,78.366104 0 0 1 -30.242645,-77.56779 29.975029,78.366104 0 0 1 29.634354,-79.156239"
       transform="matrix(-0.0351391,-0.99938243,0.99964011,-0.02682644,0,0)"
       sodipodi:open="true" /><path
       style="fill:none;fill-rule:evenodd;stroke:#000000;stroke-width:4.14629841;stroke-linecap:butt;stroke-linejoin:miter;stroke-miterlimit:4;stroke-dasharray:none;stroke-opacity:1"
       d="m 49.113992,95.929751 0,46.515509 0,-46.515509 z"
       id="path4184"
       inkscape:connector-curvature="0" /><path
       style="fill:none;fill-rule:evenodd;stroke:#000000;stroke-width:4.14629841;stroke-linecap:butt;stroke-linejoin:miter;stroke-miterlimit:4;stroke-dasharray:none;stroke-opacity:1"
       d="m 205.74322,93.757222 0,46.515348"
       id="path4184-5"
       inkscape:connector-curvature="0" /><path
       style="opacity:1;fill:none;fill-opacity:1;stroke:#000000;stroke-width:4.14636993;stroke-linecap:butt;stroke-miterlimit:4;stroke-dasharray:none;stroke-opacity:1"
       id="path4167-8-4"
       sodipodi:type="arc"
       sodipodi:cx="-143.60495"
       sodipodi:cy="122.46878"
       sodipodi:rx="29.975029"
       sodipodi:ry="78.366104"
       sodipodi:start="1.5842086"
       sodipodi:end="4.7522162"
       d="m -144.00697,200.82784 a 29.975029,78.366104 0 0 1 -25.88366,-40.69337 29.975029,78.366104 0 0 1 0.80391,-78.934938 29.975029,78.366104 0 0 1 26.67528,-37.034711"
       transform="matrix(-0.0351391,-0.99938243,0.99964011,-0.02682644,0,0)"
       sodipodi:open="true" /></g></svg>