<?xml version="1.0" encoding="utf-8"?>
<!-- Generator: Adobe Illustrator 19.0.0, SVG Export Plug-In . SVG Version: 6.00 Build 0)  -->
<svg version="1.1" id="Layer_1" xmlns="http://www.w3.org/2000/svg" xmlns:xlink="http://www.w3.org/1999/xlink" x="0px" y="0px"
	 viewBox="0 0 250 250" style="enable-background:new 0 0 250 250;" xml:space="preserve">
<style type="text/css">
	.st0{fill-rule:evenodd;clip-rule:evenodd;}
</style>
<path class="st0" d="M13.5,127.2c0,0,0.9,0.4,2.4-0.6c0.8,0.4,3,0.9,5.7-0.2c2,1.3,6.7,2.3,7.8,1.5c0,0,1,0.4,1.7,0
	c0,0,1.4,3.3,1.6,3.8c0.2,0.5,0.7,1.9,1.3,2.3c0.4-1.5-0.7-4.4-1.6-6.2c0,0,1.2-0.4,1.8-1.8c1.1,0.9,3.3,1.3,5.3-0.1
	c1.6,1.1,3.5,1.2,5.9,0.2c2.2,1.2,4.1,1.2,6.5-0.1c2.4,1,4.9,1.1,6.8,0c2.3,1.4,5.1,1,6.4,0.4c0.2,0.6,1.8,1.2,1.8,1.2l-3.8,5.6
	c0,0,1.1-0.4,1.9-1c0.8-0.6,2.2-3.2,2.9-4.4c0,0,0.3,0.1,0.8-0.2c0.3,0.1,1.1,0.1,1.3-0.1c0,0,3,1.3,4.8,2.2c1.8,0.8,3,1.2,3,1.2
	s-0.6-1.1-1.4-1.5c-0.8-0.4-5.7-2.6-5.7-2.6l0-0.1c0,0,0.7-0.2,1-0.5c1.3,0.7,5.2,1.4,7.1,0.3c1,0.5,4.1,1.2,7.2-0.1
	c1.5,0.7,6.2,1.3,8,0.1c0.5,0.1,3.1,1.4,6.8,0.1c2.3,1.1,7.1,2.1,8.1,1.6c0,0,0.9,0.4,1.5,0.1c0,0,0.1,0.4,1.2-0.1
	c0,0,1.3,2.8,1.5,3.9c0.2,0.4,2.1,1.9,2.1,1.9s-1.4-4.1-2.5-6c0,0,0.6-0.2,1.5-1.4c1.8,1,4.1,1.1,7.1,0c0,0,0,0,0.1,0
	c1.1,0.7,2.3,0.8,3.4,0.7c0.6,0,1.3-0.2,1.9-0.5c0.3-0.1,0.6-0.2,0.6-0.3c3,1,5.2,0.9,7-0.1c0.9,1.1,1.5,1.4,1.5,1.4
	c-1,1.9-2.5,6-2.5,6s1.9-1.5,2.1-1.9c0.3-1.1,1.5-3.9,1.5-3.9c1.1,0.5,1.2,0.1,1.2,0.1c0.6,0.3,1.5-0.1,1.5-0.1
	c0.9,0.4,5.7-0.6,8-1.6c3.7,1.3,6.4,0,6.8-0.1c1.7,1.2,6.5,0.6,8-0.1c3,1.3,6.2,0.6,7.2,0.1c2,1.2,5.8,0.4,7.1-0.3
	c0.3,0.4,1,0.5,1,0.5l0,0.1c0,0-4.9,2.2-5.7,2.6c-0.8,0.4-1.4,1.5-1.4,1.5s1.2-0.3,3-1.2c1.8-0.8,4.8-2.2,4.8-2.2
	c0.2,0.3,1,0.3,1.3,0.1c0.5,0.2,0.8,0.2,0.8,0.2c0.7,1.2,2.1,3.8,2.9,4.4c0.8,0.6,1.9,1,1.9,1l-3.8-5.6c0,0,1.6-0.6,1.8-1.2
	c1.3,0.6,4.1,1,6.4-0.4c1.9,1.1,4.5,1.1,6.8,0c2.4,1.2,4.3,1.2,6.5,0.1c2.4,1,4.3,0.9,5.9-0.2c2,1.4,4.1,1,5.3,0.1
	c0.7,1.4,1.8,1.8,1.8,1.8c-0.8,1.8-2,4.7-1.6,6.2c0.6-0.5,1.1-1.8,1.3-2.3c0.2-0.5,1.6-3.8,1.6-3.8c0.7,0.3,1.7,0,1.7,0
	c1.1,0.8,5.8-0.3,7.8-1.5c2.6,1.1,4.9,0.6,5.7,0.2c1.5,1,2.4,0.6,2.4,0.6s1.7-0.4,2.2-0.9c-0.9-1-3.1-1.5-4.2-1.2
	c-1.1-0.5-4.1-1.6-6.4,0c-2.3-0.7-3.3-1.2-5.1,0c-0.8-0.5-1.2-0.3-1.2-0.3c0-0.9-0.5-1.4-1-1.5c-0.4-0.1-2.8-0.2-3.4,0.2
	c-0.7,0.3-0.8,1.2-0.8,1.2l-0.3-0.1c0,0-0.3-2.5-1-3.6c-0.7-1.1-1.9-2.5-2.5-2.9c-0.6-0.4-1.6-0.6-1.6-0.6s0.3,0.8,1.6,2.4
	c1.4,1.6,2.3,2.9,2.4,4.8c-1.1-0.4-3.7-0.4-4.7,0.1c-0.8-0.4-4.2-1-6,0.1c-0.6-0.5-4-1-6.1-0.1c-1.5-0.7-5.1-0.9-7.2,0
	c-0.9-0.5-4.3-0.8-6-0.3c-0.3-1.5-0.8-5.8-0.9-6.2c-0.1-0.4-1-1.7-1-1.7s-0.4,0.5-0.1,2.2c0.3,1.7,0.7,4.9,0.7,4.9s-2.2-0.5-2.8-0.5
	s-1.1,0.6-1.1,0.6s1.2-5,2-5.9c0-0.7-0.2-1.8-0.2-1.8s-1.1,1.6-1.7,3.6c-0.6,2-1.4,4.3-1.3,4.8c-0.6,0.2-1,0.3-1.4,0.4
	c-0.9-0.5-2.9-1.4-6.6,0.3c-1.7-0.9-4.8-1.5-7.6-0.2c-1.4-0.6-4.5-1.2-7.7,0.3c-1.6-0.9-4.3-1.7-7-0.1c-1.3-0.7-3.7-1.3-5.8,0.1
	c-0.3-0.1-0.4-0.5-0.4-0.5c0-1.2-1.1-2.6-1.5-1.5c-0.4-0.2-1.9-0.1-2.6-0.1c-0.7,0-2-0.1-1.8,1.4l-0.5,0.1c0,0-2-6.8-2.1-7.2
	c-0.2-0.4-0.8-1-0.8-1s-0.4,1.3,0.2,3.3c0.5,2,1.6,5,1.6,5s-3.8-0.8-5.8,0.3c-0.8-0.6-2.3-0.6-3.9-0.5c-1.4-0.1-2.7,0-3.4,0.5
	c-1.9-1.2-5.8-0.3-5.8-0.3s1.1-3,1.6-5c0.5-2,0.2-3.3,0.2-3.3s-0.6,0.6-0.8,1c-0.2,0.4-2.1,7.2-2.1,7.2l-0.5-0.1
	c0.1-1.5-1.1-1.3-1.8-1.4c-0.7,0-2.3-0.1-2.6,0.1c-0.3-1-1.5,0.3-1.5,1.5c0,0-0.1,0.3-0.4,0.5c-2.1-1.4-4.5-0.9-5.8-0.1
	c-2.7-1.6-5.4-0.8-7,0.1c-3.2-1.5-6.3-1-7.7-0.3c-2.8-1.3-5.9-0.7-7.6,0.2c-3.8-1.7-5.7-0.7-6.6-0.3c-0.4-0.1-0.8-0.3-1.4-0.4
	c0.1-0.5-0.7-2.8-1.3-4.8c-0.6-2-1.7-3.6-1.7-3.6s-0.3,1.1-0.2,1.8c0.8,0.9,2,5.9,2,5.9s-0.5-0.6-1.1-0.6c-0.6,0-2.8,0.5-2.8,0.5
	s0.4-3.2,0.7-4.9c0.3-1.7-0.1-2.2-0.1-2.2s-0.9,1.3-1,1.7c-0.1,0.4-0.6,4.7-0.9,6.2c-1.7-0.5-5.1-0.2-6,0.3c-2.1-0.9-5.7-0.7-7.2,0
	c-2.1-0.9-5.5-0.5-6.1,0.1c-1.8-1.1-5.1-0.5-6-0.1c-1-0.5-3.6-0.6-4.7-0.1c0-2,1-3.2,2.4-4.8c1.4-1.6,1.6-2.4,1.6-2.4
	s-1.1,0.2-1.6,0.6c-0.6,0.4-1.8,1.8-2.5,2.9c-0.7,1.1-1,3.6-1,3.6l-0.3,0.1c0,0-0.1-0.8-0.8-1.2c-0.7-0.3-3-0.2-3.4-0.2
	c-0.4,0.1-0.9,0.6-1,1.5c0,0-0.4-0.2-1.2,0.3c-1.8-1.2-2.8-0.7-5.1,0c-2.3-1.6-5.3-0.5-6.4,0c-1.1-0.4-3.3,0.1-4.2,1.2
	C11.8,126.8,13.5,127.2,13.5,127.2z"/>
</svg>
