<?xml version="1.0" encoding="utf-8"?>
<!-- Generator: Adobe Illustrator 19.0.0, SVG Export Plug-In . SVG Version: 6.00 Build 0)  -->
<svg version="1.1" id="Layer_1" xmlns="http://www.w3.org/2000/svg" xmlns:xlink="http://www.w3.org/1999/xlink" x="0px" y="0px"
	 viewBox="0 0 250 250" style="enable-background:new 0 0 250 250;" xml:space="preserve">
<style type="text/css">
	.st0{fill:none;stroke:#000000;stroke-width:8.2832;stroke-miterlimit:10;}
	.st1{fill:#7F7F7F;stroke:#000000;stroke-width:8.2832;stroke-miterlimit:10;}
	.st2{fill:#7F7F7F;}
	.st3{fill:#FFFFFF;stroke:#000000;stroke-width:8.2832;stroke-miterlimit:10;}
</style>
<g>
	<polygon class="st0" points="82.6,141.3 191,141.3 215.8,128.9 215.8,76.4 189.6,86.8 82.6,86.8 	"/>
	<line class="st0" x1="189.6" y1="83.1" x2="189.6" y2="141.3"/>
	<polygon class="st1" points="215.8,72.3 201.7,58.1 108.8,58.1 83.8,83.1 189.6,83.1 	"/>
	<line class="st0" x1="201.7" y1="58.1" x2="189.6" y2="83.1"/>
	<rect x="91.6" y="112.2" class="st2" width="8.3" height="18.7"/>
	<rect x="110.9" y="112.2" class="st2" width="8.3" height="18.7"/>
	<rect x="130.2" y="112.2" class="st2" width="8.3" height="18.7"/>
	<rect x="149.6" y="112.2" class="st2" width="8.3" height="18.7"/>
	<rect x="168.9" y="112.2" class="st2" width="8.3" height="18.7"/>
	<polygon class="st2" points="209.3,127.8 209.3,100.6 197.5,105.4 197.5,133.7 	"/>
</g>
<g>
	<polygon class="st3" points="34.2,189.7 142.6,189.7 167.5,177.2 167.5,124.8 141.2,135.1 34.2,135.1 	"/>
	<line class="st0" x1="141.2" y1="131.5" x2="141.2" y2="189.7"/>
	<polygon class="st1" points="167.5,120.6 153.3,106.5 60.5,106.5 35.5,131.5 141.2,131.5 	"/>
	<line class="st0" x1="153.3" y1="106.5" x2="141.2" y2="131.5"/>
	<rect x="43.2" y="160.6" class="st2" width="8.3" height="18.7"/>
	<rect x="62.5" y="160.6" class="st2" width="8.3" height="18.7"/>
	<rect x="81.9" y="160.6" class="st2" width="8.3" height="18.7"/>
	<rect x="101.2" y="160.6" class="st2" width="8.3" height="18.7"/>
	<rect x="120.5" y="160.6" class="st2" width="8.3" height="18.7"/>
	<polygon class="st2" points="160.9,176.2 160.9,148.9 149.2,153.8 149.2,182.1 	"/>
</g>
</svg>
