<?xml version="1.0" encoding="utf-8"?>
<!-- Generator: Adobe Illustrator 19.0.0, SVG Export Plug-In . SVG Version: 6.00 Build 0)  -->
<svg version="1.1" id="Layer_1" xmlns="http://www.w3.org/2000/svg" xmlns:xlink="http://www.w3.org/1999/xlink" x="0px" y="0px"
	 viewBox="0 0 250 250" style="enable-background:new 0 0 250 250;" xml:space="preserve">
<path id="XMLID_11_" d="M131.5,108.8c-13.2,0-37.7,0-40.3-18C89.7,80,91.1,62.7,91.1,62l0.2-2.7l1.6-2.2c2.2-3,22.1-29.3,42.7-19.5
	c14.3,6.8,15.3,19.9,16,28.6c0.3,3.3,0.5,6.4,1.3,8.2c3.5,8.1,2.8,17.1-1.8,24C146.8,105.1,139.6,108.8,131.5,108.8z M110,87.4
	c3.6,2.4,17,2.4,21.5,2.4c1.7,0,2.9-0.6,3.6-1.7c0.8-1.2,1.3-3.5,0.2-6c-2-4.7-2.4-9.8-2.8-14.3c-0.7-8.6-1.4-11-5.2-12.8
	c-3.7-1.8-12.2,5.2-17.4,11.4C109.6,71.8,109.3,81.3,110,87.4z"/>
<path id="XMLID_10_" d="M128,216.5c-8.1,0-15.6-0.6-16.1-0.7l-2.7-0.2l-2.2-1.6c-3-2.2-29.3-22.1-19.5-42.7
	c6.8-14.3,19.9-15.3,28.6-16c3.3-0.3,6.4-0.5,8.2-1.3c8.1-3.5,17.1-2.8,24,1.8c6.6,4.3,10.3,11.5,10.3,19.6c0,13.2,0,37.7-18,40.3
	C137,216.3,132.4,216.5,128,216.5z M116.3,197c5.5,0.3,14.9,0.7,21,0c2.4-3.6,2.4-17,2.4-21.5c0-1.7-0.6-2.9-1.7-3.6
	c-1.2-0.8-3.5-1.3-6-0.2c-4.7,2-9.8,2.4-14.3,2.8c-8.6,0.7-11,1.4-12.8,5.2C103.1,183.3,109.9,191.7,116.3,197z"/>
<path id="XMLID_7_" d="M145.3,162c-4,0-8-1-11.6-2.9c-6.9-3.7-11.3-10.5-12-18.6c-1.2-13.1-3.4-37.6,14.3-41.8
	c10.6-2.5,27.9-2.7,28.7-2.7l2.7,0l2.3,1.4c3.2,1.9,31.2,19.4,23.3,40.8c-5.5,14.9-18.4,17.1-27,18.5c-3.2,0.6-6.3,1.1-8.1,2
	C153.9,160.9,149.6,162,145.3,162z M141.2,117.2c-2,3.8-0.8,17.1-0.4,21.6c0.2,1.7,0.8,2.8,2.1,3.5c1.3,0.7,3.6,1,6-0.3
	c4.5-2.5,9.5-3.3,13.9-4.1c8.5-1.4,10.8-2.3,12.3-6.3c1.4-3.9-6.3-11.7-13-16.3C156.6,115.4,147.1,115.9,141.2,117.2z"/>
<path id="XMLID_2_" d="M58.3,216.5c-13.6,0-21.1-4.7-25.2-9.2c-4.6-5.1-6.3-11.9-4.5-17.8c2-6.5,7.3-19.6,13-27.1
	c0.5-0.7,1.1-1.4,1.6-2.2c4.3-5.9,10.2-14.1,19.2-14.7c3.4-0.2,8.4,0.5,13.1,5.5c2.2,2.3,4.4,3.9,7,5.7c5,3.5,10.6,7.5,16.1,16.8
	c3.7,6.2,4,13.5,0.8,20.5c-5,11.1-17.8,19.5-27.2,21.2C67,216.1,62.4,216.5,58.3,216.5z M47.2,194.2c0.9,1.3,6.1,5,21.6,2.1l0,0
	c3.7-0.7,11.1-5.4,13.3-10.4c0.8-1.7,0.4-2.4,0.1-2.9c-3.4-5.8-6.5-8-10.7-11c-2.5-1.8-5.3-3.8-8.3-6.6c-1.5,1.6-3.5,4.3-4.5,5.8
	c-0.7,0.9-1.3,1.8-1.9,2.6C53.2,178.6,49,188.4,47.2,194.2z"/>
<path id="XMLID_13_" d="M174.5,216.5c-7.3,0-13.5-2-18.6-6c-11.8-9.2-22.9-34-18.7-48.7c3.4-11.8,15.2-16.2,25.1-15.3
	c4-0.1,8.8-0.8,13.6-1.5c12.5-1.9,25.4-3.8,33.4,4.3c6,6,9.3,14.9,8.5,23.1c-0.7,7.1-4.2,13-9.9,16.8c-1.1,0.7-1.6,4.2-2,6.8
	c-0.8,5.1-2,12.9-9.7,15.9C188.1,215,180.9,216.5,174.5,216.5z M160.4,165.5c-1.3,0-4.4,0.2-4.8,1.6c-1.5,5.2,4.5,22.4,12.1,28.4
	c2.1,1.6,7.2,3.6,18.9-0.4c0.1-0.6,0.2-1.3,0.3-1.8c0.8-5.4,2.2-14.4,10.3-19.8c0.6-0.4,1.3-1.1,1.5-2.8c0.3-2.6-0.9-5.7-3-7.7
	c-2.1-1.1-11.5,0.3-17.1,1.1c-5.6,0.8-11.4,1.7-16.8,1.7l-1,0C160.7,165.5,160.6,165.5,160.4,165.5z"/>
<path id="XMLID_14_" d="M97.8,167.7c-1.1,0-2.3-0.1-3.5-0.5c-17.7-4.7-28.3-13-31.7-24.7c-4.1-14.3,1.3-41,13.4-50.4
	c9.7-7.6,21.8-4.2,29.3,2.3c3.2,2.3,7.6,4.6,11.9,6.8c11.2,5.8,22.8,11.8,24.6,23.1c1.3,8.4-1.2,17.5-6.7,23.7
	c-4.7,5.3-11,8.1-17.9,7.8c0,0,0,0,0,0c-1.3,0-3.8,2.5-5.6,4.3C108.4,163.2,104,167.7,97.8,167.7z M88.6,106.9
	c-0.3,0-0.6,0.1-0.8,0.2c-4.3,3.4-9.5,20.8-6.8,30.1c0.7,2.5,3.7,7.1,15.6,10.8c0.5-0.4,0.9-0.9,1.3-1.3c3.8-3.9,10.3-10.4,20-10
	c0.7,0,1.7-0.1,2.9-1.4c1.7-1.9,2.6-5.2,2.1-8c-1.1-2.2-9.5-6.5-14.5-9.1c-5-2.6-10.2-5.3-14.6-8.5L93,109
	C92.5,108.6,90.2,106.9,88.6,106.9z"/>
</svg>
