<?xml version="1.0" encoding="utf-8"?>
<!-- Generator: Adobe Illustrator 19.0.0, SVG Export Plug-In . SVG Version: 6.00 Build 0)  -->
<svg version="1.1" id="Layer_1" xmlns="http://www.w3.org/2000/svg" xmlns:xlink="http://www.w3.org/1999/xlink" x="0px" y="0px"
	 viewBox="0 0 250 250" style="enable-background:new 0 0 250 250;" xml:space="preserve">
<style type="text/css">
	.st0{fill-rule:evenodd;clip-rule:evenodd;}
	.st1{fill-rule:evenodd;clip-rule:evenodd;fill:#FFFFFF;}
	.st2{fill:none;stroke:#000000;stroke-width:3;stroke-miterlimit:10;}
	.st3{fill:none;stroke:#000000;stroke-width:2.6742;stroke-miterlimit:10;}
	.st4{fill:none;stroke:#000000;stroke-width:2.494;stroke-miterlimit:10;}
</style>
<g>
	<polyline class="st0" points="150.4,108.4 150.7,108.4 150.7,98.1 155.4,98.1 155.4,108.7 155.7,108.7 156,108.7 156.2,108.7 
		156.5,108.7 156.8,108.7 157.1,108.8 157.4,108.8 157.7,108.8 158,108.9 158.3,108.9 158.6,108.9 158.9,108.9 159.1,108.9 
		159.5,108.9 159.7,108.9 160.1,108.9 160.4,108.9 160.6,108.9 161,109 161.2,109 161.6,109 161.8,109 162.1,109 162.5,109 
		162.7,109 163.1,109 163.3,109 163.7,109.1 164,109.1 164.2,109.1 164.6,109.1 164.9,109.1 164.2,108.5 164.7,108.1 165.9,109.1 
		166,109.1 166.1,109.1 166.2,109.1 167.3,108.1 167.8,108.5 167.2,109 167.6,109 167.9,109 168.2,109 168.6,109 168.9,109 
		169.3,109 169.7,108.9 170,108.9 170.3,108.9 170.7,108.9 171.1,108.9 171.4,108.9 171.8,108.9 172.1,108.9 172.4,108.8 
		172.8,108.8 173.2,108.8 173.5,108.8 173.9,108.7 174.3,108.7 174.6,108.7 174.9,108.7 175.3,108.7 175.7,108.6 176,108.6 
		176.4,108.5 176.8,108.5 177.1,108.5 177.5,108.4 177.9,108.4 178.2,108.4 178.6,108.4 178.6,108.1 183.3,108.1 183.3,108.7 
		183.5,108.7 183.9,108.7 184.1,108.7 184.4,108.7 184.7,108.7 185,108.8 185.3,108.8 185.5,108.8 185.9,108.9 186.1,108.9 
		186.5,108.9 186.7,108.9 187,108.9 187.3,108.9 187.6,108.9 188,108.9 188.2,108.9 188.5,108.9 188.8,109 189.1,109 189.4,109 
		189.7,109 190.1,109 190.3,109 190.6,109 190.9,109 191.2,109 191.6,109.1 191.8,109.1 192.1,109.1 192.5,109.1 192.7,109.1 
		192.1,108.5 192.6,108.1 193.8,109.1 193.9,109.1 194,109.1 195.1,108.1 195.7,108.5 195.1,109 195.4,109 195.8,109 196.2,109 
		196.5,109 196.8,109 197.2,109 197.5,108.9 197.9,108.9 198.2,108.9 198.6,108.9 198.9,108.9 199.2,108.9 199.7,108.9 200,108.9 
		200.3,108.8 200.7,108.8 201.1,108.8 201.4,108.8 201.7,108.7 202.1,108.7 202.5,108.7 202.8,108.7 203.2,108.7 203.6,108.6 
		203.9,108.6 204.3,108.5 204.7,108.5 205,108.5 205.3,108.4 205.8,108.4 206.1,108.4 206.4,108.4 206.4,108.1 211.1,108.1 
		211.1,108.7 211.4,108.7 211.7,108.7 212,108.7 212.3,108.7 212.5,108.7 212.9,108.8 213.1,108.8 213.4,108.8 213.7,108.9 
		214,108.9 214.3,108.9 214.6,108.9 214.9,108.9 215.2,108.9 215.5,108.9 215.8,108.9 216.1,108.9 216.4,108.9 216.7,109 217,109 
		217.3,109 217.6,109 217.9,109 218.2,109 218.5,109 218.8,109 219.1,109 219.4,109.1 219.7,109.1 220,109.1 220.3,109.1 
		220.6,109.1 220,108.5 220.5,108.1 221.6,109.1 221.7,109.1 221.8,109.1 221.9,109.1 223.1,108.1 223.6,108.5 223,109 223.3,109 
		223.6,109 223.9,109 224.2,109 224.5,109 224.8,109 225.1,108.9 225.5,108.9 225.7,108.9 226.1,108.9 226.4,108.9 226.7,108.9 
		227.1,108.9 227.3,108.9 227.7,108.9 228,108.9 228.3,108.8 228.7,108.8 228.9,108.8 229.2,108.8 229.6,108.7 229.9,108.7 
		230.2,108.7 230.6,108.7 230.8,108.7 231.2,108.7 231.5,108.6 231.8,108.6 232.2,108.5 232.5,108.5 232.8,108.5 233.2,108.4 
		233.2,108.1 237.8,108.1 237.8,108.2 237.8,108.5 237.8,108.8 237.8,109.2 237.8,109.6 237.8,110.1 237.8,110.6 237.8,111.2 
		237.8,111.9 237.8,112.6 237.8,113.4 237.8,114.2 237.8,115 237.8,115.9 237.8,116.9 237.8,118 237.8,119 237.8,120.2 237.8,121.3 
		237.8,122.5 237.8,123.7 237.8,125.1 237.8,126.4 237.8,127.8 237.8,129.2 237.8,130.7 237.8,132.1 237.8,133.7 237.8,135.3 
		237.8,136.9 237.8,138.5 237.8,140.2 233.2,140.2 233.2,128.4 232.8,128.4 232.4,128.5 232.1,128.5 231.7,128.5 231.4,128.5 
		231.1,128.6 230.7,128.6 230.4,128.6 230.1,128.6 229.7,128.6 229.4,128.6 229.1,128.7 228.7,128.7 228.4,128.7 228.1,128.7 
		227.7,128.8 227.5,128.8 227.1,128.8 226.8,128.8 226.5,128.8 226.1,128.8 225.8,128.8 225.6,128.8 225.2,128.8 224.9,128.8 
		224.6,128.8 224.3,128.9 224,128.9 223.6,128.9 223.3,128.9 223.1,128.9 222.7,128.9 223.6,129.6 223.1,130.1 221.8,129.1 
		220.5,130.1 220,129.6 220.8,129 220.5,129 220.1,129 219.8,129 219.5,129 219.2,129 218.9,129 218.5,129 218.2,129 217.9,129 
		217.6,129 217.3,129 217,128.9 216.7,128.9 216.4,128.9 216,128.9 215.8,128.9 215.5,128.9 215.2,128.9 214.9,128.9 214.5,128.8 
		214.3,128.8 213.9,128.8 213.7,128.8 213.4,128.8 213.1,128.8 212.8,128.8 212.5,128.8 212.3,128.8 211.9,128.7 211.7,128.7 
		211.4,128.7 211.1,128.6 211.1,140.2 206.4,140.2 206.4,128.4 206.1,128.4 205.7,128.4 205.3,128.4 204.9,128.4 204.5,128.5 
		204.2,128.5 203.8,128.5 203.4,128.6 203,128.6 202.7,128.6 202.3,128.6 201.9,128.6 201.6,128.6 201.2,128.7 200.8,128.7 
		200.5,128.7 200.1,128.7 199.7,128.8 199.4,128.8 199,128.8 198.7,128.8 198.3,128.8 198,128.8 197.6,128.8 197.2,128.8 
		196.9,128.8 196.6,128.8 196.2,128.9 195.9,128.9 195.6,128.9 195.2,128.9 194.9,128.9 195.7,129.6 195.1,130.1 193.9,129.1 
		192.6,130.1 192.1,129.6 192.9,129 192.6,129 192.3,129 192,129 191.6,129 191.3,129 191,129 190.6,129 190.4,129 190.1,129 
		189.7,129 189.4,129 189.1,128.9 188.8,128.9 188.5,128.9 188.2,128.9 187.9,128.9 187.6,128.9 187.3,128.9 187,128.9 186.7,128.8 
		186.4,128.8 186.1,128.8 185.8,128.8 185.5,128.8 185.2,128.8 185,128.8 184.6,128.8 184.4,128.8 184.1,128.7 183.8,128.7 
		183.5,128.7 183.3,128.6 183.3,140.2 178.6,140.2 178.6,128.4 178.2,128.4 177.9,128.4 177.4,128.4 177,128.4 176.7,128.5 
		176.3,128.5 175.9,128.5 175.5,128.6 175.2,128.6 174.8,128.6 174.4,128.6 174,128.6 173.7,128.6 173.3,128.7 172.9,128.7 
		172.6,128.7 172.3,128.7 171.8,128.8 171.5,128.8 171.2,128.8 170.8,128.8 170.4,128.8 170.1,128.8 169.7,128.8 169.4,128.8 
		169.1,128.8 168.7,128.8 168.3,128.9 168,128.9 167.7,128.9 167.3,128.9 167,128.9 167.8,129.6 167.3,130.1 166.1,129.1 
		164.7,130.1 164.2,129.6 165.1,129 164.7,129 164.4,129 164.1,129 163.7,129 163.4,129 163.1,129 162.8,129 162.5,129 162.1,129 
		161.9,129 161.6,129 161.2,128.9 161,128.9 160.6,128.9 160.3,128.9 160.1,128.9 159.7,128.9 159.4,128.9 159.1,128.9 158.8,128.8 
		158.6,128.8 158.2,128.8 158,128.8 157.6,128.8 157.4,128.8 157,128.8 156.8,128.8 156.5,128.8 156.2,128.7 156,128.7 155.6,128.7 
		155.4,128.6 155.4,140.2 150.7,140.2 150.7,128.4 150.4,128.4 	"/>
	<polyline class="st0" points="99.9,128.7 99.6,128.6 99.6,140.2 95,140.2 95,128.4 94.6,128.4 94.2,128.4 93.8,128.4 93.5,128.4 
		93,128.5 92.7,128.5 92.3,128.5 92,128.6 91.5,128.6 91.2,128.6 90.8,128.6 90.5,128.6 90,128.6 89.7,128.7 89.4,128.7 89,128.7 
		88.6,128.7 88.3,128.8 87.9,128.8 87.5,128.8 87.2,128.8 86.9,128.8 86.4,128.8 86.1,128.8 85.8,128.8 85.4,128.8 85.1,128.8 
		84.8,128.9 84.4,128.9 84,128.9 83.7,128.9 83.4,128.9 84.2,129.6 83.7,130.1 82.4,129.1 81.2,130.1 80.6,129.6 81.4,129 81.1,129 
		80.8,129 80.4,129 80.2,129 79.8,129 79.5,129 79.2,129 78.8,129 78.6,129 78.3,129 77.9,129 77.7,128.9 77.3,128.9 77,128.9 
		76.8,128.9 76.4,128.9 76.1,128.9 75.8,128.9 75.5,128.9 75.3,128.8 74.9,128.8 74.7,128.8 74.3,128.8 74.1,128.8 73.7,128.8 
		73.5,128.8 73.2,128.8 72.9,128.8 72.6,128.7 72.3,128.7 72.1,128.7 71.7,128.6 71.7,140.2 67.1,140.2 67.1,128.4 66.7,128.4 
		66.3,128.4 66,128.4 65.6,128.4 65.2,128.5 64.8,128.5 64.5,128.5 64.1,128.6 63.7,128.6 63.3,128.6 63,128.6 62.6,128.6 
		62.2,128.6 61.8,128.7 61.5,128.7 61.1,128.7 60.7,128.7 60.4,128.8 60,128.8 59.7,128.8 59.3,128.8 59,128.8 58.6,128.8 
		58.3,128.8 57.9,128.8 57.5,128.8 57.2,128.8 56.9,128.9 56.5,128.9 56.2,128.9 55.9,128.9 55.5,128.9 56.4,129.6 55.9,130.1 
		54.5,129.1 53.3,130.1 52.8,129.6 53.6,129 53.3,129 52.9,129 52.6,129 52.3,129 51.9,129 51.6,129 51.4,129 51,129 50.7,129 
		50.4,129 50.1,129 49.8,128.9 49.4,128.9 49.2,128.9 48.8,128.9 48.5,128.9 48.3,128.9 47.9,128.9 47.7,128.9 47.3,128.8 
		47.1,128.8 46.8,128.8 46.5,128.8 46.2,128.8 45.9,128.8 45.6,128.8 45.3,128.8 45,128.8 44.8,128.7 44.5,128.7 44.2,128.7 
		43.9,128.6 43.9,140.2 39.2,140.2 39.2,128.4 38.8,128.4 38.5,128.4 38.1,128.4 37.7,128.4 37.3,128.5 37,128.5 36.6,128.5 
		36.1,128.6 35.8,128.6 35.5,128.6 35.1,128.6 34.7,128.6 34.3,128.6 34,128.7 33.6,128.7 33.2,128.7 32.9,128.7 32.6,128.8 
		32.1,128.8 31.8,128.8 31.5,128.8 31.1,128.8 30.7,128.8 30.4,128.8 30,128.8 29.7,128.8 29.4,128.8 29,128.9 28.6,128.9 
		28.3,128.9 28,128.9 27.6,128.9 28.5,129.6 28,130.1 26.7,129.1 25.5,130.1 24.9,129.6 25.7,129 25.4,129 25,129 24.7,129 
		24.4,129 24.1,129 23.8,129 23.4,129 23.1,129 22.9,129 22.5,129 22.2,129 21.9,128.9 21.6,128.9 21.3,128.9 20.9,128.9 
		20.7,128.9 20.4,128.9 20.1,128.9 19.8,128.9 19.5,128.8 19.2,128.8 18.9,128.8 18.6,128.8 18.3,128.8 18,128.8 17.8,128.8 
		17.4,128.8 17.2,128.8 16.8,128.7 16.6,128.7 16.3,128.7 16,128.6 16,140.2 11.3,140.2 11.3,119.2 11.3,118.3 11.3,108.1 16,108.1 
		16,108.7 16.3,108.7 16.6,108.7 16.9,108.7 17.2,108.7 17.5,108.7 17.8,108.8 18.1,108.8 18.4,108.8 18.7,108.9 18.9,108.9 
		19.3,108.9 19.5,108.9 19.9,108.9 20.1,108.9 20.4,108.9 20.7,108.9 21,108.9 21.3,108.9 21.6,109 21.9,109 22.2,109 22.5,109 
		22.8,109 23.1,109 23.4,109 23.7,109 24,109 24.3,109.1 24.6,109.1 25,109.1 25.2,109.1 25.5,109.1 24.9,108.5 25.5,108.1 
		26.6,109.1 26.7,109.1 26.8,109.1 28,108.1 28.5,108.5 27.9,109 28.2,109 28.5,109 28.9,109 29.3,109 29.6,109 30,109 30.3,108.9 
		30.6,108.9 31,108.9 31.4,108.9 31.7,108.9 32.1,108.9 32.4,108.9 32.7,108.9 33.1,108.8 33.5,108.8 33.8,108.8 34.1,108.8 
		34.6,108.7 34.9,108.7 35.2,108.7 35.6,108.7 36,108.7 36.3,108.6 36.7,108.6 37.1,108.5 37.4,108.5 37.8,108.5 38.2,108.4 
		38.5,108.4 38.9,108.4 39.2,108.4 39.2,108.1 43.9,108.1 43.9,108.7 44.2,108.7 44.5,108.7 44.8,108.7 45.1,108.7 45.3,108.7 
		45.7,108.8 45.9,108.8 46.3,108.8 46.5,108.9 46.8,108.9 47.1,108.9 47.4,108.9 47.7,108.9 48,108.9 48.3,108.9 48.6,108.9 
		48.8,108.9 49.2,108.9 49.4,109 49.8,109 50.1,109 50.4,109 50.7,109 50.9,109 51.3,109 51.6,109 51.9,109 52.2,109.1 52.5,109.1 
		52.8,109.1 53.1,109.1 53.4,109.1 52.8,108.5 53.3,108.1 54.4,109.1 54.5,109.1 54.6,109.1 54.7,109.1 55.9,108.1 56.4,108.5 
		55.8,109 56.1,109 56.5,109 56.8,109 57.1,109 57.5,109 57.8,109 58.2,108.9 58.5,108.9 58.9,108.9 59.2,108.9 59.5,108.9 
		60,108.9 60.3,108.9 60.6,108.9 61,108.8 61.4,108.8 61.7,108.8 62.1,108.8 62.4,108.7 62.8,108.7 63.1,108.7 63.5,108.7 
		63.8,108.7 64.2,108.6 64.6,108.6 64.9,108.5 65.3,108.5 65.6,108.5 66,108.4 66.4,108.4 66.7,108.4 67.1,108.4 67.1,108.1 
		71.7,108.1 71.7,108.7 72.1,108.7 72.3,108.7 72.7,108.7 72.9,108.7 73.2,108.7 73.5,108.8 73.8,108.8 74.1,108.8 74.4,108.9 
		74.7,108.9 75,108.9 75.3,108.9 75.6,108.9 75.8,108.9 76.2,108.9 76.4,108.9 76.8,108.9 77,108.9 77.3,109 77.7,109 77.9,109 
		78.3,109 78.5,109 78.8,109 79.2,109 79.4,109 79.8,109 80,109.1 80.3,109.1 80.7,109.1 80.9,109.1 81.3,109.1 80.6,108.5 
		81.2,108.1 82.4,109.1 82.4,109.1 82.5,109.1 83.7,108.1 84.2,108.5 83.6,109 83.9,109 84.3,109 84.6,109 85,109 85.4,109 
		85.7,109 86,108.9 86.4,108.9 86.8,108.9 87.1,108.9 87.4,108.9 87.8,108.9 88.1,108.9 88.5,108.9 88.9,108.8 89.2,108.8 
		89.5,108.8 90,108.8 90.3,108.7 90.6,108.7 91,108.7 91.4,108.7 91.7,108.7 92,108.6 92.5,108.6 92.8,108.5 93.1,108.5 93.5,108.5 
		93.9,108.4 94.2,108.4 94.6,108.4 95,108.4 95,98.1 99.6,98.1 99.6,108.7 99.9,108.7 	"/>
	<polygon class="st1" points="233.2,118.6 233.2,118.3 233.2,109.4 232.8,109.4 232.4,109.4 232.1,109.5 231.7,109.5 231.4,109.5 
		231.1,109.6 230.7,109.6 230.4,109.6 230.1,109.6 229.7,109.6 229.4,109.6 229.1,109.6 228.7,109.7 228.4,109.7 228.1,109.7 
		227.7,109.7 227.5,109.8 227.1,109.8 226.8,109.8 226.5,109.8 226.1,109.8 225.8,109.8 225.6,109.8 225.2,109.8 224.9,109.8 
		224.6,109.8 224.3,109.9 224,109.9 223.6,109.9 223.3,109.9 223.1,109.9 222.7,109.9 223.6,110.6 223.1,111.1 221.8,110 
		220.5,111.1 220,110.6 220.8,110 220.5,110 220.1,110 219.8,110 219.5,110 219.2,110 218.9,110 218.5,110 218.2,110 217.9,110 
		217.6,110 217.3,110 217,109.9 216.7,109.9 216.4,109.9 216,109.9 215.8,109.9 215.5,109.9 215.2,109.9 214.9,109.9 214.5,109.8 
		214.3,109.8 213.9,109.8 213.7,109.8 213.4,109.8 213.1,109.8 212.8,109.8 212.5,109.8 212.3,109.8 211.9,109.7 211.7,109.7 
		211.4,109.7 211.1,109.6 211.1,118.8 211.4,118.8 211.7,118.8 212,118.8 212.3,118.9 212.5,118.9 212.9,118.9 213.1,119 213.4,119 
		213.7,119 214,119 214.3,119 214.6,119 214.9,119 215.2,119 215.5,119.1 215.8,119.1 216.1,119.1 216.4,119.1 216.7,119.1 
		217,119.1 217.3,119.2 217.6,119.2 217.9,119.2 218.2,119.2 218.5,119.2 218.8,119.2 219.1,119.2 219.4,119.2 219.7,119.2 
		220,119.2 220.3,119.2 220.6,119.2 220,118.7 220.5,118.2 221.6,119.2 221.7,119.2 221.8,119.2 221.9,119.2 223.1,118.2 
		223.6,118.7 223,119.2 223.3,119.2 223.6,119.2 223.9,119.2 224.2,119.2 224.5,119.1 224.8,119.1 225.1,119.1 225.5,119.1 
		225.7,119.1 226.1,119.1 226.4,119 226.7,119 227.1,119 227.3,119 227.7,119 228,119 228.3,119 228.7,119 228.9,119 229.2,118.9 
		229.6,118.9 229.9,118.9 230.2,118.8 230.6,118.8 230.8,118.8 231.2,118.8 231.5,118.8 231.8,118.8 232.2,118.7 232.5,118.7 
		232.8,118.6 	"/>
	<polygon class="st1" points="233.2,119.5 233.2,127.4 232.8,127.5 232.5,127.5 232.2,127.5 231.8,127.6 231.5,127.6 231.2,127.7 
		230.8,127.7 230.6,127.7 230.2,127.7 229.9,127.7 229.6,127.7 229.2,127.8 228.9,127.8 228.7,127.8 228.3,127.8 228,127.9 
		227.7,127.9 227.3,127.9 227.1,127.9 226.7,127.9 226.4,127.9 226.1,127.9 225.7,127.9 225.5,127.9 225.1,128 224.8,128 224.5,128 
		224.2,128 223.9,128 223.6,128 223.3,128 223,128 223.6,127.5 223.1,127.1 221.9,128.1 221.8,128.1 221.7,128.1 221.6,128.1 
		220.5,127.1 220,127.5 220.6,128.1 220.3,128.1 220,128.1 219.7,128.1 219.4,128.1 219.1,128.1 218.8,128 218.5,128 218.2,128 
		217.9,128 217.6,128 217.3,128 217,128 216.7,128 216.4,128 216.1,127.9 215.8,127.9 215.5,127.9 215.2,127.9 214.9,127.9 
		214.6,127.9 214.3,127.9 214,127.9 213.7,127.9 213.4,127.8 213.1,127.8 212.9,127.8 212.5,127.7 212.3,127.7 212,127.7 
		211.7,127.7 211.4,127.7 211.1,127.7 211.1,119.8 211.4,119.8 211.7,119.9 211.9,119.9 212.3,119.9 212.5,119.9 212.8,119.9 
		213.1,119.9 213.4,119.9 213.7,120 213.9,120 214.3,120 214.5,120 214.9,120 215.2,120 215.5,120.1 215.8,120.1 216,120.1 
		216.4,120.1 216.7,120.1 217,120.1 217.3,120.1 217.6,120.1 217.9,120.1 218.2,120.1 218.5,120.1 218.9,120.1 219.2,120.1 
		219.5,120.1 219.8,120.1 220.1,120.1 220.5,120.1 220.8,120.1 220,120.8 220.5,121.2 221.8,120.2 223.1,121.2 223.6,120.8 
		222.7,120.1 223.1,120.1 223.3,120.1 223.6,120.1 224,120 224.3,120 224.6,120 224.9,120 225.2,120 225.6,120 225.8,119.9 
		226.1,119.9 226.5,119.9 226.8,119.9 227.1,119.9 227.5,119.9 227.7,119.9 228.1,119.9 228.4,119.9 228.7,119.8 229.1,119.8 
		229.4,119.8 229.7,119.8 230.1,119.7 230.4,119.7 230.7,119.7 231.1,119.7 231.4,119.7 231.7,119.7 232.1,119.6 232.4,119.6 
		232.8,119.6 	"/>
	<polygon class="st1" points="206.4,118.5 206.4,118.3 206.4,109.4 206.1,109.4 205.7,109.4 205.3,109.4 204.9,109.4 204.5,109.5 
		204.2,109.5 203.8,109.5 203.4,109.6 203,109.6 202.7,109.6 202.3,109.6 201.9,109.6 201.6,109.6 201.2,109.7 200.8,109.7 
		200.5,109.7 200.1,109.7 199.7,109.8 199.4,109.8 199,109.8 198.7,109.8 198.3,109.8 198,109.8 197.6,109.8 197.2,109.8 
		196.9,109.8 196.6,109.8 196.2,109.9 195.9,109.9 195.6,109.9 195.2,109.9 194.9,109.9 195.7,110.6 195.1,111.1 193.9,110 
		192.6,111.1 192.1,110.6 192.9,110 192.6,110 192.3,110 192,110 191.6,110 191.3,110 191,110 190.6,110 190.4,110 190.1,110 
		189.7,110 189.4,110 189.1,109.9 188.8,109.9 188.5,109.9 188.2,109.9 187.9,109.9 187.6,109.9 187.3,109.9 187,109.9 186.7,109.8 
		186.4,109.8 186.1,109.8 185.8,109.8 185.5,109.8 185.2,109.8 185,109.8 184.6,109.8 184.4,109.8 184.1,109.7 183.8,109.7 
		183.5,109.7 183.3,109.6 183.3,118.8 183.5,118.8 183.9,118.8 184.1,118.8 184.4,118.9 184.7,118.9 185,118.9 185.3,119 185.5,119 
		185.9,119 186.1,119 186.5,119 186.7,119 187,119 187.3,119 187.6,119.1 188,119.1 188.2,119.1 188.5,119.1 188.8,119.1 
		189.1,119.1 189.4,119.2 189.7,119.2 190.1,119.2 190.3,119.2 190.6,119.2 190.9,119.2 191.2,119.2 191.6,119.2 191.8,119.2 
		192.1,119.2 192.5,119.2 192.7,119.2 192.1,118.7 192.6,118.2 193.8,119.2 193.9,119.2 194,119.2 195.1,118.2 195.7,118.7 
		195.1,119.2 195.4,119.2 195.8,119.2 196.2,119.2 196.5,119.2 196.8,119.1 197.2,119.1 197.5,119.1 197.9,119.1 198.2,119.1 
		198.6,119 198.9,119 199.2,119 199.7,119 200,119 200.3,119 200.7,119 201.1,119 201.4,118.9 201.7,118.9 202.1,118.9 202.5,118.8 
		202.8,118.8 203.2,118.8 203.6,118.8 203.9,118.8 204.3,118.7 204.7,118.7 205,118.6 205.3,118.6 205.8,118.5 206.1,118.5 	"/>
	<polygon class="st1" points="206.4,119.5 206.4,127.4 206.1,127.4 205.8,127.4 205.3,127.4 205,127.5 204.7,127.5 204.3,127.6 
		203.9,127.6 203.6,127.6 203.2,127.7 202.8,127.7 202.5,127.7 202.1,127.7 201.7,127.7 201.4,127.8 201.1,127.8 200.7,127.8 
		200.3,127.8 200,127.9 199.7,127.9 199.2,127.9 198.9,127.9 198.6,127.9 198.2,127.9 197.9,127.9 197.5,127.9 197.2,128 196.8,128 
		196.5,128 196.2,128 195.8,128 195.4,128 195.1,128 195.7,127.5 195.1,127.1 194,128.1 193.9,128.1 193.8,128.1 192.6,127.1 
		192.1,127.5 192.7,128.1 192.5,128.1 192.1,128.1 191.8,128.1 191.6,128.1 191.2,128.1 190.9,128 190.6,128 190.3,128 190.1,128 
		189.7,128 189.4,128 189.1,128 188.8,128 188.5,128 188.2,127.9 188,127.9 187.6,127.9 187.3,127.9 187,127.9 186.7,127.9 
		186.5,127.9 186.1,127.9 185.9,127.9 185.5,127.8 185.3,127.8 185,127.8 184.7,127.7 184.4,127.7 184.1,127.7 183.9,127.7 
		183.5,127.7 183.3,127.7 183.3,119.8 183.5,119.8 183.8,119.9 184.1,119.9 184.4,119.9 184.6,119.9 185,119.9 185.2,119.9 
		185.5,119.9 185.8,120 186.1,120 186.4,120 186.7,120 187,120 187.3,120 187.6,120.1 187.9,120.1 188.2,120.1 188.5,120.1 
		188.8,120.1 189.1,120.1 189.4,120.1 189.7,120.1 190.1,120.1 190.4,120.1 190.6,120.1 191,120.1 191.3,120.1 191.6,120.1 
		192,120.1 192.3,120.1 192.6,120.1 192.9,120.1 192.1,120.8 192.6,121.2 193.9,120.2 195.1,121.2 195.7,120.8 194.9,120.1 
		195.2,120.1 195.6,120.1 195.9,120 196.2,120 196.6,120 196.9,120 197.2,120 197.6,120 198,119.9 198.3,119.9 198.7,119.9 
		199,119.9 199.4,119.9 199.7,119.9 200.1,119.9 200.5,119.9 200.8,119.8 201.2,119.8 201.6,119.8 201.9,119.8 202.3,119.7 
		202.7,119.7 203,119.7 203.4,119.7 203.8,119.7 204.2,119.7 204.5,119.6 204.9,119.6 205.3,119.5 205.7,119.5 206.1,119.5 	"/>
	<polygon class="st1" points="178.6,118.5 178.6,118.3 178.6,109.4 178.2,109.4 177.9,109.4 177.4,109.4 177,109.4 176.7,109.5 
		176.3,109.5 175.9,109.5 175.5,109.6 175.2,109.6 174.8,109.6 174.4,109.6 174,109.6 173.7,109.6 173.3,109.7 172.9,109.7 
		172.6,109.7 172.3,109.7 171.8,109.8 171.5,109.8 171.2,109.8 170.8,109.8 170.4,109.8 170.1,109.8 169.7,109.8 169.4,109.8 
		169.1,109.8 168.7,109.8 168.3,109.9 168,109.9 167.7,109.9 167.3,109.9 167,109.9 167.8,110.6 167.3,111.1 166.1,110 164.7,111.1 
		164.2,110.6 165.1,110 164.7,110 164.4,110 164.1,110 163.7,110 163.4,110 163.1,110 162.8,110 162.5,110 162.1,110 161.9,110 
		161.6,110 161.2,109.9 161,109.9 160.6,109.9 160.3,109.9 160.1,109.9 159.7,109.9 159.4,109.9 159.1,109.9 158.8,109.8 
		158.6,109.8 158.2,109.8 158,109.8 157.6,109.8 157.4,109.8 157,109.8 156.8,109.8 156.5,109.8 156.2,109.7 156,109.7 155.6,109.7 
		155.4,109.6 155.4,118.8 155.7,118.8 156,118.8 156.2,118.8 156.5,118.9 156.8,118.9 157.1,118.9 157.4,119 157.7,119 158,119 
		158.3,119 158.6,119 158.9,119 159.1,119 159.5,119 159.7,119.1 160.1,119.1 160.4,119.1 160.6,119.1 161,119.1 161.2,119.1 
		161.6,119.2 161.8,119.2 162.1,119.2 162.5,119.2 162.7,119.2 163.1,119.2 163.3,119.2 163.7,119.2 164,119.2 164.2,119.2 
		164.6,119.2 164.9,119.2 164.2,118.7 164.7,118.2 165.9,119.2 166,119.2 166.1,119.2 166.2,119.2 167.3,118.2 167.8,118.7 
		167.2,119.2 167.6,119.2 167.9,119.2 168.2,119.2 168.6,119.2 168.9,119.1 169.3,119.1 169.7,119.1 170,119.1 170.3,119.1 
		170.7,119 171.1,119 171.4,119 171.8,119 172.1,119 172.4,119 172.8,119 173.2,119 173.5,118.9 173.9,118.9 174.3,118.9 
		174.6,118.8 174.9,118.8 175.3,118.8 175.7,118.8 176,118.8 176.4,118.7 176.8,118.7 177.1,118.6 177.5,118.6 177.9,118.5 
		178.2,118.5 	"/>
	<polygon class="st1" points="178.6,119.5 178.6,127.4 178.2,127.4 177.9,127.4 177.5,127.4 177.1,127.5 176.8,127.5 176.4,127.6 
		176,127.6 175.7,127.6 175.3,127.7 174.9,127.7 174.6,127.7 174.3,127.7 173.9,127.7 173.5,127.8 173.2,127.8 172.8,127.8 
		172.4,127.8 172.1,127.9 171.8,127.9 171.4,127.9 171.1,127.9 170.7,127.9 170.3,127.9 170,127.9 169.7,127.9 169.3,128 168.9,128 
		168.6,128 168.2,128 167.9,128 167.6,128 167.2,128 167.8,127.5 167.3,127.1 166.2,128.1 166.1,128.1 166,128.1 165.9,128.1 
		164.7,127.1 164.2,127.5 164.9,128.1 164.6,128.1 164.2,128.1 164,128.1 163.7,128.1 163.3,128.1 163.1,128 162.7,128 162.5,128 
		162.1,128 161.8,128 161.6,128 161.2,128 161,128 160.6,128 160.4,127.9 160.1,127.9 159.7,127.9 159.5,127.9 159.1,127.9 
		158.9,127.9 158.6,127.9 158.3,127.9 158,127.9 157.7,127.8 157.4,127.8 157.1,127.8 156.8,127.7 156.5,127.7 156.2,127.7 
		156,127.7 155.7,127.7 155.4,127.7 155.4,119.8 155.6,119.8 156,119.9 156.2,119.9 156.5,119.9 156.8,119.9 157,119.9 157.4,119.9 
		157.6,119.9 158,120 158.2,120 158.6,120 158.8,120 159.1,120 159.4,120 159.7,120.1 160.1,120.1 160.3,120.1 160.6,120.1 
		161,120.1 161.2,120.1 161.6,120.1 161.9,120.1 162.1,120.1 162.5,120.1 162.8,120.1 163.1,120.1 163.4,120.1 163.7,120.1 
		164.1,120.1 164.4,120.1 164.7,120.1 165.1,120.1 164.2,120.8 164.7,121.2 166.1,120.2 167.3,121.2 167.8,120.8 167,120.1 
		167.3,120.1 167.7,120.1 168,120 168.3,120 168.7,120 169.1,120 169.4,120 169.7,120 170.1,119.9 170.4,119.9 170.8,119.9 
		171.2,119.9 171.5,119.9 171.8,119.9 172.3,119.9 172.6,119.9 172.9,119.8 173.3,119.8 173.7,119.8 174,119.8 174.4,119.7 
		174.8,119.7 175.2,119.7 175.5,119.7 175.9,119.7 176.3,119.7 176.7,119.6 177,119.6 177.4,119.5 177.9,119.5 178.2,119.5 	"/>
	<polyline class="st1" points="150.4,118.5 150.7,118.5 150.7,118.3 150.7,109.4 150.4,109.4 	"/>
	<polyline class="st1" points="150.4,119.5 150.7,119.5 150.7,127.4 150.4,127.4 	"/>
	<polyline class="st1" points="99.9,109.7 99.6,109.6 99.6,118.8 99.9,118.8 	"/>
	<polyline class="st1" points="99.9,127.7 99.6,127.7 99.6,119.8 99.9,119.8 	"/>
	<polygon class="st1" points="95,118.5 95,118.3 95,109.4 94.6,109.4 94.2,109.4 93.8,109.4 93.5,109.4 93,109.5 92.7,109.5 
		92.3,109.5 92,109.6 91.5,109.6 91.2,109.6 90.8,109.6 90.5,109.6 90,109.6 89.7,109.7 89.4,109.7 89,109.7 88.6,109.7 88.3,109.8 
		87.9,109.8 87.5,109.8 87.2,109.8 86.9,109.8 86.4,109.8 86.1,109.8 85.8,109.8 85.4,109.8 85.1,109.8 84.8,109.9 84.4,109.9 
		84,109.9 83.7,109.9 83.4,109.9 84.2,110.6 83.7,111.1 82.4,110 81.2,111.1 80.6,110.6 81.4,110 81.1,110 80.8,110 80.4,110 
		80.2,110 79.8,110 79.5,110 79.2,110 78.8,110 78.6,110 78.3,110 77.9,110 77.7,109.9 77.3,109.9 77,109.9 76.8,109.9 76.4,109.9 
		76.1,109.9 75.8,109.9 75.5,109.9 75.3,109.8 74.9,109.8 74.7,109.8 74.3,109.8 74.1,109.8 73.7,109.8 73.5,109.8 73.2,109.8 
		72.9,109.8 72.6,109.7 72.3,109.7 72.1,109.7 71.7,109.6 71.7,118.8 72.1,118.8 72.3,118.8 72.7,118.8 72.9,118.9 73.2,118.9 
		73.5,118.9 73.8,119 74.1,119 74.4,119 74.7,119 75,119 75.3,119 75.6,119 75.8,119 76.2,119.1 76.4,119.1 76.8,119.1 77,119.1 
		77.3,119.1 77.7,119.1 77.9,119.2 78.3,119.2 78.5,119.2 78.8,119.2 79.2,119.2 79.4,119.2 79.8,119.2 80,119.2 80.3,119.2 
		80.7,119.2 80.9,119.2 81.3,119.2 80.6,118.7 81.2,118.2 82.4,119.2 82.4,119.2 82.5,119.2 83.7,118.2 84.2,118.7 83.6,119.2 
		83.9,119.2 84.3,119.2 84.6,119.2 85,119.2 85.4,119.1 85.7,119.1 86,119.1 86.4,119.1 86.8,119.1 87.1,119 87.4,119 87.8,119 
		88.1,119 88.5,119 88.9,119 89.2,119 89.5,119 90,118.9 90.3,118.9 90.6,118.9 91,118.8 91.4,118.8 91.7,118.8 92,118.8 
		92.5,118.8 92.8,118.7 93.1,118.7 93.5,118.6 93.9,118.6 94.2,118.5 94.6,118.5 	"/>
	<polygon class="st1" points="95,119.5 95,127.4 94.6,127.4 94.2,127.4 93.9,127.4 93.5,127.5 93.1,127.5 92.8,127.6 92.5,127.6 
		92,127.6 91.7,127.7 91.4,127.7 91,127.7 90.6,127.7 90.3,127.7 90,127.8 89.5,127.8 89.2,127.8 88.9,127.8 88.5,127.9 88.1,127.9 
		87.8,127.9 87.4,127.9 87.1,127.9 86.8,127.9 86.4,127.9 86,127.9 85.7,128 85.4,128 85,128 84.6,128 84.3,128 83.9,128 83.6,128 
		84.2,127.5 83.7,127.1 82.5,128.1 82.4,128.1 82.4,128.1 81.2,127.1 80.6,127.5 81.3,128.1 80.9,128.1 80.7,128.1 80.3,128.1 
		80,128.1 79.8,128.1 79.4,128 79.2,128 78.8,128 78.5,128 78.3,128 77.9,128 77.7,128 77.3,128 77,128 76.8,127.9 76.4,127.9 
		76.2,127.9 75.8,127.9 75.6,127.9 75.3,127.9 75,127.9 74.7,127.9 74.4,127.9 74.1,127.8 73.8,127.8 73.5,127.8 73.2,127.7 
		72.9,127.7 72.7,127.7 72.3,127.7 72.1,127.7 71.7,127.7 71.7,119.8 72.1,119.8 72.3,119.9 72.6,119.9 72.9,119.9 73.2,119.9 
		73.5,119.9 73.7,119.9 74.1,119.9 74.3,120 74.7,120 74.9,120 75.3,120 75.5,120 75.8,120 76.1,120.1 76.4,120.1 76.8,120.1 
		77,120.1 77.3,120.1 77.7,120.1 77.9,120.1 78.3,120.1 78.6,120.1 78.8,120.1 79.2,120.1 79.5,120.1 79.8,120.1 80.2,120.1 
		80.4,120.1 80.8,120.1 81.1,120.1 81.4,120.1 80.6,120.8 81.2,121.2 82.4,120.2 83.7,121.2 84.2,120.8 83.4,120.1 83.7,120.1 
		84,120.1 84.4,120 84.8,120 85.1,120 85.4,120 85.8,120 86.1,120 86.4,119.9 86.9,119.9 87.2,119.9 87.5,119.9 87.9,119.9 
		88.3,119.9 88.6,119.9 89,119.9 89.4,119.8 89.7,119.8 90,119.8 90.5,119.8 90.8,119.7 91.2,119.7 91.5,119.7 92,119.7 92.3,119.7 
		92.7,119.7 93,119.6 93.5,119.6 93.8,119.5 94.2,119.5 94.6,119.5 	"/>
	<polygon class="st1" points="67.1,118.5 67.1,118.3 67.1,109.4 66.7,109.4 66.3,109.4 66,109.4 65.6,109.4 65.2,109.5 64.8,109.5 
		64.5,109.5 64.1,109.6 63.7,109.6 63.3,109.6 63,109.6 62.6,109.6 62.2,109.6 61.8,109.7 61.5,109.7 61.1,109.7 60.7,109.7 
		60.4,109.8 60,109.8 59.7,109.8 59.3,109.8 59,109.8 58.6,109.8 58.3,109.8 57.9,109.8 57.5,109.8 57.2,109.8 56.9,109.9 
		56.5,109.9 56.2,109.9 55.9,109.9 55.5,109.9 56.4,110.6 55.9,111.1 54.5,110 53.3,111.1 52.8,110.6 53.6,110 53.3,110 52.9,110 
		52.6,110 52.3,110 51.9,110 51.6,110 51.4,110 51,110 50.7,110 50.4,110 50.1,110 49.8,109.9 49.4,109.9 49.2,109.9 48.8,109.9 
		48.5,109.9 48.3,109.9 47.9,109.9 47.7,109.9 47.3,109.8 47.1,109.8 46.8,109.8 46.5,109.8 46.2,109.8 45.9,109.8 45.6,109.8 
		45.3,109.8 45,109.8 44.8,109.7 44.5,109.7 44.2,109.7 43.9,109.6 43.9,118.8 44.2,118.8 44.5,118.8 44.8,118.8 45.1,118.9 
		45.3,118.9 45.7,118.9 45.9,119 46.3,119 46.5,119 46.8,119 47.1,119 47.4,119 47.7,119 48,119 48.3,119.1 48.6,119.1 48.8,119.1 
		49.2,119.1 49.4,119.1 49.8,119.1 50.1,119.2 50.4,119.2 50.7,119.2 50.9,119.2 51.3,119.2 51.6,119.2 51.9,119.2 52.2,119.2 
		52.5,119.2 52.8,119.2 53.1,119.2 53.4,119.2 52.8,118.7 53.3,118.2 54.4,119.2 54.5,119.2 54.6,119.2 54.7,119.2 55.9,118.2 
		56.4,118.7 55.8,119.2 56.1,119.2 56.5,119.2 56.8,119.2 57.1,119.2 57.5,119.1 57.8,119.1 58.2,119.1 58.5,119.1 58.9,119.1 
		59.2,119 59.5,119 60,119 60.3,119 60.6,119 61,119 61.4,119 61.7,119 62.1,118.9 62.4,118.9 62.8,118.9 63.1,118.8 63.5,118.8 
		63.8,118.8 64.2,118.8 64.6,118.8 64.9,118.7 65.3,118.7 65.6,118.6 66,118.6 66.4,118.5 66.7,118.5 	"/>
	<polygon class="st1" points="67.1,119.5 67.1,127.4 66.7,127.4 66.4,127.4 66,127.4 65.6,127.5 65.3,127.5 64.9,127.6 64.6,127.6 
		64.2,127.6 63.8,127.7 63.5,127.7 63.1,127.7 62.8,127.7 62.4,127.7 62.1,127.8 61.7,127.8 61.4,127.8 61,127.8 60.6,127.9 
		60.3,127.9 60,127.9 59.5,127.9 59.2,127.9 58.9,127.9 58.5,127.9 58.2,127.9 57.8,128 57.5,128 57.1,128 56.8,128 56.5,128 
		56.1,128 55.8,128 56.4,127.5 55.9,127.1 54.7,128.1 54.6,128.1 54.5,128.1 54.4,128.1 53.3,127.1 52.8,127.5 53.4,128.1 
		53.1,128.1 52.8,128.1 52.5,128.1 52.2,128.1 51.9,128.1 51.6,128 51.3,128 50.9,128 50.7,128 50.4,128 50.1,128 49.8,128 
		49.4,128 49.2,128 48.8,127.9 48.6,127.9 48.3,127.9 48,127.9 47.7,127.9 47.4,127.9 47.1,127.9 46.8,127.9 46.5,127.9 46.3,127.8 
		45.9,127.8 45.7,127.8 45.3,127.7 45.1,127.7 44.8,127.7 44.5,127.7 44.2,127.7 43.9,127.7 43.9,119.8 44.2,119.8 44.5,119.9 
		44.8,119.9 45,119.9 45.3,119.9 45.6,119.9 45.9,119.9 46.2,119.9 46.5,120 46.8,120 47.1,120 47.3,120 47.7,120 47.9,120 
		48.3,120.1 48.5,120.1 48.8,120.1 49.2,120.1 49.4,120.1 49.8,120.1 50.1,120.1 50.4,120.1 50.7,120.1 51,120.1 51.4,120.1 
		51.6,120.1 51.9,120.1 52.3,120.1 52.6,120.1 52.9,120.1 53.3,120.1 53.6,120.1 52.8,120.8 53.3,121.2 54.5,120.2 55.9,121.2 
		56.4,120.8 55.5,120.1 55.9,120.1 56.2,120.1 56.5,120 56.9,120 57.2,120 57.5,120 57.9,120 58.3,120 58.6,119.9 59,119.9 
		59.3,119.9 59.7,119.9 60,119.9 60.4,119.9 60.7,119.9 61.1,119.9 61.5,119.8 61.8,119.8 62.2,119.8 62.6,119.8 63,119.7 
		63.3,119.7 63.7,119.7 64.1,119.7 64.5,119.7 64.8,119.7 65.2,119.6 65.6,119.6 66,119.5 66.3,119.5 66.7,119.5 	"/>
	<polygon class="st1" points="39.2,119.5 39.2,127.4 38.9,127.4 38.5,127.4 38.2,127.4 37.8,127.5 37.4,127.5 37.1,127.6 
		36.7,127.6 36.3,127.6 36,127.7 35.6,127.7 35.2,127.7 34.9,127.7 34.6,127.7 34.1,127.8 33.8,127.8 33.5,127.8 33.1,127.9 
		32.7,127.9 32.4,127.9 32.1,127.9 31.7,127.9 31.4,127.9 31,127.9 30.6,127.9 30.3,127.9 30,128 29.6,128 29.3,128 28.9,128 
		28.5,128 28.2,128 27.9,128 28.5,127.5 28,127.1 26.8,128.1 26.7,128.1 26.6,128.1 25.5,127.1 24.9,127.5 25.5,128.1 25.2,128.1 
		25,128.1 24.6,128.1 24.3,128.1 24,128.1 23.7,128 23.4,128 23.1,128 22.8,128 22.5,128 22.2,128 21.9,128 21.6,128 21.3,128 
		21,127.9 20.7,127.9 20.4,127.9 20.1,127.9 19.9,127.9 19.5,127.9 19.3,127.9 18.9,127.9 18.7,127.9 18.4,127.8 18.1,127.8 
		17.8,127.8 17.5,127.7 17.2,127.7 16.9,127.7 16.6,127.7 16.3,127.7 16,127.7 16,119.8 16.3,119.8 16.6,119.9 16.8,119.9 
		17.2,119.9 17.4,119.9 17.8,119.9 18,119.9 18.3,119.9 18.6,120 18.9,120 19.2,120 19.5,120 19.8,120 20.1,120 20.4,120.1 
		20.7,120.1 20.9,120.1 21.3,120.1 21.6,120.1 21.9,120.1 22.2,120.1 22.5,120.1 22.9,120.1 23.1,120.1 23.4,120.1 23.8,120.1 
		24.1,120.1 24.4,120.1 24.7,120.1 25,120.1 25.4,120.1 25.7,120.1 24.9,120.8 25.5,121.2 26.7,120.2 28,121.2 28.5,120.8 
		27.6,120.1 28,120.1 28.3,120.1 28.6,120 29,120 29.4,120 29.7,120 30,120 30.4,120 30.7,119.9 31.1,119.9 31.5,119.9 31.8,119.9 
		32.1,119.9 32.6,119.9 32.9,119.9 33.2,119.9 33.6,119.8 34,119.8 34.3,119.8 34.7,119.8 35.1,119.7 35.5,119.7 35.8,119.7 
		36.1,119.7 36.6,119.7 37,119.7 37.3,119.6 37.7,119.6 38.1,119.5 38.5,119.5 38.8,119.5 	"/>
	<polygon class="st1" points="39.2,118.5 39.2,118.3 39.2,109.4 38.8,109.4 38.5,109.4 38.1,109.4 37.7,109.4 37.3,109.5 37,109.5 
		36.6,109.5 36.1,109.6 35.8,109.6 35.5,109.6 35.1,109.6 34.7,109.6 34.3,109.6 34,109.7 33.6,109.7 33.2,109.7 32.9,109.7 
		32.6,109.8 32.1,109.8 31.8,109.8 31.5,109.8 31.1,109.8 30.7,109.8 30.4,109.8 30,109.8 29.7,109.8 29.4,109.8 29,109.9 
		28.6,109.9 28.3,109.9 28,109.9 27.6,109.9 28.5,110.6 28,111.1 26.7,110 25.5,111.1 24.9,110.6 25.7,110 25.4,110 25,110 
		24.7,110 24.4,110 24.1,110 23.8,110 23.4,110 23.1,110 22.9,110 22.5,110 22.2,110 21.9,109.9 21.6,109.9 21.3,109.9 20.9,109.9 
		20.7,109.9 20.4,109.9 20.1,109.9 19.8,109.9 19.5,109.8 19.2,109.8 18.9,109.8 18.6,109.8 18.3,109.8 18,109.8 17.8,109.8 
		17.4,109.8 17.2,109.8 16.8,109.7 16.6,109.7 16.3,109.7 16,109.6 16,118.8 16.3,118.8 16.6,118.8 16.9,118.8 17.2,118.9 
		17.5,118.9 17.8,118.9 18.1,119 18.4,119 18.7,119 18.9,119 19.3,119 19.5,119 19.9,119 20.1,119 20.4,119.1 20.7,119.1 21,119.1 
		21.3,119.1 21.6,119.1 21.9,119.1 22.2,119.2 22.5,119.2 22.8,119.2 23.1,119.2 23.4,119.2 23.7,119.2 24,119.2 24.3,119.2 
		24.6,119.2 25,119.2 25.2,119.2 25.5,119.2 24.9,118.7 25.5,118.2 26.6,119.2 26.7,119.2 26.8,119.2 28,118.2 28.5,118.7 
		27.9,119.2 28.2,119.2 28.5,119.2 28.9,119.2 29.3,119.2 29.6,119.1 30,119.1 30.3,119.1 30.6,119.1 31,119.1 31.4,119 31.7,119 
		32.1,119 32.4,119 32.7,119 33.1,119 33.5,119 33.8,119 34.1,118.9 34.6,118.9 34.9,118.9 35.2,118.8 35.6,118.8 36,118.8 
		36.3,118.8 36.7,118.8 37.1,118.7 37.4,118.7 37.8,118.6 38.2,118.6 38.5,118.5 38.9,118.5 	"/>
</g>
<line class="st2" x1="94.8" y1="143.5" x2="155.2" y2="143.5"/>
<line class="st3" x1="101" y1="138.8" x2="149" y2="138.8"/>
<line class="st4" x1="104.1" y1="134" x2="145.9" y2="134"/>
</svg>
