<?xml version="1.0" encoding="utf-8"?>
<!-- Generator: Adobe Illustrator 19.0.0, SVG Export Plug-In . SVG Version: 6.00 Build 0)  -->
<svg version="1.1" id="Layer_1" xmlns="http://www.w3.org/2000/svg" xmlns:xlink="http://www.w3.org/1999/xlink" x="0px" y="0px"
	 viewBox="0 0 250 250" style="enable-background:new 0 0 250 250;" xml:space="preserve">
<style type="text/css">
	.st0{fill:none;stroke:#000000;stroke-width:6.2217;stroke-miterlimit:10;}
	.st1{fill:#7F7F7F;stroke:#000000;stroke-width:6.2217;stroke-miterlimit:10;}
</style>
<path class="st0" d="M67.9,238h55l48.7-31.1v-74.7L122.9,154c0,0-3.2-2.7-3.5-7.3c-1.3-22.8-6.5-91.2-23-91.2
	c-19.7,0-23.3,95.4-23.3,95.4l-5.2,6.2V238z"/>
<line class="st0" x1="124.4" y1="238" x2="124.4" y2="154"/>
<path class="st1" d="M182,127l-59.1,27c0,0-3.2-1.6-3.3-4.4c-0.4-7.7-1.3-24.2-3.2-37.3l32.8-12.2L182,127z"/>
<rect x="84" y="196" width="24.9" height="42"/>
<rect x="87.6" y="112" width="17.6" height="29.7"/>
<g>
	<path d="M95.8,85.4V61.3c0,0-8.2,15.2-8.2,24.1H95.8z"/>
	<path d="M97.1,85.4V61.3c0,0,8.2,15.2,8.2,24.1H97.1z"/>
</g>
<line class="st0" x1="96.4" y1="55.5" x2="96.4" y2="12.3"/>
<line class="st0" x1="80.9" y1="26.7" x2="112" y2="26.7"/>
</svg>
