<?xml version="1.0" encoding="utf-8"?>
<!-- Generator: Adobe Illustrator 19.0.0, SVG Export Plug-In . SVG Version: 6.00 Build 0)  -->
<svg version="1.1" id="Layer_1" xmlns="http://www.w3.org/2000/svg" xmlns:xlink="http://www.w3.org/1999/xlink" x="0px" y="0px"
	 viewBox="0 0 250 250" style="enable-background:new 0 0 250 250;" xml:space="preserve">
<style type="text/css">
	.st0{fill:#939598;}
	.st1{fill:#FFFFFF;}
</style>
<path id="XMLID_10_" class="st0" d="M226,128.7c-14-1.6-22.8-8.9-29.1-12.5c-6.2-3.6-13.5-8.8-17.1-8.8c-3.6,0-7.5,0-10.7,3.1
	c-3.3,3.1-10.9,7.8-18.8,7.8c-7.8,0-12.5-2.1-18.8-5.7c-6.2-3.6-11.3-7.8-16-7.8s-6.9,2.4-11.5,5.7c-6.3,4.6-7.4,4.9-10.4,5.8
	c-0.8-0.9-4.1,0.5-5.9-1.4c-3.9-3.9-9.1-4.4-12.7-4.4s-15.6,7.3-21.8,11.1c-6.2,3.8-17.6,2.4-37.9,8.6
	c-20.2,6.2,31.1,14.5,42.5,14.6c11.4,0.1,27.5-2.1,35.8-2.1s16.1,5.1,27.5,4.1s17.1-2.6,24.9-3.6s16.6,0,16.6,0
	c-2.6-1.6-5.8-2.9-9.2-4.2c16.1-0.1,54-0.3,62.2-1.5c7.2-1.1,10.4-3.1,16.6-3.1S240,130.3,226,128.7z"/>
<path id="XMLID_7_" class="st1" d="M82.1,114.1c-0.9-0.9,3.7,6.3,10.9,10.1c5.2,2.7,13,7,25.4,8.6s23,3,32.5,5.2
	c0,0-11.7-6.8-24.7-7.5c-9.4-0.6-14-1.8-21.3-5.2C97.6,121.8,84.4,112.5,82.1,114.1z"/>
<path id="XMLID_2_" class="st1" d="M119.4,106.5c0,0,5.8,7.9,10.6,10.1c6.2,2.9,14.8,2.9,14.8,2.9S132.9,117.7,119.4,106.5z"/>
<path id="XMLID_1_" class="st1" d="M183.8,110.2c0,0,4.7,10.6,10.1,13.5c5.4,2.9,16.6,3.4,20.6,4.9c5.7,2.1,11.6,1.3,11.6,1.3
	s-11.9-2.2-16.1-4.1C205.8,123.9,191,113.9,183.8,110.2z"/>
</svg>
