<?xml version="1.0" encoding="utf-8"?>
<!-- Generator: Adobe Illustrator 19.0.0, SVG Export Plug-In . SVG Version: 6.00 Build 0)  -->
<svg version="1.1" id="Layer_1" xmlns="http://www.w3.org/2000/svg" xmlns:xlink="http://www.w3.org/1999/xlink" x="0px" y="0px"
	 viewBox="0 0 250 250" style="enable-background:new 0 0 250 250;" xml:space="preserve">
<rect x="116" y="44.6" width="18.4" height="171.7"/>
<g>
	<path d="M95.4,44.6H76.5v9.6c0,0,0,5.5,5.5,5.5c4,0,5.3,5.7,5.3,5.7s-0.4,4.4,3.9,4.4c4.3,0,4.2-4.2,4.2-4.2V44.6z"/>
	<path d="M155,44.6h18.8v9.6c0,0,0,5.5-5.5,5.5c-4,0-5.3,5.7-5.3,5.7s0.4,4.4-3.9,4.4c-4.3,0-4.2-4.2-4.2-4.2V44.6z"/>
</g>
<rect x="58.5" y="36.7" width="133.3" height="7.8"/>
</svg>
