<?xml version="1.0" encoding="utf-8"?>
<!-- Generator: Adobe Illustrator 19.0.0, SVG Export Plug-In . SVG Version: 6.00 Build 0)  -->
<svg version="1.1" id="Layer_1" xmlns="http://www.w3.org/2000/svg" xmlns:xlink="http://www.w3.org/1999/xlink" x="0px" y="0px"
	 viewBox="0 0 250 250" style="enable-background:new 0 0 250 250;" xml:space="preserve">
<style type="text/css">
	.st0{fill-rule:evenodd;clip-rule:evenodd;}
</style>
<g id="XMLID_1_">
	<polygon id="XMLID_11_" class="st0" points="14.5,128.7 14.2,128.5 13.9,128.3 13.6,128.1 13.4,127.9 13.2,127.7 12.9,127.6 
		12.7,127.3 12.5,127.2 12.3,126.9 12.2,126.8 12.2,126.5 12.1,126.4 12,126.2 11.9,126 11.9,125.8 11.8,125.7 11.8,125.5 
		11.9,125.4 11.9,125.3 12,125.1 12.1,125 12.2,125 12.2,124.9 12.4,124.8 12.6,124.7 12.8,124.7 13,124.6 13.3,124.6 13.5,124.6 
		13.8,124.7 14.1,124.7 14.5,124.8 14.8,124.9 15.2,125 15.6,125.2 16,125.4 16.3,125.7 16.7,125.9 17.2,126.1 17.5,126.4 18,126.8 
		18.4,127.2 18.8,127.5 19.3,127.9 19.8,128.2 20.2,128.6 20.8,129 21.3,129.3 21.8,129.7 22.4,130 23,130.4 23.6,130.7 24.2,131 
		24.9,131.3 25.5,131.6 26.2,131.9 26.9,132.1 27.7,132.3 28.4,132.4 29.1,132.6 30,132.7 30.8,132.8 31.7,132.8 32.6,132.7 
		33.5,132.6 34.5,132.4 35.4,132.3 36.5,132 37.5,131.7 38.6,131.3 39.6,131 40.7,130.5 41.9,130.2 43,129.7 44.2,129.2 45.3,128.7 
		46.5,128.2 47.7,127.6 48.9,127.1 50.1,126.5 51.3,126 52.6,125.5 53.8,125 55,124.5 56.3,123.9 57.5,123.5 58.8,123.1 60,122.7 
		61.3,122.3 62.5,121.9 63.8,121.6 65,121.3 66.3,121.2 67.6,121 68.8,120.9 70,120.9 71.2,120.9 72.4,121 73.5,121.2 74.7,121.4 
		75.8,121.6 77,122 78.1,122.3 79.2,122.7 80.5,123.1 81.6,123.6 82.7,124.1 83.8,124.6 84.9,125.2 86,125.7 87.1,126.2 88.2,126.8 
		89.4,127.3 90.5,127.9 91.6,128.4 92.7,129 93.8,129.4 94.9,130 96,130.4 97.2,130.9 98.3,131.3 99.5,131.7 100.6,132 101.7,132.2 
		102.9,132.4 104,132.6 105.2,132.7 106.4,132.7 107.6,132.7 108.8,132.6 110,132.4 111.2,132.2 112.3,132 113.5,131.7 114.6,131.3 
		115.7,130.9 116.9,130.4 118,130 119.2,129.4 120.3,129 121.4,128.4 122.5,127.9 123.7,127.3 124.8,126.8 125.9,126.2 127,125.7 
		128.1,125.2 129.3,124.6 130.4,124.1 131.6,123.6 132.7,123.1 133.8,122.7 135,122.3 136.1,122 137.2,121.6 138.4,121.4 
		139.7,121.2 140.8,121 142,120.9 143.2,120.9 144.4,120.9 145.6,121 146.7,121.2 147.9,121.4 149.1,121.6 150.2,122 151.4,122.3 
		152.6,122.7 153.7,123.1 154.8,123.6 156,124.1 157.1,124.6 158.2,125.2 159.3,125.7 160.4,126.2 161.6,126.8 162.8,127.3 
		163.9,127.9 165,128.4 166.1,129 167.2,129.4 168.3,130 169.5,130.4 170.7,130.9 171.8,131.3 173,131.7 174.1,132 175.2,132.2 
		176.4,132.4 177.6,132.6 178.7,132.7 179.9,132.7 181.1,132.7 182.3,132.6 183.6,132.4 184.8,132.2 186.1,132 187.3,131.7 
		188.5,131.3 189.7,130.9 190.9,130.5 192.1,130.1 193.3,129.6 194.6,129.1 195.8,128.7 197,128.1 198.1,127.6 199.3,127.1 
		200.5,126.5 201.7,126 202.9,125.4 204,125 205.2,124.4 206.3,123.9 207.3,123.5 208.4,123 209.5,122.6 210.6,122.2 211.6,121.9 
		212.6,121.6 213.6,121.3 214.5,121.1 215.5,120.9 216.4,120.9 217.3,120.9 218.2,120.9 219,120.9 219.8,120.9 220.7,121 
		221.4,121.2 222.2,121.3 222.9,121.5 223.6,121.7 224.4,122 225,122.2 225.7,122.5 226.3,122.7 227,123.1 227.5,123.4 228.1,123.8 
		228.7,124.1 229.2,124.4 229.8,124.8 230.2,125.1 230.8,125.5 231.2,125.8 231.7,126.1 232.1,126.5 232.5,126.8 232.9,127.2 
		233.4,127.5 233.8,127.8 234.1,128 234.5,128.3 234.8,128.5 235.1,128.7 235.4,129 235.7,129.1 236,129.4 236.3,129.5 236.5,129.8 
		236.7,130 236.9,130.2 237.1,130.4 237.3,130.5 237.4,130.8 237.6,130.9 237.6,131.2 237.7,131.3 237.7,131.5 237.8,131.7 
		237.8,131.8 237.8,132 237.8,132.1 237.8,132.3 237.7,132.4 237.6,132.4 237.6,132.6 237.4,132.7 237.3,132.8 237.1,132.8 
		236.8,132.8 236.6,132.8 236.4,132.8 236.1,132.8 235.8,132.8 235.4,132.8 235.1,132.7 234.8,132.6 234.4,132.5 233.9,132.3 
		233.6,132.1 233.2,131.9 232.7,131.7 232.4,131.3 231.9,131 231.4,130.7 231,130.4 230.5,130.1 230,129.7 229.6,129.4 229,129 
		228.5,128.6 227.9,128.3 227.4,127.9 226.8,127.5 226.1,127.2 225.6,126.8 224.9,126.5 224.3,126.2 223.5,125.9 222.9,125.7 
		222.2,125.4 221.4,125.3 220.6,125 219.8,125 219,124.9 218.2,124.8 217.3,124.8 216.4,124.8 215.5,124.9 214.5,125 213.6,125.3 
		212.6,125.5 211.6,125.7 210.6,126.1 209.5,126.4 208.4,126.8 207.3,127.3 206.2,127.7 205.1,128.2 204,128.7 202.9,129.2 
		201.6,129.8 200.5,130.2 199.3,130.8 198.1,131.3 196.9,131.8 195.7,132.4 194.5,132.8 193.3,133.3 192.1,133.8 190.9,134.2 
		189.7,134.6 188.5,135 187.2,135.3 186,135.6 184.8,135.8 183.6,136.1 182.3,136.2 181.1,136.3 179.9,136.3 178.8,136.3 
		177.6,136.1 176.4,136 175.3,135.8 174.1,135.5 173,135.3 171.8,134.9 170.7,134.5 169.5,134.1 168.3,133.6 167.2,133.2 
		166.1,132.7 165,132.1 163.9,131.7 162.8,131.1 161.6,130.5 160.4,130 159.3,129.4 158.2,129 157.1,128.4 156,127.9 154.8,127.5 
		153.7,127 152.6,126.6 151.4,126.2 150.2,125.9 149,125.6 147.9,125.3 146.7,125.1 145.6,125 144.4,124.9 143.2,124.8 142,124.9 
		140.8,125 139.7,125.1 138.4,125.3 137.3,125.6 136.1,125.9 135,126.2 133.8,126.6 132.7,127 131.6,127.5 130.5,127.9 129.3,128.4 
		128.1,129 127,129.4 125.9,130 124.8,130.5 123.7,131.1 122.5,131.7 121.4,132.1 120.3,132.7 119.2,133.2 118,133.6 116.8,134.1 
		115.7,134.5 114.6,134.9 113.4,135.3 112.3,135.5 111.1,135.8 110,136 108.8,136.1 107.6,136.3 106.4,136.3 105.2,136.3 104,136.1 
		102.9,136 101.7,135.8 100.6,135.5 99.4,135.3 98.3,134.9 97.2,134.5 96,134.1 94.9,133.6 93.8,133.2 92.7,132.7 91.6,132.1 
		90.5,131.7 89.4,131.1 88.2,130.5 87.1,130 86,129.4 84.9,129 83.8,128.4 82.7,127.9 81.6,127.5 80.4,127 79.2,126.6 78.1,126.2 
		77,125.9 75.8,125.6 74.7,125.3 73.5,125.1 72.4,125 71.2,124.9 70,124.8 68.8,124.9 67.6,125 66.3,125.1 65,125.3 63.8,125.5 
		62.5,125.8 61.3,126.1 60,126.5 58.8,126.9 57.5,127.3 56.3,127.8 55,128.3 53.8,128.7 52.5,129.3 51.3,129.8 50.1,130.3 
		48.9,130.9 47.7,131.3 46.5,131.9 45.3,132.4 44.1,132.8 43,133.3 41.9,133.8 40.7,134.3 39.6,134.6 38.5,135 37.5,135.4 
		36.5,135.6 35.4,135.9 34.4,136.1 33.5,136.2 32.6,136.3 31.7,136.4 30.8,136.4 30,136.3 29.1,136.2 28.4,136.1 27.6,136.1 
		26.8,135.9 26.2,135.7 25.4,135.5 24.8,135.3 24.1,135 23.5,134.7 22.8,134.5 22.3,134.2 21.7,133.9 21.2,133.5 20.6,133.2 
		20,132.9 19.6,132.6 19.1,132.2 18.7,131.9 18.2,131.6 17.7,131.3 17.4,130.9 17,130.6 16.5,130.3 16.1,130 15.8,129.7 15.5,129.4 
		15.1,129.2 14.8,129 	"/>
	<polygon id="XMLID_10_" class="st0" points="14.5,121.6 14.2,121.3 13.9,121.2 13.6,120.9 13.4,120.7 13.2,120.5 12.9,120.3 
		12.7,120.1 12.5,119.9 12.4,119.7 12.2,119.5 12.2,119.4 12.1,119.1 12,119 11.9,118.8 11.9,118.6 11.9,118.5 11.9,118.3 
		11.9,118.2 11.9,118 12,117.9 12.1,117.9 12.2,117.7 12.2,117.6 12.4,117.5 12.6,117.5 12.8,117.5 13,117.5 13.3,117.5 13.5,117.5 
		13.8,117.5 14.1,117.5 14.5,117.6 14.8,117.7 15.2,117.8 15.6,118 16,118.2 16.3,118.4 16.7,118.6 17.2,119 17.5,119.3 18,119.6 
		18.4,119.9 18.8,120.2 19.3,120.6 19.8,121 20.2,121.3 20.8,121.7 21.3,122.1 21.8,122.4 22.4,122.8 23,123.1 23.6,123.5 
		24.2,123.8 24.9,124.1 25.5,124.4 26.2,124.6 26.9,124.9 27.7,125.1 28.4,125.3 29.1,125.3 30,125.5 30.8,125.5 31.7,125.5 
		32.6,125.5 33.5,125.4 34.5,125.3 35.4,125 36.5,124.8 37.5,124.5 38.6,124.2 39.6,123.8 40.7,123.4 41.9,122.9 43,122.4 44.2,122 
		45.3,121.5 46.5,120.9 47.7,120.4 48.9,119.8 50.1,119.4 51.3,118.8 52.6,118.2 53.8,117.7 55.1,117.2 56.3,116.8 57.6,116.3 
		58.8,115.8 60.1,115.4 61.3,115 62.6,114.7 63.8,114.4 65,114.1 66.3,113.9 67.6,113.8 68.8,113.7 70,113.7 71.2,113.7 72.4,113.8 
		73.5,113.9 74.7,114.1 75.8,114.5 77,114.8 78.1,115.1 79.2,115.5 80.5,116 81.6,116.4 82.7,116.9 83.8,117.4 84.9,117.9 86,118.5 
		87.1,119 88.2,119.6 89.4,120.1 90.5,120.7 91.6,121.2 92.7,121.7 93.8,122.3 94.9,122.7 96,123.2 97.2,123.6 98.3,124 99.5,124.4 
		100.6,124.7 101.7,125 102.9,125.2 104,125.3 105.2,125.4 106.4,125.5 107.6,125.4 108.8,125.3 110,125.2 111.2,125 112.3,124.7 
		113.5,124.4 114.6,124 115.7,123.6 116.9,123.2 118,122.7 119.2,122.3 120.3,121.7 121.4,121.2 122.6,120.7 123.7,120.1 
		124.8,119.6 125.9,119 127,118.5 128.1,117.9 129.3,117.4 130.5,116.9 131.6,116.4 132.7,116 133.8,115.5 135,115.1 136.1,114.8 
		137.3,114.5 138.4,114.1 139.7,113.9 140.9,113.8 142,113.7 143.2,113.7 144.4,113.7 145.6,113.8 146.8,113.9 147.9,114.1 
		149.1,114.5 150.2,114.8 151.4,115.1 152.6,115.5 153.7,116 154.9,116.4 156,116.9 157.1,117.4 158.2,117.9 159.3,118.5 160.4,119 
		161.6,119.6 162.8,120.1 163.9,120.7 165,121.2 166.1,121.7 167.2,122.3 168.3,122.7 169.5,123.2 170.7,123.6 171.8,124 173,124.4 
		174.1,124.7 175.3,125 176.4,125.2 177.6,125.3 178.8,125.4 180,125.5 181.1,125.4 182.3,125.3 183.6,125.2 184.8,125 186.1,124.8 
		187.3,124.5 188.5,124.1 189.7,123.8 190.9,123.3 192.2,122.9 193.4,122.4 194.6,122 195.8,121.4 197,120.9 198.2,120.4 
		199.3,119.8 200.5,119.3 201.7,118.7 202.9,118.2 204.1,117.7 205.2,117.2 206.3,116.7 207.4,116.2 208.4,115.8 209.5,115.4 
		210.6,115 211.6,114.6 212.6,114.4 213.6,114.1 214.5,113.9 215.5,113.8 216.4,113.7 217.3,113.6 218.2,113.6 219,113.7 
		219.8,113.7 220.7,113.8 221.5,113.9 222.2,114.1 223,114.3 223.6,114.5 224.4,114.8 225,115 225.7,115.3 226.3,115.6 227,115.9 
		227.5,116.2 228.2,116.5 228.7,116.9 229.2,117.2 229.8,117.5 230.3,117.9 230.8,118.2 231.2,118.6 231.7,119 232.2,119.3 
		232.5,119.7 233,120 233.4,120.3 233.8,120.5 234.1,120.9 234.5,121.1 234.8,121.3 235.1,121.6 235.4,121.7 235.7,122 236,122.1 
		236.3,122.3 236.5,122.6 236.7,122.7 236.9,123 237.1,123.1 237.3,123.4 237.5,123.5 237.6,123.8 237.6,123.9 237.7,124.1 
		237.8,124.3 237.8,124.5 237.8,124.6 237.8,124.8 237.8,124.9 237.8,125 237.7,125.2 237.6,125.3 237.6,125.3 237.4,125.4 
		237.3,125.5 237.1,125.6 236.9,125.6 236.6,125.7 236.4,125.7 236.1,125.7 235.8,125.6 235.5,125.6 235.1,125.5 234.8,125.4 
		234.4,125.3 234,125.1 233.7,124.9 233.2,124.6 232.8,124.4 232.4,124.2 231.9,123.8 231.5,123.5 231.1,123.2 230.5,122.8 
		230,122.5 229.6,122.1 229,121.7 228.5,121.4 227.9,121 227.4,120.6 226.8,120.3 226.1,119.9 225.6,119.6 224.9,119.3 224.3,119 
		223.5,118.7 222.9,118.5 222.2,118.2 221.4,118 220.7,117.9 219.8,117.7 219,117.6 218.2,117.5 217.3,117.5 216.4,117.6 
		215.5,117.7 214.5,117.9 213.6,118 212.6,118.2 211.6,118.6 210.6,118.9 209.5,119.3 208.4,119.7 207.4,120.1 206.3,120.5 
		205.2,121 204,121.5 202.9,122 201.7,122.5 200.5,123.1 199.3,123.5 198.1,124.1 196.9,124.6 195.8,125.1 194.5,125.6 193.3,126.1 
		192.1,126.5 190.9,127 189.7,127.4 188.5,127.7 187.3,128.1 186.1,128.3 184.8,128.7 183.6,128.8 182.3,129 181.1,129.1 180,129.1 
		178.8,129.1 177.6,129 176.4,128.8 175.3,128.6 174.1,128.3 173,128 171.8,127.7 170.7,127.3 169.5,126.8 168.4,126.4 167.2,126 
		166.1,125.4 165,125 163.9,124.4 162.8,123.8 161.7,123.4 160.4,122.8 159.3,122.3 158.2,121.7 157.1,121.2 156,120.7 154.9,120.2 
		153.7,119.8 152.6,119.4 151.4,119 150.2,118.6 149.1,118.3 147.9,118.1 146.8,117.9 145.6,117.7 144.4,117.6 143.2,117.6 
		142,117.6 140.9,117.7 139.7,117.9 138.4,118.1 137.3,118.3 136.1,118.6 135,119 133.9,119.4 132.7,119.8 131.6,120.2 130.5,120.7 
		129.4,121.2 128.1,121.7 127,122.3 125.9,122.8 124.8,123.4 123.7,123.8 122.6,124.4 121.4,125 120.3,125.4 119.2,126 118,126.4 
		116.9,126.8 115.7,127.3 114.6,127.7 113.5,128 112.3,128.3 111.2,128.6 110,128.8 108.8,129 107.6,129.1 106.4,129.1 105.2,129.1 
		104,129 102.9,128.8 101.7,128.6 100.6,128.3 99.5,128 98.3,127.7 97.2,127.3 96,126.8 94.9,126.4 93.8,126 92.7,125.4 91.6,125 
		90.5,124.4 89.4,123.8 88.2,123.4 87.1,122.8 86,122.3 84.9,121.7 83.8,121.2 82.7,120.7 81.6,120.2 80.5,119.8 79.2,119.4 
		78.1,119 77,118.6 75.8,118.3 74.7,118.1 73.5,117.9 72.4,117.7 71.2,117.6 70,117.6 68.8,117.6 67.6,117.7 66.3,117.9 65,118.1 
		63.8,118.3 62.5,118.6 61.3,119 60,119.3 58.8,119.7 57.5,120.1 56.3,120.5 55,121.1 53.8,121.6 52.6,122 51.3,122.6 50.1,123.1 
		48.9,123.6 47.7,124.2 46.5,124.6 45.3,125.2 44.2,125.7 43,126.1 41.9,126.6 40.7,127 39.6,127.4 38.5,127.8 37.5,128.1 
		36.5,128.4 35.4,128.7 34.4,128.8 33.5,129 32.6,129.1 31.7,129.1 30.8,129.1 30,129.1 29.1,129.1 28.4,129 27.7,128.8 26.8,128.7 
		26.2,128.5 25.4,128.3 24.8,128 24.1,127.8 23.5,127.6 22.8,127.2 22.3,127 21.7,126.7 21.2,126.4 20.6,126.1 20.1,125.7 
		19.6,125.3 19.1,125 18.7,124.7 18.2,124.3 17.7,124 17.4,123.7 17,123.4 16.5,123.1 16.1,122.7 15.8,122.5 15.5,122.2 15.1,122 
		14.8,121.7 	"/>
	<polygon id="XMLID_7_" class="st0" points="14.5,114 14.2,113.8 13.9,113.6 13.6,113.4 13.4,113.1 13.2,113 12.9,112.7 12.7,112.6 
		12.5,112.3 12.4,112.2 12.2,111.9 12.2,111.8 12.1,111.5 12,111.4 11.9,111.2 11.9,111.1 11.9,110.9 11.9,110.8 11.9,110.6 
		11.9,110.4 12,110.4 12.1,110.2 12.2,110.1 12.2,110 12.4,110 12.6,110 12.8,109.9 13,109.9 13.3,109.9 13.5,109.9 13.8,109.9 
		14.1,110 14.5,110 14.8,110.1 15.2,110.2 15.6,110.4 16,110.6 16.3,110.8 16.7,111.1 17.2,111.4 17.5,111.7 18,112 18.4,112.3 
		18.8,112.7 19.3,113 19.8,113.4 20.2,113.8 20.8,114.1 21.3,114.5 21.8,114.9 22.4,115.3 23,115.6 23.6,115.9 24.2,116.2 
		24.9,116.5 25.5,116.8 26.2,117.1 26.9,117.3 27.7,117.5 28.4,117.7 29.1,117.8 30,117.9 30.8,117.9 31.7,117.9 32.6,117.9 
		33.5,117.9 34.5,117.7 35.4,117.5 36.5,117.2 37.5,116.9 38.6,116.6 39.6,116.2 40.7,115.8 41.9,115.3 43,114.9 44.2,114.4 
		45.3,113.9 46.5,113.4 47.7,112.8 48.9,112.3 50.1,111.8 51.3,111.2 52.6,110.7 53.8,110.1 55.1,109.7 56.3,109.2 57.6,108.7 
		58.8,108.2 60.1,107.8 61.3,107.5 62.6,107.1 63.8,106.8 65,106.6 66.3,106.3 67.6,106.2 68.8,106.1 70,106.1 71.2,106.1 
		72.4,106.2 73.5,106.3 74.7,106.6 75.8,106.9 77,107.2 78.1,107.5 79.2,107.9 80.5,108.4 81.6,108.8 82.7,109.3 83.8,109.8 
		84.9,110.4 86,110.9 87.1,111.5 88.2,112 89.4,112.6 90.5,113.1 91.6,113.7 92.7,114.1 93.8,114.7 94.9,115.2 96,115.6 97.2,116 
		98.3,116.4 99.5,116.8 100.6,117.1 101.7,117.4 102.9,117.6 104,117.8 105.2,117.9 106.4,117.9 107.6,117.9 108.8,117.8 110,117.6 
		111.2,117.4 112.3,117.1 113.5,116.8 114.6,116.4 115.7,116 116.9,115.6 118,115.2 119.2,114.7 120.3,114.1 121.4,113.7 
		122.6,113.1 123.7,112.6 124.8,112 125.9,111.5 127,110.9 128.1,110.4 129.3,109.8 130.5,109.3 131.6,108.8 132.7,108.4 
		133.8,107.9 135,107.5 136.1,107.2 137.3,106.9 138.4,106.6 139.7,106.3 140.9,106.2 142,106.1 143.2,106.1 144.4,106.1 
		145.6,106.2 146.8,106.3 147.9,106.6 149.1,106.9 150.2,107.2 151.4,107.5 152.6,107.9 153.7,108.4 154.9,108.8 156,109.3 
		157.1,109.8 158.2,110.4 159.3,110.9 160.4,111.5 161.6,112 162.8,112.6 163.9,113.1 165,113.7 166.1,114.1 167.2,114.7 
		168.3,115.2 169.5,115.6 170.7,116 171.8,116.4 173,116.8 174.1,117.1 175.3,117.4 176.4,117.6 177.6,117.8 178.8,117.9 180,117.9 
		181.1,117.9 182.3,117.8 183.6,117.6 184.8,117.5 186.1,117.1 187.3,116.9 188.5,116.5 189.7,116.2 190.9,115.7 192.2,115.3 
		193.4,114.9 194.6,114.4 195.8,113.8 197,113.4 198.2,112.8 199.3,112.3 200.5,111.7 201.7,111.2 202.9,110.7 204.1,110.1 
		205.2,109.7 206.3,109.1 207.4,108.6 208.4,108.2 209.5,107.8 210.6,107.5 211.6,107.1 212.6,106.8 213.6,106.5 214.5,106.3 
		215.5,106.2 216.4,106.1 217.3,106 218.2,106 219,106 219.8,106.1 220.7,106.3 221.5,106.3 222.2,106.5 223,106.7 223.6,107 
		224.4,107.2 225,107.5 225.7,107.7 226.3,108 227,108.3 227.5,108.6 228.2,108.9 228.7,109.3 229.2,109.7 229.8,110 230.3,110.4 
		230.8,110.7 231.2,111.1 231.7,111.4 232.2,111.7 232.5,112.1 233,112.4 233.4,112.7 233.8,113 234.1,113.3 234.5,113.5 
		234.8,113.8 235.1,114 235.4,114.1 235.7,114.4 236,114.5 236.3,114.8 236.5,115 236.7,115.2 236.9,115.4 237.1,115.6 237.3,115.8 
		237.5,116 237.6,116.2 237.6,116.4 237.7,116.5 237.8,116.8 237.8,116.9 237.8,117.1 237.8,117.2 237.8,117.3 237.8,117.5 
		237.7,117.6 237.6,117.7 237.6,117.8 237.4,117.9 237.3,117.9 237.1,118 236.9,118 236.6,118.1 236.4,118.1 236.1,118.1 235.8,118 
		235.5,118 235.1,117.9 234.8,117.9 234.4,117.7 234,117.5 233.7,117.3 233.2,117.1 232.8,116.8 232.4,116.6 231.9,116.3 231.5,116 
		231.1,115.6 230.5,115.3 230,114.9 229.6,114.5 229,114.1 228.5,113.8 227.9,113.4 227.4,113 226.8,112.7 226.1,112.3 225.6,112 
		224.9,111.7 224.3,111.4 223.5,111.2 222.9,110.8 222.2,110.7 221.4,110.4 220.7,110.3 219.8,110.1 219,110 218.2,110 217.3,110 
		216.4,110 215.5,110.1 214.5,110.2 213.6,110.4 212.6,110.7 211.6,111 210.6,111.3 209.5,111.7 208.4,112.1 207.4,112.5 206.3,113 
		205.2,113.4 204,113.9 202.9,114.5 201.7,114.9 200.5,115.5 199.3,116 198.1,116.5 196.9,117.1 195.8,117.5 194.5,118 193.3,118.5 
		192.1,119 190.9,119.4 189.7,119.8 188.5,120.1 187.3,120.5 186.1,120.8 184.8,121 183.6,121.2 182.3,121.4 181.1,121.5 180,121.5 
		178.8,121.5 177.6,121.4 176.4,121.2 175.3,121 174.1,120.8 173,120.5 171.8,120.1 170.7,119.7 169.5,119.3 168.4,118.9 
		167.2,118.4 166.1,117.9 165,117.4 163.9,116.8 162.8,116.3 161.7,115.7 160.4,115.3 159.3,114.7 158.2,114.1 157.1,113.7 
		156,113.1 154.9,112.7 153.7,112.3 152.6,111.8 151.4,111.4 150.2,111.1 149.1,110.8 147.9,110.5 146.8,110.3 145.6,110.1 
		144.4,110 143.2,110 142,110 140.9,110.1 139.7,110.3 138.4,110.5 137.3,110.8 136.1,111.1 135,111.4 133.9,111.8 132.7,112.3 
		131.6,112.7 130.5,113.1 129.4,113.7 128.1,114.1 127,114.7 125.9,115.3 124.8,115.7 123.7,116.3 122.6,116.8 121.4,117.4 
		120.3,117.9 119.2,118.4 118,118.9 116.9,119.3 115.7,119.7 114.6,120.1 113.5,120.5 112.3,120.8 111.2,121 110,121.2 108.8,121.4 
		107.6,121.5 106.4,121.5 105.2,121.5 104,121.4 102.9,121.2 101.7,121 100.6,120.8 99.5,120.5 98.3,120.1 97.2,119.7 96,119.3 
		94.9,118.9 93.8,118.4 92.7,117.9 91.6,117.4 90.5,116.8 89.4,116.3 88.2,115.7 87.1,115.3 86,114.7 84.9,114.1 83.8,113.7 
		82.7,113.1 81.6,112.7 80.5,112.3 79.2,111.8 78.1,111.4 77,111.1 75.8,110.8 74.7,110.5 73.5,110.3 72.4,110.1 71.2,110 70,110 
		68.8,110 67.6,110.1 66.3,110.3 65,110.4 63.8,110.8 62.5,111 61.3,111.3 60,111.7 58.8,112.1 57.5,112.6 56.3,113 55,113.4 
		53.8,114 52.6,114.5 51.3,115 50.1,115.5 48.9,116 47.7,116.6 46.5,117.1 45.3,117.6 44.2,118.1 43,118.6 41.9,119 40.7,119.4 
		39.6,119.8 38.5,120.2 37.5,120.5 36.5,120.9 35.4,121.1 34.4,121.2 33.5,121.4 32.6,121.5 31.7,121.6 30.8,121.6 30,121.6 
		29.1,121.5 28.4,121.4 27.7,121.2 26.8,121.1 26.2,120.9 25.4,120.7 24.8,120.5 24.1,120.2 23.5,120 22.8,119.7 22.3,119.4 
		21.7,119.1 21.2,118.8 20.6,118.5 20.1,118.1 19.6,117.8 19.1,117.5 18.7,117.1 18.2,116.8 17.7,116.4 17.4,116.1 17,115.8 
		16.5,115.5 16.1,115.2 15.8,114.9 15.5,114.6 15.1,114.4 14.8,114.1 	"/>
	<polygon id="XMLID_2_" class="st0" points="14.5,136 14.2,135.8 13.9,135.6 13.6,135.4 13.4,135.1 13.2,135 12.9,134.7 12.7,134.6 
		12.5,134.3 12.4,134.2 12.2,133.9 12.2,133.8 12.1,133.5 12,133.4 11.9,133.2 11.9,133.1 11.8,132.9 11.8,132.8 11.9,132.6 
		11.9,132.5 12,132.4 12.1,132.3 12.2,132.1 12.2,132 12.4,132 12.6,132 12.8,131.9 13,131.9 13.3,131.9 13.5,131.9 13.8,131.9 
		14.1,132 14.5,132 14.8,132.1 15.2,132.3 15.6,132.4 16,132.6 16.3,132.8 16.7,133.1 17.1,133.4 17.5,133.7 17.9,134 18.4,134.3 
		18.8,134.7 19.3,135 19.8,135.4 20.2,135.8 20.8,136.1 21.2,136.5 21.8,136.9 22.4,137.3 22.9,137.6 23.6,138 24.1,138.3 
		24.8,138.6 25.4,138.8 26.2,139.1 26.9,139.3 27.6,139.5 28.4,139.7 29.1,139.9 30,139.9 30.8,139.9 31.6,139.9 32.6,139.9 
		33.5,139.9 34.4,139.7 35.4,139.5 36.5,139.2 37.5,138.9 38.5,138.6 39.6,138.2 40.7,137.8 41.9,137.3 43,136.9 44.2,136.4 
		45.3,135.9 46.5,135.4 47.7,134.8 48.9,134.3 50.1,133.8 51.3,133.2 52.6,132.7 53.8,132.2 55,131.7 56.3,131.2 57.5,130.7 
		58.8,130.2 60,129.8 61.3,129.4 62.5,129.1 63.8,128.8 65,128.6 66.3,128.3 67.6,128.2 68.8,128.1 70,128.1 71.2,128.1 72.3,128.3 
		73.5,128.4 74.7,128.6 75.8,128.9 77,129.2 78.1,129.5 79.2,129.9 80.4,130.4 81.5,130.9 82.7,131.3 83.8,131.8 84.9,132.4 
		86,132.9 87.1,133.5 88.2,134 89.4,134.6 90.5,135.1 91.5,135.7 92.6,136.1 93.8,136.7 94.9,137.2 96,137.6 97.2,138.1 98.3,138.5 
		99.4,138.8 100.6,139.1 101.7,139.5 102.8,139.6 104,139.8 105.2,139.9 106.3,139.9 107.5,139.9 108.8,139.8 110,139.6 
		111.1,139.5 112.3,139.1 113.4,138.8 114.6,138.5 115.7,138.1 116.8,137.6 118,137.2 119.2,136.7 120.3,136.1 121.4,135.7 
		122.5,135.1 123.7,134.6 124.8,134 125.9,133.5 127,132.9 128.1,132.4 129.3,131.8 130.5,131.3 131.6,130.9 132.7,130.4 
		133.8,129.9 135,129.5 136.1,129.2 137.3,128.9 138.4,128.6 139.7,128.4 140.9,128.3 142,128.1 143.2,128.1 144.4,128.1 
		145.6,128.3 146.8,128.4 147.9,128.6 149.1,128.9 150.2,129.2 151.4,129.5 152.6,129.9 153.7,130.4 154.8,130.9 156,131.3 
		157.1,131.8 158.2,132.4 159.3,132.9 160.4,133.5 161.6,134 162.7,134.6 163.8,135.1 165,135.7 166.1,136.1 167.2,136.7 
		168.3,137.2 169.4,137.6 170.7,138.1 171.8,138.5 173,138.8 174.1,139.1 175.3,139.5 176.4,139.6 177.6,139.8 178.8,139.9 
		180,139.9 181.1,139.9 182.3,139.8 183.6,139.6 184.8,139.5 186.1,139.2 187.3,138.9 188.5,138.6 189.7,138.2 190.9,137.7 
		192.1,137.3 193.4,136.9 194.6,136.4 195.8,135.8 197,135.4 198.1,134.8 199.3,134.3 200.5,133.7 201.7,133.2 202.9,132.7 
		204,132.1 205.2,131.7 206.3,131.1 207.4,130.6 208.4,130.2 209.5,129.8 210.6,129.4 211.6,129.1 212.6,128.8 213.6,128.6 
		214.5,128.3 215.5,128.2 216.4,128.1 217.3,128 218.2,128 219,128.1 219.8,128.1 220.7,128.3 221.5,128.3 222.2,128.5 223,128.7 
		223.6,129 224.4,129.2 225,129.4 225.7,129.7 226.3,130 227,130.3 227.5,130.6 228.2,130.9 228.7,131.3 229.2,131.7 229.8,132 
		230.3,132.4 230.8,132.7 231.2,133.1 231.7,133.4 232.2,133.7 232.5,134.1 233,134.4 233.4,134.6 233.8,135 234.1,135.3 
		234.5,135.5 234.8,135.8 235.1,136 235.4,136.1 235.7,136.4 236,136.5 236.3,136.8 236.5,137 236.7,137.2 236.9,137.4 237.1,137.6 
		237.3,137.8 237.5,138 237.6,138.2 237.6,138.4 237.7,138.5 237.8,138.7 237.8,138.9 237.8,139.1 237.8,139.2 237.8,139.3 
		237.8,139.5 237.7,139.6 237.6,139.7 237.6,139.8 237.4,139.9 237.3,139.9 237.1,140 236.9,140 236.6,140.1 236.4,140.1 
		236.1,140.1 235.8,140 235.5,140 235.1,139.9 234.8,139.9 234.4,139.7 234,139.5 233.7,139.3 233.2,139.1 232.8,138.8 232.4,138.6 
		231.9,138.3 231.4,138 231,137.6 230.5,137.3 230,136.9 229.6,136.5 229,136.1 228.5,135.8 227.9,135.4 227.4,135 226.8,134.7 
		226.1,134.4 225.6,134 224.9,133.7 224.3,133.4 223.5,133.2 222.9,132.9 222.2,132.7 221.4,132.4 220.7,132.3 219.8,132.1 219,132 
		218.2,132 217.3,132 216.4,132 215.5,132.1 214.5,132.3 213.6,132.4 212.6,132.7 211.6,133 210.6,133.3 209.5,133.7 208.4,134.1 
		207.4,134.5 206.3,135 205.2,135.4 204,135.9 202.9,136.5 201.6,136.9 200.5,137.5 199.3,138 198.1,138.5 196.9,139.1 195.7,139.5 
		194.5,140.1 193.3,140.6 192.1,141 190.9,141.4 189.7,141.8 188.5,142.2 187.3,142.5 186,142.8 184.8,143.1 183.6,143.2 
		182.3,143.4 181.1,143.5 180,143.6 178.8,143.5 177.6,143.4 176.4,143.2 175.3,143 174.1,142.8 173,142.5 171.8,142.1 170.7,141.7 
		169.5,141.3 168.3,140.9 167.2,140.4 166.1,139.9 165,139.4 163.9,138.8 162.8,138.4 161.6,137.8 160.4,137.3 159.3,136.7 
		158.2,136.1 157.1,135.7 156,135.2 154.8,134.7 153.7,134.3 152.6,133.9 151.4,133.5 150.2,133.1 149.1,132.8 147.9,132.5 
		146.8,132.3 145.6,132.1 144.4,132 143.2,132 142,132 140.9,132.1 139.7,132.3 138.4,132.5 137.3,132.8 136.1,133.1 135,133.5 
		133.9,133.9 132.7,134.3 131.6,134.7 130.5,135.2 129.4,135.7 128.1,136.1 127,136.7 125.9,137.3 124.8,137.8 123.7,138.4 
		122.6,138.8 121.4,139.4 120.3,139.9 119.2,140.4 118,140.9 116.8,141.3 115.7,141.7 114.6,142.1 113.4,142.5 112.3,142.8 
		111.1,143 110,143.2 108.8,143.4 107.5,143.5 106.3,143.6 105.2,143.5 104,143.4 102.9,143.2 101.7,143 100.6,142.8 99.4,142.5 
		98.3,142.1 97.2,141.7 96,141.3 94.9,140.9 93.8,140.4 92.7,139.9 91.6,139.4 90.5,138.8 89.4,138.4 88.2,137.8 87.1,137.3 
		86,136.7 84.9,136.1 83.8,135.7 82.7,135.2 81.6,134.7 80.4,134.3 79.2,133.9 78.1,133.5 77,133.1 75.8,132.8 74.7,132.5 
		73.5,132.3 72.3,132.1 71.2,132 70,132 68.8,132 67.6,132.1 66.3,132.3 65,132.5 63.8,132.8 62.5,133 61.3,133.4 60,133.7 
		58.8,134.1 57.5,134.6 56.3,135 55,135.5 53.8,136 52.5,136.5 51.3,137 50.1,137.6 48.9,138 47.7,138.6 46.5,139.1 45.3,139.6 
		44.1,140.1 43,140.6 41.9,141 40.7,141.4 39.6,141.8 38.5,142.2 37.5,142.5 36.5,142.8 35.4,143.1 34.4,143.3 33.5,143.4 
		32.6,143.6 31.6,143.6 30.8,143.6 30,143.6 29.1,143.5 28.4,143.4 27.6,143.2 26.8,143.1 26.1,142.9 25.4,142.7 24.8,142.5 
		24.1,142.2 23.5,142 22.8,141.7 22.3,141.4 21.7,141.1 21.2,140.8 20.6,140.5 20,140.2 19.6,139.8 19.1,139.5 18.7,139.1 
		18.2,138.8 17.7,138.4 17.4,138.1 16.9,137.8 16.5,137.5 16.1,137.2 15.8,136.9 15.4,136.6 15.1,136.4 14.8,136.1 	"/>
</g>
</svg>
