<?xml version="1.0" encoding="utf-8"?>
<!-- Generator: Adobe Illustrator 19.0.0, SVG Export Plug-In . SVG Version: 6.00 Build 0)  -->
<svg version="1.1" id="Layer_1" xmlns="http://www.w3.org/2000/svg" xmlns:xlink="http://www.w3.org/1999/xlink" x="0px" y="0px"
	 viewBox="0 0 250 250" style="enable-background:new 0 0 250 250;" xml:space="preserve">
<g id="XMLID_28_">
	<g id="XMLID_30_">
		<g id="XMLID_32_">
			<path id="XMLID_16_" d="M173.7,125.7c-0.4,0-0.7-0.1-1-0.4c-0.5-0.5-0.5-1.4,0-2l9.2-9.2c0.5-0.5,1.4-0.5,2,0
				c0.5,0.5,0.5,1.4,0,2l-9.2,9.2C174.4,125.6,174.1,125.7,173.7,125.7z"/>
			<g id="XMLID_33_">
				<polygon id="XMLID_15_" points="163.4,110.9 187.1,134.6 163.5,134.6 				"/>
			</g>
		</g>
		
			<rect id="XMLID_14_" x="182" y="94.6" transform="matrix(0.7071 0.7071 -0.7071 0.7071 133.7577 -98.6062)" width="7.9" height="35.2"/>
	</g>
	<path id="XMLID_13_" d="M209.2,112.1c-0.4,0-0.7-0.1-1-0.4L185.4,89c-0.5-0.5-0.5-1.4,0-2c0.5-0.5,1.4-0.5,2,0l22.7,22.7
		c0.5,0.5,0.5,1.4,0,2C209.9,112,209.5,112.1,209.2,112.1z"/>
</g>
<path id="XMLID_12_" d="M201.7,165.4h-39.6c-3,0-5.5-2.5-5.5-5.5c0-3,2.5-5.5,5.5-5.5h28.6v-30h41.6c3,0,5.5,2.5,5.5,5.5
	c0,3-2.5,5.5-5.5,5.5h-30.7V165.4z"/>
<g id="XMLID_19_">
	<g id="XMLID_21_">
		<g id="XMLID_23_">
			<path id="XMLID_11_" d="M75.8,125.7c-0.4,0-0.7-0.1-1-0.4l-9.2-9.2c-0.5-0.5-0.5-1.4,0-2c0.5-0.5,1.4-0.5,2,0l9.2,9.2
				c0.5,0.5,0.5,1.4,0,2C76.5,125.6,76.1,125.7,75.8,125.7z"/>
			<g id="XMLID_24_">
				<polygon id="XMLID_10_" points="62.4,134.6 86,110.9 86,134.6 				"/>
			</g>
		</g>
		
			<rect id="XMLID_7_" x="46" y="108.2" transform="matrix(0.7072 0.707 -0.707 0.7072 97.9159 -12.1125)" width="35.2" height="7.9"/>
	</g>
	<path id="XMLID_2_" d="M40.3,112.1c-0.4,0-0.7-0.1-1-0.4c-0.5-0.5-0.5-1.4,0-2L62.1,87c0.5-0.5,1.4-0.5,2,0c0.5,0.5,0.5,1.4,0,2
		l-22.7,22.7C41,112,40.7,112.1,40.3,112.1z"/>
</g>
<path id="XMLID_1_" d="M87.4,165.4H47.8v-30H17.2c-3,0-5.5-2.5-5.5-5.5c0-3,2.5-5.5,5.5-5.5h41.6v30h28.6c3,0,5.5,2.5,5.5,5.5
	C92.9,162.9,90.4,165.4,87.4,165.4z"/>
</svg>
