<?xml version="1.0" encoding="UTF-8" standalone="no"?>
<!-- Generator: Adobe Illustrator 19.0.0, SVG Export Plug-In . SVG Version: 6.00 Build 0)  -->

<svg
   xmlns:dc="http://purl.org/dc/elements/1.1/"
   xmlns:cc="http://creativecommons.org/ns#"
   xmlns:rdf="http://www.w3.org/1999/02/22-rdf-syntax-ns#"
   xmlns:svg="http://www.w3.org/2000/svg"
   xmlns="http://www.w3.org/2000/svg"
   xmlns:sodipodi="http://sodipodi.sourceforge.net/DTD/sodipodi-0.dtd"
   xmlns:inkscape="http://www.inkscape.org/namespaces/inkscape"
   version="1.1"
   id="Layer_1"
   x="0px"
   y="0px"
   viewBox="0 0 250 250"
   style="enable-background:new 0 0 250 250;"
   xml:space="preserve"
   inkscape:version="0.91 r13725"
   sodipodi:docname="step-up.svg"><metadata
     id="metadata4243"><rdf:RDF><cc:Work
         rdf:about=""><dc:format>image/svg+xml</dc:format><dc:type
           rdf:resource="http://purl.org/dc/dcmitype/StillImage" /></cc:Work></rdf:RDF></metadata><defs
     id="defs4241" /><sodipodi:namedview
     pagecolor="#ffffff"
     bordercolor="#666666"
     borderopacity="1"
     objecttolerance="10"
     gridtolerance="10"
     guidetolerance="10"
     inkscape:pageopacity="0"
     inkscape:pageshadow="2"
     inkscape:window-width="1377"
     inkscape:window-height="838"
     id="namedview4239"
     showgrid="false"
     inkscape:zoom="2.756"
     inkscape:cx="126.6328"
     inkscape:cy="139.51379"
     inkscape:window-x="0"
     inkscape:window-y="0"
     inkscape:window-maximized="0"
     inkscape:current-layer="Layer_1" /><path
     id="XMLID_12_"
     d="m 153.16456,200.59593 -76.2034,0 c -5.787605,0 -10.610615,-4.57373 -10.610615,-10.06221 0,-5.48846 4.82301,-10.06219 10.610615,-10.06219 l 55.17511,0 0,-54.88477 80.25473,0 c 5.78759,0 10.61061,4.57373 10.61061,10.06221 0,5.48848 -4.82302,10.06222 -10.61061,10.06222 l -59.22644,0 0,54.88474 z"
     inkscape:connector-curvature="0" /><g
     id="XMLID_19_"
     transform="matrix(1.9292,0,0,1.8294917,24.486906,-102.002)"><g
       id="XMLID_21_"><g
         id="XMLID_23_"><path
           id="XMLID_11_"
           d="m 50.6,97.3 c 0,0.4 -0.1,0.7 -0.4,1 l -9.2,9.2 c -0.5,0.5 -1.4,0.5 -2,0 -0.5,-0.5 -0.5,-1.4 0,-2 l 9.2,-9.2 c 0.5,-0.5 1.4,-0.5 2,0 0.3,0.3 0.4,0.7 0.4,1 z"
           inkscape:connector-curvature="0" /><g
           id="XMLID_24_"><polygon
             id="XMLID_10_"
             points="59.5,87.1 59.5,110.7 35.8,87.1 " /></g></g><rect
         id="XMLID_7_"
         x="19.5"
         y="105.6"
         transform="matrix(0.707,-0.7072,0.7072,0.707,-66.6008,58.2871)"
         width="35.200001"
         height="7.9000001" /></g><path
       id="XMLID_2_"
       d="m 37,132.8 c 0,0.4 -0.1,0.7 -0.4,1 -0.5,0.5 -1.4,0.5 -2,0 L 11.9,111 c -0.5,-0.5 -0.5,-1.4 0,-2 0.5,-0.5 1.4,-0.5 2,0 l 22.7,22.7 c 0.3,0.4 0.4,0.7 0.4,1.1 z"
       inkscape:connector-curvature="0" /></g></svg>