<?xml version="1.0" encoding="utf-8"?>
<!-- Generator: Adobe Illustrator 19.0.0, SVG Export Plug-In . SVG Version: 6.00 Build 0)  -->
<svg version="1.1" id="Layer_1" xmlns="http://www.w3.org/2000/svg" xmlns:xlink="http://www.w3.org/1999/xlink" x="0px" y="0px"
	 viewBox="0 0 250 250" style="enable-background:new 0 0 250 250;" xml:space="preserve">
<g id="XMLID_28_">
	<g id="XMLID_30_">
		<g id="XMLID_32_">
			<path id="XMLID_16_" d="M197.9,97.3c0-0.4,0.1-0.7,0.4-1c0.5-0.5,1.4-0.5,2,0l9.2,9.2c0.5,0.5,0.5,1.4,0,2c-0.5,0.5-1.4,0.5-2,0
				l-9.2-9.2C198,98,197.9,97.7,197.9,97.3z"/>
			<g id="XMLID_33_">
				<polygon id="XMLID_15_" points="212.7,87.1 189,110.7 189,87.1 				"/>
			</g>
		</g>
		
			<rect id="XMLID_14_" x="207.5" y="91.9" transform="matrix(-0.7071 0.7071 -0.7071 -0.7071 438.4013 37.4532)" width="7.9" height="35.2"/>
	</g>
	<path id="XMLID_13_" d="M211.5,132.8c0-0.4,0.1-0.7,0.4-1l22.7-22.7c0.5-0.5,1.4-0.5,2,0c0.5,0.5,0.5,1.4,0,2l-22.7,22.7
		c-0.5,0.5-1.4,0.5-2,0C211.6,133.5,211.5,133.1,211.5,132.8z"/>
</g>
<path id="XMLID_12_" d="M66.7,165.4H27.2c-3,0-5.5-2.5-5.5-5.5c0-3,2.5-5.5,5.5-5.5h28.6v-30h41.6c3,0,5.5,2.5,5.5,5.5
	c0,3-2.5,5.5-5.5,5.5H66.7V165.4z"/>
<g id="XMLID_19_">
	<g id="XMLID_21_">
		<g id="XMLID_23_">
			<path id="XMLID_11_" d="M50.6,97.3c0,0.4-0.1,0.7-0.4,1l-9.2,9.2c-0.5,0.5-1.4,0.5-2,0c-0.5-0.5-0.5-1.4,0-2l9.2-9.2
				c0.5-0.5,1.4-0.5,2,0C50.5,96.6,50.6,97,50.6,97.3z"/>
			<g id="XMLID_24_">
				<polygon id="XMLID_10_" points="59.5,110.7 35.8,87.1 59.5,87.1 				"/>
			</g>
		</g>
		
			<rect id="XMLID_7_" x="19.5" y="105.6" transform="matrix(0.707 -0.7072 0.7072 0.707 -66.6008 58.2871)" width="35.2" height="7.9"/>
	</g>
	<path id="XMLID_2_" d="M37,132.8c0,0.4-0.1,0.7-0.4,1c-0.5,0.5-1.4,0.5-2,0L11.9,111c-0.5-0.5-0.5-1.4,0-2c0.5-0.5,1.4-0.5,2,0
		l22.7,22.7C36.9,132.1,37,132.4,37,132.8z"/>
</g>
<path id="XMLID_1_" d="M222.3,165.4h-39.6v-30h-30.6c-3,0-5.5-2.5-5.5-5.5c0-3,2.5-5.5,5.5-5.5h41.6v30h28.6c3,0,5.5,2.5,5.5,5.5
	C227.8,162.9,225.4,165.4,222.3,165.4z"/>
</svg>
