<?xml version="1.0" encoding="utf-8"?>
<!-- Generator: Adobe Illustrator 19.0.0, SVG Export Plug-In . SVG Version: 6.00 Build 0)  -->
<svg version="1.1" id="Layer_1" xmlns="http://www.w3.org/2000/svg" xmlns:xlink="http://www.w3.org/1999/xlink" x="0px" y="0px"
	 viewBox="0 0 250 250" style="enable-background:new 0 0 250 250;" xml:space="preserve">
<g id="XMLID_28_">
	<g id="XMLID_30_">
		<g id="XMLID_32_">
			<path id="XMLID_16_" d="M161,85.2c1.1,0,1.9,0.3,2.6,1.1c1.3,1.3,1.3,3.7,0,5.3l-24.3,24.3c-1.3,1.3-3.7,1.3-5.3,0
				c-1.3-1.3-1.3-3.7,0-5.3l24.3-24.3C159.2,85.5,160,85.2,161,85.2z"/>
			<g id="XMLID_33_">
				<polygon id="XMLID_15_" points="188,124.4 125.6,61.7 188,61.7 				"/>
			</g>
		</g>
		
			<rect id="XMLID_14_" x="118.2" y="74.5" transform="matrix(0.7071 0.7071 -0.7071 0.7071 123.3117 -55.4777)" width="20.9" height="93.1"/>
	</g>
	<path id="XMLID_13_" d="M67.1,121.2c1.1,0,1.9,0.3,2.6,1.1l60.1,60.1c1.3,1.3,1.3,3.7,0,5.3c-1.3,1.3-3.7,1.3-5.3,0l-60.1-60.1
		c-1.3-1.3-1.3-3.7,0-5.3C65.2,121.5,66.3,121.2,67.1,121.2z"/>
</g>
</svg>
