<?xml version="1.0" encoding="UTF-8" standalone="no"?>
<!-- Generator: Adobe Illustrator 19.0.0, SVG Export Plug-In . SVG Version: 6.00 Build 0)  -->

<svg
   xmlns:dc="http://purl.org/dc/elements/1.1/"
   xmlns:cc="http://creativecommons.org/ns#"
   xmlns:rdf="http://www.w3.org/1999/02/22-rdf-syntax-ns#"
   xmlns:svg="http://www.w3.org/2000/svg"
   xmlns="http://www.w3.org/2000/svg"
   xmlns:sodipodi="http://sodipodi.sourceforge.net/DTD/sodipodi-0.dtd"
   xmlns:inkscape="http://www.inkscape.org/namespaces/inkscape"
   version="1.1"
   id="Layer_1"
   x="0px"
   y="0px"
   viewBox="0 0 250 250"
   style="enable-background:new 0 0 250 250;"
   xml:space="preserve"
   inkscape:version="0.91 r13725"
   sodipodi:docname="camp.svg"><metadata
     id="metadata16"><rdf:RDF><cc:Work
         rdf:about=""><dc:format>image/svg+xml</dc:format><dc:type
           rdf:resource="http://purl.org/dc/dcmitype/StillImage" /></cc:Work></rdf:RDF></metadata><defs
     id="defs14" /><sodipodi:namedview
     pagecolor="#ffffff"
     bordercolor="#666666"
     borderopacity="1"
     objecttolerance="10"
     gridtolerance="10"
     guidetolerance="10"
     inkscape:pageopacity="0"
     inkscape:pageshadow="2"
     inkscape:window-width="1536"
     inkscape:window-height="801"
     id="namedview12"
     showgrid="false"
     inkscape:zoom="2.6903476"
     inkscape:cx="122.88259"
     inkscape:cy="132.1738"
     inkscape:window-x="-8"
     inkscape:window-y="-8"
     inkscape:window-maximized="1"
     inkscape:current-layer="XMLID_2_" /><style
     type="text/css"
     id="style3">
	.st0{fill-rule:evenodd;clip-rule:evenodd;fill:none;stroke:#000000;stroke-width:9.4807;stroke-miterlimit:10;}
	.st1{font-family:&quot;Arial Black&quot;, &quot;Arial Bold&quot;, Gadget, sans-serif;}
	.st2{font-size:50px;}
</style><path
     id="XMLID_1_"
     class="st0"
     d="M219.5,231.5H29.2c-6.6,0-12-5.4-12-12V30.1c0-6.6,5.4-12,12-12h190.3c6.6,0,12,5.4,12,12v189.4  C231.5,226.1,226.1,231.5,219.5,231.5z" /><g
     id="XMLID_2_"><polygon
       id="XMLID_10_"
       points="51.5,181.6 31.6,181.4 114.1,63.8 124.8,51 135.1,63.8  " /><polygon
       id="XMLID_7_"
       points="197.8,181.6 217.7,181.4 135.1,63.8 124.4,51 114.1,63.8  " /><polygon
       id="XMLID_12_"
       points="138.8,38 127,54.8 124.1,54.8 135.9,38 "
       transform="translate(-2,0)" /><polygon
       id="XMLID_11_"
       points="115.1,38 112.2,38 124,54.8 126.9,54.8  " /></g><g
     style="font-size:50px;font-family:'Arial Black', 'Arial Bold', Gadget, sans-serif"
     id="XMLID_13_"><path
       d="m 59.170921,182.87599 20.703125,0 q 5.175782,0 7.934571,2.56348 2.783203,2.56347 2.783203,6.34765 0,3.17383 -1.977539,5.44434 -1.31836,1.51367 -3.857422,2.39258 3.857422,0.92773 5.664062,3.19824 1.831055,2.24609 1.831055,5.66406 0,2.78321 -1.293945,5.00489 -1.293946,2.22168 -3.540039,3.51562 -1.391602,0.80567 -4.199219,1.17188 -3.735352,0.48828 -4.956055,0.48828 l -19.091797,0 0,-35.79102 z m 11.157227,14.03809 4.80957,0 q 2.587891,0 3.588867,-0.87891 1.025391,-0.90332 1.025391,-2.58789 0,-1.5625 -1.025391,-2.44141 -1.000976,-0.8789 -3.515625,-0.8789 l -4.882812,0 0,6.78711 z m 0,14.0625 5.639648,0 q 2.856446,0 4.028321,-1.00098 1.171875,-1.02539 1.171875,-2.73437 0,-1.58692 -1.171875,-2.53907 -1.147461,-0.97656 -4.052735,-0.97656 l -5.615234,0 0,7.25098 z"
       style="font-size:50px;font-family:'Arial Black', 'Arial Bold', Gadget, sans-serif"
       id="path3345"
       inkscape:connector-curvature="0" /><path
       d="m 98.45315,182.87599 11.08398,0 0,35.79102 -11.08398,0 0,-35.79102 z"
       style="font-size:50px;font-family:'Arial Black', 'Arial Bold', Gadget, sans-serif"
       id="path3347"
       inkscape:connector-curvature="0" /><path
       d="m 113.90725,182.87599 11.57227,0 8.05664,25.75684 7.93457,-25.75684 11.23046,0 -13.28125,35.79102 -11.9873,0 -13.52539,-35.79102 z"
       style="font-size:50px;font-family:'Arial Black', 'Arial Bold', Gadget, sans-serif"
       id="path3349"
       inkscape:connector-curvature="0" /><path
       d="m 152.70119,182.87599 12.28028,0 7.22656,12.08496 7.22656,-12.08496 12.20703,0 -13.91601,20.80078 0,14.99024 -11.08399,0 0,-14.99024 -13.94043,-20.80078 z"
       style="font-size:50px;font-family:'Arial Black', 'Arial Bold', Gadget, sans-serif"
       id="path3351"
       inkscape:connector-curvature="0" /></g></svg>