<?xml version="1.0" encoding="UTF-8" standalone="no"?>
<!-- Generator: Adobe Illustrator 19.0.0, SVG Export Plug-In . SVG Version: 6.00 Build 0)  -->

<svg
   xmlns:dc="http://purl.org/dc/elements/1.1/"
   xmlns:cc="http://creativecommons.org/ns#"
   xmlns:rdf="http://www.w3.org/1999/02/22-rdf-syntax-ns#"
   xmlns:svg="http://www.w3.org/2000/svg"
   xmlns="http://www.w3.org/2000/svg"
   xmlns:sodipodi="http://sodipodi.sourceforge.net/DTD/sodipodi-0.dtd"
   xmlns:inkscape="http://www.inkscape.org/namespaces/inkscape"
   version="1.1"
   id="Layer_1"
   x="0px"
   y="0px"
   viewBox="0 0 250 250"
   style="enable-background:new 0 0 250 250;"
   xml:space="preserve"
   inkscape:version="0.91 r13725"
   sodipodi:docname="finish.svg"><metadata
     id="metadata135"><rdf:RDF><cc:Work
         rdf:about=""><dc:format>image/svg+xml</dc:format><dc:type
           rdf:resource="http://purl.org/dc/dcmitype/StillImage" /></cc:Work></rdf:RDF></metadata><defs
     id="defs133" /><sodipodi:namedview
     pagecolor="#ffffff"
     bordercolor="#666666"
     borderopacity="1"
     objecttolerance="10"
     gridtolerance="10"
     guidetolerance="10"
     inkscape:pageopacity="0"
     inkscape:pageshadow="2"
     inkscape:window-width="1920"
     inkscape:window-height="1017"
     id="namedview131"
     showgrid="false"
     inkscape:zoom="3.9855505"
     inkscape:cx="120.59599"
     inkscape:cy="124.3157"
     inkscape:window-x="1912"
     inkscape:window-y="-8"
     inkscape:window-maximized="1"
     inkscape:current-layer="text129" /><style
     type="text/css"
     id="style3">
	.st0{fill:#FFFFFF;}
	.st1{font-family:&quot;Arial Black&quot;, &quot;Arial Bold&quot;, Gadget, sans-serif;}
	.st2{font-size:50px;}
</style><g
     id="XMLID_166_"><polygon
       id="XMLID_165_"
       points="125.1,182.3 129.7,182.3 134.2,181.9 138.6,181.4 143,180.8 147.3,179.9 151.5,178.9 155.6,177.7    159.7,176.3 163.6,174.8 167.4,173.1 171.1,171.3 174.8,169.3 178.2,167.1 181.6,164.9 184.8,162.5 188,159.9 190.9,157.3    193.7,154.6 196.3,151.7 198.8,148.7 201.1,145.6 203.3,142.3 205.2,139.1 207,135.7 208.6,132.2 210,128.7 211.2,125 212.2,121.4    213,117.6 213.6,113.8 213.9,110 214,106 213.9,102.1 213.6,98.2 213,94.4 212.2,90.7 211.2,87 210,83.4 208.6,79.8 207,76.4    205.2,73 203.3,69.7 201.1,66.5 198.8,63.4 196.3,60.4 193.7,57.5 190.9,54.7 188,52.1 184.8,49.6 181.6,47.1 178.2,44.9    174.8,42.8 171.1,40.8 167.4,38.9 163.6,37.2 159.7,35.7 155.6,34.3 151.5,33.1 147.3,32.1 143,31.2 138.6,30.5 134.2,30.1    129.7,29.8 125.1,29.7 120.6,29.8 116,30.1 111.6,30.5 107.2,31.2 102.9,32.1 98.7,33.1 94.6,34.3 90.5,35.7 86.7,37.2 82.8,38.9    79.1,40.8 75.5,42.8 72,44.9 68.6,47.1 65.4,49.6 62.3,52.1 59.4,54.7 56.5,57.5 53.9,60.4 51.4,63.4 49.1,66.5 47,69.7 45,73    43.2,76.4 41.6,79.8 40.2,83.4 39,87 38,90.7 37.2,94.4 36.6,98.2 36.3,102.1 36.2,106 36.3,110 36.6,113.8 37.2,117.6 38,121.4    39,125 40.2,128.7 41.6,132.2 43.2,135.7 45,139.1 47,142.3 49.1,145.6 51.4,148.7 53.9,151.7 56.5,154.6 59.4,157.3 62.3,159.9    65.4,162.5 68.6,164.9 72,167.1 75.5,169.3 79.1,171.3 82.8,173.1 86.7,174.8 90.5,176.3 94.6,177.7 98.7,178.9 102.9,179.9    107.2,180.8 111.6,181.4 116,181.9 120.6,182.3  " /><polygon
       id="XMLID_164_"
       class="st0"
       points="152.7,163.1 156.1,161.9 159.3,160.4 162.4,158.9 165.5,157.3 168.4,155.5    171.2,153.5 173.9,151.5 176.4,149.4 178.8,147.2 181,144.9 183.1,142.6 185.1,140.2 186.9,137.6 188.6,135.1 190.2,132.4    191.6,129.7 192.9,126.9 193.9,124.1 194.9,121.2 195.6,118.3 196.3,115.4 196.7,112.4 197,109.4 197.1,106.4 197.1,103.4    196.8,100.4 196.4,97.3 195.8,94.3 195,91.3 194.1,88.3 192.9,85.3 191.7,82.4 190.1,79.5 188.5,76.7 186.7,74 184.7,71.3    182.6,68.8 180.5,66.5 178.1,64.2 175.7,62 173.1,60 170.5,58.1 167.7,56.2 164.8,54.5 161.9,52.9 158.9,51.5 155.8,50.2    152.6,48.9 149.4,47.9 146.2,46.9 142.8,46.1 139.4,45.5 136,44.9 132.6,44.6 129.1,44.3 125.5,44.2 122.1,44.2 118.5,44.4    115,44.8 111.5,45.3 108,46 104.4,46.8 101,47.8 97.5,48.9 94.1,50.2 90.9,51.6 87.8,53.1 84.7,54.8 81.8,56.6 79,58.5 76.3,60.5    73.9,62.6 71.4,64.8 69.2,67 67.1,69.5 65.1,71.9 63.3,74.4 61.6,77 60,79.7 58.6,82.4 57.3,85.2 56.3,88 55.3,90.8 54.6,93.7    54,96.7 53.5,99.6 53.2,102.6 53.1,105.6 53.2,108.7 53.4,111.6 53.8,114.7 54.4,117.7 55.2,120.8 56.1,123.7 57.3,126.7    58.5,129.7 60.1,132.6 61.7,135.4 63.5,138.1 65.5,140.7 67.6,143.2 69.7,145.6 72.1,147.9 74.5,150 77.1,152.1 79.7,154    82.5,155.8 85.4,157.5 88.3,159.1 91.3,160.6 94.4,161.9 97.6,163.1 100.8,164.2 104,165.1 107.4,165.9 110.8,166.6 114.2,167.1    117.7,167.5 121.1,167.8 124.7,167.8 128.1,167.8 131.7,167.6 135.2,167.2 138.8,166.7 142.2,166.1 145.8,165.3 149.2,164.3  " /><polygon
       id="XMLID_151_"
       class="st0"
       points="36.2,55.1 36.8,54.6 37.4,54 37.9,53.6 38.6,53 39.1,52.5 39.7,52 40.3,51.5 40.8,51    41.3,50.5 41.9,50 42.4,49.5 43,49.1 43.6,48.6 44.1,48.1 44.6,47.7 45.2,47.3 45.7,46.9 46.3,46.4 46.9,46 47.4,45.7 48,45.3    48.6,45 49.2,44.7 49.8,44.4 50.4,44.2 51.1,43.9 51.7,43.7 52.3,43.5 53,43.3 53.7,43.1 54.4,43 55.2,42.9 55.9,42.8 56.6,42.8    57.4,42.7 58.2,42.7 59,42.7 59.8,42.7 60.7,42.8 61.5,42.8 62.4,42.9 63.4,43 64.3,43.1 65.2,43.3 66.2,43.4 67.2,43.6 68.2,43.8    69.3,44 70.4,44.3 71.4,44.6 72.6,44.9 73.8,45.2 75,45.5 76.2,45.9 77.4,46.3 78.7,46.7 80,47.1 81.3,47.6 82.7,48.1 84.2,48.6    85.6,49.1 87.1,49.7 88.6,50.3 90.2,50.9 91.3,51.4 92.5,51.8 93.7,52.3 94.9,52.7 96.2,53.1 97.4,53.5 98.7,53.8 99.9,54.2    101.1,54.5 102.4,54.7 103.6,54.9 104.9,55.2 106.1,55.4 107.3,55.5 108.5,55.6 109.7,55.6 110.9,55.6 112.1,55.6 113.2,55.5    114.4,55.4 115.5,55.2 116.5,54.9 117.6,54.7 118.5,54.3 119.6,54 120.5,53.5 121.4,53 122.2,52.4 123.1,51.8 123.9,51.1    124.6,50.3 125.3,49.4 125.5,49.1 125.9,48.7 126.1,48.2 126.4,47.8 126.7,47.3 126.9,46.9 127.2,46.4 127.4,45.9 127.6,45.3    127.9,44.8 128.2,44.2 128.4,43.6 128.7,43 128.9,42.3 129.2,41.6 129.4,40.9 129.7,40.2 129.9,39.4 130.1,38.6 130.4,37.8    130.7,37 130.9,36.1 131.2,35.2 131.4,34.2 131.7,33.2 132,32.2 132.2,31.2 132.5,30.1 132.7,29 133,27.8 133.3,26.7 133.6,25.4    172.5,116.5 172.3,117 172,117.6 171.8,118.3 171.4,119 171.2,119.6 171,120.3 170.7,121 170.5,121.7 170.2,122.5 170,123.2    169.8,123.9 169.5,124.7 169.3,125.5 169,126.2 168.8,127 168.5,127.7 168.3,128.5 168.1,129.3 167.7,130 167.5,130.7 167.2,131.5    166.9,132.2 166.6,132.9 166.4,133.6 166.1,134.3 165.7,134.9 165.4,135.6 165,136.2 164.7,136.8 164.3,137.4 164,138 163.6,138.5    163,138.9 162.4,139.2 161.9,139.6 161.5,139.9 161.1,140.2 160.6,140.5 160.2,140.7 159.9,141 159.5,141.3 159.1,141.5    158.7,141.7 158.4,141.9 158.1,142.1 157.8,142.3 157.4,142.5 157,142.7 156.7,142.8 156.3,143 156,143.2 155.6,143.3 155.2,143.4    154.8,143.6 154.3,143.7 153.8,143.8 153.3,144 152.8,144.1 152.2,144.3 151.6,144.5 151,144.6 150.4,144.7 149.6,144.9    148.8,145.1 147.8,145.2 146.6,145.3 145.4,145.2 144.1,145.1 142.7,144.9 141.2,144.5 139.6,144.1 138,143.7 136.4,143.2    134.7,142.6 133,142 131.3,141.3 129.5,140.6 127.7,139.8 126,139.1 124.3,138.2 122.6,137.5 120.9,136.7 119.2,135.9 117.6,135.1    116,134.3 114.6,133.5 113.1,132.8 111.8,132 110.6,131.3 109.4,130.7 108.3,130.2 107.4,129.6 106.6,129.1 105.9,128.8    105.3,128.4 104.9,128.2 102.8,127 100.7,126 98.7,125 96.7,124.1 94.9,123.2 93.2,122.4 91.6,121.7 90,121.1 88.5,120.5 87.1,120    85.7,119.6 84.4,119.2 83.2,118.9 82.1,118.7 80.9,118.5 79.9,118.5 78.9,118.5 78,118.5 77.1,118.7 76.3,119 75.5,119.3    74.7,119.7 73.9,120.1 73.2,120.8 72.5,121.4 71.8,122.1 71.2,122.9 70.5,123.8 70,124.8 69.3,125.8 68.8,127 68.2,128.2  " /><polygon
       id="XMLID_150_"
       points="54.9,41.7 54.2,41.9 53.4,42 52.7,42.2 51.9,42.4 51.2,42.6 50.5,42.8 49.9,43.1 49.1,43.4    48.5,43.7 47.8,44 47.3,44.4 46.6,44.8 46.1,45.1 45.4,45.5 44.9,46 44.3,46.4 43.7,46.9 43.2,47.3 42.6,47.8 42,48.2 41.5,48.7    40.9,49.2 40.3,49.7 39.9,50.2 39.3,50.7 38.7,51.2 38.2,51.7 37.6,52.2 37,52.7 36.4,53.3 35.8,53.8 35.2,54.3 37.1,55.9    37.7,55.4 38.3,54.9 38.9,54.3 39.5,53.8 40.1,53.3 40.7,52.8 41.2,52.2 41.8,51.8 42.3,51.3 42.8,50.8 43.4,50.3 44,49.8    44.5,49.4 45,48.9 45.5,48.5 46.1,48.1 46.6,47.7 47.1,47.3 47.7,47 48.2,46.7 48.7,46.3 49.3,46 49.9,45.7 50.4,45.4 51,45.1    51.5,44.9 52.2,44.7 52.8,44.5 53.4,44.4 54,44.2 54.7,44.1 55.3,44  " /><polygon
       id="XMLID_149_"
       points="90.8,49.9 89.1,49.3 87.6,48.7 86.2,48.1 84.6,47.5 83.3,47.1 81.8,46.5 80.5,46.1 79.2,45.6    77.9,45.2 76.6,44.8 75.4,44.4 74.2,44.1 73,43.7 71.8,43.5 70.7,43.2 69.6,42.9 68.5,42.7 67.5,42.5 66.4,42.3 65.5,42.2    64.5,41.9 63.5,41.9 62.6,41.7 61.7,41.7 60.8,41.6 59.9,41.5 59,41.5 58.2,41.5 57.3,41.6 56.5,41.6 55.7,41.7 54.9,41.7 55.3,44    56.1,44 56.7,43.9 57.5,43.9 58.2,43.8 59,43.8 59.8,43.9 60.6,43.9 61.4,44 62.3,44 63.1,44.2 64.1,44.2 65,44.4 66,44.5    66.9,44.7 67.9,44.9 68.9,45.1 70,45.4 71.1,45.7 72.2,46 73.4,46.2 74.5,46.6 75.7,47 77,47.3 78.2,47.8 79.5,48.2 80.9,48.7    82.2,49.1 83.6,49.7 85,50.2 86.5,50.8 88,51.4 89.6,52  " /><polygon
       id="XMLID_148_"
       points="124.2,48.8 123.5,49.6 122.9,50.3 122.2,50.9 121.4,51.5 120.6,52 119.8,52.5 118.9,52.9    118.1,53.3 117.1,53.6 116.1,53.8 115.2,54 114.1,54.3 113.1,54.4 112,54.5 110.9,54.5 109.8,54.5 108.6,54.4 107.4,54.3    106.2,54.2 105.1,54 103.9,53.8 102.7,53.6 101.5,53.4 100.3,53.1 99.1,52.7 97.8,52.4 96.6,52 95.4,51.6 94.2,51.2 93,50.8    91.9,50.4 90.8,49.9 89.6,52 90.8,52.5 92,52.9 93.2,53.4 94.5,53.8 95.7,54.2 97,54.6 98.2,54.9 99.5,55.3 100.7,55.6 102,55.8    103.3,56.1 104.6,56.3 105.9,56.5 107.2,56.6 108.4,56.7 109.7,56.7 110.9,56.7 112.2,56.7 113.4,56.7 114.5,56.5 115.7,56.3    116.9,56.1 118,55.8 119.1,55.4 120.2,54.9 121.2,54.5 122.2,53.9 123.1,53.3 124,52.6 124.9,51.8 125.7,50.9 126.4,50  " /><polygon
       id="XMLID_147_"
       points="134.8,25 132.2,25.2 132,26.4 131.7,27.6 131.4,28.7 131.2,29.9 130.9,31 130.6,32 130.4,33    130.1,33.9 129.9,34.9 129.7,35.8 129.3,36.7 129.1,37.5 128.8,38.4 128.6,39.1 128.4,39.9 128.1,40.6 127.9,41.3 127.6,41.9    127.4,42.6 127.2,43.2 126.9,43.8 126.7,44.4 126.4,44.9 126.2,45.4 125.9,46 125.7,46.4 125.5,46.9 125.1,47.3 124.9,47.7    124.7,48.1 124.4,48.4 124.2,48.8 126.4,50 126.7,49.6 127,49.2 127.3,48.8 127.6,48.3 127.9,47.8 128.1,47.3 128.4,46.9    128.7,46.3 128.9,45.8 129.2,45.2 129.4,44.6 129.7,44 130,43.3 130.2,42.6 130.5,41.9 130.7,41.3 130.9,40.5 131.2,39.7    131.4,38.9 131.7,38.1 132,37.2 132.2,36.3 132.5,35.4 132.7,34.5 133,33.4 133.3,32.5 133.5,31.4 133.8,30.3 134.1,29.2    134.3,28.1 134.6,26.9 134.9,25.6 132.3,25.8 134.8,25 133.2,21.2 132.2,25.2  " /><polygon
       id="XMLID_146_"
       points="173.8,116.9 173.8,116.1 134.8,25 132.3,25.8 171.3,116.8 171.3,116.1 173.8,116.9 173.9,116.5    173.8,116.1  " /><polygon
       id="XMLID_145_"
       points="164.4,139.4 164.7,139.1 165.1,138.6 165.5,138 165.9,137.3 166.2,136.7 166.6,136 166.9,135.4    167.3,134.7 167.6,134 167.9,133.3 168.2,132.6 168.5,131.8 168.8,131.1 169,130.4 169.4,129.6 169.6,128.8 169.8,128.1    170.1,127.3 170.3,126.6 170.6,125.8 170.8,125 171,124.3 171.3,123.5 171.5,122.8 171.8,122.1 172,121.4 172.3,120.7 172.5,120    172.7,119.3 173,118.7 173.3,118.1 173.5,117.4 173.8,116.9 171.3,116.1 171,116.7 170.7,117.3 170.5,117.9 170.2,118.6 170,119.3    169.7,120 169.4,120.7 169.2,121.4 169,122.1 168.7,122.9 168.5,123.7 168.2,124.4 168,125.2 167.7,125.9 167.5,126.7 167.3,127.4    167,128.2 166.8,128.9 166.5,129.7 166.2,130.4 166,131.1 165.6,131.8 165.4,132.5 165.1,133.2 164.8,133.8 164.4,134.5    164.1,135.1 163.8,135.7 163.5,136.3 163.2,136.9 162.8,137.3 162.4,137.9 162.8,137.6 164.4,139.4 164.5,139.3 164.7,139.1  " /><polygon
       id="XMLID_144_"
       points="149.1,146.2 149.9,146 150.7,145.8 151.3,145.7 152,145.6 152.6,145.4 153.2,145.2 153.7,145.1    154.3,144.9 154.8,144.8 155.3,144.7 155.7,144.5 156.1,144.3 156.6,144.2 157,144 157.4,143.8 157.7,143.6 158.1,143.5    158.4,143.3 158.8,143.1 159.1,142.9 159.5,142.7 159.9,142.4 160.3,142.2 160.7,141.9 161.1,141.7 161.5,141.4 161.9,141.1    162.3,140.8 162.8,140.5 163.3,140.1 163.8,139.8 164.4,139.4 162.8,137.6 162.2,138 161.6,138.3 161.1,138.7 160.7,139    160.2,139.3 159.8,139.6 159.4,139.8 159,140.1 158.6,140.3 158.3,140.6 158,140.8 157.7,141 157.4,141.1 157,141.4 156.7,141.5    156.4,141.6 156.1,141.8 155.7,142 155.4,142.1 155,142.3 154.7,142.4 154.3,142.5 153.8,142.7 153.4,142.7 152.9,142.9 152.4,143    151.9,143.2 151.2,143.4 150.7,143.5 149.9,143.6 149.3,143.8 148.5,144  " /><polygon
       id="XMLID_143_"
       points="104.3,129.2 104.2,129.1 104.6,129.4 105.2,129.7 105.8,130.1 106.7,130.6 107.6,131.1    108.7,131.7 109.8,132.4 111.1,133 112.4,133.7 113.9,134.5 115.4,135.3 116.9,136 118.5,136.9 120.2,137.7 121.9,138.5    123.6,139.3 125.4,140.1 127.2,140.9 128.9,141.6 130.7,142.3 132.5,143 134.2,143.6 135.9,144.3 137.6,144.7 139.2,145.2    140.8,145.6 142.4,146 143.8,146.2 145.3,146.4 146.6,146.4 147.9,146.4 149.1,146.2 148.5,144 147.6,144.1 146.6,144.1    145.5,144.1 144.3,144 142.9,143.7 141.5,143.4 140,143.1 138.5,142.6 136.9,142.1 135.2,141.5 133.5,140.9 131.8,140.3    130.1,139.6 128.4,138.8 126.6,138 124.9,137.3 123.2,136.4 121.5,135.7 119.9,134.9 118.3,134.1 116.8,133.3 115.2,132.5    113.9,131.7 112.5,131.1 111.3,130.4 110.2,129.7 109.1,129.2 108.2,128.6 107.3,128.2 106.7,127.8 106.1,127.5 105.7,127.3    105.7,127.2 105.7,127.3 105.7,127.2 105.7,127.2  " /><polygon
       id="XMLID_142_"
       points="66.9,128.6 69.4,128.6 70,127.4 70.5,126.3 71.1,125.3 71.8,124.4 72.3,123.5 72.9,122.8    73.5,122.1 74.1,121.5 74.7,121 75.4,120.6 76,120.3 76.7,120.1 77.5,119.9 78.2,119.7 79,119.6 79.9,119.6 80.8,119.6 81.8,119.8    82.9,120 84.1,120.3 85.3,120.6 86.6,121 87.9,121.5 89.4,122.1 90.9,122.8 92.6,123.5 94.3,124.2 96.1,125.1 98,126 100,127    102.1,128 104.3,129.2 105.7,127.2 103.5,126.1 101.3,125 99.3,124 97.4,123.1 95.6,122.2 93.8,121.4 92.1,120.7 90.5,120.1    89,119.4 87.5,118.9 86.2,118.5 84.8,118.1 83.5,117.8 82.3,117.6 81.1,117.4 80,117.3 78.8,117.3 77.8,117.4 76.7,117.6    75.8,117.9 74.8,118.3 73.9,118.7 73,119.3 72.2,119.9 71.5,120.6 70.8,121.4 70.1,122.3 69.4,123.2 68.8,124.2 68.1,125.3    67.6,126.5 66.9,127.7 69.4,127.8 66.9,128.6 68.1,131.3 69.4,128.6  " /><polygon
       id="XMLID_141_"
       points="35.2,54.3 35,55.5 66.9,128.6 69.4,127.8 37.5,54.7 37.1,55.9 35.2,54.3 34.6,54.8 35,55.5  " /><polygon
       id="XMLID_140_"
       points="139.4,20.2 139.4,20.3 139.3,20.5 139.2,20.6 139.1,20.8 138.9,21 138.8,21.1 138.6,21.3    138.4,21.6 138.1,21.8 137.9,22 137.6,22.2 137.3,22.5 137.1,22.7 136.7,22.9 136.5,23.1 136.2,23.4 135.9,23.6 135.6,23.8    135.4,24 135.1,24.3 134.8,24.5 134.6,24.7 134.2,24.9 134.1,25.1 133.8,25.3 133.6,25.5 133.4,25.7 133.3,25.8 133.2,26 133,26.2    133,26.3 133,26.5 135.3,31.7 137.6,36.8 140,41.9 142.4,47.1 144.7,52.3 147.1,57.5 149.5,62.6 151.8,67.8 154.2,73 156.6,78.2    158.9,83.3 161.2,88.5 163.6,93.7 166,98.8 168.3,104 170.7,109.1 173.1,114.3 175.4,119.5 177.7,124.7 180.1,129.8 182.5,135    184.8,140.2 187.2,145.4 189.6,150.5 191.9,155.7 194.2,160.8 196.7,166 199,171.2 201.3,176.3 203.7,181.5 206.1,186.7    208.4,191.9 208.4,191.7 208.5,191.5 208.6,191.4 208.7,191.2 208.8,191.1 209,190.8 209.1,190.6 209.4,190.4 209.5,190.2    209.8,189.9 210,189.7 210.3,189.5 210.5,189.3 210.7,189.1 211,188.8 211.2,188.6 211.5,188.3 211.7,188.1 212,187.8 212.2,187.6    212.4,187.3 212.7,187.1 212.9,186.9 213.1,186.6 213.3,186.4 213.5,186.2 213.6,186 213.7,185.9 213.9,185.7 214,185.5 214,185.3    214,185.2 211.7,180 209.4,174.9 207,169.7 204.6,164.6 202.3,159.4 200,154.2 197.6,149.1 195.4,143.9 193,138.8 190.7,133.6    188.4,128.4 186,123.3 183.7,118.1 181.4,113 179.1,107.8 176.8,102.6 174.4,97.5 172.1,92.3 169.8,87.2 167.4,82 165.2,76.9    162.8,71.7 160.5,66.6 158.2,61.4 155.8,56.3 153.5,51.1 151.2,46 148.8,40.8 146.5,35.7 144.1,30.5 141.8,25.3  " /><polygon
       id="XMLID_139_"
       points="133.2,26.3 133.2,26.4 133.3,26.3 133.3,26.2 133.4,26 133.5,25.9 133.7,25.8 133.8,25.6    134,25.4 134.2,25.2 134.4,25 134.6,24.8 135,24.6 135.2,24.4 135.5,24.2 135.8,23.9 136,23.7 136.3,23.5 136.7,23.2 136.9,23    137.2,22.8 137.5,22.5 137.8,22.3 138,22.1 138.3,21.9 138.5,21.7 138.8,21.5 138.9,21.3 139.2,21.1 139.3,20.9 139.5,20.7    139.6,20.5 139.6,20.3 139.7,20.1 139.2,20.2 139.1,20.3 139.1,20.5 139,20.6 138.8,20.7 138.8,20.9 138.6,21.1 138.4,21.3    138.2,21.4 137.9,21.6 137.7,21.8 137.5,22 137.1,22.3 136.9,22.5 136.7,22.7 136.3,22.9 136,23.2 135.8,23.4 135.5,23.6    135.2,23.9 134.9,24.1 134.6,24.3 134.4,24.5 134.1,24.7 133.8,25 133.7,25.2 133.4,25.4 133.3,25.6 133.1,25.8 133,26 132.8,26.2    132.7,26.3 132.6,26.5 132.6,26.6 132.6,26.5 132.6,26.6 132.7,26.6  " /><polygon
       id="XMLID_138_"
       points="208.1,192 208.7,191.7 206.3,186.6 204,181.4 201.6,176.2 199.2,171 196.9,165.9 194.6,160.7    192.1,155.5 189.8,150.3 187.5,145.2 185.1,140 182.7,134.9 180.4,129.7 178.1,124.5 175.7,119.4 173.3,114.2 171,109 168.6,103.8    166.2,98.7 163.9,93.5 161.5,88.3 159.2,83.2 156.8,78 154.5,72.9 152.1,67.7 149.7,62.5 147.4,57.3 145,52.2 142.6,47 140.3,41.8    137.9,36.6 135.6,31.4 133.2,26.3 132.6,26.6 135.1,31.8 137.4,37 139.7,42.2 142.1,47.3 144.5,52.5 146.8,57.6 149.2,62.8    151.6,67.9 153.9,73.1 156.2,78.3 158.6,83.5 161,88.7 163.3,93.8 165.7,99 168.1,104.2 170.4,109.3 172.8,114.5 175.2,119.6    177.5,124.8 179.8,130 182.2,135.2 184.6,140.3 186.9,145.5 189.2,150.7 191.7,155.9 194,161 196.3,166.2 198.7,171.4 201.1,176.5    203.4,181.7 205.8,186.8 208.1,192 208.7,191.8 208.1,192 208.5,192.9 208.7,191.8  " /><polygon
       id="XMLID_137_"
       points="213.7,185.3 213.7,185.3 213.7,185.4 213.6,185.5 213.6,185.7 213.5,185.8 213.4,186 213.2,186.1    213.1,186.4 212.9,186.6 212.7,186.8 212.5,187 212.3,187.3 212,187.5 211.8,187.7 211.6,187.9 211.3,188.2 211.1,188.4    210.8,188.6 210.5,188.9 210.3,189.1 210,189.4 209.8,189.6 209.5,189.9 209.4,190.1 209.1,190.3 209,190.6 208.7,190.8 208.6,191    208.5,191.2 208.3,191.4 208.2,191.6 208.2,191.7 208.1,192 208.7,191.8 208.7,191.7 208.7,191.5 208.8,191.4 209,191.3    209.1,191.1 209.2,190.9 209.4,190.7 209.5,190.5 209.8,190.3 209.9,190.1 210.2,189.8 210.4,189.6 210.7,189.3 210.9,189.1    211.1,188.9 211.4,188.6 211.6,188.4 211.9,188.2 212.2,187.9 212.4,187.7 212.7,187.5 212.8,187.2 213.1,187 213.3,186.8    213.5,186.5 213.6,186.3 213.8,186.1 214,185.9 214.1,185.7 214.2,185.5 214.3,185.3 214.3,185.1 214.3,185 214.3,185.1 214.3,185     " /><polygon
       id="XMLID_136_"
       points="139.7,20.1 139.2,20.3 141.5,25.5 143.8,30.6 146.2,35.8 148.5,41 150.9,46.1 153.2,51.3    155.5,56.4 157.8,61.6 160.2,66.8 162.5,71.9 164.8,77.1 167.2,82.2 169.5,87.4 171.9,92.5 174.2,97.7 176.4,102.9 178.8,108    181.1,113.2 183.4,118.3 185.8,123.5 188.1,128.6 190.4,133.7 192.7,138.9 195,144.1 197.4,149.2 199.7,154.4 202,159.5    204.4,164.7 206.7,169.8 209.1,175 211.4,180.2 213.7,185.3 214.3,185 212,179.9 209.6,174.7 207.3,169.6 204.9,164.4 202.6,159.3    200.3,154.1 197.9,148.9 195.6,143.8 193.3,138.6 190.9,133.5 188.6,128.3 186.3,123.2 184,118 181.7,112.8 179.3,107.7 177,102.5    174.7,97.4 172.3,92.2 170.1,87 167.7,81.9 165.4,76.7 163.1,71.6 160.7,66.4 158.4,61.2 156.1,56.1 153.7,50.9 151.4,45.8    149.1,40.6 146.7,35.5 144.4,30.3 142.1,25.2 139.7,20 139.2,20.2 139.7,20 139.3,19.3 139.2,20.2  " /><polygon
       id="XMLID_135_"
       points="144.5,50.8 144.3,51.7 144.1,52.6 143.9,53.5 143.7,54.3 143.5,55.2 143.3,56.1 143.1,56.9    142.9,57.7 142.7,58.5 142.5,59.4 142.2,60.1 142,61 141.7,61.7 141.5,62.5 141.3,63.2 141,64 140.8,64.8 140.5,65.5 140.3,66.1    140,66.8 139.7,67.5 139.4,68.2 139.2,68.9 138.8,69.5 138.6,70.2 138.3,70.8 137.9,71.5 137.6,72.1 137.4,72.7 137.1,73.3    136.7,73.9 136.4,74.4 136.6,74.9 136.7,75.2 136.9,75.6 137.1,76 137.2,76.4 137.4,76.9 137.6,77.2 137.8,77.6 137.9,78    138.1,78.4 138.3,78.8 138.4,79.2 138.6,79.6 138.8,80 139,80.5 139.2,80.8 139.3,81.2 139.5,81.6 139.6,82 139.8,82.4 140,82.8    140.1,83.2 140.4,83.6 140.5,84 140.7,84.4 140.8,84.8 141,85.2 141.2,85.6 141.3,86 141.6,86.4 141.7,86.8 141.9,87.2 142.2,86.7    142.5,86.1 142.9,85.5 143.2,84.9 143.5,84.3 143.7,83.6 144.1,83 144.4,82.4 144.6,81.7 145,81.1 145.2,80.4 145.5,79.7 145.8,79    146,78.2 146.3,77.6 146.6,76.8 146.8,76.1 147,75.3 147.3,74.6 147.5,73.7 147.8,73 148,72.2 148.2,71.4 148.4,70.6 148.7,69.7    148.8,68.9 149.1,68 149.2,67.2 149.5,66.3 149.6,65.5 149.8,64.6 150,63.6 149.8,63.2 149.6,62.8 149.5,62.4 149.3,62 149.1,61.7    149,61.2 148.8,60.8 148.6,60.4 148.4,60 148.3,59.6 148.1,59.2 147.9,58.8 147.8,58.4 147.6,58 147.4,57.6 147.2,57.2 147,56.8    146.9,56.4 146.7,56 146.6,55.6 146.4,55.2 146.2,54.8 146,54.4 145.8,54 145.7,53.6 145.5,53.2 145.4,52.8 145.2,52.4 145,52    144.8,51.6 144.6,51.2  " /><polygon
       id="XMLID_131_"
       points="144.7,50.7 144.2,50.9 144.4,51.4 144.6,51.8 144.8,52.2 145,52.6 145.1,52.9 145.3,53.4    145.4,53.8 145.6,54.2 145.8,54.6 146,54.9 146.2,55.4 146.3,55.8 146.5,56.2 146.6,56.6 146.8,57 147,57.4 147.2,57.8 147.4,58.2    147.5,58.6 147.7,59 147.9,59.4 148,59.8 148.2,60.2 148.4,60.6 148.6,61 148.7,61.4 148.9,61.8 149.1,62.2 149.2,62.5 149.4,63    149.6,63.4 149.8,63.8 150.2,63.4 150,63 149.9,62.7 149.7,62.3 149.5,61.9 149.4,61.4 149.2,61 149,60.7 148.8,60.3 148.7,59.9    148.5,59.4 148.3,59 148.2,58.7 148,58.3 147.8,57.8 147.6,57.4 147.5,57 147.3,56.7 147.1,56.3 147,55.8 146.8,55.4 146.6,55.1    146.4,54.7 146.2,54.3 146.1,53.8 145.9,53.4 145.8,53.1 145.6,52.7 145.4,52.2 145.2,51.8 145,51.4 144.9,51 144.7,50.7    144.2,50.9 144.7,50.7 144.4,50 144.2,50.9  " /><polygon
       id="XMLID_130_"
       points="155.5,76.4 155.3,77.3 155.2,78.2 154.9,79.1 154.8,80 154.5,80.9 154.4,81.7 154.1,82.5    153.9,83.4 153.7,84.2 153.5,85 153.2,85.8 153,86.6 152.8,87.4 152.5,88.1 152.3,88.9 152,89.6 151.8,90.3 151.6,91.1 151.2,91.8    151,92.5 150.8,93.2 150.4,93.9 150.2,94.5 149.9,95.2 149.5,95.8 149.3,96.4 149,97 148.7,97.7 148.3,98.3 148,98.8 147.7,99.5    147.4,100 147.5,100.4 147.7,100.8 147.9,101.2 148.1,101.6 148.3,102 148.4,102.4 148.6,102.8 148.7,103.2 148.9,103.6 149.1,104    149.3,104.4 149.5,104.8 149.6,105.2 149.8,105.6 149.9,106 150.1,106.4 150.4,106.8 150.5,107.2 150.7,107.6 150.8,108 151,108.4    151.2,108.8 151.3,109.2 151.6,109.6 151.7,110 151.9,110.4 152,110.8 152.2,111.2 152.4,111.6 152.5,112 152.8,112.4 152.9,112.8    153.2,112.3 153.6,111.7 153.9,111.1 154.2,110.5 154.5,109.9 154.8,109.3 155.1,108.7 155.4,108 155.7,107.3 156,106.7 156.2,106    156.6,105.3 156.8,104.6 157.1,104 157.4,103.2 157.6,102.5 157.8,101.7 158.1,101 158.3,100.2 158.6,99.5 158.8,98.6 159,97.9    159.3,97 159.5,96.2 159.7,95.4 159.9,94.6 160.1,93.7 160.3,92.8 160.5,92 160.7,91.1 160.9,90.2 161.1,89.3 160.9,88.9    160.7,88.5 160.5,88.1 160.3,87.7 160.2,87.3 160,86.9 159.9,86.5 159.7,86.1 159.5,85.7 159.3,85.3 159.1,84.9 159,84.5 158.8,84    158.6,83.7 158.5,83.3 158.2,82.9 158.1,82.5 157.9,82 157.8,81.7 157.6,81.3 157.4,80.9 157.3,80.5 157,80 156.9,79.7 156.7,79.3    156.6,78.9 156.4,78.4 156.2,78 156.1,77.6 155.8,77.3 155.7,76.9  " /><polygon
       id="XMLID_126_"
       points="155.7,76.4 155.3,76.6 155.4,77 155.7,77.4 155.8,77.8 156,78.2 156.1,78.6 156.3,79 156.5,79.4    156.6,79.8 156.9,80.2 157,80.7 157.2,81 157.4,81.4 157.5,81.8 157.7,82.3 157.8,82.7 158.1,83 158.2,83.4 158.4,83.8 158.6,84.3    158.7,84.7 158.9,85 159,85.4 159.3,85.8 159.5,86.3 159.6,86.7 159.8,87 159.9,87.4 160.1,87.9 160.3,88.3 160.5,88.7 160.7,89    160.8,89.4 161.3,89.1 161.1,88.7 160.9,88.3 160.7,87.9 160.6,87.5 160.4,87.1 160.3,86.7 160.1,86.3 159.9,85.9 159.7,85.5    159.5,85.1 159.4,84.7 159.2,84.3 159,83.9 158.9,83.5 158.6,83.1 158.5,82.7 158.3,82.3 158.2,81.9 158,81.5 157.8,81.1    157.7,80.7 157.4,80.3 157.3,79.9 157.1,79.5 157,79.1 156.8,78.7 156.6,78.3 156.5,77.9 156.2,77.5 156.1,77.1 155.9,76.7    155.7,76.3 155.3,76.5 155.7,76.3 155.4,75.6 155.3,76.5  " /><polygon
       id="XMLID_125_"
       points="166.5,102.1 166.4,103 166.2,103.9 166,104.8 165.8,105.7 165.6,106.5 165.4,107.4 165.2,108.2    165,109.1 164.8,109.9 164.5,110.7 164.3,111.5 164,112.3 163.9,113 163.6,113.8 163.3,114.5 163.1,115.3 162.8,116.1 162.6,116.7    162.3,117.4 162,118.1 161.8,118.8 161.5,119.5 161.2,120.1 160.9,120.8 160.6,121.4 160.3,122.1 160,122.7 159.7,123.3    159.4,123.9 159,124.5 158.7,125 158.4,125.6 158.6,126 158.7,126.4 159,126.8 159.1,127.3 159.3,127.6 159.5,128 159.6,128.4    159.8,128.8 159.9,129.2 160.2,129.6 160.3,130 160.5,130.4 160.7,130.8 160.8,131.2 161,131.6 161.1,132 161.3,132.4 161.5,132.8    161.7,133.2 161.9,133.6 162,134 162.2,134.4 162.3,134.8 162.5,135.2 162.7,135.6 162.9,136 163.1,136.4 163.2,136.8 163.4,137.2    163.6,137.6 163.7,138 163.9,138.4 164.2,137.8 164.5,137.3 164.8,136.7 165.2,136.1 165.5,135.5 165.8,134.9 166.1,134.2    166.5,133.6 166.7,133 167,132.3 167.3,131.6 167.6,130.9 167.8,130.2 168.1,129.5 168.4,128.8 168.6,128.1 168.9,127.4    169.1,126.6 169.4,125.9 169.6,125.1 169.8,124.3 170.1,123.5 170.3,122.7 170.5,121.9 170.7,121 171,120.2 171.1,119.4    171.4,118.5 171.5,117.6 171.7,116.7 171.9,115.8 172.1,114.9 171.9,114.5 171.8,114.1 171.5,113.7 171.4,113.4 171.2,112.9    171,112.5 170.9,112.1 170.7,111.7 170.6,111.4 170.3,110.9 170.2,110.5 170,110.1 169.8,109.8 169.7,109.3 169.5,108.9    169.4,108.5 169.1,108.1 169,107.8 168.8,107.3 168.6,106.9 168.5,106.5 168.3,106.1 168.1,105.8 167.9,105.3 167.7,104.9    167.6,104.5 167.4,104.1 167.3,103.7 167.1,103.3 166.9,102.9 166.7,102.5  " /><polygon
       id="XMLID_122_"
       points="171.9,115.1 171.9,115 171.7,115.9 171.4,116.8 171.3,117.6 171.1,118.5 170.9,119.4 170.7,120.3    170.5,121.1 170.2,121.9 170.1,122.8 169.8,123.5 169.6,124.4 169.4,125.1 169.1,125.9 168.9,126.6 168.6,127.4 168.4,128.2    168.1,128.8 167.9,129.5 167.6,130.3 167.3,131 167.1,131.6 166.8,132.3 166.5,132.9 166.2,133.6 165.9,134.2 165.6,134.9    165.3,135.5 165,136 164.7,136.7 164.4,137.2 164,137.8 163.7,138.3 164.1,138.5 164.4,137.9 164.8,137.3 165.1,136.7 165.4,136.1    165.7,135.5 166.1,134.9 166.3,134.2 166.6,133.6 166.9,133 167.2,132.3 167.5,131.6 167.7,130.9 168.1,130.2 168.3,129.5    168.5,128.8 168.9,128.1 169.1,127.3 169.4,126.6 169.6,125.8 169.8,125 170.1,124.3 170.3,123.5 170.6,122.7 170.7,121.9 171,121    171.2,120.2 171.4,119.3 171.6,118.5 171.8,117.6 171.9,116.7 172.2,115.8 172.3,114.9 172.3,114.7 172.3,114.9 172.3,114.8    172.3,114.7  " /><polygon
       id="XMLID_121_"
       points="166.8,102 166.3,102.3 166.5,102.6 166.7,103.1 166.9,103.5 167,103.9 167.2,104.3 167.3,104.7    167.5,105.1 167.7,105.5 167.9,105.9 168.1,106.3 168.2,106.7 168.4,107.1 168.5,107.5 168.7,107.9 169,108.3 169.1,108.7    169.3,109.1 169.4,109.5 169.6,109.9 169.8,110.3 169.9,110.7 170.2,111.1 170.3,111.5 170.5,111.9 170.6,112.3 170.8,112.7    171,113.1 171.1,113.5 171.4,113.9 171.5,114.3 171.7,114.7 171.9,115.1 172.3,114.7 172.2,114.4 171.9,114 171.8,113.6    171.6,113.2 171.4,112.7 171.3,112.4 171.1,112 171,111.6 170.7,111.1 170.6,110.7 170.4,110.4 170.2,110 170.1,109.6 169.9,109.1    169.8,108.8 169.5,108.4 169.4,108 169.2,107.6 169,107.1 168.9,106.8 168.7,106.4 168.5,106 168.3,105.5 168.1,105.1 168,104.8    167.8,104.4 167.7,104 167.5,103.5 167.3,103.1 167.1,102.8 166.9,102.4 166.8,102 166.3,102.2 166.8,102 166.5,101.3 166.3,102.2     " /><polygon
       id="XMLID_120_"
       points="141.9,87.2 141.5,87.6 141.1,87.9 140.6,88.3 140.2,88.6 139.8,89 139.3,89.3 138.9,89.6    138.5,89.9 138,90.2 137.5,90.5 137.1,90.8 136.7,91 136.2,91.2 135.8,91.5 135.3,91.7 134.8,91.9 134.3,92.2 133.8,92.3    133.4,92.6 132.9,92.8 132.4,92.9 131.8,93.1 131.3,93.2 130.9,93.4 130.3,93.5 129.8,93.7 129.3,93.7 128.8,93.9 128.2,93.9    127.7,94.1 127.2,94.1 126.6,94.2 126.8,94.6 127,95 127.2,95.4 127.3,95.8 127.5,96.2 127.6,96.6 127.8,97 128,97.4 128.2,97.8    128.4,98.2 128.5,98.6 128.7,99 128.8,99.4 129,99.8 129.2,100.2 129.4,100.6 129.6,101 129.7,101.4 129.9,101.8 130.1,102.2    130.2,102.6 130.4,103 130.6,103.4 130.8,103.8 130.9,104.2 131.1,104.6 131.3,105 131.4,105.4 131.6,105.8 131.8,106.2 132,106.6    132.2,107 132.7,106.9 133.2,106.9 133.8,106.8 134.3,106.7 134.8,106.6 135.4,106.4 135.9,106.3 136.3,106.2 136.9,106    137.4,105.9 137.9,105.8 138.4,105.5 138.8,105.3 139.3,105.2 139.8,105 140.3,104.8 140.8,104.5 141.3,104.3 141.7,104.1    142.2,103.8 142.6,103.5 143.1,103.3 143.5,103 144,102.7 144.4,102.4 144.9,102.1 145.3,101.7 145.7,101.4 146.2,101.1    146.6,100.7 147,100.4 147.4,100 147.2,99.6 147,99.2 146.9,98.8 146.7,98.4 146.6,98 146.3,97.6 146.2,97.2 146,96.8 145.8,96.4    145.7,96 145.5,95.6 145.4,95.2 145.1,94.8 145,94.4 144.8,94 144.6,93.6 144.5,93.2 144.3,92.8 144.1,92.4 143.9,92 143.7,91.6    143.6,91.2 143.4,90.8 143.3,90.4 143.1,90 142.9,89.6 142.7,89.2 142.5,88.8 142.4,88.4 142.2,88 142.1,87.6  " /><polygon
       id="XMLID_115_"
       points="152.9,112.8 152.5,113.2 152,113.6 151.6,113.9 151.2,114.3 150.8,114.5 150.4,114.9 149.9,115.2    149.5,115.5 149.1,115.8 148.6,116.1 148.2,116.3 147.7,116.6 147.2,116.9 146.7,117.1 146.2,117.3 145.8,117.6 145.4,117.8    144.9,118 144.4,118.1 143.8,118.3 143.3,118.5 142.9,118.7 142.4,118.8 141.8,119 141.3,119.1 140.8,119.2 140.3,119.4    139.8,119.4 139.2,119.6 138.7,119.6 138.2,119.7 137.6,119.8 137.8,120.2 137.9,120.6 138.2,121 138.4,121.4 138.5,121.8    138.7,122.2 138.8,122.6 139,123 139.2,123.4 139.4,123.8 139.6,124.2 139.7,124.6 139.9,125 140,125.4 140.2,125.8 140.4,126.2    140.6,126.6 140.8,127 140.9,127.4 141.1,127.8 141.3,128.2 141.4,128.6 141.6,129 141.7,129.4 142,129.8 142.1,130.2 142.3,130.6    142.5,131 142.6,131.4 142.8,131.8 142.9,132.2 143.2,132.6 143.7,132.5 144.2,132.4 144.8,132.4 145.3,132.2 145.8,132.2    146.3,132 146.9,131.9 147.4,131.7 147.9,131.6 148.4,131.5 148.9,131.3 149.4,131.1 149.9,131 150.4,130.8 150.8,130.6    151.3,130.4 151.8,130.2 152.3,129.9 152.8,129.7 153.2,129.4 153.7,129.1 154.1,128.8 154.5,128.6 155,128.3 155.4,128    155.9,127.7 156.3,127.4 156.7,127 157.2,126.7 157.6,126.4 158,126 158.4,125.6 158.2,125.3 158.1,124.8 157.9,124.4 157.8,124    157.5,123.7 157.4,123.2 157.2,122.8 157,122.4 156.9,122 156.7,121.7 156.6,121.2 156.4,120.8 156.1,120.4 156,120 155.8,119.6    155.7,119.2 155.5,118.8 155.3,118.4 155.2,118.1 154.9,117.6 154.8,117.2 154.6,116.8 154.5,116.4 154.3,116.1 154.1,115.6    154,115.2 153.7,114.8 153.6,114.4 153.4,114.1 153.2,113.6 153.1,113.2  " /><polygon
       id="XMLID_110_"
       points="132.2,107 131.6,106.9 131,106.9 130.4,106.8 129.8,106.7 129.2,106.7 128.6,106.6 128,106.4    127.4,106.4 126.8,106.2 126.1,106.1 125.5,106 124.9,105.8 124.3,105.7 123.6,105.5 123,105.4 122.3,105.3 121.7,105.1 121,104.9    120.4,104.7 119.8,104.6 119.1,104.4 118.5,104.2 117.8,104 117.1,103.7 116.4,103.5 115.8,103.3 115.2,103.1 114.4,102.9    113.8,102.6 113.1,102.4 112.4,102.2 111.8,101.9 111.9,102.3 112.1,102.7 112.3,103.1 112.4,103.5 112.7,104 112.8,104.3    113,104.7 113.1,105.1 113.3,105.5 113.5,106 113.6,106.3 113.9,106.7 114,107.1 114.2,107.6 114.4,107.9 114.5,108.3 114.7,108.7    114.8,109.1 115.1,109.6 115.2,109.9 115.4,110.3 115.6,110.7 115.7,111.1 115.9,111.5 116,111.9 116.3,112.3 116.4,112.7    116.6,113.2 116.8,113.5 116.9,113.9 117.1,114.3 117.3,114.7 118,114.9 118.6,115.2 119.3,115.4 120,115.7 120.6,115.9    121.3,116.1 122,116.3 122.6,116.6 123.3,116.8 123.9,117 124.6,117.2 125.2,117.4 125.9,117.6 126.6,117.7 127.2,117.9    127.8,118.1 128.4,118.2 129.1,118.4 129.7,118.5 130.4,118.7 131,118.8 131.6,118.9 132.2,119 132.9,119.2 133.4,119.2    134.1,119.4 134.7,119.4 135.3,119.5 135.9,119.6 136.5,119.6 137.1,119.7 137.7,119.8 137.5,119.4 137.4,119 137.2,118.6    137,118.2 136.8,117.8 136.7,117.4 136.5,117 136.3,116.6 136.2,116.2 136,115.8 135.8,115.4 135.6,115 135.5,114.6 135.3,114.2    135.1,113.8 135,113.4 134.8,113 134.6,112.6 134.4,112.2 134.2,111.8 134.1,111.4 133.9,111 133.8,110.6 133.6,110.2 133.4,109.8    133.3,109.4 133,109 132.9,108.6 132.7,108.2 132.6,107.8 132.4,107.4  " /><polygon
       id="XMLID_105_"
       points="143.2,132.6 142.6,132.5 142.1,132.5 141.4,132.4 140.8,132.3 140.2,132.2 139.6,132.2 139,132    138.4,132 137.8,131.8 137.1,131.7 136.5,131.6 135.9,131.5 135.2,131.3 134.6,131.2 134,131 133.4,130.8 132.7,130.7 132.1,130.5    131.4,130.4 130.8,130.2 130.1,129.9 129.4,129.7 128.8,129.5 128.1,129.3 127.5,129.1 126.8,128.9 126.1,128.7 125.5,128.5    124.8,128.2 124.1,128 123.5,127.7 122.7,127.5 123,127.9 123.1,128.3 123.3,128.7 123.5,129.1 123.6,129.5 123.8,129.9    123.9,130.3 124.2,130.7 124.3,131.1 124.5,131.5 124.7,131.9 124.8,132.3 125,132.7 125.1,133.1 125.4,133.5 125.5,133.9    125.7,134.3 125.9,134.7 126,135.1 126.2,135.5 126.4,135.9 126.6,136.3 126.8,136.7 126.9,137.1 127.1,137.5 127.2,137.9    127.4,138.3 127.6,138.7 127.7,139.1 128,139.5 128.1,139.9 128.3,140.3 128.9,140.5 129.7,140.8 130.3,141 130.9,141.3    131.7,141.5 132.3,141.7 133,142 133.7,142.2 134.3,142.4 135,142.6 135.6,142.7 136.3,142.9 136.9,143.2 137.5,143.3 138.2,143.5    138.8,143.6 139.5,143.8 140.1,144 140.8,144.1 141.4,144.3 142,144.4 142.6,144.5 143.3,144.6 143.9,144.7 144.5,144.9    145.1,144.9 145.7,145 146.3,145.1 146.9,145.2 147.5,145.3 148.1,145.3 148.7,145.4 148.5,144.9 148.3,144.6 148.2,144.2    148,143.8 147.9,143.4 147.7,143 147.5,142.6 147.4,142.2 147.2,141.8 147,141.4 146.8,141 146.6,140.6 146.5,140.2 146.3,139.8    146.2,139.4 146,139 145.8,138.6 145.6,138.2 145.4,137.8 145.3,137.4 145.1,137 145,136.6 144.8,136.2 144.6,135.8 144.4,135.4    144.2,135 144.1,134.6 143.9,134.2 143.7,133.8 143.6,133.4 143.4,133  " /><polygon
       id="XMLID_102_"
       points="148.5,145.6 148.8,145.2 148.3,145.1 147.6,145 147,144.9 146.4,144.9 145.8,144.8 145.2,144.7    144.6,144.6 144,144.5 143.4,144.4 142.8,144.3 142.1,144.1 141.5,144.1 140.9,143.9 140.3,143.7 139.6,143.6 139,143.4    138.4,143.3 137.7,143.1 137.1,142.9 136.4,142.7 135.8,142.5 135.1,142.3 134.5,142.1 133.8,141.9 133.1,141.7 132.5,141.5    131.8,141.3 131.1,141 130.5,140.8 129.8,140.5 129.1,140.3 128.4,140 128.1,140.5 128.8,140.8 129.5,141 130.1,141.3 130.9,141.5    131.5,141.7 132.2,142 132.8,142.2 133.5,142.4 134.2,142.6 134.8,142.8 135.5,143 136.1,143.2 136.7,143.4 137.4,143.6 138,143.7    138.7,143.9 139.3,144.1 140,144.2 140.6,144.3 141.3,144.5 141.9,144.6 142.5,144.7 143.1,144.9 143.7,144.9 144.4,145.1    145,145.2 145.6,145.3 146.2,145.4 146.8,145.4 147.4,145.5 148,145.6 148.6,145.6 148.9,145.2 148.6,145.6 149.1,145.6    148.9,145.2  " /><polygon
       id="XMLID_100_"
       points="106.2,89.1 105.5,88.8 104.9,88.5 104.1,88.3 103.4,88 102.8,87.7 102,87.4 101.4,87.2    100.7,86.9 100,86.6 99.3,86.3 98.7,86.1 97.9,85.8 97.2,85.5 96.6,85.2 95.8,84.9 95.2,84.7 94.5,84.4 93.8,84.1 93.1,83.8    92.4,83.6 91.7,83.3 91,83 90.4,82.7 89.6,82.5 89,82.2 88.3,81.9 87.6,81.6 86.9,81.4 86.2,81.1 85.5,80.8 84.8,80.5 84.2,80.2    84.3,80.6 84.5,81 84.6,81.4 84.8,81.8 85,82.1 85.1,82.5 85.3,82.9 85.4,83.3 85.6,83.6 85.8,84 85.9,84.4 86.1,84.8 86.2,85.2    86.4,85.6 86.6,85.9 86.7,86.3 86.9,86.7 87.1,87.1 87.2,87.4 87.4,87.9 87.5,88.2 87.7,88.6 87.9,89 88,89.4 88.2,89.7 88.3,90.1    88.5,90.5 88.7,90.9 88.8,91.2 89,91.7 89.2,92 89.4,92.3 90,92.7 90.8,93 91.5,93.3 92.1,93.6 92.9,93.9 93.6,94.2 94.2,94.5    94.9,94.8 95.7,95.1 96.3,95.4 97,95.7 97.8,96 98.5,96.3 99.1,96.6 99.9,96.9 100.6,97.2 101.2,97.5 102,97.8 102.7,98.1    103.3,98.4 104,98.7 104.8,99 105.4,99.3 106.1,99.5 106.8,99.9 107.5,100.2 108.2,100.4 108.9,100.7 109.6,101.1 110.3,101.3    111,101.6 111.7,101.9 111.5,101.5 111.4,101.1 111.2,100.7 111,100.3 110.8,99.9 110.7,99.5 110.5,99.1 110.3,98.7 110.2,98.3    110,97.9 109.8,97.5 109.6,97.1 109.4,96.7 109.3,96.3 109.1,95.9 109,95.5 108.8,95.1 108.6,94.7 108.4,94.3 108.2,93.9    108.1,93.5 107.9,93.1 107.8,92.7 107.6,92.3 107.4,91.9 107.3,91.5 107,91.1 106.9,90.7 106.7,90.3 106.5,89.9 106.4,89.5  " /><polygon
       id="XMLID_95_"
       points="117.2,114.7 116.5,114.4 115.8,114.1 115.1,113.8 114.4,113.5 113.7,113.2 113,112.9 112.3,112.6    111.6,112.3 110.9,112 110.2,111.6 109.5,111.4 108.8,111 108.1,110.7 107.3,110.4 106.6,110.1 106,109.8 105.3,109.4 104.5,109.1    103.8,108.8 103.1,108.5 102.4,108.2 101.7,107.8 101,107.5 100.3,107.1 99.5,106.9 98.8,106.5 98.2,106.2 97.4,105.8 96.7,105.5    96,105.2 95.3,104.9 94.5,104.5 94.7,104.9 94.9,105.3 95,105.6 95.2,106 95.4,106.4 95.5,106.8 95.7,107.1 95.8,107.6 96,107.9    96.2,108.3 96.3,108.7 96.6,109.1 96.7,109.4 96.9,109.8 97,110.2 97.2,110.6 97.4,110.9 97.5,111.4 97.7,111.7 97.8,112.1    98,112.5 98.2,112.9 98.3,113.2 98.5,113.6 98.7,114 98.8,114.4 99,114.7 99.1,115.2 99.3,115.5 99.5,115.9 99.6,116.3 99.8,116.6    100.5,117 101.2,117.4 102,117.7 102.7,118.1 103.4,118.5 104.1,118.8 104.9,119.2 105.6,119.5 106.3,119.9 107,120.2 107.8,120.5    108.5,120.9 109.2,121.2 109.9,121.6 110.7,121.9 111.4,122.3 112,122.6 112.7,123 113.5,123.3 114.2,123.7 114.9,123.9    115.6,124.3 116.4,124.6 117,125 117.7,125.3 118.5,125.6 119.2,125.9 119.8,126.2 120.6,126.5 121.3,126.8 122,127.1 122.6,127.5    122.5,127 122.3,126.6 122.2,126.3 122,125.9 121.8,125.5 121.7,125 121.5,124.7 121.3,124.3 121.1,123.9 121,123.5 120.8,123.1    120.6,122.7 120.5,122.3 120.3,121.9 120.2,121.5 119.9,121.1 119.8,120.7 119.6,120.3 119.4,119.9 119.3,119.5 119.1,119.1    118.9,118.7 118.8,118.3 118.5,117.9 118.4,117.5 118.2,117.1 118.1,116.7 117.9,116.3 117.7,115.9 117.6,115.5 117.3,115.1  " /><polygon
       id="XMLID_90_"
       points="78.9,68.1 78.3,67.9 77.6,67.7 77,67.6 76.3,67.4 75.7,67.3 75.1,67 74.4,66.9 73.8,66.8    73.1,66.6 72.6,66.5 71.9,66.4 71.3,66.3 70.6,66.1 70.1,66 69.4,65.9 68.9,65.9 68.2,65.8 67.6,65.7 67,65.6 66.4,65.6 65.8,65.5    65.2,65.5 64.7,65.5 64.1,65.4 63.5,65.4 62.9,65.4 62.3,65.4 61.8,65.4 61.2,65.4 60.6,65.4 60.1,65.5 59.5,65.5 59.7,65.8    59.8,66.1 60,66.5 60.1,66.8 60.2,67.1 60.4,67.5 60.6,67.8 60.6,68.1 60.8,68.4 61,68.8 61.1,69.1 61.2,69.5 61.4,69.8 61.5,70.1    61.7,70.4 61.8,70.8 61.9,71.1 62.1,71.4 62.3,71.7 62.3,72.1 62.5,72.4 62.7,72.8 62.8,73.1 62.9,73.4 63.1,73.7 63.2,74.1    63.4,74.4 63.5,74.7 63.6,75.1 63.8,75.4 63.9,75.7 64.1,76 64.7,76 65.2,76.1 65.8,76.1 66.4,76.2 67,76.2 67.6,76.2 68.2,76.3    68.8,76.4 69.4,76.4 70,76.5 70.6,76.7 71.2,76.7 71.8,76.9 72.5,77 73,77.1 73.7,77.2 74.3,77.3 75,77.6 75.6,77.7 76.3,77.8    76.9,78 77.6,78.2 78.2,78.4 78.8,78.5 79.5,78.7 80.1,78.9 80.8,79.1 81.5,79.3 82.1,79.6 82.8,79.8 83.4,80 84.2,80.2 84,79.8    83.8,79.5 83.7,79.1 83.5,78.7 83.4,78.4 83.2,78 83,77.6 82.9,77.2 82.7,76.9 82.5,76.4 82.4,76.1 82.2,75.7 82.1,75.3 81.9,74.9    81.7,74.6 81.5,74.2 81.3,73.8 81.2,73.4 81,73.1 80.9,72.6 80.7,72.3 80.5,71.9 80.4,71.5 80.2,71.2 80,70.8 79.9,70.4 79.7,70    79.6,69.7 79.4,69.3 79.2,68.9 79.1,68.5  " /><polygon
       id="XMLID_88_"
       points="64.2,75.8 64.3,75.9 64.2,75.5 64,75.2 63.9,74.9 63.7,74.6 63.6,74.2 63.5,73.9 63.3,73.5    63.1,73.3 63.1,72.9 62.9,72.6 62.7,72.2 62.6,72 62.5,71.6 62.3,71.3 62.2,70.9 62,70.6 61.9,70.3 61.8,69.9 61.6,69.6 61.4,69.3    61.3,69 61.2,68.6 61,68.3 60.9,67.9 60.7,67.7 60.6,67.3 60.5,67 60.3,66.6 60.2,66.3 60.1,66 59.9,65.7 59.8,65.3 59.3,65.7    59.4,66 59.6,66.3 59.8,66.6 59.8,67 60,67.3 60.2,67.7 60.3,67.9 60.4,68.3 60.6,68.6 60.7,69 60.9,69.3 61,69.6 61.1,69.9    61.3,70.3 61.4,70.6 61.6,70.9 61.7,71.3 61.9,71.6 62,72 62.2,72.2 62.3,72.6 62.4,72.9 62.6,73.3 62.7,73.5 62.8,73.9 63,74.2    63.1,74.6 63.3,74.9 63.4,75.2 63.5,75.5 63.7,75.9 63.9,76.2 63.9,76.3 63.9,76.2 63.9,76.3 63.9,76.3  " /><polygon
       id="XMLID_85_"
       points="89.4,92.3 88.7,92.1 87.9,91.9 87.3,91.6 86.7,91.3 85.9,91 85.3,90.8 84.6,90.5 83.9,90.3    83.3,90.1 82.5,89.9 81.9,89.6 81.3,89.4 80.6,89.2 79.9,89 79.2,88.8 78.6,88.7 78,88.5 77.3,88.3 76.7,88.1 76,88 75.4,87.8    74.8,87.6 74.2,87.5 73.5,87.4 72.9,87.3 72.2,87.2 71.7,87 71,87 70.5,86.9 69.8,86.8 69.3,86.7 68.6,86.7 68.8,87 68.9,87.3    69,87.6 69.2,88 69.3,88.3 69.5,88.6 69.7,89 69.7,89.3 69.9,89.6 70.1,90 70.2,90.3 70.3,90.6 70.5,91 70.6,91.3 70.8,91.6    70.9,91.9 71,92.3 71.2,92.6 71.4,93 71.4,93.2 71.6,93.6 71.8,93.9 71.9,94.3 72.1,94.6 72.2,94.9 72.3,95.2 72.5,95.6 72.6,95.9    72.7,96.2 72.9,96.6 73,96.9 73.2,97.3 73.8,97.3 74.4,97.5 75.1,97.6 75.7,97.7 76.3,97.9 76.9,98.1 77.6,98.2 78.2,98.4    78.9,98.6 79.6,98.8 80.2,99 80.9,99.2 81.5,99.4 82.1,99.6 82.9,99.8 83.5,100 84.2,100.3 84.9,100.5 85.5,100.8 86.2,101.1    86.9,101.3 87.6,101.5 88.3,101.8 89,102.1 89.6,102.4 90.4,102.6 91.1,103 91.7,103.3 92.5,103.5 93.2,103.9 93.8,104.2    94.5,104.5 94.4,104.1 94.2,103.7 94.1,103.3 93.9,103 93.7,102.6 93.6,102.2 93.4,101.9 93.3,101.5 93.1,101.1 92.9,100.7    92.8,100.4 92.6,99.9 92.5,99.6 92.3,99.2 92.1,98.8 92,98.4 91.8,98.1 91.6,97.7 91.5,97.3 91.3,96.9 91.2,96.6 91,96.1    90.8,95.8 90.7,95.4 90.5,95 90.4,94.6 90.2,94.3 90,93.9 89.9,93.5 89.7,93.1 89.6,92.8  " /><polygon
       id="XMLID_83_"
       points="73.3,97 73.4,97 73.3,96.8 73.1,96.4 73,96.1 72.8,95.7 72.7,95.5 72.6,95.1 72.4,94.8 72.2,94.4    72.2,94.1 72,93.8 71.8,93.5 71.7,93.1 71.6,92.8 71.4,92.4 71.3,92.1 71.1,91.8 71,91.4 70.9,91.1 70.7,90.8 70.5,90.5 70.4,90.1    70.3,89.8 70.1,89.4 70,89.2 69.8,88.8 69.7,88.5 69.6,88.1 69.4,87.8 69.3,87.5 69.2,87.2 69,86.8 68.9,86.5 68.4,86.8 68.5,87.2    68.7,87.5 68.9,87.8 68.9,88.1 69.1,88.5 69.3,88.8 69.4,89.2 69.5,89.4 69.7,89.8 69.8,90.1 70,90.5 70.1,90.8 70.2,91.1    70.4,91.4 70.5,91.8 70.7,92.1 70.8,92.4 71,92.8 71.1,93.1 71.3,93.5 71.4,93.8 71.5,94.1 71.7,94.4 71.8,94.8 71.9,95.1    72.1,95.4 72.2,95.7 72.4,96.1 72.5,96.4 72.6,96.8 72.8,97 73,97.4 73,97.5 73,97.4 73,97.5 73,97.5  " /><polygon
       id="XMLID_80_"
       points="55,54.9 54.5,55.2 54.1,55.5 53.6,55.8 53.2,56.1 52.8,56.5 52.4,56.9 52,57.2 51.6,57.6 51.2,58    50.8,58.4 50.4,58.8 50,59.2 49.6,59.7 49.3,60.1 48.9,60.6 48.6,61.1 48.2,61.6 47.8,62.1 47.4,62.5 47.1,63.1 46.8,63.6    46.4,64.1 46.1,64.7 45.7,65.2 45.4,65.8 45.1,66.4 44.8,67 44.5,67.5 44.1,68.1 43.8,68.8 43.6,69.4 43.2,70 43.4,70.4 43.5,70.6    43.7,70.9 43.7,71.3 43.9,71.5 44.1,71.8 44.1,72.2 44.3,72.4 44.4,72.8 44.5,73.1 44.7,73.3 44.8,73.7 44.9,74 45,74.2 45.2,74.6    45.3,74.9 45.4,75.2 45.6,75.5 45.7,75.8 45.8,76.1 46,76.4 46.1,76.7 46.2,77 46.4,77.3 46.5,77.6 46.6,77.9 46.7,78.2 46.9,78.5    47,78.8 47.1,79.1 47.3,79.4 47.4,79.7 47.7,79.1 48,78.4 48.3,77.9 48.6,77.3 49,76.7 49.3,76.1 49.6,75.5 49.9,75.1 50.3,74.5    50.7,74 51,73.5 51.4,73 51.7,72.4 52.1,72 52.4,71.5 52.8,71.1 53.2,70.6 53.6,70.2 54,69.8 54.4,69.4 54.8,69 55.2,68.6    55.6,68.2 56,67.9 56.5,67.5 56.9,67.2 57.3,66.9 57.7,66.6 58.1,66.3 58.6,66 59.1,65.7 59.5,65.5 59.4,65.2 59.3,64.8 59.1,64.5    59,64.1 58.8,63.9 58.7,63.5 58.5,63.2 58.4,62.8 58.2,62.5 58.1,62.2 58,61.9 57.8,61.5 57.7,61.2 57.5,60.8 57.4,60.5 57.3,60.2    57.1,59.9 56.9,59.5 56.9,59.2 56.7,58.9 56.5,58.5 56.4,58.2 56.3,57.8 56.1,57.5 56,57.2 55.8,56.9 55.7,56.5 55.6,56.2    55.4,55.8 55.2,55.5 55.1,55.2  " /><polygon
       id="XMLID_78_"
       points="47.2,79.7 47.6,79.6 47.5,79.2 47.4,78.9 47.3,78.7 47.1,78.3 47,78 46.9,77.8 46.7,77.4    46.6,77.1 46.5,76.8 46.3,76.5 46.2,76.2 46.1,75.9 45.9,75.6 45.8,75.3 45.7,75 45.6,74.7 45.4,74.4 45.3,74.1 45.2,73.8 45,73.5    44.9,73.2 44.8,72.9 44.6,72.6 44.5,72.3 44.4,72 44.2,71.7 44.1,71.4 44,71.1 43.9,70.8 43.7,70.5 43.6,70.2 43.5,69.9 43,70.2    43.2,70.5 43.2,70.8 43.4,71.1 43.5,71.4 43.7,71.7 43.8,72 43.9,72.3 44.1,72.6 44.2,72.9 44.3,73.2 44.5,73.5 44.5,73.8    44.7,74.1 44.9,74.4 44.9,74.7 45.1,75.1 45.2,75.3 45.3,75.6 45.5,76 45.6,76.2 45.7,76.5 45.9,76.9 46,77.1 46.1,77.5 46.2,77.8    46.4,78 46.6,78.4 46.6,78.7 46.8,78.9 46.9,79.3 47,79.6 47.2,79.9 47.6,79.7 47.2,79.9 47.4,80.2 47.6,79.7  " /><polygon
       id="XMLID_76_"
       points="55,55.1 54.8,55 54.8,55.4 55,55.7 55.2,56.1 55.3,56.3 55.5,56.7 55.6,57 55.7,57.4 55.9,57.7    56.1,58 56.1,58.3 56.3,58.7 56.5,59 56.6,59.4 56.8,59.6 56.9,60 57,60.3 57.2,60.7 57.3,61 57.4,61.3 57.6,61.7 57.7,62    57.9,62.3 58,62.7 58.1,63 58.3,63.3 58.5,63.7 58.6,64 58.7,64.3 58.9,64.7 59,65 59.2,65.3 59.3,65.7 59.8,65.3 59.6,65    59.5,64.7 59.4,64.3 59.2,64 59,63.7 58.9,63.3 58.8,63 58.6,62.7 58.5,62.3 58.3,62 58.2,61.7 58.1,61.4 57.9,61 57.7,60.7    57.7,60.3 57.5,60 57.3,59.7 57.2,59.4 57,59 56.9,58.7 56.8,58.3 56.6,58.1 56.5,57.7 56.4,57.4 56.2,57 56.1,56.7 55.9,56.4    55.8,56.1 55.7,55.7 55.5,55.4 55.3,55 55.2,54.7 54.9,54.7 55.2,54.7 55.1,54.5 54.9,54.7  " /><polygon
       id="XMLID_75_"
       points="64.1,76 63.6,76.2 63.1,76.4 62.7,76.7 62.2,76.9 61.7,77.2 61.3,77.5 60.8,77.8 60.4,78.1    60,78.4 59.5,78.7 59.1,79.1 58.7,79.5 58.3,79.8 57.9,80.2 57.5,80.7 57.1,81 56.7,81.5 56.3,81.9 56,82.4 55.6,82.8 55.2,83.3    54.8,83.8 54.5,84.3 54.1,84.8 53.8,85.4 53.5,85.8 53.2,86.4 52.8,87 52.5,87.6 52.2,88.1 51.9,88.7 51.5,89.4 51.7,89.6 51.8,90    51.9,90.3 52,90.5 52.2,90.9 52.3,91.2 52.4,91.5 52.6,91.8 52.8,92.1 52.8,92.4 53,92.7 53.1,93 53.2,93.3 53.4,93.6 53.5,93.9    53.6,94.2 53.7,94.5 53.9,94.8 54,95.1 54.1,95.4 54.3,95.7 54.4,96 54.5,96.4 54.7,96.6 54.8,96.9 54.9,97.3 55.1,97.5 55.2,97.8    55.3,98.2 55.4,98.4 55.6,98.7 55.7,99.1 56,98.4 56.3,97.8 56.6,97.3 56.9,96.7 57.3,96.1 57.7,95.6 58,95.1 58.4,94.6 58.7,94.1    59.1,93.6 59.4,93.2 59.8,92.7 60.2,92.3 60.6,91.9 61,91.4 61.4,91 61.8,90.6 62.2,90.3 62.7,89.9 63.1,89.6 63.5,89.2 63.9,89    64.3,88.7 64.8,88.3 65.2,88.1 65.7,87.9 66.2,87.6 66.7,87.4 67.2,87.2 67.6,87 68.1,86.8 68.6,86.7 68.5,86.3 68.4,86 68.2,85.6    68.1,85.3 67.9,85 67.8,84.7 67.6,84.3 67.5,84 67.3,83.6 67.2,83.4 67.1,83 66.9,82.7 66.8,82.3 66.6,82 66.5,81.7 66.4,81.4    66.2,81 66,80.7 66,80.4 65.8,80 65.6,79.7 65.5,79.3 65.3,79 65.2,78.7 65.1,78.4 64.9,78 64.7,77.7 64.7,77.3 64.5,77.1    64.3,76.7 64.2,76.4  " /><polygon
       id="XMLID_73_"
       points="55.5,99 55.9,98.8 55.8,98.6 55.7,98.3 55.6,97.9 55.4,97.7 55.2,97.4 55.2,97 55,96.8 54.9,96.5    54.8,96.1 54.6,95.9 54.5,95.5 54.4,95.2 54.2,95 54.1,94.6 54,94.3 53.9,94.1 53.7,93.7 53.6,93.5 53.5,93.1 53.3,92.8 53.2,92.6    53.1,92.2 52.9,91.9 52.8,91.7 52.7,91.3 52.6,91 52.4,90.7 52.3,90.4 52.2,90.1 52,89.8 51.9,89.5 51.8,89.2 51.3,89.5 51.5,89.9    51.5,90.1 51.7,90.4 51.9,90.8 51.9,91 52.1,91.4 52.2,91.7 52.3,91.9 52.5,92.3 52.6,92.6 52.8,92.8 52.8,93.2 53,93.5 53.2,93.8    53.2,94.1 53.4,94.3 53.6,94.7 53.6,95 53.8,95.2 53.9,95.6 54,95.9 54.2,96.2 54.3,96.5 54.4,96.8 54.5,97.1 54.7,97.4 54.8,97.7    54.9,98 55.1,98.3 55.2,98.6 55.3,98.9 55.5,99.2 55.9,99.1 55.5,99.2 55.7,99.6 55.9,99.1  " /><polygon
       id="XMLID_71_"
       points="64.1,76.2 63.9,76.2 63.9,76.5 64.1,76.9 64.3,77.2 64.4,77.6 64.6,77.9 64.7,78.2 64.8,78.5    65,78.9 65.2,79.2 65.2,79.6 65.4,79.8 65.6,80.2 65.7,80.5 65.8,80.9 66,81.1 66.1,81.5 66.3,81.8 66.4,82.2 66.5,82.5 66.7,82.8    66.8,83.2 67,83.5 67.1,83.8 67.2,84.2 67.4,84.5 67.6,84.8 67.6,85.2 67.8,85.5 68,85.8 68.1,86.1 68.3,86.5 68.4,86.8 68.9,86.5    68.7,86.1 68.5,85.8 68.5,85.5 68.3,85.2 68.1,84.8 68,84.5 67.9,84.2 67.7,83.8 67.6,83.5 67.4,83.2 67.3,82.8 67.2,82.5 67,82.2    66.8,81.8 66.7,81.5 66.6,81.2 66.4,80.9 66.3,80.5 66.1,80.2 66,79.8 65.9,79.6 65.7,79.2 65.6,78.9 65.5,78.5 65.3,78.2    65.2,77.9 65,77.6 64.8,77.2 64.7,76.9 64.6,76.5 64.4,76.2 64.3,75.9 64.1,75.8 64.3,75.9 64.3,75.8 64.1,75.8  " /><polygon
       id="XMLID_70_"
       points="73.2,97.3 72.6,97.3 72.2,97.5 71.6,97.7 71.1,97.8 70.6,98 70.1,98.2 69.7,98.4 69.2,98.6    68.8,98.8 68.3,99.1 67.8,99.4 67.4,99.7 66.9,100 66.5,100.3 66.1,100.6 65.6,101 65.2,101.4 64.8,101.7 64.4,102.2 64,102.6    63.7,103 63.3,103.5 62.9,103.9 62.6,104.4 62.2,104.9 61.9,105.4 61.5,105.9 61.1,106.4 60.8,107 60.5,107.6 60.2,108.1    59.8,108.7 60,109 60.1,109.3 60.2,109.6 60.4,109.9 60.5,110.2 60.6,110.5 60.7,110.8 60.9,111.1 61,111.4 61.1,111.8 61.3,112    61.4,112.3 61.5,112.7 61.7,112.9 61.8,113.2 61.9,113.6 62.1,113.8 62.2,114.2 62.3,114.5 62.4,114.7 62.6,115.1 62.7,115.4    62.8,115.6 63,116 63.1,116.3 63.2,116.5 63.4,116.9 63.5,117.2 63.6,117.5 63.7,117.8 63.9,118.1 64,118.4 64.3,117.8 64.7,117.2    65,116.7 65.3,116.1 65.6,115.6 66,115.2 66.4,114.6 66.8,114.2 67.2,113.7 67.5,113.3 67.9,112.9 68.3,112.5 68.7,112 69.1,111.7    69.5,111.4 70,111 70.4,110.7 70.8,110.4 71.3,110 71.8,109.8 72.2,109.6 72.6,109.3 73.1,109.1 73.6,108.9 74.1,108.7 74.6,108.5    75.1,108.4 75.6,108.2 76.1,108.1 76.7,108 77.2,107.9 77.7,107.8 77.6,107.5 77.5,107.1 77.3,106.9 77.2,106.5 77,106.2    76.8,105.8 76.7,105.5 76.6,105.2 76.4,104.9 76.3,104.5 76.2,104.2 76,103.9 75.9,103.5 75.7,103.2 75.6,102.9 75.5,102.5    75.3,102.2 75.1,101.9 75.1,101.5 74.9,101.2 74.7,100.8 74.6,100.6 74.5,100.2 74.3,99.9 74.2,99.5 74,99.3 73.9,98.9 73.8,98.6    73.6,98.2 73.4,97.9 73.3,97.6  " /><polygon
       id="XMLID_68_"
       points="63.8,118.3 64.2,118.2 64.1,117.9 63.9,117.6 63.9,117.3 63.7,117 63.5,116.7 63.5,116.4    63.3,116.1 63.2,115.8 63.1,115.5 62.9,115.2 62.8,114.9 62.7,114.6 62.6,114.3 62.4,114 62.3,113.7 62.2,113.4 62,113.1    61.9,112.8 61.8,112.5 61.6,112.2 61.5,111.9 61.4,111.6 61.2,111.3 61.1,110.9 61,110.7 60.9,110.4 60.7,110 60.6,109.8    60.5,109.5 60.3,109.1 60.2,108.9 60.1,108.5 59.6,108.9 59.8,109.2 59.8,109.5 60,109.8 60.2,110.1 60.2,110.4 60.4,110.7    60.6,111 60.6,111.3 60.8,111.6 60.9,111.9 61,112.2 61.2,112.5 61.3,112.8 61.4,113.1 61.5,113.4 61.7,113.7 61.9,114.1    61.9,114.3 62.1,114.6 62.2,114.9 62.3,115.2 62.5,115.5 62.6,115.8 62.7,116.1 62.9,116.4 63,116.7 63.1,117 63.2,117.4    63.4,117.6 63.5,117.9 63.6,118.3 63.8,118.5 64.2,118.4 63.8,118.5 63.9,118.9 64.2,118.4  " /><polygon
       id="XMLID_65_"
       points="99.8,116.6 99.1,116.3 98.3,115.9 97.6,115.6 96.9,115.2 96.2,114.9 95.4,114.5 94.7,114.2    94.1,113.9 93.3,113.6 92.6,113.2 91.9,112.9 91.2,112.6 90.5,112.3 89.8,112 89.1,111.7 88.4,111.4 87.7,111.1 87.1,110.9    86.3,110.7 85.7,110.4 85,110.1 84.3,109.9 83.7,109.6 82.9,109.4 82.3,109.2 81.7,108.9 80.9,108.7 80.3,108.6 79.6,108.4    79,108.2 78.4,108 77.7,107.8 77.9,108.2 78,108.5 78.1,108.8 78.3,109.1 78.4,109.5 78.6,109.8 78.7,110.1 78.8,110.5 79,110.8    79.2,111.1 79.2,111.5 79.4,111.8 79.6,112.1 79.7,112.5 79.8,112.8 80,113.1 80.1,113.4 80.3,113.8 80.4,114.1 80.5,114.5    80.7,114.7 80.9,115.1 81,115.4 81.1,115.8 81.3,116.1 81.4,116.4 81.6,116.7 81.7,117.1 81.8,117.4 82,117.7 82.1,118.1    82.2,118.4 82.9,118.6 83.6,118.8 84.2,119.1 85,119.3 85.6,119.6 86.3,119.9 87,120.1 87.7,120.3 88.3,120.7 89.1,121 89.8,121.2    90.4,121.5 91.2,121.9 91.9,122.1 92.6,122.5 93.3,122.8 94,123.2 94.7,123.5 95.4,123.9 96.2,124.2 96.9,124.6 97.6,124.9    98.3,125.3 99.1,125.7 99.8,126 100.5,126.4 101.3,126.8 102,127.2 102.8,127.5 103.5,127.9 104.2,128.4 105,128.8 104.9,128.4    104.7,128 104.5,127.6 104.4,127.3 104.2,126.8 104,126.5 103.8,126.1 103.6,125.7 103.5,125.4 103.3,125 103.2,124.6 103,124.2    102.8,123.9 102.7,123.5 102.5,123.1 102.4,122.7 102.2,122.3 102,121.9 101.9,121.6 101.7,121.2 101.6,120.8 101.4,120.4    101.2,120.1 101.1,119.6 100.9,119.3 100.7,118.9 100.6,118.5 100.4,118.1 100.3,117.8 100.1,117.4 99.9,117  " /><polygon
       id="XMLID_63_"
       points="82.4,118.1 82.5,118.2 82.3,117.9 82.2,117.6 82.1,117.2 81.9,116.9 81.7,116.6 81.7,116.3    81.5,115.9 81.3,115.6 81.2,115.3 81.1,114.9 80.9,114.6 80.8,114.3 80.6,113.9 80.5,113.6 80.4,113.3 80.2,112.9 80,112.6    80,112.3 79.8,112 79.6,111.6 79.5,111.3 79.3,110.9 79.2,110.7 79.1,110.3 78.9,110 78.8,109.6 78.7,109.3 78.5,109 78.4,108.7    78.2,108.3 78.1,108 78,107.7 77.5,108 77.6,108.3 77.8,108.7 77.9,109 78,109.3 78.2,109.6 78.4,110 78.4,110.3 78.6,110.7    78.8,110.9 78.9,111.3 79.1,111.6 79.2,112 79.3,112.3 79.5,112.6 79.6,112.9 79.7,113.3 79.9,113.6 80,113.9 80.2,114.3    80.3,114.6 80.5,114.9 80.6,115.2 80.8,115.6 80.9,115.9 81,116.3 81.2,116.6 81.3,116.9 81.4,117.2 81.6,117.6 81.7,117.9    81.9,118.2 82,118.5 82.1,118.6 82,118.5 82.1,118.6  " /><polygon
       id="XMLID_62_"
       points="104.8,128.9 105.2,128.6 104.4,128.2 103.6,127.7 102.9,127.3 102.2,127 101.5,126.6 100.7,126.1    100,125.8 99.2,125.4 98.5,125 97.8,124.7 97,124.4 96.3,123.9 95.6,123.6 94.9,123.2 94.1,122.9 93.5,122.6 92.8,122.3 92,121.9    91.3,121.7 90.6,121.3 90,121 89.2,120.7 88.5,120.4 87.9,120.1 87.1,119.9 86.5,119.6 85.8,119.4 85.1,119.1 84.4,118.8    83.8,118.6 83,118.3 82.4,118.1 82.1,118.6 82.8,118.8 83.4,119.1 84.1,119.3 84.8,119.6 85.4,119.8 86.2,120.1 86.8,120.3    87.5,120.6 88.2,120.9 88.9,121.2 89.6,121.4 90.3,121.8 91,122.1 91.7,122.4 92.5,122.7 93.1,123 93.8,123.4 94.5,123.7    95.3,124.1 96,124.4 96.7,124.8 97.4,125.1 98.2,125.5 98.9,125.9 99.6,126.2 100.3,126.6 101.1,127 101.9,127.4 102.6,127.8    103.3,128.2 104,128.6 104.8,129 105.2,128.6 104.8,129 105.5,129.4 105.2,128.6  " /><polygon
       id="XMLID_60_"
       points="68.5,43.9 67.9,43.8 67.3,43.7 66.7,43.6 66,43.5 65.5,43.4 64.8,43.3 64.3,43.3 63.7,43.2    63.1,43.2 62.5,43.1 61.9,43.1 61.3,43.1 60.7,43.1 60.2,43.1 59.6,43.1 59,43.1 58.5,43.1 57.9,43.1 57.3,43.1 56.8,43.1    56.2,43.2 55.7,43.3 55.2,43.3 54.6,43.4 54,43.5 53.6,43.5 53,43.7 52.5,43.7 51.9,43.9 51.5,44 51,44.2 50.4,44.3 50.6,44.6    50.7,44.9 50.9,45.3 51,45.6 51.1,46 51.3,46.3 51.5,46.6 51.5,46.9 51.7,47.3 51.9,47.6 52,48 52.1,48.2 52.3,48.6 52.4,48.9    52.6,49.3 52.7,49.6 52.8,49.9 53,50.2 53.2,50.6 53.2,50.9 53.4,51.2 53.6,51.6 53.7,51.9 53.9,52.2 54,52.5 54.1,52.9 54.3,53.2    54.4,53.6 54.5,53.9 54.7,54.2 54.8,54.5 55,54.9 55.5,54.8 56.1,54.7 56.6,54.6 57.1,54.5 57.7,54.5 58.2,54.5 58.8,54.4    59.4,54.4 59.9,54.4 60.5,54.3 61,54.3 61.6,54.3 62.2,54.4 62.7,54.4 63.3,54.4 63.9,54.5 64.5,54.5 65.1,54.5 65.7,54.6    66.3,54.7 66.9,54.7 67.5,54.8 68.1,54.9 68.7,55 69.3,55.1 70,55.2 70.5,55.4 71.2,55.4 71.8,55.6 72.5,55.7 73,55.8 73.7,56.1    73.5,55.6 73.4,55.3 73.2,54.9 73,54.5 72.9,54.1 72.7,53.8 72.6,53.4 72.4,53 72.2,52.6 72.1,52.2 71.9,51.8 71.8,51.5 71.6,51.1    71.4,50.7 71.3,50.3 71.1,50 71,49.6 70.8,49.2 70.6,48.8 70.5,48.4 70.3,48 70.1,47.7 70,47.3 69.8,46.9 69.7,46.6 69.5,46.2    69.3,45.8 69.2,45.4 69,45.1 68.9,44.6 68.7,44.3  " /><polygon
       id="XMLID_59_"
       points="50.7,44.2 50.4,44.5 50.9,44.4 51.4,44.2 51.9,44.1 52.4,44 53,43.9 53.5,43.8 54,43.7 54.5,43.6    55.1,43.5 55.7,43.5 56.1,43.4 56.7,43.4 57.3,43.3 57.8,43.3 58.4,43.3 59,43.3 59.5,43.3 60.1,43.3 60.6,43.3 61.2,43.3    61.8,43.3 62.3,43.4 63,43.4 63.5,43.5 64.1,43.5 64.7,43.6 65.3,43.7 66,43.7 66.5,43.8 67.2,44 67.7,44 68.4,44.2 68.6,43.7    68.1,43.5 67.4,43.5 66.8,43.3 66.2,43.3 65.6,43.2 65,43.1 64.3,43.1 63.8,43 63.2,42.9 62.6,42.9 62,42.8 61.4,42.8 60.9,42.8    60.2,42.8 59.7,42.8 59.1,42.8 58.5,42.8 58,42.8 57.4,42.8 56.9,42.9 56.3,43 55.8,43 55.2,43.1 54.7,43.1 54.1,43.2 53.6,43.3    53.1,43.4 52.5,43.5 52,43.7 51.5,43.7 51,43.9 50.5,44.1 50.2,44.4 50.5,44.1 50.1,44.2 50.2,44.4  " /><polygon
       id="XMLID_58_"
       points="55,54.6 55.2,54.7 55.1,54.4 54.9,54 54.8,53.7 54.6,53.4 54.5,53.1 54.4,52.7 54.2,52.4 54,52    54,51.8 53.8,51.4 53.6,51.1 53.5,50.7 53.4,50.4 53.2,50.1 53.1,49.8 52.9,49.4 52.8,49.1 52.7,48.8 52.5,48.4 52.3,48.1    52.3,47.8 52.1,47.4 51.9,47.1 51.8,46.8 51.6,46.4 51.5,46.1 51.4,45.8 51.2,45.5 51.1,45.1 51,44.8 50.8,44.4 50.7,44.2    50.2,44.4 50.3,44.8 50.5,45.1 50.7,45.5 50.7,45.8 50.9,46.1 51.1,46.4 51.2,46.8 51.4,47.1 51.5,47.4 51.6,47.8 51.8,48.1    51.9,48.4 52,48.8 52.2,49.1 52.3,49.4 52.5,49.8 52.6,50.1 52.8,50.4 52.9,50.7 53.1,51.1 53.2,51.4 53.3,51.8 53.5,52 53.6,52.4    53.7,52.7 53.9,53.1 54,53.4 54.2,53.7 54.3,54 54.4,54.4 54.6,54.7 54.8,55 54.9,55.1 54.8,55 54.8,55.2 54.9,55.1  " /><polygon
       id="XMLID_55_"
       points="95.2,63.5 94.5,63.3 93.8,63 93.2,62.8 92.5,62.5 91.8,62.3 91.2,62 90.4,61.8 89.8,61.5    89.1,61.3 88.4,61 87.8,60.8 87.1,60.5 86.4,60.3 85.8,60.1 85,59.9 84.4,59.6 83.8,59.4 83,59.1 82.4,58.9 81.7,58.7 81,58.4    80.4,58.2 79.7,58 79,57.8 78.4,57.5 77.7,57.3 77.1,57.1 76.3,56.9 75.7,56.7 75.1,56.5 74.4,56.3 73.7,56.1 73.9,56.4 74,56.8    74.2,57.2 74.3,57.6 74.6,57.9 74.7,58.3 74.9,58.7 75.1,59 75.2,59.4 75.4,59.8 75.5,60.2 75.7,60.5 75.9,61 76,61.3 76.2,61.7    76.3,62.1 76.5,62.5 76.7,62.8 76.8,63.2 77,63.6 77.2,64 77.3,64.3 77.5,64.8 77.6,65.1 77.8,65.5 78,65.9 78.1,66.2 78.3,66.6    78.4,67 78.6,67.4 78.8,67.7 78.9,68.1 79.6,68.4 80.3,68.6 80.9,68.8 81.7,69.1 82.3,69.3 82.9,69.6 83.7,69.8 84.3,70.1 85,70.4    85.7,70.6 86.4,70.8 87.1,71.1 87.7,71.3 88.4,71.6 89.1,71.9 89.8,72.2 90.4,72.4 91.2,72.6 91.8,72.9 92.5,73.2 93.2,73.4    93.9,73.7 94.5,74 95.3,74.2 95.9,74.5 96.6,74.7 97.3,75 98,75.3 98.7,75.5 99.4,75.8 100,76 100.7,76.3 100.5,76 100.3,75.5    100.2,75.1 100,74.7 99.9,74.3 99.7,74 99.5,73.5 99.3,73.1 99.1,72.7 99,72.4 98.8,72 98.7,71.5 98.5,71.1 98.3,70.7 98.2,70.4    97.9,69.9 97.8,69.5 97.6,69.1 97.4,68.8 97.3,68.4 97.1,67.9 97,67.5 96.7,67.1 96.6,66.8 96.4,66.4 96.2,65.9 96.1,65.5    95.9,65.1 95.8,64.8 95.6,64.3 95.4,63.9  " /><polygon
       id="XMLID_50_"
       points="110.2,55.8 109.6,55.7 109,55.6 108.4,55.6 107.8,55.5 107.2,55.4 106.5,55.3 106,55.2 105.3,55.1    104.7,55 104.1,54.9 103.5,54.7 102.8,54.6 102.2,54.5 101.6,54.3 100.9,54.2 100.3,54 99.7,53.8 99.1,53.7 98.4,53.5 97.8,53.4    97,53.1 96.4,52.9 95.8,52.7 95.1,52.5 94.5,52.3 93.8,52.1 93.1,51.9 92.5,51.7 91.8,51.5 91.2,51.2 90.4,51 89.8,50.8 90,51.1    90.1,51.6 90.3,52 90.4,52.4 90.7,52.8 90.8,53.1 91,53.6 91.2,54 91.3,54.4 91.5,54.8 91.6,55.2 91.9,55.6 92,56 92.2,56.4    92.4,56.8 92.5,57.2 92.7,57.6 92.9,58 93.1,58.4 93.3,58.8 93.4,59.2 93.6,59.6 93.7,60 93.9,60.4 94.1,60.8 94.3,61.2 94.5,61.6    94.6,62 94.8,62.4 94.9,62.8 95.1,63.2 95.3,63.6 96,63.8 96.6,64.1 97.3,64.3 98,64.5 98.7,64.8 99.3,65 99.9,65.2 100.7,65.4    101.3,65.6 102,65.8 102.6,65.9 103.2,66.1 103.9,66.4 104.5,66.5 105.2,66.7 105.8,66.8 106.5,67 107.1,67.1 107.8,67.3    108.3,67.4 109,67.5 109.6,67.7 110.2,67.8 110.8,67.9 111.5,68 112.1,68.1 112.7,68.2 113.3,68.3 113.9,68.4 114.5,68.4    115.1,68.5 115.6,68.6 115.5,68.1 115.3,67.8 115.2,67.4 115,67 114.8,66.6 114.7,66.1 114.4,65.8 114.3,65.4 114.1,65 114,64.6    113.8,64.2 113.6,63.8 113.5,63.4 113.3,63 113.1,62.5 112.9,62.2 112.7,61.8 112.6,61.4 112.4,61 112.3,60.5 112.1,60.2    111.9,59.8 111.7,59.4 111.5,59 111.4,58.6 111.2,58.2 111.1,57.8 110.9,57.4 110.7,57 110.5,56.6 110.3,56.2  " /><polygon
       id="XMLID_49_"
       points="90,50.6 89.6,51 90.3,51.2 91,51.5 91.6,51.7 92.3,51.9 93,52.2 93.7,52.4 94.3,52.6 94.9,52.8    95.6,53 96.2,53.2 97,53.4 97.6,53.6 98.2,53.8 98.9,53.9 99.5,54.1 100.2,54.3 100.8,54.4 101.5,54.5 102,54.7 102.7,54.9    103.3,55 104,55.1 104.6,55.2 105.2,55.4 105.8,55.4 106.5,55.6 107,55.6 107.7,55.7 108.2,55.8 108.9,55.9 109.4,56 110.1,56.1    110.3,55.6 109.7,55.5 109.1,55.4 108.5,55.4 107.9,55.3 107.3,55.2 106.7,55.1 106.1,54.9 105.5,54.9 104.9,54.7 104.2,54.7    103.6,54.5 103,54.4 102.4,54.3 101.7,54.1 101.1,53.9 100.4,53.8 99.8,53.6 99.1,53.4 98.5,53.3 97.8,53.1 97.2,52.9 96.6,52.7    95.9,52.5 95.3,52.3 94.6,52.1 94,51.9 93.3,51.7 92.6,51.5 92,51.2 91.3,51 90.6,50.8 90,50.5 89.6,50.9 90,50.5 89.3,50.3    89.6,50.9  " /><polygon
       id="XMLID_45_"
       points="121.2,81.4 120.6,81.4 120,81.3 119.4,81.2 118.8,81.1 118.2,81.1 117.6,80.9 117,80.9 116.4,80.7    115.7,80.7 115.1,80.5 114.5,80.4 113.9,80.2 113.2,80.1 112.6,80 111.9,79.8 111.3,79.6 110.7,79.5 110,79.3 109.4,79.1    108.7,78.9 108.1,78.8 107.4,78.6 106.8,78.4 106.1,78.2 105.5,78 104.8,77.8 104.1,77.6 103.5,77.3 102.8,77.1 102.1,76.9    101.5,76.6 100.8,76.4 101,76.8 101.1,77.1 101.3,77.6 101.5,78 101.6,78.4 101.8,78.8 102,79.1 102.2,79.6 102.4,80 102.5,80.4    102.7,80.7 102.8,81.1 103,81.6 103.2,82 103.4,82.3 103.6,82.7 103.7,83.2 103.9,83.6 104,84 104.2,84.3 104.4,84.7 104.5,85.2    104.8,85.6 104.9,85.9 105.1,86.3 105.3,86.7 105.4,87.2 105.6,87.5 105.7,87.9 105.9,88.3 106.1,88.7 106.3,89.1 106.9,89.4    107.6,89.6 108.3,89.9 109,90.1 109.6,90.3 110.3,90.5 111,90.8 111.6,91 112.3,91.2 112.9,91.4 113.6,91.6 114.3,91.7 114.9,91.9    115.6,92.1 116.2,92.3 116.9,92.4 117.5,92.6 118.1,92.8 118.7,92.9 119.3,93 120,93.2 120.6,93.3 121.2,93.4 121.8,93.5    122.5,93.7 123.1,93.7 123.7,93.8 124.3,93.9 124.9,94 125.5,94.1 126.1,94.1 126.7,94.2 126.5,93.8 126.4,93.4 126.2,93 126,92.6    125.9,92.2 125.6,91.8 125.5,91.4 125.3,91 125.1,90.6 125,90.2 124.8,89.8 124.7,89.4 124.5,89 124.3,88.6 124.1,88.2 123.9,87.8    123.8,87.4 123.6,87 123.5,86.6 123.3,86.2 123.1,85.8 122.9,85.4 122.7,85 122.6,84.6 122.4,84.2 122.2,83.8 122.1,83.4 121.9,83    121.8,82.6 121.5,82.2 121.4,81.8  " /><polygon
       id="XMLID_40_"
       points="130.9,61.7 130.5,62 130.1,62.3 129.7,62.7 129.3,63 128.8,63.4 128.4,63.7 127.9,64 127.5,64.3    127,64.6 126.6,64.9 126.1,65.2 125.7,65.5 125.2,65.7 124.7,65.9 124.3,66.1 123.8,66.4 123.3,66.6 122.8,66.8 122.3,67    121.8,67.2 121.4,67.3 120.9,67.5 120.4,67.7 119.8,67.8 119.3,67.9 118.8,68.1 118.3,68.1 117.7,68.3 117.3,68.4 116.7,68.4    116.1,68.5 115.6,68.6 115.8,69 116,69.4 116.1,69.8 116.3,70.2 116.4,70.6 116.6,71 116.9,71.4 117,71.8 117.2,72.2 117.3,72.6    117.5,73 117.7,73.4 117.8,73.8 118.1,74.2 118.2,74.6 118.4,75 118.5,75.4 118.7,75.8 118.9,76.2 119,76.6 119.3,77 119.4,77.4    119.6,77.8 119.8,78.2 119.9,78.6 120.1,79 120.2,79.4 120.5,79.8 120.6,80.2 120.8,80.6 121,81 121.1,81.4 121.7,81.4 122.2,81.3    122.7,81.1 123.3,81.1 123.8,81 124.3,80.9 124.8,80.7 125.4,80.6 125.9,80.5 126.4,80.3 126.8,80.2 127.4,80 127.9,79.8    128.4,79.6 128.8,79.4 129.3,79.2 129.8,78.9 130.2,78.7 130.7,78.5 131.2,78.2 131.7,78 132.1,77.7 132.6,77.4 133,77.1    133.4,76.8 133.8,76.5 134.3,76.2 134.7,75.8 135.1,75.5 135.5,75.1 135.9,74.8 136.4,74.4 136.2,74 136,73.6 135.9,73.2    135.7,72.9 135.5,72.4 135.4,72 135.2,71.6 135.1,71.3 134.8,70.8 134.6,70.4 134.5,70 134.3,69.6 134.2,69.3 134,68.8 133.8,68.4    133.6,68 133.4,67.7 133.3,67.3 133.1,66.8 133,66.4 132.8,66 132.6,65.7 132.4,65.2 132.2,64.8 132.1,64.4 131.9,64 131.7,63.7    131.6,63.2 131.4,62.8 131.2,62.4 131,62  " /><polygon
       id="XMLID_35_"
       points="133.4,25.2 133.3,26 133,26.9 132.9,27.8 132.6,28.7 132.5,29.6 132.3,30.4 132.1,31.2 131.8,32.1    131.7,32.9 131.4,33.7 131.2,34.5 130.9,35.3 130.7,36.1 130.5,36.8 130.2,37.6 130,38.4 129.7,39.1 129.5,39.8 129.3,40.6    128.9,41.3 128.7,41.9 128.4,42.6 128.1,43.3 127.8,44 127.6,44.6 127.2,45.2 126.9,45.8 126.7,46.4 126.4,47.1 126,47.7    125.7,48.2 125.4,48.8 125.5,49.2 125.7,49.6 125.9,50 126,50.5 126.2,50.8 126.4,51.2 126.6,51.6 126.8,52 126.9,52.5 127.1,52.8    127.2,53.2 127.4,53.6 127.6,54 127.8,54.5 128,54.8 128.1,55.2 128.3,55.6 128.4,56.1 128.6,56.4 128.8,56.8 129,57.2 129.2,57.6    129.3,58.1 129.5,58.4 129.7,58.8 129.8,59.2 130,59.6 130.2,60 130.4,60.4 130.5,60.8 130.7,61.2 130.9,61.7 131.2,61 131.5,60.5    131.8,59.9 132.2,59.3 132.5,58.7 132.8,58.1 133,57.4 133.4,56.7 133.6,56.1 133.9,55.4 134.2,54.7 134.5,54 134.7,53.4 135,52.7    135.3,51.9 135.5,51.2 135.8,50.5 136,49.7 136.3,48.9 136.5,48.1 136.7,47.3 137,46.5 137.1,45.8 137.4,44.9 137.6,44.1    137.8,43.3 138,42.4 138.2,41.5 138.4,40.6 138.6,39.7 138.8,38.9 138.9,37.9 138.8,37.6 138.6,37.2 138.4,36.8 138.3,36.3    138.1,36 137.9,35.6 137.7,35.2 137.5,34.8 137.4,34.3 137.2,34 137.1,33.6 136.9,33.2 136.7,32.8 136.5,32.3 136.3,32 136.2,31.6    136,31.2 135.9,30.8 135.7,30.3 135.5,30 135.3,29.6 135.1,29.2 135,28.7 134.8,28.3 134.6,27.9 134.5,27.6 134.2,27.2 134.1,26.7    133.9,26.3 133.8,25.9 133.6,25.6  " /><polygon
       id="XMLID_34_"
       points="125.6,48.7 125.5,48.9 125.9,48.3 126.2,47.7 126.5,47.1 126.8,46.5 127.2,45.9 127.5,45.3    127.7,44.6 128,44 128.4,43.3 128.6,42.6 128.9,41.9 129.2,41.3 129.4,40.5 129.7,39.8 130,39 130.2,38.4 130.5,37.6 130.7,36.8    130.9,36.1 131.2,35.2 131.4,34.5 131.7,33.7 131.9,32.9 132.1,32.1 132.3,31.2 132.5,30.3 132.7,29.5 132.9,28.6 133.1,27.8    133.3,26.9 133.4,26 133.7,25.1 133.2,25.2 133,26.1 132.8,27 132.6,27.8 132.5,28.7 132.2,29.6 132.1,30.5 131.8,31.3 131.6,32.1    131.4,33 131.2,33.7 130.9,34.6 130.7,35.3 130.5,36.1 130.2,36.9 130,37.7 129.7,38.4 129.5,39.1 129.3,39.8 129,40.6 128.7,41.3    128.4,41.9 128.2,42.6 127.9,43.3 127.6,44 127.3,44.6 127,45.2 126.8,45.8 126.4,46.4 126.1,47.1 125.8,47.6 125.5,48.2    125.1,48.8 125.1,49 125.1,48.8 125.1,48.9 125.1,49  " /><polygon
       id="XMLID_30_"
       points="133.7,25.1 133.2,25.3 133.4,25.7 133.5,26.1 133.7,26.5 133.8,26.9 134.1,27.3 134.2,27.7    134.4,28.1 134.6,28.5 134.7,28.9 134.9,29.3 135.1,29.7 135.3,30.1 135.5,30.5 135.6,31 135.8,31.3 135.9,31.7 136.1,32.1    136.3,32.5 136.5,33 136.7,33.3 136.8,33.7 137,34.1 137.1,34.6 137.3,35 137.5,35.3 137.7,35.7 137.9,36.1 138,36.6 138.2,36.9    138.4,37.3 138.5,37.7 138.8,38.1 139.2,37.8 139,37.4 138.8,37 138.7,36.6 138.5,36.2 138.4,35.8 138.1,35.4 137.9,35 137.8,34.6    137.6,34.2 137.5,33.8 137.3,33.4 137.1,33 136.9,32.6 136.7,32.2 136.6,31.8 136.4,31.4 136.3,31 136.1,30.6 135.9,30.2    135.7,29.8 135.5,29.4 135.4,29 135.2,28.6 135.1,28.2 134.9,27.8 134.6,27.4 134.5,26.9 134.3,26.6 134.2,26.2 134,25.8    133.8,25.4 133.7,24.9 133.2,25.2 133.7,24.9 133.4,24.3 133.2,25.2  " /></g><g
     transform="scale(1.0824971,0.92379)"
     style="font-size:54.12485504px;font-family:'Arial Black', 'Arial Bold', Gadget, sans-serif"
     id="text129"><path
       d="m 11.625881,211.80922 29.599531,0 0,8.32486 -17.574721,0 0,6.76561 15.01119,0 0,7.82273 -15.01119,0 0,15.83047 -12.02481,0 0,-38.74367 z"
       style="font-size:54.12485504px;font-family:'Arial Black', 'Arial Bold', Gadget, sans-serif"
       id="path3459" /><path
       d="m 48.202445,211.80922 11.998381,0 0,38.74367 -11.998381,0 0,-38.74367 z"
       style="font-size:54.12485504px;font-family:'Arial Black', 'Arial Bold', Gadget, sans-serif"
       id="path3461" /><path
       d="m 68.842831,211.80922 11.179108,0 14.58834,21.43323 0,-21.43323 11.284821,0 0,38.74367 -11.284821,0 -14.509056,-21.27467 0,21.27467 -11.258392,0 0,-38.74367 z"
       style="font-size:54.12485504px;font-family:'Arial Black', 'Arial Bold', Gadget, sans-serif"
       id="path3463" /><path
       d="m 114.37854,211.80922 11.99838,0 0,38.74367 -11.99838,0 0,-38.74367 z"
       style="font-size:54.12485504px;font-family:'Arial Black', 'Arial Bold', Gadget, sans-serif"
       id="path3465" /><path
       d="m 132.85181,237.73523 11.39053,-0.71356 q 0.37,2.77496 1.50641,4.22851 1.84997,2.3521 5.28563,2.3521 2.56353,0 3.93779,-1.18926 1.40069,-1.2157 1.40069,-2.80139 0,-1.5064 -1.3214,-2.69567 -1.32141,-1.18927 -6.13133,-2.24639 -7.87559,-1.77069 -11.23197,-4.70421 -3.3828,-2.93353 -3.3828,-7.47917 0,-2.98638 1.71783,-5.6292 1.74426,-2.66924 5.20634,-4.17564 3.48852,-1.53284 9.54057,-1.53284 7.42631,0 11.31124,2.77496 3.91137,2.74853 4.65136,8.77414 l -11.28482,0.66071 q -0.44928,-2.61639 -1.90283,-3.80566 -1.42712,-1.18926 -3.96422,-1.18926 -2.08783,0 -3.14495,0.89856 -1.05713,0.87212 -1.05713,2.14068 0,0.92498 0.87213,1.66497 0.8457,0.76642 4.01708,1.42712 7.84916,1.6914 11.23197,3.43566 3.40923,1.71783 4.94206,4.28136 1.55926,2.56353 1.55926,5.73491 0,3.72637 -2.0614,6.87132 -2.06139,3.14495 -5.76133,4.78349 -3.69994,1.61212 -9.32914,1.61212 -9.88413,0 -13.68978,-3.80565 -3.80566,-3.80566 -4.30779,-9.67271 z"
       style="font-size:54.12485504px;font-family:'Arial Black', 'Arial Bold', Gadget, sans-serif"
       id="path3467" /><path
       d="m 174.10617,211.80922 11.97195,0 0,13.55764 13.08194,0 0,-13.55764 12.0248,0 0,38.74367 -12.0248,0 0,-15.6719 -13.08194,0 0,15.6719 -11.97195,0 0,-38.74367 z"
       style="font-size:54.12485504px;font-family:'Arial Black', 'Arial Bold', Gadget, sans-serif"
       id="path3469" /></g></svg>