<?xml version="1.0" encoding="UTF-8" standalone="no"?>
<!-- Generator: Adobe Illustrator 19.0.0, SVG Export Plug-In . SVG Version: 6.00 Build 0)  -->

<svg
   xmlns:dc="http://purl.org/dc/elements/1.1/"
   xmlns:cc="http://creativecommons.org/ns#"
   xmlns:rdf="http://www.w3.org/1999/02/22-rdf-syntax-ns#"
   xmlns:svg="http://www.w3.org/2000/svg"
   xmlns="http://www.w3.org/2000/svg"
   xmlns:sodipodi="http://sodipodi.sourceforge.net/DTD/sodipodi-0.dtd"
   xmlns:inkscape="http://www.inkscape.org/namespaces/inkscape"
   version="1.1"
   id="Layer_1"
   x="0px"
   y="0px"
   viewBox="0 0 250 200"
   xml:space="preserve"
   inkscape:version="0.91 r13725"
   sodipodi:docname="start-of-selective-section.svg"
   width="250"
   height="200"><metadata
     id="metadata10"><rdf:RDF><cc:Work
         rdf:about=""><dc:format>image/svg+xml</dc:format><dc:type
           rdf:resource="http://purl.org/dc/dcmitype/StillImage" /><dc:title /></cc:Work></rdf:RDF></metadata><defs
     id="defs8" /><sodipodi:namedview
     pagecolor="#ffffff"
     bordercolor="#666666"
     borderopacity="1"
     objecttolerance="10"
     gridtolerance="10"
     guidetolerance="10"
     inkscape:pageopacity="0"
     inkscape:pageshadow="2"
     inkscape:window-width="1536"
     inkscape:window-height="801"
     id="namedview6"
     showgrid="false"
     inkscape:zoom="1.9209733"
     inkscape:cx="98.148437"
     inkscape:cy="103.5831"
     inkscape:current-layer="XMLID_2_"
     inkscape:window-x="-8"
     inkscape:window-y="-8"
     inkscape:window-maximized="1" /><style
     type="text/css"
     id="style3">
	.st0{font-family:&quot;Arial Black&quot;, &quot;Arial Bold&quot;, Gadget, sans-serif;}
	.st1{font-size:100px;}
</style><g
     transform="scale(0.83805705,1.1932362)"
     style="font-size:135.85810852px;font-family:'Arial Black', 'Arial Bold', Gadget, sans-serif"
     id="XMLID_2_"><path
       d="m 17.898542,35.180716 42.453522,0 q 12.553121,0 20.249005,3.582196 7.758964,3.582197 12.805446,10.28223 5.046481,6.700034 7.317395,15.589188 2.27092,8.889153 2.27092,18.839698 0,15.589187 -3.406376,24.212992 -3.343294,8.55747 -9.33599,14.39512 -5.992697,5.77132 -12.868527,7.69509 -9.399071,2.65348 -17.031873,2.65348 l -42.453522,0 0,-97.249994 z m 28.575698,22.023873 0,53.135911 7.001993,0 q 8.957504,0 12.742365,-2.05645 3.784861,-2.12278 5.929615,-7.29706 2.144755,-5.240623 2.144755,-16.915929 0,-15.456513 -4.794158,-21.161493 -4.794156,-5.704979 -15.896415,-5.704979 l -7.128155,0 z"
       style="font-size:135.85810852px;font-family:'Arial Black', 'Arial Bold', Gadget, sans-serif"
       id="path3335"
       inkscape:connector-curvature="0" /><path
       d="m 108.32246,100.25728 26.88319,-1.791097 q 0.87324,6.965377 3.55533,10.613917 4.36618,5.90399 12.47479,5.90399 6.05029,0 9.29373,-2.98517 3.30583,-3.0515 3.30583,-7.03171 0,-3.78121 -3.11871,-6.766375 -3.1187,-2.985164 -14.47076,-5.638642 -18.58746,-4.444577 -26.50895,-11.80798 -7.98388,-7.363404 -7.98388,-18.773362 0,-7.496077 4.05431,-14.129774 4.11669,-6.700034 12.28768,-10.481241 8.23337,-3.847544 22.51701,-3.847544 17.5271,0 26.69609,6.965382 9.23135,6.899044 10.97782,22.023873 l -26.6337,1.658424 q -1.06036,-6.56736 -4.49093,-9.552524 -3.3682,-2.985163 -9.3561,-2.985163 -4.92755,0 -7.42251,2.255457 -2.49496,2.18912 -2.49496,5.373294 0,2.321794 2.05834,4.179229 1.99597,1.923772 9.48085,3.582196 18.52508,4.245566 26.50895,8.623806 8.04625,4.311903 11.66395,10.746589 3.68006,6.434686 3.68006,14.395125 0,9.35351 -4.86518,17.24761 -4.86516,7.8941 -13.59753,12.00699 -8.73236,4.04655 -22.01802,4.04655 -23.32788,0 -32.30973,-9.55252 -8.98187,-9.55252 -10.16697,-24.27933 z"
       style="font-size:135.85810852px;font-family:'Arial Black', 'Arial Bold', Gadget, sans-serif"
       id="path3337"
       inkscape:connector-curvature="0" /><path
       d="m 196.9553,100.25728 26.45619,-1.791097 q 0.85936,6.965377 3.49884,10.613917 4.29684,5.90399 12.27665,5.90399 5.95419,0 9.14611,-2.98517 3.25332,-3.0515 3.25332,-7.03171 0,-3.78121 -3.06917,-6.766375 -3.06916,-2.985164 -14.24091,-5.638642 -18.29222,-4.444577 -26.0879,-11.80798 -7.85705,-7.363404 -7.85705,-18.773362 0,-7.496077 3.98992,-14.129774 4.05129,-6.700034 12.0925,-10.481241 8.10259,-3.847544 22.15935,-3.847544 17.2487,0 26.27204,6.965382 9.08473,6.899044 10.80346,22.023873 L 249.438,64.169971 q -1.04352,-6.56736 -4.41961,-9.552524 -3.31469,-2.985163 -9.20748,-2.985163 -4.84928,0 -7.30461,2.255457 -2.45533,2.18912 -2.45533,5.373294 0,2.321794 2.02564,4.179229 1.96427,1.923772 9.33026,3.582196 18.23083,4.245566 26.08789,8.623806 7.91844,4.311903 11.47867,10.746589 3.62162,6.434686 3.62162,14.395125 0,9.35351 -4.7879,17.24761 -4.78789,7.8941 -13.38156,12.00699 -8.59365,4.04655 -21.66829,4.04655 -22.95734,0 -31.79653,-9.55252 -8.83919,-9.55252 -10.00547,-24.27933 z"
       style="font-size:135.85810852px;font-family:'Arial Black', 'Arial Bold', Gadget, sans-serif"
       id="path3339"
       inkscape:connector-curvature="0" /></g></svg>