<?xml version="1.0" encoding="UTF-8" standalone="no"?>
<!-- Generator: Adobe Illustrator 19.0.0, SVG Export Plug-In . SVG Version: 6.00 Build 0)  -->

<svg
   xmlns:dc="http://purl.org/dc/elements/1.1/"
   xmlns:cc="http://creativecommons.org/ns#"
   xmlns:rdf="http://www.w3.org/1999/02/22-rdf-syntax-ns#"
   xmlns:svg="http://www.w3.org/2000/svg"
   xmlns="http://www.w3.org/2000/svg"
   xmlns:sodipodi="http://sodipodi.sourceforge.net/DTD/sodipodi-0.dtd"
   xmlns:inkscape="http://www.inkscape.org/namespaces/inkscape"
   version="1.1"
   id="Layer_1"
   x="0px"
   y="0px"
   viewBox="0 0 250 250"
   style="enable-background:new 0 0 250 250;"
   xml:space="preserve"
   inkscape:version="0.91 r13725"
   sodipodi:docname="village.svg"><metadata
     id="metadata12"><rdf:RDF><cc:Work
         rdf:about=""><dc:format>image/svg+xml</dc:format><dc:type
           rdf:resource="http://purl.org/dc/dcmitype/StillImage" /></cc:Work></rdf:RDF></metadata><defs
     id="defs10" /><sodipodi:namedview
     pagecolor="#ffffff"
     bordercolor="#666666"
     borderopacity="1"
     objecttolerance="10"
     gridtolerance="10"
     guidetolerance="10"
     inkscape:pageopacity="0"
     inkscape:pageshadow="2"
     inkscape:window-width="1536"
     inkscape:window-height="801"
     id="namedview8"
     showgrid="false"
     inkscape:zoom="2.0395461"
     inkscape:cx="115.11498"
     inkscape:cy="140.14236"
     inkscape:window-x="-8"
     inkscape:window-y="-8"
     inkscape:window-maximized="1"
     inkscape:current-layer="XMLID_14_" /><style
     type="text/css"
     id="style3">
	.st0{fill-rule:evenodd;clip-rule:evenodd;}
</style><g
     id="XMLID_14_"><path
       id="XMLID_13_"
       class="st0"
       d="m 211.9,113.5177 -0.3,-4.08257 -0.5,-4.08257 -0.7,-3.97224 -1,-3.972228 -1.2,-3.861892 -1.4,-3.751552 -1.6,-3.641212 -1.8,-3.530873 -2,-3.530873 -2.1,-3.420532 -2.3,-3.310193 -2.4,-3.199854 -2.6,-3.089513 -2.8,-2.979174 -2.9,-2.868834 -3.1,-2.648154 -3.2,-2.537815 -3.3,-2.427475 -3.5,-2.206795 -3.5,-2.096456 -3.7,-1.986116 -3.8,-1.765436 -3.9,-1.655097 -4,-1.434417 -4.1,-1.213737 -4.2,-1.103398 -4.2,-0.882718 -4.3,-0.772378 -4.3,-0.551699 -4.5,-0.33102 -4.5,-0.110339 -4.5,0.110339 -4.5,0.33102 -4.3,0.551699 -4.3,0.772378 -4.2,0.882718 -4.2,1.103398 -4.1,1.213737 -4,1.434417 -3.9,1.655097 -3.8,1.765436 -3.7,1.986116 -3.5,2.096456 -3.5,2.206795 -3.3,2.427475 -3.2,2.537815 -3.1,2.648154 -2.9,2.868834 -2.8,2.979174 -2.6,3.089513 -2.4,3.199854 -2.3,3.310193 -2.1,3.420532 -2,3.530873 -1.8,3.530873 -1.6,3.641212 -1.4,3.751552 -1.2,3.861892 -1,3.972228 -0.7,3.97224 -0.5,4.08257 -0.3,4.08257 -0.1,4.08257 0.1,4.08257 0.3,4.08257 0.5,4.08257 0.7,3.97224 1,3.97223 1.2,3.86189 1.4,3.75155 1.6,3.64121 1.8,3.53088 2,3.53087 2.1,3.42053 2.3,3.3102 2.4,3.19985 2.6,3.08951 2.8,2.97918 2.9,2.86883 3.1,2.64815 3.2,2.53782 3.3,2.42747 3.5,2.2068 3.5,2.09645 3.7,1.98612 3.8,1.76544 3.9,1.65509 4,1.43442 4.1,1.21374 4.2,1.1034 4.2,0.88271 4.3,0.77238 4.3,0.5517 4.5,0.33102 4.5,0.11034 4.5,-0.11034 4.5,-0.33102 4.3,-0.5517 4.3,-0.77238 4.2,-0.88271 4.2,-1.1034 4.1,-1.21374 4,-1.43442 3.9,-1.65509 3.8,-1.76544 3.7,-1.98612 3.5,-2.09645 3.5,-2.2068 3.3,-2.42747 3.2,-2.53782 3.1,-2.64815 2.9,-2.86883 2.8,-2.97918 2.6,-3.08951 2.4,-3.19985 2.3,-3.3102 2.1,-3.42053 2,-3.53087 1.8,-3.53088 1.6,-3.64121 1.4,-3.75155 1.2,-3.86189 1,-3.97223 0.7,-3.97224 0.5,-4.08257 0.3,-4.08257 0.1,-4.08257 -0.1,-4.08257 z m -16.6,7.5031 -0.3,3.3102 -0.5,3.31019 -0.6,3.31019 -0.8,3.19986 -1,3.08951 -1.2,3.08951 -1.3,2.97918 -1.4,2.86883 -1.6,2.86883 -1.7,2.7585 -1.8,2.64815 -2,2.53782 -2.1,2.42747 -2.2,2.42748 -2.4,2.20679 -2.4,2.2068 -2.6,2.09645 -2.7,1.98612 -2.8,1.76544 -2.8,1.76543 -3,1.54476 -3.1,1.43442 -3.1,1.32407 -3.3,1.21374 -3.3,0.99306 -3.4,0.99306 -3.5,0.66203 -3.5,0.66204 -3.6,0.33102 -3.6,0.22068 -3.6,0.11034 -3.7,-0.11034 -3.6,-0.22068 -3.6,-0.33102 -3.5,-0.66204 -3.5,-0.66203 -3.4,-0.99306 -3.3,-0.99306 -3.3,-1.21374 -3.1,-1.32407 -3.1,-1.43442 -3,-1.54476 -2.8,-1.76543 -2.8,-1.76544 -2.7,-1.98612 -2.6,-2.09645 -2.4,-2.2068 -2.4,-2.20679 -2.2,-2.42748 -2.1,-2.42747 -2,-2.53782 -1.8,-2.64815 -1.7,-2.7585 -1.6,-2.86883 -1.4,-2.86883 -1.3,-2.97918 -1.2,-3.08951 -1,-3.08951 -0.8,-3.19986 -0.6,-3.31019 -0.5,-3.31019 -0.3,-3.3102 -0.1,-3.42053 0.1,-3.42053 0.3,-3.3102 0.5,-3.31019 0.6,-3.31019 0.8,-3.19986 1,-3.089509 1.2,-3.089514 1.3,-2.979173 1.4,-2.868834 1.6,-2.868834 1.7,-2.758495 1.8,-2.648154 2,-2.537815 2.1,-2.427475 2.2,-2.427475 2.4,-2.206795 2.4,-2.206795 2.6,-2.096456 2.7,-1.986116 2.8,-1.765436 2.8,-1.765436 3,-1.544757 3.1,-1.434417 3.1,-1.324077 3.3,-1.213738 3.3,-0.993058 3.4,-0.993058 3.5,-0.662038 3.5,-0.662039 3.8,-0.220679 3.6,-0.22068 3.7,-0.11034 3.6,0.11034 3.6,0.22068 3.6,0.331019 3.5,0.662039 3.5,0.662038 3.4,0.993058 3.3,0.993058 3.3,1.213737 3.1,1.324078 3.1,1.434417 3,1.544756 2.8,1.765437 2.8,1.765436 2.7,1.986116 2.6,2.096456 2.4,2.206795 2.4,2.206795 2.2,2.427475 2.1,2.427475 2,2.537815 1.8,2.648154 1.7,2.758494 1.6,2.868834 1.4,2.868834 1.3,2.979174 1.2,3.089514 1,3.089509 0.8,3.19986 0.6,3.31019 0.5,3.31019 0.3,3.3102 0.1,3.42053 -0.3,3.31019 z"
       inkscape:connector-curvature="0"
       style="clip-rule:evenodd;fill-rule:evenodd" /><path
       style="clip-rule:evenodd;fill-rule:evenodd"
       d="m 78.5,89.9 27.4,0 19,50.9 18.7,-50.9 26.6,0 -31.4,70.7 -28.3,0 z"
       id="XMLID_10_" /></g></svg>