<?xml version="1.0" encoding="UTF-8" standalone="no"?>
<!-- Generator: Adobe Illustrator 19.0.0, SVG Export Plug-In . SVG Version: 6.00 Build 0)  -->

<svg
   xmlns:dc="http://purl.org/dc/elements/1.1/"
   xmlns:cc="http://creativecommons.org/ns#"
   xmlns:rdf="http://www.w3.org/1999/02/22-rdf-syntax-ns#"
   xmlns:svg="http://www.w3.org/2000/svg"
   xmlns="http://www.w3.org/2000/svg"
   xmlns:sodipodi="http://sodipodi.sourceforge.net/DTD/sodipodi-0.dtd"
   xmlns:inkscape="http://www.inkscape.org/namespaces/inkscape"
   version="1.1"
   id="Layer_1"
   x="0px"
   y="0px"
   viewBox="0 0 250 250"
   style="enable-background:new 0 0 250 250;"
   xml:space="preserve"
   inkscape:version="0.91 r13725"
   sodipodi:docname="dunes.svg"><metadata
     id="metadata4205"><rdf:RDF><cc:Work
         rdf:about=""><dc:format>image/svg+xml</dc:format><dc:type
           rdf:resource="http://purl.org/dc/dcmitype/StillImage" /><dc:title /></cc:Work></rdf:RDF></metadata><defs
     id="defs4203" /><sodipodi:namedview
     pagecolor="#ffffff"
     bordercolor="#666666"
     borderopacity="1"
     objecttolerance="10"
     gridtolerance="10"
     guidetolerance="10"
     inkscape:pageopacity="0"
     inkscape:pageshadow="2"
     inkscape:window-width="1536"
     inkscape:window-height="801"
     id="namedview4201"
     showgrid="false"
     inkscape:zoom="2.7454512"
     inkscape:cx="89.717458"
     inkscape:cy="147.47577"
     inkscape:current-layer="Layer_1"
     inkscape:window-x="-8"
     inkscape:window-y="-8"
     inkscape:window-maximized="1" /><style
     type="text/css"
     id="style4196">
	.st0{fill-rule:evenodd;clip-rule:evenodd;}
</style><path
     style="opacity:1;fill:none;fill-opacity:1;stroke:#000000;stroke-width:3.00826402;stroke-miterlimit:4;stroke-dasharray:none;stroke-opacity:1"
     id="path4276"
     sodipodi:type="arc"
     sodipodi:cx="130.84227"
     sodipodi:cy="-218.06216"
     sodipodi:rx="42.02285"
     sodipodi:ry="42.561859"
     sodipodi:start="1.7639169"
     sodipodi:end="4.1184674"
     d="m 122.77714,-176.29153 a 42.02285,42.561859 0 0 1 -33.116714,-33.29819 42.02285,42.561859 0 0 1 17.665214,-43.74569"
     transform="matrix(-0.26500875,0.96424601,-0.98667805,-0.16268506,0,0)"
     sodipodi:open="true" /><path
     style="opacity:1;fill:none;fill-opacity:1;stroke:#000000;stroke-width:3.05076171;stroke-miterlimit:4;stroke-dasharray:none;stroke-opacity:1"
     id="path4276-1"
     sodipodi:type="arc"
     sodipodi:cx="171.69086"
     sodipodi:cy="-259.32825"
     sodipodi:rx="42.708672"
     sodipodi:ry="40.030758"
     sodipodi:start="1.7639169"
     sodipodi:end="4.2876516"
     d="m 163.49411,-220.04166 a 42.708672,40.030758 0 0 1 -34.22585,-34.66104 42.708672,40.030758 0 0 1 24.82314,-41.09945"
     transform="matrix(-0.3339555,0.94258884,-0.99656777,-0.08278091,0,0)"
     sodipodi:open="true" /><path
     style="opacity:1;fill:none;fill-opacity:1;stroke:#000000;stroke-width:2.80752349;stroke-miterlimit:4;stroke-dasharray:none;stroke-opacity:1"
     id="path4276-8"
     sodipodi:type="arc"
     sodipodi:cx="175.43884"
     sodipodi:cy="-79.317848"
     sodipodi:rx="40.03241"
     sodipodi:ry="43.589985"
     sodipodi:start="1.7639169"
     sodipodi:end="4.1184674"
     d="m 167.75573,-36.538196 a 40.03241,43.589985 0 0 1 -31.54813,-34.10255 40.03241,43.589985 0 0 1 16.82849,-44.802414"
     transform="matrix(-0.16706513,0.98594586,-0.98125891,-0.19269396,0,0)"
     sodipodi:open="true"
     inkscape:transform-center-x="-1.0331107"
     inkscape:transform-center-y="-2.0199212" /><path
     style="opacity:1;fill:none;fill-opacity:1;stroke:#000000;stroke-width:2.80689478;stroke-miterlimit:4;stroke-dasharray:none;stroke-opacity:1"
     id="path4276-81"
     sodipodi:type="arc"
     sodipodi:cx="179.79054"
     sodipodi:cy="-130.33786"
     sodipodi:rx="48.986015"
     sodipodi:ry="42.669426"
     sodipodi:start="2.0303769"
     sodipodi:end="3.9935921"
     d="m 158.06171,-92.095873 a 48.986015,42.669426 0 0 1 -26.84632,-32.727147 48.986015,42.669426 0 0 1 16.31886,-37.62779"
     transform="matrix(0,1,-0.98815179,-0.15347975,0,0)"
     sodipodi:open="true" /><path
     style="opacity:1;fill:none;fill-opacity:1;stroke:#000000;stroke-width:3.02626575;stroke-miterlimit:4;stroke-dasharray:none;stroke-opacity:1"
     id="path4276-0"
     sodipodi:type="arc"
     sodipodi:cx="131.58199"
     sodipodi:cy="-99.123306"
     sodipodi:rx="30.418909"
     sodipodi:ry="30.195013"
     sodipodi:start="1.7639169"
     sodipodi:end="4.1184674"
     d="M 125.74392,-69.489615 A 30.418909,30.195013 0 0 1 101.77185,-93.112632 30.418909,30.195013 0 0 1 114.5591,-124.1475"
     transform="matrix(0,1,-0.98271681,-0.18511527,0,0)"
     sodipodi:open="true" /><path
     style="opacity:1;fill:none;fill-opacity:1;stroke:#000000;stroke-width:3.06126978;stroke-miterlimit:4;stroke-dasharray:none;stroke-opacity:1"
     id="path4276-01"
     sodipodi:type="arc"
     sodipodi:cx="121.87906"
     sodipodi:cy="-185.36501"
     sodipodi:rx="21.296547"
     sodipodi:ry="25.174137"
     sodipodi:start="1.7217144"
     sodipodi:end="4.1184674"
     d="m 118.67721,-160.47701 a 21.296547,25.174137 0 0 1 -17.57439,-19.35737 21.296547,25.174137 0 0 1 8.85836,-26.39375"
     transform="matrix(-0.38879371,0.92132483,-0.99317988,-0.11659216,0,0)"
     sodipodi:open="true" /><path
     style="opacity:1;fill:none;fill-opacity:1;stroke:#000000;stroke-width:2.6291573;stroke-miterlimit:4;stroke-dasharray:none;stroke-opacity:1"
     id="path4276-01-9"
     sodipodi:type="arc"
     sodipodi:cx="141.42691"
     sodipodi:cy="-57.211979"
     sodipodi:rx="12.714468"
     sodipodi:ry="17.216967"
     sodipodi:start="1.7639169"
     sodipodi:end="4.1184674"
     d="m 138.98672,-40.315074 a 12.714468,17.216967 0 0 1 -10.01982,-13.469664 12.714468,17.216967 0 0 1 5.3448,-17.695845"
     transform="matrix(0,1,-0.99075017,-0.13569859,0,0)"
     sodipodi:open="true" /></svg>