<?xml version="1.0" encoding="utf-8"?>
<!-- Generator: Adobe Illustrator 19.0.0, SVG Export Plug-In . SVG Version: 6.00 Build 0)  -->
<svg version="1.1" id="Layer_1" xmlns="http://www.w3.org/2000/svg" xmlns:xlink="http://www.w3.org/1999/xlink" x="0px" y="0px"
	 viewBox="0 0 250 250" style="enable-background:new 0 0 250 250;" xml:space="preserve">
<style type="text/css">
	.st0{fill:#FFFFFF;}
</style>
<g>
	<path d="M234,159.7c-5.1-4.2-10.3-8.7-15.1-13.4c-1.6-1.6-4.9-5.9-7.2-5.6c-3.1,0.3-3.7,6.2-8.6,5.3c-2.1-0.4-7.2-4.3-8.9-5.8
		c-3-2.6-4.9-6.7-7.6-9.5c-2.5-2.6-5.5-5.9-9.1-6.5c-1.8-0.3-3.7,1.1-5.7,0.4c-1.8-0.7-3.4-3.5-4.6-4.8c-3.4-3.6-11.1-17-15.7-15.5
		c-2.6,0.9-4.8,6.2-7.6,7.6c-4.7,2.4-6.3-0.4-9-4.1c-5.2-7.2-14-13.2-22-17.9c-4.7-2.8-6.1-3-9.9,1.5c-3.7,4.4-7.3,7.6-11.5,11.4
		c-7.3,6.6-9.9,15.6-18,21.4c-4.4,3.2-4.9,2.1-9.4,1.4c-4.5-0.7-6.2,1.4-9.6,5.1c-2.8,3.1-5.5,6.8-8.9,9.3c-4.6,3.4-5-1.6-9.2,0
		c-4.6,1.8-17,11.3-21.8,16.5c-5.7,6.3,22.8,4.3,26.6,4.3c39.3,0,76-1,115.3-1c25.7,0,51.4,0,77.1,0"/>
	<path class="st0" d="M24,156.8c0.5-2.6,3-7.2,5.2-8.5c0.3,1.7,0.7,3.5,1.1,5.1c1.5-0.5,2-2.3,1.9-4.2c2.5,1.8,4.9-2,8.4-1.4
		c2.6,0.5,4.4,3.2,7.1,3.8c3.9,0.9,2.4,0.2,4.8-3.4c2.1-3,4-3.8,4.2-7.9c1.7,1.1,3.6,2.7,5.2,3.6c0.1-2.1-0.8-7.5,0.5-9
		c2.1-2.5,6.8,0,9.5-0.5c3.3-0.5,3.6-2.8,6.7-3.3c3.5-0.6,5.4,3.2,8,4.2c0.3-4.7-0.7-8.7,2.9-12.2c1.6-1.5,8.1-5.6,10.4-5.7
		c0.2,0.8,0.9,2.2,0.9,2.7c0.2-2.6,0.2-9.1,3.8-10.1c3.3-0.9,3.6,6,5.7,8.2c2.1-7.4,2.8-20.4,1-27.9c-6.2,2.2-10.9,13.4-15.6,18.4
		c-4.9,5.2-9.6,12.4-15.3,16.6c-2.5,1.9-5.9,4.6-8.9,5.4c-4.2,1.1-7.3-2.4-10.3-1.4c-6.6,2-8.8,15.3-14.8,17
		c-4.6,1.3-8.9-4.6-14.6-2.8c-3.5,1.1-10.1,8.3-8.7,10.8"/>
	<path class="st0" d="M154.2,107.9c-5.1,1.6-6.4,5.6-9.4,9.5c-3.1,4.1-2.8,0.1-6.4,2.3c-1.9,1.2-2.1,4.1-4.6,5.4
		c-2.5,1.3-5.1,1.4-7.6,3.3c-4.9,3.9-6.5,10.9-10.9,14.7c-2.7,2.3-4.8,1.1-8.1,1.9c-2.9,0.7-4.7,2.9-6.6,5.1
		c4.3,0.8,8.1-1.4,12.4-0.5c2.6,0.5,8.2,2.7,7-2.6c0.1,1,0.4,1.4,0.6,2.2c3.1-3.3,11.9-19.9,11.4-5.2c1.9,1.2,1.8,3.9,2.3,6.1
		c1.1-4.1-1-12.1,2-15.4c3.2-3.5,8.4,1.9,12.1,2.7c1.4-2.9-1.7-7.7-1.2-11.3c1.5-0.7,3.1-0.7,4.6-0.1c-0.2-3.7-0.3-5.2,1.1-8.4
		c1.6-3.7,3.1-5,1.3-9.2"/>
	<path class="st0" d="M152.7,133.1c0.5,4.3,3.8,8.1,5.7,11.8c-1.7,0.4-3.4,0.6-4.8,1.5c0.8,0.2,1.6,1,2.9,1
		c-4.4,3.4-3.8,4.9,1.5,4.8c4.9-0.2,5.2,1.5,9.4,2.7c-0.6-2.3-6.6-6.7-2.4-8.6c-0.3-1.8-4.5-6-5.8-7.9c-1.5-2.2-3.8-5.2-6.1-5.8"/>
	<path class="st0" d="M211.2,150.2c-2.6,1.3-5.8,2-8.5,2.9c-2.6,0.8-5.8,2.6-8.4,2.8c2.6,0.2,4.9-0.6,7.5-0.5
		c3.3,0.2,3.3,0.9,6.1,2.3c-0.1-0.8,0.2-1.9,0.2-2.7c0.4,0.2,1.4,0.6,1.7,0.9c0.1-0.3-0.1-1.2,0.1-1.3c1.1,0.6,2.6,0.5,3.7,0.8
		c-0.8-1.2-1.4-2.4-2.8-3.1c2.1-0.4,4.5-0.9,4.2-3.4c-1.3-0.3-2.9-0.1-3.7,0.4"/>
</g>
</svg>
