<?xml version="1.0" encoding="UTF-8" standalone="no"?>
<!-- Generator: Adobe Illustrator 19.0.0, SVG Export Plug-In . SVG Version: 6.00 Build 0)  -->

<svg
   xmlns:dc="http://purl.org/dc/elements/1.1/"
   xmlns:cc="http://creativecommons.org/ns#"
   xmlns:rdf="http://www.w3.org/1999/02/22-rdf-syntax-ns#"
   xmlns:svg="http://www.w3.org/2000/svg"
   xmlns="http://www.w3.org/2000/svg"
   xmlns:sodipodi="http://sodipodi.sourceforge.net/DTD/sodipodi-0.dtd"
   xmlns:inkscape="http://www.inkscape.org/namespaces/inkscape"
   version="1.1"
   id="Layer_1"
   x="0px"
   y="0px"
   viewBox="0 0 250 250"
   style="enable-background:new 0 0 250 250;"
   xml:space="preserve"
   inkscape:version="0.91 r13725"
   sodipodi:docname="pond.svg"><metadata
     id="metadata4205"><rdf:RDF><cc:Work
         rdf:about=""><dc:format>image/svg+xml</dc:format><dc:type
           rdf:resource="http://purl.org/dc/dcmitype/StillImage" /><dc:title></dc:title></cc:Work></rdf:RDF></metadata><defs
     id="defs4203" /><sodipodi:namedview
     pagecolor="#ffffff"
     bordercolor="#666666"
     borderopacity="1"
     objecttolerance="10"
     gridtolerance="10"
     guidetolerance="10"
     inkscape:pageopacity="0"
     inkscape:pageshadow="2"
     inkscape:window-width="981"
     inkscape:window-height="669"
     id="namedview4201"
     showgrid="false"
     inkscape:zoom="2.1740817"
     inkscape:cx="129.68063"
     inkscape:cy="75.524242"
     inkscape:current-layer="Layer_1"
     inkscape:window-x="858"
     inkscape:window-y="181"
     inkscape:window-maximized="0" /><style
     type="text/css"
     id="style4196">
	.st0{fill-rule:evenodd;clip-rule:evenodd;}
</style><path
     style="fill:none;fill-rule:evenodd;stroke:#000000;stroke-width:4;stroke-linecap:butt;stroke-linejoin:miter;stroke-miterlimit:4;stroke-dasharray:none;stroke-opacity:1"
     d="m 30.41379,79.004879 c 40.128503,-19.64771 51.021486,-0.465802 77.27962,-0.204063 18.94154,0.188807 23.32182,-18.918305 62.33986,-1.649333 43.49398,19.249972 23.73247,6.210705 55.77289,22.900147 46.61869,24.28307 -37.40139,41.39679 -5.66385,63.47508 31.73753,22.07828 37.46552,78.94267 -45.07651,63.93504 C 154.82737,223.78203 110.21083,196.18417 61.914576,223.78203 13.618323,251.37989 0.8801076,197.94783 22.061124,171.04397 65.785387,115.50596 16.410798,142.47995 14.57094,115.80202 14.975,83.36227 22.263571,85.965734 30.637003,78.893273"
     id="path4143"
     inkscape:connector-curvature="0"
     sodipodi:nodetypes="cssssssscc" /><path
     style="fill:none;fill-rule:evenodd;stroke:#000000;stroke-width:2;stroke-linecap:butt;stroke-linejoin:miter;stroke-miterlimit:4;stroke-dasharray:none;stroke-opacity:1"
     d="m 42.60695,51.275985 c 17.888414,40.655489 16.912682,59.844885 16.912682,59.844885 l 0,0"
     id="path4159"
     inkscape:connector-curvature="0" /><path
     style="fill:none;fill-rule:evenodd;stroke:#000000;stroke-width:2.26219511;stroke-linecap:butt;stroke-linejoin:miter;stroke-miterlimit:4;stroke-dasharray:none;stroke-opacity:1"
     d="m 241.69032,146.36401 c -3.42621,21.89486 -23.57905,32.88986 -25.56529,56.01004 l 0,0"
     id="path4159-4"
     inkscape:connector-curvature="0"
     sodipodi:nodetypes="ccc" /><path
     style="fill:none;fill-rule:evenodd;stroke:#000000;stroke-width:2;stroke-linecap:butt;stroke-linejoin:miter;stroke-miterlimit:4;stroke-dasharray:none;stroke-opacity:1"
     d="M 77.265828,49.554956 C 64.221649,91.248864 64.93315,110.9284 64.93315,110.9284 l 0,0"
     id="path4159-5"
     inkscape:connector-curvature="0" /><path
     style="fill:none;fill-rule:evenodd;stroke:#000000;stroke-width:1px;stroke-linecap:butt;stroke-linejoin:miter;stroke-opacity:1"
     d="m 52.039022,112.09659 c 9.432073,9.43207 23.742804,-1.62622 23.742804,-1.62622 l 0,0"
     id="path4191"
     inkscape:connector-curvature="0" /><path
     style="fill:none;fill-rule:evenodd;stroke:#000000;stroke-width:2;stroke-linecap:butt;stroke-linejoin:miter;stroke-miterlimit:4;stroke-dasharray:none;stroke-opacity:1"
     d="m 55.55366,46.840443 c 10.278098,30.551622 4.975083,63.809737 4.975083,63.809737"
     id="path4193"
     inkscape:connector-curvature="0" /><path
     style="fill:none;fill-rule:evenodd;stroke:#000000;stroke-width:2;stroke-linecap:butt;stroke-linejoin:miter;stroke-miterlimit:4;stroke-dasharray:none;stroke-opacity:1"
     d="M 32.889598,58.472976 C 54.065829,79.954727 58.164455,110.79144 58.164455,110.79144"
     id="path4197"
     inkscape:connector-curvature="0" /><path
     style="fill:none;fill-rule:evenodd;stroke:#000000;stroke-width:2.64143205px;stroke-linecap:butt;stroke-linejoin:miter;stroke-opacity:1"
     d="m 116.75272,180.50942 c 32.42433,19.14355 81.61985,-3.3006 81.61985,-3.3006 l 0,0"
     id="path4191-6"
     inkscape:connector-curvature="0" /><path
     style="fill:none;fill-rule:evenodd;stroke:#000000;stroke-width:2.64143205px;stroke-linecap:butt;stroke-linejoin:miter;stroke-opacity:1"
     d="m 53.575725,152.2845 c 32.42433,19.14355 81.619855,-3.3006 81.619855,-3.3006 l 0,0"
     id="path4191-6-2"
     inkscape:connector-curvature="0" /><path
     style="fill:none;fill-rule:evenodd;stroke:#000000;stroke-width:2.64143205px;stroke-linecap:butt;stroke-linejoin:miter;stroke-opacity:1"
     d="m 91.951217,108.57666 c 32.424333,19.14355 81.619853,-3.3006 81.619853,-3.3006 l 0,0"
     id="path4191-6-8"
     inkscape:connector-curvature="0" /><path
     style="fill:none;fill-rule:evenodd;stroke:#000000;stroke-width:2;stroke-linecap:butt;stroke-linejoin:miter;stroke-miterlimit:4;stroke-dasharray:none;stroke-opacity:1"
     d="m 231.59336,144.05823 c -2.14822,22.03678 -14.78399,33.10306 -16.02935,56.37311 l 0,0"
     id="path4159-4-0"
     inkscape:connector-curvature="0"
     sodipodi:nodetypes="ccc" /><path
     style="fill:none;fill-rule:evenodd;stroke:#000000;stroke-width:2.26219511;stroke-linecap:butt;stroke-linejoin:miter;stroke-miterlimit:4;stroke-dasharray:none;stroke-opacity:1"
     d="m 201.47628,141.3909 c 10.50849,19.5114 17.36548,36.77217 13.49999,60.07043 l 0,0"
     id="path4159-4-2"
     inkscape:connector-curvature="0"
     sodipodi:nodetypes="ccc"
     inkscape:transform-center-x="4.6284698"
     inkscape:transform-center-y="0.88543883" /><path
     style="fill:none;fill-rule:evenodd;stroke:#000000;stroke-width:1px;stroke-linecap:butt;stroke-linejoin:miter;stroke-opacity:1"
     d="m 204.79571,202.91703 c 9.43207,9.43207 23.7428,-1.62622 23.7428,-1.62622 l 0,0"
     id="path4191-9"
     inkscape:connector-curvature="0" /></svg>