<?xml version="1.0" encoding="utf-8"?>
<!-- Generator: Adobe Illustrator 19.0.0, SVG Export Plug-In . SVG Version: 6.00 Build 0)  -->
<svg version="1.1" id="Layer_1" xmlns="http://www.w3.org/2000/svg" xmlns:xlink="http://www.w3.org/1999/xlink" x="0px" y="0px"
	 viewBox="0 0 250 250" style="enable-background:new 0 0 250 250;" xml:space="preserve">
<style type="text/css">
	.st0{fill:#FFFFFF;stroke:#000000;stroke-width:10;stroke-miterlimit:10;}
	.st1{fill:#FFFFFF;stroke:#000000;stroke-width:8;stroke-miterlimit:10;}
	.st2{fill:#FFFFFF;stroke:#000000;stroke-width:6;stroke-miterlimit:10;}
</style>
<path id="XMLID_7_" class="st0" d="M74.9,67.7c0,0,9-13.5,13.5-14s15.5-2,25,0s50,13,58.5,14s23,4,25,8s11.5,18.5,14.5,21.5
	s13,11.5,11,19.5s-6,20.5-12.5,28s-17,14.5-24.5,16.5s-15.5,4-28,4s-16-4.5-31.5-4.5s-35.5-1-42.5-2.5s-19-9-20-15.5s-6-12-6-12
	s1.5-19.5,4.5-27.5S73.2,70.2,74.9,67.7z"/>
<path id="XMLID_2_" class="st1" d="M133.9,128.5c0,0,4.7-15.9,0-15.5c-4.7,0.4-17.7,3.9-22.4,3.9s-21.2,2-21.2,2s-6.7-0.4-12.6-1.2
	s-18.8-3.9-23.9-4.7c-5.1-0.8-14.5-0.4-18.4,2.8c-3.9,3.1-7.1,7.1-7.1,7.1s1.2,10.2,0,13.7s-3.5,11.8-2.7,16.5
	c0.8,4.7,5.5,21.6,5.5,21.6s3.9,6.3,10.2,7.5s16.1,2,22,0s23.5-6.3,31-6.7s17.3-2,20-4.7s5.1-12.6,5.1-12.6s2-7.1,6.3-11.8
	C130,141.7,132.7,133.3,133.9,128.5z"/>
<path id="XMLID_1_" class="st2" d="M169.3,143c0,0-8.8,0.6-10.8,5.3s-5.3,10.7-8.7,14.6s-7.5,11.2-6.7,14.9s1.9,3.5,8,5.8
	s14.6,1,21,4.4c0,0,12.9,3.3,18.8,0.4c6-3,17.8-7,18.7-11.4s-2.3-13.4-5.2-19c-2.9-5.7-8.4-6.3-13.2-10.4
	C186.5,143.5,180.1,137.6,169.3,143z"/>
</svg>
