<?xml version="1.0" encoding="UTF-8" standalone="no"?>
<!-- Generator: Adobe Illustrator 19.0.0, SVG Export Plug-In . SVG Version: 6.00 Build 0)  -->

<svg
   xmlns:dc="http://purl.org/dc/elements/1.1/"
   xmlns:cc="http://creativecommons.org/ns#"
   xmlns:rdf="http://www.w3.org/1999/02/22-rdf-syntax-ns#"
   xmlns:svg="http://www.w3.org/2000/svg"
   xmlns="http://www.w3.org/2000/svg"
   xmlns:sodipodi="http://sodipodi.sourceforge.net/DTD/sodipodi-0.dtd"
   xmlns:inkscape="http://www.inkscape.org/namespaces/inkscape"
   version="1.1"
   id="Layer_1"
   x="0px"
   y="0px"
   viewBox="0 0 250 250"
   style="enable-background:new 0 0 250 250;"
   xml:space="preserve"
   inkscape:version="0.91 r13725"
   sodipodi:docname="ruts.svg"><metadata
     id="metadata4205"><rdf:RDF><cc:Work
         rdf:about=""><dc:format>image/svg+xml</dc:format><dc:type
           rdf:resource="http://purl.org/dc/dcmitype/StillImage" /><dc:title /></cc:Work></rdf:RDF></metadata><defs
     id="defs4203" /><sodipodi:namedview
     pagecolor="#ffffff"
     bordercolor="#666666"
     borderopacity="1"
     objecttolerance="10"
     gridtolerance="10"
     guidetolerance="10"
     inkscape:pageopacity="0"
     inkscape:pageshadow="2"
     inkscape:window-width="1920"
     inkscape:window-height="1017"
     id="namedview4201"
     showgrid="false"
     inkscape:zoom="4.0116813"
     inkscape:cx="120.99894"
     inkscape:cy="124.77881"
     inkscape:current-layer="Layer_1"
     inkscape:window-x="1912"
     inkscape:window-y="-8"
     inkscape:window-maximized="1" /><style
     type="text/css"
     id="style4196">
	.st0{fill-rule:evenodd;clip-rule:evenodd;}
</style><path
     style="fill:none;fill-rule:evenodd;stroke:#000000;stroke-width:2.94565344;stroke-linecap:butt;stroke-linejoin:miter;stroke-miterlimit:4;stroke-dasharray:none;stroke-opacity:1"
     d="m 101.56011,20.948749 c 17.68401,5.082444 16.53018,16.103654 0,20.854485 -15.715081,4.516569 -15.340846,16.445477 0,20.854486 18.21234,5.234288 17.34802,15.868611 0,20.854491 -15.707717,4.514449 -15.599958,16.371008 0,20.854489 16.6253,4.77817 16.3754,16.14815 0,20.85449 -15.624855,4.49063 -14.029904,16.82224 0,20.85449 16.09113,4.62464 17.15513,15.92404 0,20.85448 -15.333704,4.40696 -15.177936,16.4923 0,20.8545 16.03568,4.6087 16.94983,15.98304 0,20.85449 -15.359748,4.41444 -16.030665,16.24721 0,20.85448"
     id="path4237"
     inkscape:connector-curvature="0"
     sodipodi:nodetypes="csssssssssc" /><path
     style="fill:none;fill-rule:evenodd;stroke:#000000;stroke-width:2.89032102;stroke-linecap:butt;stroke-linejoin:miter;stroke-miterlimit:4;stroke-dasharray:none;stroke-opacity:1"
     d="m 138.40418,20.92158 c 17.02145,5.083769 15.91085,16.107849 0,20.859918 -15.12628,4.517745 -14.76607,16.449762 0,20.859919 17.52998,5.235652 16.69804,15.872747 0,20.859921 -15.11919,4.515632 -15.01547,16.375275 0,20.859932 16.00241,4.77941 15.76187,16.15235 0,20.85992 -15.03944,4.4918 -13.50424,16.82663 0,20.85992 15.48825,4.62585 16.51239,15.92819 0,20.85992 -14.75919,4.40811 -14.60926,16.4966 0,20.85993 15.43487,4.6099 16.31478,15.9872 0,20.85992 -14.78426,4.41559 -15.43004,16.25145 0,20.85992"
     id="path4237-3"
     inkscape:connector-curvature="0"
     sodipodi:nodetypes="csssssssssc" /></svg>