<?xml version="1.0" encoding="utf-8"?>
<!-- Generator: Adobe Illustrator 19.0.0, SVG Export Plug-In . SVG Version: 6.00 Build 0)  -->
<svg version="1.1" id="Layer_1" xmlns="http://www.w3.org/2000/svg" xmlns:xlink="http://www.w3.org/1999/xlink" x="0px" y="0px"
	 viewBox="0 0 250 250" style="enable-background:new 0 0 250 250;" xml:space="preserve">
<style type="text/css">
	.st0{fill-rule:evenodd;clip-rule:evenodd;}
</style>
<g>
	<g>
		<path class="st0" d="M24.2,121.3"/>
		<path class="st0" d="M35.3,160.1l0.8,3.1c0.1,0.1,0.2,0.2,0.3,0.2C36,162.3,35.7,161.1,35.3,160.1z"/>
		<path class="st0" d="M36.3,163.4c-0.1-0.1-0.2-0.2-0.3-0.2"/>
		<path class="st0" d="M157.2,123.4l-1.2-2c-1.8,0.2-1.4,0.6-1.6-0.8c-2.8,0.6-4.3,2.4-6.5,0l-1.5-0.4l-0.9-1.2
			c-1.5-0.1-0.6-2.7-2.4-2.4c1.3-0.9,2.2,1.8,3.2-1.6l-0.4-0.8l-0.4-0.8c-1.4-1.4-8.5-2.4-9.8-2.9c-0.7,1.3-2-1.4-1.1-2.4
			c-1.1,0.7-1.4,0.2-1.2-1.9c-1.2,1-1.1,3.8-3.2,1.6l0.4,0.4l-0.4-0.4c0,1.3-2.2,0.5-2.4,1.6c-1.4-0.3,0.2-1,0-2.4l-1.2-0.4l1.2-0.4
			c-1.2-1.5-2.2-2.7,0-4l-0.4-1.2l1.2-0.4c0-1.1,0.4-1.8,0.8-2.4h-0.8v-0.8c-0.5-2.4-1.7,0.8-3.2,0c0-0.8,0.7-1,0.8-1.6l-1.2-0.4
			l0.4-1.2c-1.1,0-2.2,0-3.2,0l-1.2-0.4l0.4-1.2c-0.3,0-0.5,0-0.8,0l0.2,1.4l-1,1c3.2,3-4.8,0.5-2.4,0l-0.4-1.5l1.2-0.9
			c-0.2-1-1.3-1.6,0.8-1.6c-1.1-3.1-4.8,1.2-4.8-3.2c1,0,1.1,1,2.4,0.8c-1.2-1.8-2.7-3.3-4.8-4l0.4,1.2l-1.2,0.4c-1,0-1.1-1-2.4-0.8
			l-1,1.1l-0.6,1.3c0,0.5,0,1.1,0,1.6c-0.5,0-1.1,0-1.6,0l-0.4,0.8l-0.4-0.8c-1,0-1.1-1-2.4-0.8c0.5,1.2,1.3,2,2.4,2.4
			c-1.1,2.3-2.8-1.4-4.8-0.8c0-1.1,1.4-0.7,1.6-1.6c-1.2-2.2-3.1-0.5-5.6-2.4c1.1-3.5-1.7-3.2-3.2-4v0.8h-0.8
			c-0.6,0.2-0.9,0.7-0.8,1.6c-1.7-0.5-1.7-1.3-0.8-2.4c-1,0.2-1.6,1.3-1.6-0.8c-1.6,1.7-3.4,0-4-1.6c-1.5-0.2-1.8,0.9-3.2,0.8h-1.6
			h-1.6c-0.2,0.6,0,1.6-0.8,1.6l0.4,1.5l-1.2,0.9c0,1.1-0.4,1.8-0.8,2.4c1-0.1,1.9-0.2,1.6-1.6c3.3,1.3-2.9,3.9,0,4.8
			c-0.4,3.1-3.3-1.8-0.8-1.6c-0.5-2.3-1.3,1.2-2.4,0.8v1.6h-1.6c-0.5,0-1.1,0-1.6,0l-2,0.4l-2-0.4c0,0.8,0,1.6,0,2.4l0.4,0.8
			l-0.4,0.8c0.9-0.1,2.3,0.1,2.4-0.8c1,0.2,0.5,0.9,0,1.6h0.8v0.8c-0.1,1-0.2,1.9-1.6,1.6c0-0.3,0-0.5,0-0.8h-0.8h-0.8
			c-0.2,0.6-0.7,0.9-1.6,0.8l0.4,1.2L64,98.8c-0.8,0-1-0.7-1.6-0.8l-1.2-0.4L60,98c0,1.1-0.4,1.8-0.8,2.4c-0.3,0-0.5,0-0.8,0
			l0.4,1.2l-1.2-0.4c-0.5,0-1.1,0-1.6,0l0.4,1.2l-1.2,0.4c1.7,2.2-1.1,1.2-2.4,0.8l-1.2-0.4l0.4-1.2c-0.3,0-0.5,0-0.8,0l-1.5,0.9
			l-0.9,1.5c0,0.3,0,0.5,0,0.8l0.4,1.2l-1.2-0.4c0,0.5,0,1.1,0,1.6l1.2-0.4l-0.4,1.2c-0.1,1.2-4.3,4.2-4,0.8l-1.2,0.4l0.4-1.2
			c-1.2,0.1-3-0.3-3.2,0.8l1.4,0.8l-1.4,0.8c0,0.3,0,0.5,0,0.8l1.2,0.9l-0.4,1.5c5.6-0.5-1,2.4-1.6,0l-1.2-0.4l0.4-1.2
			c-0.6-0.2-0.9-0.7-0.8-1.6l-1.2,0.4l-0.4-1.2l-7.4,4.2c-1.5,2-2.9,4-4.4,6.1c-0.1,0.4-0.1,0.9-0.2,1.3l3.1,2.9l0.7-0.7l0.9-0.1
			c1,0,1.1,1,2.4,0.8c-1.8-2.9-6.4-2.5-0.8-5.6l0.4-1.2l0.4,1.2c1.2-0.3,1.4-1,2.4,0l0.8,0.4l0.8,0.4c1.3-2.3,3-1,4.8,0l1.2-0.4
			l-0.4,1.2c4.5-0.5,4.9,3.2,8.1,4c-0.8,1.8-4-0.7-4-2.4c-3.2-1-2,3-4,0.8l-0.4,1.2l-1.2-0.4c-0.4,0-0.9,0.7,0,0.8
			c-1.8,2.8-1.5-3.3-4.8-1.6l-0.4,1.2l-0.4,1.2c0.1,0.9-1.2,1.3,0,1.6c-0.1,0.9-1.3,0.9-2.4,0.8c2.9,0.6,2.5,4.5,4,6.5l1.2,0.4
			l-1.2,0.4c-0.1,0.9,1.2,1.3,0,1.6l0.4,1.2l-1.2-0.4c-2.2,0.3-1.4,2.5,0,3.2c-0.3,1.4-1-0.2-2.4,0l-0.4,1.2l-1.2-0.4
			c0,0.8-0.7,1-0.8,1.6c1.7,0.7,1.4,3.4,4,3.2c-0.2,1.3-1.8,0.6-2.4,0c-1.2,3.1,3.6,0.2,2.4,3.2c-3.7-0.7-0.8,1.3-2.4,1.6l0.4,1.2
			l-0.7,0.2c1.5,2,2.6,4.3,3.5,6.7c0.2,0,0.4,0,0.7-0.1c-0.1,0.3-0.3,0.5-0.5,0.7c0.4,1.1,0.7,2.2,1,3.4c2.6,2.3-2.9,4.5-0.2,6.4
			c84.9,0,105.3,0,190.1,0c2.9-2.4-6.8,0.1-4.2-4.2c0.2-4.1,0.4-1.7,0-5.8c-0.6,0.3-1.4,0.4-2.4,0.3c-0.1-1.7,1.2-2.3,2.3-2.1
			c-0.2-1.5-0.4-2.9-0.7-4.4c-1.5-0.2-2.9-0.8-3.1-0.7l-1.2-0.4l0.4-1.2c-1.2,0-6.6,0.3-4-0.8l-0.4-0.8l-0.4-0.8
			c0.3-1,1-1.6,2.4-1.6l-0.4-1.2l1.2-0.4c0-0.3,0-0.5,0-0.8l-1.2-0.4l0.4-1.2c-2.5-0.1-4.6,1.9-6.5,0l-1.2-0.4l0.4-1.2
			c-1.4-0.2-1.8-1.4-1.6-3.2c2.5,0.4,2.1-2.2,4-2.4l-0.4-1.2l0.4-1.2c-1.7-1.2,0.9-2.3-1.6-3.2l-0.4-1.2l0.4-1.2
			c-0.8,0-1-0.7-1.6-0.8l-1.2-0.4l0.4-1.2c-1.6-0.9,2.3-2.1-0.8-3.2l-0.8,0.4l-0.8-0.4c-1.4-1.5-2.4,1-4-0.8c0-2.3,2.2,1.9,1.6-1.6
			l-1.2-0.4l0.4-1.2c0-0.3,0-0.5,0-0.8l-1-1l-1.4,0.2c-0.3,0-0.5,0-0.8,0l0.4,2l-2-0.4c-0.2,0.6,0,1.6-0.8,1.6l0.4,0.8l0.4,0.8
			c0,1,1,1.1,0.8,2.4c-1-0.3-1.6-1-1.6-2.4l-1.2,0.4l-0.4-1.2c-0.3,0-0.5,0-0.8,0h-0.8v-0.8c-1,0.4-1.8,0.9-2.4,1.6
			c-2-0.1-0.2-2.7,0.8-2.4c-0.5-1.6-2.7,0.8-3.2-0.8l-1.2-0.4l0.4-1.2c-1.1,0-1.8-0.4-2.4-0.8v0.8h-0.8c-0.2,0.6-0.7,0.9-1.6,0.8
			c0-0.5,0-1.1,0-1.6c0.5,0,1.1,0,1.6,0l-0.4-1.2l1.2,0.4c1.6,1.6,2.5-1.6,4.8-1.6c-0.2-1.7-2.2,1.2-3.2-0.8l-1.6,0.7l-1.6-0.7
			c-1.2-0.1-3,0.3-3.2-0.8l-1.2,0.4l-0.4-1.2c-1.7-0.5-3.5-1.7-0.8-2.4c0-0.8-1.4-1-1.6,0c-2.2-0.7,1.8-1.8,1.6-3.2
			c1.5,0.2,4.5,2.9,5.6,0.8c1.3-0.3-0.1,3-0.8,3.2l0.4,0.8l0.4,0.8l1.6-0.8l1.6,0.8c1.6-0.5,0.2-4.1,3.2-3.2c1.7,3.6,0.2,3.5,3.2,4
			v-0.8h0.8c0-0.3,0-0.5,0-0.8l0.4-1.2l1.2,0.4c0-0.5,0.1-1,0.8-0.8l-0.4-0.4l-0.4-0.4c0.2-0.6,0-1.6,0.8-1.6c-0.3-1.4-1,0.2-2.4,0
			c-0.9-2.5,1.3-2,1.6-3.2c0.3,0,0.5,0,0.8,0l-0.4-1.5l-1.2-0.9c-1.4-0.7-1.3-3.6-3.2-1.6H189V98c-1.4,0.2-1.8,1.4-1.6,3.2l1.4,0.8
			l-1.4,0.8c2.5,1.3,0.5,3.3-0.8,0.8l-1.2-0.4l0.4-1.2c-1.2-0.9-2-0.9-3.2,0l-1.2,0.4l-1.2-0.4c-0.2,0.6-0.7,0.9-1.6,0.8
			c0-0.5,0-1.1,0-1.6c0.5,0,1.1,0,1.6,0l0.1-2.4l2.3,0.8c0.3,0,0.5,0,0.8,0l-0.4-0.8l0.4-0.8c-2.3-0.4,1.3-1.2,1.6-1.6l-0.4-0.8
			l0.4-0.8c0-0.5,0-1.1,0-1.6l-1.2-0.9l0.4-1.5c-0.5,0-1.1,0-1.6,0L183,92l-1.2-0.4c-0.5,0-1,0.1-0.8,0.8l-0.4,1.2l-1.2-0.4
			c0.1,3.6-2-0.1-4,0.8c0.6,0.6,3.4,2.6,0,2.4c0.2,0.6,0.7,0.9,1.6,0.8c-0.3,2.6-3.4,2.6-4,4.8c-1-0.4-1.8-0.9-2.4-1.6
			c-1.8,0.5,1,1.3-0.8,2.4c-2-1.6-5.3,0.7-6.5,2.4l1.2,0.9l-0.4,1.5c0.3,0,0.5,0,0.8,0l0.8-1.9l0.8,1.9c3.6-0.4,2.7,2.5,0,0.8
			l-0.8,1.1l-0.8-1.1c-0.5,0-1,0.1-0.8,0.8l1.2,0.4l-0.4,1.2c2.2,0.3,0,2.5-1.6,1.6h-0.8v-0.8c-1.4,0.7-2.5,1.8-3.2,3.2h0.8v0.8
			c-0.7,2.2-2.5,3.4-4.8,4 M167.3,117.4c0.6-2.1,1.8-3.6,4.8-3.2C171.4,116.2,169.7,117.1,167.3,117.4z"/>
		<path class="st0" d="M24.2,121.3l0.4,0.4c0.1-0.4,0.1-0.9,0.2-1.3C24.6,120.7,24.4,121,24.2,121.3z"/>
	</g>
</g>
</svg>
