<?xml version="1.0" encoding="UTF-8" standalone="no"?>
<!-- Generator: Adobe Illustrator 19.0.0, SVG Export Plug-In . SVG Version: 6.00 Build 0)  -->

<svg
   xmlns:dc="http://purl.org/dc/elements/1.1/"
   xmlns:cc="http://creativecommons.org/ns#"
   xmlns:rdf="http://www.w3.org/1999/02/22-rdf-syntax-ns#"
   xmlns:svg="http://www.w3.org/2000/svg"
   xmlns="http://www.w3.org/2000/svg"
   xmlns:sodipodi="http://sodipodi.sourceforge.net/DTD/sodipodi-0.dtd"
   xmlns:inkscape="http://www.inkscape.org/namespaces/inkscape"
   version="1.1"
   id="Layer_1"
   x="0px"
   y="0px"
   viewBox="0 0 250 250"
   style="enable-background:new 0 0 250 250;"
   xml:space="preserve"
   inkscape:version="0.91 r13725"
   sodipodi:docname="wash bend1.svg"><metadata
     id="metadata4205"><rdf:RDF><cc:Work
         rdf:about=""><dc:format>image/svg+xml</dc:format><dc:type
           rdf:resource="http://purl.org/dc/dcmitype/StillImage" /><dc:title /></cc:Work></rdf:RDF></metadata><defs
     id="defs4203" /><sodipodi:namedview
     pagecolor="#ffffff"
     bordercolor="#666666"
     borderopacity="1"
     objecttolerance="10"
     gridtolerance="10"
     guidetolerance="10"
     inkscape:pageopacity="0"
     inkscape:pageshadow="2"
     inkscape:window-width="1070"
     inkscape:window-height="706"
     id="namedview4201"
     showgrid="false"
     inkscape:zoom="2.1740817"
     inkscape:cx="118.33551"
     inkscape:cy="124.23026"
     inkscape:current-layer="Layer_1"
     inkscape:window-x="130"
     inkscape:window-y="130"
     inkscape:window-maximized="0" /><style
     type="text/css"
     id="style4196">
	.st0{fill-rule:evenodd;clip-rule:evenodd;}
</style><path
     style="fill:none;fill-rule:evenodd;stroke:#000000;stroke-width:3.5;stroke-linecap:butt;stroke-linejoin:miter;stroke-miterlimit:4;stroke-dasharray:none;stroke-opacity:1"
     d="M 29.922437,241.54367 C 18.538901,218.12611 17.843526,219.71332 17.888414,206.41732 17.950047,188.16108 32.316106,190.19738 32.849632,172.26671 33.288009,157.53377 19.380296,152.15453 21.200534,132.29319 23.247488,109.95805 37.336041,115.25423 42.60695,104.29074 50.738046,87.378052 35.776828,73.067326 47.810851,58.756595 58.32315,46.255483 78.055594,52.06823 89.442069,42.819645 102.11604,32.525298 100.8256,20.052572 116.11207,15.824402 c 18.3536,-5.076528 31.76572,8.487639 50.4128,6.830121 14.63597,-1.300975 17.18451,-15.467838 39.02927,-16.2621938 17.88841,-0.6504882 34.47585,12.6845118 34.47585,12.6845118"
     id="path4818"
     inkscape:connector-curvature="0"
     sodipodi:nodetypes="csssssssssc" /><path
     style="fill:none;fill-rule:evenodd;stroke:#000000;stroke-width:3.20000005;stroke-linecap:butt;stroke-linejoin:miter;stroke-miterlimit:4;stroke-dasharray:none;stroke-opacity:1"
     d="m 111.14519,240.65138 c -7.87198,-17.02196 -14.304256,-19.50468 -14.273215,-29.16941 0.04263,-13.27025 12.904115,-18.36419 13.543325,-31.38734 0.47774,-9.73347 -12.030941,-26.5932 -6.54404,-39.07872 8.8394,-15.10594 18.29183,-11.27232 26.20213,-20.37269 8.76435,-13.66247 3.13698,-18.40167 16.19664,-27.084568 11.00677,-7.318002 19.74947,6.628068 35.6355,4.423447 9.4968,-1.317939 17.45602,-14.583628 32.56219,-15.161037 12.37027,-0.472833 24.24219,9.101335 24.24219,9.101335"
     id="path4818-4"
     inkscape:connector-curvature="0"
     sodipodi:nodetypes="cssccsssc" /></svg>