<?xml version="1.0" encoding="UTF-8" standalone="no"?>
<!-- Generator: Adobe Illustrator 19.0.0, SVG Export Plug-In . SVG Version: 6.00 Build 0)  -->

<svg
   xmlns:dc="http://purl.org/dc/elements/1.1/"
   xmlns:cc="http://creativecommons.org/ns#"
   xmlns:rdf="http://www.w3.org/1999/02/22-rdf-syntax-ns#"
   xmlns:svg="http://www.w3.org/2000/svg"
   xmlns="http://www.w3.org/2000/svg"
   xmlns:sodipodi="http://sodipodi.sourceforge.net/DTD/sodipodi-0.dtd"
   xmlns:inkscape="http://www.inkscape.org/namespaces/inkscape"
   version="1.1"
   id="Layer_1"
   x="0px"
   y="0px"
   viewBox="0 0 180 200"
   xml:space="preserve"
   inkscape:version="0.91 r13725"
   sodipodi:docname="dune.svg"
   width="180"
   height="200"><metadata
     id="metadata15"><rdf:RDF><cc:Work
         rdf:about=""><dc:format>image/svg+xml</dc:format><dc:type
           rdf:resource="http://purl.org/dc/dcmitype/StillImage" /><dc:title /></cc:Work></rdf:RDF></metadata><defs
     id="defs13" /><sodipodi:namedview
     pagecolor="#ffffff"
     bordercolor="#666666"
     borderopacity="1"
     objecttolerance="10"
     gridtolerance="10"
     guidetolerance="10"
     inkscape:pageopacity="0"
     inkscape:pageshadow="2"
     inkscape:window-width="1536"
     inkscape:window-height="801"
     id="namedview11"
     showgrid="false"
     inkscape:zoom="3.5333335"
     inkscape:cx="105.82742"
     inkscape:cy="120.33496"
     inkscape:window-x="-8"
     inkscape:window-y="-8"
     inkscape:window-maximized="1"
     inkscape:current-layer="text3344" /><style
     type="text/css"
     id="style3">
	.st0{font-family:&quot;Arial Black&quot;, &quot;Arial Bold&quot;, Gadget, sans-serif;}
	.st1{font-size:118.4014px;}
	
		.st2{fill-rule:evenodd;clip-rule:evenodd;fill:none;stroke:#000000;stroke-width:18.9859;stroke-linecap:round;stroke-miterlimit:10;}
</style><flowRoot
     xml:space="preserve"
     id="flowRoot3336"
     style="fill:black;stroke:none;stroke-opacity:1;stroke-width:1px;stroke-linejoin:miter;stroke-linecap:butt;fill-opacity:1;font-family:Arial;font-style:normal;font-weight:900;font-size:40px;line-height:125%;letter-spacing:0px;word-spacing:0px;-inkscape-font-specification:'Arial, Heavy';font-stretch:normal;font-variant:normal;text-anchor:middle;text-align:center;writing-mode:lr"><flowRegion
       id="flowRegion3338"><rect
         id="rect3340"
         width="142.58875"
         height="86.720642"
         x="17.510899"
         y="69.919037" /></flowRegion><flowPara
       id="flowPara3342" /></flowRoot><g
     transform="scale(0.83328319,1.2000722)"
     style="font-style:normal;font-variant:normal;font-weight:900;font-stretch:normal;font-size:139.69145203px;line-height:125%;font-family:Arial;-inkscape-font-specification:'Arial, Heavy';text-align:center;letter-spacing:0px;word-spacing:0px;writing-mode:lr-tb;text-anchor:middle;fill:#000000;fill-opacity:1;stroke:none;stroke-width:1px;stroke-linecap:butt;stroke-linejoin:miter;stroke-opacity:1"
     id="text3344"><path
       d="m 15.600936,33.331339 44.945947,0 q 13.290109,0 21.437814,3.68327 8.214489,3.683271 13.557247,10.572351 5.342756,6.889081 7.746996,16.029049 2.40424,9.139968 2.40424,19.371275 0,16.029049 -3.60636,24.896186 -3.539575,8.79892 -9.884099,14.80129 -6.344524,5.93416 -13.624032,7.91221 -9.950885,2.72835 -18.031806,2.72835 l -44.945947,0 0,-99.993981 z m 30.253363,22.645294 0,54.635177 7.413077,0 q 9.483395,0 13.490463,-2.11447 4.007068,-2.18267 6.277739,-7.50295 2.270672,-5.388493 2.270672,-17.393227 0,-15.892631 -5.075619,-21.758581 -5.07562,-5.865949 -16.829687,-5.865949 l -7.546645,0 z"
       id="path3361"
       inkscape:connector-curvature="0" /><path
       d="m 112.4672,33.331339 26.38864,0 34.43623,55.317269 0,-55.317269 26.63817,0 0,99.993981 -26.63817,0 -34.24908,-54.90802 0,54.90802 -26.57579,0 0,-99.993981 z"
       id="path3363"
       inkscape:connector-curvature="0" /></g></svg>