<?xml version="1.0" encoding="UTF-8" standalone="no"?>
<!-- Generator: Adobe Illustrator 19.0.0, SVG Export Plug-In . SVG Version: 6.00 Build 0)  -->

<svg
   xmlns:dc="http://purl.org/dc/elements/1.1/"
   xmlns:cc="http://creativecommons.org/ns#"
   xmlns:rdf="http://www.w3.org/1999/02/22-rdf-syntax-ns#"
   xmlns:svg="http://www.w3.org/2000/svg"
   xmlns="http://www.w3.org/2000/svg"
   xmlns:sodipodi="http://sodipodi.sourceforge.net/DTD/sodipodi-0.dtd"
   xmlns:inkscape="http://www.inkscape.org/namespaces/inkscape"
   version="1.1"
   id="Layer_1"
   x="0px"
   y="0px"
   viewBox="0 0 180 200"
   xml:space="preserve"
   inkscape:version="0.91 r13725"
   sodipodi:docname="gravel.svg"
   width="180"
   height="200"><metadata
     id="metadata15"><rdf:RDF><cc:Work
         rdf:about=""><dc:format>image/svg+xml</dc:format><dc:type
           rdf:resource="http://purl.org/dc/dcmitype/StillImage" /><dc:title /></cc:Work></rdf:RDF></metadata><defs
     id="defs13" /><sodipodi:namedview
     pagecolor="#ffffff"
     bordercolor="#666666"
     borderopacity="1"
     objecttolerance="10"
     gridtolerance="10"
     guidetolerance="10"
     inkscape:pageopacity="0"
     inkscape:pageshadow="2"
     inkscape:window-width="1536"
     inkscape:window-height="801"
     id="namedview11"
     showgrid="false"
     inkscape:zoom="1.7666668"
     inkscape:cx="119.64575"
     inkscape:cy="91.266531"
     inkscape:window-x="-8"
     inkscape:window-y="-8"
     inkscape:window-maximized="1"
     inkscape:current-layer="text3344" /><style
     type="text/css"
     id="style3">
	.st0{font-family:&quot;Arial Black&quot;, &quot;Arial Bold&quot;, Gadget, sans-serif;}
	.st1{font-size:118.4014px;}
	
		.st2{fill-rule:evenodd;clip-rule:evenodd;fill:none;stroke:#000000;stroke-width:18.9859;stroke-linecap:round;stroke-miterlimit:10;}
</style><flowRoot
     xml:space="preserve"
     id="flowRoot3336"
     style="fill:black;stroke:none;stroke-opacity:1;stroke-width:1px;stroke-linejoin:miter;stroke-linecap:butt;fill-opacity:1;font-family:Arial;font-style:normal;font-weight:900;font-size:40px;line-height:125%;letter-spacing:0px;word-spacing:0px;-inkscape-font-specification:'Arial, Heavy';font-stretch:normal;font-variant:normal;text-anchor:middle;text-align:center;writing-mode:lr"><flowRegion
       id="flowRegion3338"><rect
         id="rect3340"
         width="142.58875"
         height="86.720642"
         x="17.510899"
         y="69.919037" /></flowRegion><flowPara
       id="flowPara3342" /></flowRoot><g
     transform="scale(0.81821282,1.2221759)"
     style="font-style:normal;font-variant:normal;font-weight:900;font-stretch:normal;font-size:132.6411438px;line-height:125%;font-family:Arial;-inkscape-font-specification:'Arial, Heavy';text-align:center;letter-spacing:0px;word-spacing:0px;writing-mode:lr-tb;text-anchor:middle;fill:#000000;fill-opacity:1;stroke:none;stroke-width:1px;stroke-linecap:butt;stroke-linejoin:miter;stroke-opacity:1"
     id="text3344"><path
       d="m 65.76487,94.904048 0,-19.753686 41.93062,0 0,40.478868 q -12.040073,8.87296 -21.324713,12.11127 -9.224737,3.17355 -21.923727,3.17355 -15.634134,0 -25.517781,-5.76419 -9.823747,-5.76419 -15.274729,-17.16304 -5.39108,-11.398851 -5.39108,-26.165541 0,-15.543884 5.930189,-27.007499 5.930188,-11.52838 17.371259,-17.486869 8.925233,-4.598399 24.02026,-4.598399 14.555916,0 21.744024,2.849712 7.248008,2.849712 11.980179,8.872967 4.792069,5.958489 7.188109,15.155287 L 80.320788,64.65824 q -1.617325,-5.375593 -5.510883,-8.225305 -3.833657,-2.849712 -9.823747,-2.849712 -8.925234,0 -14.256413,6.735683 -5.271279,6.670917 -5.271279,21.178542 0,15.414352 5.33118,22.020502 5.391081,6.60615 14.975224,6.60615 4.552468,0 8.68563,-1.42485 4.133161,-1.42486 9.464341,-4.85747 l 0,-8.937732 -18.149971,0 z"
       id="path3396"
       inkscape:connector-curvature="0" /><path
       d="m 108.52298,34.347666 28.63553,0 19.93614,68.328324 19.63407,-68.328324 27.78975,0 -32.8644,94.947224 -29.66255,0 -33.46854,-94.947224 z"
       id="path3398"
       inkscape:connector-curvature="0" /></g></svg>