<?xml version="1.0" encoding="UTF-8" standalone="no"?>
<!-- Generator: Adobe Illustrator 19.0.0, SVG Export Plug-In . SVG Version: 6.00 Build 0)  -->

<svg
   xmlns:dc="http://purl.org/dc/elements/1.1/"
   xmlns:cc="http://creativecommons.org/ns#"
   xmlns:rdf="http://www.w3.org/1999/02/22-rdf-syntax-ns#"
   xmlns:svg="http://www.w3.org/2000/svg"
   xmlns="http://www.w3.org/2000/svg"
   xmlns:sodipodi="http://sodipodi.sourceforge.net/DTD/sodipodi-0.dtd"
   xmlns:inkscape="http://www.inkscape.org/namespaces/inkscape"
   version="1.1"
   id="Layer_1"
   x="0px"
   y="0px"
   viewBox="0 0 250 200"
   xml:space="preserve"
   inkscape:version="0.91 r13725"
   sodipodi:docname="rocky.svg"
   width="250"
   height="200"><metadata
     id="metadata11"><rdf:RDF><cc:Work
         rdf:about=""><dc:format>image/svg+xml</dc:format><dc:type
           rdf:resource="http://purl.org/dc/dcmitype/StillImage" /><dc:title /></cc:Work></rdf:RDF></metadata><defs
     id="defs9" /><sodipodi:namedview
     pagecolor="#ffffff"
     bordercolor="#666666"
     borderopacity="1"
     objecttolerance="10"
     gridtolerance="10"
     guidetolerance="10"
     inkscape:pageopacity="0"
     inkscape:pageshadow="2"
     inkscape:window-width="1536"
     inkscape:window-height="801"
     id="namedview7"
     showgrid="false"
     inkscape:zoom="2.0830185"
     inkscape:cx="96.393844"
     inkscape:cy="64.169536"
     inkscape:window-x="-8"
     inkscape:window-y="-8"
     inkscape:window-maximized="1"
     inkscape:current-layer="text5" /><style
     type="text/css"
     id="style3">
	.st0{font-family:&quot;Arial Black&quot;, &quot;Arial Bold&quot;, Gadget, sans-serif;}
	.st1{font-size:75px;}
</style><g
     transform="scale(0.78624053,1.2718754)"
     style="font-size:131.80523682px;font-family:'Arial Black', 'Arial Bold', Gadget, sans-serif"
     id="text5"><path
       d="m 20.197936,31.449611 74.532297,0 0,20.144062 -46.659428,0 0,14.99542 43.282759,0 0,19.24305 -43.282759,0 0,18.599467 48.010096,0 0,21.36687 -75.882965,0 0,-94.348869 z"
       style="font-size:131.80523682px;font-family:'Arial Black', 'Arial Bold', Gadget, sans-serif"
       id="path4916"
       inkscape:connector-curvature="0" /><path
       d="m 108.06834,31.449611 35.92983,0 13.86553,57.407359 13.80525,-57.407359 35.80926,0 0,94.348869 -22.30543,0 0,-71.952276 -17.30178,71.952276 -20.19545,0 -17.2415,-71.952276 0,71.952276 -22.36571,0 0,-94.348869 z"
       style="font-size:131.80523682px;font-family:'Arial Black', 'Arial Bold', Gadget, sans-serif"
       id="path4918"
       inkscape:connector-curvature="0" /><path
       d="m 225.8846,31.449611 42.91768,0 q 14.0209,0 20.97436,7.529889 7.01046,7.529889 7.01046,21.431223 0,14.287482 -7.63741,22.332235 -7.58041,8.044753 -23.19719,8.044753 l -14.13491,0 0,35.010769 -25.93299,0 0,-94.348869 z m 25.93299,40.223766 6.32651,0 q 7.46642,0 10.48718,-2.896111 3.02077,-2.960469 3.02077,-7.529889 0,-4.440703 -2.62179,-7.529889 -2.6218,-3.089185 -9.86024,-3.089185 l -7.35243,0 0,21.045074 z"
       style="font-size:131.80523682px;font-family:'Arial Black', 'Arial Bold', Gadget, sans-serif"
       id="path4920"
       inkscape:connector-curvature="0" /></g></svg>