<?xml version="1.0" encoding="UTF-8" standalone="no"?>
<!-- Generator: Adobe Illustrator 19.0.0, SVG Export Plug-In . SVG Version: 6.00 Build 0)  -->

<svg
   xmlns:dc="http://purl.org/dc/elements/1.1/"
   xmlns:cc="http://creativecommons.org/ns#"
   xmlns:rdf="http://www.w3.org/1999/02/22-rdf-syntax-ns#"
   xmlns:svg="http://www.w3.org/2000/svg"
   xmlns="http://www.w3.org/2000/svg"
   xmlns:sodipodi="http://sodipodi.sourceforge.net/DTD/sodipodi-0.dtd"
   xmlns:inkscape="http://www.inkscape.org/namespaces/inkscape"
   version="1.1"
   id="Layer_1"
   x="0px"
   y="0px"
   viewBox="0 0 250 200"
   xml:space="preserve"
   inkscape:version="0.91 r13725"
   sodipodi:docname="small-dune.svg"
   width="250"
   height="200"><metadata
     id="metadata11"><rdf:RDF><cc:Work
         rdf:about=""><dc:format>image/svg+xml</dc:format><dc:type
           rdf:resource="http://purl.org/dc/dcmitype/StillImage" /><dc:title /></cc:Work></rdf:RDF></metadata><defs
     id="defs9" /><sodipodi:namedview
     pagecolor="#ffffff"
     bordercolor="#666666"
     borderopacity="1"
     objecttolerance="10"
     gridtolerance="10"
     guidetolerance="10"
     inkscape:pageopacity="0"
     inkscape:pageshadow="2"
     inkscape:window-width="1536"
     inkscape:window-height="801"
     id="namedview7"
     showgrid="false"
     inkscape:zoom="2.0830188"
     inkscape:cx="93.759598"
     inkscape:cy="118.39571"
     inkscape:window-x="-8"
     inkscape:window-y="-8"
     inkscape:window-maximized="1"
     inkscape:current-layer="text5" /><style
     type="text/css"
     id="style3">
	.st0{font-family:&quot;Arial Black&quot;, &quot;Arial Bold&quot;, Gadget, sans-serif;}
	.st1{font-size:75px;}
</style><g
     transform="scale(0.80115938,1.2481911)"
     style="font-size:134.30622864px;font-family:'Arial Black', 'Arial Bold', Gadget, sans-serif"
     id="text5"><path
       d="m 18.722866,32.046375 41.809565,0 q 12.362709,0 19.941858,3.541277 7.641273,3.541278 12.611207,10.164778 4.969933,6.623501 7.206404,15.411115 2.23647,8.787615 2.23647,18.624497 0,15.411115 -3.354705,23.936408 -3.292582,8.45972 -9.194378,14.23069 -5.901796,5.7054 -12.673331,7.60719 -9.2565,2.62317 -16.773525,2.62317 l -41.809565,0 0,-96.139125 z m 28.142248,21.772298 0,52.528947 6.895783,0 q 8.821632,0 12.549082,-2.03295 3.72745,-2.09854 5.839672,-7.213716 2.112221,-5.180758 2.112221,-16.722699 0,-15.279957 -4.721436,-20.919769 -4.721437,-5.639813 -15.655291,-5.639813 l -7.020031,0 z"
       style="font-size:134.30622864px;font-family:'Arial Black', 'Arial Bold', Gadget, sans-serif"
       id="path5009"
       inkscape:connector-curvature="0" /><path
       d="m 114.72938,32.046375 25.69456,0 33.53051,53.184741 0,-53.184741 25.93755,0 0,96.139125 -25.93755,0 -33.34827,-52.791266 0,52.791266 -25.8768,0 0,-96.139125 z"
       style="font-size:134.30622864px;font-family:'Arial Black', 'Arial Bold', Gadget, sans-serif"
       id="path5011"
       inkscape:connector-curvature="0" /><path
       d="m 209.33214,32.046375 86.48915,0 0,23.739675 -29.01815,0 0,72.39945 -28.45285,0 0,-72.39945 -29.01815,0 0,-23.739675 z"
       style="font-size:134.30622864px;font-family:'Arial Black', 'Arial Bold', Gadget, sans-serif"
       id="path5013"
       inkscape:connector-curvature="0" /></g><text
     transform="scale(0.79983082,1.2502644)"
     class="st0 st1"
     x="5.0010576"
     y="96.020195"
     style="font-size:97.24591827px;font-family:'Arial Black', 'Arial Bold', Gadget, sans-serif"
     id="text3386" />
<text
     xml:space="preserve"
     style="font-style:normal;font-weight:normal;font-size:40px;line-height:125%;font-family:sans-serif;letter-spacing:0px;word-spacing:0px;fill:#000000;fill-opacity:1;stroke:none;stroke-width:1px;stroke-linecap:butt;stroke-linejoin:miter;stroke-opacity:1"
     x="83.726418"
     y="71.75708"
     id="text3370"
     sodipodi:linespacing="125%"><tspan
       sodipodi:role="line"
       id="tspan3372"
       x="83.726418"
       y="71.75708" /></text>
<text
     xml:space="preserve"
     style="font-style:normal;font-weight:normal;font-size:40px;line-height:125%;font-family:sans-serif;letter-spacing:0px;word-spacing:0px;fill:#000000;fill-opacity:1;stroke:none;stroke-width:1px;stroke-linecap:butt;stroke-linejoin:miter;stroke-opacity:1"
     x="30.365566"
     y="93.86792"
     id="text3374"
     sodipodi:linespacing="125%"><tspan
       sodipodi:role="line"
       id="tspan3376"
       x="30.365566"
       y="93.86792" /></text>
<flowRoot
     xml:space="preserve"
     id="flowRoot3378"
     style="font-style:normal;font-weight:normal;font-size:40px;line-height:125%;font-family:sans-serif;letter-spacing:0px;word-spacing:0px;fill:#000000;fill-opacity:1;stroke:none;stroke-width:1px;stroke-linecap:butt;stroke-linejoin:miter;stroke-opacity:1"
     transform="translate(0,-50)"><flowRegion
       id="flowRegion3380"><rect
         id="rect3382"
         width="115.27122"
         height="155.66037"
         x="53.066036"
         y="38.915092" /></flowRegion><flowPara
       id="flowPara3384" /></flowRoot></svg>