<?xml version="1.0" encoding="UTF-8" standalone="no"?>
<!-- Generator: Adobe Illustrator 19.0.0, SVG Export Plug-In . SVG Version: 6.00 Build 0)  -->

<svg
   xmlns:dc="http://purl.org/dc/elements/1.1/"
   xmlns:cc="http://creativecommons.org/ns#"
   xmlns:rdf="http://www.w3.org/1999/02/22-rdf-syntax-ns#"
   xmlns:svg="http://www.w3.org/2000/svg"
   xmlns="http://www.w3.org/2000/svg"
   xmlns:sodipodi="http://sodipodi.sourceforge.net/DTD/sodipodi-0.dtd"
   xmlns:inkscape="http://www.inkscape.org/namespaces/inkscape"
   version="1.1"
   id="Layer_1"
   x="0px"
   y="0px"
   viewBox="0 0 180 200"
   xml:space="preserve"
   inkscape:version="0.91 r13725"
   sodipodi:docname="stone.svg"
   width="180"
   height="200"><metadata
     id="metadata15"><rdf:RDF><cc:Work
         rdf:about=""><dc:format>image/svg+xml</dc:format><dc:type
           rdf:resource="http://purl.org/dc/dcmitype/StillImage" /><dc:title /></cc:Work></rdf:RDF></metadata><defs
     id="defs13" /><sodipodi:namedview
     pagecolor="#ffffff"
     bordercolor="#666666"
     borderopacity="1"
     objecttolerance="10"
     gridtolerance="10"
     guidetolerance="10"
     inkscape:pageopacity="0"
     inkscape:pageshadow="2"
     inkscape:window-width="1536"
     inkscape:window-height="801"
     id="namedview11"
     showgrid="false"
     inkscape:zoom="2.4984438"
     inkscape:cx="42.536193"
     inkscape:cy="127.68038"
     inkscape:window-x="-8"
     inkscape:window-y="-8"
     inkscape:window-maximized="1"
     inkscape:current-layer="text3344" /><style
     type="text/css"
     id="style3">
	.st0{font-family:&quot;Arial Black&quot;, &quot;Arial Bold&quot;, Gadget, sans-serif;}
	.st1{font-size:118.4014px;}
	
		.st2{fill-rule:evenodd;clip-rule:evenodd;fill:none;stroke:#000000;stroke-width:18.9859;stroke-linecap:round;stroke-miterlimit:10;}
</style><flowRoot
     xml:space="preserve"
     id="flowRoot3336"
     style="fill:black;stroke:none;stroke-opacity:1;stroke-width:1px;stroke-linejoin:miter;stroke-linecap:butt;fill-opacity:1;font-family:Arial;font-style:normal;font-weight:900;font-size:40px;line-height:125%;letter-spacing:0px;word-spacing:0px;-inkscape-font-specification:'Arial, Heavy';font-stretch:normal;font-variant:normal;text-anchor:middle;text-align:center;writing-mode:lr"><flowRegion
       id="flowRegion3338"><rect
         id="rect3340"
         width="142.58875"
         height="86.720642"
         x="17.510899"
         y="69.919037" /></flowRegion><flowPara
       id="flowPara3342" /></flowRoot><g
     transform="scale(0.83369442,1.1994803)"
     style="font-style:normal;font-variant:normal;font-weight:900;font-stretch:normal;font-size:135.0617981px;line-height:125%;font-family:Arial;-inkscape-font-specification:'Arial, Heavy';text-align:center;letter-spacing:0px;word-spacing:0px;writing-mode:lr-tb;text-anchor:middle;fill:#000000;fill-opacity:1;stroke:none;stroke-width:1px;stroke-linecap:butt;stroke-linejoin:miter;stroke-opacity:1"
     id="text3344"><path
       d="m 83.427805,92.17353 25.245795,7.91378 q -2.54365,11.01334 -8.01251,18.39953 -5.468866,7.38619 -13.608572,11.14524 -8.076115,3.75904 -20.603632,3.75904 -15.198358,0 -24.864259,-4.55042 -9.602309,-4.61637 -16.59737,-16.1573 -6.995061,-11.54092 -6.995061,-29.544766 0,-24.005124 12.273152,-36.865012 12.336743,-12.925836 34.848117,-12.925836 17.614834,0 27.662284,7.386192 10.111041,7.386192 15.007581,22.686161 l -25.43658,5.869385 q -1.335421,-4.418526 -2.798024,-6.462918 -2.416475,-3.429303 -5.914005,-5.275852 -3.49753,-1.846548 -7.821749,-1.846548 -9.793084,0 -15.007584,8.17757 -3.94267,6.067229 -3.94267,19.059014 0,16.091351 4.705768,22.09263 4.705767,5.93533 13.227023,5.93533 8.266888,0 12.463925,-4.81421 4.260627,-4.81422 6.168371,-13.98101 z"
       id="path3374"
       inkscape:connector-curvature="0" /><path
       d="m 107.61799,34.996489 30.65375,0 15.97188,29.742613 15.48046,-29.742613 30.34659,0 -28.01225,46.823182 30.65375,49.856799 -31.26805,0 -17.75337,-31.06158 -17.8148,31.06158 -31.08376,0 31.08376,-50.384384 -28.25796,-46.295597 z"
       id="path3376"
       inkscape:connector-curvature="0" /></g></svg>