<?xml version="1.0" encoding="UTF-8" standalone="no"?>
<!-- Generator: Adobe Illustrator 19.0.0, SVG Export Plug-In . SVG Version: 6.00 Build 0)  -->

<svg
   xmlns:dc="http://purl.org/dc/elements/1.1/"
   xmlns:cc="http://creativecommons.org/ns#"
   xmlns:rdf="http://www.w3.org/1999/02/22-rdf-syntax-ns#"
   xmlns:svg="http://www.w3.org/2000/svg"
   xmlns="http://www.w3.org/2000/svg"
   xmlns:sodipodi="http://sodipodi.sourceforge.net/DTD/sodipodi-0.dtd"
   xmlns:inkscape="http://www.inkscape.org/namespaces/inkscape"
   version="1.1"
   id="Layer_1"
   x="0px"
   y="0px"
   viewBox="0 0 180 200"
   xml:space="preserve"
   inkscape:version="0.91 r13725"
   sodipodi:docname="vegetation.svg"
   width="180"
   height="200"><metadata
     id="metadata15"><rdf:RDF><cc:Work
         rdf:about=""><dc:format>image/svg+xml</dc:format><dc:type
           rdf:resource="http://purl.org/dc/dcmitype/StillImage" /><dc:title /></cc:Work></rdf:RDF></metadata><defs
     id="defs13" /><sodipodi:namedview
     pagecolor="#ffffff"
     bordercolor="#666666"
     borderopacity="1"
     objecttolerance="10"
     gridtolerance="10"
     guidetolerance="10"
     inkscape:pageopacity="0"
     inkscape:pageshadow="2"
     inkscape:window-width="1536"
     inkscape:window-height="801"
     id="namedview11"
     showgrid="false"
     inkscape:zoom="2.4984438"
     inkscape:cx="89.076626"
     inkscape:cy="125.51954"
     inkscape:window-x="-8"
     inkscape:window-y="-8"
     inkscape:window-maximized="1"
     inkscape:current-layer="text3344" /><style
     type="text/css"
     id="style3">
	.st0{font-family:&quot;Arial Black&quot;, &quot;Arial Bold&quot;, Gadget, sans-serif;}
	.st1{font-size:118.4014px;}
	
		.st2{fill-rule:evenodd;clip-rule:evenodd;fill:none;stroke:#000000;stroke-width:18.9859;stroke-linecap:round;stroke-miterlimit:10;}
</style><flowRoot
     xml:space="preserve"
     id="flowRoot3336"
     style="fill:black;stroke:none;stroke-opacity:1;stroke-width:1px;stroke-linejoin:miter;stroke-linecap:butt;fill-opacity:1;font-family:Arial;font-style:normal;font-weight:900;font-size:40px;line-height:125%;letter-spacing:0px;word-spacing:0px;-inkscape-font-specification:'Arial, Heavy';font-stretch:normal;font-variant:normal;text-anchor:middle;text-align:center;writing-mode:lr"><flowRegion
       id="flowRegion3338"><rect
         id="rect3340"
         width="142.58875"
         height="86.720642"
         x="17.510899"
         y="69.919037" /></flowRegion><flowPara
       id="flowPara3342" /></flowRoot><g
     transform="scale(0.83153915,1.2025892)"
     style="font-style:normal;font-variant:normal;font-weight:900;font-stretch:normal;font-size:134.80149841px;line-height:125%;font-family:Arial;-inkscape-font-specification:'Arial, Heavy';text-align:center;letter-spacing:0px;word-spacing:0px;writing-mode:lr-tb;text-anchor:middle;fill:#000000;fill-opacity:1;stroke:none;stroke-width:1px;stroke-linecap:butt;stroke-linejoin:miter;stroke-opacity:1"
     id="text3344"><path
       d="m 19.488839,34.907137 27.896772,0 19.421805,69.441203 19.127533,-69.441203 27.072821,0 -32.016552,96.493653 -28.89729,0 -32.605089,-96.493653 z"
       id="path3348"
       inkscape:connector-curvature="0" /><path
       d="m 157.9869,96.449813 0,-20.075419 40.43283,0 0,41.138156 q -11.61,9.01748 -20.56298,12.30853 -8.89522,3.22523 -21.14059,3.22523 -15.07566,0 -24.60626,-5.85807 -9.47284,-5.85807 -14.7291,-17.44258 -5.19851,-11.5845 -5.19851,-26.591698 0,-15.797051 5.71836,-27.447375 5.71836,-11.716146 16.75074,-17.771682 8.60642,-4.673294 23.16223,-4.673294 14.03597,0 20.96731,2.896125 6.9891,2.896126 11.55224,9.017484 4.62089,6.055536 6.93133,15.402124 l -25.24162,5.134041 q -1.55956,-5.463146 -5.31404,-8.359272 -3.69671,-2.896126 -9.47283,-2.896126 -8.60642,0 -13.74716,6.845388 -5.08298,6.779568 -5.08298,21.523482 0,15.665408 5.14074,22.379153 5.1985,6.71375 14.44029,6.71375 4.38985,0 8.37537,-1.44806 3.98553,-1.44807 9.12627,-4.93658 l 0,-9.083307 -17.50164,0 z"
       id="path3350"
       inkscape:connector-curvature="0" /></g></svg>