<?xml version="1.0" encoding="UTF-8" standalone="no"?>
<!-- Generator: Adobe Illustrator 19.0.0, SVG Export Plug-In . SVG Version: 6.00 Build 0)  -->

<svg
   xmlns:dc="http://purl.org/dc/elements/1.1/"
   xmlns:cc="http://creativecommons.org/ns#"
   xmlns:rdf="http://www.w3.org/1999/02/22-rdf-syntax-ns#"
   xmlns:svg="http://www.w3.org/2000/svg"
   xmlns="http://www.w3.org/2000/svg"
   xmlns:sodipodi="http://sodipodi.sourceforge.net/DTD/sodipodi-0.dtd"
   xmlns:inkscape="http://www.inkscape.org/namespaces/inkscape"
   version="1.1"
   id="Layer_1"
   x="0px"
   y="0px"
   viewBox="0 0 310 200"
   xml:space="preserve"
   inkscape:version="0.91 r13725"
   sodipodi:docname="wash-river.svg"
   width="310"
   height="200"><metadata
     id="metadata11"><rdf:RDF><cc:Work
         rdf:about=""><dc:format>image/svg+xml</dc:format><dc:type
           rdf:resource="http://purl.org/dc/dcmitype/StillImage" /><dc:title /></cc:Work></rdf:RDF></metadata><defs
     id="defs9" /><sodipodi:namedview
     pagecolor="#ffffff"
     bordercolor="#666666"
     borderopacity="1"
     objecttolerance="10"
     gridtolerance="10"
     guidetolerance="10"
     inkscape:pageopacity="0"
     inkscape:pageshadow="2"
     inkscape:window-width="1536"
     inkscape:window-height="801"
     id="namedview7"
     showgrid="false"
     inkscape:zoom="2.3566667"
     inkscape:cx="135.7915"
     inkscape:cy="96.558824"
     inkscape:window-x="-8"
     inkscape:window-y="-8"
     inkscape:window-maximized="1"
     inkscape:current-layer="text5" /><style
     type="text/css"
     id="style3">
	.st0{font-family:&quot;Arial Black&quot;, &quot;Arial Bold&quot;, Gadget, sans-serif;}
	.st1{font-size:75px;}
</style><g
     transform="scale(0.77009186,1.2985464)"
     style="font-size:124.75791931px;font-family:'Arial Black', 'Arial Bold', Gadget, sans-serif"
     id="text5"><path
       d="m 19.478197,77.03965 q 0,-21.869186 11.670392,-34.052577 11.670391,-12.18339 32.50204,-12.18339 21.356816,0 32.910504,12.000639 11.553677,11.939723 11.553677,33.504325 0,15.655656 -5.07661,25.706953 -5.018273,9.99038 -14.587989,15.59474 -9.511369,5.54344 -23.749247,5.54344 -14.471286,0 -23.982654,-4.81244 Q 31.265292,113.5289 25.371744,103.11211 19.478197,92.695307 19.478197,77.03965 Z m 26.433437,0.121834 q 0,13.523563 4.784861,19.432508 4.843212,5.908948 13.12919,5.908948 8.519385,0 13.187542,-5.787114 4.668157,-5.787111 4.668157,-20.772681 0,-12.609809 -4.901564,-18.39692 -4.843213,-5.848027 -13.187543,-5.848027 -7.994218,0 -12.83743,5.908944 -4.843213,5.908944 -4.843213,19.554342 z"
       style="font-size:124.75791931px;font-family:'Arial Black', 'Arial Bold', Gadget, sans-serif"
       id="path3370"
       inkscape:connector-curvature="0" /><path
       d="m 172.03574,32.326607 25.02756,0 0,53.241416 q 0,7.919204 -2.27019,14.985567 -2.21484,7.00545 -7.03209,12.30523 -4.76188,5.23886 -10.0221,7.37095 -7.30893,2.98493 -17.55252,2.98493 -5.92466,0 -12.95675,-0.91375 -6.97671,-0.91376 -11.68322,-3.5941 -4.70651,-2.74127 -8.63784,-7.73646 -3.87594,-4.99519 -5.31558,-10.29496 -2.32558,-8.528376 -2.32558,-15.107407 l 0,-53.241416 25.02758,0 0,54.520672 q 0,7.310035 3.65446,11.452387 3.70984,4.081434 10.24358,4.081434 6.47838,0 10.13284,-4.020517 3.70985,-4.081435 3.70985,-11.513304 l 0,-54.520672 z"
       style="font-size:124.75791931px;font-family:'Arial Black', 'Arial Bold', Gadget, sans-serif"
       id="path3372"
       inkscape:connector-curvature="0" /><path
       d="m 212.80222,32.326607 68.59555,0 0,19.067006 -42.94285,0 0,14.19365 39.83515,0 0,18.214169 -39.83515,0 0,17.604998 44.18593,0 0,20.22443 -69.83863,0 0,-89.304253 z"
       style="font-size:124.75791931px;font-family:'Arial Black', 'Arial Bold', Gadget, sans-serif"
       id="path3374"
       inkscape:connector-curvature="0" /><path
       d="m 303.38571,32.326607 37.4983,0 q 11.08791,0 17.88552,3.289515 6.85334,3.289515 11.31078,9.442128 4.45746,6.152612 6.46331,14.315484 2.00585,8.162871 2.00585,17.300414 0,14.315484 -3.00878,22.234688 -2.95307,7.858284 -8.24629,13.218974 -5.29322,5.29978 -11.36649,7.06637 -8.302,2.43668 -15.0439,2.43668 l -37.4983,0 0,-89.304253 z m 25.24031,20.224428 0,48.794475 6.18472,0 q 7.91197,0 11.25506,-1.888421 3.34308,-1.949343 5.2375,-6.700865 1.89442,-4.81244 1.89442,-15.533823 0,-14.19365 -4.23458,-19.432508 -4.23458,-5.238858 -14.04097,-5.238858 l -6.29615,0 z"
       style="font-size:124.75791931px;font-family:'Arial Black', 'Arial Bold', Gadget, sans-serif"
       id="path3376"
       inkscape:connector-curvature="0" /></g><text
     transform="scale(0.79983082,1.2502644)"
     class="st0 st1"
     x="5.0010576"
     y="96.020195"
     style="font-size:97.24591827px;font-family:'Arial Black', 'Arial Bold', Gadget, sans-serif"
     id="text3386" />
<text
     xml:space="preserve"
     style="font-style:normal;font-weight:normal;font-size:40px;line-height:125%;font-family:sans-serif;letter-spacing:0px;word-spacing:0px;fill:#000000;fill-opacity:1;stroke:none;stroke-width:1px;stroke-linecap:butt;stroke-linejoin:miter;stroke-opacity:1"
     x="83.726418"
     y="71.75708"
     id="text3370"
     sodipodi:linespacing="125%"><tspan
       sodipodi:role="line"
       id="tspan3372"
       x="83.726418"
       y="71.75708" /></text>
<text
     xml:space="preserve"
     style="font-style:normal;font-weight:normal;font-size:40px;line-height:125%;font-family:sans-serif;letter-spacing:0px;word-spacing:0px;fill:#000000;fill-opacity:1;stroke:none;stroke-width:1px;stroke-linecap:butt;stroke-linejoin:miter;stroke-opacity:1"
     x="30.365566"
     y="93.86792"
     id="text3374"
     sodipodi:linespacing="125%"><tspan
       sodipodi:role="line"
       id="tspan3376"
       x="30.365566"
       y="93.86792" /></text>
<flowRoot
     xml:space="preserve"
     id="flowRoot3378"
     style="font-style:normal;font-weight:normal;font-size:40px;line-height:125%;font-family:sans-serif;letter-spacing:0px;word-spacing:0px;fill:#000000;fill-opacity:1;stroke:none;stroke-width:1px;stroke-linecap:butt;stroke-linejoin:miter;stroke-opacity:1"
     transform="translate(0,-50)"><flowRegion
       id="flowRegion3380"><rect
         id="rect3382"
         width="115.27122"
         height="155.66037"
         x="53.066036"
         y="38.915092" /></flowRegion><flowPara
       id="flowPara3384" /></flowRoot><text
     xml:space="preserve"
     style="font-style:normal;font-weight:normal;font-size:40px;line-height:125%;font-family:sans-serif;letter-spacing:0px;word-spacing:0px;fill:#000000;fill-opacity:1;stroke:none;stroke-width:1px;stroke-linecap:butt;stroke-linejoin:miter;stroke-opacity:1"
     x="243.51414"
     y="80.601425"
     id="text3422"
     sodipodi:linespacing="125%"><tspan
       sodipodi:role="line"
       id="tspan3424"
       x="243.51414"
       y="80.601425" /></text>
</svg>